G04 #@! TF.GenerationSoftware,KiCad,Pcbnew,9.0.1*
G04 #@! TF.CreationDate,2025-04-25T23:35:10+02:00*
G04 #@! TF.ProjectId,DistributedPulseModulation,44697374-7269-4627-9574-656450756c73,rev?*
G04 #@! TF.SameCoordinates,Original*
G04 #@! TF.FileFunction,Legend,Top*
G04 #@! TF.FilePolarity,Positive*
%FSLAX46Y46*%
G04 Gerber Fmt 4.6, Leading zero omitted, Abs format (unit mm)*
G04 Created by KiCad (PCBNEW 9.0.1) date 2025-04-25 23:35:10*
%MOMM*%
%LPD*%
G01*
G04 APERTURE LIST*
G04 Aperture macros list*
%AMRoundRect*
0 Rectangle with rounded corners*
0 $1 Rounding radius*
0 $2 $3 $4 $5 $6 $7 $8 $9 X,Y pos of 4 corners*
0 Add a 4 corners polygon primitive as box body*
4,1,4,$2,$3,$4,$5,$6,$7,$8,$9,$2,$3,0*
0 Add four circle primitives for the rounded corners*
1,1,$1+$1,$2,$3*
1,1,$1+$1,$4,$5*
1,1,$1+$1,$6,$7*
1,1,$1+$1,$8,$9*
0 Add four rect primitives between the rounded corners*
20,1,$1+$1,$2,$3,$4,$5,0*
20,1,$1+$1,$4,$5,$6,$7,0*
20,1,$1+$1,$6,$7,$8,$9,0*
20,1,$1+$1,$8,$9,$2,$3,0*%
G04 Aperture macros list end*
%ADD10C,1.000000*%
%ADD11C,0.150000*%
%ADD12C,0.500000*%
%ADD13C,0.125000*%
%ADD14C,0.120000*%
%ADD15C,1.800000*%
%ADD16O,1.800000X1.800000*%
%ADD17RoundRect,0.100000X0.850000X-0.850000X0.850000X0.850000X-0.850000X0.850000X-0.850000X-0.850000X0*%
%ADD18C,1.900000*%
%ADD19RoundRect,0.281250X0.618750X0.618750X-0.618750X0.618750X-0.618750X-0.618750X0.618750X-0.618750X0*%
%ADD20C,1.000000*%
%ADD21C,6.600000*%
%ADD22RoundRect,0.287735X-0.474765X-0.712265X0.474765X-0.712265X0.474765X0.712265X-0.474765X0.712265X0*%
%ADD23RoundRect,0.281250X-0.618750X-0.618750X0.618750X-0.618750X0.618750X0.618750X-0.618750X0.618750X0*%
%ADD24RoundRect,0.285088X-0.527412X-0.689912X0.527412X-0.689912X0.527412X0.689912X-0.527412X0.689912X0*%
%ADD25RoundRect,0.100000X0.850000X0.850000X-0.850000X0.850000X-0.850000X-0.850000X0.850000X-0.850000X0*%
%ADD26RoundRect,0.281250X1.018750X0.618750X-1.018750X0.618750X-1.018750X-0.618750X1.018750X-0.618750X0*%
%ADD27O,2.600000X1.800000*%
%ADD28RoundRect,0.281250X-0.618750X0.618750X-0.618750X-0.618750X0.618750X-0.618750X0.618750X0.618750X0*%
%ADD29RoundRect,0.425000X-0.675000X-0.425000X0.675000X-0.425000X0.675000X0.425000X-0.675000X0.425000X0*%
%ADD30RoundRect,0.550000X-0.550000X-1.450000X0.550000X-1.450000X0.550000X1.450000X-0.550000X1.450000X0*%
%ADD31RoundRect,0.288462X-0.461538X-0.686538X0.461538X-0.686538X0.461538X0.686538X-0.461538X0.686538X0*%
%ADD32RoundRect,0.279412X-0.670588X0.670588X-0.670588X-0.670588X0.670588X-0.670588X0.670588X0.670588X0*%
%ADD33RoundRect,0.100000X-0.850000X-0.850000X0.850000X-0.850000X0.850000X0.850000X-0.850000X0.850000X0*%
%ADD34RoundRect,0.285088X0.527412X0.689912X-0.527412X0.689912X-0.527412X-0.689912X0.527412X-0.689912X0*%
%ADD35RoundRect,0.287735X-0.712265X0.474765X-0.712265X-0.474765X0.712265X-0.474765X0.712265X0.474765X0*%
G04 APERTURE END LIST*
D10*
X55880000Y-119380000D02*
X55880000Y-114300000D01*
D11*
X83185000Y-81915000D02*
X88265000Y-81915000D01*
X88265000Y-107315000D01*
X83185000Y-107315000D01*
X83185000Y-81915000D01*
X90170000Y-107950000D02*
X91440000Y-107950000D01*
X91440000Y-111760000D01*
X90170000Y-111760000D01*
X90170000Y-107950000D01*
G36*
X90170000Y-107950000D02*
G01*
X91440000Y-107950000D01*
X91440000Y-111760000D01*
X90170000Y-111760000D01*
X90170000Y-107950000D01*
G37*
X83820000Y-100330000D02*
X87630000Y-100330000D01*
X87630000Y-101600000D01*
X83820000Y-101600000D01*
X83820000Y-100330000D01*
G36*
X83820000Y-100330000D02*
G01*
X87630000Y-100330000D01*
X87630000Y-101600000D01*
X83820000Y-101600000D01*
X83820000Y-100330000D01*
G37*
X89535000Y-81915000D02*
X94615000Y-81915000D01*
X94615000Y-102235000D01*
X89535000Y-102235000D01*
X89535000Y-81915000D01*
X83820000Y-107950000D02*
X87630000Y-107950000D01*
X87630000Y-109220000D01*
X83820000Y-109220000D01*
X83820000Y-107950000D01*
G36*
X83820000Y-107950000D02*
G01*
X87630000Y-107950000D01*
X87630000Y-109220000D01*
X83820000Y-109220000D01*
X83820000Y-107950000D01*
G37*
X83820000Y-105410000D02*
X87630000Y-105410000D01*
X87630000Y-106680000D01*
X83820000Y-106680000D01*
X83820000Y-105410000D01*
G36*
X83820000Y-105410000D02*
G01*
X87630000Y-105410000D01*
X87630000Y-106680000D01*
X83820000Y-106680000D01*
X83820000Y-105410000D01*
G37*
X92710000Y-87630000D02*
X93980000Y-87630000D01*
X93980000Y-91440000D01*
X92710000Y-91440000D01*
X92710000Y-87630000D01*
G36*
X92710000Y-87630000D02*
G01*
X93980000Y-87630000D01*
X93980000Y-91440000D01*
X92710000Y-91440000D01*
X92710000Y-87630000D01*
G37*
X83185000Y-81915000D02*
X88265000Y-81915000D01*
X88265000Y-94615000D01*
X83185000Y-94615000D01*
X83185000Y-81915000D01*
D10*
X66040000Y-111760000D02*
X55880000Y-111760000D01*
D12*
X58420000Y-59690000D02*
X54610000Y-55880000D01*
D11*
X83820000Y-97790000D02*
X87630000Y-97790000D01*
X87630000Y-99060000D01*
X83820000Y-99060000D01*
X83820000Y-97790000D01*
G36*
X83820000Y-97790000D02*
G01*
X87630000Y-97790000D01*
X87630000Y-99060000D01*
X83820000Y-99060000D01*
X83820000Y-97790000D01*
G37*
X57150000Y-80645000D02*
X57150000Y-81915000D01*
X89535000Y-81915000D02*
X94615000Y-81915000D01*
X94615000Y-94615000D01*
X89535000Y-94615000D01*
X89535000Y-81915000D01*
X60325000Y-80645000D02*
X60325000Y-81915000D01*
X83185000Y-81915000D02*
X88265000Y-81915000D01*
X88265000Y-109855000D01*
X83185000Y-109855000D01*
X83185000Y-81915000D01*
X83820000Y-82550000D02*
X87630000Y-82550000D01*
X87630000Y-83820000D01*
X83820000Y-83820000D01*
X83820000Y-82550000D01*
G36*
X83820000Y-82550000D02*
G01*
X87630000Y-82550000D01*
X87630000Y-83820000D01*
X83820000Y-83820000D01*
X83820000Y-82550000D01*
G37*
X83820000Y-90170000D02*
X87630000Y-90170000D01*
X87630000Y-91440000D01*
X83820000Y-91440000D01*
X83820000Y-90170000D01*
G36*
X83820000Y-90170000D02*
G01*
X87630000Y-90170000D01*
X87630000Y-91440000D01*
X83820000Y-91440000D01*
X83820000Y-90170000D01*
G37*
X89535000Y-81915000D02*
X94615000Y-81915000D01*
X94615000Y-99695000D01*
X89535000Y-99695000D01*
X89535000Y-81915000D01*
X89535000Y-81915000D02*
X94615000Y-81915000D01*
X94615000Y-86995000D01*
X89535000Y-86995000D01*
X89535000Y-81915000D01*
D12*
X52705000Y-55880000D02*
X54610000Y-55880000D01*
D11*
X90170000Y-92710000D02*
X91440000Y-92710000D01*
X91440000Y-96520000D01*
X90170000Y-96520000D01*
X90170000Y-92710000D01*
G36*
X90170000Y-92710000D02*
G01*
X91440000Y-92710000D01*
X91440000Y-96520000D01*
X90170000Y-96520000D01*
X90170000Y-92710000D01*
G37*
X83185000Y-81915000D02*
X88265000Y-81915000D01*
X88265000Y-102235000D01*
X83185000Y-102235000D01*
X83185000Y-81915000D01*
X85725000Y-81915000D02*
X88265000Y-81915000D01*
X88265000Y-112395000D01*
X85725000Y-112395000D01*
X85725000Y-81915000D01*
X89535000Y-81915000D02*
X94615000Y-81915000D01*
X94615000Y-92075000D01*
X89535000Y-92075000D01*
X89535000Y-81915000D01*
X90170000Y-97790000D02*
X91440000Y-97790000D01*
X91440000Y-101600000D01*
X90170000Y-101600000D01*
X90170000Y-97790000D01*
G36*
X90170000Y-97790000D02*
G01*
X91440000Y-97790000D01*
X91440000Y-101600000D01*
X90170000Y-101600000D01*
X90170000Y-97790000D01*
G37*
X89535000Y-81915000D02*
X94615000Y-81915000D01*
X94615000Y-104775000D01*
X89535000Y-104775000D01*
X89535000Y-81915000D01*
X83820000Y-87630000D02*
X87630000Y-87630000D01*
X87630000Y-88900000D01*
X83820000Y-88900000D01*
X83820000Y-87630000D01*
G36*
X83820000Y-87630000D02*
G01*
X87630000Y-87630000D01*
X87630000Y-88900000D01*
X83820000Y-88900000D01*
X83820000Y-87630000D01*
G37*
X92710000Y-102870000D02*
X93980000Y-102870000D01*
X93980000Y-106680000D01*
X92710000Y-106680000D01*
X92710000Y-102870000D01*
G36*
X92710000Y-102870000D02*
G01*
X93980000Y-102870000D01*
X93980000Y-106680000D01*
X92710000Y-106680000D01*
X92710000Y-102870000D01*
G37*
X83820000Y-95250000D02*
X87630000Y-95250000D01*
X87630000Y-96520000D01*
X83820000Y-96520000D01*
X83820000Y-95250000D01*
G36*
X83820000Y-95250000D02*
G01*
X87630000Y-95250000D01*
X87630000Y-96520000D01*
X83820000Y-96520000D01*
X83820000Y-95250000D01*
G37*
X83185000Y-81915000D02*
X88265000Y-81915000D01*
X88265000Y-89535000D01*
X83185000Y-89535000D01*
X83185000Y-81915000D01*
X92710000Y-97790000D02*
X93980000Y-97790000D01*
X93980000Y-101600000D01*
X92710000Y-101600000D01*
X92710000Y-97790000D01*
G36*
X92710000Y-97790000D02*
G01*
X93980000Y-97790000D01*
X93980000Y-101600000D01*
X92710000Y-101600000D01*
X92710000Y-97790000D01*
G37*
X89535000Y-81915000D02*
X94615000Y-81915000D01*
X94615000Y-107315000D01*
X89535000Y-107315000D01*
X89535000Y-81915000D01*
X89535000Y-81915000D02*
X94615000Y-81915000D01*
X94615000Y-109855000D01*
X89535000Y-109855000D01*
X89535000Y-81915000D01*
X83820000Y-92710000D02*
X87630000Y-92710000D01*
X87630000Y-93980000D01*
X83820000Y-93980000D01*
X83820000Y-92710000D01*
G36*
X83820000Y-92710000D02*
G01*
X87630000Y-92710000D01*
X87630000Y-93980000D01*
X83820000Y-93980000D01*
X83820000Y-92710000D01*
G37*
X83820000Y-85090000D02*
X87630000Y-85090000D01*
X87630000Y-86360000D01*
X83820000Y-86360000D01*
X83820000Y-85090000D01*
G36*
X83820000Y-85090000D02*
G01*
X87630000Y-85090000D01*
X87630000Y-86360000D01*
X83820000Y-86360000D01*
X83820000Y-85090000D01*
G37*
D10*
X63500000Y-119380000D02*
X63500000Y-114300000D01*
D11*
X83185000Y-81915000D02*
X88265000Y-81915000D01*
X88265000Y-86995000D01*
X83185000Y-86995000D01*
X83185000Y-81915000D01*
X89535000Y-81915000D02*
X94615000Y-81915000D01*
X94615000Y-97155000D01*
X89535000Y-97155000D01*
X89535000Y-81915000D01*
X55245000Y-80645000D02*
X57150000Y-80645000D01*
X55245000Y-81915000D02*
X55245000Y-80645000D01*
X83820000Y-110490000D02*
X87630000Y-110490000D01*
X87630000Y-111760000D01*
X83820000Y-111760000D01*
X83820000Y-110490000D01*
G36*
X83820000Y-110490000D02*
G01*
X87630000Y-110490000D01*
X87630000Y-111760000D01*
X83820000Y-111760000D01*
X83820000Y-110490000D01*
G37*
X89535000Y-81915000D02*
X94615000Y-81915000D01*
X94615000Y-89535000D01*
X89535000Y-89535000D01*
X89535000Y-81915000D01*
X83185000Y-81915000D02*
X88265000Y-81915000D01*
X88265000Y-104775000D01*
X83185000Y-104775000D01*
X83185000Y-81915000D01*
X92075000Y-81915000D02*
X94615000Y-81915000D01*
X94615000Y-112395000D01*
X92075000Y-112395000D01*
X92075000Y-81915000D01*
X83185000Y-81915000D02*
X88265000Y-81915000D01*
X88265000Y-112395000D01*
X83185000Y-112395000D01*
X83185000Y-81915000D01*
D12*
X58420000Y-59690000D02*
X70485000Y-59690000D01*
D11*
X83185000Y-81915000D02*
X88265000Y-81915000D01*
X88265000Y-97155000D01*
X83185000Y-97155000D01*
X83185000Y-81915000D01*
D12*
X71755000Y-60960000D02*
X70485000Y-59690000D01*
D10*
X58420000Y-119380000D02*
X58420000Y-114300000D01*
D11*
X83185000Y-81915000D02*
X88265000Y-81915000D01*
X88265000Y-99695000D01*
X83185000Y-99695000D01*
X83185000Y-81915000D01*
X92710000Y-82550000D02*
X93980000Y-82550000D01*
X93980000Y-86360000D01*
X92710000Y-86360000D01*
X92710000Y-82550000D01*
G36*
X92710000Y-82550000D02*
G01*
X93980000Y-82550000D01*
X93980000Y-86360000D01*
X92710000Y-86360000D01*
X92710000Y-82550000D01*
G37*
X92710000Y-92710000D02*
X93980000Y-92710000D01*
X93980000Y-96520000D01*
X92710000Y-96520000D01*
X92710000Y-92710000D01*
G36*
X92710000Y-92710000D02*
G01*
X93980000Y-92710000D01*
X93980000Y-96520000D01*
X92710000Y-96520000D01*
X92710000Y-92710000D01*
G37*
X92710000Y-107950000D02*
X93980000Y-107950000D01*
X93980000Y-111760000D01*
X92710000Y-111760000D01*
X92710000Y-107950000D01*
G36*
X92710000Y-107950000D02*
G01*
X93980000Y-107950000D01*
X93980000Y-111760000D01*
X92710000Y-111760000D01*
X92710000Y-107950000D01*
G37*
X90170000Y-102870000D02*
X91440000Y-102870000D01*
X91440000Y-106680000D01*
X90170000Y-106680000D01*
X90170000Y-102870000D01*
G36*
X90170000Y-102870000D02*
G01*
X91440000Y-102870000D01*
X91440000Y-106680000D01*
X90170000Y-106680000D01*
X90170000Y-102870000D01*
G37*
X83185000Y-81915000D02*
X88265000Y-81915000D01*
X88265000Y-92075000D01*
X83185000Y-92075000D01*
X83185000Y-81915000D01*
X90170000Y-87630000D02*
X91440000Y-87630000D01*
X91440000Y-91440000D01*
X90170000Y-91440000D01*
X90170000Y-87630000D01*
G36*
X90170000Y-87630000D02*
G01*
X91440000Y-87630000D01*
X91440000Y-91440000D01*
X90170000Y-91440000D01*
X90170000Y-87630000D01*
G37*
D10*
X60960000Y-119380000D02*
X60960000Y-114300000D01*
D11*
X83820000Y-102870000D02*
X87630000Y-102870000D01*
X87630000Y-104140000D01*
X83820000Y-104140000D01*
X83820000Y-102870000D01*
G36*
X83820000Y-102870000D02*
G01*
X87630000Y-102870000D01*
X87630000Y-104140000D01*
X83820000Y-104140000D01*
X83820000Y-102870000D01*
G37*
X83185000Y-81915000D02*
X88265000Y-81915000D01*
X88265000Y-84455000D01*
X83185000Y-84455000D01*
X83185000Y-81915000D01*
D10*
X66040000Y-119380000D02*
X66040000Y-114300000D01*
D11*
X58420000Y-81915000D02*
X58420000Y-80645000D01*
X90170000Y-82550000D02*
X91440000Y-82550000D01*
X91440000Y-86360000D01*
X90170000Y-86360000D01*
X90170000Y-82550000D01*
G36*
X90170000Y-82550000D02*
G01*
X91440000Y-82550000D01*
X91440000Y-86360000D01*
X90170000Y-86360000D01*
X90170000Y-82550000D01*
G37*
X58420000Y-80645000D02*
X60325000Y-80645000D01*
X89535000Y-81915000D02*
X94615000Y-81915000D01*
X94615000Y-112395000D01*
X89535000Y-112395000D01*
X89535000Y-81915000D01*
X89535000Y-81915000D02*
X94615000Y-81915000D01*
X94615000Y-84455000D01*
X89535000Y-84455000D01*
X89535000Y-81915000D01*
D13*
X67796997Y-61137190D02*
X67773188Y-61161000D01*
X67773188Y-61161000D02*
X67701759Y-61184809D01*
X67701759Y-61184809D02*
X67654140Y-61184809D01*
X67654140Y-61184809D02*
X67582712Y-61161000D01*
X67582712Y-61161000D02*
X67535093Y-61113380D01*
X67535093Y-61113380D02*
X67511283Y-61065761D01*
X67511283Y-61065761D02*
X67487474Y-60970523D01*
X67487474Y-60970523D02*
X67487474Y-60899095D01*
X67487474Y-60899095D02*
X67511283Y-60803857D01*
X67511283Y-60803857D02*
X67535093Y-60756238D01*
X67535093Y-60756238D02*
X67582712Y-60708619D01*
X67582712Y-60708619D02*
X67654140Y-60684809D01*
X67654140Y-60684809D02*
X67701759Y-60684809D01*
X67701759Y-60684809D02*
X67773188Y-60708619D01*
X67773188Y-60708619D02*
X67796997Y-60732428D01*
X68249378Y-61184809D02*
X68011283Y-61184809D01*
X68011283Y-61184809D02*
X68011283Y-60684809D01*
X68416045Y-61184809D02*
X68416045Y-60684809D01*
X68701759Y-61184809D02*
X68487474Y-60899095D01*
X68701759Y-60684809D02*
X68416045Y-60970523D01*
X68796998Y-61232428D02*
X69177950Y-61232428D01*
X69368426Y-61184809D02*
X69320807Y-61161000D01*
X69320807Y-61161000D02*
X69296997Y-61113380D01*
X69296997Y-61113380D02*
X69296997Y-60684809D01*
X69630331Y-61184809D02*
X69582712Y-61161000D01*
X69582712Y-61161000D02*
X69558902Y-61137190D01*
X69558902Y-61137190D02*
X69535093Y-61089571D01*
X69535093Y-61089571D02*
X69535093Y-60946714D01*
X69535093Y-60946714D02*
X69558902Y-60899095D01*
X69558902Y-60899095D02*
X69582712Y-60875285D01*
X69582712Y-60875285D02*
X69630331Y-60851476D01*
X69630331Y-60851476D02*
X69701759Y-60851476D01*
X69701759Y-60851476D02*
X69749378Y-60875285D01*
X69749378Y-60875285D02*
X69773188Y-60899095D01*
X69773188Y-60899095D02*
X69796997Y-60946714D01*
X69796997Y-60946714D02*
X69796997Y-61089571D01*
X69796997Y-61089571D02*
X69773188Y-61137190D01*
X69773188Y-61137190D02*
X69749378Y-61161000D01*
X69749378Y-61161000D02*
X69701759Y-61184809D01*
X69701759Y-61184809D02*
X69630331Y-61184809D01*
X70225569Y-61161000D02*
X70177950Y-61184809D01*
X70177950Y-61184809D02*
X70082712Y-61184809D01*
X70082712Y-61184809D02*
X70035093Y-61161000D01*
X70035093Y-61161000D02*
X70011283Y-61137190D01*
X70011283Y-61137190D02*
X69987474Y-61089571D01*
X69987474Y-61089571D02*
X69987474Y-60946714D01*
X69987474Y-60946714D02*
X70011283Y-60899095D01*
X70011283Y-60899095D02*
X70035093Y-60875285D01*
X70035093Y-60875285D02*
X70082712Y-60851476D01*
X70082712Y-60851476D02*
X70177950Y-60851476D01*
X70177950Y-60851476D02*
X70225569Y-60875285D01*
D12*
X55881804Y-77639238D02*
X56091327Y-77639238D01*
X56091327Y-77639238D02*
X56300851Y-77734476D01*
X56300851Y-77734476D02*
X56405613Y-77829714D01*
X56405613Y-77829714D02*
X56510375Y-78020190D01*
X56510375Y-78020190D02*
X56615137Y-78401142D01*
X56615137Y-78401142D02*
X56615137Y-78877333D01*
X56615137Y-78877333D02*
X56510375Y-79258285D01*
X56510375Y-79258285D02*
X56405613Y-79448761D01*
X56405613Y-79448761D02*
X56300851Y-79544000D01*
X56300851Y-79544000D02*
X56091327Y-79639238D01*
X56091327Y-79639238D02*
X55881804Y-79639238D01*
X55881804Y-79639238D02*
X55672280Y-79544000D01*
X55672280Y-79544000D02*
X55567518Y-79448761D01*
X55567518Y-79448761D02*
X55462756Y-79258285D01*
X55462756Y-79258285D02*
X55357994Y-78877333D01*
X55357994Y-78877333D02*
X55357994Y-78401142D01*
X55357994Y-78401142D02*
X55462756Y-78020190D01*
X55462756Y-78020190D02*
X55567518Y-77829714D01*
X55567518Y-77829714D02*
X55672280Y-77734476D01*
X55672280Y-77734476D02*
X55881804Y-77639238D01*
X60386565Y-79639238D02*
X59129422Y-79639238D01*
X59757994Y-79639238D02*
X59757994Y-77639238D01*
X59757994Y-77639238D02*
X59548470Y-77924952D01*
X59548470Y-77924952D02*
X59338946Y-78115428D01*
X59338946Y-78115428D02*
X59129422Y-78210666D01*
X63612994Y-94360880D02*
X64660613Y-94360880D01*
X63403470Y-95018023D02*
X64136804Y-92718023D01*
X64136804Y-92718023D02*
X64870137Y-95018023D01*
X65498708Y-92937071D02*
X65603470Y-92827547D01*
X65603470Y-92827547D02*
X65812994Y-92718023D01*
X65812994Y-92718023D02*
X66336803Y-92718023D01*
X66336803Y-92718023D02*
X66546327Y-92827547D01*
X66546327Y-92827547D02*
X66651089Y-92937071D01*
X66651089Y-92937071D02*
X66755851Y-93156119D01*
X66755851Y-93156119D02*
X66755851Y-93375166D01*
X66755851Y-93375166D02*
X66651089Y-93703738D01*
X66651089Y-93703738D02*
X65393946Y-95018023D01*
X65393946Y-95018023D02*
X66755851Y-95018023D01*
X63612994Y-89280880D02*
X64660613Y-89280880D01*
X63403470Y-89938023D02*
X64136804Y-87638023D01*
X64136804Y-87638023D02*
X64870137Y-89938023D01*
X66755851Y-89938023D02*
X65498708Y-89938023D01*
X66127280Y-89938023D02*
X66127280Y-87638023D01*
X66127280Y-87638023D02*
X65917756Y-87966595D01*
X65917756Y-87966595D02*
X65708232Y-88185642D01*
X65708232Y-88185642D02*
X65498708Y-88295166D01*
D11*
X73164819Y-99072506D02*
X73879104Y-99072506D01*
X73879104Y-99072506D02*
X74021961Y-99120125D01*
X74021961Y-99120125D02*
X74117200Y-99215363D01*
X74117200Y-99215363D02*
X74164819Y-99358220D01*
X74164819Y-99358220D02*
X74164819Y-99453458D01*
X74164819Y-98120125D02*
X74164819Y-98596315D01*
X74164819Y-98596315D02*
X73164819Y-98596315D01*
X74069580Y-97215363D02*
X74117200Y-97262982D01*
X74117200Y-97262982D02*
X74164819Y-97405839D01*
X74164819Y-97405839D02*
X74164819Y-97501077D01*
X74164819Y-97501077D02*
X74117200Y-97643934D01*
X74117200Y-97643934D02*
X74021961Y-97739172D01*
X74021961Y-97739172D02*
X73926723Y-97786791D01*
X73926723Y-97786791D02*
X73736247Y-97834410D01*
X73736247Y-97834410D02*
X73593390Y-97834410D01*
X73593390Y-97834410D02*
X73402914Y-97786791D01*
X73402914Y-97786791D02*
X73307676Y-97739172D01*
X73307676Y-97739172D02*
X73212438Y-97643934D01*
X73212438Y-97643934D02*
X73164819Y-97501077D01*
X73164819Y-97501077D02*
X73164819Y-97405839D01*
X73164819Y-97405839D02*
X73212438Y-97262982D01*
X73212438Y-97262982D02*
X73260057Y-97215363D01*
X73164819Y-96501077D02*
X73879104Y-96501077D01*
X73879104Y-96501077D02*
X74021961Y-96548696D01*
X74021961Y-96548696D02*
X74117200Y-96643934D01*
X74117200Y-96643934D02*
X74164819Y-96786791D01*
X74164819Y-96786791D02*
X74164819Y-96882029D01*
X74164819Y-95548696D02*
X74164819Y-96024886D01*
X74164819Y-96024886D02*
X73164819Y-96024886D01*
X74069580Y-94643934D02*
X74117200Y-94691553D01*
X74117200Y-94691553D02*
X74164819Y-94834410D01*
X74164819Y-94834410D02*
X74164819Y-94929648D01*
X74164819Y-94929648D02*
X74117200Y-95072505D01*
X74117200Y-95072505D02*
X74021961Y-95167743D01*
X74021961Y-95167743D02*
X73926723Y-95215362D01*
X73926723Y-95215362D02*
X73736247Y-95262981D01*
X73736247Y-95262981D02*
X73593390Y-95262981D01*
X73593390Y-95262981D02*
X73402914Y-95215362D01*
X73402914Y-95215362D02*
X73307676Y-95167743D01*
X73307676Y-95167743D02*
X73212438Y-95072505D01*
X73212438Y-95072505D02*
X73164819Y-94929648D01*
X73164819Y-94929648D02*
X73164819Y-94834410D01*
X73164819Y-94834410D02*
X73212438Y-94691553D01*
X73212438Y-94691553D02*
X73260057Y-94643934D01*
X73164819Y-93929648D02*
X73879104Y-93929648D01*
X73879104Y-93929648D02*
X74021961Y-93977267D01*
X74021961Y-93977267D02*
X74117200Y-94072505D01*
X74117200Y-94072505D02*
X74164819Y-94215362D01*
X74164819Y-94215362D02*
X74164819Y-94310600D01*
X74164819Y-92977267D02*
X74164819Y-93453457D01*
X74164819Y-93453457D02*
X73164819Y-93453457D01*
X74069580Y-92072505D02*
X74117200Y-92120124D01*
X74117200Y-92120124D02*
X74164819Y-92262981D01*
X74164819Y-92262981D02*
X74164819Y-92358219D01*
X74164819Y-92358219D02*
X74117200Y-92501076D01*
X74117200Y-92501076D02*
X74021961Y-92596314D01*
X74021961Y-92596314D02*
X73926723Y-92643933D01*
X73926723Y-92643933D02*
X73736247Y-92691552D01*
X73736247Y-92691552D02*
X73593390Y-92691552D01*
X73593390Y-92691552D02*
X73402914Y-92643933D01*
X73402914Y-92643933D02*
X73307676Y-92596314D01*
X73307676Y-92596314D02*
X73212438Y-92501076D01*
X73212438Y-92501076D02*
X73164819Y-92358219D01*
X73164819Y-92358219D02*
X73164819Y-92262981D01*
X73164819Y-92262981D02*
X73212438Y-92120124D01*
X73212438Y-92120124D02*
X73260057Y-92072505D01*
X73164819Y-91358219D02*
X73879104Y-91358219D01*
X73879104Y-91358219D02*
X74021961Y-91405838D01*
X74021961Y-91405838D02*
X74117200Y-91501076D01*
X74117200Y-91501076D02*
X74164819Y-91643933D01*
X74164819Y-91643933D02*
X74164819Y-91739171D01*
X74164819Y-90405838D02*
X74164819Y-90882028D01*
X74164819Y-90882028D02*
X73164819Y-90882028D01*
X74069580Y-89501076D02*
X74117200Y-89548695D01*
X74117200Y-89548695D02*
X74164819Y-89691552D01*
X74164819Y-89691552D02*
X74164819Y-89786790D01*
X74164819Y-89786790D02*
X74117200Y-89929647D01*
X74117200Y-89929647D02*
X74021961Y-90024885D01*
X74021961Y-90024885D02*
X73926723Y-90072504D01*
X73926723Y-90072504D02*
X73736247Y-90120123D01*
X73736247Y-90120123D02*
X73593390Y-90120123D01*
X73593390Y-90120123D02*
X73402914Y-90072504D01*
X73402914Y-90072504D02*
X73307676Y-90024885D01*
X73307676Y-90024885D02*
X73212438Y-89929647D01*
X73212438Y-89929647D02*
X73164819Y-89786790D01*
X73164819Y-89786790D02*
X73164819Y-89691552D01*
X73164819Y-89691552D02*
X73212438Y-89548695D01*
X73212438Y-89548695D02*
X73260057Y-89501076D01*
D12*
X58971089Y-106849238D02*
X59352042Y-106849238D01*
X59352042Y-106849238D02*
X59542518Y-106944476D01*
X59542518Y-106944476D02*
X59732994Y-107134952D01*
X59732994Y-107134952D02*
X59828232Y-107515904D01*
X59828232Y-107515904D02*
X59828232Y-108182571D01*
X59828232Y-108182571D02*
X59732994Y-108563523D01*
X59732994Y-108563523D02*
X59542518Y-108754000D01*
X59542518Y-108754000D02*
X59352042Y-108849238D01*
X59352042Y-108849238D02*
X58971089Y-108849238D01*
X58971089Y-108849238D02*
X58780613Y-108754000D01*
X58780613Y-108754000D02*
X58590137Y-108563523D01*
X58590137Y-108563523D02*
X58494899Y-108182571D01*
X58494899Y-108182571D02*
X58494899Y-107515904D01*
X58494899Y-107515904D02*
X58590137Y-107134952D01*
X58590137Y-107134952D02*
X58780613Y-106944476D01*
X58780613Y-106944476D02*
X58971089Y-106849238D01*
X61542518Y-107515904D02*
X61542518Y-108849238D01*
X60685375Y-107515904D02*
X60685375Y-108563523D01*
X60685375Y-108563523D02*
X60780613Y-108754000D01*
X60780613Y-108754000D02*
X60971089Y-108849238D01*
X60971089Y-108849238D02*
X61256804Y-108849238D01*
X61256804Y-108849238D02*
X61447280Y-108754000D01*
X61447280Y-108754000D02*
X61542518Y-108658761D01*
X62209185Y-107515904D02*
X62971089Y-107515904D01*
X62494899Y-106849238D02*
X62494899Y-108563523D01*
X62494899Y-108563523D02*
X62590137Y-108754000D01*
X62590137Y-108754000D02*
X62780613Y-108849238D01*
X62780613Y-108849238D02*
X62971089Y-108849238D01*
X84379294Y-79501666D02*
X82379294Y-79501666D01*
X82379294Y-79501666D02*
X82379294Y-79025476D01*
X82379294Y-79025476D02*
X82474532Y-78739761D01*
X82474532Y-78739761D02*
X82665008Y-78549285D01*
X82665008Y-78549285D02*
X82855484Y-78454047D01*
X82855484Y-78454047D02*
X83236436Y-78358809D01*
X83236436Y-78358809D02*
X83522151Y-78358809D01*
X83522151Y-78358809D02*
X83903103Y-78454047D01*
X83903103Y-78454047D02*
X84093579Y-78549285D01*
X84093579Y-78549285D02*
X84284056Y-78739761D01*
X84284056Y-78739761D02*
X84379294Y-79025476D01*
X84379294Y-79025476D02*
X84379294Y-79501666D01*
X84379294Y-77501666D02*
X82379294Y-77501666D01*
X82379294Y-77501666D02*
X82379294Y-76739761D01*
X82379294Y-76739761D02*
X82474532Y-76549285D01*
X82474532Y-76549285D02*
X82569770Y-76454047D01*
X82569770Y-76454047D02*
X82760246Y-76358809D01*
X82760246Y-76358809D02*
X83045960Y-76358809D01*
X83045960Y-76358809D02*
X83236436Y-76454047D01*
X83236436Y-76454047D02*
X83331675Y-76549285D01*
X83331675Y-76549285D02*
X83426913Y-76739761D01*
X83426913Y-76739761D02*
X83426913Y-77501666D01*
X84379294Y-75501666D02*
X82379294Y-75501666D01*
X82379294Y-75501666D02*
X83807865Y-74834999D01*
X83807865Y-74834999D02*
X82379294Y-74168333D01*
X82379294Y-74168333D02*
X84379294Y-74168333D01*
X87599182Y-80501666D02*
X85599182Y-80501666D01*
X85599182Y-80501666D02*
X85599182Y-80025476D01*
X85599182Y-80025476D02*
X85694420Y-79739761D01*
X85694420Y-79739761D02*
X85884896Y-79549285D01*
X85884896Y-79549285D02*
X86075372Y-79454047D01*
X86075372Y-79454047D02*
X86456324Y-79358809D01*
X86456324Y-79358809D02*
X86742039Y-79358809D01*
X86742039Y-79358809D02*
X87122991Y-79454047D01*
X87122991Y-79454047D02*
X87313467Y-79549285D01*
X87313467Y-79549285D02*
X87503944Y-79739761D01*
X87503944Y-79739761D02*
X87599182Y-80025476D01*
X87599182Y-80025476D02*
X87599182Y-80501666D01*
X87599182Y-78501666D02*
X85599182Y-78501666D01*
X85599182Y-78501666D02*
X85599182Y-78025476D01*
X85599182Y-78025476D02*
X85694420Y-77739761D01*
X85694420Y-77739761D02*
X85884896Y-77549285D01*
X85884896Y-77549285D02*
X86075372Y-77454047D01*
X86075372Y-77454047D02*
X86456324Y-77358809D01*
X86456324Y-77358809D02*
X86742039Y-77358809D01*
X86742039Y-77358809D02*
X87122991Y-77454047D01*
X87122991Y-77454047D02*
X87313467Y-77549285D01*
X87313467Y-77549285D02*
X87503944Y-77739761D01*
X87503944Y-77739761D02*
X87599182Y-78025476D01*
X87599182Y-78025476D02*
X87599182Y-78501666D01*
X87599182Y-76501666D02*
X85599182Y-76501666D01*
X85599182Y-76501666D02*
X85599182Y-75739761D01*
X85599182Y-75739761D02*
X85694420Y-75549285D01*
X85694420Y-75549285D02*
X85789658Y-75454047D01*
X85789658Y-75454047D02*
X85980134Y-75358809D01*
X85980134Y-75358809D02*
X86265848Y-75358809D01*
X86265848Y-75358809D02*
X86456324Y-75454047D01*
X86456324Y-75454047D02*
X86551563Y-75549285D01*
X86551563Y-75549285D02*
X86646801Y-75739761D01*
X86646801Y-75739761D02*
X86646801Y-76501666D01*
X87599182Y-74501666D02*
X85599182Y-74501666D01*
X85599182Y-74501666D02*
X87027753Y-73834999D01*
X87027753Y-73834999D02*
X85599182Y-73168333D01*
X85599182Y-73168333D02*
X87599182Y-73168333D01*
X63612994Y-84200880D02*
X64660613Y-84200880D01*
X63403470Y-84858023D02*
X64136804Y-82558023D01*
X64136804Y-82558023D02*
X64870137Y-84858023D01*
X66022518Y-82558023D02*
X66232041Y-82558023D01*
X66232041Y-82558023D02*
X66441565Y-82667547D01*
X66441565Y-82667547D02*
X66546327Y-82777071D01*
X66546327Y-82777071D02*
X66651089Y-82996119D01*
X66651089Y-82996119D02*
X66755851Y-83434214D01*
X66755851Y-83434214D02*
X66755851Y-83981833D01*
X66755851Y-83981833D02*
X66651089Y-84419928D01*
X66651089Y-84419928D02*
X66546327Y-84638976D01*
X66546327Y-84638976D02*
X66441565Y-84748500D01*
X66441565Y-84748500D02*
X66232041Y-84858023D01*
X66232041Y-84858023D02*
X66022518Y-84858023D01*
X66022518Y-84858023D02*
X65812994Y-84748500D01*
X65812994Y-84748500D02*
X65708232Y-84638976D01*
X65708232Y-84638976D02*
X65603470Y-84419928D01*
X65603470Y-84419928D02*
X65498708Y-83981833D01*
X65498708Y-83981833D02*
X65498708Y-83434214D01*
X65498708Y-83434214D02*
X65603470Y-82996119D01*
X65603470Y-82996119D02*
X65708232Y-82777071D01*
X65708232Y-82777071D02*
X65812994Y-82667547D01*
X65812994Y-82667547D02*
X66022518Y-82558023D01*
D13*
X56366997Y-56057190D02*
X56343188Y-56081000D01*
X56343188Y-56081000D02*
X56271759Y-56104809D01*
X56271759Y-56104809D02*
X56224140Y-56104809D01*
X56224140Y-56104809D02*
X56152712Y-56081000D01*
X56152712Y-56081000D02*
X56105093Y-56033380D01*
X56105093Y-56033380D02*
X56081283Y-55985761D01*
X56081283Y-55985761D02*
X56057474Y-55890523D01*
X56057474Y-55890523D02*
X56057474Y-55819095D01*
X56057474Y-55819095D02*
X56081283Y-55723857D01*
X56081283Y-55723857D02*
X56105093Y-55676238D01*
X56105093Y-55676238D02*
X56152712Y-55628619D01*
X56152712Y-55628619D02*
X56224140Y-55604809D01*
X56224140Y-55604809D02*
X56271759Y-55604809D01*
X56271759Y-55604809D02*
X56343188Y-55628619D01*
X56343188Y-55628619D02*
X56366997Y-55652428D01*
X56819378Y-56104809D02*
X56581283Y-56104809D01*
X56581283Y-56104809D02*
X56581283Y-55604809D01*
X56986045Y-56104809D02*
X56986045Y-55604809D01*
X57271759Y-56104809D02*
X57057474Y-55819095D01*
X57271759Y-55604809D02*
X56986045Y-55890523D01*
D12*
X98054238Y-87899523D02*
X96054238Y-87899523D01*
X96054238Y-87899523D02*
X96054238Y-87137618D01*
X96054238Y-87137618D02*
X96149476Y-86947142D01*
X96149476Y-86947142D02*
X96244714Y-86851904D01*
X96244714Y-86851904D02*
X96435190Y-86756666D01*
X96435190Y-86756666D02*
X96720904Y-86756666D01*
X96720904Y-86756666D02*
X96911380Y-86851904D01*
X96911380Y-86851904D02*
X97006619Y-86947142D01*
X97006619Y-86947142D02*
X97101857Y-87137618D01*
X97101857Y-87137618D02*
X97101857Y-87899523D01*
X96054238Y-86089999D02*
X98054238Y-85613809D01*
X98054238Y-85613809D02*
X96625666Y-85232856D01*
X96625666Y-85232856D02*
X98054238Y-84851904D01*
X98054238Y-84851904D02*
X96054238Y-84375714D01*
X98054238Y-83613809D02*
X96054238Y-83613809D01*
X96054238Y-83613809D02*
X97482809Y-82947142D01*
X97482809Y-82947142D02*
X96054238Y-82280476D01*
X96054238Y-82280476D02*
X98054238Y-82280476D01*
D11*
X56491428Y-102054819D02*
X56158095Y-101578628D01*
X55920000Y-102054819D02*
X55920000Y-101054819D01*
X55920000Y-101054819D02*
X56300952Y-101054819D01*
X56300952Y-101054819D02*
X56396190Y-101102438D01*
X56396190Y-101102438D02*
X56443809Y-101150057D01*
X56443809Y-101150057D02*
X56491428Y-101245295D01*
X56491428Y-101245295D02*
X56491428Y-101388152D01*
X56491428Y-101388152D02*
X56443809Y-101483390D01*
X56443809Y-101483390D02*
X56396190Y-101531009D01*
X56396190Y-101531009D02*
X56300952Y-101578628D01*
X56300952Y-101578628D02*
X55920000Y-101578628D01*
X56681905Y-102150057D02*
X57443809Y-102150057D01*
X57634286Y-102007200D02*
X57777143Y-102054819D01*
X57777143Y-102054819D02*
X58015238Y-102054819D01*
X58015238Y-102054819D02*
X58110476Y-102007200D01*
X58110476Y-102007200D02*
X58158095Y-101959580D01*
X58158095Y-101959580D02*
X58205714Y-101864342D01*
X58205714Y-101864342D02*
X58205714Y-101769104D01*
X58205714Y-101769104D02*
X58158095Y-101673866D01*
X58158095Y-101673866D02*
X58110476Y-101626247D01*
X58110476Y-101626247D02*
X58015238Y-101578628D01*
X58015238Y-101578628D02*
X57824762Y-101531009D01*
X57824762Y-101531009D02*
X57729524Y-101483390D01*
X57729524Y-101483390D02*
X57681905Y-101435771D01*
X57681905Y-101435771D02*
X57634286Y-101340533D01*
X57634286Y-101340533D02*
X57634286Y-101245295D01*
X57634286Y-101245295D02*
X57681905Y-101150057D01*
X57681905Y-101150057D02*
X57729524Y-101102438D01*
X57729524Y-101102438D02*
X57824762Y-101054819D01*
X57824762Y-101054819D02*
X58062857Y-101054819D01*
X58062857Y-101054819D02*
X58205714Y-101102438D01*
X59205714Y-101959580D02*
X59158095Y-102007200D01*
X59158095Y-102007200D02*
X59015238Y-102054819D01*
X59015238Y-102054819D02*
X58920000Y-102054819D01*
X58920000Y-102054819D02*
X58777143Y-102007200D01*
X58777143Y-102007200D02*
X58681905Y-101911961D01*
X58681905Y-101911961D02*
X58634286Y-101816723D01*
X58634286Y-101816723D02*
X58586667Y-101626247D01*
X58586667Y-101626247D02*
X58586667Y-101483390D01*
X58586667Y-101483390D02*
X58634286Y-101292914D01*
X58634286Y-101292914D02*
X58681905Y-101197676D01*
X58681905Y-101197676D02*
X58777143Y-101102438D01*
X58777143Y-101102438D02*
X58920000Y-101054819D01*
X58920000Y-101054819D02*
X59015238Y-101054819D01*
X59015238Y-101054819D02*
X59158095Y-101102438D01*
X59158095Y-101102438D02*
X59205714Y-101150057D01*
X60110476Y-102054819D02*
X59634286Y-102054819D01*
X59634286Y-102054819D02*
X59634286Y-101054819D01*
X60967619Y-102054819D02*
X60396191Y-102054819D01*
X60681905Y-102054819D02*
X60681905Y-101054819D01*
X60681905Y-101054819D02*
X60586667Y-101197676D01*
X60586667Y-101197676D02*
X60491429Y-101292914D01*
X60491429Y-101292914D02*
X60396191Y-101340533D01*
X56467618Y-99514819D02*
X56134285Y-99038628D01*
X55896190Y-99514819D02*
X55896190Y-98514819D01*
X55896190Y-98514819D02*
X56277142Y-98514819D01*
X56277142Y-98514819D02*
X56372380Y-98562438D01*
X56372380Y-98562438D02*
X56419999Y-98610057D01*
X56419999Y-98610057D02*
X56467618Y-98705295D01*
X56467618Y-98705295D02*
X56467618Y-98848152D01*
X56467618Y-98848152D02*
X56419999Y-98943390D01*
X56419999Y-98943390D02*
X56372380Y-98991009D01*
X56372380Y-98991009D02*
X56277142Y-99038628D01*
X56277142Y-99038628D02*
X55896190Y-99038628D01*
X56658095Y-99610057D02*
X57419999Y-99610057D01*
X57610476Y-99467200D02*
X57753333Y-99514819D01*
X57753333Y-99514819D02*
X57991428Y-99514819D01*
X57991428Y-99514819D02*
X58086666Y-99467200D01*
X58086666Y-99467200D02*
X58134285Y-99419580D01*
X58134285Y-99419580D02*
X58181904Y-99324342D01*
X58181904Y-99324342D02*
X58181904Y-99229104D01*
X58181904Y-99229104D02*
X58134285Y-99133866D01*
X58134285Y-99133866D02*
X58086666Y-99086247D01*
X58086666Y-99086247D02*
X57991428Y-99038628D01*
X57991428Y-99038628D02*
X57800952Y-98991009D01*
X57800952Y-98991009D02*
X57705714Y-98943390D01*
X57705714Y-98943390D02*
X57658095Y-98895771D01*
X57658095Y-98895771D02*
X57610476Y-98800533D01*
X57610476Y-98800533D02*
X57610476Y-98705295D01*
X57610476Y-98705295D02*
X57658095Y-98610057D01*
X57658095Y-98610057D02*
X57705714Y-98562438D01*
X57705714Y-98562438D02*
X57800952Y-98514819D01*
X57800952Y-98514819D02*
X58039047Y-98514819D01*
X58039047Y-98514819D02*
X58181904Y-98562438D01*
X58610476Y-99514819D02*
X58610476Y-98514819D01*
X58610476Y-98514819D02*
X58848571Y-98514819D01*
X58848571Y-98514819D02*
X58991428Y-98562438D01*
X58991428Y-98562438D02*
X59086666Y-98657676D01*
X59086666Y-98657676D02*
X59134285Y-98752914D01*
X59134285Y-98752914D02*
X59181904Y-98943390D01*
X59181904Y-98943390D02*
X59181904Y-99086247D01*
X59181904Y-99086247D02*
X59134285Y-99276723D01*
X59134285Y-99276723D02*
X59086666Y-99371961D01*
X59086666Y-99371961D02*
X58991428Y-99467200D01*
X58991428Y-99467200D02*
X58848571Y-99514819D01*
X58848571Y-99514819D02*
X58610476Y-99514819D01*
X59562857Y-99229104D02*
X60039047Y-99229104D01*
X59467619Y-99514819D02*
X59800952Y-98514819D01*
X59800952Y-98514819D02*
X60134285Y-99514819D01*
X60991428Y-99514819D02*
X60420000Y-99514819D01*
X60705714Y-99514819D02*
X60705714Y-98514819D01*
X60705714Y-98514819D02*
X60610476Y-98657676D01*
X60610476Y-98657676D02*
X60515238Y-98752914D01*
X60515238Y-98752914D02*
X60420000Y-98800533D01*
X129899580Y-120062857D02*
X129947200Y-120110476D01*
X129947200Y-120110476D02*
X129994819Y-120253333D01*
X129994819Y-120253333D02*
X129994819Y-120348571D01*
X129994819Y-120348571D02*
X129947200Y-120491428D01*
X129947200Y-120491428D02*
X129851961Y-120586666D01*
X129851961Y-120586666D02*
X129756723Y-120634285D01*
X129756723Y-120634285D02*
X129566247Y-120681904D01*
X129566247Y-120681904D02*
X129423390Y-120681904D01*
X129423390Y-120681904D02*
X129232914Y-120634285D01*
X129232914Y-120634285D02*
X129137676Y-120586666D01*
X129137676Y-120586666D02*
X129042438Y-120491428D01*
X129042438Y-120491428D02*
X128994819Y-120348571D01*
X128994819Y-120348571D02*
X128994819Y-120253333D01*
X128994819Y-120253333D02*
X129042438Y-120110476D01*
X129042438Y-120110476D02*
X129090057Y-120062857D01*
X129994819Y-119110476D02*
X129994819Y-119681904D01*
X129994819Y-119396190D02*
X128994819Y-119396190D01*
X128994819Y-119396190D02*
X129137676Y-119491428D01*
X129137676Y-119491428D02*
X129232914Y-119586666D01*
X129232914Y-119586666D02*
X129280533Y-119681904D01*
X129994819Y-118158095D02*
X129994819Y-118729523D01*
X129994819Y-118443809D02*
X128994819Y-118443809D01*
X128994819Y-118443809D02*
X129137676Y-118539047D01*
X129137676Y-118539047D02*
X129232914Y-118634285D01*
X129232914Y-118634285D02*
X129280533Y-118729523D01*
X111849819Y-86462856D02*
X111849819Y-85796190D01*
X111849819Y-85796190D02*
X112849819Y-86224761D01*
X112183152Y-84986666D02*
X112849819Y-84986666D01*
X111802200Y-85224761D02*
X112516485Y-85462856D01*
X112516485Y-85462856D02*
X112516485Y-84843809D01*
X112849819Y-83986666D02*
X112849819Y-84462856D01*
X112849819Y-84462856D02*
X111849819Y-84462856D01*
X112802200Y-83700951D02*
X112849819Y-83558094D01*
X112849819Y-83558094D02*
X112849819Y-83319999D01*
X112849819Y-83319999D02*
X112802200Y-83224761D01*
X112802200Y-83224761D02*
X112754580Y-83177142D01*
X112754580Y-83177142D02*
X112659342Y-83129523D01*
X112659342Y-83129523D02*
X112564104Y-83129523D01*
X112564104Y-83129523D02*
X112468866Y-83177142D01*
X112468866Y-83177142D02*
X112421247Y-83224761D01*
X112421247Y-83224761D02*
X112373628Y-83319999D01*
X112373628Y-83319999D02*
X112326009Y-83510475D01*
X112326009Y-83510475D02*
X112278390Y-83605713D01*
X112278390Y-83605713D02*
X112230771Y-83653332D01*
X112230771Y-83653332D02*
X112135533Y-83700951D01*
X112135533Y-83700951D02*
X112040295Y-83700951D01*
X112040295Y-83700951D02*
X111945057Y-83653332D01*
X111945057Y-83653332D02*
X111897438Y-83605713D01*
X111897438Y-83605713D02*
X111849819Y-83510475D01*
X111849819Y-83510475D02*
X111849819Y-83272380D01*
X111849819Y-83272380D02*
X111897438Y-83129523D01*
X112278390Y-82558094D02*
X112230771Y-82653332D01*
X112230771Y-82653332D02*
X112183152Y-82700951D01*
X112183152Y-82700951D02*
X112087914Y-82748570D01*
X112087914Y-82748570D02*
X112040295Y-82748570D01*
X112040295Y-82748570D02*
X111945057Y-82700951D01*
X111945057Y-82700951D02*
X111897438Y-82653332D01*
X111897438Y-82653332D02*
X111849819Y-82558094D01*
X111849819Y-82558094D02*
X111849819Y-82367618D01*
X111849819Y-82367618D02*
X111897438Y-82272380D01*
X111897438Y-82272380D02*
X111945057Y-82224761D01*
X111945057Y-82224761D02*
X112040295Y-82177142D01*
X112040295Y-82177142D02*
X112087914Y-82177142D01*
X112087914Y-82177142D02*
X112183152Y-82224761D01*
X112183152Y-82224761D02*
X112230771Y-82272380D01*
X112230771Y-82272380D02*
X112278390Y-82367618D01*
X112278390Y-82367618D02*
X112278390Y-82558094D01*
X112278390Y-82558094D02*
X112326009Y-82653332D01*
X112326009Y-82653332D02*
X112373628Y-82700951D01*
X112373628Y-82700951D02*
X112468866Y-82748570D01*
X112468866Y-82748570D02*
X112659342Y-82748570D01*
X112659342Y-82748570D02*
X112754580Y-82700951D01*
X112754580Y-82700951D02*
X112802200Y-82653332D01*
X112802200Y-82653332D02*
X112849819Y-82558094D01*
X112849819Y-82558094D02*
X112849819Y-82367618D01*
X112849819Y-82367618D02*
X112802200Y-82272380D01*
X112802200Y-82272380D02*
X112754580Y-82224761D01*
X112754580Y-82224761D02*
X112659342Y-82177142D01*
X112659342Y-82177142D02*
X112468866Y-82177142D01*
X112468866Y-82177142D02*
X112373628Y-82224761D01*
X112373628Y-82224761D02*
X112326009Y-82272380D01*
X112326009Y-82272380D02*
X112278390Y-82367618D01*
X111849819Y-81272380D02*
X111849819Y-81748570D01*
X111849819Y-81748570D02*
X112326009Y-81796189D01*
X112326009Y-81796189D02*
X112278390Y-81748570D01*
X112278390Y-81748570D02*
X112230771Y-81653332D01*
X112230771Y-81653332D02*
X112230771Y-81415237D01*
X112230771Y-81415237D02*
X112278390Y-81319999D01*
X112278390Y-81319999D02*
X112326009Y-81272380D01*
X112326009Y-81272380D02*
X112421247Y-81224761D01*
X112421247Y-81224761D02*
X112659342Y-81224761D01*
X112659342Y-81224761D02*
X112754580Y-81272380D01*
X112754580Y-81272380D02*
X112802200Y-81319999D01*
X112802200Y-81319999D02*
X112849819Y-81415237D01*
X112849819Y-81415237D02*
X112849819Y-81653332D01*
X112849819Y-81653332D02*
X112802200Y-81748570D01*
X112802200Y-81748570D02*
X112754580Y-81796189D01*
X55276904Y-49953152D02*
X55276904Y-50619819D01*
X55038809Y-49572200D02*
X54800714Y-50286485D01*
X54800714Y-50286485D02*
X55419761Y-50286485D01*
X55991190Y-49619819D02*
X56086428Y-49619819D01*
X56086428Y-49619819D02*
X56181666Y-49667438D01*
X56181666Y-49667438D02*
X56229285Y-49715057D01*
X56229285Y-49715057D02*
X56276904Y-49810295D01*
X56276904Y-49810295D02*
X56324523Y-50000771D01*
X56324523Y-50000771D02*
X56324523Y-50238866D01*
X56324523Y-50238866D02*
X56276904Y-50429342D01*
X56276904Y-50429342D02*
X56229285Y-50524580D01*
X56229285Y-50524580D02*
X56181666Y-50572200D01*
X56181666Y-50572200D02*
X56086428Y-50619819D01*
X56086428Y-50619819D02*
X55991190Y-50619819D01*
X55991190Y-50619819D02*
X55895952Y-50572200D01*
X55895952Y-50572200D02*
X55848333Y-50524580D01*
X55848333Y-50524580D02*
X55800714Y-50429342D01*
X55800714Y-50429342D02*
X55753095Y-50238866D01*
X55753095Y-50238866D02*
X55753095Y-50000771D01*
X55753095Y-50000771D02*
X55800714Y-49810295D01*
X55800714Y-49810295D02*
X55848333Y-49715057D01*
X55848333Y-49715057D02*
X55895952Y-49667438D01*
X55895952Y-49667438D02*
X55991190Y-49619819D01*
X57181666Y-49953152D02*
X57181666Y-50619819D01*
X56943571Y-49572200D02*
X56705476Y-50286485D01*
X56705476Y-50286485D02*
X57324523Y-50286485D01*
X57895952Y-49619819D02*
X57991190Y-49619819D01*
X57991190Y-49619819D02*
X58086428Y-49667438D01*
X58086428Y-49667438D02*
X58134047Y-49715057D01*
X58134047Y-49715057D02*
X58181666Y-49810295D01*
X58181666Y-49810295D02*
X58229285Y-50000771D01*
X58229285Y-50000771D02*
X58229285Y-50238866D01*
X58229285Y-50238866D02*
X58181666Y-50429342D01*
X58181666Y-50429342D02*
X58134047Y-50524580D01*
X58134047Y-50524580D02*
X58086428Y-50572200D01*
X58086428Y-50572200D02*
X57991190Y-50619819D01*
X57991190Y-50619819D02*
X57895952Y-50619819D01*
X57895952Y-50619819D02*
X57800714Y-50572200D01*
X57800714Y-50572200D02*
X57753095Y-50524580D01*
X57753095Y-50524580D02*
X57705476Y-50429342D01*
X57705476Y-50429342D02*
X57657857Y-50238866D01*
X57657857Y-50238866D02*
X57657857Y-50000771D01*
X57657857Y-50000771D02*
X57705476Y-49810295D01*
X57705476Y-49810295D02*
X57753095Y-49715057D01*
X57753095Y-49715057D02*
X57800714Y-49667438D01*
X57800714Y-49667438D02*
X57895952Y-49619819D01*
X56348333Y-75274580D02*
X56300714Y-75322200D01*
X56300714Y-75322200D02*
X56157857Y-75369819D01*
X56157857Y-75369819D02*
X56062619Y-75369819D01*
X56062619Y-75369819D02*
X55919762Y-75322200D01*
X55919762Y-75322200D02*
X55824524Y-75226961D01*
X55824524Y-75226961D02*
X55776905Y-75131723D01*
X55776905Y-75131723D02*
X55729286Y-74941247D01*
X55729286Y-74941247D02*
X55729286Y-74798390D01*
X55729286Y-74798390D02*
X55776905Y-74607914D01*
X55776905Y-74607914D02*
X55824524Y-74512676D01*
X55824524Y-74512676D02*
X55919762Y-74417438D01*
X55919762Y-74417438D02*
X56062619Y-74369819D01*
X56062619Y-74369819D02*
X56157857Y-74369819D01*
X56157857Y-74369819D02*
X56300714Y-74417438D01*
X56300714Y-74417438D02*
X56348333Y-74465057D01*
X56729286Y-74465057D02*
X56776905Y-74417438D01*
X56776905Y-74417438D02*
X56872143Y-74369819D01*
X56872143Y-74369819D02*
X57110238Y-74369819D01*
X57110238Y-74369819D02*
X57205476Y-74417438D01*
X57205476Y-74417438D02*
X57253095Y-74465057D01*
X57253095Y-74465057D02*
X57300714Y-74560295D01*
X57300714Y-74560295D02*
X57300714Y-74655533D01*
X57300714Y-74655533D02*
X57253095Y-74798390D01*
X57253095Y-74798390D02*
X56681667Y-75369819D01*
X56681667Y-75369819D02*
X57300714Y-75369819D01*
X78136904Y-49953152D02*
X78136904Y-50619819D01*
X77898809Y-49572200D02*
X77660714Y-50286485D01*
X77660714Y-50286485D02*
X78279761Y-50286485D01*
X78851190Y-49619819D02*
X78946428Y-49619819D01*
X78946428Y-49619819D02*
X79041666Y-49667438D01*
X79041666Y-49667438D02*
X79089285Y-49715057D01*
X79089285Y-49715057D02*
X79136904Y-49810295D01*
X79136904Y-49810295D02*
X79184523Y-50000771D01*
X79184523Y-50000771D02*
X79184523Y-50238866D01*
X79184523Y-50238866D02*
X79136904Y-50429342D01*
X79136904Y-50429342D02*
X79089285Y-50524580D01*
X79089285Y-50524580D02*
X79041666Y-50572200D01*
X79041666Y-50572200D02*
X78946428Y-50619819D01*
X78946428Y-50619819D02*
X78851190Y-50619819D01*
X78851190Y-50619819D02*
X78755952Y-50572200D01*
X78755952Y-50572200D02*
X78708333Y-50524580D01*
X78708333Y-50524580D02*
X78660714Y-50429342D01*
X78660714Y-50429342D02*
X78613095Y-50238866D01*
X78613095Y-50238866D02*
X78613095Y-50000771D01*
X78613095Y-50000771D02*
X78660714Y-49810295D01*
X78660714Y-49810295D02*
X78708333Y-49715057D01*
X78708333Y-49715057D02*
X78755952Y-49667438D01*
X78755952Y-49667438D02*
X78851190Y-49619819D01*
X80041666Y-49953152D02*
X80041666Y-50619819D01*
X79803571Y-49572200D02*
X79565476Y-50286485D01*
X79565476Y-50286485D02*
X80184523Y-50286485D01*
X80755952Y-49619819D02*
X80851190Y-49619819D01*
X80851190Y-49619819D02*
X80946428Y-49667438D01*
X80946428Y-49667438D02*
X80994047Y-49715057D01*
X80994047Y-49715057D02*
X81041666Y-49810295D01*
X81041666Y-49810295D02*
X81089285Y-50000771D01*
X81089285Y-50000771D02*
X81089285Y-50238866D01*
X81089285Y-50238866D02*
X81041666Y-50429342D01*
X81041666Y-50429342D02*
X80994047Y-50524580D01*
X80994047Y-50524580D02*
X80946428Y-50572200D01*
X80946428Y-50572200D02*
X80851190Y-50619819D01*
X80851190Y-50619819D02*
X80755952Y-50619819D01*
X80755952Y-50619819D02*
X80660714Y-50572200D01*
X80660714Y-50572200D02*
X80613095Y-50524580D01*
X80613095Y-50524580D02*
X80565476Y-50429342D01*
X80565476Y-50429342D02*
X80517857Y-50238866D01*
X80517857Y-50238866D02*
X80517857Y-50000771D01*
X80517857Y-50000771D02*
X80565476Y-49810295D01*
X80565476Y-49810295D02*
X80613095Y-49715057D01*
X80613095Y-49715057D02*
X80660714Y-49667438D01*
X80660714Y-49667438D02*
X80755952Y-49619819D01*
X98219580Y-65531666D02*
X98267200Y-65579285D01*
X98267200Y-65579285D02*
X98314819Y-65722142D01*
X98314819Y-65722142D02*
X98314819Y-65817380D01*
X98314819Y-65817380D02*
X98267200Y-65960237D01*
X98267200Y-65960237D02*
X98171961Y-66055475D01*
X98171961Y-66055475D02*
X98076723Y-66103094D01*
X98076723Y-66103094D02*
X97886247Y-66150713D01*
X97886247Y-66150713D02*
X97743390Y-66150713D01*
X97743390Y-66150713D02*
X97552914Y-66103094D01*
X97552914Y-66103094D02*
X97457676Y-66055475D01*
X97457676Y-66055475D02*
X97362438Y-65960237D01*
X97362438Y-65960237D02*
X97314819Y-65817380D01*
X97314819Y-65817380D02*
X97314819Y-65722142D01*
X97314819Y-65722142D02*
X97362438Y-65579285D01*
X97362438Y-65579285D02*
X97410057Y-65531666D01*
X97314819Y-64626904D02*
X97314819Y-65103094D01*
X97314819Y-65103094D02*
X97791009Y-65150713D01*
X97791009Y-65150713D02*
X97743390Y-65103094D01*
X97743390Y-65103094D02*
X97695771Y-65007856D01*
X97695771Y-65007856D02*
X97695771Y-64769761D01*
X97695771Y-64769761D02*
X97743390Y-64674523D01*
X97743390Y-64674523D02*
X97791009Y-64626904D01*
X97791009Y-64626904D02*
X97886247Y-64579285D01*
X97886247Y-64579285D02*
X98124342Y-64579285D01*
X98124342Y-64579285D02*
X98219580Y-64626904D01*
X98219580Y-64626904D02*
X98267200Y-64674523D01*
X98267200Y-64674523D02*
X98314819Y-64769761D01*
X98314819Y-64769761D02*
X98314819Y-65007856D01*
X98314819Y-65007856D02*
X98267200Y-65103094D01*
X98267200Y-65103094D02*
X98219580Y-65150713D01*
X93706528Y-130534580D02*
X93658909Y-130582200D01*
X93658909Y-130582200D02*
X93516052Y-130629819D01*
X93516052Y-130629819D02*
X93420814Y-130629819D01*
X93420814Y-130629819D02*
X93277957Y-130582200D01*
X93277957Y-130582200D02*
X93182719Y-130486961D01*
X93182719Y-130486961D02*
X93135100Y-130391723D01*
X93135100Y-130391723D02*
X93087481Y-130201247D01*
X93087481Y-130201247D02*
X93087481Y-130058390D01*
X93087481Y-130058390D02*
X93135100Y-129867914D01*
X93135100Y-129867914D02*
X93182719Y-129772676D01*
X93182719Y-129772676D02*
X93277957Y-129677438D01*
X93277957Y-129677438D02*
X93420814Y-129629819D01*
X93420814Y-129629819D02*
X93516052Y-129629819D01*
X93516052Y-129629819D02*
X93658909Y-129677438D01*
X93658909Y-129677438D02*
X93706528Y-129725057D01*
X93897005Y-130725057D02*
X94658909Y-130725057D01*
X94849386Y-129725057D02*
X94897005Y-129677438D01*
X94897005Y-129677438D02*
X94992243Y-129629819D01*
X94992243Y-129629819D02*
X95230338Y-129629819D01*
X95230338Y-129629819D02*
X95325576Y-129677438D01*
X95325576Y-129677438D02*
X95373195Y-129725057D01*
X95373195Y-129725057D02*
X95420814Y-129820295D01*
X95420814Y-129820295D02*
X95420814Y-129915533D01*
X95420814Y-129915533D02*
X95373195Y-130058390D01*
X95373195Y-130058390D02*
X94801767Y-130629819D01*
X94801767Y-130629819D02*
X95420814Y-130629819D01*
X127423152Y-83788095D02*
X128089819Y-83788095D01*
X127042200Y-84026190D02*
X127756485Y-84264285D01*
X127756485Y-84264285D02*
X127756485Y-83645238D01*
X127089819Y-83073809D02*
X127089819Y-82978571D01*
X127089819Y-82978571D02*
X127137438Y-82883333D01*
X127137438Y-82883333D02*
X127185057Y-82835714D01*
X127185057Y-82835714D02*
X127280295Y-82788095D01*
X127280295Y-82788095D02*
X127470771Y-82740476D01*
X127470771Y-82740476D02*
X127708866Y-82740476D01*
X127708866Y-82740476D02*
X127899342Y-82788095D01*
X127899342Y-82788095D02*
X127994580Y-82835714D01*
X127994580Y-82835714D02*
X128042200Y-82883333D01*
X128042200Y-82883333D02*
X128089819Y-82978571D01*
X128089819Y-82978571D02*
X128089819Y-83073809D01*
X128089819Y-83073809D02*
X128042200Y-83169047D01*
X128042200Y-83169047D02*
X127994580Y-83216666D01*
X127994580Y-83216666D02*
X127899342Y-83264285D01*
X127899342Y-83264285D02*
X127708866Y-83311904D01*
X127708866Y-83311904D02*
X127470771Y-83311904D01*
X127470771Y-83311904D02*
X127280295Y-83264285D01*
X127280295Y-83264285D02*
X127185057Y-83216666D01*
X127185057Y-83216666D02*
X127137438Y-83169047D01*
X127137438Y-83169047D02*
X127089819Y-83073809D01*
X127089819Y-81835714D02*
X127089819Y-82311904D01*
X127089819Y-82311904D02*
X127566009Y-82359523D01*
X127566009Y-82359523D02*
X127518390Y-82311904D01*
X127518390Y-82311904D02*
X127470771Y-82216666D01*
X127470771Y-82216666D02*
X127470771Y-81978571D01*
X127470771Y-81978571D02*
X127518390Y-81883333D01*
X127518390Y-81883333D02*
X127566009Y-81835714D01*
X127566009Y-81835714D02*
X127661247Y-81788095D01*
X127661247Y-81788095D02*
X127899342Y-81788095D01*
X127899342Y-81788095D02*
X127994580Y-81835714D01*
X127994580Y-81835714D02*
X128042200Y-81883333D01*
X128042200Y-81883333D02*
X128089819Y-81978571D01*
X128089819Y-81978571D02*
X128089819Y-82216666D01*
X128089819Y-82216666D02*
X128042200Y-82311904D01*
X128042200Y-82311904D02*
X127994580Y-82359523D01*
X127089819Y-81454761D02*
X127089819Y-80835714D01*
X127089819Y-80835714D02*
X127470771Y-81169047D01*
X127470771Y-81169047D02*
X127470771Y-81026190D01*
X127470771Y-81026190D02*
X127518390Y-80930952D01*
X127518390Y-80930952D02*
X127566009Y-80883333D01*
X127566009Y-80883333D02*
X127661247Y-80835714D01*
X127661247Y-80835714D02*
X127899342Y-80835714D01*
X127899342Y-80835714D02*
X127994580Y-80883333D01*
X127994580Y-80883333D02*
X128042200Y-80930952D01*
X128042200Y-80930952D02*
X128089819Y-81026190D01*
X128089819Y-81026190D02*
X128089819Y-81311904D01*
X128089819Y-81311904D02*
X128042200Y-81407142D01*
X128042200Y-81407142D02*
X127994580Y-81454761D01*
X86661666Y-125026009D02*
X86328333Y-125026009D01*
X86328333Y-125549819D02*
X86328333Y-124549819D01*
X86328333Y-124549819D02*
X86804523Y-124549819D01*
X87709285Y-125549819D02*
X87137857Y-125549819D01*
X87423571Y-125549819D02*
X87423571Y-124549819D01*
X87423571Y-124549819D02*
X87328333Y-124692676D01*
X87328333Y-124692676D02*
X87233095Y-124787914D01*
X87233095Y-124787914D02*
X87137857Y-124835533D01*
X127423152Y-109188095D02*
X128089819Y-109188095D01*
X127042200Y-109426190D02*
X127756485Y-109664285D01*
X127756485Y-109664285D02*
X127756485Y-109045238D01*
X127089819Y-108473809D02*
X127089819Y-108378571D01*
X127089819Y-108378571D02*
X127137438Y-108283333D01*
X127137438Y-108283333D02*
X127185057Y-108235714D01*
X127185057Y-108235714D02*
X127280295Y-108188095D01*
X127280295Y-108188095D02*
X127470771Y-108140476D01*
X127470771Y-108140476D02*
X127708866Y-108140476D01*
X127708866Y-108140476D02*
X127899342Y-108188095D01*
X127899342Y-108188095D02*
X127994580Y-108235714D01*
X127994580Y-108235714D02*
X128042200Y-108283333D01*
X128042200Y-108283333D02*
X128089819Y-108378571D01*
X128089819Y-108378571D02*
X128089819Y-108473809D01*
X128089819Y-108473809D02*
X128042200Y-108569047D01*
X128042200Y-108569047D02*
X127994580Y-108616666D01*
X127994580Y-108616666D02*
X127899342Y-108664285D01*
X127899342Y-108664285D02*
X127708866Y-108711904D01*
X127708866Y-108711904D02*
X127470771Y-108711904D01*
X127470771Y-108711904D02*
X127280295Y-108664285D01*
X127280295Y-108664285D02*
X127185057Y-108616666D01*
X127185057Y-108616666D02*
X127137438Y-108569047D01*
X127137438Y-108569047D02*
X127089819Y-108473809D01*
X127089819Y-107235714D02*
X127089819Y-107711904D01*
X127089819Y-107711904D02*
X127566009Y-107759523D01*
X127566009Y-107759523D02*
X127518390Y-107711904D01*
X127518390Y-107711904D02*
X127470771Y-107616666D01*
X127470771Y-107616666D02*
X127470771Y-107378571D01*
X127470771Y-107378571D02*
X127518390Y-107283333D01*
X127518390Y-107283333D02*
X127566009Y-107235714D01*
X127566009Y-107235714D02*
X127661247Y-107188095D01*
X127661247Y-107188095D02*
X127899342Y-107188095D01*
X127899342Y-107188095D02*
X127994580Y-107235714D01*
X127994580Y-107235714D02*
X128042200Y-107283333D01*
X128042200Y-107283333D02*
X128089819Y-107378571D01*
X128089819Y-107378571D02*
X128089819Y-107616666D01*
X128089819Y-107616666D02*
X128042200Y-107711904D01*
X128042200Y-107711904D02*
X127994580Y-107759523D01*
X127089819Y-106854761D02*
X127089819Y-106235714D01*
X127089819Y-106235714D02*
X127470771Y-106569047D01*
X127470771Y-106569047D02*
X127470771Y-106426190D01*
X127470771Y-106426190D02*
X127518390Y-106330952D01*
X127518390Y-106330952D02*
X127566009Y-106283333D01*
X127566009Y-106283333D02*
X127661247Y-106235714D01*
X127661247Y-106235714D02*
X127899342Y-106235714D01*
X127899342Y-106235714D02*
X127994580Y-106283333D01*
X127994580Y-106283333D02*
X128042200Y-106330952D01*
X128042200Y-106330952D02*
X128089819Y-106426190D01*
X128089819Y-106426190D02*
X128089819Y-106711904D01*
X128089819Y-106711904D02*
X128042200Y-106807142D01*
X128042200Y-106807142D02*
X127994580Y-106854761D01*
X64825952Y-49619819D02*
X65492618Y-49619819D01*
X65492618Y-49619819D02*
X65064047Y-50619819D01*
X66302142Y-49953152D02*
X66302142Y-50619819D01*
X66064047Y-49572200D02*
X65825952Y-50286485D01*
X65825952Y-50286485D02*
X66444999Y-50286485D01*
X67302142Y-50619819D02*
X66825952Y-50619819D01*
X66825952Y-50619819D02*
X66825952Y-49619819D01*
X67587857Y-50572200D02*
X67730714Y-50619819D01*
X67730714Y-50619819D02*
X67968809Y-50619819D01*
X67968809Y-50619819D02*
X68064047Y-50572200D01*
X68064047Y-50572200D02*
X68111666Y-50524580D01*
X68111666Y-50524580D02*
X68159285Y-50429342D01*
X68159285Y-50429342D02*
X68159285Y-50334104D01*
X68159285Y-50334104D02*
X68111666Y-50238866D01*
X68111666Y-50238866D02*
X68064047Y-50191247D01*
X68064047Y-50191247D02*
X67968809Y-50143628D01*
X67968809Y-50143628D02*
X67778333Y-50096009D01*
X67778333Y-50096009D02*
X67683095Y-50048390D01*
X67683095Y-50048390D02*
X67635476Y-50000771D01*
X67635476Y-50000771D02*
X67587857Y-49905533D01*
X67587857Y-49905533D02*
X67587857Y-49810295D01*
X67587857Y-49810295D02*
X67635476Y-49715057D01*
X67635476Y-49715057D02*
X67683095Y-49667438D01*
X67683095Y-49667438D02*
X67778333Y-49619819D01*
X67778333Y-49619819D02*
X68016428Y-49619819D01*
X68016428Y-49619819D02*
X68159285Y-49667438D01*
X68540238Y-49715057D02*
X68587857Y-49667438D01*
X68587857Y-49667438D02*
X68683095Y-49619819D01*
X68683095Y-49619819D02*
X68921190Y-49619819D01*
X68921190Y-49619819D02*
X69016428Y-49667438D01*
X69016428Y-49667438D02*
X69064047Y-49715057D01*
X69064047Y-49715057D02*
X69111666Y-49810295D01*
X69111666Y-49810295D02*
X69111666Y-49905533D01*
X69111666Y-49905533D02*
X69064047Y-50048390D01*
X69064047Y-50048390D02*
X68492619Y-50619819D01*
X68492619Y-50619819D02*
X69111666Y-50619819D01*
X70016428Y-49619819D02*
X69540238Y-49619819D01*
X69540238Y-49619819D02*
X69492619Y-50096009D01*
X69492619Y-50096009D02*
X69540238Y-50048390D01*
X69540238Y-50048390D02*
X69635476Y-50000771D01*
X69635476Y-50000771D02*
X69873571Y-50000771D01*
X69873571Y-50000771D02*
X69968809Y-50048390D01*
X69968809Y-50048390D02*
X70016428Y-50096009D01*
X70016428Y-50096009D02*
X70064047Y-50191247D01*
X70064047Y-50191247D02*
X70064047Y-50429342D01*
X70064047Y-50429342D02*
X70016428Y-50524580D01*
X70016428Y-50524580D02*
X69968809Y-50572200D01*
X69968809Y-50572200D02*
X69873571Y-50619819D01*
X69873571Y-50619819D02*
X69635476Y-50619819D01*
X69635476Y-50619819D02*
X69540238Y-50572200D01*
X69540238Y-50572200D02*
X69492619Y-50524580D01*
X71016428Y-50619819D02*
X70445000Y-50619819D01*
X70730714Y-50619819D02*
X70730714Y-49619819D01*
X70730714Y-49619819D02*
X70635476Y-49762676D01*
X70635476Y-49762676D02*
X70540238Y-49857914D01*
X70540238Y-49857914D02*
X70445000Y-49905533D01*
X81099819Y-106671428D02*
X80099819Y-106671428D01*
X80099819Y-106671428D02*
X80814104Y-106338095D01*
X80814104Y-106338095D02*
X80099819Y-106004762D01*
X80099819Y-106004762D02*
X81099819Y-106004762D01*
X81004580Y-104957143D02*
X81052200Y-105004762D01*
X81052200Y-105004762D02*
X81099819Y-105147619D01*
X81099819Y-105147619D02*
X81099819Y-105242857D01*
X81099819Y-105242857D02*
X81052200Y-105385714D01*
X81052200Y-105385714D02*
X80956961Y-105480952D01*
X80956961Y-105480952D02*
X80861723Y-105528571D01*
X80861723Y-105528571D02*
X80671247Y-105576190D01*
X80671247Y-105576190D02*
X80528390Y-105576190D01*
X80528390Y-105576190D02*
X80337914Y-105528571D01*
X80337914Y-105528571D02*
X80242676Y-105480952D01*
X80242676Y-105480952D02*
X80147438Y-105385714D01*
X80147438Y-105385714D02*
X80099819Y-105242857D01*
X80099819Y-105242857D02*
X80099819Y-105147619D01*
X80099819Y-105147619D02*
X80147438Y-105004762D01*
X80147438Y-105004762D02*
X80195057Y-104957143D01*
X81099819Y-104528571D02*
X80099819Y-104528571D01*
X80099819Y-104528571D02*
X80099819Y-104147619D01*
X80099819Y-104147619D02*
X80147438Y-104052381D01*
X80147438Y-104052381D02*
X80195057Y-104004762D01*
X80195057Y-104004762D02*
X80290295Y-103957143D01*
X80290295Y-103957143D02*
X80433152Y-103957143D01*
X80433152Y-103957143D02*
X80528390Y-104004762D01*
X80528390Y-104004762D02*
X80576009Y-104052381D01*
X80576009Y-104052381D02*
X80623628Y-104147619D01*
X80623628Y-104147619D02*
X80623628Y-104528571D01*
X80195057Y-103576190D02*
X80147438Y-103528571D01*
X80147438Y-103528571D02*
X80099819Y-103433333D01*
X80099819Y-103433333D02*
X80099819Y-103195238D01*
X80099819Y-103195238D02*
X80147438Y-103100000D01*
X80147438Y-103100000D02*
X80195057Y-103052381D01*
X80195057Y-103052381D02*
X80290295Y-103004762D01*
X80290295Y-103004762D02*
X80385533Y-103004762D01*
X80385533Y-103004762D02*
X80528390Y-103052381D01*
X80528390Y-103052381D02*
X81099819Y-103623809D01*
X81099819Y-103623809D02*
X81099819Y-103004762D01*
X80099819Y-102671428D02*
X80099819Y-102052381D01*
X80099819Y-102052381D02*
X80480771Y-102385714D01*
X80480771Y-102385714D02*
X80480771Y-102242857D01*
X80480771Y-102242857D02*
X80528390Y-102147619D01*
X80528390Y-102147619D02*
X80576009Y-102100000D01*
X80576009Y-102100000D02*
X80671247Y-102052381D01*
X80671247Y-102052381D02*
X80909342Y-102052381D01*
X80909342Y-102052381D02*
X81004580Y-102100000D01*
X81004580Y-102100000D02*
X81052200Y-102147619D01*
X81052200Y-102147619D02*
X81099819Y-102242857D01*
X81099819Y-102242857D02*
X81099819Y-102528571D01*
X81099819Y-102528571D02*
X81052200Y-102623809D01*
X81052200Y-102623809D02*
X81004580Y-102671428D01*
X80099819Y-101433333D02*
X80099819Y-101338095D01*
X80099819Y-101338095D02*
X80147438Y-101242857D01*
X80147438Y-101242857D02*
X80195057Y-101195238D01*
X80195057Y-101195238D02*
X80290295Y-101147619D01*
X80290295Y-101147619D02*
X80480771Y-101100000D01*
X80480771Y-101100000D02*
X80718866Y-101100000D01*
X80718866Y-101100000D02*
X80909342Y-101147619D01*
X80909342Y-101147619D02*
X81004580Y-101195238D01*
X81004580Y-101195238D02*
X81052200Y-101242857D01*
X81052200Y-101242857D02*
X81099819Y-101338095D01*
X81099819Y-101338095D02*
X81099819Y-101433333D01*
X81099819Y-101433333D02*
X81052200Y-101528571D01*
X81052200Y-101528571D02*
X81004580Y-101576190D01*
X81004580Y-101576190D02*
X80909342Y-101623809D01*
X80909342Y-101623809D02*
X80718866Y-101671428D01*
X80718866Y-101671428D02*
X80480771Y-101671428D01*
X80480771Y-101671428D02*
X80290295Y-101623809D01*
X80290295Y-101623809D02*
X80195057Y-101576190D01*
X80195057Y-101576190D02*
X80147438Y-101528571D01*
X80147438Y-101528571D02*
X80099819Y-101433333D01*
X81099819Y-100147619D02*
X81099819Y-100719047D01*
X81099819Y-100433333D02*
X80099819Y-100433333D01*
X80099819Y-100433333D02*
X80242676Y-100528571D01*
X80242676Y-100528571D02*
X80337914Y-100623809D01*
X80337914Y-100623809D02*
X80385533Y-100719047D01*
X80099819Y-99814285D02*
X80099819Y-99147619D01*
X80099819Y-99147619D02*
X81099819Y-99576190D01*
X81195057Y-99004762D02*
X81195057Y-98242857D01*
X81052200Y-98052380D02*
X81099819Y-97909523D01*
X81099819Y-97909523D02*
X81099819Y-97671428D01*
X81099819Y-97671428D02*
X81052200Y-97576190D01*
X81052200Y-97576190D02*
X81004580Y-97528571D01*
X81004580Y-97528571D02*
X80909342Y-97480952D01*
X80909342Y-97480952D02*
X80814104Y-97480952D01*
X80814104Y-97480952D02*
X80718866Y-97528571D01*
X80718866Y-97528571D02*
X80671247Y-97576190D01*
X80671247Y-97576190D02*
X80623628Y-97671428D01*
X80623628Y-97671428D02*
X80576009Y-97861904D01*
X80576009Y-97861904D02*
X80528390Y-97957142D01*
X80528390Y-97957142D02*
X80480771Y-98004761D01*
X80480771Y-98004761D02*
X80385533Y-98052380D01*
X80385533Y-98052380D02*
X80290295Y-98052380D01*
X80290295Y-98052380D02*
X80195057Y-98004761D01*
X80195057Y-98004761D02*
X80147438Y-97957142D01*
X80147438Y-97957142D02*
X80099819Y-97861904D01*
X80099819Y-97861904D02*
X80099819Y-97623809D01*
X80099819Y-97623809D02*
X80147438Y-97480952D01*
X81099819Y-97052380D02*
X80099819Y-97052380D01*
X80099819Y-97052380D02*
X80099819Y-96671428D01*
X80099819Y-96671428D02*
X80147438Y-96576190D01*
X80147438Y-96576190D02*
X80195057Y-96528571D01*
X80195057Y-96528571D02*
X80290295Y-96480952D01*
X80290295Y-96480952D02*
X80433152Y-96480952D01*
X80433152Y-96480952D02*
X80528390Y-96528571D01*
X80528390Y-96528571D02*
X80576009Y-96576190D01*
X80576009Y-96576190D02*
X80623628Y-96671428D01*
X80623628Y-96671428D02*
X80623628Y-97052380D01*
X103928152Y-127603095D02*
X104594819Y-127603095D01*
X103547200Y-127841190D02*
X104261485Y-128079285D01*
X104261485Y-128079285D02*
X104261485Y-127460238D01*
X103594819Y-126888809D02*
X103594819Y-126793571D01*
X103594819Y-126793571D02*
X103642438Y-126698333D01*
X103642438Y-126698333D02*
X103690057Y-126650714D01*
X103690057Y-126650714D02*
X103785295Y-126603095D01*
X103785295Y-126603095D02*
X103975771Y-126555476D01*
X103975771Y-126555476D02*
X104213866Y-126555476D01*
X104213866Y-126555476D02*
X104404342Y-126603095D01*
X104404342Y-126603095D02*
X104499580Y-126650714D01*
X104499580Y-126650714D02*
X104547200Y-126698333D01*
X104547200Y-126698333D02*
X104594819Y-126793571D01*
X104594819Y-126793571D02*
X104594819Y-126888809D01*
X104594819Y-126888809D02*
X104547200Y-126984047D01*
X104547200Y-126984047D02*
X104499580Y-127031666D01*
X104499580Y-127031666D02*
X104404342Y-127079285D01*
X104404342Y-127079285D02*
X104213866Y-127126904D01*
X104213866Y-127126904D02*
X103975771Y-127126904D01*
X103975771Y-127126904D02*
X103785295Y-127079285D01*
X103785295Y-127079285D02*
X103690057Y-127031666D01*
X103690057Y-127031666D02*
X103642438Y-126984047D01*
X103642438Y-126984047D02*
X103594819Y-126888809D01*
X103594819Y-125650714D02*
X103594819Y-126126904D01*
X103594819Y-126126904D02*
X104071009Y-126174523D01*
X104071009Y-126174523D02*
X104023390Y-126126904D01*
X104023390Y-126126904D02*
X103975771Y-126031666D01*
X103975771Y-126031666D02*
X103975771Y-125793571D01*
X103975771Y-125793571D02*
X104023390Y-125698333D01*
X104023390Y-125698333D02*
X104071009Y-125650714D01*
X104071009Y-125650714D02*
X104166247Y-125603095D01*
X104166247Y-125603095D02*
X104404342Y-125603095D01*
X104404342Y-125603095D02*
X104499580Y-125650714D01*
X104499580Y-125650714D02*
X104547200Y-125698333D01*
X104547200Y-125698333D02*
X104594819Y-125793571D01*
X104594819Y-125793571D02*
X104594819Y-126031666D01*
X104594819Y-126031666D02*
X104547200Y-126126904D01*
X104547200Y-126126904D02*
X104499580Y-126174523D01*
X103594819Y-125269761D02*
X103594819Y-124650714D01*
X103594819Y-124650714D02*
X103975771Y-124984047D01*
X103975771Y-124984047D02*
X103975771Y-124841190D01*
X103975771Y-124841190D02*
X104023390Y-124745952D01*
X104023390Y-124745952D02*
X104071009Y-124698333D01*
X104071009Y-124698333D02*
X104166247Y-124650714D01*
X104166247Y-124650714D02*
X104404342Y-124650714D01*
X104404342Y-124650714D02*
X104499580Y-124698333D01*
X104499580Y-124698333D02*
X104547200Y-124745952D01*
X104547200Y-124745952D02*
X104594819Y-124841190D01*
X104594819Y-124841190D02*
X104594819Y-125126904D01*
X104594819Y-125126904D02*
X104547200Y-125222142D01*
X104547200Y-125222142D02*
X104499580Y-125269761D01*
X98149580Y-94781666D02*
X98197200Y-94829285D01*
X98197200Y-94829285D02*
X98244819Y-94972142D01*
X98244819Y-94972142D02*
X98244819Y-95067380D01*
X98244819Y-95067380D02*
X98197200Y-95210237D01*
X98197200Y-95210237D02*
X98101961Y-95305475D01*
X98101961Y-95305475D02*
X98006723Y-95353094D01*
X98006723Y-95353094D02*
X97816247Y-95400713D01*
X97816247Y-95400713D02*
X97673390Y-95400713D01*
X97673390Y-95400713D02*
X97482914Y-95353094D01*
X97482914Y-95353094D02*
X97387676Y-95305475D01*
X97387676Y-95305475D02*
X97292438Y-95210237D01*
X97292438Y-95210237D02*
X97244819Y-95067380D01*
X97244819Y-95067380D02*
X97244819Y-94972142D01*
X97244819Y-94972142D02*
X97292438Y-94829285D01*
X97292438Y-94829285D02*
X97340057Y-94781666D01*
X97244819Y-93924523D02*
X97244819Y-94114999D01*
X97244819Y-94114999D02*
X97292438Y-94210237D01*
X97292438Y-94210237D02*
X97340057Y-94257856D01*
X97340057Y-94257856D02*
X97482914Y-94353094D01*
X97482914Y-94353094D02*
X97673390Y-94400713D01*
X97673390Y-94400713D02*
X98054342Y-94400713D01*
X98054342Y-94400713D02*
X98149580Y-94353094D01*
X98149580Y-94353094D02*
X98197200Y-94305475D01*
X98197200Y-94305475D02*
X98244819Y-94210237D01*
X98244819Y-94210237D02*
X98244819Y-94019761D01*
X98244819Y-94019761D02*
X98197200Y-93924523D01*
X98197200Y-93924523D02*
X98149580Y-93876904D01*
X98149580Y-93876904D02*
X98054342Y-93829285D01*
X98054342Y-93829285D02*
X97816247Y-93829285D01*
X97816247Y-93829285D02*
X97721009Y-93876904D01*
X97721009Y-93876904D02*
X97673390Y-93924523D01*
X97673390Y-93924523D02*
X97625771Y-94019761D01*
X97625771Y-94019761D02*
X97625771Y-94210237D01*
X97625771Y-94210237D02*
X97673390Y-94305475D01*
X97673390Y-94305475D02*
X97721009Y-94353094D01*
X97721009Y-94353094D02*
X97816247Y-94400713D01*
X100784819Y-128071428D02*
X100784819Y-128547618D01*
X100784819Y-128547618D02*
X99784819Y-128547618D01*
X100784819Y-127738094D02*
X99784819Y-127738094D01*
X99784819Y-127738094D02*
X99784819Y-127499999D01*
X99784819Y-127499999D02*
X99832438Y-127357142D01*
X99832438Y-127357142D02*
X99927676Y-127261904D01*
X99927676Y-127261904D02*
X100022914Y-127214285D01*
X100022914Y-127214285D02*
X100213390Y-127166666D01*
X100213390Y-127166666D02*
X100356247Y-127166666D01*
X100356247Y-127166666D02*
X100546723Y-127214285D01*
X100546723Y-127214285D02*
X100641961Y-127261904D01*
X100641961Y-127261904D02*
X100737200Y-127357142D01*
X100737200Y-127357142D02*
X100784819Y-127499999D01*
X100784819Y-127499999D02*
X100784819Y-127738094D01*
X100784819Y-126261904D02*
X100784819Y-126738094D01*
X100784819Y-126738094D02*
X99784819Y-126738094D01*
X100784819Y-125404761D02*
X100784819Y-125976189D01*
X100784819Y-125690475D02*
X99784819Y-125690475D01*
X99784819Y-125690475D02*
X99927676Y-125785713D01*
X99927676Y-125785713D02*
X100022914Y-125880951D01*
X100022914Y-125880951D02*
X100070533Y-125976189D01*
X129899580Y-71246666D02*
X129947200Y-71294285D01*
X129947200Y-71294285D02*
X129994819Y-71437142D01*
X129994819Y-71437142D02*
X129994819Y-71532380D01*
X129994819Y-71532380D02*
X129947200Y-71675237D01*
X129947200Y-71675237D02*
X129851961Y-71770475D01*
X129851961Y-71770475D02*
X129756723Y-71818094D01*
X129756723Y-71818094D02*
X129566247Y-71865713D01*
X129566247Y-71865713D02*
X129423390Y-71865713D01*
X129423390Y-71865713D02*
X129232914Y-71818094D01*
X129232914Y-71818094D02*
X129137676Y-71770475D01*
X129137676Y-71770475D02*
X129042438Y-71675237D01*
X129042438Y-71675237D02*
X128994819Y-71532380D01*
X128994819Y-71532380D02*
X128994819Y-71437142D01*
X128994819Y-71437142D02*
X129042438Y-71294285D01*
X129042438Y-71294285D02*
X129090057Y-71246666D01*
X129994819Y-70770475D02*
X129994819Y-70579999D01*
X129994819Y-70579999D02*
X129947200Y-70484761D01*
X129947200Y-70484761D02*
X129899580Y-70437142D01*
X129899580Y-70437142D02*
X129756723Y-70341904D01*
X129756723Y-70341904D02*
X129566247Y-70294285D01*
X129566247Y-70294285D02*
X129185295Y-70294285D01*
X129185295Y-70294285D02*
X129090057Y-70341904D01*
X129090057Y-70341904D02*
X129042438Y-70389523D01*
X129042438Y-70389523D02*
X128994819Y-70484761D01*
X128994819Y-70484761D02*
X128994819Y-70675237D01*
X128994819Y-70675237D02*
X129042438Y-70770475D01*
X129042438Y-70770475D02*
X129090057Y-70818094D01*
X129090057Y-70818094D02*
X129185295Y-70865713D01*
X129185295Y-70865713D02*
X129423390Y-70865713D01*
X129423390Y-70865713D02*
X129518628Y-70818094D01*
X129518628Y-70818094D02*
X129566247Y-70770475D01*
X129566247Y-70770475D02*
X129613866Y-70675237D01*
X129613866Y-70675237D02*
X129613866Y-70484761D01*
X129613866Y-70484761D02*
X129566247Y-70389523D01*
X129566247Y-70389523D02*
X129518628Y-70341904D01*
X129518628Y-70341904D02*
X129423390Y-70294285D01*
X79843333Y-119896943D02*
X79510000Y-119420752D01*
X79271905Y-119896943D02*
X79271905Y-118896943D01*
X79271905Y-118896943D02*
X79652857Y-118896943D01*
X79652857Y-118896943D02*
X79748095Y-118944562D01*
X79748095Y-118944562D02*
X79795714Y-118992181D01*
X79795714Y-118992181D02*
X79843333Y-119087419D01*
X79843333Y-119087419D02*
X79843333Y-119230276D01*
X79843333Y-119230276D02*
X79795714Y-119325514D01*
X79795714Y-119325514D02*
X79748095Y-119373133D01*
X79748095Y-119373133D02*
X79652857Y-119420752D01*
X79652857Y-119420752D02*
X79271905Y-119420752D01*
X80748095Y-118896943D02*
X80271905Y-118896943D01*
X80271905Y-118896943D02*
X80224286Y-119373133D01*
X80224286Y-119373133D02*
X80271905Y-119325514D01*
X80271905Y-119325514D02*
X80367143Y-119277895D01*
X80367143Y-119277895D02*
X80605238Y-119277895D01*
X80605238Y-119277895D02*
X80700476Y-119325514D01*
X80700476Y-119325514D02*
X80748095Y-119373133D01*
X80748095Y-119373133D02*
X80795714Y-119468371D01*
X80795714Y-119468371D02*
X80795714Y-119706466D01*
X80795714Y-119706466D02*
X80748095Y-119801704D01*
X80748095Y-119801704D02*
X80700476Y-119849324D01*
X80700476Y-119849324D02*
X80605238Y-119896943D01*
X80605238Y-119896943D02*
X80367143Y-119896943D01*
X80367143Y-119896943D02*
X80271905Y-119849324D01*
X80271905Y-119849324D02*
X80224286Y-119801704D01*
X111849819Y-109322856D02*
X111849819Y-108656190D01*
X111849819Y-108656190D02*
X112849819Y-109084761D01*
X112183152Y-107846666D02*
X112849819Y-107846666D01*
X111802200Y-108084761D02*
X112516485Y-108322856D01*
X112516485Y-108322856D02*
X112516485Y-107703809D01*
X112849819Y-106846666D02*
X112849819Y-107322856D01*
X112849819Y-107322856D02*
X111849819Y-107322856D01*
X112802200Y-106560951D02*
X112849819Y-106418094D01*
X112849819Y-106418094D02*
X112849819Y-106179999D01*
X112849819Y-106179999D02*
X112802200Y-106084761D01*
X112802200Y-106084761D02*
X112754580Y-106037142D01*
X112754580Y-106037142D02*
X112659342Y-105989523D01*
X112659342Y-105989523D02*
X112564104Y-105989523D01*
X112564104Y-105989523D02*
X112468866Y-106037142D01*
X112468866Y-106037142D02*
X112421247Y-106084761D01*
X112421247Y-106084761D02*
X112373628Y-106179999D01*
X112373628Y-106179999D02*
X112326009Y-106370475D01*
X112326009Y-106370475D02*
X112278390Y-106465713D01*
X112278390Y-106465713D02*
X112230771Y-106513332D01*
X112230771Y-106513332D02*
X112135533Y-106560951D01*
X112135533Y-106560951D02*
X112040295Y-106560951D01*
X112040295Y-106560951D02*
X111945057Y-106513332D01*
X111945057Y-106513332D02*
X111897438Y-106465713D01*
X111897438Y-106465713D02*
X111849819Y-106370475D01*
X111849819Y-106370475D02*
X111849819Y-106132380D01*
X111849819Y-106132380D02*
X111897438Y-105989523D01*
X112278390Y-105418094D02*
X112230771Y-105513332D01*
X112230771Y-105513332D02*
X112183152Y-105560951D01*
X112183152Y-105560951D02*
X112087914Y-105608570D01*
X112087914Y-105608570D02*
X112040295Y-105608570D01*
X112040295Y-105608570D02*
X111945057Y-105560951D01*
X111945057Y-105560951D02*
X111897438Y-105513332D01*
X111897438Y-105513332D02*
X111849819Y-105418094D01*
X111849819Y-105418094D02*
X111849819Y-105227618D01*
X111849819Y-105227618D02*
X111897438Y-105132380D01*
X111897438Y-105132380D02*
X111945057Y-105084761D01*
X111945057Y-105084761D02*
X112040295Y-105037142D01*
X112040295Y-105037142D02*
X112087914Y-105037142D01*
X112087914Y-105037142D02*
X112183152Y-105084761D01*
X112183152Y-105084761D02*
X112230771Y-105132380D01*
X112230771Y-105132380D02*
X112278390Y-105227618D01*
X112278390Y-105227618D02*
X112278390Y-105418094D01*
X112278390Y-105418094D02*
X112326009Y-105513332D01*
X112326009Y-105513332D02*
X112373628Y-105560951D01*
X112373628Y-105560951D02*
X112468866Y-105608570D01*
X112468866Y-105608570D02*
X112659342Y-105608570D01*
X112659342Y-105608570D02*
X112754580Y-105560951D01*
X112754580Y-105560951D02*
X112802200Y-105513332D01*
X112802200Y-105513332D02*
X112849819Y-105418094D01*
X112849819Y-105418094D02*
X112849819Y-105227618D01*
X112849819Y-105227618D02*
X112802200Y-105132380D01*
X112802200Y-105132380D02*
X112754580Y-105084761D01*
X112754580Y-105084761D02*
X112659342Y-105037142D01*
X112659342Y-105037142D02*
X112468866Y-105037142D01*
X112468866Y-105037142D02*
X112373628Y-105084761D01*
X112373628Y-105084761D02*
X112326009Y-105132380D01*
X112326009Y-105132380D02*
X112278390Y-105227618D01*
X111849819Y-104132380D02*
X111849819Y-104608570D01*
X111849819Y-104608570D02*
X112326009Y-104656189D01*
X112326009Y-104656189D02*
X112278390Y-104608570D01*
X112278390Y-104608570D02*
X112230771Y-104513332D01*
X112230771Y-104513332D02*
X112230771Y-104275237D01*
X112230771Y-104275237D02*
X112278390Y-104179999D01*
X112278390Y-104179999D02*
X112326009Y-104132380D01*
X112326009Y-104132380D02*
X112421247Y-104084761D01*
X112421247Y-104084761D02*
X112659342Y-104084761D01*
X112659342Y-104084761D02*
X112754580Y-104132380D01*
X112754580Y-104132380D02*
X112802200Y-104179999D01*
X112802200Y-104179999D02*
X112849819Y-104275237D01*
X112849819Y-104275237D02*
X112849819Y-104513332D01*
X112849819Y-104513332D02*
X112802200Y-104608570D01*
X112802200Y-104608570D02*
X112754580Y-104656189D01*
X127423152Y-65373095D02*
X128089819Y-65373095D01*
X127042200Y-65611190D02*
X127756485Y-65849285D01*
X127756485Y-65849285D02*
X127756485Y-65230238D01*
X127089819Y-64658809D02*
X127089819Y-64563571D01*
X127089819Y-64563571D02*
X127137438Y-64468333D01*
X127137438Y-64468333D02*
X127185057Y-64420714D01*
X127185057Y-64420714D02*
X127280295Y-64373095D01*
X127280295Y-64373095D02*
X127470771Y-64325476D01*
X127470771Y-64325476D02*
X127708866Y-64325476D01*
X127708866Y-64325476D02*
X127899342Y-64373095D01*
X127899342Y-64373095D02*
X127994580Y-64420714D01*
X127994580Y-64420714D02*
X128042200Y-64468333D01*
X128042200Y-64468333D02*
X128089819Y-64563571D01*
X128089819Y-64563571D02*
X128089819Y-64658809D01*
X128089819Y-64658809D02*
X128042200Y-64754047D01*
X128042200Y-64754047D02*
X127994580Y-64801666D01*
X127994580Y-64801666D02*
X127899342Y-64849285D01*
X127899342Y-64849285D02*
X127708866Y-64896904D01*
X127708866Y-64896904D02*
X127470771Y-64896904D01*
X127470771Y-64896904D02*
X127280295Y-64849285D01*
X127280295Y-64849285D02*
X127185057Y-64801666D01*
X127185057Y-64801666D02*
X127137438Y-64754047D01*
X127137438Y-64754047D02*
X127089819Y-64658809D01*
X127089819Y-63420714D02*
X127089819Y-63896904D01*
X127089819Y-63896904D02*
X127566009Y-63944523D01*
X127566009Y-63944523D02*
X127518390Y-63896904D01*
X127518390Y-63896904D02*
X127470771Y-63801666D01*
X127470771Y-63801666D02*
X127470771Y-63563571D01*
X127470771Y-63563571D02*
X127518390Y-63468333D01*
X127518390Y-63468333D02*
X127566009Y-63420714D01*
X127566009Y-63420714D02*
X127661247Y-63373095D01*
X127661247Y-63373095D02*
X127899342Y-63373095D01*
X127899342Y-63373095D02*
X127994580Y-63420714D01*
X127994580Y-63420714D02*
X128042200Y-63468333D01*
X128042200Y-63468333D02*
X128089819Y-63563571D01*
X128089819Y-63563571D02*
X128089819Y-63801666D01*
X128089819Y-63801666D02*
X128042200Y-63896904D01*
X128042200Y-63896904D02*
X127994580Y-63944523D01*
X127089819Y-63039761D02*
X127089819Y-62420714D01*
X127089819Y-62420714D02*
X127470771Y-62754047D01*
X127470771Y-62754047D02*
X127470771Y-62611190D01*
X127470771Y-62611190D02*
X127518390Y-62515952D01*
X127518390Y-62515952D02*
X127566009Y-62468333D01*
X127566009Y-62468333D02*
X127661247Y-62420714D01*
X127661247Y-62420714D02*
X127899342Y-62420714D01*
X127899342Y-62420714D02*
X127994580Y-62468333D01*
X127994580Y-62468333D02*
X128042200Y-62515952D01*
X128042200Y-62515952D02*
X128089819Y-62611190D01*
X128089819Y-62611190D02*
X128089819Y-62896904D01*
X128089819Y-62896904D02*
X128042200Y-62992142D01*
X128042200Y-62992142D02*
X127994580Y-63039761D01*
X129899580Y-58546666D02*
X129947200Y-58594285D01*
X129947200Y-58594285D02*
X129994819Y-58737142D01*
X129994819Y-58737142D02*
X129994819Y-58832380D01*
X129994819Y-58832380D02*
X129947200Y-58975237D01*
X129947200Y-58975237D02*
X129851961Y-59070475D01*
X129851961Y-59070475D02*
X129756723Y-59118094D01*
X129756723Y-59118094D02*
X129566247Y-59165713D01*
X129566247Y-59165713D02*
X129423390Y-59165713D01*
X129423390Y-59165713D02*
X129232914Y-59118094D01*
X129232914Y-59118094D02*
X129137676Y-59070475D01*
X129137676Y-59070475D02*
X129042438Y-58975237D01*
X129042438Y-58975237D02*
X128994819Y-58832380D01*
X128994819Y-58832380D02*
X128994819Y-58737142D01*
X128994819Y-58737142D02*
X129042438Y-58594285D01*
X129042438Y-58594285D02*
X129090057Y-58546666D01*
X129423390Y-57975237D02*
X129375771Y-58070475D01*
X129375771Y-58070475D02*
X129328152Y-58118094D01*
X129328152Y-58118094D02*
X129232914Y-58165713D01*
X129232914Y-58165713D02*
X129185295Y-58165713D01*
X129185295Y-58165713D02*
X129090057Y-58118094D01*
X129090057Y-58118094D02*
X129042438Y-58070475D01*
X129042438Y-58070475D02*
X128994819Y-57975237D01*
X128994819Y-57975237D02*
X128994819Y-57784761D01*
X128994819Y-57784761D02*
X129042438Y-57689523D01*
X129042438Y-57689523D02*
X129090057Y-57641904D01*
X129090057Y-57641904D02*
X129185295Y-57594285D01*
X129185295Y-57594285D02*
X129232914Y-57594285D01*
X129232914Y-57594285D02*
X129328152Y-57641904D01*
X129328152Y-57641904D02*
X129375771Y-57689523D01*
X129375771Y-57689523D02*
X129423390Y-57784761D01*
X129423390Y-57784761D02*
X129423390Y-57975237D01*
X129423390Y-57975237D02*
X129471009Y-58070475D01*
X129471009Y-58070475D02*
X129518628Y-58118094D01*
X129518628Y-58118094D02*
X129613866Y-58165713D01*
X129613866Y-58165713D02*
X129804342Y-58165713D01*
X129804342Y-58165713D02*
X129899580Y-58118094D01*
X129899580Y-58118094D02*
X129947200Y-58070475D01*
X129947200Y-58070475D02*
X129994819Y-57975237D01*
X129994819Y-57975237D02*
X129994819Y-57784761D01*
X129994819Y-57784761D02*
X129947200Y-57689523D01*
X129947200Y-57689523D02*
X129899580Y-57641904D01*
X129899580Y-57641904D02*
X129804342Y-57594285D01*
X129804342Y-57594285D02*
X129613866Y-57594285D01*
X129613866Y-57594285D02*
X129518628Y-57641904D01*
X129518628Y-57641904D02*
X129471009Y-57689523D01*
X129471009Y-57689523D02*
X129423390Y-57784761D01*
X81639580Y-90296666D02*
X81687200Y-90344285D01*
X81687200Y-90344285D02*
X81734819Y-90487142D01*
X81734819Y-90487142D02*
X81734819Y-90582380D01*
X81734819Y-90582380D02*
X81687200Y-90725237D01*
X81687200Y-90725237D02*
X81591961Y-90820475D01*
X81591961Y-90820475D02*
X81496723Y-90868094D01*
X81496723Y-90868094D02*
X81306247Y-90915713D01*
X81306247Y-90915713D02*
X81163390Y-90915713D01*
X81163390Y-90915713D02*
X80972914Y-90868094D01*
X80972914Y-90868094D02*
X80877676Y-90820475D01*
X80877676Y-90820475D02*
X80782438Y-90725237D01*
X80782438Y-90725237D02*
X80734819Y-90582380D01*
X80734819Y-90582380D02*
X80734819Y-90487142D01*
X80734819Y-90487142D02*
X80782438Y-90344285D01*
X80782438Y-90344285D02*
X80830057Y-90296666D01*
X81734819Y-89344285D02*
X81734819Y-89915713D01*
X81734819Y-89629999D02*
X80734819Y-89629999D01*
X80734819Y-89629999D02*
X80877676Y-89725237D01*
X80877676Y-89725237D02*
X80972914Y-89820475D01*
X80972914Y-89820475D02*
X81020533Y-89915713D01*
X90955952Y-117929819D02*
X90479762Y-117929819D01*
X90479762Y-117929819D02*
X90479762Y-116929819D01*
X91289286Y-117406009D02*
X91622619Y-117406009D01*
X91765476Y-117929819D02*
X91289286Y-117929819D01*
X91289286Y-117929819D02*
X91289286Y-116929819D01*
X91289286Y-116929819D02*
X91765476Y-116929819D01*
X92194048Y-117929819D02*
X92194048Y-116929819D01*
X92194048Y-116929819D02*
X92432143Y-116929819D01*
X92432143Y-116929819D02*
X92575000Y-116977438D01*
X92575000Y-116977438D02*
X92670238Y-117072676D01*
X92670238Y-117072676D02*
X92717857Y-117167914D01*
X92717857Y-117167914D02*
X92765476Y-117358390D01*
X92765476Y-117358390D02*
X92765476Y-117501247D01*
X92765476Y-117501247D02*
X92717857Y-117691723D01*
X92717857Y-117691723D02*
X92670238Y-117786961D01*
X92670238Y-117786961D02*
X92575000Y-117882200D01*
X92575000Y-117882200D02*
X92432143Y-117929819D01*
X92432143Y-117929819D02*
X92194048Y-117929819D01*
X93717857Y-117929819D02*
X93146429Y-117929819D01*
X93432143Y-117929819D02*
X93432143Y-116929819D01*
X93432143Y-116929819D02*
X93336905Y-117072676D01*
X93336905Y-117072676D02*
X93241667Y-117167914D01*
X93241667Y-117167914D02*
X93146429Y-117215533D01*
X75438333Y-75289580D02*
X75390714Y-75337200D01*
X75390714Y-75337200D02*
X75247857Y-75384819D01*
X75247857Y-75384819D02*
X75152619Y-75384819D01*
X75152619Y-75384819D02*
X75009762Y-75337200D01*
X75009762Y-75337200D02*
X74914524Y-75241961D01*
X74914524Y-75241961D02*
X74866905Y-75146723D01*
X74866905Y-75146723D02*
X74819286Y-74956247D01*
X74819286Y-74956247D02*
X74819286Y-74813390D01*
X74819286Y-74813390D02*
X74866905Y-74622914D01*
X74866905Y-74622914D02*
X74914524Y-74527676D01*
X74914524Y-74527676D02*
X75009762Y-74432438D01*
X75009762Y-74432438D02*
X75152619Y-74384819D01*
X75152619Y-74384819D02*
X75247857Y-74384819D01*
X75247857Y-74384819D02*
X75390714Y-74432438D01*
X75390714Y-74432438D02*
X75438333Y-74480057D01*
X76295476Y-74718152D02*
X76295476Y-75384819D01*
X76057381Y-74337200D02*
X75819286Y-75051485D01*
X75819286Y-75051485D02*
X76438333Y-75051485D01*
X67183333Y-75289580D02*
X67135714Y-75337200D01*
X67135714Y-75337200D02*
X66992857Y-75384819D01*
X66992857Y-75384819D02*
X66897619Y-75384819D01*
X66897619Y-75384819D02*
X66754762Y-75337200D01*
X66754762Y-75337200D02*
X66659524Y-75241961D01*
X66659524Y-75241961D02*
X66611905Y-75146723D01*
X66611905Y-75146723D02*
X66564286Y-74956247D01*
X66564286Y-74956247D02*
X66564286Y-74813390D01*
X66564286Y-74813390D02*
X66611905Y-74622914D01*
X66611905Y-74622914D02*
X66659524Y-74527676D01*
X66659524Y-74527676D02*
X66754762Y-74432438D01*
X66754762Y-74432438D02*
X66897619Y-74384819D01*
X66897619Y-74384819D02*
X66992857Y-74384819D01*
X66992857Y-74384819D02*
X67135714Y-74432438D01*
X67135714Y-74432438D02*
X67183333Y-74480057D01*
X67516667Y-74384819D02*
X68135714Y-74384819D01*
X68135714Y-74384819D02*
X67802381Y-74765771D01*
X67802381Y-74765771D02*
X67945238Y-74765771D01*
X67945238Y-74765771D02*
X68040476Y-74813390D01*
X68040476Y-74813390D02*
X68088095Y-74861009D01*
X68088095Y-74861009D02*
X68135714Y-74956247D01*
X68135714Y-74956247D02*
X68135714Y-75194342D01*
X68135714Y-75194342D02*
X68088095Y-75289580D01*
X68088095Y-75289580D02*
X68040476Y-75337200D01*
X68040476Y-75337200D02*
X67945238Y-75384819D01*
X67945238Y-75384819D02*
X67659524Y-75384819D01*
X67659524Y-75384819D02*
X67564286Y-75337200D01*
X67564286Y-75337200D02*
X67516667Y-75289580D01*
X84814580Y-122421181D02*
X84862200Y-122468800D01*
X84862200Y-122468800D02*
X84909819Y-122611657D01*
X84909819Y-122611657D02*
X84909819Y-122706895D01*
X84909819Y-122706895D02*
X84862200Y-122849752D01*
X84862200Y-122849752D02*
X84766961Y-122944990D01*
X84766961Y-122944990D02*
X84671723Y-122992609D01*
X84671723Y-122992609D02*
X84481247Y-123040228D01*
X84481247Y-123040228D02*
X84338390Y-123040228D01*
X84338390Y-123040228D02*
X84147914Y-122992609D01*
X84147914Y-122992609D02*
X84052676Y-122944990D01*
X84052676Y-122944990D02*
X83957438Y-122849752D01*
X83957438Y-122849752D02*
X83909819Y-122706895D01*
X83909819Y-122706895D02*
X83909819Y-122611657D01*
X83909819Y-122611657D02*
X83957438Y-122468800D01*
X83957438Y-122468800D02*
X84005057Y-122421181D01*
X85005057Y-122230705D02*
X85005057Y-121468800D01*
X84909819Y-120706895D02*
X84909819Y-121278323D01*
X84909819Y-120992609D02*
X83909819Y-120992609D01*
X83909819Y-120992609D02*
X84052676Y-121087847D01*
X84052676Y-121087847D02*
X84147914Y-121183085D01*
X84147914Y-121183085D02*
X84195533Y-121278323D01*
X111849819Y-63602856D02*
X111849819Y-62936190D01*
X111849819Y-62936190D02*
X112849819Y-63364761D01*
X112183152Y-62126666D02*
X112849819Y-62126666D01*
X111802200Y-62364761D02*
X112516485Y-62602856D01*
X112516485Y-62602856D02*
X112516485Y-61983809D01*
X112849819Y-61126666D02*
X112849819Y-61602856D01*
X112849819Y-61602856D02*
X111849819Y-61602856D01*
X112802200Y-60840951D02*
X112849819Y-60698094D01*
X112849819Y-60698094D02*
X112849819Y-60459999D01*
X112849819Y-60459999D02*
X112802200Y-60364761D01*
X112802200Y-60364761D02*
X112754580Y-60317142D01*
X112754580Y-60317142D02*
X112659342Y-60269523D01*
X112659342Y-60269523D02*
X112564104Y-60269523D01*
X112564104Y-60269523D02*
X112468866Y-60317142D01*
X112468866Y-60317142D02*
X112421247Y-60364761D01*
X112421247Y-60364761D02*
X112373628Y-60459999D01*
X112373628Y-60459999D02*
X112326009Y-60650475D01*
X112326009Y-60650475D02*
X112278390Y-60745713D01*
X112278390Y-60745713D02*
X112230771Y-60793332D01*
X112230771Y-60793332D02*
X112135533Y-60840951D01*
X112135533Y-60840951D02*
X112040295Y-60840951D01*
X112040295Y-60840951D02*
X111945057Y-60793332D01*
X111945057Y-60793332D02*
X111897438Y-60745713D01*
X111897438Y-60745713D02*
X111849819Y-60650475D01*
X111849819Y-60650475D02*
X111849819Y-60412380D01*
X111849819Y-60412380D02*
X111897438Y-60269523D01*
X112278390Y-59698094D02*
X112230771Y-59793332D01*
X112230771Y-59793332D02*
X112183152Y-59840951D01*
X112183152Y-59840951D02*
X112087914Y-59888570D01*
X112087914Y-59888570D02*
X112040295Y-59888570D01*
X112040295Y-59888570D02*
X111945057Y-59840951D01*
X111945057Y-59840951D02*
X111897438Y-59793332D01*
X111897438Y-59793332D02*
X111849819Y-59698094D01*
X111849819Y-59698094D02*
X111849819Y-59507618D01*
X111849819Y-59507618D02*
X111897438Y-59412380D01*
X111897438Y-59412380D02*
X111945057Y-59364761D01*
X111945057Y-59364761D02*
X112040295Y-59317142D01*
X112040295Y-59317142D02*
X112087914Y-59317142D01*
X112087914Y-59317142D02*
X112183152Y-59364761D01*
X112183152Y-59364761D02*
X112230771Y-59412380D01*
X112230771Y-59412380D02*
X112278390Y-59507618D01*
X112278390Y-59507618D02*
X112278390Y-59698094D01*
X112278390Y-59698094D02*
X112326009Y-59793332D01*
X112326009Y-59793332D02*
X112373628Y-59840951D01*
X112373628Y-59840951D02*
X112468866Y-59888570D01*
X112468866Y-59888570D02*
X112659342Y-59888570D01*
X112659342Y-59888570D02*
X112754580Y-59840951D01*
X112754580Y-59840951D02*
X112802200Y-59793332D01*
X112802200Y-59793332D02*
X112849819Y-59698094D01*
X112849819Y-59698094D02*
X112849819Y-59507618D01*
X112849819Y-59507618D02*
X112802200Y-59412380D01*
X112802200Y-59412380D02*
X112754580Y-59364761D01*
X112754580Y-59364761D02*
X112659342Y-59317142D01*
X112659342Y-59317142D02*
X112468866Y-59317142D01*
X112468866Y-59317142D02*
X112373628Y-59364761D01*
X112373628Y-59364761D02*
X112326009Y-59412380D01*
X112326009Y-59412380D02*
X112278390Y-59507618D01*
X111849819Y-58412380D02*
X111849819Y-58888570D01*
X111849819Y-58888570D02*
X112326009Y-58936189D01*
X112326009Y-58936189D02*
X112278390Y-58888570D01*
X112278390Y-58888570D02*
X112230771Y-58793332D01*
X112230771Y-58793332D02*
X112230771Y-58555237D01*
X112230771Y-58555237D02*
X112278390Y-58459999D01*
X112278390Y-58459999D02*
X112326009Y-58412380D01*
X112326009Y-58412380D02*
X112421247Y-58364761D01*
X112421247Y-58364761D02*
X112659342Y-58364761D01*
X112659342Y-58364761D02*
X112754580Y-58412380D01*
X112754580Y-58412380D02*
X112802200Y-58459999D01*
X112802200Y-58459999D02*
X112849819Y-58555237D01*
X112849819Y-58555237D02*
X112849819Y-58793332D01*
X112849819Y-58793332D02*
X112802200Y-58888570D01*
X112802200Y-58888570D02*
X112754580Y-58936189D01*
X129899580Y-99662857D02*
X129947200Y-99710476D01*
X129947200Y-99710476D02*
X129994819Y-99853333D01*
X129994819Y-99853333D02*
X129994819Y-99948571D01*
X129994819Y-99948571D02*
X129947200Y-100091428D01*
X129947200Y-100091428D02*
X129851961Y-100186666D01*
X129851961Y-100186666D02*
X129756723Y-100234285D01*
X129756723Y-100234285D02*
X129566247Y-100281904D01*
X129566247Y-100281904D02*
X129423390Y-100281904D01*
X129423390Y-100281904D02*
X129232914Y-100234285D01*
X129232914Y-100234285D02*
X129137676Y-100186666D01*
X129137676Y-100186666D02*
X129042438Y-100091428D01*
X129042438Y-100091428D02*
X128994819Y-99948571D01*
X128994819Y-99948571D02*
X128994819Y-99853333D01*
X128994819Y-99853333D02*
X129042438Y-99710476D01*
X129042438Y-99710476D02*
X129090057Y-99662857D01*
X129994819Y-98710476D02*
X129994819Y-99281904D01*
X129994819Y-98996190D02*
X128994819Y-98996190D01*
X128994819Y-98996190D02*
X129137676Y-99091428D01*
X129137676Y-99091428D02*
X129232914Y-99186666D01*
X129232914Y-99186666D02*
X129280533Y-99281904D01*
X128994819Y-98091428D02*
X128994819Y-97996190D01*
X128994819Y-97996190D02*
X129042438Y-97900952D01*
X129042438Y-97900952D02*
X129090057Y-97853333D01*
X129090057Y-97853333D02*
X129185295Y-97805714D01*
X129185295Y-97805714D02*
X129375771Y-97758095D01*
X129375771Y-97758095D02*
X129613866Y-97758095D01*
X129613866Y-97758095D02*
X129804342Y-97805714D01*
X129804342Y-97805714D02*
X129899580Y-97853333D01*
X129899580Y-97853333D02*
X129947200Y-97900952D01*
X129947200Y-97900952D02*
X129994819Y-97996190D01*
X129994819Y-97996190D02*
X129994819Y-98091428D01*
X129994819Y-98091428D02*
X129947200Y-98186666D01*
X129947200Y-98186666D02*
X129899580Y-98234285D01*
X129899580Y-98234285D02*
X129804342Y-98281904D01*
X129804342Y-98281904D02*
X129613866Y-98329523D01*
X129613866Y-98329523D02*
X129375771Y-98329523D01*
X129375771Y-98329523D02*
X129185295Y-98281904D01*
X129185295Y-98281904D02*
X129090057Y-98234285D01*
X129090057Y-98234285D02*
X129042438Y-98186666D01*
X129042438Y-98186666D02*
X128994819Y-98091428D01*
X101959580Y-122046666D02*
X102007200Y-122094285D01*
X102007200Y-122094285D02*
X102054819Y-122237142D01*
X102054819Y-122237142D02*
X102054819Y-122332380D01*
X102054819Y-122332380D02*
X102007200Y-122475237D01*
X102007200Y-122475237D02*
X101911961Y-122570475D01*
X101911961Y-122570475D02*
X101816723Y-122618094D01*
X101816723Y-122618094D02*
X101626247Y-122665713D01*
X101626247Y-122665713D02*
X101483390Y-122665713D01*
X101483390Y-122665713D02*
X101292914Y-122618094D01*
X101292914Y-122618094D02*
X101197676Y-122570475D01*
X101197676Y-122570475D02*
X101102438Y-122475237D01*
X101102438Y-122475237D02*
X101054819Y-122332380D01*
X101054819Y-122332380D02*
X101054819Y-122237142D01*
X101054819Y-122237142D02*
X101102438Y-122094285D01*
X101102438Y-122094285D02*
X101150057Y-122046666D01*
X101054819Y-121713332D02*
X101054819Y-121046666D01*
X101054819Y-121046666D02*
X102054819Y-121475237D01*
D14*
X54380000Y-101600000D02*
X55150000Y-101600000D01*
X55150000Y-100230000D02*
X55150000Y-102970000D01*
X55150000Y-102970000D02*
X61690000Y-102970000D01*
X61690000Y-100230000D02*
X55150000Y-100230000D01*
X61690000Y-102970000D02*
X61690000Y-100230000D01*
X62460000Y-101600000D02*
X61690000Y-101600000D01*
X54500000Y-110380000D02*
X67420000Y-110380000D01*
X54500000Y-113030000D02*
X54500000Y-110380000D01*
X54500000Y-115680000D02*
X54500000Y-114300000D01*
X55880000Y-115680000D02*
X54500000Y-115680000D01*
X57150000Y-113030000D02*
X54500000Y-113030000D01*
X57150000Y-115680000D02*
X57150000Y-113030000D01*
X57150000Y-115680000D02*
X67420000Y-115680000D01*
X67420000Y-115680000D02*
X67420000Y-110380000D01*
X54380000Y-99060000D02*
X55150000Y-99060000D01*
X55150000Y-97690000D02*
X55150000Y-100430000D01*
X55150000Y-100430000D02*
X61690000Y-100430000D01*
X61690000Y-97690000D02*
X55150000Y-97690000D01*
X61690000Y-100430000D02*
X61690000Y-97690000D01*
X62460000Y-99060000D02*
X61690000Y-99060000D01*
X128170000Y-116800000D02*
X128170000Y-122040000D01*
X128507000Y-116800000D02*
X128170000Y-116800000D01*
X128507000Y-122040000D02*
X128170000Y-122040000D01*
X130910000Y-116800000D02*
X130573000Y-116800000D01*
X130910000Y-116800000D02*
X130910000Y-122040000D01*
X130910000Y-122040000D02*
X130573000Y-122040000D01*
X102760000Y-72330000D02*
X102760000Y-92770000D01*
X102760000Y-92770000D02*
X104410000Y-92770000D01*
X106410000Y-92770000D02*
X108060000Y-92770000D01*
X108060000Y-72330000D02*
X102760000Y-72330000D01*
X108060000Y-92770000D02*
X108060000Y-72330000D01*
X110550000Y-92830000D02*
X100270000Y-92830000D01*
X100270000Y-72270000D01*
X110550000Y-72270000D01*
X110550000Y-92830000D01*
X104410000Y-92770000D02*
G75*
G02*
X106410000Y-92770000I1000000J0D01*
G01*
X53865000Y-52010000D02*
X53865000Y-72450000D01*
X53865000Y-72450000D02*
X55515000Y-72450000D01*
X57515000Y-72450000D02*
X59165000Y-72450000D01*
X59165000Y-52010000D02*
X53865000Y-52010000D01*
X59165000Y-72450000D02*
X59165000Y-52010000D01*
X61655000Y-72510000D02*
X51375000Y-72510000D01*
X51375000Y-51950000D01*
X61655000Y-51950000D01*
X61655000Y-72510000D01*
X55515000Y-72450000D02*
G75*
G02*
X57515000Y-72450000I1000000J0D01*
G01*
X53895000Y-73897000D02*
X53895000Y-73560000D01*
X53895000Y-76300000D02*
X53895000Y-75963000D01*
X59135000Y-73560000D02*
X53895000Y-73560000D01*
X59135000Y-73897000D02*
X59135000Y-73560000D01*
X59135000Y-76300000D02*
X53895000Y-76300000D01*
X59135000Y-76300000D02*
X59135000Y-75963000D01*
X76725000Y-52010000D02*
X76725000Y-72450000D01*
X76725000Y-72450000D02*
X78375000Y-72450000D01*
X80375000Y-72450000D02*
X82025000Y-72450000D01*
X82025000Y-52010000D02*
X76725000Y-52010000D01*
X82025000Y-72450000D02*
X82025000Y-52010000D01*
X84515000Y-72510000D02*
X74235000Y-72510000D01*
X74235000Y-51950000D01*
X84515000Y-51950000D01*
X84515000Y-72510000D01*
X78375000Y-72450000D02*
G75*
G02*
X80375000Y-72450000I1000000J0D01*
G01*
X96420000Y-62745000D02*
X96420000Y-67985000D01*
X96757000Y-62745000D02*
X96420000Y-62745000D01*
X96757000Y-67985000D02*
X96420000Y-67985000D01*
X99160000Y-62745000D02*
X98823000Y-62745000D01*
X99160000Y-62745000D02*
X99160000Y-67985000D01*
X99160000Y-67985000D02*
X98823000Y-67985000D01*
X89097896Y-129265000D02*
X90520400Y-129265000D01*
X89097896Y-131085000D02*
X90520400Y-131085000D01*
X118000000Y-72330000D02*
X118000000Y-92770000D01*
X118000000Y-92770000D02*
X123300000Y-92770000D01*
X119650000Y-72330000D02*
X118000000Y-72330000D01*
X123300000Y-72330000D02*
X121650000Y-72330000D01*
X123300000Y-92770000D02*
X123300000Y-72330000D01*
X115510000Y-72270000D02*
X125790000Y-72270000D01*
X125790000Y-92830000D01*
X115510000Y-92830000D01*
X115510000Y-72270000D01*
X121650000Y-72330000D02*
G75*
G02*
X119650000Y-72330000I-1000000J0D01*
G01*
X86280061Y-126678562D02*
X87484189Y-126678562D01*
X86280061Y-128498562D02*
X87484189Y-128498562D01*
X118000000Y-95190000D02*
X118000000Y-115630000D01*
X118000000Y-115630000D02*
X123300000Y-115630000D01*
X119650000Y-95190000D02*
X118000000Y-95190000D01*
X123300000Y-95190000D02*
X121650000Y-95190000D01*
X123300000Y-115630000D02*
X123300000Y-95190000D01*
X115510000Y-95130000D02*
X125790000Y-95130000D01*
X125790000Y-115690000D01*
X115510000Y-115690000D01*
X115510000Y-95130000D01*
X121650000Y-95190000D02*
G75*
G02*
X119650000Y-95190000I-1000000J0D01*
G01*
X44975000Y-81390000D02*
X44975000Y-63390000D01*
X47625000Y-78740000D02*
X47625000Y-81390000D01*
X47625000Y-81390000D02*
X44975000Y-81390000D01*
X50275000Y-63390000D02*
X44975000Y-63390000D01*
X50275000Y-78740000D02*
X47625000Y-78740000D01*
X50275000Y-78740000D02*
X50275000Y-63390000D01*
X50275000Y-80010000D02*
X50275000Y-81390000D01*
X50275000Y-81390000D02*
X48895000Y-81390000D01*
X65295000Y-52010000D02*
X65295000Y-72450000D01*
X65295000Y-72450000D02*
X66945000Y-72450000D01*
X68945000Y-72450000D02*
X70595000Y-72450000D01*
X70595000Y-52010000D02*
X65295000Y-52010000D01*
X70595000Y-72450000D02*
X70595000Y-52010000D01*
X73085000Y-72510000D02*
X62805000Y-72510000D01*
X62805000Y-51950000D01*
X73085000Y-51950000D01*
X73085000Y-72510000D01*
X66945000Y-72450000D02*
G75*
G02*
X68945000Y-72450000I1000000J0D01*
G01*
X71410000Y-77410000D02*
X71410000Y-113090000D01*
X71410000Y-113090000D02*
X72660000Y-113090000D01*
X74660000Y-113090000D02*
X75910000Y-113090000D01*
X75910000Y-77410000D02*
X71410000Y-77410000D01*
X75910000Y-113090000D02*
X75910000Y-77410000D01*
X78910000Y-113150000D02*
X68410000Y-113150000D01*
X68410000Y-77350000D01*
X78910000Y-77350000D01*
X78910000Y-113150000D01*
X72660000Y-113090000D02*
G75*
G02*
X74660000Y-113090000I1000000J0D01*
G01*
X105350000Y-120540000D02*
X105350000Y-125840000D01*
X105350000Y-125840000D02*
X125790000Y-125840000D01*
X125790000Y-120540000D02*
X105350000Y-120540000D01*
X125790000Y-122190000D02*
X125790000Y-120540000D01*
X125790000Y-125840000D02*
X125790000Y-124190000D01*
X125850000Y-118050000D02*
X105290000Y-118050000D01*
X105290000Y-128330000D01*
X125850000Y-128330000D01*
X125850000Y-118050000D01*
X125790000Y-124190000D02*
G75*
G02*
X125790000Y-122190000I0J1000000D01*
G01*
X96420000Y-91995000D02*
X96757000Y-91995000D01*
X96420000Y-97235000D02*
X96420000Y-91995000D01*
X96420000Y-97235000D02*
X96757000Y-97235000D01*
X98823000Y-91995000D02*
X99160000Y-91995000D01*
X98823000Y-97235000D02*
X99160000Y-97235000D01*
X99160000Y-97235000D02*
X99160000Y-91995000D01*
X53865000Y-90280000D02*
X53865000Y-88900000D01*
X55245000Y-90280000D02*
X53865000Y-90280000D01*
X56515000Y-87520000D02*
X61705000Y-87520000D01*
X56515000Y-90280000D02*
X56515000Y-87520000D01*
X56515000Y-90280000D02*
X61705000Y-90280000D01*
X61705000Y-90280000D02*
X61705000Y-87520000D01*
X92964625Y-121638562D02*
X96724625Y-121638562D01*
X92964625Y-128458562D02*
X96724625Y-128458562D01*
X96724625Y-121638562D02*
X96724625Y-122898562D01*
X96724625Y-128458562D02*
X96724625Y-127198562D01*
X91684625Y-121738562D02*
X91444625Y-121408562D01*
X91924625Y-121408562D01*
X91684625Y-121738562D01*
G36*
X91684625Y-121738562D02*
G01*
X91444625Y-121408562D01*
X91924625Y-121408562D01*
X91684625Y-121738562D01*
G37*
X128170000Y-68460000D02*
X128170000Y-73700000D01*
X128507000Y-68460000D02*
X128170000Y-68460000D01*
X128507000Y-73700000D02*
X128170000Y-73700000D01*
X130910000Y-68460000D02*
X130573000Y-68460000D01*
X130910000Y-68460000D02*
X130910000Y-73700000D01*
X130910000Y-73700000D02*
X130573000Y-73700000D01*
X77360000Y-123190000D02*
X77360000Y-120540000D01*
X80120000Y-120540000D02*
X77360000Y-120540000D01*
X80120000Y-123190000D02*
X77360000Y-123190000D01*
X80120000Y-123190000D02*
X80120000Y-120540000D01*
X80120000Y-124460000D02*
X80120000Y-125840000D01*
X80120000Y-125840000D02*
X78740000Y-125840000D01*
X79282936Y-116278562D02*
X80737064Y-116278562D01*
X79282936Y-118098562D02*
X80737064Y-118098562D01*
X50670000Y-123650000D02*
X76330000Y-123650000D01*
X50670000Y-132770000D02*
X50670000Y-123650000D01*
X61450000Y-123650000D02*
X61450000Y-132770000D01*
X65550000Y-123650000D02*
X65550000Y-132770000D01*
X70620000Y-117030000D02*
X71120000Y-118030000D01*
X71120000Y-118030000D02*
X71620000Y-117030000D01*
X71620000Y-117030000D02*
X70620000Y-117030000D01*
X76330000Y-123650000D02*
X76330000Y-132770000D01*
X76330000Y-132770000D02*
X50670000Y-132770000D01*
X102760000Y-95190000D02*
X102760000Y-115630000D01*
X102760000Y-115630000D02*
X104410000Y-115630000D01*
X106410000Y-115630000D02*
X108060000Y-115630000D01*
X108060000Y-95190000D02*
X102760000Y-95190000D01*
X108060000Y-115630000D02*
X108060000Y-95190000D01*
X110550000Y-115690000D02*
X100270000Y-115690000D01*
X100270000Y-95130000D01*
X110550000Y-95130000D01*
X110550000Y-115690000D01*
X104410000Y-115630000D02*
G75*
G02*
X106410000Y-115630000I1000000J0D01*
G01*
X118000000Y-49470000D02*
X118000000Y-69910000D01*
X118000000Y-69910000D02*
X123300000Y-69910000D01*
X119650000Y-49470000D02*
X118000000Y-49470000D01*
X123300000Y-49470000D02*
X121650000Y-49470000D01*
X123300000Y-69910000D02*
X123300000Y-49470000D01*
X115510000Y-49410000D02*
X125790000Y-49410000D01*
X125790000Y-69970000D01*
X115510000Y-69970000D01*
X115510000Y-49410000D01*
X121650000Y-49470000D02*
G75*
G02*
X119650000Y-49470000I-1000000J0D01*
G01*
X128170000Y-55760000D02*
X128507000Y-55760000D01*
X128170000Y-61000000D02*
X128170000Y-55760000D01*
X128170000Y-61000000D02*
X128507000Y-61000000D01*
X130573000Y-55760000D02*
X130910000Y-55760000D01*
X130573000Y-61000000D02*
X130910000Y-61000000D01*
X130910000Y-61000000D02*
X130910000Y-55760000D01*
X79910000Y-87510000D02*
X79910000Y-92750000D01*
X80247000Y-87510000D02*
X79910000Y-87510000D01*
X80247000Y-92750000D02*
X79910000Y-92750000D01*
X82650000Y-87510000D02*
X82313000Y-87510000D01*
X82650000Y-87510000D02*
X82650000Y-92750000D01*
X82650000Y-92750000D02*
X82313000Y-92750000D01*
X89425000Y-49420000D02*
X90805000Y-49420000D01*
X89425000Y-50800000D02*
X89425000Y-49420000D01*
X89425000Y-52070000D02*
X89425000Y-80120000D01*
X89425000Y-52070000D02*
X92075000Y-52070000D01*
X89425000Y-80120000D02*
X94725000Y-80120000D01*
X92075000Y-49420000D02*
X94725000Y-49420000D01*
X92075000Y-52070000D02*
X92075000Y-49420000D01*
X94725000Y-49420000D02*
X94725000Y-80120000D01*
X53865000Y-95360000D02*
X53865000Y-93980000D01*
X55245000Y-95360000D02*
X53865000Y-95360000D01*
X56515000Y-92600000D02*
X61705000Y-92600000D01*
X56515000Y-95360000D02*
X56515000Y-92600000D01*
X56515000Y-95360000D02*
X61705000Y-95360000D01*
X61705000Y-95360000D02*
X61705000Y-92600000D01*
X84760000Y-118323562D02*
X88820000Y-118323562D01*
X88820000Y-116053562D02*
X84760000Y-116053562D01*
X88820000Y-118323562D02*
X88820000Y-116053562D01*
X72985000Y-73897000D02*
X72985000Y-73560000D01*
X72985000Y-76300000D02*
X72985000Y-75963000D01*
X78225000Y-73560000D02*
X72985000Y-73560000D01*
X78225000Y-73897000D02*
X78225000Y-73560000D01*
X78225000Y-76300000D02*
X72985000Y-76300000D01*
X78225000Y-76300000D02*
X78225000Y-75963000D01*
X64730000Y-73560000D02*
X64730000Y-73897000D01*
X64730000Y-73560000D02*
X69970000Y-73560000D01*
X64730000Y-75963000D02*
X64730000Y-76300000D01*
X64730000Y-76300000D02*
X69970000Y-76300000D01*
X69970000Y-73560000D02*
X69970000Y-73897000D01*
X69970000Y-75963000D02*
X69970000Y-76300000D01*
X86284625Y-121162310D02*
X86284625Y-122584814D01*
X88104625Y-121162310D02*
X88104625Y-122584814D01*
X102760000Y-49470000D02*
X102760000Y-69910000D01*
X102760000Y-69910000D02*
X104410000Y-69910000D01*
X106410000Y-69910000D02*
X108060000Y-69910000D01*
X108060000Y-49470000D02*
X102760000Y-49470000D01*
X108060000Y-69910000D02*
X108060000Y-49470000D01*
X110550000Y-69970000D02*
X100270000Y-69970000D01*
X100270000Y-49410000D01*
X110550000Y-49410000D01*
X110550000Y-69970000D01*
X104410000Y-69910000D02*
G75*
G02*
X106410000Y-69910000I1000000J0D01*
G01*
X128170000Y-96400000D02*
X128507000Y-96400000D01*
X128170000Y-101640000D02*
X128170000Y-96400000D01*
X128170000Y-101640000D02*
X128507000Y-101640000D01*
X130573000Y-96400000D02*
X130910000Y-96400000D01*
X130573000Y-101640000D02*
X130910000Y-101640000D01*
X130910000Y-101640000D02*
X130910000Y-96400000D01*
X44975000Y-113140000D02*
X44975000Y-84980000D01*
X47625000Y-110490000D02*
X47625000Y-113140000D01*
X47625000Y-113140000D02*
X44975000Y-113140000D01*
X50275000Y-84980000D02*
X44975000Y-84980000D01*
X50275000Y-110490000D02*
X47625000Y-110490000D01*
X50275000Y-110490000D02*
X50275000Y-84980000D01*
X50275000Y-111760000D02*
X50275000Y-113140000D01*
X50275000Y-113140000D02*
X48895000Y-113140000D01*
X53865000Y-85200000D02*
X53865000Y-83820000D01*
X55245000Y-85200000D02*
X53865000Y-85200000D01*
X56515000Y-82440000D02*
X61705000Y-82440000D01*
X56515000Y-85200000D02*
X56515000Y-82440000D01*
X56515000Y-85200000D02*
X61705000Y-85200000D01*
X61705000Y-85200000D02*
X61705000Y-82440000D01*
X100230000Y-119260000D02*
X100567000Y-119260000D01*
X100230000Y-124500000D02*
X100230000Y-119260000D01*
X100230000Y-124500000D02*
X100567000Y-124500000D01*
X102633000Y-119260000D02*
X102970000Y-119260000D01*
X102633000Y-124500000D02*
X102970000Y-124500000D01*
X102970000Y-124500000D02*
X102970000Y-119260000D01*
%LPC*%
D15*
X53340000Y-101600000D03*
D16*
X63500000Y-101600000D03*
D17*
X55880000Y-114300000D03*
D18*
X55880000Y-111760000D03*
X58420000Y-114300000D03*
X58420000Y-111760000D03*
X60960000Y-114300000D03*
X60960000Y-111760000D03*
X63500000Y-114300000D03*
X63500000Y-111760000D03*
X66040000Y-114300000D03*
X66040000Y-111760000D03*
D15*
X53340000Y-99060000D03*
D16*
X63500000Y-99060000D03*
D15*
X129540000Y-116920000D03*
X129540000Y-121920000D03*
D19*
X109220000Y-91440000D03*
D15*
X109220000Y-88900000D03*
X109220000Y-86360000D03*
X109220000Y-83820000D03*
X109220000Y-81280000D03*
X109220000Y-78740000D03*
X109220000Y-76200000D03*
X109220000Y-73660000D03*
X101600000Y-73660000D03*
X101600000Y-76200000D03*
X101600000Y-78740000D03*
X101600000Y-81280000D03*
X101600000Y-83820000D03*
X101600000Y-86360000D03*
X101600000Y-88900000D03*
X101600000Y-91440000D03*
D19*
X60325000Y-71120000D03*
D15*
X60325000Y-68580000D03*
X60325000Y-66040000D03*
X60325000Y-63500000D03*
X60325000Y-60960000D03*
X60325000Y-58420000D03*
X60325000Y-55880000D03*
X60325000Y-53340000D03*
X52705000Y-53340000D03*
X52705000Y-55880000D03*
X52705000Y-58420000D03*
X52705000Y-60960000D03*
X52705000Y-63500000D03*
X52705000Y-66040000D03*
X52705000Y-68580000D03*
X52705000Y-71120000D03*
D20*
X43955000Y-125730000D03*
X44657944Y-124032944D03*
X44657944Y-127427056D03*
X46355000Y-123330000D03*
D21*
X46355000Y-125730000D03*
D20*
X46355000Y-128130000D03*
X48052056Y-124032944D03*
X48052056Y-127427056D03*
X48755000Y-125730000D03*
X129680000Y-129540000D03*
X130382944Y-127842944D03*
X130382944Y-131237056D03*
X132080000Y-127140000D03*
D21*
X132080000Y-129540000D03*
D20*
X132080000Y-131940000D03*
X133777056Y-127842944D03*
X133777056Y-131237056D03*
X134480000Y-129540000D03*
D15*
X59015000Y-74930000D03*
X54015000Y-74930000D03*
D20*
X129680000Y-49530000D03*
X130382944Y-47832944D03*
X130382944Y-51227056D03*
X132080000Y-47130000D03*
D21*
X132080000Y-49530000D03*
D20*
X132080000Y-51930000D03*
X133777056Y-47832944D03*
X133777056Y-51227056D03*
X134480000Y-49530000D03*
D19*
X83185000Y-71120000D03*
D15*
X83185000Y-68580000D03*
X83185000Y-66040000D03*
X83185000Y-63500000D03*
X83185000Y-60960000D03*
X83185000Y-58420000D03*
X83185000Y-55880000D03*
X83185000Y-53340000D03*
X75565000Y-53340000D03*
X75565000Y-55880000D03*
X75565000Y-58420000D03*
X75565000Y-60960000D03*
X75565000Y-63500000D03*
X75565000Y-66040000D03*
X75565000Y-68580000D03*
X75565000Y-71120000D03*
X97790000Y-62865000D03*
X97790000Y-67865000D03*
D22*
X88246648Y-130175000D03*
X91371648Y-130175000D03*
D23*
X116840000Y-73660000D03*
D15*
X116840000Y-76200000D03*
X116840000Y-78740000D03*
X116840000Y-81280000D03*
X116840000Y-83820000D03*
X116840000Y-86360000D03*
X116840000Y-88900000D03*
X116840000Y-91440000D03*
X124460000Y-91440000D03*
X124460000Y-88900000D03*
X124460000Y-86360000D03*
X124460000Y-83820000D03*
X124460000Y-81280000D03*
X124460000Y-78740000D03*
X124460000Y-76200000D03*
X124460000Y-73660000D03*
D24*
X85394625Y-127588562D03*
X88369625Y-127588562D03*
D23*
X116840000Y-96520000D03*
D15*
X116840000Y-99060000D03*
X116840000Y-101600000D03*
X116840000Y-104140000D03*
X116840000Y-106680000D03*
X116840000Y-109220000D03*
X116840000Y-111760000D03*
X116840000Y-114300000D03*
X124460000Y-114300000D03*
X124460000Y-111760000D03*
X124460000Y-109220000D03*
X124460000Y-106680000D03*
X124460000Y-104140000D03*
X124460000Y-101600000D03*
X124460000Y-99060000D03*
X124460000Y-96520000D03*
D25*
X48895000Y-80010000D03*
D18*
X46355000Y-80010000D03*
X48895000Y-77470000D03*
X46355000Y-77470000D03*
X48895000Y-74930000D03*
X46355000Y-74930000D03*
X48895000Y-72390000D03*
X46355000Y-72390000D03*
X48895000Y-69850000D03*
X46355000Y-69850000D03*
X48895000Y-67310000D03*
X46355000Y-67310000D03*
X48895000Y-64770000D03*
X46355000Y-64770000D03*
D19*
X71755000Y-71120000D03*
D15*
X71755000Y-68580000D03*
X71755000Y-66040000D03*
X71755000Y-63500000D03*
X71755000Y-60960000D03*
X71755000Y-58420000D03*
X71755000Y-55880000D03*
X71755000Y-53340000D03*
X64135000Y-53340000D03*
X64135000Y-55880000D03*
X64135000Y-58420000D03*
X64135000Y-60960000D03*
X64135000Y-63500000D03*
X64135000Y-66040000D03*
X64135000Y-68580000D03*
X64135000Y-71120000D03*
D26*
X77470000Y-111760000D03*
D27*
X77470000Y-109220000D03*
X77470000Y-106680000D03*
X77470000Y-104140000D03*
X77470000Y-101600000D03*
X77470000Y-99060000D03*
X77470000Y-96520000D03*
X77470000Y-93980000D03*
X77470000Y-91440000D03*
X77470000Y-88900000D03*
X77470000Y-86360000D03*
X77470000Y-83820000D03*
X77470000Y-81280000D03*
X77470000Y-78740000D03*
X69850000Y-78740000D03*
X69850000Y-81280000D03*
X69850000Y-83820000D03*
X69850000Y-86360000D03*
X69850000Y-88900000D03*
X69850000Y-91440000D03*
X69850000Y-93980000D03*
X69850000Y-96520000D03*
X69850000Y-99060000D03*
X69850000Y-101600000D03*
X69850000Y-104140000D03*
X69850000Y-106680000D03*
X69850000Y-109220000D03*
X69850000Y-111760000D03*
D28*
X124460000Y-119380000D03*
D15*
X121920000Y-119380000D03*
X119380000Y-119380000D03*
X116840000Y-119380000D03*
X114300000Y-119380000D03*
X111760000Y-119380000D03*
X109220000Y-119380000D03*
X106680000Y-119380000D03*
X106680000Y-127000000D03*
X109220000Y-127000000D03*
X111760000Y-127000000D03*
X114300000Y-127000000D03*
X116840000Y-127000000D03*
X119380000Y-127000000D03*
X121920000Y-127000000D03*
X124460000Y-127000000D03*
X97790000Y-97115000D03*
X97790000Y-92115000D03*
D17*
X55245000Y-88900000D03*
D18*
X57785000Y-88900000D03*
X60325000Y-88900000D03*
D29*
X91664625Y-122748562D03*
X91664625Y-125048562D03*
D30*
X97964625Y-125048562D03*
D29*
X91664625Y-127348562D03*
D15*
X129540000Y-68580000D03*
X129540000Y-73580000D03*
D25*
X78740000Y-124460000D03*
D18*
X78740000Y-121920000D03*
D31*
X78460000Y-117188562D03*
X81560000Y-117188562D03*
D32*
X71120000Y-119380000D03*
D18*
X71120000Y-121920000D03*
X68580000Y-119380000D03*
X68580000Y-121920000D03*
X66040000Y-119380000D03*
X66040000Y-121920000D03*
X63500000Y-119380000D03*
X63500000Y-121920000D03*
X60960000Y-119380000D03*
X60960000Y-121920000D03*
X58420000Y-119380000D03*
X58420000Y-121920000D03*
X55880000Y-119380000D03*
X55880000Y-121920000D03*
D19*
X109220000Y-114300000D03*
D15*
X109220000Y-111760000D03*
X109220000Y-109220000D03*
X109220000Y-106680000D03*
X109220000Y-104140000D03*
X109220000Y-101600000D03*
X109220000Y-99060000D03*
X109220000Y-96520000D03*
X101600000Y-96520000D03*
X101600000Y-99060000D03*
X101600000Y-101600000D03*
X101600000Y-104140000D03*
X101600000Y-106680000D03*
X101600000Y-109220000D03*
X101600000Y-111760000D03*
X101600000Y-114300000D03*
D23*
X116840000Y-50800000D03*
D15*
X116840000Y-53340000D03*
X116840000Y-55880000D03*
X116840000Y-58420000D03*
X116840000Y-60960000D03*
X116840000Y-63500000D03*
X116840000Y-66040000D03*
X116840000Y-68580000D03*
X124460000Y-68580000D03*
X124460000Y-66040000D03*
X124460000Y-63500000D03*
X124460000Y-60960000D03*
X124460000Y-58420000D03*
X124460000Y-55880000D03*
X124460000Y-53340000D03*
X124460000Y-50800000D03*
X129540000Y-60880000D03*
X129540000Y-55880000D03*
X81280000Y-87630000D03*
X81280000Y-92630000D03*
D33*
X90805000Y-50800000D03*
D18*
X93345000Y-50800000D03*
X90805000Y-53340000D03*
X93345000Y-53340000D03*
X90805000Y-55880000D03*
X93345000Y-55880000D03*
X90805000Y-58420000D03*
X93345000Y-58420000D03*
X90805000Y-60960000D03*
X93345000Y-60960000D03*
X90805000Y-63500000D03*
X93345000Y-63500000D03*
X90805000Y-66040000D03*
X93345000Y-66040000D03*
X90805000Y-68580000D03*
X93345000Y-68580000D03*
X90805000Y-71120000D03*
X93345000Y-71120000D03*
X90805000Y-73660000D03*
X93345000Y-73660000D03*
X90805000Y-76200000D03*
X93345000Y-76200000D03*
X90805000Y-78740000D03*
X93345000Y-78740000D03*
D20*
X43955000Y-52070000D03*
X44657944Y-50372944D03*
X44657944Y-53767056D03*
X46355000Y-49670000D03*
D21*
X46355000Y-52070000D03*
D20*
X46355000Y-54470000D03*
X48052056Y-50372944D03*
X48052056Y-53767056D03*
X48755000Y-52070000D03*
D17*
X55245000Y-93980000D03*
D18*
X57785000Y-93980000D03*
X60325000Y-93980000D03*
D34*
X87847500Y-117188562D03*
X84872500Y-117188562D03*
D15*
X78105000Y-74930000D03*
X73105000Y-74930000D03*
X64850000Y-74930000D03*
X69850000Y-74930000D03*
D35*
X87194625Y-120311062D03*
X87194625Y-123436062D03*
D19*
X109220000Y-68580000D03*
D15*
X109220000Y-66040000D03*
X109220000Y-63500000D03*
X109220000Y-60960000D03*
X109220000Y-58420000D03*
X109220000Y-55880000D03*
X109220000Y-53340000D03*
X109220000Y-50800000D03*
X101600000Y-50800000D03*
X101600000Y-53340000D03*
X101600000Y-55880000D03*
X101600000Y-58420000D03*
X101600000Y-60960000D03*
X101600000Y-63500000D03*
X101600000Y-66040000D03*
X101600000Y-68580000D03*
X129540000Y-101520000D03*
X129540000Y-96520000D03*
D25*
X48895000Y-111760000D03*
D18*
X46355000Y-111760000D03*
X48895000Y-109220000D03*
X46355000Y-109220000D03*
X48895000Y-106680000D03*
X46355000Y-106680000D03*
X48895000Y-104140000D03*
X46355000Y-104140000D03*
X48895000Y-101600000D03*
X46355000Y-101600000D03*
X48895000Y-99060000D03*
X46355000Y-99060000D03*
X48895000Y-96520000D03*
X46355000Y-96520000D03*
X48895000Y-93980000D03*
X46355000Y-93980000D03*
X48895000Y-91440000D03*
X46355000Y-91440000D03*
X48895000Y-88900000D03*
X46355000Y-88900000D03*
X48895000Y-86360000D03*
X46355000Y-86360000D03*
D17*
X55245000Y-83820000D03*
D18*
X57785000Y-83820000D03*
X60325000Y-83820000D03*
D15*
X101600000Y-124380000D03*
X101600000Y-119380000D03*
%LPD*%
M02*
