%TF.GenerationSoftware,KiCad,Pcbnew,9.0.1*%
%TF.CreationDate,2025-04-27T22:31:10+02:00*%
%TF.ProjectId,DistributedPulseModulation,44697374-7269-4627-9574-656450756c73,rev?*%
%TF.SameCoordinates,Original*%
%TF.FileFunction,Drillmap*%
%TF.FilePolarity,Positive*%
%FSLAX45Y45*%
G04 Gerber Fmt 4.5, Leading zero omitted, Abs format (unit mm)*
G04 Created by KiCad (PCBNEW 9.0.1) date 2025-04-27 22:31:10*
%MOMM*%
%LPD*%
G01*
G04 APERTURE LIST*
%ADD10C,0.100000*%
%ADD11C,0.200000*%
G04 APERTURE END LIST*
D10*
X4318000Y-9759950D02*
X4318000Y-7918450D01*
X7907020Y-13366750D02*
G75*
G02*
X8002270Y-13271500I95250J0D01*
G01*
X9936480Y-4540250D02*
G75*
G02*
X10031730Y-4445000I95250J0D01*
G01*
X4222750Y-13462000D02*
G75*
G02*
X4127500Y-13366750I0J95250D01*
G01*
X4318000Y-9759950D02*
G75*
G02*
X4222750Y-9855200I-95250J0D01*
G01*
X4127500Y-4540250D02*
G75*
G02*
X4222750Y-4445000I95250J0D01*
G01*
X4127500Y-9950450D02*
G75*
G02*
X4222750Y-9855200I95250J0D01*
G01*
X4222750Y-7823200D02*
G75*
G02*
X4318000Y-7918450I0J-95250D01*
G01*
X9936480Y-4540250D02*
G75*
G02*
X9841230Y-4635500I-95250J0D01*
G01*
X8002270Y-4635500D02*
X9841230Y-4635500D01*
X13620750Y-9855200D02*
G75*
G02*
X13525500Y-9759950I0J95250D01*
G01*
X13716000Y-7727950D02*
X13716000Y-4540250D01*
X9841230Y-13271500D02*
G75*
G02*
X9936480Y-13366750I0J-95250D01*
G01*
X13716000Y-13366750D02*
X13716000Y-9950450D01*
X7907020Y-13366750D02*
G75*
G02*
X7811770Y-13462000I-95250J0D01*
G01*
X4222750Y-13462000D02*
X7811770Y-13462000D01*
X4127500Y-13366750D02*
X4127500Y-9950450D01*
X4222750Y-4445000D02*
X7811770Y-4445000D01*
X13620750Y-9855200D02*
G75*
G02*
X13716000Y-9950450I0J-95250D01*
G01*
X13716000Y-7727950D02*
G75*
G02*
X13620750Y-7823200I-95250J0D01*
G01*
X10031730Y-13462000D02*
G75*
G02*
X9936480Y-13366750I0J95250D01*
G01*
X13525500Y-9759950D02*
X13525500Y-7918450D01*
X7811770Y-4445000D02*
G75*
G02*
X7907020Y-4540250I0J-95250D01*
G01*
X8002270Y-4635500D02*
G75*
G02*
X7907020Y-4540250I0J95250D01*
G01*
X10031730Y-4445000D02*
X13620750Y-4445000D01*
X13525500Y-7918450D02*
G75*
G02*
X13620750Y-7823200I95250J0D01*
G01*
X13716000Y-13366750D02*
G75*
G02*
X13620750Y-13462000I-95250J0D01*
G01*
X10031730Y-13462000D02*
X13620750Y-13462000D01*
X8002270Y-13271500D02*
X9841230Y-13271500D01*
X4127500Y-7727950D02*
X4127500Y-4540250D01*
X13620750Y-4445000D02*
G75*
G02*
X13716000Y-4540250I0J-95250D01*
G01*
X4222750Y-7823200D02*
G75*
G02*
X4127500Y-7727950I0J95250D01*
G01*
D11*
X4383277Y-13778484D02*
X4383277Y-13578484D01*
X4383277Y-13578484D02*
X4430896Y-13578484D01*
X4430896Y-13578484D02*
X4459467Y-13588008D01*
X4459467Y-13588008D02*
X4478515Y-13607055D01*
X4478515Y-13607055D02*
X4488039Y-13626103D01*
X4488039Y-13626103D02*
X4497562Y-13664198D01*
X4497562Y-13664198D02*
X4497562Y-13692769D01*
X4497562Y-13692769D02*
X4488039Y-13730865D01*
X4488039Y-13730865D02*
X4478515Y-13749912D01*
X4478515Y-13749912D02*
X4459467Y-13768960D01*
X4459467Y-13768960D02*
X4430896Y-13778484D01*
X4430896Y-13778484D02*
X4383277Y-13778484D01*
X4583277Y-13778484D02*
X4583277Y-13645150D01*
X4583277Y-13683246D02*
X4592801Y-13664198D01*
X4592801Y-13664198D02*
X4602324Y-13654674D01*
X4602324Y-13654674D02*
X4621372Y-13645150D01*
X4621372Y-13645150D02*
X4640420Y-13645150D01*
X4707086Y-13778484D02*
X4707086Y-13645150D01*
X4707086Y-13578484D02*
X4697562Y-13588008D01*
X4697562Y-13588008D02*
X4707086Y-13597531D01*
X4707086Y-13597531D02*
X4716610Y-13588008D01*
X4716610Y-13588008D02*
X4707086Y-13578484D01*
X4707086Y-13578484D02*
X4707086Y-13597531D01*
X4830896Y-13778484D02*
X4811848Y-13768960D01*
X4811848Y-13768960D02*
X4802324Y-13749912D01*
X4802324Y-13749912D02*
X4802324Y-13578484D01*
X4935658Y-13778484D02*
X4916610Y-13768960D01*
X4916610Y-13768960D02*
X4907086Y-13749912D01*
X4907086Y-13749912D02*
X4907086Y-13578484D01*
X5164229Y-13778484D02*
X5164229Y-13578484D01*
X5164229Y-13578484D02*
X5230896Y-13721341D01*
X5230896Y-13721341D02*
X5297562Y-13578484D01*
X5297562Y-13578484D02*
X5297562Y-13778484D01*
X5478515Y-13778484D02*
X5478515Y-13673722D01*
X5478515Y-13673722D02*
X5468991Y-13654674D01*
X5468991Y-13654674D02*
X5449943Y-13645150D01*
X5449943Y-13645150D02*
X5411848Y-13645150D01*
X5411848Y-13645150D02*
X5392801Y-13654674D01*
X5478515Y-13768960D02*
X5459467Y-13778484D01*
X5459467Y-13778484D02*
X5411848Y-13778484D01*
X5411848Y-13778484D02*
X5392801Y-13768960D01*
X5392801Y-13768960D02*
X5383277Y-13749912D01*
X5383277Y-13749912D02*
X5383277Y-13730865D01*
X5383277Y-13730865D02*
X5392801Y-13711817D01*
X5392801Y-13711817D02*
X5411848Y-13702293D01*
X5411848Y-13702293D02*
X5459467Y-13702293D01*
X5459467Y-13702293D02*
X5478515Y-13692769D01*
X5573753Y-13645150D02*
X5573753Y-13845150D01*
X5573753Y-13654674D02*
X5592800Y-13645150D01*
X5592800Y-13645150D02*
X5630896Y-13645150D01*
X5630896Y-13645150D02*
X5649943Y-13654674D01*
X5649943Y-13654674D02*
X5659467Y-13664198D01*
X5659467Y-13664198D02*
X5668991Y-13683246D01*
X5668991Y-13683246D02*
X5668991Y-13740388D01*
X5668991Y-13740388D02*
X5659467Y-13759436D01*
X5659467Y-13759436D02*
X5649943Y-13768960D01*
X5649943Y-13768960D02*
X5630896Y-13778484D01*
X5630896Y-13778484D02*
X5592800Y-13778484D01*
X5592800Y-13778484D02*
X5573753Y-13768960D01*
X5754705Y-13759436D02*
X5764229Y-13768960D01*
X5764229Y-13768960D02*
X5754705Y-13778484D01*
X5754705Y-13778484D02*
X5745181Y-13768960D01*
X5745181Y-13768960D02*
X5754705Y-13759436D01*
X5754705Y-13759436D02*
X5754705Y-13778484D01*
X5754705Y-13654674D02*
X5764229Y-13664198D01*
X5764229Y-13664198D02*
X5754705Y-13673722D01*
X5754705Y-13673722D02*
X5745181Y-13664198D01*
X5745181Y-13664198D02*
X5754705Y-13654674D01*
X5754705Y-13654674D02*
X5754705Y-13673722D01*
M02*
