%TF.GenerationSoftware,KiCad,Pcbnew,9.0.1*%
%TF.CreationDate,2025-04-05T00:11:23+02:00*%
%TF.ProjectId,DistributedPulseModulation,44697374-7269-4627-9574-656450756c73,rev?*%
%TF.SameCoordinates,Original*%
%TF.FileFunction,Drillmap*%
%TF.FilePolarity,Positive*%
%FSLAX45Y45*%
G04 Gerber Fmt 4.5, Leading zero omitted, Abs format (unit mm)*
G04 Created by KiCad (PCBNEW 9.0.1) date 2025-04-05 00:11:23*
%MOMM*%
%LPD*%
G01*
G04 APERTURE LIST*
%ADD10C,0.100000*%
%ADD11C,0.200000*%
%ADD12C,0.320000*%
G04 APERTURE END LIST*
D10*
X4318000Y-9759950D02*
X4318000Y-7918450D01*
X7907020Y-13366750D02*
G75*
G02*
X8002270Y-13271500I95250J0D01*
G01*
X9936480Y-4540250D02*
G75*
G02*
X10031730Y-4445000I95250J0D01*
G01*
X4222750Y-13462000D02*
G75*
G02*
X4127500Y-13366750I0J95250D01*
G01*
X4318000Y-9759950D02*
G75*
G02*
X4222750Y-9855200I-95250J0D01*
G01*
X4127500Y-4540250D02*
G75*
G02*
X4222750Y-4445000I95250J0D01*
G01*
X4127500Y-9950450D02*
G75*
G02*
X4222750Y-9855200I95250J0D01*
G01*
X4222750Y-7823200D02*
G75*
G02*
X4318000Y-7918450I0J-95250D01*
G01*
X9936480Y-4540250D02*
G75*
G02*
X9841230Y-4635500I-95250J0D01*
G01*
X8002270Y-4635500D02*
X9841230Y-4635500D01*
X13620750Y-9855200D02*
G75*
G02*
X13525500Y-9759950I0J95250D01*
G01*
X13716000Y-7727950D02*
X13716000Y-4540250D01*
X9841230Y-13271500D02*
G75*
G02*
X9936480Y-13366750I0J-95250D01*
G01*
X13716000Y-13366750D02*
X13716000Y-9950450D01*
X7907020Y-13366750D02*
G75*
G02*
X7811770Y-13462000I-95250J0D01*
G01*
X4222750Y-13462000D02*
X7811770Y-13462000D01*
X4127500Y-13366750D02*
X4127500Y-9950450D01*
X4222750Y-4445000D02*
X7811770Y-4445000D01*
X13620750Y-9855200D02*
G75*
G02*
X13716000Y-9950450I0J-95250D01*
G01*
X13716000Y-7727950D02*
G75*
G02*
X13620750Y-7823200I-95250J0D01*
G01*
X10031730Y-13462000D02*
G75*
G02*
X9936480Y-13366750I0J95250D01*
G01*
X13525500Y-9759950D02*
X13525500Y-7918450D01*
X7811770Y-4445000D02*
G75*
G02*
X7907020Y-4540250I0J-95250D01*
G01*
X8002270Y-4635500D02*
G75*
G02*
X7907020Y-4540250I0J95250D01*
G01*
X10031730Y-4445000D02*
X13620750Y-4445000D01*
X13525500Y-7918450D02*
G75*
G02*
X13620750Y-7823200I95250J0D01*
G01*
X13716000Y-13366750D02*
G75*
G02*
X13620750Y-13462000I-95250J0D01*
G01*
X10031730Y-13462000D02*
X13620750Y-13462000D01*
X8002270Y-13271500D02*
X9841230Y-13271500D01*
X4127500Y-7727950D02*
X4127500Y-4540250D01*
X13620750Y-4445000D02*
G75*
G02*
X13716000Y-4540250I0J-95250D01*
G01*
X4222750Y-7823200D02*
G75*
G02*
X4127500Y-7727950I0J95250D01*
G01*
D11*
D10*
X4370500Y-5182000D02*
X4420500Y-5232000D01*
X4420500Y-5182000D02*
X4370500Y-5232000D01*
X4370500Y-12548000D02*
X4420500Y-12598000D01*
X4420500Y-12548000D02*
X4370500Y-12598000D01*
X4440794Y-5012294D02*
X4490794Y-5062294D01*
X4490794Y-5012294D02*
X4440794Y-5062294D01*
X4440794Y-5351706D02*
X4490794Y-5401706D01*
X4490794Y-5351706D02*
X4440794Y-5401706D01*
X4440794Y-12378294D02*
X4490794Y-12428294D01*
X4490794Y-12378294D02*
X4440794Y-12428294D01*
X4440794Y-12717706D02*
X4490794Y-12767706D01*
X4490794Y-12717706D02*
X4440794Y-12767706D01*
X4610500Y-4942000D02*
X4660500Y-4992000D01*
X4660500Y-4942000D02*
X4610500Y-4992000D01*
X4610500Y-5422000D02*
X4660500Y-5472000D01*
X4660500Y-5422000D02*
X4610500Y-5472000D01*
X4610500Y-12308000D02*
X4660500Y-12358000D01*
X4660500Y-12308000D02*
X4610500Y-12358000D01*
X4610500Y-12788000D02*
X4660500Y-12838000D01*
X4660500Y-12788000D02*
X4610500Y-12838000D01*
X4780206Y-5012294D02*
X4830206Y-5062294D01*
X4830206Y-5012294D02*
X4780206Y-5062294D01*
X4780206Y-5351706D02*
X4830206Y-5401706D01*
X4830206Y-5351706D02*
X4780206Y-5401706D01*
X4780206Y-12378294D02*
X4830206Y-12428294D01*
X4830206Y-12378294D02*
X4780206Y-12428294D01*
X4780206Y-12717706D02*
X4830206Y-12767706D01*
X4830206Y-12717706D02*
X4780206Y-12767706D01*
X4850500Y-5182000D02*
X4900500Y-5232000D01*
X4900500Y-5182000D02*
X4850500Y-5232000D01*
X4850500Y-12548000D02*
X4900500Y-12598000D01*
X4900500Y-12548000D02*
X4850500Y-12598000D01*
X12943000Y-4928000D02*
X12993000Y-4978000D01*
X12993000Y-4928000D02*
X12943000Y-4978000D01*
X12943000Y-12929000D02*
X12993000Y-12979000D01*
X12993000Y-12929000D02*
X12943000Y-12979000D01*
X13013294Y-4758294D02*
X13063294Y-4808294D01*
X13063294Y-4758294D02*
X13013294Y-4808294D01*
X13013294Y-5097706D02*
X13063294Y-5147706D01*
X13063294Y-5097706D02*
X13013294Y-5147706D01*
X13013294Y-12759294D02*
X13063294Y-12809294D01*
X13063294Y-12759294D02*
X13013294Y-12809294D01*
X13013294Y-13098706D02*
X13063294Y-13148706D01*
X13063294Y-13098706D02*
X13013294Y-13148706D01*
X13183000Y-4688000D02*
X13233000Y-4738000D01*
X13233000Y-4688000D02*
X13183000Y-4738000D01*
X13183000Y-5168000D02*
X13233000Y-5218000D01*
X13233000Y-5168000D02*
X13183000Y-5218000D01*
X13183000Y-12689000D02*
X13233000Y-12739000D01*
X13233000Y-12689000D02*
X13183000Y-12739000D01*
X13183000Y-13169000D02*
X13233000Y-13219000D01*
X13233000Y-13169000D02*
X13183000Y-13219000D01*
X13352706Y-4758294D02*
X13402706Y-4808294D01*
X13402706Y-4758294D02*
X13352706Y-4808294D01*
X13352706Y-5097706D02*
X13402706Y-5147706D01*
X13402706Y-5097706D02*
X13352706Y-5147706D01*
X13352706Y-12759294D02*
X13402706Y-12809294D01*
X13402706Y-12759294D02*
X13352706Y-12809294D01*
X13352706Y-13098706D02*
X13402706Y-13148706D01*
X13402706Y-13098706D02*
X13352706Y-13148706D01*
X13423000Y-4928000D02*
X13473000Y-4978000D01*
X13473000Y-4928000D02*
X13423000Y-4978000D01*
X13423000Y-12929000D02*
X13473000Y-12979000D01*
X13473000Y-12929000D02*
X13423000Y-12979000D01*
X5310500Y-5334000D02*
G75*
G02*
X5230500Y-5334000I-40000J0D01*
G01*
X5230500Y-5334000D02*
G75*
G02*
X5310500Y-5334000I40000J0D01*
G01*
X5310500Y-5588000D02*
G75*
G02*
X5230500Y-5588000I-40000J0D01*
G01*
X5230500Y-5588000D02*
G75*
G02*
X5310500Y-5588000I40000J0D01*
G01*
X5310500Y-5842000D02*
G75*
G02*
X5230500Y-5842000I-40000J0D01*
G01*
X5230500Y-5842000D02*
G75*
G02*
X5310500Y-5842000I40000J0D01*
G01*
X5310500Y-6096000D02*
G75*
G02*
X5230500Y-6096000I-40000J0D01*
G01*
X5230500Y-6096000D02*
G75*
G02*
X5310500Y-6096000I40000J0D01*
G01*
X5310500Y-6350000D02*
G75*
G02*
X5230500Y-6350000I-40000J0D01*
G01*
X5230500Y-6350000D02*
G75*
G02*
X5310500Y-6350000I40000J0D01*
G01*
X5310500Y-6604000D02*
G75*
G02*
X5230500Y-6604000I-40000J0D01*
G01*
X5230500Y-6604000D02*
G75*
G02*
X5310500Y-6604000I40000J0D01*
G01*
X5310500Y-6858000D02*
G75*
G02*
X5230500Y-6858000I-40000J0D01*
G01*
X5230500Y-6858000D02*
G75*
G02*
X5310500Y-6858000I40000J0D01*
G01*
X5310500Y-7112000D02*
G75*
G02*
X5230500Y-7112000I-40000J0D01*
G01*
X5230500Y-7112000D02*
G75*
G02*
X5310500Y-7112000I40000J0D01*
G01*
X5374000Y-9842500D02*
G75*
G02*
X5294000Y-9842500I-40000J0D01*
G01*
X5294000Y-9842500D02*
G75*
G02*
X5374000Y-9842500I40000J0D01*
G01*
X5374000Y-10223500D02*
G75*
G02*
X5294000Y-10223500I-40000J0D01*
G01*
X5294000Y-10223500D02*
G75*
G02*
X5374000Y-10223500I40000J0D01*
G01*
X5441500Y-7493000D02*
G75*
G02*
X5361500Y-7493000I-40000J0D01*
G01*
X5361500Y-7493000D02*
G75*
G02*
X5441500Y-7493000I40000J0D01*
G01*
X5941500Y-7493000D02*
G75*
G02*
X5861500Y-7493000I-40000J0D01*
G01*
X5861500Y-7493000D02*
G75*
G02*
X5941500Y-7493000I40000J0D01*
G01*
X6072500Y-5334000D02*
G75*
G02*
X5992500Y-5334000I-40000J0D01*
G01*
X5992500Y-5334000D02*
G75*
G02*
X6072500Y-5334000I40000J0D01*
G01*
X6072500Y-5588000D02*
G75*
G02*
X5992500Y-5588000I-40000J0D01*
G01*
X5992500Y-5588000D02*
G75*
G02*
X6072500Y-5588000I40000J0D01*
G01*
X6072500Y-5842000D02*
G75*
G02*
X5992500Y-5842000I-40000J0D01*
G01*
X5992500Y-5842000D02*
G75*
G02*
X6072500Y-5842000I40000J0D01*
G01*
X6072500Y-6096000D02*
G75*
G02*
X5992500Y-6096000I-40000J0D01*
G01*
X5992500Y-6096000D02*
G75*
G02*
X6072500Y-6096000I40000J0D01*
G01*
X6072500Y-6350000D02*
G75*
G02*
X5992500Y-6350000I-40000J0D01*
G01*
X5992500Y-6350000D02*
G75*
G02*
X6072500Y-6350000I40000J0D01*
G01*
X6072500Y-6604000D02*
G75*
G02*
X5992500Y-6604000I-40000J0D01*
G01*
X5992500Y-6604000D02*
G75*
G02*
X6072500Y-6604000I40000J0D01*
G01*
X6072500Y-6858000D02*
G75*
G02*
X5992500Y-6858000I-40000J0D01*
G01*
X5992500Y-6858000D02*
G75*
G02*
X6072500Y-6858000I40000J0D01*
G01*
X6072500Y-7112000D02*
G75*
G02*
X5992500Y-7112000I-40000J0D01*
G01*
X5992500Y-7112000D02*
G75*
G02*
X6072500Y-7112000I40000J0D01*
G01*
X6390000Y-9842500D02*
G75*
G02*
X6310000Y-9842500I-40000J0D01*
G01*
X6310000Y-9842500D02*
G75*
G02*
X6390000Y-9842500I40000J0D01*
G01*
X6390000Y-10223500D02*
G75*
G02*
X6310000Y-10223500I-40000J0D01*
G01*
X6310000Y-10223500D02*
G75*
G02*
X6390000Y-10223500I40000J0D01*
G01*
X6453500Y-5334000D02*
G75*
G02*
X6373500Y-5334000I-40000J0D01*
G01*
X6373500Y-5334000D02*
G75*
G02*
X6453500Y-5334000I40000J0D01*
G01*
X6453500Y-5588000D02*
G75*
G02*
X6373500Y-5588000I-40000J0D01*
G01*
X6373500Y-5588000D02*
G75*
G02*
X6453500Y-5588000I40000J0D01*
G01*
X6453500Y-5842000D02*
G75*
G02*
X6373500Y-5842000I-40000J0D01*
G01*
X6373500Y-5842000D02*
G75*
G02*
X6453500Y-5842000I40000J0D01*
G01*
X6453500Y-6096000D02*
G75*
G02*
X6373500Y-6096000I-40000J0D01*
G01*
X6373500Y-6096000D02*
G75*
G02*
X6453500Y-6096000I40000J0D01*
G01*
X6453500Y-6350000D02*
G75*
G02*
X6373500Y-6350000I-40000J0D01*
G01*
X6373500Y-6350000D02*
G75*
G02*
X6453500Y-6350000I40000J0D01*
G01*
X6453500Y-6604000D02*
G75*
G02*
X6373500Y-6604000I-40000J0D01*
G01*
X6373500Y-6604000D02*
G75*
G02*
X6453500Y-6604000I40000J0D01*
G01*
X6453500Y-6858000D02*
G75*
G02*
X6373500Y-6858000I-40000J0D01*
G01*
X6373500Y-6858000D02*
G75*
G02*
X6453500Y-6858000I40000J0D01*
G01*
X6453500Y-7112000D02*
G75*
G02*
X6373500Y-7112000I-40000J0D01*
G01*
X6373500Y-7112000D02*
G75*
G02*
X6453500Y-7112000I40000J0D01*
G01*
X6525000Y-7493000D02*
G75*
G02*
X6445000Y-7493000I-40000J0D01*
G01*
X6445000Y-7493000D02*
G75*
G02*
X6525000Y-7493000I40000J0D01*
G01*
X7025000Y-7493000D02*
G75*
G02*
X6945000Y-7493000I-40000J0D01*
G01*
X6945000Y-7493000D02*
G75*
G02*
X7025000Y-7493000I40000J0D01*
G01*
X7025000Y-7874000D02*
G75*
G02*
X6945000Y-7874000I-40000J0D01*
G01*
X6945000Y-7874000D02*
G75*
G02*
X7025000Y-7874000I40000J0D01*
G01*
X7025000Y-8128000D02*
G75*
G02*
X6945000Y-8128000I-40000J0D01*
G01*
X6945000Y-8128000D02*
G75*
G02*
X7025000Y-8128000I40000J0D01*
G01*
X7025000Y-8382000D02*
G75*
G02*
X6945000Y-8382000I-40000J0D01*
G01*
X6945000Y-8382000D02*
G75*
G02*
X7025000Y-8382000I40000J0D01*
G01*
X7025000Y-8636000D02*
G75*
G02*
X6945000Y-8636000I-40000J0D01*
G01*
X6945000Y-8636000D02*
G75*
G02*
X7025000Y-8636000I40000J0D01*
G01*
X7025000Y-8890000D02*
G75*
G02*
X6945000Y-8890000I-40000J0D01*
G01*
X6945000Y-8890000D02*
G75*
G02*
X7025000Y-8890000I40000J0D01*
G01*
X7025000Y-9144000D02*
G75*
G02*
X6945000Y-9144000I-40000J0D01*
G01*
X6945000Y-9144000D02*
G75*
G02*
X7025000Y-9144000I40000J0D01*
G01*
X7025000Y-9398000D02*
G75*
G02*
X6945000Y-9398000I-40000J0D01*
G01*
X6945000Y-9398000D02*
G75*
G02*
X7025000Y-9398000I40000J0D01*
G01*
X7025000Y-9652000D02*
G75*
G02*
X6945000Y-9652000I-40000J0D01*
G01*
X6945000Y-9652000D02*
G75*
G02*
X7025000Y-9652000I40000J0D01*
G01*
X7025000Y-9906000D02*
G75*
G02*
X6945000Y-9906000I-40000J0D01*
G01*
X6945000Y-9906000D02*
G75*
G02*
X7025000Y-9906000I40000J0D01*
G01*
X7025000Y-10160000D02*
G75*
G02*
X6945000Y-10160000I-40000J0D01*
G01*
X6945000Y-10160000D02*
G75*
G02*
X7025000Y-10160000I40000J0D01*
G01*
X7025000Y-10414000D02*
G75*
G02*
X6945000Y-10414000I-40000J0D01*
G01*
X6945000Y-10414000D02*
G75*
G02*
X7025000Y-10414000I40000J0D01*
G01*
X7025000Y-10668000D02*
G75*
G02*
X6945000Y-10668000I-40000J0D01*
G01*
X6945000Y-10668000D02*
G75*
G02*
X7025000Y-10668000I40000J0D01*
G01*
X7025000Y-10922000D02*
G75*
G02*
X6945000Y-10922000I-40000J0D01*
G01*
X6945000Y-10922000D02*
G75*
G02*
X7025000Y-10922000I40000J0D01*
G01*
X7025000Y-11176000D02*
G75*
G02*
X6945000Y-11176000I-40000J0D01*
G01*
X6945000Y-11176000D02*
G75*
G02*
X7025000Y-11176000I40000J0D01*
G01*
X7215500Y-5334000D02*
G75*
G02*
X7135500Y-5334000I-40000J0D01*
G01*
X7135500Y-5334000D02*
G75*
G02*
X7215500Y-5334000I40000J0D01*
G01*
X7215500Y-5588000D02*
G75*
G02*
X7135500Y-5588000I-40000J0D01*
G01*
X7135500Y-5588000D02*
G75*
G02*
X7215500Y-5588000I40000J0D01*
G01*
X7215500Y-5842000D02*
G75*
G02*
X7135500Y-5842000I-40000J0D01*
G01*
X7135500Y-5842000D02*
G75*
G02*
X7215500Y-5842000I40000J0D01*
G01*
X7215500Y-6096000D02*
G75*
G02*
X7135500Y-6096000I-40000J0D01*
G01*
X7135500Y-6096000D02*
G75*
G02*
X7215500Y-6096000I40000J0D01*
G01*
X7215500Y-6350000D02*
G75*
G02*
X7135500Y-6350000I-40000J0D01*
G01*
X7135500Y-6350000D02*
G75*
G02*
X7215500Y-6350000I40000J0D01*
G01*
X7215500Y-6604000D02*
G75*
G02*
X7135500Y-6604000I-40000J0D01*
G01*
X7135500Y-6604000D02*
G75*
G02*
X7215500Y-6604000I40000J0D01*
G01*
X7215500Y-6858000D02*
G75*
G02*
X7135500Y-6858000I-40000J0D01*
G01*
X7135500Y-6858000D02*
G75*
G02*
X7215500Y-6858000I40000J0D01*
G01*
X7215500Y-7112000D02*
G75*
G02*
X7135500Y-7112000I-40000J0D01*
G01*
X7135500Y-7112000D02*
G75*
G02*
X7215500Y-7112000I40000J0D01*
G01*
X7350500Y-7493000D02*
G75*
G02*
X7270500Y-7493000I-40000J0D01*
G01*
X7270500Y-7493000D02*
G75*
G02*
X7350500Y-7493000I40000J0D01*
G01*
X7596500Y-5334000D02*
G75*
G02*
X7516500Y-5334000I-40000J0D01*
G01*
X7516500Y-5334000D02*
G75*
G02*
X7596500Y-5334000I40000J0D01*
G01*
X7596500Y-5588000D02*
G75*
G02*
X7516500Y-5588000I-40000J0D01*
G01*
X7516500Y-5588000D02*
G75*
G02*
X7596500Y-5588000I40000J0D01*
G01*
X7596500Y-5842000D02*
G75*
G02*
X7516500Y-5842000I-40000J0D01*
G01*
X7516500Y-5842000D02*
G75*
G02*
X7596500Y-5842000I40000J0D01*
G01*
X7596500Y-6096000D02*
G75*
G02*
X7516500Y-6096000I-40000J0D01*
G01*
X7516500Y-6096000D02*
G75*
G02*
X7596500Y-6096000I40000J0D01*
G01*
X7596500Y-6350000D02*
G75*
G02*
X7516500Y-6350000I-40000J0D01*
G01*
X7516500Y-6350000D02*
G75*
G02*
X7596500Y-6350000I40000J0D01*
G01*
X7596500Y-6604000D02*
G75*
G02*
X7516500Y-6604000I-40000J0D01*
G01*
X7516500Y-6604000D02*
G75*
G02*
X7596500Y-6604000I40000J0D01*
G01*
X7596500Y-6858000D02*
G75*
G02*
X7516500Y-6858000I-40000J0D01*
G01*
X7516500Y-6858000D02*
G75*
G02*
X7596500Y-6858000I40000J0D01*
G01*
X7596500Y-7112000D02*
G75*
G02*
X7516500Y-7112000I-40000J0D01*
G01*
X7516500Y-7112000D02*
G75*
G02*
X7596500Y-7112000I40000J0D01*
G01*
X7787000Y-7874000D02*
G75*
G02*
X7707000Y-7874000I-40000J0D01*
G01*
X7707000Y-7874000D02*
G75*
G02*
X7787000Y-7874000I40000J0D01*
G01*
X7787000Y-8128000D02*
G75*
G02*
X7707000Y-8128000I-40000J0D01*
G01*
X7707000Y-8128000D02*
G75*
G02*
X7787000Y-8128000I40000J0D01*
G01*
X7787000Y-8382000D02*
G75*
G02*
X7707000Y-8382000I-40000J0D01*
G01*
X7707000Y-8382000D02*
G75*
G02*
X7787000Y-8382000I40000J0D01*
G01*
X7787000Y-8636000D02*
G75*
G02*
X7707000Y-8636000I-40000J0D01*
G01*
X7707000Y-8636000D02*
G75*
G02*
X7787000Y-8636000I40000J0D01*
G01*
X7787000Y-8890000D02*
G75*
G02*
X7707000Y-8890000I-40000J0D01*
G01*
X7707000Y-8890000D02*
G75*
G02*
X7787000Y-8890000I40000J0D01*
G01*
X7787000Y-9144000D02*
G75*
G02*
X7707000Y-9144000I-40000J0D01*
G01*
X7707000Y-9144000D02*
G75*
G02*
X7787000Y-9144000I40000J0D01*
G01*
X7787000Y-9398000D02*
G75*
G02*
X7707000Y-9398000I-40000J0D01*
G01*
X7707000Y-9398000D02*
G75*
G02*
X7787000Y-9398000I40000J0D01*
G01*
X7787000Y-9652000D02*
G75*
G02*
X7707000Y-9652000I-40000J0D01*
G01*
X7707000Y-9652000D02*
G75*
G02*
X7787000Y-9652000I40000J0D01*
G01*
X7787000Y-9906000D02*
G75*
G02*
X7707000Y-9906000I-40000J0D01*
G01*
X7707000Y-9906000D02*
G75*
G02*
X7787000Y-9906000I40000J0D01*
G01*
X7787000Y-10160000D02*
G75*
G02*
X7707000Y-10160000I-40000J0D01*
G01*
X7707000Y-10160000D02*
G75*
G02*
X7787000Y-10160000I40000J0D01*
G01*
X7787000Y-10414000D02*
G75*
G02*
X7707000Y-10414000I-40000J0D01*
G01*
X7707000Y-10414000D02*
G75*
G02*
X7787000Y-10414000I40000J0D01*
G01*
X7787000Y-10668000D02*
G75*
G02*
X7707000Y-10668000I-40000J0D01*
G01*
X7707000Y-10668000D02*
G75*
G02*
X7787000Y-10668000I40000J0D01*
G01*
X7787000Y-10922000D02*
G75*
G02*
X7707000Y-10922000I-40000J0D01*
G01*
X7707000Y-10922000D02*
G75*
G02*
X7787000Y-10922000I40000J0D01*
G01*
X7787000Y-11176000D02*
G75*
G02*
X7707000Y-11176000I-40000J0D01*
G01*
X7707000Y-11176000D02*
G75*
G02*
X7787000Y-11176000I40000J0D01*
G01*
X7850500Y-7493000D02*
G75*
G02*
X7770500Y-7493000I-40000J0D01*
G01*
X7770500Y-7493000D02*
G75*
G02*
X7850500Y-7493000I40000J0D01*
G01*
X8104500Y-8763000D02*
G75*
G02*
X8024500Y-8763000I-40000J0D01*
G01*
X8024500Y-8763000D02*
G75*
G02*
X8104500Y-8763000I40000J0D01*
G01*
X8104500Y-9263000D02*
G75*
G02*
X8024500Y-9263000I-40000J0D01*
G01*
X8024500Y-9263000D02*
G75*
G02*
X8104500Y-9263000I40000J0D01*
G01*
X8358500Y-5334000D02*
G75*
G02*
X8278500Y-5334000I-40000J0D01*
G01*
X8278500Y-5334000D02*
G75*
G02*
X8358500Y-5334000I40000J0D01*
G01*
X8358500Y-5588000D02*
G75*
G02*
X8278500Y-5588000I-40000J0D01*
G01*
X8278500Y-5588000D02*
G75*
G02*
X8358500Y-5588000I40000J0D01*
G01*
X8358500Y-5842000D02*
G75*
G02*
X8278500Y-5842000I-40000J0D01*
G01*
X8278500Y-5842000D02*
G75*
G02*
X8358500Y-5842000I40000J0D01*
G01*
X8358500Y-6096000D02*
G75*
G02*
X8278500Y-6096000I-40000J0D01*
G01*
X8278500Y-6096000D02*
G75*
G02*
X8358500Y-6096000I40000J0D01*
G01*
X8358500Y-6350000D02*
G75*
G02*
X8278500Y-6350000I-40000J0D01*
G01*
X8278500Y-6350000D02*
G75*
G02*
X8358500Y-6350000I40000J0D01*
G01*
X8358500Y-6604000D02*
G75*
G02*
X8278500Y-6604000I-40000J0D01*
G01*
X8278500Y-6604000D02*
G75*
G02*
X8358500Y-6604000I40000J0D01*
G01*
X8358500Y-6858000D02*
G75*
G02*
X8278500Y-6858000I-40000J0D01*
G01*
X8278500Y-6858000D02*
G75*
G02*
X8358500Y-6858000I40000J0D01*
G01*
X8358500Y-7112000D02*
G75*
G02*
X8278500Y-7112000I-40000J0D01*
G01*
X8278500Y-7112000D02*
G75*
G02*
X8358500Y-7112000I40000J0D01*
G01*
X9819000Y-9211500D02*
G75*
G02*
X9739000Y-9211500I-40000J0D01*
G01*
X9739000Y-9211500D02*
G75*
G02*
X9819000Y-9211500I40000J0D01*
G01*
X9819000Y-9711500D02*
G75*
G02*
X9739000Y-9711500I-40000J0D01*
G01*
X9739000Y-9711500D02*
G75*
G02*
X9819000Y-9711500I40000J0D01*
G01*
X9882500Y-6286500D02*
G75*
G02*
X9802500Y-6286500I-40000J0D01*
G01*
X9802500Y-6286500D02*
G75*
G02*
X9882500Y-6286500I40000J0D01*
G01*
X9882500Y-6786500D02*
G75*
G02*
X9802500Y-6786500I-40000J0D01*
G01*
X9802500Y-6786500D02*
G75*
G02*
X9882500Y-6786500I40000J0D01*
G01*
X10200000Y-5080000D02*
G75*
G02*
X10120000Y-5080000I-40000J0D01*
G01*
X10120000Y-5080000D02*
G75*
G02*
X10200000Y-5080000I40000J0D01*
G01*
X10200000Y-5334000D02*
G75*
G02*
X10120000Y-5334000I-40000J0D01*
G01*
X10120000Y-5334000D02*
G75*
G02*
X10200000Y-5334000I40000J0D01*
G01*
X10200000Y-5588000D02*
G75*
G02*
X10120000Y-5588000I-40000J0D01*
G01*
X10120000Y-5588000D02*
G75*
G02*
X10200000Y-5588000I40000J0D01*
G01*
X10200000Y-5842000D02*
G75*
G02*
X10120000Y-5842000I-40000J0D01*
G01*
X10120000Y-5842000D02*
G75*
G02*
X10200000Y-5842000I40000J0D01*
G01*
X10200000Y-6096000D02*
G75*
G02*
X10120000Y-6096000I-40000J0D01*
G01*
X10120000Y-6096000D02*
G75*
G02*
X10200000Y-6096000I40000J0D01*
G01*
X10200000Y-6350000D02*
G75*
G02*
X10120000Y-6350000I-40000J0D01*
G01*
X10120000Y-6350000D02*
G75*
G02*
X10200000Y-6350000I40000J0D01*
G01*
X10200000Y-6604000D02*
G75*
G02*
X10120000Y-6604000I-40000J0D01*
G01*
X10120000Y-6604000D02*
G75*
G02*
X10200000Y-6604000I40000J0D01*
G01*
X10200000Y-6858000D02*
G75*
G02*
X10120000Y-6858000I-40000J0D01*
G01*
X10120000Y-6858000D02*
G75*
G02*
X10200000Y-6858000I40000J0D01*
G01*
X10200000Y-7366000D02*
G75*
G02*
X10120000Y-7366000I-40000J0D01*
G01*
X10120000Y-7366000D02*
G75*
G02*
X10200000Y-7366000I40000J0D01*
G01*
X10200000Y-7620000D02*
G75*
G02*
X10120000Y-7620000I-40000J0D01*
G01*
X10120000Y-7620000D02*
G75*
G02*
X10200000Y-7620000I40000J0D01*
G01*
X10200000Y-7874000D02*
G75*
G02*
X10120000Y-7874000I-40000J0D01*
G01*
X10120000Y-7874000D02*
G75*
G02*
X10200000Y-7874000I40000J0D01*
G01*
X10200000Y-8128000D02*
G75*
G02*
X10120000Y-8128000I-40000J0D01*
G01*
X10120000Y-8128000D02*
G75*
G02*
X10200000Y-8128000I40000J0D01*
G01*
X10200000Y-8382000D02*
G75*
G02*
X10120000Y-8382000I-40000J0D01*
G01*
X10120000Y-8382000D02*
G75*
G02*
X10200000Y-8382000I40000J0D01*
G01*
X10200000Y-8636000D02*
G75*
G02*
X10120000Y-8636000I-40000J0D01*
G01*
X10120000Y-8636000D02*
G75*
G02*
X10200000Y-8636000I40000J0D01*
G01*
X10200000Y-8890000D02*
G75*
G02*
X10120000Y-8890000I-40000J0D01*
G01*
X10120000Y-8890000D02*
G75*
G02*
X10200000Y-8890000I40000J0D01*
G01*
X10200000Y-9144000D02*
G75*
G02*
X10120000Y-9144000I-40000J0D01*
G01*
X10120000Y-9144000D02*
G75*
G02*
X10200000Y-9144000I40000J0D01*
G01*
X10200000Y-9652000D02*
G75*
G02*
X10120000Y-9652000I-40000J0D01*
G01*
X10120000Y-9652000D02*
G75*
G02*
X10200000Y-9652000I40000J0D01*
G01*
X10200000Y-9906000D02*
G75*
G02*
X10120000Y-9906000I-40000J0D01*
G01*
X10120000Y-9906000D02*
G75*
G02*
X10200000Y-9906000I40000J0D01*
G01*
X10200000Y-10160000D02*
G75*
G02*
X10120000Y-10160000I-40000J0D01*
G01*
X10120000Y-10160000D02*
G75*
G02*
X10200000Y-10160000I40000J0D01*
G01*
X10200000Y-10414000D02*
G75*
G02*
X10120000Y-10414000I-40000J0D01*
G01*
X10120000Y-10414000D02*
G75*
G02*
X10200000Y-10414000I40000J0D01*
G01*
X10200000Y-10668000D02*
G75*
G02*
X10120000Y-10668000I-40000J0D01*
G01*
X10120000Y-10668000D02*
G75*
G02*
X10200000Y-10668000I40000J0D01*
G01*
X10200000Y-10922000D02*
G75*
G02*
X10120000Y-10922000I-40000J0D01*
G01*
X10120000Y-10922000D02*
G75*
G02*
X10200000Y-10922000I40000J0D01*
G01*
X10200000Y-11176000D02*
G75*
G02*
X10120000Y-11176000I-40000J0D01*
G01*
X10120000Y-11176000D02*
G75*
G02*
X10200000Y-11176000I40000J0D01*
G01*
X10200000Y-11430000D02*
G75*
G02*
X10120000Y-11430000I-40000J0D01*
G01*
X10120000Y-11430000D02*
G75*
G02*
X10200000Y-11430000I40000J0D01*
G01*
X10200000Y-11874500D02*
G75*
G02*
X10120000Y-11874500I-40000J0D01*
G01*
X10120000Y-11874500D02*
G75*
G02*
X10200000Y-11874500I40000J0D01*
G01*
X10200000Y-12374500D02*
G75*
G02*
X10120000Y-12374500I-40000J0D01*
G01*
X10120000Y-12374500D02*
G75*
G02*
X10200000Y-12374500I40000J0D01*
G01*
X10708000Y-11938000D02*
G75*
G02*
X10628000Y-11938000I-40000J0D01*
G01*
X10628000Y-11938000D02*
G75*
G02*
X10708000Y-11938000I40000J0D01*
G01*
X10708000Y-12700000D02*
G75*
G02*
X10628000Y-12700000I-40000J0D01*
G01*
X10628000Y-12700000D02*
G75*
G02*
X10708000Y-12700000I40000J0D01*
G01*
X10962000Y-5080000D02*
G75*
G02*
X10882000Y-5080000I-40000J0D01*
G01*
X10882000Y-5080000D02*
G75*
G02*
X10962000Y-5080000I40000J0D01*
G01*
X10962000Y-5334000D02*
G75*
G02*
X10882000Y-5334000I-40000J0D01*
G01*
X10882000Y-5334000D02*
G75*
G02*
X10962000Y-5334000I40000J0D01*
G01*
X10962000Y-5588000D02*
G75*
G02*
X10882000Y-5588000I-40000J0D01*
G01*
X10882000Y-5588000D02*
G75*
G02*
X10962000Y-5588000I40000J0D01*
G01*
X10962000Y-5842000D02*
G75*
G02*
X10882000Y-5842000I-40000J0D01*
G01*
X10882000Y-5842000D02*
G75*
G02*
X10962000Y-5842000I40000J0D01*
G01*
X10962000Y-6096000D02*
G75*
G02*
X10882000Y-6096000I-40000J0D01*
G01*
X10882000Y-6096000D02*
G75*
G02*
X10962000Y-6096000I40000J0D01*
G01*
X10962000Y-6350000D02*
G75*
G02*
X10882000Y-6350000I-40000J0D01*
G01*
X10882000Y-6350000D02*
G75*
G02*
X10962000Y-6350000I40000J0D01*
G01*
X10962000Y-6604000D02*
G75*
G02*
X10882000Y-6604000I-40000J0D01*
G01*
X10882000Y-6604000D02*
G75*
G02*
X10962000Y-6604000I40000J0D01*
G01*
X10962000Y-6858000D02*
G75*
G02*
X10882000Y-6858000I-40000J0D01*
G01*
X10882000Y-6858000D02*
G75*
G02*
X10962000Y-6858000I40000J0D01*
G01*
X10962000Y-7366000D02*
G75*
G02*
X10882000Y-7366000I-40000J0D01*
G01*
X10882000Y-7366000D02*
G75*
G02*
X10962000Y-7366000I40000J0D01*
G01*
X10962000Y-7620000D02*
G75*
G02*
X10882000Y-7620000I-40000J0D01*
G01*
X10882000Y-7620000D02*
G75*
G02*
X10962000Y-7620000I40000J0D01*
G01*
X10962000Y-7874000D02*
G75*
G02*
X10882000Y-7874000I-40000J0D01*
G01*
X10882000Y-7874000D02*
G75*
G02*
X10962000Y-7874000I40000J0D01*
G01*
X10962000Y-8128000D02*
G75*
G02*
X10882000Y-8128000I-40000J0D01*
G01*
X10882000Y-8128000D02*
G75*
G02*
X10962000Y-8128000I40000J0D01*
G01*
X10962000Y-8382000D02*
G75*
G02*
X10882000Y-8382000I-40000J0D01*
G01*
X10882000Y-8382000D02*
G75*
G02*
X10962000Y-8382000I40000J0D01*
G01*
X10962000Y-8636000D02*
G75*
G02*
X10882000Y-8636000I-40000J0D01*
G01*
X10882000Y-8636000D02*
G75*
G02*
X10962000Y-8636000I40000J0D01*
G01*
X10962000Y-8890000D02*
G75*
G02*
X10882000Y-8890000I-40000J0D01*
G01*
X10882000Y-8890000D02*
G75*
G02*
X10962000Y-8890000I40000J0D01*
G01*
X10962000Y-9144000D02*
G75*
G02*
X10882000Y-9144000I-40000J0D01*
G01*
X10882000Y-9144000D02*
G75*
G02*
X10962000Y-9144000I40000J0D01*
G01*
X10962000Y-9652000D02*
G75*
G02*
X10882000Y-9652000I-40000J0D01*
G01*
X10882000Y-9652000D02*
G75*
G02*
X10962000Y-9652000I40000J0D01*
G01*
X10962000Y-9906000D02*
G75*
G02*
X10882000Y-9906000I-40000J0D01*
G01*
X10882000Y-9906000D02*
G75*
G02*
X10962000Y-9906000I40000J0D01*
G01*
X10962000Y-10160000D02*
G75*
G02*
X10882000Y-10160000I-40000J0D01*
G01*
X10882000Y-10160000D02*
G75*
G02*
X10962000Y-10160000I40000J0D01*
G01*
X10962000Y-10414000D02*
G75*
G02*
X10882000Y-10414000I-40000J0D01*
G01*
X10882000Y-10414000D02*
G75*
G02*
X10962000Y-10414000I40000J0D01*
G01*
X10962000Y-10668000D02*
G75*
G02*
X10882000Y-10668000I-40000J0D01*
G01*
X10882000Y-10668000D02*
G75*
G02*
X10962000Y-10668000I40000J0D01*
G01*
X10962000Y-10922000D02*
G75*
G02*
X10882000Y-10922000I-40000J0D01*
G01*
X10882000Y-10922000D02*
G75*
G02*
X10962000Y-10922000I40000J0D01*
G01*
X10962000Y-11176000D02*
G75*
G02*
X10882000Y-11176000I-40000J0D01*
G01*
X10882000Y-11176000D02*
G75*
G02*
X10962000Y-11176000I40000J0D01*
G01*
X10962000Y-11430000D02*
G75*
G02*
X10882000Y-11430000I-40000J0D01*
G01*
X10882000Y-11430000D02*
G75*
G02*
X10962000Y-11430000I40000J0D01*
G01*
X10962000Y-11938000D02*
G75*
G02*
X10882000Y-11938000I-40000J0D01*
G01*
X10882000Y-11938000D02*
G75*
G02*
X10962000Y-11938000I40000J0D01*
G01*
X10962000Y-12700000D02*
G75*
G02*
X10882000Y-12700000I-40000J0D01*
G01*
X10882000Y-12700000D02*
G75*
G02*
X10962000Y-12700000I40000J0D01*
G01*
X11216000Y-11938000D02*
G75*
G02*
X11136000Y-11938000I-40000J0D01*
G01*
X11136000Y-11938000D02*
G75*
G02*
X11216000Y-11938000I40000J0D01*
G01*
X11216000Y-12700000D02*
G75*
G02*
X11136000Y-12700000I-40000J0D01*
G01*
X11136000Y-12700000D02*
G75*
G02*
X11216000Y-12700000I40000J0D01*
G01*
X11470000Y-11938000D02*
G75*
G02*
X11390000Y-11938000I-40000J0D01*
G01*
X11390000Y-11938000D02*
G75*
G02*
X11470000Y-11938000I40000J0D01*
G01*
X11470000Y-12700000D02*
G75*
G02*
X11390000Y-12700000I-40000J0D01*
G01*
X11390000Y-12700000D02*
G75*
G02*
X11470000Y-12700000I40000J0D01*
G01*
X11724000Y-5080000D02*
G75*
G02*
X11644000Y-5080000I-40000J0D01*
G01*
X11644000Y-5080000D02*
G75*
G02*
X11724000Y-5080000I40000J0D01*
G01*
X11724000Y-5334000D02*
G75*
G02*
X11644000Y-5334000I-40000J0D01*
G01*
X11644000Y-5334000D02*
G75*
G02*
X11724000Y-5334000I40000J0D01*
G01*
X11724000Y-5588000D02*
G75*
G02*
X11644000Y-5588000I-40000J0D01*
G01*
X11644000Y-5588000D02*
G75*
G02*
X11724000Y-5588000I40000J0D01*
G01*
X11724000Y-5842000D02*
G75*
G02*
X11644000Y-5842000I-40000J0D01*
G01*
X11644000Y-5842000D02*
G75*
G02*
X11724000Y-5842000I40000J0D01*
G01*
X11724000Y-6096000D02*
G75*
G02*
X11644000Y-6096000I-40000J0D01*
G01*
X11644000Y-6096000D02*
G75*
G02*
X11724000Y-6096000I40000J0D01*
G01*
X11724000Y-6350000D02*
G75*
G02*
X11644000Y-6350000I-40000J0D01*
G01*
X11644000Y-6350000D02*
G75*
G02*
X11724000Y-6350000I40000J0D01*
G01*
X11724000Y-6604000D02*
G75*
G02*
X11644000Y-6604000I-40000J0D01*
G01*
X11644000Y-6604000D02*
G75*
G02*
X11724000Y-6604000I40000J0D01*
G01*
X11724000Y-6858000D02*
G75*
G02*
X11644000Y-6858000I-40000J0D01*
G01*
X11644000Y-6858000D02*
G75*
G02*
X11724000Y-6858000I40000J0D01*
G01*
X11724000Y-7366000D02*
G75*
G02*
X11644000Y-7366000I-40000J0D01*
G01*
X11644000Y-7366000D02*
G75*
G02*
X11724000Y-7366000I40000J0D01*
G01*
X11724000Y-7620000D02*
G75*
G02*
X11644000Y-7620000I-40000J0D01*
G01*
X11644000Y-7620000D02*
G75*
G02*
X11724000Y-7620000I40000J0D01*
G01*
X11724000Y-7874000D02*
G75*
G02*
X11644000Y-7874000I-40000J0D01*
G01*
X11644000Y-7874000D02*
G75*
G02*
X11724000Y-7874000I40000J0D01*
G01*
X11724000Y-8128000D02*
G75*
G02*
X11644000Y-8128000I-40000J0D01*
G01*
X11644000Y-8128000D02*
G75*
G02*
X11724000Y-8128000I40000J0D01*
G01*
X11724000Y-8382000D02*
G75*
G02*
X11644000Y-8382000I-40000J0D01*
G01*
X11644000Y-8382000D02*
G75*
G02*
X11724000Y-8382000I40000J0D01*
G01*
X11724000Y-8636000D02*
G75*
G02*
X11644000Y-8636000I-40000J0D01*
G01*
X11644000Y-8636000D02*
G75*
G02*
X11724000Y-8636000I40000J0D01*
G01*
X11724000Y-8890000D02*
G75*
G02*
X11644000Y-8890000I-40000J0D01*
G01*
X11644000Y-8890000D02*
G75*
G02*
X11724000Y-8890000I40000J0D01*
G01*
X11724000Y-9144000D02*
G75*
G02*
X11644000Y-9144000I-40000J0D01*
G01*
X11644000Y-9144000D02*
G75*
G02*
X11724000Y-9144000I40000J0D01*
G01*
X11724000Y-9652000D02*
G75*
G02*
X11644000Y-9652000I-40000J0D01*
G01*
X11644000Y-9652000D02*
G75*
G02*
X11724000Y-9652000I40000J0D01*
G01*
X11724000Y-9906000D02*
G75*
G02*
X11644000Y-9906000I-40000J0D01*
G01*
X11644000Y-9906000D02*
G75*
G02*
X11724000Y-9906000I40000J0D01*
G01*
X11724000Y-10160000D02*
G75*
G02*
X11644000Y-10160000I-40000J0D01*
G01*
X11644000Y-10160000D02*
G75*
G02*
X11724000Y-10160000I40000J0D01*
G01*
X11724000Y-10414000D02*
G75*
G02*
X11644000Y-10414000I-40000J0D01*
G01*
X11644000Y-10414000D02*
G75*
G02*
X11724000Y-10414000I40000J0D01*
G01*
X11724000Y-10668000D02*
G75*
G02*
X11644000Y-10668000I-40000J0D01*
G01*
X11644000Y-10668000D02*
G75*
G02*
X11724000Y-10668000I40000J0D01*
G01*
X11724000Y-10922000D02*
G75*
G02*
X11644000Y-10922000I-40000J0D01*
G01*
X11644000Y-10922000D02*
G75*
G02*
X11724000Y-10922000I40000J0D01*
G01*
X11724000Y-11176000D02*
G75*
G02*
X11644000Y-11176000I-40000J0D01*
G01*
X11644000Y-11176000D02*
G75*
G02*
X11724000Y-11176000I40000J0D01*
G01*
X11724000Y-11430000D02*
G75*
G02*
X11644000Y-11430000I-40000J0D01*
G01*
X11644000Y-11430000D02*
G75*
G02*
X11724000Y-11430000I40000J0D01*
G01*
X11724000Y-11938000D02*
G75*
G02*
X11644000Y-11938000I-40000J0D01*
G01*
X11644000Y-11938000D02*
G75*
G02*
X11724000Y-11938000I40000J0D01*
G01*
X11724000Y-12700000D02*
G75*
G02*
X11644000Y-12700000I-40000J0D01*
G01*
X11644000Y-12700000D02*
G75*
G02*
X11724000Y-12700000I40000J0D01*
G01*
X11978000Y-11938000D02*
G75*
G02*
X11898000Y-11938000I-40000J0D01*
G01*
X11898000Y-11938000D02*
G75*
G02*
X11978000Y-11938000I40000J0D01*
G01*
X11978000Y-12700000D02*
G75*
G02*
X11898000Y-12700000I-40000J0D01*
G01*
X11898000Y-12700000D02*
G75*
G02*
X11978000Y-12700000I40000J0D01*
G01*
X12232000Y-11938000D02*
G75*
G02*
X12152000Y-11938000I-40000J0D01*
G01*
X12152000Y-11938000D02*
G75*
G02*
X12232000Y-11938000I40000J0D01*
G01*
X12232000Y-12700000D02*
G75*
G02*
X12152000Y-12700000I-40000J0D01*
G01*
X12152000Y-12700000D02*
G75*
G02*
X12232000Y-12700000I40000J0D01*
G01*
X12486000Y-5080000D02*
G75*
G02*
X12406000Y-5080000I-40000J0D01*
G01*
X12406000Y-5080000D02*
G75*
G02*
X12486000Y-5080000I40000J0D01*
G01*
X12486000Y-5334000D02*
G75*
G02*
X12406000Y-5334000I-40000J0D01*
G01*
X12406000Y-5334000D02*
G75*
G02*
X12486000Y-5334000I40000J0D01*
G01*
X12486000Y-5588000D02*
G75*
G02*
X12406000Y-5588000I-40000J0D01*
G01*
X12406000Y-5588000D02*
G75*
G02*
X12486000Y-5588000I40000J0D01*
G01*
X12486000Y-5842000D02*
G75*
G02*
X12406000Y-5842000I-40000J0D01*
G01*
X12406000Y-5842000D02*
G75*
G02*
X12486000Y-5842000I40000J0D01*
G01*
X12486000Y-6096000D02*
G75*
G02*
X12406000Y-6096000I-40000J0D01*
G01*
X12406000Y-6096000D02*
G75*
G02*
X12486000Y-6096000I40000J0D01*
G01*
X12486000Y-6350000D02*
G75*
G02*
X12406000Y-6350000I-40000J0D01*
G01*
X12406000Y-6350000D02*
G75*
G02*
X12486000Y-6350000I40000J0D01*
G01*
X12486000Y-6604000D02*
G75*
G02*
X12406000Y-6604000I-40000J0D01*
G01*
X12406000Y-6604000D02*
G75*
G02*
X12486000Y-6604000I40000J0D01*
G01*
X12486000Y-6858000D02*
G75*
G02*
X12406000Y-6858000I-40000J0D01*
G01*
X12406000Y-6858000D02*
G75*
G02*
X12486000Y-6858000I40000J0D01*
G01*
X12486000Y-7366000D02*
G75*
G02*
X12406000Y-7366000I-40000J0D01*
G01*
X12406000Y-7366000D02*
G75*
G02*
X12486000Y-7366000I40000J0D01*
G01*
X12486000Y-7620000D02*
G75*
G02*
X12406000Y-7620000I-40000J0D01*
G01*
X12406000Y-7620000D02*
G75*
G02*
X12486000Y-7620000I40000J0D01*
G01*
X12486000Y-7874000D02*
G75*
G02*
X12406000Y-7874000I-40000J0D01*
G01*
X12406000Y-7874000D02*
G75*
G02*
X12486000Y-7874000I40000J0D01*
G01*
X12486000Y-8128000D02*
G75*
G02*
X12406000Y-8128000I-40000J0D01*
G01*
X12406000Y-8128000D02*
G75*
G02*
X12486000Y-8128000I40000J0D01*
G01*
X12486000Y-8382000D02*
G75*
G02*
X12406000Y-8382000I-40000J0D01*
G01*
X12406000Y-8382000D02*
G75*
G02*
X12486000Y-8382000I40000J0D01*
G01*
X12486000Y-8636000D02*
G75*
G02*
X12406000Y-8636000I-40000J0D01*
G01*
X12406000Y-8636000D02*
G75*
G02*
X12486000Y-8636000I40000J0D01*
G01*
X12486000Y-8890000D02*
G75*
G02*
X12406000Y-8890000I-40000J0D01*
G01*
X12406000Y-8890000D02*
G75*
G02*
X12486000Y-8890000I40000J0D01*
G01*
X12486000Y-9144000D02*
G75*
G02*
X12406000Y-9144000I-40000J0D01*
G01*
X12406000Y-9144000D02*
G75*
G02*
X12486000Y-9144000I40000J0D01*
G01*
X12486000Y-9652000D02*
G75*
G02*
X12406000Y-9652000I-40000J0D01*
G01*
X12406000Y-9652000D02*
G75*
G02*
X12486000Y-9652000I40000J0D01*
G01*
X12486000Y-9906000D02*
G75*
G02*
X12406000Y-9906000I-40000J0D01*
G01*
X12406000Y-9906000D02*
G75*
G02*
X12486000Y-9906000I40000J0D01*
G01*
X12486000Y-10160000D02*
G75*
G02*
X12406000Y-10160000I-40000J0D01*
G01*
X12406000Y-10160000D02*
G75*
G02*
X12486000Y-10160000I40000J0D01*
G01*
X12486000Y-10414000D02*
G75*
G02*
X12406000Y-10414000I-40000J0D01*
G01*
X12406000Y-10414000D02*
G75*
G02*
X12486000Y-10414000I40000J0D01*
G01*
X12486000Y-10668000D02*
G75*
G02*
X12406000Y-10668000I-40000J0D01*
G01*
X12406000Y-10668000D02*
G75*
G02*
X12486000Y-10668000I40000J0D01*
G01*
X12486000Y-10922000D02*
G75*
G02*
X12406000Y-10922000I-40000J0D01*
G01*
X12406000Y-10922000D02*
G75*
G02*
X12486000Y-10922000I40000J0D01*
G01*
X12486000Y-11176000D02*
G75*
G02*
X12406000Y-11176000I-40000J0D01*
G01*
X12406000Y-11176000D02*
G75*
G02*
X12486000Y-11176000I40000J0D01*
G01*
X12486000Y-11430000D02*
G75*
G02*
X12406000Y-11430000I-40000J0D01*
G01*
X12406000Y-11430000D02*
G75*
G02*
X12486000Y-11430000I40000J0D01*
G01*
X12486000Y-11938000D02*
G75*
G02*
X12406000Y-11938000I-40000J0D01*
G01*
X12406000Y-11938000D02*
G75*
G02*
X12486000Y-11938000I40000J0D01*
G01*
X12486000Y-12700000D02*
G75*
G02*
X12406000Y-12700000I-40000J0D01*
G01*
X12406000Y-12700000D02*
G75*
G02*
X12486000Y-12700000I40000J0D01*
G01*
X12875000Y-5969000D02*
G75*
G02*
X12795000Y-5969000I-40000J0D01*
G01*
X12795000Y-5969000D02*
G75*
G02*
X12875000Y-5969000I40000J0D01*
G01*
X12994000Y-6858000D02*
G75*
G02*
X12914000Y-6858000I-40000J0D01*
G01*
X12914000Y-6858000D02*
G75*
G02*
X12994000Y-6858000I40000J0D01*
G01*
X12994000Y-7358000D02*
G75*
G02*
X12914000Y-7358000I-40000J0D01*
G01*
X12914000Y-7358000D02*
G75*
G02*
X12994000Y-7358000I40000J0D01*
G01*
X12994000Y-9652000D02*
G75*
G02*
X12914000Y-9652000I-40000J0D01*
G01*
X12914000Y-9652000D02*
G75*
G02*
X12994000Y-9652000I40000J0D01*
G01*
X12994000Y-10152000D02*
G75*
G02*
X12914000Y-10152000I-40000J0D01*
G01*
X12914000Y-10152000D02*
G75*
G02*
X12994000Y-10152000I40000J0D01*
G01*
X12994000Y-11692000D02*
G75*
G02*
X12914000Y-11692000I-40000J0D01*
G01*
X12914000Y-11692000D02*
G75*
G02*
X12994000Y-11692000I40000J0D01*
G01*
X12994000Y-12192000D02*
G75*
G02*
X12914000Y-12192000I-40000J0D01*
G01*
X12914000Y-12192000D02*
G75*
G02*
X12994000Y-12192000I40000J0D01*
G01*
X13375000Y-5969000D02*
G75*
G02*
X13295000Y-5969000I-40000J0D01*
G01*
X13295000Y-5969000D02*
G75*
G02*
X13375000Y-5969000I40000J0D01*
G01*
X4635500Y-6427000D02*
X4635500Y-6527000D01*
X4585500Y-6477000D02*
X4685500Y-6477000D01*
X4635500Y-6681000D02*
X4635500Y-6781000D01*
X4585500Y-6731000D02*
X4685500Y-6731000D01*
X4635500Y-6935000D02*
X4635500Y-7035000D01*
X4585500Y-6985000D02*
X4685500Y-6985000D01*
X4635500Y-7189000D02*
X4635500Y-7289000D01*
X4585500Y-7239000D02*
X4685500Y-7239000D01*
X4635500Y-7443000D02*
X4635500Y-7543000D01*
X4585500Y-7493000D02*
X4685500Y-7493000D01*
X4635500Y-7697000D02*
X4635500Y-7797000D01*
X4585500Y-7747000D02*
X4685500Y-7747000D01*
X4635500Y-7951000D02*
X4635500Y-8051000D01*
X4585500Y-8001000D02*
X4685500Y-8001000D01*
X4635500Y-8586000D02*
X4635500Y-8686000D01*
X4585500Y-8636000D02*
X4685500Y-8636000D01*
X4635500Y-8840000D02*
X4635500Y-8940000D01*
X4585500Y-8890000D02*
X4685500Y-8890000D01*
X4635500Y-9094000D02*
X4635500Y-9194000D01*
X4585500Y-9144000D02*
X4685500Y-9144000D01*
X4635500Y-9348000D02*
X4635500Y-9448000D01*
X4585500Y-9398000D02*
X4685500Y-9398000D01*
X4635500Y-9602000D02*
X4635500Y-9702000D01*
X4585500Y-9652000D02*
X4685500Y-9652000D01*
X4635500Y-9856000D02*
X4635500Y-9956000D01*
X4585500Y-9906000D02*
X4685500Y-9906000D01*
X4635500Y-10110000D02*
X4635500Y-10210000D01*
X4585500Y-10160000D02*
X4685500Y-10160000D01*
X4635500Y-10364000D02*
X4635500Y-10464000D01*
X4585500Y-10414000D02*
X4685500Y-10414000D01*
X4635500Y-10618000D02*
X4635500Y-10718000D01*
X4585500Y-10668000D02*
X4685500Y-10668000D01*
X4635500Y-10872000D02*
X4635500Y-10972000D01*
X4585500Y-10922000D02*
X4685500Y-10922000D01*
X4635500Y-11126000D02*
X4635500Y-11226000D01*
X4585500Y-11176000D02*
X4685500Y-11176000D01*
X4889500Y-6427000D02*
X4889500Y-6527000D01*
X4839500Y-6477000D02*
X4939500Y-6477000D01*
X4889500Y-6681000D02*
X4889500Y-6781000D01*
X4839500Y-6731000D02*
X4939500Y-6731000D01*
X4889500Y-6935000D02*
X4889500Y-7035000D01*
X4839500Y-6985000D02*
X4939500Y-6985000D01*
X4889500Y-7189000D02*
X4889500Y-7289000D01*
X4839500Y-7239000D02*
X4939500Y-7239000D01*
X4889500Y-7443000D02*
X4889500Y-7543000D01*
X4839500Y-7493000D02*
X4939500Y-7493000D01*
X4889500Y-7697000D02*
X4889500Y-7797000D01*
X4839500Y-7747000D02*
X4939500Y-7747000D01*
X4889500Y-7951000D02*
X4889500Y-8051000D01*
X4839500Y-8001000D02*
X4939500Y-8001000D01*
X4889500Y-8586000D02*
X4889500Y-8686000D01*
X4839500Y-8636000D02*
X4939500Y-8636000D01*
X4889500Y-8840000D02*
X4889500Y-8940000D01*
X4839500Y-8890000D02*
X4939500Y-8890000D01*
X4889500Y-9094000D02*
X4889500Y-9194000D01*
X4839500Y-9144000D02*
X4939500Y-9144000D01*
X4889500Y-9348000D02*
X4889500Y-9448000D01*
X4839500Y-9398000D02*
X4939500Y-9398000D01*
X4889500Y-9602000D02*
X4889500Y-9702000D01*
X4839500Y-9652000D02*
X4939500Y-9652000D01*
X4889500Y-9856000D02*
X4889500Y-9956000D01*
X4839500Y-9906000D02*
X4939500Y-9906000D01*
X4889500Y-10110000D02*
X4889500Y-10210000D01*
X4839500Y-10160000D02*
X4939500Y-10160000D01*
X4889500Y-10364000D02*
X4889500Y-10464000D01*
X4839500Y-10414000D02*
X4939500Y-10414000D01*
X4889500Y-10618000D02*
X4889500Y-10718000D01*
X4839500Y-10668000D02*
X4939500Y-10668000D01*
X4889500Y-10872000D02*
X4889500Y-10972000D01*
X4839500Y-10922000D02*
X4939500Y-10922000D01*
X4889500Y-11126000D02*
X4889500Y-11226000D01*
X4839500Y-11176000D02*
X4939500Y-11176000D01*
X5524500Y-8586000D02*
X5524500Y-8686000D01*
X5474500Y-8636000D02*
X5574500Y-8636000D01*
X5524500Y-8967000D02*
X5524500Y-9067000D01*
X5474500Y-9017000D02*
X5574500Y-9017000D01*
X5524500Y-9348000D02*
X5524500Y-9448000D01*
X5474500Y-9398000D02*
X5574500Y-9398000D01*
X5588000Y-11126000D02*
X5588000Y-11226000D01*
X5538000Y-11176000D02*
X5638000Y-11176000D01*
X5588000Y-11380000D02*
X5588000Y-11480000D01*
X5538000Y-11430000D02*
X5638000Y-11430000D01*
X5588000Y-11888000D02*
X5588000Y-11988000D01*
X5538000Y-11938000D02*
X5638000Y-11938000D01*
X5588000Y-12142000D02*
X5588000Y-12242000D01*
X5538000Y-12192000D02*
X5638000Y-12192000D01*
X5778500Y-8586000D02*
X5778500Y-8686000D01*
X5728500Y-8636000D02*
X5828500Y-8636000D01*
X5778500Y-8967000D02*
X5778500Y-9067000D01*
X5728500Y-9017000D02*
X5828500Y-9017000D01*
X5778500Y-9348000D02*
X5778500Y-9448000D01*
X5728500Y-9398000D02*
X5828500Y-9398000D01*
X5842000Y-11126000D02*
X5842000Y-11226000D01*
X5792000Y-11176000D02*
X5892000Y-11176000D01*
X5842000Y-11380000D02*
X5842000Y-11480000D01*
X5792000Y-11430000D02*
X5892000Y-11430000D01*
X5842000Y-11888000D02*
X5842000Y-11988000D01*
X5792000Y-11938000D02*
X5892000Y-11938000D01*
X5842000Y-12142000D02*
X5842000Y-12242000D01*
X5792000Y-12192000D02*
X5892000Y-12192000D01*
X6032500Y-8586000D02*
X6032500Y-8686000D01*
X5982500Y-8636000D02*
X6082500Y-8636000D01*
X6032500Y-8967000D02*
X6032500Y-9067000D01*
X5982500Y-9017000D02*
X6082500Y-9017000D01*
X6032500Y-9348000D02*
X6032500Y-9448000D01*
X5982500Y-9398000D02*
X6082500Y-9398000D01*
X6096000Y-11126000D02*
X6096000Y-11226000D01*
X6046000Y-11176000D02*
X6146000Y-11176000D01*
X6096000Y-11380000D02*
X6096000Y-11480000D01*
X6046000Y-11430000D02*
X6146000Y-11430000D01*
X6096000Y-11888000D02*
X6096000Y-11988000D01*
X6046000Y-11938000D02*
X6146000Y-11938000D01*
X6096000Y-12142000D02*
X6096000Y-12242000D01*
X6046000Y-12192000D02*
X6146000Y-12192000D01*
X6350000Y-11126000D02*
X6350000Y-11226000D01*
X6300000Y-11176000D02*
X6400000Y-11176000D01*
X6350000Y-11380000D02*
X6350000Y-11480000D01*
X6300000Y-11430000D02*
X6400000Y-11430000D01*
X6350000Y-11888000D02*
X6350000Y-11988000D01*
X6300000Y-11938000D02*
X6400000Y-11938000D01*
X6350000Y-12142000D02*
X6350000Y-12242000D01*
X6300000Y-12192000D02*
X6400000Y-12192000D01*
X6604000Y-11126000D02*
X6604000Y-11226000D01*
X6554000Y-11176000D02*
X6654000Y-11176000D01*
X6604000Y-11380000D02*
X6604000Y-11480000D01*
X6554000Y-11430000D02*
X6654000Y-11430000D01*
X6604000Y-11888000D02*
X6604000Y-11988000D01*
X6554000Y-11938000D02*
X6654000Y-11938000D01*
X6604000Y-12142000D02*
X6604000Y-12242000D01*
X6554000Y-12192000D02*
X6654000Y-12192000D01*
X6858000Y-11888000D02*
X6858000Y-11988000D01*
X6808000Y-11938000D02*
X6908000Y-11938000D01*
X6858000Y-12142000D02*
X6858000Y-12242000D01*
X6808000Y-12192000D02*
X6908000Y-12192000D01*
X7112000Y-11888000D02*
X7112000Y-11988000D01*
X7062000Y-11938000D02*
X7162000Y-11938000D01*
X7112000Y-12142000D02*
X7112000Y-12242000D01*
X7062000Y-12192000D02*
X7162000Y-12192000D01*
X8218915Y-12713000D02*
X8218915Y-12813000D01*
X8168915Y-12763000D02*
X8268915Y-12763000D01*
X8218915Y-12967000D02*
X8218915Y-13067000D01*
X8168915Y-13017000D02*
X8268915Y-13017000D01*
X9144000Y-5030000D02*
X9144000Y-5130000D01*
X9094000Y-5080000D02*
X9194000Y-5080000D01*
X9144000Y-5284000D02*
X9144000Y-5384000D01*
X9094000Y-5334000D02*
X9194000Y-5334000D01*
X9144000Y-5538000D02*
X9144000Y-5638000D01*
X9094000Y-5588000D02*
X9194000Y-5588000D01*
X9144000Y-5792000D02*
X9144000Y-5892000D01*
X9094000Y-5842000D02*
X9194000Y-5842000D01*
X9144000Y-6046000D02*
X9144000Y-6146000D01*
X9094000Y-6096000D02*
X9194000Y-6096000D01*
X9144000Y-6300000D02*
X9144000Y-6400000D01*
X9094000Y-6350000D02*
X9194000Y-6350000D01*
X9144000Y-6554000D02*
X9144000Y-6654000D01*
X9094000Y-6604000D02*
X9194000Y-6604000D01*
X9144000Y-6808000D02*
X9144000Y-6908000D01*
X9094000Y-6858000D02*
X9194000Y-6858000D01*
X9144000Y-7062000D02*
X9144000Y-7162000D01*
X9094000Y-7112000D02*
X9194000Y-7112000D01*
X9144000Y-7316000D02*
X9144000Y-7416000D01*
X9094000Y-7366000D02*
X9194000Y-7366000D01*
X9144000Y-7570000D02*
X9144000Y-7670000D01*
X9094000Y-7620000D02*
X9194000Y-7620000D01*
X9144000Y-7824000D02*
X9144000Y-7924000D01*
X9094000Y-7874000D02*
X9194000Y-7874000D01*
X9398000Y-5030000D02*
X9398000Y-5130000D01*
X9348000Y-5080000D02*
X9448000Y-5080000D01*
X9398000Y-5284000D02*
X9398000Y-5384000D01*
X9348000Y-5334000D02*
X9448000Y-5334000D01*
X9398000Y-5538000D02*
X9398000Y-5638000D01*
X9348000Y-5588000D02*
X9448000Y-5588000D01*
X9398000Y-5792000D02*
X9398000Y-5892000D01*
X9348000Y-5842000D02*
X9448000Y-5842000D01*
X9398000Y-6046000D02*
X9398000Y-6146000D01*
X9348000Y-6096000D02*
X9448000Y-6096000D01*
X9398000Y-6300000D02*
X9398000Y-6400000D01*
X9348000Y-6350000D02*
X9448000Y-6350000D01*
X9398000Y-6554000D02*
X9398000Y-6654000D01*
X9348000Y-6604000D02*
X9448000Y-6604000D01*
X9398000Y-6808000D02*
X9398000Y-6908000D01*
X9348000Y-6858000D02*
X9448000Y-6858000D01*
X9398000Y-7062000D02*
X9398000Y-7162000D01*
X9348000Y-7112000D02*
X9448000Y-7112000D01*
X9398000Y-7316000D02*
X9398000Y-7416000D01*
X9348000Y-7366000D02*
X9448000Y-7366000D01*
X9398000Y-7570000D02*
X9398000Y-7670000D01*
X9348000Y-7620000D02*
X9448000Y-7620000D01*
X9398000Y-7824000D02*
X9398000Y-7924000D01*
X9348000Y-7874000D02*
X9448000Y-7874000D01*
D12*
X4748638Y-5320138D02*
X4748638Y-5093862D01*
X4522362Y-5093862D01*
X4522362Y-5320138D01*
X4748638Y-5320138D01*
X4748638Y-12686138D02*
X4748638Y-12459862D01*
X4522362Y-12459862D01*
X4522362Y-12686138D01*
X4748638Y-12686138D01*
X13321138Y-5066138D02*
X13321138Y-4839862D01*
X13094862Y-4839862D01*
X13094862Y-5066138D01*
X13321138Y-5066138D01*
X13321138Y-13067138D02*
X13321138Y-12840862D01*
X13094862Y-12840862D01*
X13094862Y-13067138D01*
X13321138Y-13067138D01*
D11*
X4383277Y-13778484D02*
X4383277Y-13578484D01*
X4383277Y-13578484D02*
X4430896Y-13578484D01*
X4430896Y-13578484D02*
X4459467Y-13588008D01*
X4459467Y-13588008D02*
X4478515Y-13607055D01*
X4478515Y-13607055D02*
X4488039Y-13626103D01*
X4488039Y-13626103D02*
X4497562Y-13664198D01*
X4497562Y-13664198D02*
X4497562Y-13692769D01*
X4497562Y-13692769D02*
X4488039Y-13730865D01*
X4488039Y-13730865D02*
X4478515Y-13749912D01*
X4478515Y-13749912D02*
X4459467Y-13768960D01*
X4459467Y-13768960D02*
X4430896Y-13778484D01*
X4430896Y-13778484D02*
X4383277Y-13778484D01*
X4583277Y-13778484D02*
X4583277Y-13645150D01*
X4583277Y-13683246D02*
X4592801Y-13664198D01*
X4592801Y-13664198D02*
X4602324Y-13654674D01*
X4602324Y-13654674D02*
X4621372Y-13645150D01*
X4621372Y-13645150D02*
X4640420Y-13645150D01*
X4707086Y-13778484D02*
X4707086Y-13645150D01*
X4707086Y-13578484D02*
X4697562Y-13588008D01*
X4697562Y-13588008D02*
X4707086Y-13597531D01*
X4707086Y-13597531D02*
X4716610Y-13588008D01*
X4716610Y-13588008D02*
X4707086Y-13578484D01*
X4707086Y-13578484D02*
X4707086Y-13597531D01*
X4830896Y-13778484D02*
X4811848Y-13768960D01*
X4811848Y-13768960D02*
X4802324Y-13749912D01*
X4802324Y-13749912D02*
X4802324Y-13578484D01*
X4935658Y-13778484D02*
X4916610Y-13768960D01*
X4916610Y-13768960D02*
X4907086Y-13749912D01*
X4907086Y-13749912D02*
X4907086Y-13578484D01*
X5164229Y-13778484D02*
X5164229Y-13578484D01*
X5164229Y-13578484D02*
X5230896Y-13721341D01*
X5230896Y-13721341D02*
X5297562Y-13578484D01*
X5297562Y-13578484D02*
X5297562Y-13778484D01*
X5478515Y-13778484D02*
X5478515Y-13673722D01*
X5478515Y-13673722D02*
X5468991Y-13654674D01*
X5468991Y-13654674D02*
X5449943Y-13645150D01*
X5449943Y-13645150D02*
X5411848Y-13645150D01*
X5411848Y-13645150D02*
X5392801Y-13654674D01*
X5478515Y-13768960D02*
X5459467Y-13778484D01*
X5459467Y-13778484D02*
X5411848Y-13778484D01*
X5411848Y-13778484D02*
X5392801Y-13768960D01*
X5392801Y-13768960D02*
X5383277Y-13749912D01*
X5383277Y-13749912D02*
X5383277Y-13730865D01*
X5383277Y-13730865D02*
X5392801Y-13711817D01*
X5392801Y-13711817D02*
X5411848Y-13702293D01*
X5411848Y-13702293D02*
X5459467Y-13702293D01*
X5459467Y-13702293D02*
X5478515Y-13692769D01*
X5573753Y-13645150D02*
X5573753Y-13845150D01*
X5573753Y-13654674D02*
X5592800Y-13645150D01*
X5592800Y-13645150D02*
X5630896Y-13645150D01*
X5630896Y-13645150D02*
X5649943Y-13654674D01*
X5649943Y-13654674D02*
X5659467Y-13664198D01*
X5659467Y-13664198D02*
X5668991Y-13683246D01*
X5668991Y-13683246D02*
X5668991Y-13740388D01*
X5668991Y-13740388D02*
X5659467Y-13759436D01*
X5659467Y-13759436D02*
X5649943Y-13768960D01*
X5649943Y-13768960D02*
X5630896Y-13778484D01*
X5630896Y-13778484D02*
X5592800Y-13778484D01*
X5592800Y-13778484D02*
X5573753Y-13768960D01*
X5754705Y-13759436D02*
X5764229Y-13768960D01*
X5764229Y-13768960D02*
X5754705Y-13778484D01*
X5754705Y-13778484D02*
X5745181Y-13768960D01*
X5745181Y-13768960D02*
X5754705Y-13759436D01*
X5754705Y-13759436D02*
X5754705Y-13778484D01*
X5754705Y-13654674D02*
X5764229Y-13664198D01*
X5764229Y-13664198D02*
X5754705Y-13673722D01*
X5754705Y-13673722D02*
X5745181Y-13664198D01*
X5745181Y-13664198D02*
X5754705Y-13654674D01*
X5754705Y-13654674D02*
X5754705Y-13673722D01*
D10*
X4072500Y-14082000D02*
X4122500Y-14132000D01*
X4122500Y-14082000D02*
X4072500Y-14132000D01*
D11*
X4421372Y-13998484D02*
X4440420Y-13998484D01*
X4440420Y-13998484D02*
X4459467Y-14008008D01*
X4459467Y-14008008D02*
X4468991Y-14017531D01*
X4468991Y-14017531D02*
X4478515Y-14036579D01*
X4478515Y-14036579D02*
X4488039Y-14074674D01*
X4488039Y-14074674D02*
X4488039Y-14122293D01*
X4488039Y-14122293D02*
X4478515Y-14160388D01*
X4478515Y-14160388D02*
X4468991Y-14179436D01*
X4468991Y-14179436D02*
X4459467Y-14188960D01*
X4459467Y-14188960D02*
X4440420Y-14198484D01*
X4440420Y-14198484D02*
X4421372Y-14198484D01*
X4421372Y-14198484D02*
X4402324Y-14188960D01*
X4402324Y-14188960D02*
X4392801Y-14179436D01*
X4392801Y-14179436D02*
X4383277Y-14160388D01*
X4383277Y-14160388D02*
X4373753Y-14122293D01*
X4373753Y-14122293D02*
X4373753Y-14074674D01*
X4373753Y-14074674D02*
X4383277Y-14036579D01*
X4383277Y-14036579D02*
X4392801Y-14017531D01*
X4392801Y-14017531D02*
X4402324Y-14008008D01*
X4402324Y-14008008D02*
X4421372Y-13998484D01*
X4573753Y-14179436D02*
X4583277Y-14188960D01*
X4583277Y-14188960D02*
X4573753Y-14198484D01*
X4573753Y-14198484D02*
X4564229Y-14188960D01*
X4564229Y-14188960D02*
X4573753Y-14179436D01*
X4573753Y-14179436D02*
X4573753Y-14198484D01*
X4764229Y-13998484D02*
X4668991Y-13998484D01*
X4668991Y-13998484D02*
X4659467Y-14093722D01*
X4659467Y-14093722D02*
X4668991Y-14084198D01*
X4668991Y-14084198D02*
X4688039Y-14074674D01*
X4688039Y-14074674D02*
X4735658Y-14074674D01*
X4735658Y-14074674D02*
X4754705Y-14084198D01*
X4754705Y-14084198D02*
X4764229Y-14093722D01*
X4764229Y-14093722D02*
X4773753Y-14112769D01*
X4773753Y-14112769D02*
X4773753Y-14160388D01*
X4773753Y-14160388D02*
X4764229Y-14179436D01*
X4764229Y-14179436D02*
X4754705Y-14188960D01*
X4754705Y-14188960D02*
X4735658Y-14198484D01*
X4735658Y-14198484D02*
X4688039Y-14198484D01*
X4688039Y-14198484D02*
X4668991Y-14188960D01*
X4668991Y-14188960D02*
X4659467Y-14179436D01*
X4897562Y-13998484D02*
X4916610Y-13998484D01*
X4916610Y-13998484D02*
X4935658Y-14008008D01*
X4935658Y-14008008D02*
X4945182Y-14017531D01*
X4945182Y-14017531D02*
X4954705Y-14036579D01*
X4954705Y-14036579D02*
X4964229Y-14074674D01*
X4964229Y-14074674D02*
X4964229Y-14122293D01*
X4964229Y-14122293D02*
X4954705Y-14160388D01*
X4954705Y-14160388D02*
X4945182Y-14179436D01*
X4945182Y-14179436D02*
X4935658Y-14188960D01*
X4935658Y-14188960D02*
X4916610Y-14198484D01*
X4916610Y-14198484D02*
X4897562Y-14198484D01*
X4897562Y-14198484D02*
X4878515Y-14188960D01*
X4878515Y-14188960D02*
X4868991Y-14179436D01*
X4868991Y-14179436D02*
X4859467Y-14160388D01*
X4859467Y-14160388D02*
X4849943Y-14122293D01*
X4849943Y-14122293D02*
X4849943Y-14074674D01*
X4849943Y-14074674D02*
X4859467Y-14036579D01*
X4859467Y-14036579D02*
X4868991Y-14017531D01*
X4868991Y-14017531D02*
X4878515Y-14008008D01*
X4878515Y-14008008D02*
X4897562Y-13998484D01*
X5088039Y-13998484D02*
X5107086Y-13998484D01*
X5107086Y-13998484D02*
X5126134Y-14008008D01*
X5126134Y-14008008D02*
X5135658Y-14017531D01*
X5135658Y-14017531D02*
X5145182Y-14036579D01*
X5145182Y-14036579D02*
X5154705Y-14074674D01*
X5154705Y-14074674D02*
X5154705Y-14122293D01*
X5154705Y-14122293D02*
X5145182Y-14160388D01*
X5145182Y-14160388D02*
X5135658Y-14179436D01*
X5135658Y-14179436D02*
X5126134Y-14188960D01*
X5126134Y-14188960D02*
X5107086Y-14198484D01*
X5107086Y-14198484D02*
X5088039Y-14198484D01*
X5088039Y-14198484D02*
X5068991Y-14188960D01*
X5068991Y-14188960D02*
X5059467Y-14179436D01*
X5059467Y-14179436D02*
X5049943Y-14160388D01*
X5049943Y-14160388D02*
X5040420Y-14122293D01*
X5040420Y-14122293D02*
X5040420Y-14074674D01*
X5040420Y-14074674D02*
X5049943Y-14036579D01*
X5049943Y-14036579D02*
X5059467Y-14017531D01*
X5059467Y-14017531D02*
X5068991Y-14008008D01*
X5068991Y-14008008D02*
X5088039Y-13998484D01*
X5240420Y-14198484D02*
X5240420Y-14065150D01*
X5240420Y-14084198D02*
X5249943Y-14074674D01*
X5249943Y-14074674D02*
X5268991Y-14065150D01*
X5268991Y-14065150D02*
X5297563Y-14065150D01*
X5297563Y-14065150D02*
X5316610Y-14074674D01*
X5316610Y-14074674D02*
X5326134Y-14093722D01*
X5326134Y-14093722D02*
X5326134Y-14198484D01*
X5326134Y-14093722D02*
X5335658Y-14074674D01*
X5335658Y-14074674D02*
X5354705Y-14065150D01*
X5354705Y-14065150D02*
X5383277Y-14065150D01*
X5383277Y-14065150D02*
X5402324Y-14074674D01*
X5402324Y-14074674D02*
X5411848Y-14093722D01*
X5411848Y-14093722D02*
X5411848Y-14198484D01*
X5507086Y-14198484D02*
X5507086Y-14065150D01*
X5507086Y-14084198D02*
X5516610Y-14074674D01*
X5516610Y-14074674D02*
X5535658Y-14065150D01*
X5535658Y-14065150D02*
X5564229Y-14065150D01*
X5564229Y-14065150D02*
X5583277Y-14074674D01*
X5583277Y-14074674D02*
X5592801Y-14093722D01*
X5592801Y-14093722D02*
X5592801Y-14198484D01*
X5592801Y-14093722D02*
X5602324Y-14074674D01*
X5602324Y-14074674D02*
X5621372Y-14065150D01*
X5621372Y-14065150D02*
X5649943Y-14065150D01*
X5649943Y-14065150D02*
X5668991Y-14074674D01*
X5668991Y-14074674D02*
X5678515Y-14093722D01*
X5678515Y-14093722D02*
X5678515Y-14198484D01*
X6068991Y-13988960D02*
X5897563Y-14246103D01*
X6326134Y-13998484D02*
X6345182Y-13998484D01*
X6345182Y-13998484D02*
X6364229Y-14008008D01*
X6364229Y-14008008D02*
X6373753Y-14017531D01*
X6373753Y-14017531D02*
X6383277Y-14036579D01*
X6383277Y-14036579D02*
X6392801Y-14074674D01*
X6392801Y-14074674D02*
X6392801Y-14122293D01*
X6392801Y-14122293D02*
X6383277Y-14160388D01*
X6383277Y-14160388D02*
X6373753Y-14179436D01*
X6373753Y-14179436D02*
X6364229Y-14188960D01*
X6364229Y-14188960D02*
X6345182Y-14198484D01*
X6345182Y-14198484D02*
X6326134Y-14198484D01*
X6326134Y-14198484D02*
X6307086Y-14188960D01*
X6307086Y-14188960D02*
X6297563Y-14179436D01*
X6297563Y-14179436D02*
X6288039Y-14160388D01*
X6288039Y-14160388D02*
X6278515Y-14122293D01*
X6278515Y-14122293D02*
X6278515Y-14074674D01*
X6278515Y-14074674D02*
X6288039Y-14036579D01*
X6288039Y-14036579D02*
X6297563Y-14017531D01*
X6297563Y-14017531D02*
X6307086Y-14008008D01*
X6307086Y-14008008D02*
X6326134Y-13998484D01*
X6478515Y-14179436D02*
X6488039Y-14188960D01*
X6488039Y-14188960D02*
X6478515Y-14198484D01*
X6478515Y-14198484D02*
X6468991Y-14188960D01*
X6468991Y-14188960D02*
X6478515Y-14179436D01*
X6478515Y-14179436D02*
X6478515Y-14198484D01*
X6611848Y-13998484D02*
X6630896Y-13998484D01*
X6630896Y-13998484D02*
X6649944Y-14008008D01*
X6649944Y-14008008D02*
X6659467Y-14017531D01*
X6659467Y-14017531D02*
X6668991Y-14036579D01*
X6668991Y-14036579D02*
X6678515Y-14074674D01*
X6678515Y-14074674D02*
X6678515Y-14122293D01*
X6678515Y-14122293D02*
X6668991Y-14160388D01*
X6668991Y-14160388D02*
X6659467Y-14179436D01*
X6659467Y-14179436D02*
X6649944Y-14188960D01*
X6649944Y-14188960D02*
X6630896Y-14198484D01*
X6630896Y-14198484D02*
X6611848Y-14198484D01*
X6611848Y-14198484D02*
X6592801Y-14188960D01*
X6592801Y-14188960D02*
X6583277Y-14179436D01*
X6583277Y-14179436D02*
X6573753Y-14160388D01*
X6573753Y-14160388D02*
X6564229Y-14122293D01*
X6564229Y-14122293D02*
X6564229Y-14074674D01*
X6564229Y-14074674D02*
X6573753Y-14036579D01*
X6573753Y-14036579D02*
X6583277Y-14017531D01*
X6583277Y-14017531D02*
X6592801Y-14008008D01*
X6592801Y-14008008D02*
X6611848Y-13998484D01*
X6868991Y-14198484D02*
X6754705Y-14198484D01*
X6811848Y-14198484D02*
X6811848Y-13998484D01*
X6811848Y-13998484D02*
X6792801Y-14027055D01*
X6792801Y-14027055D02*
X6773753Y-14046103D01*
X6773753Y-14046103D02*
X6754705Y-14055627D01*
X6964229Y-14198484D02*
X7002324Y-14198484D01*
X7002324Y-14198484D02*
X7021372Y-14188960D01*
X7021372Y-14188960D02*
X7030896Y-14179436D01*
X7030896Y-14179436D02*
X7049944Y-14150865D01*
X7049944Y-14150865D02*
X7059467Y-14112769D01*
X7059467Y-14112769D02*
X7059467Y-14036579D01*
X7059467Y-14036579D02*
X7049944Y-14017531D01*
X7049944Y-14017531D02*
X7040420Y-14008008D01*
X7040420Y-14008008D02*
X7021372Y-13998484D01*
X7021372Y-13998484D02*
X6983277Y-13998484D01*
X6983277Y-13998484D02*
X6964229Y-14008008D01*
X6964229Y-14008008D02*
X6954705Y-14017531D01*
X6954705Y-14017531D02*
X6945182Y-14036579D01*
X6945182Y-14036579D02*
X6945182Y-14084198D01*
X6945182Y-14084198D02*
X6954705Y-14103246D01*
X6954705Y-14103246D02*
X6964229Y-14112769D01*
X6964229Y-14112769D02*
X6983277Y-14122293D01*
X6983277Y-14122293D02*
X7021372Y-14122293D01*
X7021372Y-14122293D02*
X7040420Y-14112769D01*
X7040420Y-14112769D02*
X7049944Y-14103246D01*
X7049944Y-14103246D02*
X7059467Y-14084198D01*
X7126134Y-13998484D02*
X7259467Y-13998484D01*
X7259467Y-13998484D02*
X7173753Y-14198484D01*
X7326134Y-13998484D02*
X7326134Y-14036579D01*
X7402325Y-13998484D02*
X7402325Y-14036579D01*
X7697563Y-14274674D02*
X7688039Y-14265150D01*
X7688039Y-14265150D02*
X7668991Y-14236579D01*
X7668991Y-14236579D02*
X7659467Y-14217531D01*
X7659467Y-14217531D02*
X7649944Y-14188960D01*
X7649944Y-14188960D02*
X7640420Y-14141341D01*
X7640420Y-14141341D02*
X7640420Y-14103246D01*
X7640420Y-14103246D02*
X7649944Y-14055627D01*
X7649944Y-14055627D02*
X7659467Y-14027055D01*
X7659467Y-14027055D02*
X7668991Y-14008008D01*
X7668991Y-14008008D02*
X7688039Y-13979436D01*
X7688039Y-13979436D02*
X7697563Y-13969912D01*
X7754706Y-13998484D02*
X7878515Y-13998484D01*
X7878515Y-13998484D02*
X7811848Y-14074674D01*
X7811848Y-14074674D02*
X7840420Y-14074674D01*
X7840420Y-14074674D02*
X7859467Y-14084198D01*
X7859467Y-14084198D02*
X7868991Y-14093722D01*
X7868991Y-14093722D02*
X7878515Y-14112769D01*
X7878515Y-14112769D02*
X7878515Y-14160388D01*
X7878515Y-14160388D02*
X7868991Y-14179436D01*
X7868991Y-14179436D02*
X7859467Y-14188960D01*
X7859467Y-14188960D02*
X7840420Y-14198484D01*
X7840420Y-14198484D02*
X7783277Y-14198484D01*
X7783277Y-14198484D02*
X7764229Y-14188960D01*
X7764229Y-14188960D02*
X7754706Y-14179436D01*
X7954706Y-14017531D02*
X7964229Y-14008008D01*
X7964229Y-14008008D02*
X7983277Y-13998484D01*
X7983277Y-13998484D02*
X8030896Y-13998484D01*
X8030896Y-13998484D02*
X8049944Y-14008008D01*
X8049944Y-14008008D02*
X8059467Y-14017531D01*
X8059467Y-14017531D02*
X8068991Y-14036579D01*
X8068991Y-14036579D02*
X8068991Y-14055627D01*
X8068991Y-14055627D02*
X8059467Y-14084198D01*
X8059467Y-14084198D02*
X7945182Y-14198484D01*
X7945182Y-14198484D02*
X8068991Y-14198484D01*
X8307087Y-14198484D02*
X8307087Y-13998484D01*
X8392801Y-14198484D02*
X8392801Y-14093722D01*
X8392801Y-14093722D02*
X8383277Y-14074674D01*
X8383277Y-14074674D02*
X8364229Y-14065150D01*
X8364229Y-14065150D02*
X8335658Y-14065150D01*
X8335658Y-14065150D02*
X8316610Y-14074674D01*
X8316610Y-14074674D02*
X8307087Y-14084198D01*
X8516610Y-14198484D02*
X8497563Y-14188960D01*
X8497563Y-14188960D02*
X8488039Y-14179436D01*
X8488039Y-14179436D02*
X8478515Y-14160388D01*
X8478515Y-14160388D02*
X8478515Y-14103246D01*
X8478515Y-14103246D02*
X8488039Y-14084198D01*
X8488039Y-14084198D02*
X8497563Y-14074674D01*
X8497563Y-14074674D02*
X8516610Y-14065150D01*
X8516610Y-14065150D02*
X8545182Y-14065150D01*
X8545182Y-14065150D02*
X8564230Y-14074674D01*
X8564230Y-14074674D02*
X8573753Y-14084198D01*
X8573753Y-14084198D02*
X8583277Y-14103246D01*
X8583277Y-14103246D02*
X8583277Y-14160388D01*
X8583277Y-14160388D02*
X8573753Y-14179436D01*
X8573753Y-14179436D02*
X8564230Y-14188960D01*
X8564230Y-14188960D02*
X8545182Y-14198484D01*
X8545182Y-14198484D02*
X8516610Y-14198484D01*
X8697563Y-14198484D02*
X8678515Y-14188960D01*
X8678515Y-14188960D02*
X8668991Y-14169912D01*
X8668991Y-14169912D02*
X8668991Y-13998484D01*
X8849944Y-14188960D02*
X8830896Y-14198484D01*
X8830896Y-14198484D02*
X8792801Y-14198484D01*
X8792801Y-14198484D02*
X8773753Y-14188960D01*
X8773753Y-14188960D02*
X8764230Y-14169912D01*
X8764230Y-14169912D02*
X8764230Y-14093722D01*
X8764230Y-14093722D02*
X8773753Y-14074674D01*
X8773753Y-14074674D02*
X8792801Y-14065150D01*
X8792801Y-14065150D02*
X8830896Y-14065150D01*
X8830896Y-14065150D02*
X8849944Y-14074674D01*
X8849944Y-14074674D02*
X8859468Y-14093722D01*
X8859468Y-14093722D02*
X8859468Y-14112769D01*
X8859468Y-14112769D02*
X8764230Y-14131817D01*
X8935658Y-14188960D02*
X8954706Y-14198484D01*
X8954706Y-14198484D02*
X8992801Y-14198484D01*
X8992801Y-14198484D02*
X9011849Y-14188960D01*
X9011849Y-14188960D02*
X9021372Y-14169912D01*
X9021372Y-14169912D02*
X9021372Y-14160388D01*
X9021372Y-14160388D02*
X9011849Y-14141341D01*
X9011849Y-14141341D02*
X8992801Y-14131817D01*
X8992801Y-14131817D02*
X8964230Y-14131817D01*
X8964230Y-14131817D02*
X8945182Y-14122293D01*
X8945182Y-14122293D02*
X8935658Y-14103246D01*
X8935658Y-14103246D02*
X8935658Y-14093722D01*
X8935658Y-14093722D02*
X8945182Y-14074674D01*
X8945182Y-14074674D02*
X8964230Y-14065150D01*
X8964230Y-14065150D02*
X8992801Y-14065150D01*
X8992801Y-14065150D02*
X9011849Y-14074674D01*
X9088039Y-14274674D02*
X9097563Y-14265150D01*
X9097563Y-14265150D02*
X9116611Y-14236579D01*
X9116611Y-14236579D02*
X9126134Y-14217531D01*
X9126134Y-14217531D02*
X9135658Y-14188960D01*
X9135658Y-14188960D02*
X9145182Y-14141341D01*
X9145182Y-14141341D02*
X9145182Y-14103246D01*
X9145182Y-14103246D02*
X9135658Y-14055627D01*
X9135658Y-14055627D02*
X9126134Y-14027055D01*
X9126134Y-14027055D02*
X9116611Y-14008008D01*
X9116611Y-14008008D02*
X9097563Y-13979436D01*
X9097563Y-13979436D02*
X9088039Y-13969912D01*
D10*
X4122500Y-14371000D02*
G75*
G02*
X4042500Y-14371000I-40000J0D01*
G01*
X4042500Y-14371000D02*
G75*
G02*
X4122500Y-14371000I40000J0D01*
G01*
D11*
X4421372Y-14262484D02*
X4440420Y-14262484D01*
X4440420Y-14262484D02*
X4459467Y-14272008D01*
X4459467Y-14272008D02*
X4468991Y-14281531D01*
X4468991Y-14281531D02*
X4478515Y-14300579D01*
X4478515Y-14300579D02*
X4488039Y-14338674D01*
X4488039Y-14338674D02*
X4488039Y-14386293D01*
X4488039Y-14386293D02*
X4478515Y-14424388D01*
X4478515Y-14424388D02*
X4468991Y-14443436D01*
X4468991Y-14443436D02*
X4459467Y-14452960D01*
X4459467Y-14452960D02*
X4440420Y-14462484D01*
X4440420Y-14462484D02*
X4421372Y-14462484D01*
X4421372Y-14462484D02*
X4402324Y-14452960D01*
X4402324Y-14452960D02*
X4392801Y-14443436D01*
X4392801Y-14443436D02*
X4383277Y-14424388D01*
X4383277Y-14424388D02*
X4373753Y-14386293D01*
X4373753Y-14386293D02*
X4373753Y-14338674D01*
X4373753Y-14338674D02*
X4383277Y-14300579D01*
X4383277Y-14300579D02*
X4392801Y-14281531D01*
X4392801Y-14281531D02*
X4402324Y-14272008D01*
X4402324Y-14272008D02*
X4421372Y-14262484D01*
X4573753Y-14443436D02*
X4583277Y-14452960D01*
X4583277Y-14452960D02*
X4573753Y-14462484D01*
X4573753Y-14462484D02*
X4564229Y-14452960D01*
X4564229Y-14452960D02*
X4573753Y-14443436D01*
X4573753Y-14443436D02*
X4573753Y-14462484D01*
X4697562Y-14348198D02*
X4678515Y-14338674D01*
X4678515Y-14338674D02*
X4668991Y-14329150D01*
X4668991Y-14329150D02*
X4659467Y-14310103D01*
X4659467Y-14310103D02*
X4659467Y-14300579D01*
X4659467Y-14300579D02*
X4668991Y-14281531D01*
X4668991Y-14281531D02*
X4678515Y-14272008D01*
X4678515Y-14272008D02*
X4697562Y-14262484D01*
X4697562Y-14262484D02*
X4735658Y-14262484D01*
X4735658Y-14262484D02*
X4754705Y-14272008D01*
X4754705Y-14272008D02*
X4764229Y-14281531D01*
X4764229Y-14281531D02*
X4773753Y-14300579D01*
X4773753Y-14300579D02*
X4773753Y-14310103D01*
X4773753Y-14310103D02*
X4764229Y-14329150D01*
X4764229Y-14329150D02*
X4754705Y-14338674D01*
X4754705Y-14338674D02*
X4735658Y-14348198D01*
X4735658Y-14348198D02*
X4697562Y-14348198D01*
X4697562Y-14348198D02*
X4678515Y-14357722D01*
X4678515Y-14357722D02*
X4668991Y-14367246D01*
X4668991Y-14367246D02*
X4659467Y-14386293D01*
X4659467Y-14386293D02*
X4659467Y-14424388D01*
X4659467Y-14424388D02*
X4668991Y-14443436D01*
X4668991Y-14443436D02*
X4678515Y-14452960D01*
X4678515Y-14452960D02*
X4697562Y-14462484D01*
X4697562Y-14462484D02*
X4735658Y-14462484D01*
X4735658Y-14462484D02*
X4754705Y-14452960D01*
X4754705Y-14452960D02*
X4764229Y-14443436D01*
X4764229Y-14443436D02*
X4773753Y-14424388D01*
X4773753Y-14424388D02*
X4773753Y-14386293D01*
X4773753Y-14386293D02*
X4764229Y-14367246D01*
X4764229Y-14367246D02*
X4754705Y-14357722D01*
X4754705Y-14357722D02*
X4735658Y-14348198D01*
X4897562Y-14262484D02*
X4916610Y-14262484D01*
X4916610Y-14262484D02*
X4935658Y-14272008D01*
X4935658Y-14272008D02*
X4945182Y-14281531D01*
X4945182Y-14281531D02*
X4954705Y-14300579D01*
X4954705Y-14300579D02*
X4964229Y-14338674D01*
X4964229Y-14338674D02*
X4964229Y-14386293D01*
X4964229Y-14386293D02*
X4954705Y-14424388D01*
X4954705Y-14424388D02*
X4945182Y-14443436D01*
X4945182Y-14443436D02*
X4935658Y-14452960D01*
X4935658Y-14452960D02*
X4916610Y-14462484D01*
X4916610Y-14462484D02*
X4897562Y-14462484D01*
X4897562Y-14462484D02*
X4878515Y-14452960D01*
X4878515Y-14452960D02*
X4868991Y-14443436D01*
X4868991Y-14443436D02*
X4859467Y-14424388D01*
X4859467Y-14424388D02*
X4849943Y-14386293D01*
X4849943Y-14386293D02*
X4849943Y-14338674D01*
X4849943Y-14338674D02*
X4859467Y-14300579D01*
X4859467Y-14300579D02*
X4868991Y-14281531D01*
X4868991Y-14281531D02*
X4878515Y-14272008D01*
X4878515Y-14272008D02*
X4897562Y-14262484D01*
X5088039Y-14262484D02*
X5107086Y-14262484D01*
X5107086Y-14262484D02*
X5126134Y-14272008D01*
X5126134Y-14272008D02*
X5135658Y-14281531D01*
X5135658Y-14281531D02*
X5145182Y-14300579D01*
X5145182Y-14300579D02*
X5154705Y-14338674D01*
X5154705Y-14338674D02*
X5154705Y-14386293D01*
X5154705Y-14386293D02*
X5145182Y-14424388D01*
X5145182Y-14424388D02*
X5135658Y-14443436D01*
X5135658Y-14443436D02*
X5126134Y-14452960D01*
X5126134Y-14452960D02*
X5107086Y-14462484D01*
X5107086Y-14462484D02*
X5088039Y-14462484D01*
X5088039Y-14462484D02*
X5068991Y-14452960D01*
X5068991Y-14452960D02*
X5059467Y-14443436D01*
X5059467Y-14443436D02*
X5049943Y-14424388D01*
X5049943Y-14424388D02*
X5040420Y-14386293D01*
X5040420Y-14386293D02*
X5040420Y-14338674D01*
X5040420Y-14338674D02*
X5049943Y-14300579D01*
X5049943Y-14300579D02*
X5059467Y-14281531D01*
X5059467Y-14281531D02*
X5068991Y-14272008D01*
X5068991Y-14272008D02*
X5088039Y-14262484D01*
X5240420Y-14462484D02*
X5240420Y-14329150D01*
X5240420Y-14348198D02*
X5249943Y-14338674D01*
X5249943Y-14338674D02*
X5268991Y-14329150D01*
X5268991Y-14329150D02*
X5297563Y-14329150D01*
X5297563Y-14329150D02*
X5316610Y-14338674D01*
X5316610Y-14338674D02*
X5326134Y-14357722D01*
X5326134Y-14357722D02*
X5326134Y-14462484D01*
X5326134Y-14357722D02*
X5335658Y-14338674D01*
X5335658Y-14338674D02*
X5354705Y-14329150D01*
X5354705Y-14329150D02*
X5383277Y-14329150D01*
X5383277Y-14329150D02*
X5402324Y-14338674D01*
X5402324Y-14338674D02*
X5411848Y-14357722D01*
X5411848Y-14357722D02*
X5411848Y-14462484D01*
X5507086Y-14462484D02*
X5507086Y-14329150D01*
X5507086Y-14348198D02*
X5516610Y-14338674D01*
X5516610Y-14338674D02*
X5535658Y-14329150D01*
X5535658Y-14329150D02*
X5564229Y-14329150D01*
X5564229Y-14329150D02*
X5583277Y-14338674D01*
X5583277Y-14338674D02*
X5592801Y-14357722D01*
X5592801Y-14357722D02*
X5592801Y-14462484D01*
X5592801Y-14357722D02*
X5602324Y-14338674D01*
X5602324Y-14338674D02*
X5621372Y-14329150D01*
X5621372Y-14329150D02*
X5649943Y-14329150D01*
X5649943Y-14329150D02*
X5668991Y-14338674D01*
X5668991Y-14338674D02*
X5678515Y-14357722D01*
X5678515Y-14357722D02*
X5678515Y-14462484D01*
X6068991Y-14252960D02*
X5897563Y-14510103D01*
X6326134Y-14262484D02*
X6345182Y-14262484D01*
X6345182Y-14262484D02*
X6364229Y-14272008D01*
X6364229Y-14272008D02*
X6373753Y-14281531D01*
X6373753Y-14281531D02*
X6383277Y-14300579D01*
X6383277Y-14300579D02*
X6392801Y-14338674D01*
X6392801Y-14338674D02*
X6392801Y-14386293D01*
X6392801Y-14386293D02*
X6383277Y-14424388D01*
X6383277Y-14424388D02*
X6373753Y-14443436D01*
X6373753Y-14443436D02*
X6364229Y-14452960D01*
X6364229Y-14452960D02*
X6345182Y-14462484D01*
X6345182Y-14462484D02*
X6326134Y-14462484D01*
X6326134Y-14462484D02*
X6307086Y-14452960D01*
X6307086Y-14452960D02*
X6297563Y-14443436D01*
X6297563Y-14443436D02*
X6288039Y-14424388D01*
X6288039Y-14424388D02*
X6278515Y-14386293D01*
X6278515Y-14386293D02*
X6278515Y-14338674D01*
X6278515Y-14338674D02*
X6288039Y-14300579D01*
X6288039Y-14300579D02*
X6297563Y-14281531D01*
X6297563Y-14281531D02*
X6307086Y-14272008D01*
X6307086Y-14272008D02*
X6326134Y-14262484D01*
X6478515Y-14443436D02*
X6488039Y-14452960D01*
X6488039Y-14452960D02*
X6478515Y-14462484D01*
X6478515Y-14462484D02*
X6468991Y-14452960D01*
X6468991Y-14452960D02*
X6478515Y-14443436D01*
X6478515Y-14443436D02*
X6478515Y-14462484D01*
X6611848Y-14262484D02*
X6630896Y-14262484D01*
X6630896Y-14262484D02*
X6649944Y-14272008D01*
X6649944Y-14272008D02*
X6659467Y-14281531D01*
X6659467Y-14281531D02*
X6668991Y-14300579D01*
X6668991Y-14300579D02*
X6678515Y-14338674D01*
X6678515Y-14338674D02*
X6678515Y-14386293D01*
X6678515Y-14386293D02*
X6668991Y-14424388D01*
X6668991Y-14424388D02*
X6659467Y-14443436D01*
X6659467Y-14443436D02*
X6649944Y-14452960D01*
X6649944Y-14452960D02*
X6630896Y-14462484D01*
X6630896Y-14462484D02*
X6611848Y-14462484D01*
X6611848Y-14462484D02*
X6592801Y-14452960D01*
X6592801Y-14452960D02*
X6583277Y-14443436D01*
X6583277Y-14443436D02*
X6573753Y-14424388D01*
X6573753Y-14424388D02*
X6564229Y-14386293D01*
X6564229Y-14386293D02*
X6564229Y-14338674D01*
X6564229Y-14338674D02*
X6573753Y-14300579D01*
X6573753Y-14300579D02*
X6583277Y-14281531D01*
X6583277Y-14281531D02*
X6592801Y-14272008D01*
X6592801Y-14272008D02*
X6611848Y-14262484D01*
X6745182Y-14262484D02*
X6868991Y-14262484D01*
X6868991Y-14262484D02*
X6802324Y-14338674D01*
X6802324Y-14338674D02*
X6830896Y-14338674D01*
X6830896Y-14338674D02*
X6849944Y-14348198D01*
X6849944Y-14348198D02*
X6859467Y-14357722D01*
X6859467Y-14357722D02*
X6868991Y-14376769D01*
X6868991Y-14376769D02*
X6868991Y-14424388D01*
X6868991Y-14424388D02*
X6859467Y-14443436D01*
X6859467Y-14443436D02*
X6849944Y-14452960D01*
X6849944Y-14452960D02*
X6830896Y-14462484D01*
X6830896Y-14462484D02*
X6773753Y-14462484D01*
X6773753Y-14462484D02*
X6754705Y-14452960D01*
X6754705Y-14452960D02*
X6745182Y-14443436D01*
X7059467Y-14462484D02*
X6945182Y-14462484D01*
X7002324Y-14462484D02*
X7002324Y-14262484D01*
X7002324Y-14262484D02*
X6983277Y-14291055D01*
X6983277Y-14291055D02*
X6964229Y-14310103D01*
X6964229Y-14310103D02*
X6945182Y-14319627D01*
X7240420Y-14262484D02*
X7145182Y-14262484D01*
X7145182Y-14262484D02*
X7135658Y-14357722D01*
X7135658Y-14357722D02*
X7145182Y-14348198D01*
X7145182Y-14348198D02*
X7164229Y-14338674D01*
X7164229Y-14338674D02*
X7211848Y-14338674D01*
X7211848Y-14338674D02*
X7230896Y-14348198D01*
X7230896Y-14348198D02*
X7240420Y-14357722D01*
X7240420Y-14357722D02*
X7249944Y-14376769D01*
X7249944Y-14376769D02*
X7249944Y-14424388D01*
X7249944Y-14424388D02*
X7240420Y-14443436D01*
X7240420Y-14443436D02*
X7230896Y-14452960D01*
X7230896Y-14452960D02*
X7211848Y-14462484D01*
X7211848Y-14462484D02*
X7164229Y-14462484D01*
X7164229Y-14462484D02*
X7145182Y-14452960D01*
X7145182Y-14452960D02*
X7135658Y-14443436D01*
X7326134Y-14262484D02*
X7326134Y-14300579D01*
X7402325Y-14262484D02*
X7402325Y-14300579D01*
X7697563Y-14538674D02*
X7688039Y-14529150D01*
X7688039Y-14529150D02*
X7668991Y-14500579D01*
X7668991Y-14500579D02*
X7659467Y-14481531D01*
X7659467Y-14481531D02*
X7649944Y-14452960D01*
X7649944Y-14452960D02*
X7640420Y-14405341D01*
X7640420Y-14405341D02*
X7640420Y-14367246D01*
X7640420Y-14367246D02*
X7649944Y-14319627D01*
X7649944Y-14319627D02*
X7659467Y-14291055D01*
X7659467Y-14291055D02*
X7668991Y-14272008D01*
X7668991Y-14272008D02*
X7688039Y-14243436D01*
X7688039Y-14243436D02*
X7697563Y-14233912D01*
X7764229Y-14281531D02*
X7773753Y-14272008D01*
X7773753Y-14272008D02*
X7792801Y-14262484D01*
X7792801Y-14262484D02*
X7840420Y-14262484D01*
X7840420Y-14262484D02*
X7859467Y-14272008D01*
X7859467Y-14272008D02*
X7868991Y-14281531D01*
X7868991Y-14281531D02*
X7878515Y-14300579D01*
X7878515Y-14300579D02*
X7878515Y-14319627D01*
X7878515Y-14319627D02*
X7868991Y-14348198D01*
X7868991Y-14348198D02*
X7754706Y-14462484D01*
X7754706Y-14462484D02*
X7878515Y-14462484D01*
X8068991Y-14462484D02*
X7954706Y-14462484D01*
X8011848Y-14462484D02*
X8011848Y-14262484D01*
X8011848Y-14262484D02*
X7992801Y-14291055D01*
X7992801Y-14291055D02*
X7973753Y-14310103D01*
X7973753Y-14310103D02*
X7954706Y-14319627D01*
X8240420Y-14329150D02*
X8240420Y-14462484D01*
X8192801Y-14252960D02*
X8145182Y-14395817D01*
X8145182Y-14395817D02*
X8268991Y-14395817D01*
X8497563Y-14462484D02*
X8497563Y-14262484D01*
X8583277Y-14462484D02*
X8583277Y-14357722D01*
X8583277Y-14357722D02*
X8573753Y-14338674D01*
X8573753Y-14338674D02*
X8554706Y-14329150D01*
X8554706Y-14329150D02*
X8526134Y-14329150D01*
X8526134Y-14329150D02*
X8507087Y-14338674D01*
X8507087Y-14338674D02*
X8497563Y-14348198D01*
X8707087Y-14462484D02*
X8688039Y-14452960D01*
X8688039Y-14452960D02*
X8678515Y-14443436D01*
X8678515Y-14443436D02*
X8668991Y-14424388D01*
X8668991Y-14424388D02*
X8668991Y-14367246D01*
X8668991Y-14367246D02*
X8678515Y-14348198D01*
X8678515Y-14348198D02*
X8688039Y-14338674D01*
X8688039Y-14338674D02*
X8707087Y-14329150D01*
X8707087Y-14329150D02*
X8735658Y-14329150D01*
X8735658Y-14329150D02*
X8754706Y-14338674D01*
X8754706Y-14338674D02*
X8764230Y-14348198D01*
X8764230Y-14348198D02*
X8773753Y-14367246D01*
X8773753Y-14367246D02*
X8773753Y-14424388D01*
X8773753Y-14424388D02*
X8764230Y-14443436D01*
X8764230Y-14443436D02*
X8754706Y-14452960D01*
X8754706Y-14452960D02*
X8735658Y-14462484D01*
X8735658Y-14462484D02*
X8707087Y-14462484D01*
X8888039Y-14462484D02*
X8868991Y-14452960D01*
X8868991Y-14452960D02*
X8859468Y-14433912D01*
X8859468Y-14433912D02*
X8859468Y-14262484D01*
X9040420Y-14452960D02*
X9021372Y-14462484D01*
X9021372Y-14462484D02*
X8983277Y-14462484D01*
X8983277Y-14462484D02*
X8964230Y-14452960D01*
X8964230Y-14452960D02*
X8954706Y-14433912D01*
X8954706Y-14433912D02*
X8954706Y-14357722D01*
X8954706Y-14357722D02*
X8964230Y-14338674D01*
X8964230Y-14338674D02*
X8983277Y-14329150D01*
X8983277Y-14329150D02*
X9021372Y-14329150D01*
X9021372Y-14329150D02*
X9040420Y-14338674D01*
X9040420Y-14338674D02*
X9049944Y-14357722D01*
X9049944Y-14357722D02*
X9049944Y-14376769D01*
X9049944Y-14376769D02*
X8954706Y-14395817D01*
X9126134Y-14452960D02*
X9145182Y-14462484D01*
X9145182Y-14462484D02*
X9183277Y-14462484D01*
X9183277Y-14462484D02*
X9202325Y-14452960D01*
X9202325Y-14452960D02*
X9211849Y-14433912D01*
X9211849Y-14433912D02*
X9211849Y-14424388D01*
X9211849Y-14424388D02*
X9202325Y-14405341D01*
X9202325Y-14405341D02*
X9183277Y-14395817D01*
X9183277Y-14395817D02*
X9154706Y-14395817D01*
X9154706Y-14395817D02*
X9135658Y-14386293D01*
X9135658Y-14386293D02*
X9126134Y-14367246D01*
X9126134Y-14367246D02*
X9126134Y-14357722D01*
X9126134Y-14357722D02*
X9135658Y-14338674D01*
X9135658Y-14338674D02*
X9154706Y-14329150D01*
X9154706Y-14329150D02*
X9183277Y-14329150D01*
X9183277Y-14329150D02*
X9202325Y-14338674D01*
X9278515Y-14538674D02*
X9288039Y-14529150D01*
X9288039Y-14529150D02*
X9307087Y-14500579D01*
X9307087Y-14500579D02*
X9316611Y-14481531D01*
X9316611Y-14481531D02*
X9326134Y-14452960D01*
X9326134Y-14452960D02*
X9335658Y-14405341D01*
X9335658Y-14405341D02*
X9335658Y-14367246D01*
X9335658Y-14367246D02*
X9326134Y-14319627D01*
X9326134Y-14319627D02*
X9316611Y-14291055D01*
X9316611Y-14291055D02*
X9307087Y-14272008D01*
X9307087Y-14272008D02*
X9288039Y-14243436D01*
X9288039Y-14243436D02*
X9278515Y-14233912D01*
D10*
X4072500Y-14585000D02*
X4072500Y-14685000D01*
X4022500Y-14635000D02*
X4122500Y-14635000D01*
D11*
X4488039Y-14726484D02*
X4373753Y-14726484D01*
X4430896Y-14726484D02*
X4430896Y-14526484D01*
X4430896Y-14526484D02*
X4411848Y-14555055D01*
X4411848Y-14555055D02*
X4392801Y-14574103D01*
X4392801Y-14574103D02*
X4373753Y-14583627D01*
X4573753Y-14707436D02*
X4583277Y-14716960D01*
X4583277Y-14716960D02*
X4573753Y-14726484D01*
X4573753Y-14726484D02*
X4564229Y-14716960D01*
X4564229Y-14716960D02*
X4573753Y-14707436D01*
X4573753Y-14707436D02*
X4573753Y-14726484D01*
X4707086Y-14526484D02*
X4726134Y-14526484D01*
X4726134Y-14526484D02*
X4745182Y-14536008D01*
X4745182Y-14536008D02*
X4754705Y-14545531D01*
X4754705Y-14545531D02*
X4764229Y-14564579D01*
X4764229Y-14564579D02*
X4773753Y-14602674D01*
X4773753Y-14602674D02*
X4773753Y-14650293D01*
X4773753Y-14650293D02*
X4764229Y-14688388D01*
X4764229Y-14688388D02*
X4754705Y-14707436D01*
X4754705Y-14707436D02*
X4745182Y-14716960D01*
X4745182Y-14716960D02*
X4726134Y-14726484D01*
X4726134Y-14726484D02*
X4707086Y-14726484D01*
X4707086Y-14726484D02*
X4688039Y-14716960D01*
X4688039Y-14716960D02*
X4678515Y-14707436D01*
X4678515Y-14707436D02*
X4668991Y-14688388D01*
X4668991Y-14688388D02*
X4659467Y-14650293D01*
X4659467Y-14650293D02*
X4659467Y-14602674D01*
X4659467Y-14602674D02*
X4668991Y-14564579D01*
X4668991Y-14564579D02*
X4678515Y-14545531D01*
X4678515Y-14545531D02*
X4688039Y-14536008D01*
X4688039Y-14536008D02*
X4707086Y-14526484D01*
X4897562Y-14526484D02*
X4916610Y-14526484D01*
X4916610Y-14526484D02*
X4935658Y-14536008D01*
X4935658Y-14536008D02*
X4945182Y-14545531D01*
X4945182Y-14545531D02*
X4954705Y-14564579D01*
X4954705Y-14564579D02*
X4964229Y-14602674D01*
X4964229Y-14602674D02*
X4964229Y-14650293D01*
X4964229Y-14650293D02*
X4954705Y-14688388D01*
X4954705Y-14688388D02*
X4945182Y-14707436D01*
X4945182Y-14707436D02*
X4935658Y-14716960D01*
X4935658Y-14716960D02*
X4916610Y-14726484D01*
X4916610Y-14726484D02*
X4897562Y-14726484D01*
X4897562Y-14726484D02*
X4878515Y-14716960D01*
X4878515Y-14716960D02*
X4868991Y-14707436D01*
X4868991Y-14707436D02*
X4859467Y-14688388D01*
X4859467Y-14688388D02*
X4849943Y-14650293D01*
X4849943Y-14650293D02*
X4849943Y-14602674D01*
X4849943Y-14602674D02*
X4859467Y-14564579D01*
X4859467Y-14564579D02*
X4868991Y-14545531D01*
X4868991Y-14545531D02*
X4878515Y-14536008D01*
X4878515Y-14536008D02*
X4897562Y-14526484D01*
X5088039Y-14526484D02*
X5107086Y-14526484D01*
X5107086Y-14526484D02*
X5126134Y-14536008D01*
X5126134Y-14536008D02*
X5135658Y-14545531D01*
X5135658Y-14545531D02*
X5145182Y-14564579D01*
X5145182Y-14564579D02*
X5154705Y-14602674D01*
X5154705Y-14602674D02*
X5154705Y-14650293D01*
X5154705Y-14650293D02*
X5145182Y-14688388D01*
X5145182Y-14688388D02*
X5135658Y-14707436D01*
X5135658Y-14707436D02*
X5126134Y-14716960D01*
X5126134Y-14716960D02*
X5107086Y-14726484D01*
X5107086Y-14726484D02*
X5088039Y-14726484D01*
X5088039Y-14726484D02*
X5068991Y-14716960D01*
X5068991Y-14716960D02*
X5059467Y-14707436D01*
X5059467Y-14707436D02*
X5049943Y-14688388D01*
X5049943Y-14688388D02*
X5040420Y-14650293D01*
X5040420Y-14650293D02*
X5040420Y-14602674D01*
X5040420Y-14602674D02*
X5049943Y-14564579D01*
X5049943Y-14564579D02*
X5059467Y-14545531D01*
X5059467Y-14545531D02*
X5068991Y-14536008D01*
X5068991Y-14536008D02*
X5088039Y-14526484D01*
X5240420Y-14726484D02*
X5240420Y-14593150D01*
X5240420Y-14612198D02*
X5249943Y-14602674D01*
X5249943Y-14602674D02*
X5268991Y-14593150D01*
X5268991Y-14593150D02*
X5297563Y-14593150D01*
X5297563Y-14593150D02*
X5316610Y-14602674D01*
X5316610Y-14602674D02*
X5326134Y-14621722D01*
X5326134Y-14621722D02*
X5326134Y-14726484D01*
X5326134Y-14621722D02*
X5335658Y-14602674D01*
X5335658Y-14602674D02*
X5354705Y-14593150D01*
X5354705Y-14593150D02*
X5383277Y-14593150D01*
X5383277Y-14593150D02*
X5402324Y-14602674D01*
X5402324Y-14602674D02*
X5411848Y-14621722D01*
X5411848Y-14621722D02*
X5411848Y-14726484D01*
X5507086Y-14726484D02*
X5507086Y-14593150D01*
X5507086Y-14612198D02*
X5516610Y-14602674D01*
X5516610Y-14602674D02*
X5535658Y-14593150D01*
X5535658Y-14593150D02*
X5564229Y-14593150D01*
X5564229Y-14593150D02*
X5583277Y-14602674D01*
X5583277Y-14602674D02*
X5592801Y-14621722D01*
X5592801Y-14621722D02*
X5592801Y-14726484D01*
X5592801Y-14621722D02*
X5602324Y-14602674D01*
X5602324Y-14602674D02*
X5621372Y-14593150D01*
X5621372Y-14593150D02*
X5649943Y-14593150D01*
X5649943Y-14593150D02*
X5668991Y-14602674D01*
X5668991Y-14602674D02*
X5678515Y-14621722D01*
X5678515Y-14621722D02*
X5678515Y-14726484D01*
X6068991Y-14516960D02*
X5897563Y-14774103D01*
X6326134Y-14526484D02*
X6345182Y-14526484D01*
X6345182Y-14526484D02*
X6364229Y-14536008D01*
X6364229Y-14536008D02*
X6373753Y-14545531D01*
X6373753Y-14545531D02*
X6383277Y-14564579D01*
X6383277Y-14564579D02*
X6392801Y-14602674D01*
X6392801Y-14602674D02*
X6392801Y-14650293D01*
X6392801Y-14650293D02*
X6383277Y-14688388D01*
X6383277Y-14688388D02*
X6373753Y-14707436D01*
X6373753Y-14707436D02*
X6364229Y-14716960D01*
X6364229Y-14716960D02*
X6345182Y-14726484D01*
X6345182Y-14726484D02*
X6326134Y-14726484D01*
X6326134Y-14726484D02*
X6307086Y-14716960D01*
X6307086Y-14716960D02*
X6297563Y-14707436D01*
X6297563Y-14707436D02*
X6288039Y-14688388D01*
X6288039Y-14688388D02*
X6278515Y-14650293D01*
X6278515Y-14650293D02*
X6278515Y-14602674D01*
X6278515Y-14602674D02*
X6288039Y-14564579D01*
X6288039Y-14564579D02*
X6297563Y-14545531D01*
X6297563Y-14545531D02*
X6307086Y-14536008D01*
X6307086Y-14536008D02*
X6326134Y-14526484D01*
X6478515Y-14707436D02*
X6488039Y-14716960D01*
X6488039Y-14716960D02*
X6478515Y-14726484D01*
X6478515Y-14726484D02*
X6468991Y-14716960D01*
X6468991Y-14716960D02*
X6478515Y-14707436D01*
X6478515Y-14707436D02*
X6478515Y-14726484D01*
X6611848Y-14526484D02*
X6630896Y-14526484D01*
X6630896Y-14526484D02*
X6649944Y-14536008D01*
X6649944Y-14536008D02*
X6659467Y-14545531D01*
X6659467Y-14545531D02*
X6668991Y-14564579D01*
X6668991Y-14564579D02*
X6678515Y-14602674D01*
X6678515Y-14602674D02*
X6678515Y-14650293D01*
X6678515Y-14650293D02*
X6668991Y-14688388D01*
X6668991Y-14688388D02*
X6659467Y-14707436D01*
X6659467Y-14707436D02*
X6649944Y-14716960D01*
X6649944Y-14716960D02*
X6630896Y-14726484D01*
X6630896Y-14726484D02*
X6611848Y-14726484D01*
X6611848Y-14726484D02*
X6592801Y-14716960D01*
X6592801Y-14716960D02*
X6583277Y-14707436D01*
X6583277Y-14707436D02*
X6573753Y-14688388D01*
X6573753Y-14688388D02*
X6564229Y-14650293D01*
X6564229Y-14650293D02*
X6564229Y-14602674D01*
X6564229Y-14602674D02*
X6573753Y-14564579D01*
X6573753Y-14564579D02*
X6583277Y-14545531D01*
X6583277Y-14545531D02*
X6592801Y-14536008D01*
X6592801Y-14536008D02*
X6611848Y-14526484D01*
X6745182Y-14526484D02*
X6868991Y-14526484D01*
X6868991Y-14526484D02*
X6802324Y-14602674D01*
X6802324Y-14602674D02*
X6830896Y-14602674D01*
X6830896Y-14602674D02*
X6849944Y-14612198D01*
X6849944Y-14612198D02*
X6859467Y-14621722D01*
X6859467Y-14621722D02*
X6868991Y-14640769D01*
X6868991Y-14640769D02*
X6868991Y-14688388D01*
X6868991Y-14688388D02*
X6859467Y-14707436D01*
X6859467Y-14707436D02*
X6849944Y-14716960D01*
X6849944Y-14716960D02*
X6830896Y-14726484D01*
X6830896Y-14726484D02*
X6773753Y-14726484D01*
X6773753Y-14726484D02*
X6754705Y-14716960D01*
X6754705Y-14716960D02*
X6745182Y-14707436D01*
X6964229Y-14726484D02*
X7002324Y-14726484D01*
X7002324Y-14726484D02*
X7021372Y-14716960D01*
X7021372Y-14716960D02*
X7030896Y-14707436D01*
X7030896Y-14707436D02*
X7049944Y-14678865D01*
X7049944Y-14678865D02*
X7059467Y-14640769D01*
X7059467Y-14640769D02*
X7059467Y-14564579D01*
X7059467Y-14564579D02*
X7049944Y-14545531D01*
X7049944Y-14545531D02*
X7040420Y-14536008D01*
X7040420Y-14536008D02*
X7021372Y-14526484D01*
X7021372Y-14526484D02*
X6983277Y-14526484D01*
X6983277Y-14526484D02*
X6964229Y-14536008D01*
X6964229Y-14536008D02*
X6954705Y-14545531D01*
X6954705Y-14545531D02*
X6945182Y-14564579D01*
X6945182Y-14564579D02*
X6945182Y-14612198D01*
X6945182Y-14612198D02*
X6954705Y-14631246D01*
X6954705Y-14631246D02*
X6964229Y-14640769D01*
X6964229Y-14640769D02*
X6983277Y-14650293D01*
X6983277Y-14650293D02*
X7021372Y-14650293D01*
X7021372Y-14650293D02*
X7040420Y-14640769D01*
X7040420Y-14640769D02*
X7049944Y-14631246D01*
X7049944Y-14631246D02*
X7059467Y-14612198D01*
X7230896Y-14593150D02*
X7230896Y-14726484D01*
X7183277Y-14516960D02*
X7135658Y-14659817D01*
X7135658Y-14659817D02*
X7259467Y-14659817D01*
X7326134Y-14526484D02*
X7326134Y-14564579D01*
X7402325Y-14526484D02*
X7402325Y-14564579D01*
X7697563Y-14802674D02*
X7688039Y-14793150D01*
X7688039Y-14793150D02*
X7668991Y-14764579D01*
X7668991Y-14764579D02*
X7659467Y-14745531D01*
X7659467Y-14745531D02*
X7649944Y-14716960D01*
X7649944Y-14716960D02*
X7640420Y-14669341D01*
X7640420Y-14669341D02*
X7640420Y-14631246D01*
X7640420Y-14631246D02*
X7649944Y-14583627D01*
X7649944Y-14583627D02*
X7659467Y-14555055D01*
X7659467Y-14555055D02*
X7668991Y-14536008D01*
X7668991Y-14536008D02*
X7688039Y-14507436D01*
X7688039Y-14507436D02*
X7697563Y-14497912D01*
X7783277Y-14726484D02*
X7821372Y-14726484D01*
X7821372Y-14726484D02*
X7840420Y-14716960D01*
X7840420Y-14716960D02*
X7849944Y-14707436D01*
X7849944Y-14707436D02*
X7868991Y-14678865D01*
X7868991Y-14678865D02*
X7878515Y-14640769D01*
X7878515Y-14640769D02*
X7878515Y-14564579D01*
X7878515Y-14564579D02*
X7868991Y-14545531D01*
X7868991Y-14545531D02*
X7859467Y-14536008D01*
X7859467Y-14536008D02*
X7840420Y-14526484D01*
X7840420Y-14526484D02*
X7802325Y-14526484D01*
X7802325Y-14526484D02*
X7783277Y-14536008D01*
X7783277Y-14536008D02*
X7773753Y-14545531D01*
X7773753Y-14545531D02*
X7764229Y-14564579D01*
X7764229Y-14564579D02*
X7764229Y-14612198D01*
X7764229Y-14612198D02*
X7773753Y-14631246D01*
X7773753Y-14631246D02*
X7783277Y-14640769D01*
X7783277Y-14640769D02*
X7802325Y-14650293D01*
X7802325Y-14650293D02*
X7840420Y-14650293D01*
X7840420Y-14650293D02*
X7859467Y-14640769D01*
X7859467Y-14640769D02*
X7868991Y-14631246D01*
X7868991Y-14631246D02*
X7878515Y-14612198D01*
X8059467Y-14526484D02*
X7964229Y-14526484D01*
X7964229Y-14526484D02*
X7954706Y-14621722D01*
X7954706Y-14621722D02*
X7964229Y-14612198D01*
X7964229Y-14612198D02*
X7983277Y-14602674D01*
X7983277Y-14602674D02*
X8030896Y-14602674D01*
X8030896Y-14602674D02*
X8049944Y-14612198D01*
X8049944Y-14612198D02*
X8059467Y-14621722D01*
X8059467Y-14621722D02*
X8068991Y-14640769D01*
X8068991Y-14640769D02*
X8068991Y-14688388D01*
X8068991Y-14688388D02*
X8059467Y-14707436D01*
X8059467Y-14707436D02*
X8049944Y-14716960D01*
X8049944Y-14716960D02*
X8030896Y-14726484D01*
X8030896Y-14726484D02*
X7983277Y-14726484D01*
X7983277Y-14726484D02*
X7964229Y-14716960D01*
X7964229Y-14716960D02*
X7954706Y-14707436D01*
X8307087Y-14726484D02*
X8307087Y-14526484D01*
X8392801Y-14726484D02*
X8392801Y-14621722D01*
X8392801Y-14621722D02*
X8383277Y-14602674D01*
X8383277Y-14602674D02*
X8364229Y-14593150D01*
X8364229Y-14593150D02*
X8335658Y-14593150D01*
X8335658Y-14593150D02*
X8316610Y-14602674D01*
X8316610Y-14602674D02*
X8307087Y-14612198D01*
X8516610Y-14726484D02*
X8497563Y-14716960D01*
X8497563Y-14716960D02*
X8488039Y-14707436D01*
X8488039Y-14707436D02*
X8478515Y-14688388D01*
X8478515Y-14688388D02*
X8478515Y-14631246D01*
X8478515Y-14631246D02*
X8488039Y-14612198D01*
X8488039Y-14612198D02*
X8497563Y-14602674D01*
X8497563Y-14602674D02*
X8516610Y-14593150D01*
X8516610Y-14593150D02*
X8545182Y-14593150D01*
X8545182Y-14593150D02*
X8564230Y-14602674D01*
X8564230Y-14602674D02*
X8573753Y-14612198D01*
X8573753Y-14612198D02*
X8583277Y-14631246D01*
X8583277Y-14631246D02*
X8583277Y-14688388D01*
X8583277Y-14688388D02*
X8573753Y-14707436D01*
X8573753Y-14707436D02*
X8564230Y-14716960D01*
X8564230Y-14716960D02*
X8545182Y-14726484D01*
X8545182Y-14726484D02*
X8516610Y-14726484D01*
X8697563Y-14726484D02*
X8678515Y-14716960D01*
X8678515Y-14716960D02*
X8668991Y-14697912D01*
X8668991Y-14697912D02*
X8668991Y-14526484D01*
X8849944Y-14716960D02*
X8830896Y-14726484D01*
X8830896Y-14726484D02*
X8792801Y-14726484D01*
X8792801Y-14726484D02*
X8773753Y-14716960D01*
X8773753Y-14716960D02*
X8764230Y-14697912D01*
X8764230Y-14697912D02*
X8764230Y-14621722D01*
X8764230Y-14621722D02*
X8773753Y-14602674D01*
X8773753Y-14602674D02*
X8792801Y-14593150D01*
X8792801Y-14593150D02*
X8830896Y-14593150D01*
X8830896Y-14593150D02*
X8849944Y-14602674D01*
X8849944Y-14602674D02*
X8859468Y-14621722D01*
X8859468Y-14621722D02*
X8859468Y-14640769D01*
X8859468Y-14640769D02*
X8764230Y-14659817D01*
X8935658Y-14716960D02*
X8954706Y-14726484D01*
X8954706Y-14726484D02*
X8992801Y-14726484D01*
X8992801Y-14726484D02*
X9011849Y-14716960D01*
X9011849Y-14716960D02*
X9021372Y-14697912D01*
X9021372Y-14697912D02*
X9021372Y-14688388D01*
X9021372Y-14688388D02*
X9011849Y-14669341D01*
X9011849Y-14669341D02*
X8992801Y-14659817D01*
X8992801Y-14659817D02*
X8964230Y-14659817D01*
X8964230Y-14659817D02*
X8945182Y-14650293D01*
X8945182Y-14650293D02*
X8935658Y-14631246D01*
X8935658Y-14631246D02*
X8935658Y-14621722D01*
X8935658Y-14621722D02*
X8945182Y-14602674D01*
X8945182Y-14602674D02*
X8964230Y-14593150D01*
X8964230Y-14593150D02*
X8992801Y-14593150D01*
X8992801Y-14593150D02*
X9011849Y-14602674D01*
X9088039Y-14802674D02*
X9097563Y-14793150D01*
X9097563Y-14793150D02*
X9116611Y-14764579D01*
X9116611Y-14764579D02*
X9126134Y-14745531D01*
X9126134Y-14745531D02*
X9135658Y-14716960D01*
X9135658Y-14716960D02*
X9145182Y-14669341D01*
X9145182Y-14669341D02*
X9145182Y-14631246D01*
X9145182Y-14631246D02*
X9135658Y-14583627D01*
X9135658Y-14583627D02*
X9126134Y-14555055D01*
X9126134Y-14555055D02*
X9116611Y-14536008D01*
X9116611Y-14536008D02*
X9097563Y-14507436D01*
X9097563Y-14507436D02*
X9088039Y-14497912D01*
X4093211Y-14969711D02*
X4093211Y-14828289D01*
X3951788Y-14828289D01*
X3951788Y-14969711D01*
X4093211Y-14969711D01*
X4364229Y-14790484D02*
X4488039Y-14790484D01*
X4488039Y-14790484D02*
X4421372Y-14866674D01*
X4421372Y-14866674D02*
X4449943Y-14866674D01*
X4449943Y-14866674D02*
X4468991Y-14876198D01*
X4468991Y-14876198D02*
X4478515Y-14885722D01*
X4478515Y-14885722D02*
X4488039Y-14904769D01*
X4488039Y-14904769D02*
X4488039Y-14952388D01*
X4488039Y-14952388D02*
X4478515Y-14971436D01*
X4478515Y-14971436D02*
X4468991Y-14980960D01*
X4468991Y-14980960D02*
X4449943Y-14990484D01*
X4449943Y-14990484D02*
X4392801Y-14990484D01*
X4392801Y-14990484D02*
X4373753Y-14980960D01*
X4373753Y-14980960D02*
X4364229Y-14971436D01*
X4573753Y-14971436D02*
X4583277Y-14980960D01*
X4583277Y-14980960D02*
X4573753Y-14990484D01*
X4573753Y-14990484D02*
X4564229Y-14980960D01*
X4564229Y-14980960D02*
X4573753Y-14971436D01*
X4573753Y-14971436D02*
X4573753Y-14990484D01*
X4659467Y-14809531D02*
X4668991Y-14800008D01*
X4668991Y-14800008D02*
X4688039Y-14790484D01*
X4688039Y-14790484D02*
X4735658Y-14790484D01*
X4735658Y-14790484D02*
X4754705Y-14800008D01*
X4754705Y-14800008D02*
X4764229Y-14809531D01*
X4764229Y-14809531D02*
X4773753Y-14828579D01*
X4773753Y-14828579D02*
X4773753Y-14847627D01*
X4773753Y-14847627D02*
X4764229Y-14876198D01*
X4764229Y-14876198D02*
X4649943Y-14990484D01*
X4649943Y-14990484D02*
X4773753Y-14990484D01*
X4897562Y-14790484D02*
X4916610Y-14790484D01*
X4916610Y-14790484D02*
X4935658Y-14800008D01*
X4935658Y-14800008D02*
X4945182Y-14809531D01*
X4945182Y-14809531D02*
X4954705Y-14828579D01*
X4954705Y-14828579D02*
X4964229Y-14866674D01*
X4964229Y-14866674D02*
X4964229Y-14914293D01*
X4964229Y-14914293D02*
X4954705Y-14952388D01*
X4954705Y-14952388D02*
X4945182Y-14971436D01*
X4945182Y-14971436D02*
X4935658Y-14980960D01*
X4935658Y-14980960D02*
X4916610Y-14990484D01*
X4916610Y-14990484D02*
X4897562Y-14990484D01*
X4897562Y-14990484D02*
X4878515Y-14980960D01*
X4878515Y-14980960D02*
X4868991Y-14971436D01*
X4868991Y-14971436D02*
X4859467Y-14952388D01*
X4859467Y-14952388D02*
X4849943Y-14914293D01*
X4849943Y-14914293D02*
X4849943Y-14866674D01*
X4849943Y-14866674D02*
X4859467Y-14828579D01*
X4859467Y-14828579D02*
X4868991Y-14809531D01*
X4868991Y-14809531D02*
X4878515Y-14800008D01*
X4878515Y-14800008D02*
X4897562Y-14790484D01*
X5088039Y-14790484D02*
X5107086Y-14790484D01*
X5107086Y-14790484D02*
X5126134Y-14800008D01*
X5126134Y-14800008D02*
X5135658Y-14809531D01*
X5135658Y-14809531D02*
X5145182Y-14828579D01*
X5145182Y-14828579D02*
X5154705Y-14866674D01*
X5154705Y-14866674D02*
X5154705Y-14914293D01*
X5154705Y-14914293D02*
X5145182Y-14952388D01*
X5145182Y-14952388D02*
X5135658Y-14971436D01*
X5135658Y-14971436D02*
X5126134Y-14980960D01*
X5126134Y-14980960D02*
X5107086Y-14990484D01*
X5107086Y-14990484D02*
X5088039Y-14990484D01*
X5088039Y-14990484D02*
X5068991Y-14980960D01*
X5068991Y-14980960D02*
X5059467Y-14971436D01*
X5059467Y-14971436D02*
X5049943Y-14952388D01*
X5049943Y-14952388D02*
X5040420Y-14914293D01*
X5040420Y-14914293D02*
X5040420Y-14866674D01*
X5040420Y-14866674D02*
X5049943Y-14828579D01*
X5049943Y-14828579D02*
X5059467Y-14809531D01*
X5059467Y-14809531D02*
X5068991Y-14800008D01*
X5068991Y-14800008D02*
X5088039Y-14790484D01*
X5240420Y-14990484D02*
X5240420Y-14857150D01*
X5240420Y-14876198D02*
X5249943Y-14866674D01*
X5249943Y-14866674D02*
X5268991Y-14857150D01*
X5268991Y-14857150D02*
X5297563Y-14857150D01*
X5297563Y-14857150D02*
X5316610Y-14866674D01*
X5316610Y-14866674D02*
X5326134Y-14885722D01*
X5326134Y-14885722D02*
X5326134Y-14990484D01*
X5326134Y-14885722D02*
X5335658Y-14866674D01*
X5335658Y-14866674D02*
X5354705Y-14857150D01*
X5354705Y-14857150D02*
X5383277Y-14857150D01*
X5383277Y-14857150D02*
X5402324Y-14866674D01*
X5402324Y-14866674D02*
X5411848Y-14885722D01*
X5411848Y-14885722D02*
X5411848Y-14990484D01*
X5507086Y-14990484D02*
X5507086Y-14857150D01*
X5507086Y-14876198D02*
X5516610Y-14866674D01*
X5516610Y-14866674D02*
X5535658Y-14857150D01*
X5535658Y-14857150D02*
X5564229Y-14857150D01*
X5564229Y-14857150D02*
X5583277Y-14866674D01*
X5583277Y-14866674D02*
X5592801Y-14885722D01*
X5592801Y-14885722D02*
X5592801Y-14990484D01*
X5592801Y-14885722D02*
X5602324Y-14866674D01*
X5602324Y-14866674D02*
X5621372Y-14857150D01*
X5621372Y-14857150D02*
X5649943Y-14857150D01*
X5649943Y-14857150D02*
X5668991Y-14866674D01*
X5668991Y-14866674D02*
X5678515Y-14885722D01*
X5678515Y-14885722D02*
X5678515Y-14990484D01*
X6068991Y-14780960D02*
X5897563Y-15038103D01*
X6326134Y-14790484D02*
X6345182Y-14790484D01*
X6345182Y-14790484D02*
X6364229Y-14800008D01*
X6364229Y-14800008D02*
X6373753Y-14809531D01*
X6373753Y-14809531D02*
X6383277Y-14828579D01*
X6383277Y-14828579D02*
X6392801Y-14866674D01*
X6392801Y-14866674D02*
X6392801Y-14914293D01*
X6392801Y-14914293D02*
X6383277Y-14952388D01*
X6383277Y-14952388D02*
X6373753Y-14971436D01*
X6373753Y-14971436D02*
X6364229Y-14980960D01*
X6364229Y-14980960D02*
X6345182Y-14990484D01*
X6345182Y-14990484D02*
X6326134Y-14990484D01*
X6326134Y-14990484D02*
X6307086Y-14980960D01*
X6307086Y-14980960D02*
X6297563Y-14971436D01*
X6297563Y-14971436D02*
X6288039Y-14952388D01*
X6288039Y-14952388D02*
X6278515Y-14914293D01*
X6278515Y-14914293D02*
X6278515Y-14866674D01*
X6278515Y-14866674D02*
X6288039Y-14828579D01*
X6288039Y-14828579D02*
X6297563Y-14809531D01*
X6297563Y-14809531D02*
X6307086Y-14800008D01*
X6307086Y-14800008D02*
X6326134Y-14790484D01*
X6478515Y-14971436D02*
X6488039Y-14980960D01*
X6488039Y-14980960D02*
X6478515Y-14990484D01*
X6478515Y-14990484D02*
X6468991Y-14980960D01*
X6468991Y-14980960D02*
X6478515Y-14971436D01*
X6478515Y-14971436D02*
X6478515Y-14990484D01*
X6678515Y-14990484D02*
X6564229Y-14990484D01*
X6621372Y-14990484D02*
X6621372Y-14790484D01*
X6621372Y-14790484D02*
X6602324Y-14819055D01*
X6602324Y-14819055D02*
X6583277Y-14838103D01*
X6583277Y-14838103D02*
X6564229Y-14847627D01*
X6754705Y-14809531D02*
X6764229Y-14800008D01*
X6764229Y-14800008D02*
X6783277Y-14790484D01*
X6783277Y-14790484D02*
X6830896Y-14790484D01*
X6830896Y-14790484D02*
X6849944Y-14800008D01*
X6849944Y-14800008D02*
X6859467Y-14809531D01*
X6859467Y-14809531D02*
X6868991Y-14828579D01*
X6868991Y-14828579D02*
X6868991Y-14847627D01*
X6868991Y-14847627D02*
X6859467Y-14876198D01*
X6859467Y-14876198D02*
X6745182Y-14990484D01*
X6745182Y-14990484D02*
X6868991Y-14990484D01*
X7040420Y-14790484D02*
X7002324Y-14790484D01*
X7002324Y-14790484D02*
X6983277Y-14800008D01*
X6983277Y-14800008D02*
X6973753Y-14809531D01*
X6973753Y-14809531D02*
X6954705Y-14838103D01*
X6954705Y-14838103D02*
X6945182Y-14876198D01*
X6945182Y-14876198D02*
X6945182Y-14952388D01*
X6945182Y-14952388D02*
X6954705Y-14971436D01*
X6954705Y-14971436D02*
X6964229Y-14980960D01*
X6964229Y-14980960D02*
X6983277Y-14990484D01*
X6983277Y-14990484D02*
X7021372Y-14990484D01*
X7021372Y-14990484D02*
X7040420Y-14980960D01*
X7040420Y-14980960D02*
X7049944Y-14971436D01*
X7049944Y-14971436D02*
X7059467Y-14952388D01*
X7059467Y-14952388D02*
X7059467Y-14904769D01*
X7059467Y-14904769D02*
X7049944Y-14885722D01*
X7049944Y-14885722D02*
X7040420Y-14876198D01*
X7040420Y-14876198D02*
X7021372Y-14866674D01*
X7021372Y-14866674D02*
X6983277Y-14866674D01*
X6983277Y-14866674D02*
X6964229Y-14876198D01*
X6964229Y-14876198D02*
X6954705Y-14885722D01*
X6954705Y-14885722D02*
X6945182Y-14904769D01*
X7183277Y-14790484D02*
X7202325Y-14790484D01*
X7202325Y-14790484D02*
X7221372Y-14800008D01*
X7221372Y-14800008D02*
X7230896Y-14809531D01*
X7230896Y-14809531D02*
X7240420Y-14828579D01*
X7240420Y-14828579D02*
X7249944Y-14866674D01*
X7249944Y-14866674D02*
X7249944Y-14914293D01*
X7249944Y-14914293D02*
X7240420Y-14952388D01*
X7240420Y-14952388D02*
X7230896Y-14971436D01*
X7230896Y-14971436D02*
X7221372Y-14980960D01*
X7221372Y-14980960D02*
X7202325Y-14990484D01*
X7202325Y-14990484D02*
X7183277Y-14990484D01*
X7183277Y-14990484D02*
X7164229Y-14980960D01*
X7164229Y-14980960D02*
X7154705Y-14971436D01*
X7154705Y-14971436D02*
X7145182Y-14952388D01*
X7145182Y-14952388D02*
X7135658Y-14914293D01*
X7135658Y-14914293D02*
X7135658Y-14866674D01*
X7135658Y-14866674D02*
X7145182Y-14828579D01*
X7145182Y-14828579D02*
X7154705Y-14809531D01*
X7154705Y-14809531D02*
X7164229Y-14800008D01*
X7164229Y-14800008D02*
X7183277Y-14790484D01*
X7326134Y-14790484D02*
X7326134Y-14828579D01*
X7402325Y-14790484D02*
X7402325Y-14828579D01*
X7697563Y-15066674D02*
X7688039Y-15057150D01*
X7688039Y-15057150D02*
X7668991Y-15028579D01*
X7668991Y-15028579D02*
X7659467Y-15009531D01*
X7659467Y-15009531D02*
X7649944Y-14980960D01*
X7649944Y-14980960D02*
X7640420Y-14933341D01*
X7640420Y-14933341D02*
X7640420Y-14895246D01*
X7640420Y-14895246D02*
X7649944Y-14847627D01*
X7649944Y-14847627D02*
X7659467Y-14819055D01*
X7659467Y-14819055D02*
X7668991Y-14800008D01*
X7668991Y-14800008D02*
X7688039Y-14771436D01*
X7688039Y-14771436D02*
X7697563Y-14761912D01*
X7859467Y-14857150D02*
X7859467Y-14990484D01*
X7811848Y-14780960D02*
X7764229Y-14923817D01*
X7764229Y-14923817D02*
X7888039Y-14923817D01*
X8116610Y-14990484D02*
X8116610Y-14790484D01*
X8202325Y-14990484D02*
X8202325Y-14885722D01*
X8202325Y-14885722D02*
X8192801Y-14866674D01*
X8192801Y-14866674D02*
X8173753Y-14857150D01*
X8173753Y-14857150D02*
X8145182Y-14857150D01*
X8145182Y-14857150D02*
X8126134Y-14866674D01*
X8126134Y-14866674D02*
X8116610Y-14876198D01*
X8326134Y-14990484D02*
X8307087Y-14980960D01*
X8307087Y-14980960D02*
X8297563Y-14971436D01*
X8297563Y-14971436D02*
X8288039Y-14952388D01*
X8288039Y-14952388D02*
X8288039Y-14895246D01*
X8288039Y-14895246D02*
X8297563Y-14876198D01*
X8297563Y-14876198D02*
X8307087Y-14866674D01*
X8307087Y-14866674D02*
X8326134Y-14857150D01*
X8326134Y-14857150D02*
X8354706Y-14857150D01*
X8354706Y-14857150D02*
X8373753Y-14866674D01*
X8373753Y-14866674D02*
X8383277Y-14876198D01*
X8383277Y-14876198D02*
X8392801Y-14895246D01*
X8392801Y-14895246D02*
X8392801Y-14952388D01*
X8392801Y-14952388D02*
X8383277Y-14971436D01*
X8383277Y-14971436D02*
X8373753Y-14980960D01*
X8373753Y-14980960D02*
X8354706Y-14990484D01*
X8354706Y-14990484D02*
X8326134Y-14990484D01*
X8507087Y-14990484D02*
X8488039Y-14980960D01*
X8488039Y-14980960D02*
X8478515Y-14961912D01*
X8478515Y-14961912D02*
X8478515Y-14790484D01*
X8659468Y-14980960D02*
X8640420Y-14990484D01*
X8640420Y-14990484D02*
X8602325Y-14990484D01*
X8602325Y-14990484D02*
X8583277Y-14980960D01*
X8583277Y-14980960D02*
X8573753Y-14961912D01*
X8573753Y-14961912D02*
X8573753Y-14885722D01*
X8573753Y-14885722D02*
X8583277Y-14866674D01*
X8583277Y-14866674D02*
X8602325Y-14857150D01*
X8602325Y-14857150D02*
X8640420Y-14857150D01*
X8640420Y-14857150D02*
X8659468Y-14866674D01*
X8659468Y-14866674D02*
X8668991Y-14885722D01*
X8668991Y-14885722D02*
X8668991Y-14904769D01*
X8668991Y-14904769D02*
X8573753Y-14923817D01*
X8745182Y-14980960D02*
X8764230Y-14990484D01*
X8764230Y-14990484D02*
X8802325Y-14990484D01*
X8802325Y-14990484D02*
X8821372Y-14980960D01*
X8821372Y-14980960D02*
X8830896Y-14961912D01*
X8830896Y-14961912D02*
X8830896Y-14952388D01*
X8830896Y-14952388D02*
X8821372Y-14933341D01*
X8821372Y-14933341D02*
X8802325Y-14923817D01*
X8802325Y-14923817D02*
X8773753Y-14923817D01*
X8773753Y-14923817D02*
X8754706Y-14914293D01*
X8754706Y-14914293D02*
X8745182Y-14895246D01*
X8745182Y-14895246D02*
X8745182Y-14885722D01*
X8745182Y-14885722D02*
X8754706Y-14866674D01*
X8754706Y-14866674D02*
X8773753Y-14857150D01*
X8773753Y-14857150D02*
X8802325Y-14857150D01*
X8802325Y-14857150D02*
X8821372Y-14866674D01*
X8897563Y-15066674D02*
X8907087Y-15057150D01*
X8907087Y-15057150D02*
X8926134Y-15028579D01*
X8926134Y-15028579D02*
X8935658Y-15009531D01*
X8935658Y-15009531D02*
X8945182Y-14980960D01*
X8945182Y-14980960D02*
X8954706Y-14933341D01*
X8954706Y-14933341D02*
X8954706Y-14895246D01*
X8954706Y-14895246D02*
X8945182Y-14847627D01*
X8945182Y-14847627D02*
X8935658Y-14819055D01*
X8935658Y-14819055D02*
X8926134Y-14800008D01*
X8926134Y-14800008D02*
X8907087Y-14771436D01*
X8907087Y-14771436D02*
X8897563Y-14761912D01*
M02*
