G04 #@! TF.GenerationSoftware,KiCad,Pcbnew,9.0.1*
G04 #@! TF.CreationDate,2025-05-09T00:39:39+02:00*
G04 #@! TF.ProjectId,DistributedPulseModulation,44697374-7269-4627-9574-656450756c73,rev?*
G04 #@! TF.SameCoordinates,Original*
G04 #@! TF.FileFunction,Legend,Top*
G04 #@! TF.FilePolarity,Positive*
%FSLAX46Y46*%
G04 Gerber Fmt 4.6, Leading zero omitted, Abs format (unit mm)*
G04 Created by KiCad (PCBNEW 9.0.1) date 2025-05-09 00:39:39*
%MOMM*%
%LPD*%
G01*
G04 APERTURE LIST*
G04 Aperture macros list*
%AMRoundRect*
0 Rectangle with rounded corners*
0 $1 Rounding radius*
0 $2 $3 $4 $5 $6 $7 $8 $9 X,Y pos of 4 corners*
0 Add a 4 corners polygon primitive as box body*
4,1,4,$2,$3,$4,$5,$6,$7,$8,$9,$2,$3,0*
0 Add four circle primitives for the rounded corners*
1,1,$1+$1,$2,$3*
1,1,$1+$1,$4,$5*
1,1,$1+$1,$6,$7*
1,1,$1+$1,$8,$9*
0 Add four rect primitives between the rounded corners*
20,1,$1+$1,$2,$3,$4,$5,0*
20,1,$1+$1,$4,$5,$6,$7,0*
20,1,$1+$1,$6,$7,$8,$9,0*
20,1,$1+$1,$8,$9,$2,$3,0*%
%AMFreePoly0*
4,1,18,0.558779,0.830902,0.583205,0.805470,1.083205,0.055470,1.099919,-0.004031,1.083205,-0.055470,0.583205,-0.805470,0.534710,-0.843783,0.500000,-0.850000,-0.500000,-0.850000,-0.558779,-0.830902,-0.595106,-0.780902,-0.600000,-0.750000,-0.600000,0.750000,-0.580902,0.808779,-0.530902,0.845106,-0.500000,0.850000,0.500000,0.850000,0.558779,0.830902,0.558779,0.830902,$1*%
%AMFreePoly1*
4,1,20,0.558779,0.830902,0.595106,0.780902,0.600000,0.750000,0.600000,-0.750000,0.580902,-0.808779,0.530902,-0.845106,0.500000,-0.850000,-0.650000,-0.850000,-0.708779,-0.830902,-0.745106,-0.780902,-0.745106,-0.719098,-0.733205,-0.694530,-0.270185,0.000000,-0.733205,0.694530,-0.749919,0.754031,-0.728467,0.811992,-0.677043,0.846274,-0.650000,0.850000,0.500000,0.850000,0.558779,0.830902,
0.558779,0.830902,$1*%
G04 Aperture macros list end*
%ADD10C,0.150000*%
%ADD11C,0.500000*%
%ADD12C,1.000000*%
%ADD13C,0.125000*%
%ADD14C,0.120000*%
%ADD15C,0.000000*%
%ADD16C,1.700000*%
%ADD17C,1.800000*%
%ADD18O,1.800000X1.800000*%
%ADD19FreePoly0,180.000000*%
%ADD20FreePoly1,180.000000*%
%ADD21RoundRect,0.100000X0.850000X-0.850000X0.850000X0.850000X-0.850000X0.850000X-0.850000X-0.850000X0*%
%ADD22RoundRect,0.281250X0.618750X0.618750X-0.618750X0.618750X-0.618750X-0.618750X0.618750X-0.618750X0*%
%ADD23C,1.000000*%
%ADD24C,6.600000*%
%ADD25RoundRect,0.287735X-0.474765X-0.712265X0.474765X-0.712265X0.474765X0.712265X-0.474765X0.712265X0*%
%ADD26RoundRect,0.281250X-0.618750X-0.618750X0.618750X-0.618750X0.618750X0.618750X-0.618750X0.618750X0*%
%ADD27RoundRect,0.285088X-0.527412X-0.689912X0.527412X-0.689912X0.527412X0.689912X-0.527412X0.689912X0*%
%ADD28RoundRect,0.100000X0.850000X0.850000X-0.850000X0.850000X-0.850000X-0.850000X0.850000X-0.850000X0*%
%ADD29C,1.900000*%
%ADD30RoundRect,0.281250X1.018750X0.618750X-1.018750X0.618750X-1.018750X-0.618750X1.018750X-0.618750X0*%
%ADD31O,2.600000X1.800000*%
%ADD32RoundRect,0.281250X-0.618750X0.618750X-0.618750X-0.618750X0.618750X-0.618750X0.618750X0.618750X0*%
%ADD33RoundRect,0.425000X-0.675000X-0.425000X0.675000X-0.425000X0.675000X0.425000X-0.675000X0.425000X0*%
%ADD34RoundRect,0.550000X-0.550000X-1.450000X0.550000X-1.450000X0.550000X1.450000X-0.550000X1.450000X0*%
%ADD35RoundRect,0.273810X0.876190X0.876190X-0.876190X0.876190X-0.876190X-0.876190X0.876190X-0.876190X0*%
%ADD36C,2.300000*%
%ADD37RoundRect,0.288462X-0.461538X-0.686538X0.461538X-0.686538X0.461538X0.686538X-0.461538X0.686538X0*%
%ADD38RoundRect,0.100000X-0.850000X-0.850000X0.850000X-0.850000X0.850000X0.850000X-0.850000X0.850000X0*%
%ADD39RoundRect,0.285088X0.527412X0.689912X-0.527412X0.689912X-0.527412X-0.689912X0.527412X-0.689912X0*%
%ADD40RoundRect,0.287735X-0.712265X0.474765X-0.712265X-0.474765X0.712265X-0.474765X0.712265X0.474765X0*%
%ADD41RoundRect,0.100000X0.800000X-0.150000X0.800000X0.150000X-0.800000X0.150000X-0.800000X-0.150000X0*%
%ADD42RoundRect,0.100000X-0.850000X0.850000X-0.850000X-0.850000X0.850000X-0.850000X0.850000X0.850000X0*%
G04 APERTURE END LIST*
D10*
X83185000Y-81915000D02*
X88265000Y-81915000D01*
X88265000Y-107315000D01*
X83185000Y-107315000D01*
X83185000Y-81915000D01*
X90170000Y-107950000D02*
X91440000Y-107950000D01*
X91440000Y-111760000D01*
X90170000Y-111760000D01*
X90170000Y-107950000D01*
G36*
X90170000Y-107950000D02*
G01*
X91440000Y-107950000D01*
X91440000Y-111760000D01*
X90170000Y-111760000D01*
X90170000Y-107950000D01*
G37*
X83820000Y-100330000D02*
X87630000Y-100330000D01*
X87630000Y-101600000D01*
X83820000Y-101600000D01*
X83820000Y-100330000D01*
G36*
X83820000Y-100330000D02*
G01*
X87630000Y-100330000D01*
X87630000Y-101600000D01*
X83820000Y-101600000D01*
X83820000Y-100330000D01*
G37*
X89535000Y-81915000D02*
X94615000Y-81915000D01*
X94615000Y-102235000D01*
X89535000Y-102235000D01*
X89535000Y-81915000D01*
X83820000Y-107950000D02*
X87630000Y-107950000D01*
X87630000Y-109220000D01*
X83820000Y-109220000D01*
X83820000Y-107950000D01*
G36*
X83820000Y-107950000D02*
G01*
X87630000Y-107950000D01*
X87630000Y-109220000D01*
X83820000Y-109220000D01*
X83820000Y-107950000D01*
G37*
X83820000Y-105410000D02*
X87630000Y-105410000D01*
X87630000Y-106680000D01*
X83820000Y-106680000D01*
X83820000Y-105410000D01*
G36*
X83820000Y-105410000D02*
G01*
X87630000Y-105410000D01*
X87630000Y-106680000D01*
X83820000Y-106680000D01*
X83820000Y-105410000D01*
G37*
X92710000Y-87630000D02*
X93980000Y-87630000D01*
X93980000Y-91440000D01*
X92710000Y-91440000D01*
X92710000Y-87630000D01*
G36*
X92710000Y-87630000D02*
G01*
X93980000Y-87630000D01*
X93980000Y-91440000D01*
X92710000Y-91440000D01*
X92710000Y-87630000D01*
G37*
X83185000Y-81915000D02*
X88265000Y-81915000D01*
X88265000Y-94615000D01*
X83185000Y-94615000D01*
X83185000Y-81915000D01*
D11*
X58420000Y-59690000D02*
X54610000Y-55880000D01*
D10*
X83820000Y-97790000D02*
X87630000Y-97790000D01*
X87630000Y-99060000D01*
X83820000Y-99060000D01*
X83820000Y-97790000D01*
G36*
X83820000Y-97790000D02*
G01*
X87630000Y-97790000D01*
X87630000Y-99060000D01*
X83820000Y-99060000D01*
X83820000Y-97790000D01*
G37*
X59055000Y-80645000D02*
X59055000Y-81915000D01*
D12*
X63500000Y-116841087D02*
X60960000Y-116840000D01*
D10*
X89535000Y-81915000D02*
X94615000Y-81915000D01*
X94615000Y-94615000D01*
X89535000Y-94615000D01*
X89535000Y-81915000D01*
X62230000Y-80645000D02*
X62230000Y-81915000D01*
X83185000Y-81915000D02*
X88265000Y-81915000D01*
X88265000Y-109855000D01*
X83185000Y-109855000D01*
X83185000Y-81915000D01*
X83820000Y-82550000D02*
X87630000Y-82550000D01*
X87630000Y-83820000D01*
X83820000Y-83820000D01*
X83820000Y-82550000D01*
G36*
X83820000Y-82550000D02*
G01*
X87630000Y-82550000D01*
X87630000Y-83820000D01*
X83820000Y-83820000D01*
X83820000Y-82550000D01*
G37*
X83820000Y-90170000D02*
X87630000Y-90170000D01*
X87630000Y-91440000D01*
X83820000Y-91440000D01*
X83820000Y-90170000D01*
G36*
X83820000Y-90170000D02*
G01*
X87630000Y-90170000D01*
X87630000Y-91440000D01*
X83820000Y-91440000D01*
X83820000Y-90170000D01*
G37*
X89535000Y-81915000D02*
X94615000Y-81915000D01*
X94615000Y-99695000D01*
X89535000Y-99695000D01*
X89535000Y-81915000D01*
X89535000Y-81915000D02*
X94615000Y-81915000D01*
X94615000Y-86995000D01*
X89535000Y-86995000D01*
X89535000Y-81915000D01*
D11*
X52705000Y-55880000D02*
X54610000Y-55880000D01*
D10*
X90170000Y-92710000D02*
X91440000Y-92710000D01*
X91440000Y-96520000D01*
X90170000Y-96520000D01*
X90170000Y-92710000D01*
G36*
X90170000Y-92710000D02*
G01*
X91440000Y-92710000D01*
X91440000Y-96520000D01*
X90170000Y-96520000D01*
X90170000Y-92710000D01*
G37*
X83185000Y-81915000D02*
X88265000Y-81915000D01*
X88265000Y-102235000D01*
X83185000Y-102235000D01*
X83185000Y-81915000D01*
X85725000Y-81915000D02*
X88265000Y-81915000D01*
X88265000Y-112395000D01*
X85725000Y-112395000D01*
X85725000Y-81915000D01*
X89535000Y-81915000D02*
X94615000Y-81915000D01*
X94615000Y-92075000D01*
X89535000Y-92075000D01*
X89535000Y-81915000D01*
X90170000Y-97790000D02*
X91440000Y-97790000D01*
X91440000Y-101600000D01*
X90170000Y-101600000D01*
X90170000Y-97790000D01*
G36*
X90170000Y-97790000D02*
G01*
X91440000Y-97790000D01*
X91440000Y-101600000D01*
X90170000Y-101600000D01*
X90170000Y-97790000D01*
G37*
X89535000Y-81915000D02*
X94615000Y-81915000D01*
X94615000Y-104775000D01*
X89535000Y-104775000D01*
X89535000Y-81915000D01*
X83820000Y-87630000D02*
X87630000Y-87630000D01*
X87630000Y-88900000D01*
X83820000Y-88900000D01*
X83820000Y-87630000D01*
G36*
X83820000Y-87630000D02*
G01*
X87630000Y-87630000D01*
X87630000Y-88900000D01*
X83820000Y-88900000D01*
X83820000Y-87630000D01*
G37*
X92710000Y-102870000D02*
X93980000Y-102870000D01*
X93980000Y-106680000D01*
X92710000Y-106680000D01*
X92710000Y-102870000D01*
G36*
X92710000Y-102870000D02*
G01*
X93980000Y-102870000D01*
X93980000Y-106680000D01*
X92710000Y-106680000D01*
X92710000Y-102870000D01*
G37*
X83820000Y-95250000D02*
X87630000Y-95250000D01*
X87630000Y-96520000D01*
X83820000Y-96520000D01*
X83820000Y-95250000D01*
G36*
X83820000Y-95250000D02*
G01*
X87630000Y-95250000D01*
X87630000Y-96520000D01*
X83820000Y-96520000D01*
X83820000Y-95250000D01*
G37*
X83185000Y-81915000D02*
X88265000Y-81915000D01*
X88265000Y-89535000D01*
X83185000Y-89535000D01*
X83185000Y-81915000D01*
X92710000Y-97790000D02*
X93980000Y-97790000D01*
X93980000Y-101600000D01*
X92710000Y-101600000D01*
X92710000Y-97790000D01*
G36*
X92710000Y-97790000D02*
G01*
X93980000Y-97790000D01*
X93980000Y-101600000D01*
X92710000Y-101600000D01*
X92710000Y-97790000D01*
G37*
X89535000Y-81915000D02*
X94615000Y-81915000D01*
X94615000Y-107315000D01*
X89535000Y-107315000D01*
X89535000Y-81915000D01*
X89535000Y-81915000D02*
X94615000Y-81915000D01*
X94615000Y-109855000D01*
X89535000Y-109855000D01*
X89535000Y-81915000D01*
X83820000Y-92710000D02*
X87630000Y-92710000D01*
X87630000Y-93980000D01*
X83820000Y-93980000D01*
X83820000Y-92710000D01*
G36*
X83820000Y-92710000D02*
G01*
X87630000Y-92710000D01*
X87630000Y-93980000D01*
X83820000Y-93980000D01*
X83820000Y-92710000D01*
G37*
X83820000Y-85090000D02*
X87630000Y-85090000D01*
X87630000Y-86360000D01*
X83820000Y-86360000D01*
X83820000Y-85090000D01*
G36*
X83820000Y-85090000D02*
G01*
X87630000Y-85090000D01*
X87630000Y-86360000D01*
X83820000Y-86360000D01*
X83820000Y-85090000D01*
G37*
X83185000Y-81915000D02*
X88265000Y-81915000D01*
X88265000Y-86995000D01*
X83185000Y-86995000D01*
X83185000Y-81915000D01*
X89535000Y-81915000D02*
X94615000Y-81915000D01*
X94615000Y-97155000D01*
X89535000Y-97155000D01*
X89535000Y-81915000D01*
X57150000Y-80645000D02*
X59055000Y-80645000D01*
X57150000Y-81915000D02*
X57150000Y-80645000D01*
X83820000Y-110490000D02*
X87630000Y-110490000D01*
X87630000Y-111760000D01*
X83820000Y-111760000D01*
X83820000Y-110490000D01*
G36*
X83820000Y-110490000D02*
G01*
X87630000Y-110490000D01*
X87630000Y-111760000D01*
X83820000Y-111760000D01*
X83820000Y-110490000D01*
G37*
X89535000Y-81915000D02*
X94615000Y-81915000D01*
X94615000Y-89535000D01*
X89535000Y-89535000D01*
X89535000Y-81915000D01*
X83185000Y-81915000D02*
X88265000Y-81915000D01*
X88265000Y-104775000D01*
X83185000Y-104775000D01*
X83185000Y-81915000D01*
X92075000Y-81915000D02*
X94615000Y-81915000D01*
X94615000Y-112395000D01*
X92075000Y-112395000D01*
X92075000Y-81915000D01*
X83185000Y-81915000D02*
X88265000Y-81915000D01*
X88265000Y-112395000D01*
X83185000Y-112395000D01*
X83185000Y-81915000D01*
D12*
X55880000Y-116840000D02*
X53340000Y-116838913D01*
D11*
X58420000Y-59690000D02*
X70485000Y-59690000D01*
D10*
X83185000Y-81915000D02*
X88265000Y-81915000D01*
X88265000Y-97155000D01*
X83185000Y-97155000D01*
X83185000Y-81915000D01*
D11*
X71755000Y-60960000D02*
X70485000Y-59690000D01*
D10*
X83185000Y-81915000D02*
X88265000Y-81915000D01*
X88265000Y-99695000D01*
X83185000Y-99695000D01*
X83185000Y-81915000D01*
X92710000Y-82550000D02*
X93980000Y-82550000D01*
X93980000Y-86360000D01*
X92710000Y-86360000D01*
X92710000Y-82550000D01*
G36*
X92710000Y-82550000D02*
G01*
X93980000Y-82550000D01*
X93980000Y-86360000D01*
X92710000Y-86360000D01*
X92710000Y-82550000D01*
G37*
X92710000Y-92710000D02*
X93980000Y-92710000D01*
X93980000Y-96520000D01*
X92710000Y-96520000D01*
X92710000Y-92710000D01*
G36*
X92710000Y-92710000D02*
G01*
X93980000Y-92710000D01*
X93980000Y-96520000D01*
X92710000Y-96520000D01*
X92710000Y-92710000D01*
G37*
X92710000Y-107950000D02*
X93980000Y-107950000D01*
X93980000Y-111760000D01*
X92710000Y-111760000D01*
X92710000Y-107950000D01*
G36*
X92710000Y-107950000D02*
G01*
X93980000Y-107950000D01*
X93980000Y-111760000D01*
X92710000Y-111760000D01*
X92710000Y-107950000D01*
G37*
X90170000Y-102870000D02*
X91440000Y-102870000D01*
X91440000Y-106680000D01*
X90170000Y-106680000D01*
X90170000Y-102870000D01*
G36*
X90170000Y-102870000D02*
G01*
X91440000Y-102870000D01*
X91440000Y-106680000D01*
X90170000Y-106680000D01*
X90170000Y-102870000D01*
G37*
X83185000Y-81915000D02*
X88265000Y-81915000D01*
X88265000Y-92075000D01*
X83185000Y-92075000D01*
X83185000Y-81915000D01*
X90170000Y-87630000D02*
X91440000Y-87630000D01*
X91440000Y-91440000D01*
X90170000Y-91440000D01*
X90170000Y-87630000D01*
G36*
X90170000Y-87630000D02*
G01*
X91440000Y-87630000D01*
X91440000Y-91440000D01*
X90170000Y-91440000D01*
X90170000Y-87630000D01*
G37*
X83820000Y-102870000D02*
X87630000Y-102870000D01*
X87630000Y-104140000D01*
X83820000Y-104140000D01*
X83820000Y-102870000D01*
G36*
X83820000Y-102870000D02*
G01*
X87630000Y-102870000D01*
X87630000Y-104140000D01*
X83820000Y-104140000D01*
X83820000Y-102870000D01*
G37*
X83185000Y-81915000D02*
X88265000Y-81915000D01*
X88265000Y-84455000D01*
X83185000Y-84455000D01*
X83185000Y-81915000D01*
X60325000Y-81915000D02*
X60325000Y-80645000D01*
X90170000Y-82550000D02*
X91440000Y-82550000D01*
X91440000Y-86360000D01*
X90170000Y-86360000D01*
X90170000Y-82550000D01*
G36*
X90170000Y-82550000D02*
G01*
X91440000Y-82550000D01*
X91440000Y-86360000D01*
X90170000Y-86360000D01*
X90170000Y-82550000D01*
G37*
X60325000Y-80645000D02*
X62230000Y-80645000D01*
X89535000Y-81915000D02*
X94615000Y-81915000D01*
X94615000Y-112395000D01*
X89535000Y-112395000D01*
X89535000Y-81915000D01*
X89535000Y-81915000D02*
X94615000Y-81915000D01*
X94615000Y-84455000D01*
X89535000Y-84455000D01*
X89535000Y-81915000D01*
D13*
G36*
X66643328Y-60707380D02*
G01*
X66613742Y-60701817D01*
X66589998Y-60685422D01*
X66570642Y-60655991D01*
X66558520Y-60634964D01*
X66548806Y-60626780D01*
X66537334Y-60624268D01*
X66505624Y-60622969D01*
X66474751Y-60628028D01*
X66439148Y-60644859D01*
X66396993Y-60677275D01*
X66346573Y-60730534D01*
X66297344Y-60795483D01*
X66261849Y-60855357D01*
X66238143Y-60910892D01*
X66224676Y-60962868D01*
X66220348Y-61012097D01*
X66224858Y-61050427D01*
X66238039Y-61084283D01*
X66260209Y-61114777D01*
X66289017Y-61138829D01*
X66320526Y-61152834D01*
X66355854Y-61157568D01*
X66391326Y-61154571D01*
X66427789Y-61145362D01*
X66465715Y-61129383D01*
X66548806Y-61076333D01*
X66589796Y-61053694D01*
X66613286Y-61048147D01*
X66634133Y-61050819D01*
X66652491Y-61058661D01*
X66669023Y-61071986D01*
X66685090Y-61096063D01*
X66690321Y-61122935D01*
X66687279Y-61142993D01*
X66678101Y-61161381D01*
X66661891Y-61178769D01*
X66598123Y-61226305D01*
X66536171Y-61261501D01*
X66475542Y-61285692D01*
X66415654Y-61299841D01*
X66355854Y-61304505D01*
X66296212Y-61298792D01*
X66242506Y-61282113D01*
X66193460Y-61254453D01*
X66148199Y-61214868D01*
X66112474Y-61169277D01*
X66087470Y-61120745D01*
X66072429Y-61068529D01*
X66067306Y-61011609D01*
X66073043Y-60942021D01*
X66090644Y-60870698D01*
X66121123Y-60796749D01*
X66166038Y-60719351D01*
X66227431Y-60637771D01*
X66287633Y-60574407D01*
X66344824Y-60529087D01*
X66399630Y-60498892D01*
X66452888Y-60481646D01*
X66505624Y-60476033D01*
X66549050Y-60477694D01*
X66583196Y-60482579D01*
X66609596Y-60465993D01*
X66641130Y-60460401D01*
X66666344Y-60464349D01*
X66685450Y-60475489D01*
X66699987Y-60494376D01*
X66710006Y-60523514D01*
X66716800Y-60570707D01*
X66719288Y-60629173D01*
X66715340Y-60654901D01*
X66703461Y-60678266D01*
X66687677Y-60694335D01*
X66668048Y-60703978D01*
X66643328Y-60707380D01*
G37*
G36*
X67301953Y-61273242D02*
G01*
X67228181Y-61297017D01*
X67102456Y-61322090D01*
X66984123Y-61337602D01*
X66899685Y-61342020D01*
X66855074Y-61338065D01*
X66822045Y-61327467D01*
X66797853Y-61311359D01*
X66780653Y-61289735D01*
X66769763Y-61261455D01*
X66765792Y-61224442D01*
X66776734Y-61051078D01*
X66787211Y-60807089D01*
X66790949Y-60522830D01*
X66796365Y-60493938D01*
X66812540Y-60469780D01*
X66836702Y-60453458D01*
X66866908Y-60447896D01*
X66897152Y-60453461D01*
X66921521Y-60469829D01*
X66937922Y-60494017D01*
X66943405Y-60522928D01*
X66939555Y-60809232D01*
X66928653Y-61060897D01*
X66918297Y-61195084D01*
X67004087Y-61188413D01*
X67113290Y-61168894D01*
X67250565Y-61133144D01*
X67274598Y-61129431D01*
X67296393Y-61132310D01*
X67314685Y-61140618D01*
X67330334Y-61154588D01*
X67344763Y-61178555D01*
X67349483Y-61204903D01*
X67344268Y-61233221D01*
X67329040Y-61255510D01*
X67301953Y-61273242D01*
G37*
G36*
X67565003Y-61049027D02*
G01*
X67564466Y-61279201D01*
X67561058Y-61302281D01*
X67550788Y-61323507D01*
X67536195Y-61338936D01*
X67518008Y-61348153D01*
X67495052Y-61351399D01*
X67468070Y-61347430D01*
X67445891Y-61335963D01*
X67427299Y-61316424D01*
X67412855Y-61287863D01*
X67408150Y-61257903D01*
X67415819Y-60893200D01*
X67423489Y-60528496D01*
X67428936Y-60500094D01*
X67445324Y-60476033D01*
X67469729Y-60459701D01*
X67499986Y-60454149D01*
X67530191Y-60459711D01*
X67554354Y-60476033D01*
X67570551Y-60500075D01*
X67575945Y-60528496D01*
X67571011Y-60661364D01*
X67563928Y-60794233D01*
X67625016Y-60731221D01*
X67847543Y-60490834D01*
X67865680Y-60475326D01*
X67884779Y-60466470D01*
X67905478Y-60463528D01*
X67934572Y-60468966D01*
X67959846Y-60485412D01*
X67977322Y-60509653D01*
X67983098Y-60538364D01*
X67975727Y-60560626D01*
X67940960Y-60611955D01*
X67853014Y-60714219D01*
X67754703Y-60817310D01*
X67650244Y-60920018D01*
X67769923Y-61033151D01*
X67838837Y-61094327D01*
X67895659Y-61139739D01*
X67924663Y-61157624D01*
X67955743Y-61170513D01*
X67982606Y-61182801D01*
X68000220Y-61198535D01*
X68010592Y-61217918D01*
X68014214Y-61242174D01*
X68010632Y-61264929D01*
X67999462Y-61287505D01*
X67984091Y-61303997D01*
X67965677Y-61313663D01*
X67943189Y-61317010D01*
X67907344Y-61312241D01*
X67863227Y-61296118D01*
X67808440Y-61265021D01*
X67740418Y-61214330D01*
X67691682Y-61170474D01*
X67565003Y-61049027D01*
G37*
G36*
X67992037Y-61479578D02*
G01*
X67992037Y-61376410D01*
X68777913Y-61376410D01*
X68777913Y-61479578D01*
X67992037Y-61479578D01*
G37*
G36*
X68958946Y-61212865D02*
G01*
X68955036Y-61254891D01*
X68944927Y-61283308D01*
X68930017Y-61301918D01*
X68910121Y-61313033D01*
X68883524Y-61317010D01*
X68853277Y-61311669D01*
X68829399Y-61296152D01*
X68813563Y-61272670D01*
X68808101Y-61242467D01*
X68808101Y-60484240D01*
X68810721Y-60464073D01*
X68818303Y-60446966D01*
X68831060Y-60432167D01*
X68855105Y-60418312D01*
X68885184Y-60413507D01*
X68914977Y-60418536D01*
X68938185Y-60432997D01*
X68953604Y-60455157D01*
X68958946Y-60484240D01*
X68958946Y-61212865D01*
G37*
G36*
X69414667Y-60731759D02*
G01*
X69460250Y-60747983D01*
X69500335Y-60774780D01*
X69535847Y-60813332D01*
X69560614Y-60853741D01*
X69578652Y-60899035D01*
X69589871Y-60950047D01*
X69593782Y-61007799D01*
X69589296Y-61070399D01*
X69576326Y-61126583D01*
X69555261Y-61177366D01*
X69526029Y-61223563D01*
X69493116Y-61259871D01*
X69456864Y-61287426D01*
X69416831Y-61307069D01*
X69372271Y-61319101D01*
X69322184Y-61323263D01*
X69272908Y-61318848D01*
X69228089Y-61305936D01*
X69186802Y-61284551D01*
X69148381Y-61254093D01*
X69113744Y-61213804D01*
X69088322Y-61167490D01*
X69071829Y-61114047D01*
X69064752Y-61051958D01*
X69064768Y-61051616D01*
X69216133Y-61051616D01*
X69220685Y-61093562D01*
X69233271Y-61126209D01*
X69253307Y-61151706D01*
X69274293Y-61167248D01*
X69297004Y-61176368D01*
X69322135Y-61179452D01*
X69352580Y-61175848D01*
X69379801Y-61165258D01*
X69404640Y-61147359D01*
X69426713Y-61120059D01*
X69440992Y-61086701D01*
X69447285Y-61045656D01*
X69445799Y-60981862D01*
X69437073Y-60936986D01*
X69423213Y-60906322D01*
X69405260Y-60886178D01*
X69382981Y-60874239D01*
X69354912Y-60869948D01*
X69323050Y-60873561D01*
X69295369Y-60884585D01*
X69270830Y-60903266D01*
X69248911Y-60930862D01*
X69230953Y-60966591D01*
X69219945Y-61006528D01*
X69216133Y-61051616D01*
X69064768Y-61051616D01*
X69067544Y-60992713D01*
X69079490Y-60937729D01*
X69100474Y-60886144D01*
X69130893Y-60837268D01*
X69166863Y-60797122D01*
X69207214Y-60766465D01*
X69252514Y-60744453D01*
X69303706Y-60730867D01*
X69362044Y-60726138D01*
X69414667Y-60731759D01*
G37*
G36*
X69936943Y-61326389D02*
G01*
X69877524Y-61321845D01*
X69824807Y-61308751D01*
X69777672Y-61287515D01*
X69735247Y-61258001D01*
X69697659Y-61218954D01*
X69671209Y-61174975D01*
X69655072Y-61125060D01*
X69649469Y-61067687D01*
X69653892Y-61015119D01*
X69667534Y-60960607D01*
X69691295Y-60903424D01*
X69726503Y-60842886D01*
X69765912Y-60791532D01*
X69805501Y-60754627D01*
X69845554Y-60729767D01*
X69886686Y-60715313D01*
X69929811Y-60710506D01*
X69967182Y-60713496D01*
X70011033Y-60723240D01*
X70062581Y-60741134D01*
X70108858Y-60764270D01*
X70136350Y-60786211D01*
X70150560Y-60807154D01*
X70154954Y-60828085D01*
X70150358Y-60853274D01*
X70136392Y-60875663D01*
X70113981Y-60892415D01*
X70085540Y-60898085D01*
X70061788Y-60892747D01*
X70028974Y-60873074D01*
X70005561Y-60860069D01*
X69973387Y-60851346D01*
X69929811Y-60848064D01*
X69911704Y-60851744D01*
X69891233Y-60864148D01*
X69867173Y-60888716D01*
X69838562Y-60930374D01*
X69810702Y-60985148D01*
X69795989Y-61030288D01*
X69791570Y-61067785D01*
X69796386Y-61103938D01*
X69810139Y-61133391D01*
X69833091Y-61157764D01*
X69860897Y-61174482D01*
X69894981Y-61185045D01*
X69936943Y-61188831D01*
X69974708Y-61182691D01*
X70026531Y-61160695D01*
X70075561Y-61137301D01*
X70093747Y-61132558D01*
X70121112Y-61137897D01*
X70144305Y-61154002D01*
X70160216Y-61177194D01*
X70165359Y-61202851D01*
X70161291Y-61220778D01*
X70147564Y-61240338D01*
X70120000Y-61262693D01*
X70072449Y-61288482D01*
X70015664Y-61311183D01*
X69971327Y-61322949D01*
X69936943Y-61326389D01*
G37*
D11*
X57786804Y-77639238D02*
X57996327Y-77639238D01*
X57996327Y-77639238D02*
X58205851Y-77734476D01*
X58205851Y-77734476D02*
X58310613Y-77829714D01*
X58310613Y-77829714D02*
X58415375Y-78020190D01*
X58415375Y-78020190D02*
X58520137Y-78401142D01*
X58520137Y-78401142D02*
X58520137Y-78877333D01*
X58520137Y-78877333D02*
X58415375Y-79258285D01*
X58415375Y-79258285D02*
X58310613Y-79448761D01*
X58310613Y-79448761D02*
X58205851Y-79544000D01*
X58205851Y-79544000D02*
X57996327Y-79639238D01*
X57996327Y-79639238D02*
X57786804Y-79639238D01*
X57786804Y-79639238D02*
X57577280Y-79544000D01*
X57577280Y-79544000D02*
X57472518Y-79448761D01*
X57472518Y-79448761D02*
X57367756Y-79258285D01*
X57367756Y-79258285D02*
X57262994Y-78877333D01*
X57262994Y-78877333D02*
X57262994Y-78401142D01*
X57262994Y-78401142D02*
X57367756Y-78020190D01*
X57367756Y-78020190D02*
X57472518Y-77829714D01*
X57472518Y-77829714D02*
X57577280Y-77734476D01*
X57577280Y-77734476D02*
X57786804Y-77639238D01*
X62291565Y-79639238D02*
X61034422Y-79639238D01*
X61662994Y-79639238D02*
X61662994Y-77639238D01*
X61662994Y-77639238D02*
X61453470Y-77924952D01*
X61453470Y-77924952D02*
X61243946Y-78115428D01*
X61243946Y-78115428D02*
X61034422Y-78210666D01*
X51547994Y-94360880D02*
X52595613Y-94360880D01*
X51338470Y-95018023D02*
X52071804Y-92718023D01*
X52071804Y-92718023D02*
X52805137Y-95018023D01*
X53433708Y-92937071D02*
X53538470Y-92827547D01*
X53538470Y-92827547D02*
X53747994Y-92718023D01*
X53747994Y-92718023D02*
X54271803Y-92718023D01*
X54271803Y-92718023D02*
X54481327Y-92827547D01*
X54481327Y-92827547D02*
X54586089Y-92937071D01*
X54586089Y-92937071D02*
X54690851Y-93156119D01*
X54690851Y-93156119D02*
X54690851Y-93375166D01*
X54690851Y-93375166D02*
X54586089Y-93703738D01*
X54586089Y-93703738D02*
X53328946Y-95018023D01*
X53328946Y-95018023D02*
X54690851Y-95018023D01*
X51547994Y-89280880D02*
X52595613Y-89280880D01*
X51338470Y-89938023D02*
X52071804Y-87638023D01*
X52071804Y-87638023D02*
X52805137Y-89938023D01*
X54690851Y-89938023D02*
X53433708Y-89938023D01*
X54062280Y-89938023D02*
X54062280Y-87638023D01*
X54062280Y-87638023D02*
X53852756Y-87966595D01*
X53852756Y-87966595D02*
X53643232Y-88185642D01*
X53643232Y-88185642D02*
X53433708Y-88295166D01*
D10*
X73164819Y-99072506D02*
X73879104Y-99072506D01*
X73879104Y-99072506D02*
X74021961Y-99120125D01*
X74021961Y-99120125D02*
X74117200Y-99215363D01*
X74117200Y-99215363D02*
X74164819Y-99358220D01*
X74164819Y-99358220D02*
X74164819Y-99453458D01*
X74164819Y-98120125D02*
X74164819Y-98596315D01*
X74164819Y-98596315D02*
X73164819Y-98596315D01*
X74069580Y-97215363D02*
X74117200Y-97262982D01*
X74117200Y-97262982D02*
X74164819Y-97405839D01*
X74164819Y-97405839D02*
X74164819Y-97501077D01*
X74164819Y-97501077D02*
X74117200Y-97643934D01*
X74117200Y-97643934D02*
X74021961Y-97739172D01*
X74021961Y-97739172D02*
X73926723Y-97786791D01*
X73926723Y-97786791D02*
X73736247Y-97834410D01*
X73736247Y-97834410D02*
X73593390Y-97834410D01*
X73593390Y-97834410D02*
X73402914Y-97786791D01*
X73402914Y-97786791D02*
X73307676Y-97739172D01*
X73307676Y-97739172D02*
X73212438Y-97643934D01*
X73212438Y-97643934D02*
X73164819Y-97501077D01*
X73164819Y-97501077D02*
X73164819Y-97405839D01*
X73164819Y-97405839D02*
X73212438Y-97262982D01*
X73212438Y-97262982D02*
X73260057Y-97215363D01*
X73164819Y-96501077D02*
X73879104Y-96501077D01*
X73879104Y-96501077D02*
X74021961Y-96548696D01*
X74021961Y-96548696D02*
X74117200Y-96643934D01*
X74117200Y-96643934D02*
X74164819Y-96786791D01*
X74164819Y-96786791D02*
X74164819Y-96882029D01*
X74164819Y-95548696D02*
X74164819Y-96024886D01*
X74164819Y-96024886D02*
X73164819Y-96024886D01*
X74069580Y-94643934D02*
X74117200Y-94691553D01*
X74117200Y-94691553D02*
X74164819Y-94834410D01*
X74164819Y-94834410D02*
X74164819Y-94929648D01*
X74164819Y-94929648D02*
X74117200Y-95072505D01*
X74117200Y-95072505D02*
X74021961Y-95167743D01*
X74021961Y-95167743D02*
X73926723Y-95215362D01*
X73926723Y-95215362D02*
X73736247Y-95262981D01*
X73736247Y-95262981D02*
X73593390Y-95262981D01*
X73593390Y-95262981D02*
X73402914Y-95215362D01*
X73402914Y-95215362D02*
X73307676Y-95167743D01*
X73307676Y-95167743D02*
X73212438Y-95072505D01*
X73212438Y-95072505D02*
X73164819Y-94929648D01*
X73164819Y-94929648D02*
X73164819Y-94834410D01*
X73164819Y-94834410D02*
X73212438Y-94691553D01*
X73212438Y-94691553D02*
X73260057Y-94643934D01*
X73164819Y-93929648D02*
X73879104Y-93929648D01*
X73879104Y-93929648D02*
X74021961Y-93977267D01*
X74021961Y-93977267D02*
X74117200Y-94072505D01*
X74117200Y-94072505D02*
X74164819Y-94215362D01*
X74164819Y-94215362D02*
X74164819Y-94310600D01*
X74164819Y-92977267D02*
X74164819Y-93453457D01*
X74164819Y-93453457D02*
X73164819Y-93453457D01*
X74069580Y-92072505D02*
X74117200Y-92120124D01*
X74117200Y-92120124D02*
X74164819Y-92262981D01*
X74164819Y-92262981D02*
X74164819Y-92358219D01*
X74164819Y-92358219D02*
X74117200Y-92501076D01*
X74117200Y-92501076D02*
X74021961Y-92596314D01*
X74021961Y-92596314D02*
X73926723Y-92643933D01*
X73926723Y-92643933D02*
X73736247Y-92691552D01*
X73736247Y-92691552D02*
X73593390Y-92691552D01*
X73593390Y-92691552D02*
X73402914Y-92643933D01*
X73402914Y-92643933D02*
X73307676Y-92596314D01*
X73307676Y-92596314D02*
X73212438Y-92501076D01*
X73212438Y-92501076D02*
X73164819Y-92358219D01*
X73164819Y-92358219D02*
X73164819Y-92262981D01*
X73164819Y-92262981D02*
X73212438Y-92120124D01*
X73212438Y-92120124D02*
X73260057Y-92072505D01*
X73164819Y-91358219D02*
X73879104Y-91358219D01*
X73879104Y-91358219D02*
X74021961Y-91405838D01*
X74021961Y-91405838D02*
X74117200Y-91501076D01*
X74117200Y-91501076D02*
X74164819Y-91643933D01*
X74164819Y-91643933D02*
X74164819Y-91739171D01*
X74164819Y-90405838D02*
X74164819Y-90882028D01*
X74164819Y-90882028D02*
X73164819Y-90882028D01*
X74069580Y-89501076D02*
X74117200Y-89548695D01*
X74117200Y-89548695D02*
X74164819Y-89691552D01*
X74164819Y-89691552D02*
X74164819Y-89786790D01*
X74164819Y-89786790D02*
X74117200Y-89929647D01*
X74117200Y-89929647D02*
X74021961Y-90024885D01*
X74021961Y-90024885D02*
X73926723Y-90072504D01*
X73926723Y-90072504D02*
X73736247Y-90120123D01*
X73736247Y-90120123D02*
X73593390Y-90120123D01*
X73593390Y-90120123D02*
X73402914Y-90072504D01*
X73402914Y-90072504D02*
X73307676Y-90024885D01*
X73307676Y-90024885D02*
X73212438Y-89929647D01*
X73212438Y-89929647D02*
X73164819Y-89786790D01*
X73164819Y-89786790D02*
X73164819Y-89691552D01*
X73164819Y-89691552D02*
X73212438Y-89548695D01*
X73212438Y-89548695D02*
X73260057Y-89501076D01*
D11*
X84379294Y-79501666D02*
X82379294Y-79501666D01*
X82379294Y-79501666D02*
X82379294Y-79025476D01*
X82379294Y-79025476D02*
X82474532Y-78739761D01*
X82474532Y-78739761D02*
X82665008Y-78549285D01*
X82665008Y-78549285D02*
X82855484Y-78454047D01*
X82855484Y-78454047D02*
X83236436Y-78358809D01*
X83236436Y-78358809D02*
X83522151Y-78358809D01*
X83522151Y-78358809D02*
X83903103Y-78454047D01*
X83903103Y-78454047D02*
X84093579Y-78549285D01*
X84093579Y-78549285D02*
X84284056Y-78739761D01*
X84284056Y-78739761D02*
X84379294Y-79025476D01*
X84379294Y-79025476D02*
X84379294Y-79501666D01*
X84379294Y-77501666D02*
X82379294Y-77501666D01*
X82379294Y-77501666D02*
X82379294Y-76739761D01*
X82379294Y-76739761D02*
X82474532Y-76549285D01*
X82474532Y-76549285D02*
X82569770Y-76454047D01*
X82569770Y-76454047D02*
X82760246Y-76358809D01*
X82760246Y-76358809D02*
X83045960Y-76358809D01*
X83045960Y-76358809D02*
X83236436Y-76454047D01*
X83236436Y-76454047D02*
X83331675Y-76549285D01*
X83331675Y-76549285D02*
X83426913Y-76739761D01*
X83426913Y-76739761D02*
X83426913Y-77501666D01*
X84379294Y-75501666D02*
X82379294Y-75501666D01*
X82379294Y-75501666D02*
X83807865Y-74834999D01*
X83807865Y-74834999D02*
X82379294Y-74168333D01*
X82379294Y-74168333D02*
X84379294Y-74168333D01*
X87599182Y-80501666D02*
X85599182Y-80501666D01*
X85599182Y-80501666D02*
X85599182Y-80025476D01*
X85599182Y-80025476D02*
X85694420Y-79739761D01*
X85694420Y-79739761D02*
X85884896Y-79549285D01*
X85884896Y-79549285D02*
X86075372Y-79454047D01*
X86075372Y-79454047D02*
X86456324Y-79358809D01*
X86456324Y-79358809D02*
X86742039Y-79358809D01*
X86742039Y-79358809D02*
X87122991Y-79454047D01*
X87122991Y-79454047D02*
X87313467Y-79549285D01*
X87313467Y-79549285D02*
X87503944Y-79739761D01*
X87503944Y-79739761D02*
X87599182Y-80025476D01*
X87599182Y-80025476D02*
X87599182Y-80501666D01*
X87599182Y-78501666D02*
X85599182Y-78501666D01*
X85599182Y-78501666D02*
X85599182Y-78025476D01*
X85599182Y-78025476D02*
X85694420Y-77739761D01*
X85694420Y-77739761D02*
X85884896Y-77549285D01*
X85884896Y-77549285D02*
X86075372Y-77454047D01*
X86075372Y-77454047D02*
X86456324Y-77358809D01*
X86456324Y-77358809D02*
X86742039Y-77358809D01*
X86742039Y-77358809D02*
X87122991Y-77454047D01*
X87122991Y-77454047D02*
X87313467Y-77549285D01*
X87313467Y-77549285D02*
X87503944Y-77739761D01*
X87503944Y-77739761D02*
X87599182Y-78025476D01*
X87599182Y-78025476D02*
X87599182Y-78501666D01*
X87599182Y-76501666D02*
X85599182Y-76501666D01*
X85599182Y-76501666D02*
X85599182Y-75739761D01*
X85599182Y-75739761D02*
X85694420Y-75549285D01*
X85694420Y-75549285D02*
X85789658Y-75454047D01*
X85789658Y-75454047D02*
X85980134Y-75358809D01*
X85980134Y-75358809D02*
X86265848Y-75358809D01*
X86265848Y-75358809D02*
X86456324Y-75454047D01*
X86456324Y-75454047D02*
X86551563Y-75549285D01*
X86551563Y-75549285D02*
X86646801Y-75739761D01*
X86646801Y-75739761D02*
X86646801Y-76501666D01*
X87599182Y-74501666D02*
X85599182Y-74501666D01*
X85599182Y-74501666D02*
X87027753Y-73834999D01*
X87027753Y-73834999D02*
X85599182Y-73168333D01*
X85599182Y-73168333D02*
X87599182Y-73168333D01*
X51547994Y-84200880D02*
X52595613Y-84200880D01*
X51338470Y-84858023D02*
X52071804Y-82558023D01*
X52071804Y-82558023D02*
X52805137Y-84858023D01*
X53957518Y-82558023D02*
X54167041Y-82558023D01*
X54167041Y-82558023D02*
X54376565Y-82667547D01*
X54376565Y-82667547D02*
X54481327Y-82777071D01*
X54481327Y-82777071D02*
X54586089Y-82996119D01*
X54586089Y-82996119D02*
X54690851Y-83434214D01*
X54690851Y-83434214D02*
X54690851Y-83981833D01*
X54690851Y-83981833D02*
X54586089Y-84419928D01*
X54586089Y-84419928D02*
X54481327Y-84638976D01*
X54481327Y-84638976D02*
X54376565Y-84748500D01*
X54376565Y-84748500D02*
X54167041Y-84858023D01*
X54167041Y-84858023D02*
X53957518Y-84858023D01*
X53957518Y-84858023D02*
X53747994Y-84748500D01*
X53747994Y-84748500D02*
X53643232Y-84638976D01*
X53643232Y-84638976D02*
X53538470Y-84419928D01*
X53538470Y-84419928D02*
X53433708Y-83981833D01*
X53433708Y-83981833D02*
X53433708Y-83434214D01*
X53433708Y-83434214D02*
X53538470Y-82996119D01*
X53538470Y-82996119D02*
X53643232Y-82777071D01*
X53643232Y-82777071D02*
X53747994Y-82667547D01*
X53747994Y-82667547D02*
X53957518Y-82558023D01*
D13*
G36*
X49498328Y-55627380D02*
G01*
X49468742Y-55621817D01*
X49444998Y-55605422D01*
X49425642Y-55575991D01*
X49413520Y-55554964D01*
X49403806Y-55546780D01*
X49392334Y-55544268D01*
X49360624Y-55542969D01*
X49329751Y-55548028D01*
X49294148Y-55564859D01*
X49251993Y-55597275D01*
X49201573Y-55650534D01*
X49152344Y-55715483D01*
X49116849Y-55775357D01*
X49093143Y-55830892D01*
X49079676Y-55882868D01*
X49075348Y-55932097D01*
X49079858Y-55970427D01*
X49093039Y-56004283D01*
X49115209Y-56034777D01*
X49144017Y-56058829D01*
X49175526Y-56072834D01*
X49210854Y-56077568D01*
X49246326Y-56074571D01*
X49282789Y-56065362D01*
X49320715Y-56049383D01*
X49403806Y-55996333D01*
X49444796Y-55973694D01*
X49468286Y-55968147D01*
X49489133Y-55970819D01*
X49507491Y-55978661D01*
X49524023Y-55991986D01*
X49540090Y-56016063D01*
X49545321Y-56042935D01*
X49542279Y-56062993D01*
X49533101Y-56081381D01*
X49516891Y-56098769D01*
X49453123Y-56146305D01*
X49391171Y-56181501D01*
X49330542Y-56205692D01*
X49270654Y-56219841D01*
X49210854Y-56224505D01*
X49151212Y-56218792D01*
X49097506Y-56202113D01*
X49048460Y-56174453D01*
X49003199Y-56134868D01*
X48967474Y-56089277D01*
X48942470Y-56040745D01*
X48927429Y-55988529D01*
X48922306Y-55931609D01*
X48928043Y-55862021D01*
X48945644Y-55790698D01*
X48976123Y-55716749D01*
X49021038Y-55639351D01*
X49082431Y-55557771D01*
X49142633Y-55494407D01*
X49199824Y-55449087D01*
X49254630Y-55418892D01*
X49307888Y-55401646D01*
X49360624Y-55396033D01*
X49404050Y-55397694D01*
X49438196Y-55402579D01*
X49464596Y-55385993D01*
X49496130Y-55380401D01*
X49521344Y-55384349D01*
X49540450Y-55395489D01*
X49554987Y-55414376D01*
X49565006Y-55443514D01*
X49571800Y-55490707D01*
X49574288Y-55549173D01*
X49570340Y-55574901D01*
X49558461Y-55598266D01*
X49542677Y-55614335D01*
X49523048Y-55623978D01*
X49498328Y-55627380D01*
G37*
G36*
X50156953Y-56193242D02*
G01*
X50083181Y-56217017D01*
X49957456Y-56242090D01*
X49839123Y-56257602D01*
X49754685Y-56262020D01*
X49710074Y-56258065D01*
X49677045Y-56247467D01*
X49652853Y-56231359D01*
X49635653Y-56209735D01*
X49624763Y-56181455D01*
X49620792Y-56144442D01*
X49631734Y-55971078D01*
X49642211Y-55727089D01*
X49645949Y-55442830D01*
X49651365Y-55413938D01*
X49667540Y-55389780D01*
X49691702Y-55373458D01*
X49721908Y-55367896D01*
X49752152Y-55373461D01*
X49776521Y-55389829D01*
X49792922Y-55414017D01*
X49798405Y-55442928D01*
X49794555Y-55729232D01*
X49783653Y-55980897D01*
X49773297Y-56115084D01*
X49859087Y-56108413D01*
X49968290Y-56088894D01*
X50105565Y-56053144D01*
X50129598Y-56049431D01*
X50151393Y-56052310D01*
X50169685Y-56060618D01*
X50185334Y-56074588D01*
X50199763Y-56098555D01*
X50204483Y-56124903D01*
X50199268Y-56153221D01*
X50184040Y-56175510D01*
X50156953Y-56193242D01*
G37*
G36*
X50420003Y-55969027D02*
G01*
X50419466Y-56199201D01*
X50416058Y-56222281D01*
X50405788Y-56243507D01*
X50391195Y-56258936D01*
X50373008Y-56268153D01*
X50350052Y-56271399D01*
X50323070Y-56267430D01*
X50300891Y-56255963D01*
X50282299Y-56236424D01*
X50267855Y-56207863D01*
X50263150Y-56177903D01*
X50270819Y-55813200D01*
X50278489Y-55448496D01*
X50283936Y-55420094D01*
X50300324Y-55396033D01*
X50324729Y-55379701D01*
X50354986Y-55374149D01*
X50385191Y-55379711D01*
X50409354Y-55396033D01*
X50425551Y-55420075D01*
X50430945Y-55448496D01*
X50426011Y-55581364D01*
X50418928Y-55714233D01*
X50480016Y-55651221D01*
X50702543Y-55410834D01*
X50720680Y-55395326D01*
X50739779Y-55386470D01*
X50760478Y-55383528D01*
X50789572Y-55388966D01*
X50814846Y-55405412D01*
X50832322Y-55429653D01*
X50838098Y-55458364D01*
X50830727Y-55480626D01*
X50795960Y-55531955D01*
X50708014Y-55634219D01*
X50609703Y-55737310D01*
X50505244Y-55840018D01*
X50624923Y-55953151D01*
X50693837Y-56014327D01*
X50750659Y-56059739D01*
X50779663Y-56077624D01*
X50810743Y-56090513D01*
X50837606Y-56102801D01*
X50855220Y-56118535D01*
X50865592Y-56137918D01*
X50869214Y-56162174D01*
X50865632Y-56184929D01*
X50854462Y-56207505D01*
X50839091Y-56223997D01*
X50820677Y-56233663D01*
X50798189Y-56237010D01*
X50762344Y-56232241D01*
X50718227Y-56216118D01*
X50663440Y-56185021D01*
X50595418Y-56134330D01*
X50546682Y-56090474D01*
X50420003Y-55969027D01*
G37*
D11*
X98054238Y-87899523D02*
X96054238Y-87899523D01*
X96054238Y-87899523D02*
X96054238Y-87137618D01*
X96054238Y-87137618D02*
X96149476Y-86947142D01*
X96149476Y-86947142D02*
X96244714Y-86851904D01*
X96244714Y-86851904D02*
X96435190Y-86756666D01*
X96435190Y-86756666D02*
X96720904Y-86756666D01*
X96720904Y-86756666D02*
X96911380Y-86851904D01*
X96911380Y-86851904D02*
X97006619Y-86947142D01*
X97006619Y-86947142D02*
X97101857Y-87137618D01*
X97101857Y-87137618D02*
X97101857Y-87899523D01*
X96054238Y-86089999D02*
X98054238Y-85613809D01*
X98054238Y-85613809D02*
X96625666Y-85232856D01*
X96625666Y-85232856D02*
X98054238Y-84851904D01*
X98054238Y-84851904D02*
X96054238Y-84375714D01*
X98054238Y-83613809D02*
X96054238Y-83613809D01*
X96054238Y-83613809D02*
X97482809Y-82947142D01*
X97482809Y-82947142D02*
X96054238Y-82280476D01*
X96054238Y-82280476D02*
X98054238Y-82280476D01*
D10*
X56491428Y-102054819D02*
X56158095Y-101578628D01*
X55920000Y-102054819D02*
X55920000Y-101054819D01*
X55920000Y-101054819D02*
X56300952Y-101054819D01*
X56300952Y-101054819D02*
X56396190Y-101102438D01*
X56396190Y-101102438D02*
X56443809Y-101150057D01*
X56443809Y-101150057D02*
X56491428Y-101245295D01*
X56491428Y-101245295D02*
X56491428Y-101388152D01*
X56491428Y-101388152D02*
X56443809Y-101483390D01*
X56443809Y-101483390D02*
X56396190Y-101531009D01*
X56396190Y-101531009D02*
X56300952Y-101578628D01*
X56300952Y-101578628D02*
X55920000Y-101578628D01*
X56681905Y-102150057D02*
X57443809Y-102150057D01*
X57634286Y-102007200D02*
X57777143Y-102054819D01*
X57777143Y-102054819D02*
X58015238Y-102054819D01*
X58015238Y-102054819D02*
X58110476Y-102007200D01*
X58110476Y-102007200D02*
X58158095Y-101959580D01*
X58158095Y-101959580D02*
X58205714Y-101864342D01*
X58205714Y-101864342D02*
X58205714Y-101769104D01*
X58205714Y-101769104D02*
X58158095Y-101673866D01*
X58158095Y-101673866D02*
X58110476Y-101626247D01*
X58110476Y-101626247D02*
X58015238Y-101578628D01*
X58015238Y-101578628D02*
X57824762Y-101531009D01*
X57824762Y-101531009D02*
X57729524Y-101483390D01*
X57729524Y-101483390D02*
X57681905Y-101435771D01*
X57681905Y-101435771D02*
X57634286Y-101340533D01*
X57634286Y-101340533D02*
X57634286Y-101245295D01*
X57634286Y-101245295D02*
X57681905Y-101150057D01*
X57681905Y-101150057D02*
X57729524Y-101102438D01*
X57729524Y-101102438D02*
X57824762Y-101054819D01*
X57824762Y-101054819D02*
X58062857Y-101054819D01*
X58062857Y-101054819D02*
X58205714Y-101102438D01*
X59205714Y-101959580D02*
X59158095Y-102007200D01*
X59158095Y-102007200D02*
X59015238Y-102054819D01*
X59015238Y-102054819D02*
X58920000Y-102054819D01*
X58920000Y-102054819D02*
X58777143Y-102007200D01*
X58777143Y-102007200D02*
X58681905Y-101911961D01*
X58681905Y-101911961D02*
X58634286Y-101816723D01*
X58634286Y-101816723D02*
X58586667Y-101626247D01*
X58586667Y-101626247D02*
X58586667Y-101483390D01*
X58586667Y-101483390D02*
X58634286Y-101292914D01*
X58634286Y-101292914D02*
X58681905Y-101197676D01*
X58681905Y-101197676D02*
X58777143Y-101102438D01*
X58777143Y-101102438D02*
X58920000Y-101054819D01*
X58920000Y-101054819D02*
X59015238Y-101054819D01*
X59015238Y-101054819D02*
X59158095Y-101102438D01*
X59158095Y-101102438D02*
X59205714Y-101150057D01*
X60110476Y-102054819D02*
X59634286Y-102054819D01*
X59634286Y-102054819D02*
X59634286Y-101054819D01*
X60967619Y-102054819D02*
X60396191Y-102054819D01*
X60681905Y-102054819D02*
X60681905Y-101054819D01*
X60681905Y-101054819D02*
X60586667Y-101197676D01*
X60586667Y-101197676D02*
X60491429Y-101292914D01*
X60491429Y-101292914D02*
X60396191Y-101340533D01*
G36*
X54255481Y-109304924D02*
G01*
X54320872Y-109313789D01*
X54382718Y-109330115D01*
X54436033Y-109354089D01*
X54481693Y-109387406D01*
X54516511Y-109430048D01*
X54532582Y-109463002D01*
X54542713Y-109501991D01*
X54546308Y-109548323D01*
X54539803Y-109604800D01*
X54521457Y-109650539D01*
X54492515Y-109689176D01*
X54455633Y-109719476D01*
X54413205Y-109742108D01*
X54367828Y-109757578D01*
X54419499Y-109769832D01*
X54471020Y-109790184D01*
X54517234Y-109820107D01*
X54555040Y-109862297D01*
X54572798Y-109895825D01*
X54584196Y-109937499D01*
X54588318Y-109989303D01*
X54584439Y-110043121D01*
X54573562Y-110088123D01*
X54556444Y-110125835D01*
X54532595Y-110159753D01*
X54503912Y-110188310D01*
X54469982Y-110211931D01*
X54412629Y-110238544D01*
X54346457Y-110256688D01*
X54276592Y-110266619D01*
X54202598Y-110270000D01*
X53902301Y-110270000D01*
X53902301Y-110126507D01*
X54094093Y-110126507D01*
X54204674Y-110126507D01*
X54271901Y-110120889D01*
X54303607Y-110112821D01*
X54331741Y-110100251D01*
X54355688Y-110082075D01*
X54374056Y-110057203D01*
X54385298Y-110026572D01*
X54389504Y-109984419D01*
X54383222Y-109929793D01*
X54366729Y-109892705D01*
X54339920Y-109864774D01*
X54304080Y-109846177D01*
X54262508Y-109836088D01*
X54213100Y-109832500D01*
X54094093Y-109832500D01*
X54094093Y-110126507D01*
X53902301Y-110126507D01*
X53902301Y-109697372D01*
X54094093Y-109697372D01*
X54199117Y-109697372D01*
X54250645Y-109693268D01*
X54288125Y-109682408D01*
X54314949Y-109666231D01*
X54334777Y-109642825D01*
X54347598Y-109610176D01*
X54352379Y-109565115D01*
X54347280Y-109523290D01*
X54333425Y-109492748D01*
X54311408Y-109470593D01*
X54282617Y-109455674D01*
X54243388Y-109445657D01*
X54190691Y-109441894D01*
X54094093Y-109441894D01*
X54094093Y-109697372D01*
X53902301Y-109697372D01*
X53902301Y-109301882D01*
X54185073Y-109301882D01*
X54255481Y-109304924D01*
G37*
G36*
X55427536Y-109528722D02*
G01*
X55176211Y-110271404D01*
X55140046Y-110357520D01*
X55096404Y-110427475D01*
X55061011Y-110467809D01*
X55020013Y-110502126D01*
X54972878Y-110530729D01*
X54921862Y-110551929D01*
X54861586Y-110567241D01*
X54790490Y-110575914D01*
X54767409Y-110442191D01*
X54838140Y-110428166D01*
X54887088Y-110410683D01*
X54927995Y-110385917D01*
X54958834Y-110355362D01*
X54983292Y-110318142D01*
X55005424Y-110270000D01*
X54942409Y-110270000D01*
X54699510Y-109528722D01*
X54894843Y-109528722D01*
X55062821Y-110146779D01*
X55237821Y-109528722D01*
X55427536Y-109528722D01*
G37*
G36*
X55976576Y-109307434D02*
G01*
X56055664Y-109322857D01*
X56120949Y-109346719D01*
X56174675Y-109378208D01*
X56211931Y-109411162D01*
X56240862Y-109449862D01*
X56262035Y-109495109D01*
X56275355Y-109548152D01*
X56280066Y-109610605D01*
X56274199Y-109684419D01*
X56257825Y-109745084D01*
X56232072Y-109795069D01*
X56196212Y-109838373D01*
X56151934Y-109873466D01*
X56098044Y-109900765D01*
X56039701Y-109919142D01*
X55973807Y-109930678D01*
X55899230Y-109934715D01*
X55787917Y-109934715D01*
X55787917Y-110270000D01*
X55596125Y-110270000D01*
X55596125Y-109792627D01*
X55787917Y-109792627D01*
X55893613Y-109792627D01*
X55948563Y-109787896D01*
X55992653Y-109774797D01*
X56029715Y-109751480D01*
X56057805Y-109717034D01*
X56074860Y-109673123D01*
X56081252Y-109612009D01*
X56075080Y-109555498D01*
X56058477Y-109514373D01*
X56030859Y-109482115D01*
X55992348Y-109459419D01*
X55946327Y-109446577D01*
X55888056Y-109441894D01*
X55787917Y-109441894D01*
X55787917Y-109792627D01*
X55596125Y-109792627D01*
X55596125Y-109301882D01*
X55881034Y-109301882D01*
X55976576Y-109307434D01*
G37*
G36*
X56798363Y-109512682D02*
G01*
X56861572Y-109526246D01*
X56911484Y-109546895D01*
X56950574Y-109573846D01*
X56982930Y-109609347D01*
X57006323Y-109651422D01*
X57020974Y-109701394D01*
X57026167Y-109761120D01*
X57026167Y-110074727D01*
X57029854Y-110114071D01*
X57038745Y-110136643D01*
X57054519Y-110153043D01*
X57079351Y-110165708D01*
X57039478Y-110289600D01*
X56982971Y-110278592D01*
X56938301Y-110259863D01*
X56901803Y-110230923D01*
X56874248Y-110189521D01*
X56843930Y-110220598D01*
X56808772Y-110245959D01*
X56768185Y-110265847D01*
X56702787Y-110284690D01*
X56634157Y-110291004D01*
X56577920Y-110286580D01*
X56530123Y-110274054D01*
X56489283Y-110254077D01*
X56454272Y-110226646D01*
X56425440Y-110192413D01*
X56404862Y-110153746D01*
X56392192Y-110109773D01*
X56387777Y-110059279D01*
X56388898Y-110048777D01*
X56579569Y-110048777D01*
X56583152Y-110082124D01*
X56593091Y-110108304D01*
X56608939Y-110128949D01*
X56630255Y-110144059D01*
X56658085Y-110153739D01*
X56694363Y-110157281D01*
X56735796Y-110151574D01*
X56779421Y-110133529D01*
X56817822Y-110104988D01*
X56846954Y-110066973D01*
X56846954Y-109922808D01*
X56774169Y-109922808D01*
X56705793Y-109927321D01*
X56657941Y-109938983D01*
X56625426Y-109955720D01*
X56600010Y-109980577D01*
X56584872Y-110010991D01*
X56579569Y-110048777D01*
X56388898Y-110048777D01*
X56393864Y-110002240D01*
X56411266Y-109953970D01*
X56439760Y-109912579D01*
X56480528Y-109876952D01*
X56527577Y-109850745D01*
X56585550Y-109830693D01*
X56656622Y-109817629D01*
X56743334Y-109812899D01*
X56846954Y-109812899D01*
X56846954Y-109773026D01*
X56841916Y-109731134D01*
X56828186Y-109700205D01*
X56806348Y-109677466D01*
X56777704Y-109661839D01*
X56739629Y-109651507D01*
X56689478Y-109647669D01*
X56651712Y-109649785D01*
X56600207Y-109657133D01*
X56546550Y-109668951D01*
X56489932Y-109686198D01*
X56445846Y-109559497D01*
X56517127Y-109536300D01*
X56588301Y-109520296D01*
X56658655Y-109510687D01*
X56718848Y-109507718D01*
X56798363Y-109512682D01*
G37*
G36*
X57555991Y-110154473D02*
G01*
X57617103Y-110148254D01*
X57660588Y-110131758D01*
X57683078Y-110113955D01*
X57695826Y-110092988D01*
X57700155Y-110067705D01*
X57696773Y-110042004D01*
X57687210Y-110021543D01*
X57670001Y-110004629D01*
X57636469Y-109986189D01*
X57593656Y-109970194D01*
X57523079Y-109949370D01*
X57454477Y-109928381D01*
X57398149Y-109904246D01*
X57349807Y-109872767D01*
X57314801Y-109834637D01*
X57298739Y-109804807D01*
X57288648Y-109769301D01*
X57285064Y-109726803D01*
X57289219Y-109684614D01*
X57301341Y-109646788D01*
X57321457Y-109612376D01*
X57348418Y-109582688D01*
X57383094Y-109557016D01*
X57426786Y-109535378D01*
X57473592Y-109520568D01*
X57528564Y-109511091D01*
X57593055Y-109507718D01*
X57684756Y-109514304D01*
X57759628Y-109532569D01*
X57827390Y-109561186D01*
X57882177Y-109594485D01*
X57806584Y-109707203D01*
X57760137Y-109681319D01*
X57709620Y-109660675D01*
X57656063Y-109647353D01*
X57597268Y-109642784D01*
X57537178Y-109648322D01*
X57502379Y-109661713D01*
X57485622Y-109676219D01*
X57475957Y-109693408D01*
X57472643Y-109714225D01*
X57476459Y-109736323D01*
X57487664Y-109754464D01*
X57506581Y-109769207D01*
X57542313Y-109785971D01*
X57655398Y-109821997D01*
X57724657Y-109844031D01*
X57780999Y-109868220D01*
X57829121Y-109899706D01*
X57863920Y-109938928D01*
X57879638Y-109969664D01*
X57889715Y-110007586D01*
X57893351Y-110054394D01*
X57887847Y-110106254D01*
X57872135Y-110150004D01*
X57846457Y-110187384D01*
X57812659Y-110218809D01*
X57771839Y-110244847D01*
X57722931Y-110265481D01*
X57644110Y-110284459D01*
X57556662Y-110291004D01*
X57487130Y-110287392D01*
X57426393Y-110277132D01*
X57373297Y-110260901D01*
X57299617Y-110225704D01*
X57240246Y-110183171D01*
X57336172Y-110075399D01*
X57382155Y-110106460D01*
X57435213Y-110132124D01*
X57492651Y-110148774D01*
X57555991Y-110154473D01*
G37*
G36*
X58395209Y-110154473D02*
G01*
X58456322Y-110148254D01*
X58499806Y-110131758D01*
X58522297Y-110113955D01*
X58535044Y-110092988D01*
X58539374Y-110067705D01*
X58535991Y-110042004D01*
X58526429Y-110021543D01*
X58509220Y-110004629D01*
X58475687Y-109986189D01*
X58432874Y-109970194D01*
X58362297Y-109949370D01*
X58293696Y-109928381D01*
X58237367Y-109904246D01*
X58189025Y-109872767D01*
X58154019Y-109834637D01*
X58137958Y-109804807D01*
X58127866Y-109769301D01*
X58124283Y-109726803D01*
X58128438Y-109684614D01*
X58140559Y-109646788D01*
X58160675Y-109612376D01*
X58187636Y-109582688D01*
X58222312Y-109557016D01*
X58266005Y-109535378D01*
X58312811Y-109520568D01*
X58367783Y-109511091D01*
X58432273Y-109507718D01*
X58523975Y-109514304D01*
X58598847Y-109532569D01*
X58666608Y-109561186D01*
X58721395Y-109594485D01*
X58645802Y-109707203D01*
X58599355Y-109681319D01*
X58548838Y-109660675D01*
X58495281Y-109647353D01*
X58436486Y-109642784D01*
X58376396Y-109648322D01*
X58341598Y-109661713D01*
X58324840Y-109676219D01*
X58315176Y-109693408D01*
X58311861Y-109714225D01*
X58315677Y-109736323D01*
X58326882Y-109754464D01*
X58345799Y-109769207D01*
X58381532Y-109785971D01*
X58494616Y-109821997D01*
X58563876Y-109844031D01*
X58620218Y-109868220D01*
X58668340Y-109899706D01*
X58703138Y-109938928D01*
X58718857Y-109969664D01*
X58728933Y-110007586D01*
X58732570Y-110054394D01*
X58727066Y-110106254D01*
X58711354Y-110150004D01*
X58685675Y-110187384D01*
X58651877Y-110218809D01*
X58611057Y-110244847D01*
X58562149Y-110265481D01*
X58483329Y-110284459D01*
X58395881Y-110291004D01*
X58326349Y-110287392D01*
X58265612Y-110277132D01*
X58212516Y-110260901D01*
X58138835Y-110225704D01*
X58079464Y-110183171D01*
X58175391Y-110075399D01*
X58221373Y-110106460D01*
X58274431Y-110132124D01*
X58331870Y-110148774D01*
X58395209Y-110154473D01*
G37*
G36*
X58909585Y-110528286D02*
G01*
X58909585Y-110379176D01*
X59609585Y-110379176D01*
X59609585Y-110528286D01*
X58909585Y-110528286D01*
G37*
G36*
X60061739Y-109280877D02*
G01*
X60130493Y-109285400D01*
X60188333Y-109298088D01*
X60237044Y-109318002D01*
X60281355Y-109346189D01*
X60316841Y-109379349D01*
X60344511Y-109417775D01*
X60364683Y-109460770D01*
X60376796Y-109506363D01*
X60380904Y-109555284D01*
X60375669Y-109616095D01*
X60359899Y-109675696D01*
X60333496Y-109734023D01*
X60291694Y-109799588D01*
X60239435Y-109865241D01*
X60166703Y-109944180D01*
X60083684Y-110025575D01*
X59974911Y-110125102D01*
X60403313Y-110125102D01*
X60383041Y-110270000D01*
X59763519Y-110270000D01*
X59763519Y-110134872D01*
X59936382Y-109964452D01*
X60058564Y-109833904D01*
X60104535Y-109777860D01*
X60136966Y-109732055D01*
X60162636Y-109686900D01*
X60178609Y-109647730D01*
X60188127Y-109608295D01*
X60191249Y-109569328D01*
X60186650Y-109526505D01*
X60173778Y-109492121D01*
X60153086Y-109464303D01*
X60125384Y-109443501D01*
X60090502Y-109430465D01*
X60046352Y-109425774D01*
X59988550Y-109431983D01*
X59943037Y-109449221D01*
X59902858Y-109478383D01*
X59860117Y-109525181D01*
X59743918Y-109437009D01*
X59783649Y-109390712D01*
X59827410Y-109352537D01*
X59875504Y-109321849D01*
X59927908Y-109299785D01*
X59989397Y-109285826D01*
X60061739Y-109280877D01*
G37*
G36*
X60968124Y-110291004D02*
G01*
X60883455Y-110284186D01*
X60810657Y-110264774D01*
X60747634Y-110233607D01*
X60692697Y-110190123D01*
X60646480Y-110134067D01*
X60608660Y-110063492D01*
X60583144Y-109986842D01*
X60566654Y-109894684D01*
X60560727Y-109784200D01*
X60564829Y-109702089D01*
X60576514Y-109629818D01*
X60595043Y-109566153D01*
X60621463Y-109505431D01*
X60652882Y-109453259D01*
X60689199Y-109408677D01*
X60731439Y-109369695D01*
X60777508Y-109337972D01*
X60827807Y-109313117D01*
X60881126Y-109295268D01*
X60936611Y-109284510D01*
X60994747Y-109280877D01*
X61062460Y-109284678D01*
X61119058Y-109295271D01*
X61166266Y-109311713D01*
X61232224Y-109347965D01*
X61292235Y-109395671D01*
X61187943Y-109502772D01*
X61142746Y-109467296D01*
X61100443Y-109444031D01*
X61055098Y-109430003D01*
X61002441Y-109425102D01*
X60953433Y-109430061D01*
X60908285Y-109444703D01*
X60867762Y-109469616D01*
X60831287Y-109507046D01*
X60802569Y-109554240D01*
X60779141Y-109618299D01*
X60765409Y-109690793D01*
X60760274Y-109785605D01*
X60763321Y-109873305D01*
X60771544Y-109942386D01*
X60783721Y-109995959D01*
X60803318Y-110046718D01*
X60826987Y-110084103D01*
X60854368Y-110110753D01*
X60887513Y-110129943D01*
X60926602Y-110141889D01*
X60973070Y-110146107D01*
X61012207Y-110143691D01*
X61048297Y-110136643D01*
X61115830Y-110111120D01*
X61115830Y-109864007D01*
X60970262Y-109864007D01*
X60950661Y-109723995D01*
X61298524Y-109723995D01*
X61298524Y-110197887D01*
X61226323Y-110235218D01*
X61148376Y-110265115D01*
X61065227Y-110284245D01*
X60968124Y-110291004D01*
G37*
G36*
X61710073Y-110288928D02*
G01*
X61535745Y-110235012D01*
X61902536Y-109444703D01*
X61467174Y-109444703D01*
X61467174Y-109301882D01*
X62089443Y-109301882D01*
X62089443Y-109430720D01*
X61710073Y-110288928D01*
G37*
G36*
X62546483Y-109280877D02*
G01*
X62703287Y-109340411D01*
X62463868Y-109915115D01*
X62958765Y-109915115D01*
X62958765Y-110055799D01*
X62272076Y-110055799D01*
X62272076Y-109929769D01*
X62546483Y-109280877D01*
G37*
G36*
X62852397Y-109667269D02*
G01*
X62852397Y-110270000D01*
X62674588Y-110270000D01*
X62672512Y-109937524D01*
X62696265Y-109667269D01*
X62852397Y-109667269D01*
G37*
X56467618Y-99514819D02*
X56134285Y-99038628D01*
X55896190Y-99514819D02*
X55896190Y-98514819D01*
X55896190Y-98514819D02*
X56277142Y-98514819D01*
X56277142Y-98514819D02*
X56372380Y-98562438D01*
X56372380Y-98562438D02*
X56419999Y-98610057D01*
X56419999Y-98610057D02*
X56467618Y-98705295D01*
X56467618Y-98705295D02*
X56467618Y-98848152D01*
X56467618Y-98848152D02*
X56419999Y-98943390D01*
X56419999Y-98943390D02*
X56372380Y-98991009D01*
X56372380Y-98991009D02*
X56277142Y-99038628D01*
X56277142Y-99038628D02*
X55896190Y-99038628D01*
X56658095Y-99610057D02*
X57419999Y-99610057D01*
X57610476Y-99467200D02*
X57753333Y-99514819D01*
X57753333Y-99514819D02*
X57991428Y-99514819D01*
X57991428Y-99514819D02*
X58086666Y-99467200D01*
X58086666Y-99467200D02*
X58134285Y-99419580D01*
X58134285Y-99419580D02*
X58181904Y-99324342D01*
X58181904Y-99324342D02*
X58181904Y-99229104D01*
X58181904Y-99229104D02*
X58134285Y-99133866D01*
X58134285Y-99133866D02*
X58086666Y-99086247D01*
X58086666Y-99086247D02*
X57991428Y-99038628D01*
X57991428Y-99038628D02*
X57800952Y-98991009D01*
X57800952Y-98991009D02*
X57705714Y-98943390D01*
X57705714Y-98943390D02*
X57658095Y-98895771D01*
X57658095Y-98895771D02*
X57610476Y-98800533D01*
X57610476Y-98800533D02*
X57610476Y-98705295D01*
X57610476Y-98705295D02*
X57658095Y-98610057D01*
X57658095Y-98610057D02*
X57705714Y-98562438D01*
X57705714Y-98562438D02*
X57800952Y-98514819D01*
X57800952Y-98514819D02*
X58039047Y-98514819D01*
X58039047Y-98514819D02*
X58181904Y-98562438D01*
X58610476Y-99514819D02*
X58610476Y-98514819D01*
X58610476Y-98514819D02*
X58848571Y-98514819D01*
X58848571Y-98514819D02*
X58991428Y-98562438D01*
X58991428Y-98562438D02*
X59086666Y-98657676D01*
X59086666Y-98657676D02*
X59134285Y-98752914D01*
X59134285Y-98752914D02*
X59181904Y-98943390D01*
X59181904Y-98943390D02*
X59181904Y-99086247D01*
X59181904Y-99086247D02*
X59134285Y-99276723D01*
X59134285Y-99276723D02*
X59086666Y-99371961D01*
X59086666Y-99371961D02*
X58991428Y-99467200D01*
X58991428Y-99467200D02*
X58848571Y-99514819D01*
X58848571Y-99514819D02*
X58610476Y-99514819D01*
X59562857Y-99229104D02*
X60039047Y-99229104D01*
X59467619Y-99514819D02*
X59800952Y-98514819D01*
X59800952Y-98514819D02*
X60134285Y-99514819D01*
X60991428Y-99514819D02*
X60420000Y-99514819D01*
X60705714Y-99514819D02*
X60705714Y-98514819D01*
X60705714Y-98514819D02*
X60610476Y-98657676D01*
X60610476Y-98657676D02*
X60515238Y-98752914D01*
X60515238Y-98752914D02*
X60420000Y-98800533D01*
X129899580Y-120062857D02*
X129947200Y-120110476D01*
X129947200Y-120110476D02*
X129994819Y-120253333D01*
X129994819Y-120253333D02*
X129994819Y-120348571D01*
X129994819Y-120348571D02*
X129947200Y-120491428D01*
X129947200Y-120491428D02*
X129851961Y-120586666D01*
X129851961Y-120586666D02*
X129756723Y-120634285D01*
X129756723Y-120634285D02*
X129566247Y-120681904D01*
X129566247Y-120681904D02*
X129423390Y-120681904D01*
X129423390Y-120681904D02*
X129232914Y-120634285D01*
X129232914Y-120634285D02*
X129137676Y-120586666D01*
X129137676Y-120586666D02*
X129042438Y-120491428D01*
X129042438Y-120491428D02*
X128994819Y-120348571D01*
X128994819Y-120348571D02*
X128994819Y-120253333D01*
X128994819Y-120253333D02*
X129042438Y-120110476D01*
X129042438Y-120110476D02*
X129090057Y-120062857D01*
X129994819Y-119110476D02*
X129994819Y-119681904D01*
X129994819Y-119396190D02*
X128994819Y-119396190D01*
X128994819Y-119396190D02*
X129137676Y-119491428D01*
X129137676Y-119491428D02*
X129232914Y-119586666D01*
X129232914Y-119586666D02*
X129280533Y-119681904D01*
X129994819Y-118158095D02*
X129994819Y-118729523D01*
X129994819Y-118443809D02*
X128994819Y-118443809D01*
X128994819Y-118443809D02*
X129137676Y-118539047D01*
X129137676Y-118539047D02*
X129232914Y-118634285D01*
X129232914Y-118634285D02*
X129280533Y-118729523D01*
X111849819Y-86462856D02*
X111849819Y-85796190D01*
X111849819Y-85796190D02*
X112849819Y-86224761D01*
X112183152Y-84986666D02*
X112849819Y-84986666D01*
X111802200Y-85224761D02*
X112516485Y-85462856D01*
X112516485Y-85462856D02*
X112516485Y-84843809D01*
X112849819Y-83986666D02*
X112849819Y-84462856D01*
X112849819Y-84462856D02*
X111849819Y-84462856D01*
X112802200Y-83700951D02*
X112849819Y-83558094D01*
X112849819Y-83558094D02*
X112849819Y-83319999D01*
X112849819Y-83319999D02*
X112802200Y-83224761D01*
X112802200Y-83224761D02*
X112754580Y-83177142D01*
X112754580Y-83177142D02*
X112659342Y-83129523D01*
X112659342Y-83129523D02*
X112564104Y-83129523D01*
X112564104Y-83129523D02*
X112468866Y-83177142D01*
X112468866Y-83177142D02*
X112421247Y-83224761D01*
X112421247Y-83224761D02*
X112373628Y-83319999D01*
X112373628Y-83319999D02*
X112326009Y-83510475D01*
X112326009Y-83510475D02*
X112278390Y-83605713D01*
X112278390Y-83605713D02*
X112230771Y-83653332D01*
X112230771Y-83653332D02*
X112135533Y-83700951D01*
X112135533Y-83700951D02*
X112040295Y-83700951D01*
X112040295Y-83700951D02*
X111945057Y-83653332D01*
X111945057Y-83653332D02*
X111897438Y-83605713D01*
X111897438Y-83605713D02*
X111849819Y-83510475D01*
X111849819Y-83510475D02*
X111849819Y-83272380D01*
X111849819Y-83272380D02*
X111897438Y-83129523D01*
X112278390Y-82558094D02*
X112230771Y-82653332D01*
X112230771Y-82653332D02*
X112183152Y-82700951D01*
X112183152Y-82700951D02*
X112087914Y-82748570D01*
X112087914Y-82748570D02*
X112040295Y-82748570D01*
X112040295Y-82748570D02*
X111945057Y-82700951D01*
X111945057Y-82700951D02*
X111897438Y-82653332D01*
X111897438Y-82653332D02*
X111849819Y-82558094D01*
X111849819Y-82558094D02*
X111849819Y-82367618D01*
X111849819Y-82367618D02*
X111897438Y-82272380D01*
X111897438Y-82272380D02*
X111945057Y-82224761D01*
X111945057Y-82224761D02*
X112040295Y-82177142D01*
X112040295Y-82177142D02*
X112087914Y-82177142D01*
X112087914Y-82177142D02*
X112183152Y-82224761D01*
X112183152Y-82224761D02*
X112230771Y-82272380D01*
X112230771Y-82272380D02*
X112278390Y-82367618D01*
X112278390Y-82367618D02*
X112278390Y-82558094D01*
X112278390Y-82558094D02*
X112326009Y-82653332D01*
X112326009Y-82653332D02*
X112373628Y-82700951D01*
X112373628Y-82700951D02*
X112468866Y-82748570D01*
X112468866Y-82748570D02*
X112659342Y-82748570D01*
X112659342Y-82748570D02*
X112754580Y-82700951D01*
X112754580Y-82700951D02*
X112802200Y-82653332D01*
X112802200Y-82653332D02*
X112849819Y-82558094D01*
X112849819Y-82558094D02*
X112849819Y-82367618D01*
X112849819Y-82367618D02*
X112802200Y-82272380D01*
X112802200Y-82272380D02*
X112754580Y-82224761D01*
X112754580Y-82224761D02*
X112659342Y-82177142D01*
X112659342Y-82177142D02*
X112468866Y-82177142D01*
X112468866Y-82177142D02*
X112373628Y-82224761D01*
X112373628Y-82224761D02*
X112326009Y-82272380D01*
X112326009Y-82272380D02*
X112278390Y-82367618D01*
X111849819Y-81272380D02*
X111849819Y-81748570D01*
X111849819Y-81748570D02*
X112326009Y-81796189D01*
X112326009Y-81796189D02*
X112278390Y-81748570D01*
X112278390Y-81748570D02*
X112230771Y-81653332D01*
X112230771Y-81653332D02*
X112230771Y-81415237D01*
X112230771Y-81415237D02*
X112278390Y-81319999D01*
X112278390Y-81319999D02*
X112326009Y-81272380D01*
X112326009Y-81272380D02*
X112421247Y-81224761D01*
X112421247Y-81224761D02*
X112659342Y-81224761D01*
X112659342Y-81224761D02*
X112754580Y-81272380D01*
X112754580Y-81272380D02*
X112802200Y-81319999D01*
X112802200Y-81319999D02*
X112849819Y-81415237D01*
X112849819Y-81415237D02*
X112849819Y-81653332D01*
X112849819Y-81653332D02*
X112802200Y-81748570D01*
X112802200Y-81748570D02*
X112754580Y-81796189D01*
X55276904Y-49953152D02*
X55276904Y-50619819D01*
X55038809Y-49572200D02*
X54800714Y-50286485D01*
X54800714Y-50286485D02*
X55419761Y-50286485D01*
X55991190Y-49619819D02*
X56086428Y-49619819D01*
X56086428Y-49619819D02*
X56181666Y-49667438D01*
X56181666Y-49667438D02*
X56229285Y-49715057D01*
X56229285Y-49715057D02*
X56276904Y-49810295D01*
X56276904Y-49810295D02*
X56324523Y-50000771D01*
X56324523Y-50000771D02*
X56324523Y-50238866D01*
X56324523Y-50238866D02*
X56276904Y-50429342D01*
X56276904Y-50429342D02*
X56229285Y-50524580D01*
X56229285Y-50524580D02*
X56181666Y-50572200D01*
X56181666Y-50572200D02*
X56086428Y-50619819D01*
X56086428Y-50619819D02*
X55991190Y-50619819D01*
X55991190Y-50619819D02*
X55895952Y-50572200D01*
X55895952Y-50572200D02*
X55848333Y-50524580D01*
X55848333Y-50524580D02*
X55800714Y-50429342D01*
X55800714Y-50429342D02*
X55753095Y-50238866D01*
X55753095Y-50238866D02*
X55753095Y-50000771D01*
X55753095Y-50000771D02*
X55800714Y-49810295D01*
X55800714Y-49810295D02*
X55848333Y-49715057D01*
X55848333Y-49715057D02*
X55895952Y-49667438D01*
X55895952Y-49667438D02*
X55991190Y-49619819D01*
X57181666Y-49953152D02*
X57181666Y-50619819D01*
X56943571Y-49572200D02*
X56705476Y-50286485D01*
X56705476Y-50286485D02*
X57324523Y-50286485D01*
X57895952Y-49619819D02*
X57991190Y-49619819D01*
X57991190Y-49619819D02*
X58086428Y-49667438D01*
X58086428Y-49667438D02*
X58134047Y-49715057D01*
X58134047Y-49715057D02*
X58181666Y-49810295D01*
X58181666Y-49810295D02*
X58229285Y-50000771D01*
X58229285Y-50000771D02*
X58229285Y-50238866D01*
X58229285Y-50238866D02*
X58181666Y-50429342D01*
X58181666Y-50429342D02*
X58134047Y-50524580D01*
X58134047Y-50524580D02*
X58086428Y-50572200D01*
X58086428Y-50572200D02*
X57991190Y-50619819D01*
X57991190Y-50619819D02*
X57895952Y-50619819D01*
X57895952Y-50619819D02*
X57800714Y-50572200D01*
X57800714Y-50572200D02*
X57753095Y-50524580D01*
X57753095Y-50524580D02*
X57705476Y-50429342D01*
X57705476Y-50429342D02*
X57657857Y-50238866D01*
X57657857Y-50238866D02*
X57657857Y-50000771D01*
X57657857Y-50000771D02*
X57705476Y-49810295D01*
X57705476Y-49810295D02*
X57753095Y-49715057D01*
X57753095Y-49715057D02*
X57800714Y-49667438D01*
X57800714Y-49667438D02*
X57895952Y-49619819D01*
X56348333Y-75274580D02*
X56300714Y-75322200D01*
X56300714Y-75322200D02*
X56157857Y-75369819D01*
X56157857Y-75369819D02*
X56062619Y-75369819D01*
X56062619Y-75369819D02*
X55919762Y-75322200D01*
X55919762Y-75322200D02*
X55824524Y-75226961D01*
X55824524Y-75226961D02*
X55776905Y-75131723D01*
X55776905Y-75131723D02*
X55729286Y-74941247D01*
X55729286Y-74941247D02*
X55729286Y-74798390D01*
X55729286Y-74798390D02*
X55776905Y-74607914D01*
X55776905Y-74607914D02*
X55824524Y-74512676D01*
X55824524Y-74512676D02*
X55919762Y-74417438D01*
X55919762Y-74417438D02*
X56062619Y-74369819D01*
X56062619Y-74369819D02*
X56157857Y-74369819D01*
X56157857Y-74369819D02*
X56300714Y-74417438D01*
X56300714Y-74417438D02*
X56348333Y-74465057D01*
X56729286Y-74465057D02*
X56776905Y-74417438D01*
X56776905Y-74417438D02*
X56872143Y-74369819D01*
X56872143Y-74369819D02*
X57110238Y-74369819D01*
X57110238Y-74369819D02*
X57205476Y-74417438D01*
X57205476Y-74417438D02*
X57253095Y-74465057D01*
X57253095Y-74465057D02*
X57300714Y-74560295D01*
X57300714Y-74560295D02*
X57300714Y-74655533D01*
X57300714Y-74655533D02*
X57253095Y-74798390D01*
X57253095Y-74798390D02*
X56681667Y-75369819D01*
X56681667Y-75369819D02*
X57300714Y-75369819D01*
X78136904Y-49953152D02*
X78136904Y-50619819D01*
X77898809Y-49572200D02*
X77660714Y-50286485D01*
X77660714Y-50286485D02*
X78279761Y-50286485D01*
X78851190Y-49619819D02*
X78946428Y-49619819D01*
X78946428Y-49619819D02*
X79041666Y-49667438D01*
X79041666Y-49667438D02*
X79089285Y-49715057D01*
X79089285Y-49715057D02*
X79136904Y-49810295D01*
X79136904Y-49810295D02*
X79184523Y-50000771D01*
X79184523Y-50000771D02*
X79184523Y-50238866D01*
X79184523Y-50238866D02*
X79136904Y-50429342D01*
X79136904Y-50429342D02*
X79089285Y-50524580D01*
X79089285Y-50524580D02*
X79041666Y-50572200D01*
X79041666Y-50572200D02*
X78946428Y-50619819D01*
X78946428Y-50619819D02*
X78851190Y-50619819D01*
X78851190Y-50619819D02*
X78755952Y-50572200D01*
X78755952Y-50572200D02*
X78708333Y-50524580D01*
X78708333Y-50524580D02*
X78660714Y-50429342D01*
X78660714Y-50429342D02*
X78613095Y-50238866D01*
X78613095Y-50238866D02*
X78613095Y-50000771D01*
X78613095Y-50000771D02*
X78660714Y-49810295D01*
X78660714Y-49810295D02*
X78708333Y-49715057D01*
X78708333Y-49715057D02*
X78755952Y-49667438D01*
X78755952Y-49667438D02*
X78851190Y-49619819D01*
X80041666Y-49953152D02*
X80041666Y-50619819D01*
X79803571Y-49572200D02*
X79565476Y-50286485D01*
X79565476Y-50286485D02*
X80184523Y-50286485D01*
X80755952Y-49619819D02*
X80851190Y-49619819D01*
X80851190Y-49619819D02*
X80946428Y-49667438D01*
X80946428Y-49667438D02*
X80994047Y-49715057D01*
X80994047Y-49715057D02*
X81041666Y-49810295D01*
X81041666Y-49810295D02*
X81089285Y-50000771D01*
X81089285Y-50000771D02*
X81089285Y-50238866D01*
X81089285Y-50238866D02*
X81041666Y-50429342D01*
X81041666Y-50429342D02*
X80994047Y-50524580D01*
X80994047Y-50524580D02*
X80946428Y-50572200D01*
X80946428Y-50572200D02*
X80851190Y-50619819D01*
X80851190Y-50619819D02*
X80755952Y-50619819D01*
X80755952Y-50619819D02*
X80660714Y-50572200D01*
X80660714Y-50572200D02*
X80613095Y-50524580D01*
X80613095Y-50524580D02*
X80565476Y-50429342D01*
X80565476Y-50429342D02*
X80517857Y-50238866D01*
X80517857Y-50238866D02*
X80517857Y-50000771D01*
X80517857Y-50000771D02*
X80565476Y-49810295D01*
X80565476Y-49810295D02*
X80613095Y-49715057D01*
X80613095Y-49715057D02*
X80660714Y-49667438D01*
X80660714Y-49667438D02*
X80755952Y-49619819D01*
X98219580Y-65531666D02*
X98267200Y-65579285D01*
X98267200Y-65579285D02*
X98314819Y-65722142D01*
X98314819Y-65722142D02*
X98314819Y-65817380D01*
X98314819Y-65817380D02*
X98267200Y-65960237D01*
X98267200Y-65960237D02*
X98171961Y-66055475D01*
X98171961Y-66055475D02*
X98076723Y-66103094D01*
X98076723Y-66103094D02*
X97886247Y-66150713D01*
X97886247Y-66150713D02*
X97743390Y-66150713D01*
X97743390Y-66150713D02*
X97552914Y-66103094D01*
X97552914Y-66103094D02*
X97457676Y-66055475D01*
X97457676Y-66055475D02*
X97362438Y-65960237D01*
X97362438Y-65960237D02*
X97314819Y-65817380D01*
X97314819Y-65817380D02*
X97314819Y-65722142D01*
X97314819Y-65722142D02*
X97362438Y-65579285D01*
X97362438Y-65579285D02*
X97410057Y-65531666D01*
X97314819Y-64626904D02*
X97314819Y-65103094D01*
X97314819Y-65103094D02*
X97791009Y-65150713D01*
X97791009Y-65150713D02*
X97743390Y-65103094D01*
X97743390Y-65103094D02*
X97695771Y-65007856D01*
X97695771Y-65007856D02*
X97695771Y-64769761D01*
X97695771Y-64769761D02*
X97743390Y-64674523D01*
X97743390Y-64674523D02*
X97791009Y-64626904D01*
X97791009Y-64626904D02*
X97886247Y-64579285D01*
X97886247Y-64579285D02*
X98124342Y-64579285D01*
X98124342Y-64579285D02*
X98219580Y-64626904D01*
X98219580Y-64626904D02*
X98267200Y-64674523D01*
X98267200Y-64674523D02*
X98314819Y-64769761D01*
X98314819Y-64769761D02*
X98314819Y-65007856D01*
X98314819Y-65007856D02*
X98267200Y-65103094D01*
X98267200Y-65103094D02*
X98219580Y-65150713D01*
X93706528Y-130534580D02*
X93658909Y-130582200D01*
X93658909Y-130582200D02*
X93516052Y-130629819D01*
X93516052Y-130629819D02*
X93420814Y-130629819D01*
X93420814Y-130629819D02*
X93277957Y-130582200D01*
X93277957Y-130582200D02*
X93182719Y-130486961D01*
X93182719Y-130486961D02*
X93135100Y-130391723D01*
X93135100Y-130391723D02*
X93087481Y-130201247D01*
X93087481Y-130201247D02*
X93087481Y-130058390D01*
X93087481Y-130058390D02*
X93135100Y-129867914D01*
X93135100Y-129867914D02*
X93182719Y-129772676D01*
X93182719Y-129772676D02*
X93277957Y-129677438D01*
X93277957Y-129677438D02*
X93420814Y-129629819D01*
X93420814Y-129629819D02*
X93516052Y-129629819D01*
X93516052Y-129629819D02*
X93658909Y-129677438D01*
X93658909Y-129677438D02*
X93706528Y-129725057D01*
X93897005Y-130725057D02*
X94658909Y-130725057D01*
X94849386Y-129725057D02*
X94897005Y-129677438D01*
X94897005Y-129677438D02*
X94992243Y-129629819D01*
X94992243Y-129629819D02*
X95230338Y-129629819D01*
X95230338Y-129629819D02*
X95325576Y-129677438D01*
X95325576Y-129677438D02*
X95373195Y-129725057D01*
X95373195Y-129725057D02*
X95420814Y-129820295D01*
X95420814Y-129820295D02*
X95420814Y-129915533D01*
X95420814Y-129915533D02*
X95373195Y-130058390D01*
X95373195Y-130058390D02*
X94801767Y-130629819D01*
X94801767Y-130629819D02*
X95420814Y-130629819D01*
X127423152Y-83788095D02*
X128089819Y-83788095D01*
X127042200Y-84026190D02*
X127756485Y-84264285D01*
X127756485Y-84264285D02*
X127756485Y-83645238D01*
X127089819Y-83073809D02*
X127089819Y-82978571D01*
X127089819Y-82978571D02*
X127137438Y-82883333D01*
X127137438Y-82883333D02*
X127185057Y-82835714D01*
X127185057Y-82835714D02*
X127280295Y-82788095D01*
X127280295Y-82788095D02*
X127470771Y-82740476D01*
X127470771Y-82740476D02*
X127708866Y-82740476D01*
X127708866Y-82740476D02*
X127899342Y-82788095D01*
X127899342Y-82788095D02*
X127994580Y-82835714D01*
X127994580Y-82835714D02*
X128042200Y-82883333D01*
X128042200Y-82883333D02*
X128089819Y-82978571D01*
X128089819Y-82978571D02*
X128089819Y-83073809D01*
X128089819Y-83073809D02*
X128042200Y-83169047D01*
X128042200Y-83169047D02*
X127994580Y-83216666D01*
X127994580Y-83216666D02*
X127899342Y-83264285D01*
X127899342Y-83264285D02*
X127708866Y-83311904D01*
X127708866Y-83311904D02*
X127470771Y-83311904D01*
X127470771Y-83311904D02*
X127280295Y-83264285D01*
X127280295Y-83264285D02*
X127185057Y-83216666D01*
X127185057Y-83216666D02*
X127137438Y-83169047D01*
X127137438Y-83169047D02*
X127089819Y-83073809D01*
X127089819Y-81835714D02*
X127089819Y-82311904D01*
X127089819Y-82311904D02*
X127566009Y-82359523D01*
X127566009Y-82359523D02*
X127518390Y-82311904D01*
X127518390Y-82311904D02*
X127470771Y-82216666D01*
X127470771Y-82216666D02*
X127470771Y-81978571D01*
X127470771Y-81978571D02*
X127518390Y-81883333D01*
X127518390Y-81883333D02*
X127566009Y-81835714D01*
X127566009Y-81835714D02*
X127661247Y-81788095D01*
X127661247Y-81788095D02*
X127899342Y-81788095D01*
X127899342Y-81788095D02*
X127994580Y-81835714D01*
X127994580Y-81835714D02*
X128042200Y-81883333D01*
X128042200Y-81883333D02*
X128089819Y-81978571D01*
X128089819Y-81978571D02*
X128089819Y-82216666D01*
X128089819Y-82216666D02*
X128042200Y-82311904D01*
X128042200Y-82311904D02*
X127994580Y-82359523D01*
X127089819Y-81454761D02*
X127089819Y-80835714D01*
X127089819Y-80835714D02*
X127470771Y-81169047D01*
X127470771Y-81169047D02*
X127470771Y-81026190D01*
X127470771Y-81026190D02*
X127518390Y-80930952D01*
X127518390Y-80930952D02*
X127566009Y-80883333D01*
X127566009Y-80883333D02*
X127661247Y-80835714D01*
X127661247Y-80835714D02*
X127899342Y-80835714D01*
X127899342Y-80835714D02*
X127994580Y-80883333D01*
X127994580Y-80883333D02*
X128042200Y-80930952D01*
X128042200Y-80930952D02*
X128089819Y-81026190D01*
X128089819Y-81026190D02*
X128089819Y-81311904D01*
X128089819Y-81311904D02*
X128042200Y-81407142D01*
X128042200Y-81407142D02*
X127994580Y-81454761D01*
X86661666Y-125661009D02*
X86328333Y-125661009D01*
X86328333Y-126184819D02*
X86328333Y-125184819D01*
X86328333Y-125184819D02*
X86804523Y-125184819D01*
X87709285Y-126184819D02*
X87137857Y-126184819D01*
X87423571Y-126184819D02*
X87423571Y-125184819D01*
X87423571Y-125184819D02*
X87328333Y-125327676D01*
X87328333Y-125327676D02*
X87233095Y-125422914D01*
X87233095Y-125422914D02*
X87137857Y-125470533D01*
X127958152Y-110458095D02*
X128624819Y-110458095D01*
X127577200Y-110696190D02*
X128291485Y-110934285D01*
X128291485Y-110934285D02*
X128291485Y-110315238D01*
X127624819Y-109743809D02*
X127624819Y-109648571D01*
X127624819Y-109648571D02*
X127672438Y-109553333D01*
X127672438Y-109553333D02*
X127720057Y-109505714D01*
X127720057Y-109505714D02*
X127815295Y-109458095D01*
X127815295Y-109458095D02*
X128005771Y-109410476D01*
X128005771Y-109410476D02*
X128243866Y-109410476D01*
X128243866Y-109410476D02*
X128434342Y-109458095D01*
X128434342Y-109458095D02*
X128529580Y-109505714D01*
X128529580Y-109505714D02*
X128577200Y-109553333D01*
X128577200Y-109553333D02*
X128624819Y-109648571D01*
X128624819Y-109648571D02*
X128624819Y-109743809D01*
X128624819Y-109743809D02*
X128577200Y-109839047D01*
X128577200Y-109839047D02*
X128529580Y-109886666D01*
X128529580Y-109886666D02*
X128434342Y-109934285D01*
X128434342Y-109934285D02*
X128243866Y-109981904D01*
X128243866Y-109981904D02*
X128005771Y-109981904D01*
X128005771Y-109981904D02*
X127815295Y-109934285D01*
X127815295Y-109934285D02*
X127720057Y-109886666D01*
X127720057Y-109886666D02*
X127672438Y-109839047D01*
X127672438Y-109839047D02*
X127624819Y-109743809D01*
X127624819Y-108505714D02*
X127624819Y-108981904D01*
X127624819Y-108981904D02*
X128101009Y-109029523D01*
X128101009Y-109029523D02*
X128053390Y-108981904D01*
X128053390Y-108981904D02*
X128005771Y-108886666D01*
X128005771Y-108886666D02*
X128005771Y-108648571D01*
X128005771Y-108648571D02*
X128053390Y-108553333D01*
X128053390Y-108553333D02*
X128101009Y-108505714D01*
X128101009Y-108505714D02*
X128196247Y-108458095D01*
X128196247Y-108458095D02*
X128434342Y-108458095D01*
X128434342Y-108458095D02*
X128529580Y-108505714D01*
X128529580Y-108505714D02*
X128577200Y-108553333D01*
X128577200Y-108553333D02*
X128624819Y-108648571D01*
X128624819Y-108648571D02*
X128624819Y-108886666D01*
X128624819Y-108886666D02*
X128577200Y-108981904D01*
X128577200Y-108981904D02*
X128529580Y-109029523D01*
X127624819Y-108124761D02*
X127624819Y-107505714D01*
X127624819Y-107505714D02*
X128005771Y-107839047D01*
X128005771Y-107839047D02*
X128005771Y-107696190D01*
X128005771Y-107696190D02*
X128053390Y-107600952D01*
X128053390Y-107600952D02*
X128101009Y-107553333D01*
X128101009Y-107553333D02*
X128196247Y-107505714D01*
X128196247Y-107505714D02*
X128434342Y-107505714D01*
X128434342Y-107505714D02*
X128529580Y-107553333D01*
X128529580Y-107553333D02*
X128577200Y-107600952D01*
X128577200Y-107600952D02*
X128624819Y-107696190D01*
X128624819Y-107696190D02*
X128624819Y-107981904D01*
X128624819Y-107981904D02*
X128577200Y-108077142D01*
X128577200Y-108077142D02*
X128529580Y-108124761D01*
X64825952Y-49619819D02*
X65492618Y-49619819D01*
X65492618Y-49619819D02*
X65064047Y-50619819D01*
X66302142Y-49953152D02*
X66302142Y-50619819D01*
X66064047Y-49572200D02*
X65825952Y-50286485D01*
X65825952Y-50286485D02*
X66444999Y-50286485D01*
X67302142Y-50619819D02*
X66825952Y-50619819D01*
X66825952Y-50619819D02*
X66825952Y-49619819D01*
X67587857Y-50572200D02*
X67730714Y-50619819D01*
X67730714Y-50619819D02*
X67968809Y-50619819D01*
X67968809Y-50619819D02*
X68064047Y-50572200D01*
X68064047Y-50572200D02*
X68111666Y-50524580D01*
X68111666Y-50524580D02*
X68159285Y-50429342D01*
X68159285Y-50429342D02*
X68159285Y-50334104D01*
X68159285Y-50334104D02*
X68111666Y-50238866D01*
X68111666Y-50238866D02*
X68064047Y-50191247D01*
X68064047Y-50191247D02*
X67968809Y-50143628D01*
X67968809Y-50143628D02*
X67778333Y-50096009D01*
X67778333Y-50096009D02*
X67683095Y-50048390D01*
X67683095Y-50048390D02*
X67635476Y-50000771D01*
X67635476Y-50000771D02*
X67587857Y-49905533D01*
X67587857Y-49905533D02*
X67587857Y-49810295D01*
X67587857Y-49810295D02*
X67635476Y-49715057D01*
X67635476Y-49715057D02*
X67683095Y-49667438D01*
X67683095Y-49667438D02*
X67778333Y-49619819D01*
X67778333Y-49619819D02*
X68016428Y-49619819D01*
X68016428Y-49619819D02*
X68159285Y-49667438D01*
X68540238Y-49715057D02*
X68587857Y-49667438D01*
X68587857Y-49667438D02*
X68683095Y-49619819D01*
X68683095Y-49619819D02*
X68921190Y-49619819D01*
X68921190Y-49619819D02*
X69016428Y-49667438D01*
X69016428Y-49667438D02*
X69064047Y-49715057D01*
X69064047Y-49715057D02*
X69111666Y-49810295D01*
X69111666Y-49810295D02*
X69111666Y-49905533D01*
X69111666Y-49905533D02*
X69064047Y-50048390D01*
X69064047Y-50048390D02*
X68492619Y-50619819D01*
X68492619Y-50619819D02*
X69111666Y-50619819D01*
X70016428Y-49619819D02*
X69540238Y-49619819D01*
X69540238Y-49619819D02*
X69492619Y-50096009D01*
X69492619Y-50096009D02*
X69540238Y-50048390D01*
X69540238Y-50048390D02*
X69635476Y-50000771D01*
X69635476Y-50000771D02*
X69873571Y-50000771D01*
X69873571Y-50000771D02*
X69968809Y-50048390D01*
X69968809Y-50048390D02*
X70016428Y-50096009D01*
X70016428Y-50096009D02*
X70064047Y-50191247D01*
X70064047Y-50191247D02*
X70064047Y-50429342D01*
X70064047Y-50429342D02*
X70016428Y-50524580D01*
X70016428Y-50524580D02*
X69968809Y-50572200D01*
X69968809Y-50572200D02*
X69873571Y-50619819D01*
X69873571Y-50619819D02*
X69635476Y-50619819D01*
X69635476Y-50619819D02*
X69540238Y-50572200D01*
X69540238Y-50572200D02*
X69492619Y-50524580D01*
X71016428Y-50619819D02*
X70445000Y-50619819D01*
X70730714Y-50619819D02*
X70730714Y-49619819D01*
X70730714Y-49619819D02*
X70635476Y-49762676D01*
X70635476Y-49762676D02*
X70540238Y-49857914D01*
X70540238Y-49857914D02*
X70445000Y-49905533D01*
X66494819Y-90796428D02*
X65494819Y-90796428D01*
X65494819Y-90796428D02*
X66209104Y-90463095D01*
X66209104Y-90463095D02*
X65494819Y-90129762D01*
X65494819Y-90129762D02*
X66494819Y-90129762D01*
X66399580Y-89082143D02*
X66447200Y-89129762D01*
X66447200Y-89129762D02*
X66494819Y-89272619D01*
X66494819Y-89272619D02*
X66494819Y-89367857D01*
X66494819Y-89367857D02*
X66447200Y-89510714D01*
X66447200Y-89510714D02*
X66351961Y-89605952D01*
X66351961Y-89605952D02*
X66256723Y-89653571D01*
X66256723Y-89653571D02*
X66066247Y-89701190D01*
X66066247Y-89701190D02*
X65923390Y-89701190D01*
X65923390Y-89701190D02*
X65732914Y-89653571D01*
X65732914Y-89653571D02*
X65637676Y-89605952D01*
X65637676Y-89605952D02*
X65542438Y-89510714D01*
X65542438Y-89510714D02*
X65494819Y-89367857D01*
X65494819Y-89367857D02*
X65494819Y-89272619D01*
X65494819Y-89272619D02*
X65542438Y-89129762D01*
X65542438Y-89129762D02*
X65590057Y-89082143D01*
X66494819Y-88653571D02*
X65494819Y-88653571D01*
X65494819Y-88653571D02*
X65494819Y-88272619D01*
X65494819Y-88272619D02*
X65542438Y-88177381D01*
X65542438Y-88177381D02*
X65590057Y-88129762D01*
X65590057Y-88129762D02*
X65685295Y-88082143D01*
X65685295Y-88082143D02*
X65828152Y-88082143D01*
X65828152Y-88082143D02*
X65923390Y-88129762D01*
X65923390Y-88129762D02*
X65971009Y-88177381D01*
X65971009Y-88177381D02*
X66018628Y-88272619D01*
X66018628Y-88272619D02*
X66018628Y-88653571D01*
X65590057Y-87701190D02*
X65542438Y-87653571D01*
X65542438Y-87653571D02*
X65494819Y-87558333D01*
X65494819Y-87558333D02*
X65494819Y-87320238D01*
X65494819Y-87320238D02*
X65542438Y-87225000D01*
X65542438Y-87225000D02*
X65590057Y-87177381D01*
X65590057Y-87177381D02*
X65685295Y-87129762D01*
X65685295Y-87129762D02*
X65780533Y-87129762D01*
X65780533Y-87129762D02*
X65923390Y-87177381D01*
X65923390Y-87177381D02*
X66494819Y-87748809D01*
X66494819Y-87748809D02*
X66494819Y-87129762D01*
X65494819Y-86796428D02*
X65494819Y-86177381D01*
X65494819Y-86177381D02*
X65875771Y-86510714D01*
X65875771Y-86510714D02*
X65875771Y-86367857D01*
X65875771Y-86367857D02*
X65923390Y-86272619D01*
X65923390Y-86272619D02*
X65971009Y-86225000D01*
X65971009Y-86225000D02*
X66066247Y-86177381D01*
X66066247Y-86177381D02*
X66304342Y-86177381D01*
X66304342Y-86177381D02*
X66399580Y-86225000D01*
X66399580Y-86225000D02*
X66447200Y-86272619D01*
X66447200Y-86272619D02*
X66494819Y-86367857D01*
X66494819Y-86367857D02*
X66494819Y-86653571D01*
X66494819Y-86653571D02*
X66447200Y-86748809D01*
X66447200Y-86748809D02*
X66399580Y-86796428D01*
X65494819Y-85558333D02*
X65494819Y-85463095D01*
X65494819Y-85463095D02*
X65542438Y-85367857D01*
X65542438Y-85367857D02*
X65590057Y-85320238D01*
X65590057Y-85320238D02*
X65685295Y-85272619D01*
X65685295Y-85272619D02*
X65875771Y-85225000D01*
X65875771Y-85225000D02*
X66113866Y-85225000D01*
X66113866Y-85225000D02*
X66304342Y-85272619D01*
X66304342Y-85272619D02*
X66399580Y-85320238D01*
X66399580Y-85320238D02*
X66447200Y-85367857D01*
X66447200Y-85367857D02*
X66494819Y-85463095D01*
X66494819Y-85463095D02*
X66494819Y-85558333D01*
X66494819Y-85558333D02*
X66447200Y-85653571D01*
X66447200Y-85653571D02*
X66399580Y-85701190D01*
X66399580Y-85701190D02*
X66304342Y-85748809D01*
X66304342Y-85748809D02*
X66113866Y-85796428D01*
X66113866Y-85796428D02*
X65875771Y-85796428D01*
X65875771Y-85796428D02*
X65685295Y-85748809D01*
X65685295Y-85748809D02*
X65590057Y-85701190D01*
X65590057Y-85701190D02*
X65542438Y-85653571D01*
X65542438Y-85653571D02*
X65494819Y-85558333D01*
X66494819Y-84272619D02*
X66494819Y-84844047D01*
X66494819Y-84558333D02*
X65494819Y-84558333D01*
X65494819Y-84558333D02*
X65637676Y-84653571D01*
X65637676Y-84653571D02*
X65732914Y-84748809D01*
X65732914Y-84748809D02*
X65780533Y-84844047D01*
X65494819Y-83939285D02*
X65494819Y-83272619D01*
X65494819Y-83272619D02*
X66494819Y-83701190D01*
X66590057Y-83129762D02*
X66590057Y-82367857D01*
X66447200Y-82177380D02*
X66494819Y-82034523D01*
X66494819Y-82034523D02*
X66494819Y-81796428D01*
X66494819Y-81796428D02*
X66447200Y-81701190D01*
X66447200Y-81701190D02*
X66399580Y-81653571D01*
X66399580Y-81653571D02*
X66304342Y-81605952D01*
X66304342Y-81605952D02*
X66209104Y-81605952D01*
X66209104Y-81605952D02*
X66113866Y-81653571D01*
X66113866Y-81653571D02*
X66066247Y-81701190D01*
X66066247Y-81701190D02*
X66018628Y-81796428D01*
X66018628Y-81796428D02*
X65971009Y-81986904D01*
X65971009Y-81986904D02*
X65923390Y-82082142D01*
X65923390Y-82082142D02*
X65875771Y-82129761D01*
X65875771Y-82129761D02*
X65780533Y-82177380D01*
X65780533Y-82177380D02*
X65685295Y-82177380D01*
X65685295Y-82177380D02*
X65590057Y-82129761D01*
X65590057Y-82129761D02*
X65542438Y-82082142D01*
X65542438Y-82082142D02*
X65494819Y-81986904D01*
X65494819Y-81986904D02*
X65494819Y-81748809D01*
X65494819Y-81748809D02*
X65542438Y-81605952D01*
X66494819Y-81177380D02*
X65494819Y-81177380D01*
X65494819Y-81177380D02*
X65494819Y-80796428D01*
X65494819Y-80796428D02*
X65542438Y-80701190D01*
X65542438Y-80701190D02*
X65590057Y-80653571D01*
X65590057Y-80653571D02*
X65685295Y-80605952D01*
X65685295Y-80605952D02*
X65828152Y-80605952D01*
X65828152Y-80605952D02*
X65923390Y-80653571D01*
X65923390Y-80653571D02*
X65971009Y-80701190D01*
X65971009Y-80701190D02*
X66018628Y-80796428D01*
X66018628Y-80796428D02*
X66018628Y-81177380D01*
X122586904Y-129963152D02*
X122586904Y-130629819D01*
X122348809Y-129582200D02*
X122110714Y-130296485D01*
X122110714Y-130296485D02*
X122729761Y-130296485D01*
X123301190Y-129629819D02*
X123396428Y-129629819D01*
X123396428Y-129629819D02*
X123491666Y-129677438D01*
X123491666Y-129677438D02*
X123539285Y-129725057D01*
X123539285Y-129725057D02*
X123586904Y-129820295D01*
X123586904Y-129820295D02*
X123634523Y-130010771D01*
X123634523Y-130010771D02*
X123634523Y-130248866D01*
X123634523Y-130248866D02*
X123586904Y-130439342D01*
X123586904Y-130439342D02*
X123539285Y-130534580D01*
X123539285Y-130534580D02*
X123491666Y-130582200D01*
X123491666Y-130582200D02*
X123396428Y-130629819D01*
X123396428Y-130629819D02*
X123301190Y-130629819D01*
X123301190Y-130629819D02*
X123205952Y-130582200D01*
X123205952Y-130582200D02*
X123158333Y-130534580D01*
X123158333Y-130534580D02*
X123110714Y-130439342D01*
X123110714Y-130439342D02*
X123063095Y-130248866D01*
X123063095Y-130248866D02*
X123063095Y-130010771D01*
X123063095Y-130010771D02*
X123110714Y-129820295D01*
X123110714Y-129820295D02*
X123158333Y-129725057D01*
X123158333Y-129725057D02*
X123205952Y-129677438D01*
X123205952Y-129677438D02*
X123301190Y-129629819D01*
X124539285Y-129629819D02*
X124063095Y-129629819D01*
X124063095Y-129629819D02*
X124015476Y-130106009D01*
X124015476Y-130106009D02*
X124063095Y-130058390D01*
X124063095Y-130058390D02*
X124158333Y-130010771D01*
X124158333Y-130010771D02*
X124396428Y-130010771D01*
X124396428Y-130010771D02*
X124491666Y-130058390D01*
X124491666Y-130058390D02*
X124539285Y-130106009D01*
X124539285Y-130106009D02*
X124586904Y-130201247D01*
X124586904Y-130201247D02*
X124586904Y-130439342D01*
X124586904Y-130439342D02*
X124539285Y-130534580D01*
X124539285Y-130534580D02*
X124491666Y-130582200D01*
X124491666Y-130582200D02*
X124396428Y-130629819D01*
X124396428Y-130629819D02*
X124158333Y-130629819D01*
X124158333Y-130629819D02*
X124063095Y-130582200D01*
X124063095Y-130582200D02*
X124015476Y-130534580D01*
X124920238Y-129629819D02*
X125539285Y-129629819D01*
X125539285Y-129629819D02*
X125205952Y-130010771D01*
X125205952Y-130010771D02*
X125348809Y-130010771D01*
X125348809Y-130010771D02*
X125444047Y-130058390D01*
X125444047Y-130058390D02*
X125491666Y-130106009D01*
X125491666Y-130106009D02*
X125539285Y-130201247D01*
X125539285Y-130201247D02*
X125539285Y-130439342D01*
X125539285Y-130439342D02*
X125491666Y-130534580D01*
X125491666Y-130534580D02*
X125444047Y-130582200D01*
X125444047Y-130582200D02*
X125348809Y-130629819D01*
X125348809Y-130629819D02*
X125063095Y-130629819D01*
X125063095Y-130629819D02*
X124967857Y-130582200D01*
X124967857Y-130582200D02*
X124920238Y-130534580D01*
X98149580Y-94781666D02*
X98197200Y-94829285D01*
X98197200Y-94829285D02*
X98244819Y-94972142D01*
X98244819Y-94972142D02*
X98244819Y-95067380D01*
X98244819Y-95067380D02*
X98197200Y-95210237D01*
X98197200Y-95210237D02*
X98101961Y-95305475D01*
X98101961Y-95305475D02*
X98006723Y-95353094D01*
X98006723Y-95353094D02*
X97816247Y-95400713D01*
X97816247Y-95400713D02*
X97673390Y-95400713D01*
X97673390Y-95400713D02*
X97482914Y-95353094D01*
X97482914Y-95353094D02*
X97387676Y-95305475D01*
X97387676Y-95305475D02*
X97292438Y-95210237D01*
X97292438Y-95210237D02*
X97244819Y-95067380D01*
X97244819Y-95067380D02*
X97244819Y-94972142D01*
X97244819Y-94972142D02*
X97292438Y-94829285D01*
X97292438Y-94829285D02*
X97340057Y-94781666D01*
X97244819Y-93924523D02*
X97244819Y-94114999D01*
X97244819Y-94114999D02*
X97292438Y-94210237D01*
X97292438Y-94210237D02*
X97340057Y-94257856D01*
X97340057Y-94257856D02*
X97482914Y-94353094D01*
X97482914Y-94353094D02*
X97673390Y-94400713D01*
X97673390Y-94400713D02*
X98054342Y-94400713D01*
X98054342Y-94400713D02*
X98149580Y-94353094D01*
X98149580Y-94353094D02*
X98197200Y-94305475D01*
X98197200Y-94305475D02*
X98244819Y-94210237D01*
X98244819Y-94210237D02*
X98244819Y-94019761D01*
X98244819Y-94019761D02*
X98197200Y-93924523D01*
X98197200Y-93924523D02*
X98149580Y-93876904D01*
X98149580Y-93876904D02*
X98054342Y-93829285D01*
X98054342Y-93829285D02*
X97816247Y-93829285D01*
X97816247Y-93829285D02*
X97721009Y-93876904D01*
X97721009Y-93876904D02*
X97673390Y-93924523D01*
X97673390Y-93924523D02*
X97625771Y-94019761D01*
X97625771Y-94019761D02*
X97625771Y-94210237D01*
X97625771Y-94210237D02*
X97673390Y-94305475D01*
X97673390Y-94305475D02*
X97721009Y-94353094D01*
X97721009Y-94353094D02*
X97816247Y-94400713D01*
X95069819Y-126166428D02*
X95069819Y-126642618D01*
X95069819Y-126642618D02*
X94069819Y-126642618D01*
X95069819Y-125833094D02*
X94069819Y-125833094D01*
X94069819Y-125833094D02*
X94069819Y-125594999D01*
X94069819Y-125594999D02*
X94117438Y-125452142D01*
X94117438Y-125452142D02*
X94212676Y-125356904D01*
X94212676Y-125356904D02*
X94307914Y-125309285D01*
X94307914Y-125309285D02*
X94498390Y-125261666D01*
X94498390Y-125261666D02*
X94641247Y-125261666D01*
X94641247Y-125261666D02*
X94831723Y-125309285D01*
X94831723Y-125309285D02*
X94926961Y-125356904D01*
X94926961Y-125356904D02*
X95022200Y-125452142D01*
X95022200Y-125452142D02*
X95069819Y-125594999D01*
X95069819Y-125594999D02*
X95069819Y-125833094D01*
X95069819Y-124356904D02*
X95069819Y-124833094D01*
X95069819Y-124833094D02*
X94069819Y-124833094D01*
X95069819Y-123499761D02*
X95069819Y-124071189D01*
X95069819Y-123785475D02*
X94069819Y-123785475D01*
X94069819Y-123785475D02*
X94212676Y-123880713D01*
X94212676Y-123880713D02*
X94307914Y-123975951D01*
X94307914Y-123975951D02*
X94355533Y-124071189D01*
X129899580Y-71246666D02*
X129947200Y-71294285D01*
X129947200Y-71294285D02*
X129994819Y-71437142D01*
X129994819Y-71437142D02*
X129994819Y-71532380D01*
X129994819Y-71532380D02*
X129947200Y-71675237D01*
X129947200Y-71675237D02*
X129851961Y-71770475D01*
X129851961Y-71770475D02*
X129756723Y-71818094D01*
X129756723Y-71818094D02*
X129566247Y-71865713D01*
X129566247Y-71865713D02*
X129423390Y-71865713D01*
X129423390Y-71865713D02*
X129232914Y-71818094D01*
X129232914Y-71818094D02*
X129137676Y-71770475D01*
X129137676Y-71770475D02*
X129042438Y-71675237D01*
X129042438Y-71675237D02*
X128994819Y-71532380D01*
X128994819Y-71532380D02*
X128994819Y-71437142D01*
X128994819Y-71437142D02*
X129042438Y-71294285D01*
X129042438Y-71294285D02*
X129090057Y-71246666D01*
X129994819Y-70770475D02*
X129994819Y-70579999D01*
X129994819Y-70579999D02*
X129947200Y-70484761D01*
X129947200Y-70484761D02*
X129899580Y-70437142D01*
X129899580Y-70437142D02*
X129756723Y-70341904D01*
X129756723Y-70341904D02*
X129566247Y-70294285D01*
X129566247Y-70294285D02*
X129185295Y-70294285D01*
X129185295Y-70294285D02*
X129090057Y-70341904D01*
X129090057Y-70341904D02*
X129042438Y-70389523D01*
X129042438Y-70389523D02*
X128994819Y-70484761D01*
X128994819Y-70484761D02*
X128994819Y-70675237D01*
X128994819Y-70675237D02*
X129042438Y-70770475D01*
X129042438Y-70770475D02*
X129090057Y-70818094D01*
X129090057Y-70818094D02*
X129185295Y-70865713D01*
X129185295Y-70865713D02*
X129423390Y-70865713D01*
X129423390Y-70865713D02*
X129518628Y-70818094D01*
X129518628Y-70818094D02*
X129566247Y-70770475D01*
X129566247Y-70770475D02*
X129613866Y-70675237D01*
X129613866Y-70675237D02*
X129613866Y-70484761D01*
X129613866Y-70484761D02*
X129566247Y-70389523D01*
X129566247Y-70389523D02*
X129518628Y-70341904D01*
X129518628Y-70341904D02*
X129423390Y-70294285D01*
X74763333Y-118564819D02*
X74430000Y-118088628D01*
X74191905Y-118564819D02*
X74191905Y-117564819D01*
X74191905Y-117564819D02*
X74572857Y-117564819D01*
X74572857Y-117564819D02*
X74668095Y-117612438D01*
X74668095Y-117612438D02*
X74715714Y-117660057D01*
X74715714Y-117660057D02*
X74763333Y-117755295D01*
X74763333Y-117755295D02*
X74763333Y-117898152D01*
X74763333Y-117898152D02*
X74715714Y-117993390D01*
X74715714Y-117993390D02*
X74668095Y-118041009D01*
X74668095Y-118041009D02*
X74572857Y-118088628D01*
X74572857Y-118088628D02*
X74191905Y-118088628D01*
X75668095Y-117564819D02*
X75191905Y-117564819D01*
X75191905Y-117564819D02*
X75144286Y-118041009D01*
X75144286Y-118041009D02*
X75191905Y-117993390D01*
X75191905Y-117993390D02*
X75287143Y-117945771D01*
X75287143Y-117945771D02*
X75525238Y-117945771D01*
X75525238Y-117945771D02*
X75620476Y-117993390D01*
X75620476Y-117993390D02*
X75668095Y-118041009D01*
X75668095Y-118041009D02*
X75715714Y-118136247D01*
X75715714Y-118136247D02*
X75715714Y-118374342D01*
X75715714Y-118374342D02*
X75668095Y-118469580D01*
X75668095Y-118469580D02*
X75620476Y-118517200D01*
X75620476Y-118517200D02*
X75525238Y-118564819D01*
X75525238Y-118564819D02*
X75287143Y-118564819D01*
X75287143Y-118564819D02*
X75191905Y-118517200D01*
X75191905Y-118517200D02*
X75144286Y-118469580D01*
X111849819Y-109322856D02*
X111849819Y-108656190D01*
X111849819Y-108656190D02*
X112849819Y-109084761D01*
X112183152Y-107846666D02*
X112849819Y-107846666D01*
X111802200Y-108084761D02*
X112516485Y-108322856D01*
X112516485Y-108322856D02*
X112516485Y-107703809D01*
X112849819Y-106846666D02*
X112849819Y-107322856D01*
X112849819Y-107322856D02*
X111849819Y-107322856D01*
X112802200Y-106560951D02*
X112849819Y-106418094D01*
X112849819Y-106418094D02*
X112849819Y-106179999D01*
X112849819Y-106179999D02*
X112802200Y-106084761D01*
X112802200Y-106084761D02*
X112754580Y-106037142D01*
X112754580Y-106037142D02*
X112659342Y-105989523D01*
X112659342Y-105989523D02*
X112564104Y-105989523D01*
X112564104Y-105989523D02*
X112468866Y-106037142D01*
X112468866Y-106037142D02*
X112421247Y-106084761D01*
X112421247Y-106084761D02*
X112373628Y-106179999D01*
X112373628Y-106179999D02*
X112326009Y-106370475D01*
X112326009Y-106370475D02*
X112278390Y-106465713D01*
X112278390Y-106465713D02*
X112230771Y-106513332D01*
X112230771Y-106513332D02*
X112135533Y-106560951D01*
X112135533Y-106560951D02*
X112040295Y-106560951D01*
X112040295Y-106560951D02*
X111945057Y-106513332D01*
X111945057Y-106513332D02*
X111897438Y-106465713D01*
X111897438Y-106465713D02*
X111849819Y-106370475D01*
X111849819Y-106370475D02*
X111849819Y-106132380D01*
X111849819Y-106132380D02*
X111897438Y-105989523D01*
X112278390Y-105418094D02*
X112230771Y-105513332D01*
X112230771Y-105513332D02*
X112183152Y-105560951D01*
X112183152Y-105560951D02*
X112087914Y-105608570D01*
X112087914Y-105608570D02*
X112040295Y-105608570D01*
X112040295Y-105608570D02*
X111945057Y-105560951D01*
X111945057Y-105560951D02*
X111897438Y-105513332D01*
X111897438Y-105513332D02*
X111849819Y-105418094D01*
X111849819Y-105418094D02*
X111849819Y-105227618D01*
X111849819Y-105227618D02*
X111897438Y-105132380D01*
X111897438Y-105132380D02*
X111945057Y-105084761D01*
X111945057Y-105084761D02*
X112040295Y-105037142D01*
X112040295Y-105037142D02*
X112087914Y-105037142D01*
X112087914Y-105037142D02*
X112183152Y-105084761D01*
X112183152Y-105084761D02*
X112230771Y-105132380D01*
X112230771Y-105132380D02*
X112278390Y-105227618D01*
X112278390Y-105227618D02*
X112278390Y-105418094D01*
X112278390Y-105418094D02*
X112326009Y-105513332D01*
X112326009Y-105513332D02*
X112373628Y-105560951D01*
X112373628Y-105560951D02*
X112468866Y-105608570D01*
X112468866Y-105608570D02*
X112659342Y-105608570D01*
X112659342Y-105608570D02*
X112754580Y-105560951D01*
X112754580Y-105560951D02*
X112802200Y-105513332D01*
X112802200Y-105513332D02*
X112849819Y-105418094D01*
X112849819Y-105418094D02*
X112849819Y-105227618D01*
X112849819Y-105227618D02*
X112802200Y-105132380D01*
X112802200Y-105132380D02*
X112754580Y-105084761D01*
X112754580Y-105084761D02*
X112659342Y-105037142D01*
X112659342Y-105037142D02*
X112468866Y-105037142D01*
X112468866Y-105037142D02*
X112373628Y-105084761D01*
X112373628Y-105084761D02*
X112326009Y-105132380D01*
X112326009Y-105132380D02*
X112278390Y-105227618D01*
X111849819Y-104132380D02*
X111849819Y-104608570D01*
X111849819Y-104608570D02*
X112326009Y-104656189D01*
X112326009Y-104656189D02*
X112278390Y-104608570D01*
X112278390Y-104608570D02*
X112230771Y-104513332D01*
X112230771Y-104513332D02*
X112230771Y-104275237D01*
X112230771Y-104275237D02*
X112278390Y-104179999D01*
X112278390Y-104179999D02*
X112326009Y-104132380D01*
X112326009Y-104132380D02*
X112421247Y-104084761D01*
X112421247Y-104084761D02*
X112659342Y-104084761D01*
X112659342Y-104084761D02*
X112754580Y-104132380D01*
X112754580Y-104132380D02*
X112802200Y-104179999D01*
X112802200Y-104179999D02*
X112849819Y-104275237D01*
X112849819Y-104275237D02*
X112849819Y-104513332D01*
X112849819Y-104513332D02*
X112802200Y-104608570D01*
X112802200Y-104608570D02*
X112754580Y-104656189D01*
X127423152Y-65373095D02*
X128089819Y-65373095D01*
X127042200Y-65611190D02*
X127756485Y-65849285D01*
X127756485Y-65849285D02*
X127756485Y-65230238D01*
X127089819Y-64658809D02*
X127089819Y-64563571D01*
X127089819Y-64563571D02*
X127137438Y-64468333D01*
X127137438Y-64468333D02*
X127185057Y-64420714D01*
X127185057Y-64420714D02*
X127280295Y-64373095D01*
X127280295Y-64373095D02*
X127470771Y-64325476D01*
X127470771Y-64325476D02*
X127708866Y-64325476D01*
X127708866Y-64325476D02*
X127899342Y-64373095D01*
X127899342Y-64373095D02*
X127994580Y-64420714D01*
X127994580Y-64420714D02*
X128042200Y-64468333D01*
X128042200Y-64468333D02*
X128089819Y-64563571D01*
X128089819Y-64563571D02*
X128089819Y-64658809D01*
X128089819Y-64658809D02*
X128042200Y-64754047D01*
X128042200Y-64754047D02*
X127994580Y-64801666D01*
X127994580Y-64801666D02*
X127899342Y-64849285D01*
X127899342Y-64849285D02*
X127708866Y-64896904D01*
X127708866Y-64896904D02*
X127470771Y-64896904D01*
X127470771Y-64896904D02*
X127280295Y-64849285D01*
X127280295Y-64849285D02*
X127185057Y-64801666D01*
X127185057Y-64801666D02*
X127137438Y-64754047D01*
X127137438Y-64754047D02*
X127089819Y-64658809D01*
X127089819Y-63420714D02*
X127089819Y-63896904D01*
X127089819Y-63896904D02*
X127566009Y-63944523D01*
X127566009Y-63944523D02*
X127518390Y-63896904D01*
X127518390Y-63896904D02*
X127470771Y-63801666D01*
X127470771Y-63801666D02*
X127470771Y-63563571D01*
X127470771Y-63563571D02*
X127518390Y-63468333D01*
X127518390Y-63468333D02*
X127566009Y-63420714D01*
X127566009Y-63420714D02*
X127661247Y-63373095D01*
X127661247Y-63373095D02*
X127899342Y-63373095D01*
X127899342Y-63373095D02*
X127994580Y-63420714D01*
X127994580Y-63420714D02*
X128042200Y-63468333D01*
X128042200Y-63468333D02*
X128089819Y-63563571D01*
X128089819Y-63563571D02*
X128089819Y-63801666D01*
X128089819Y-63801666D02*
X128042200Y-63896904D01*
X128042200Y-63896904D02*
X127994580Y-63944523D01*
X127089819Y-63039761D02*
X127089819Y-62420714D01*
X127089819Y-62420714D02*
X127470771Y-62754047D01*
X127470771Y-62754047D02*
X127470771Y-62611190D01*
X127470771Y-62611190D02*
X127518390Y-62515952D01*
X127518390Y-62515952D02*
X127566009Y-62468333D01*
X127566009Y-62468333D02*
X127661247Y-62420714D01*
X127661247Y-62420714D02*
X127899342Y-62420714D01*
X127899342Y-62420714D02*
X127994580Y-62468333D01*
X127994580Y-62468333D02*
X128042200Y-62515952D01*
X128042200Y-62515952D02*
X128089819Y-62611190D01*
X128089819Y-62611190D02*
X128089819Y-62896904D01*
X128089819Y-62896904D02*
X128042200Y-62992142D01*
X128042200Y-62992142D02*
X127994580Y-63039761D01*
X129899580Y-58546666D02*
X129947200Y-58594285D01*
X129947200Y-58594285D02*
X129994819Y-58737142D01*
X129994819Y-58737142D02*
X129994819Y-58832380D01*
X129994819Y-58832380D02*
X129947200Y-58975237D01*
X129947200Y-58975237D02*
X129851961Y-59070475D01*
X129851961Y-59070475D02*
X129756723Y-59118094D01*
X129756723Y-59118094D02*
X129566247Y-59165713D01*
X129566247Y-59165713D02*
X129423390Y-59165713D01*
X129423390Y-59165713D02*
X129232914Y-59118094D01*
X129232914Y-59118094D02*
X129137676Y-59070475D01*
X129137676Y-59070475D02*
X129042438Y-58975237D01*
X129042438Y-58975237D02*
X128994819Y-58832380D01*
X128994819Y-58832380D02*
X128994819Y-58737142D01*
X128994819Y-58737142D02*
X129042438Y-58594285D01*
X129042438Y-58594285D02*
X129090057Y-58546666D01*
X129423390Y-57975237D02*
X129375771Y-58070475D01*
X129375771Y-58070475D02*
X129328152Y-58118094D01*
X129328152Y-58118094D02*
X129232914Y-58165713D01*
X129232914Y-58165713D02*
X129185295Y-58165713D01*
X129185295Y-58165713D02*
X129090057Y-58118094D01*
X129090057Y-58118094D02*
X129042438Y-58070475D01*
X129042438Y-58070475D02*
X128994819Y-57975237D01*
X128994819Y-57975237D02*
X128994819Y-57784761D01*
X128994819Y-57784761D02*
X129042438Y-57689523D01*
X129042438Y-57689523D02*
X129090057Y-57641904D01*
X129090057Y-57641904D02*
X129185295Y-57594285D01*
X129185295Y-57594285D02*
X129232914Y-57594285D01*
X129232914Y-57594285D02*
X129328152Y-57641904D01*
X129328152Y-57641904D02*
X129375771Y-57689523D01*
X129375771Y-57689523D02*
X129423390Y-57784761D01*
X129423390Y-57784761D02*
X129423390Y-57975237D01*
X129423390Y-57975237D02*
X129471009Y-58070475D01*
X129471009Y-58070475D02*
X129518628Y-58118094D01*
X129518628Y-58118094D02*
X129613866Y-58165713D01*
X129613866Y-58165713D02*
X129804342Y-58165713D01*
X129804342Y-58165713D02*
X129899580Y-58118094D01*
X129899580Y-58118094D02*
X129947200Y-58070475D01*
X129947200Y-58070475D02*
X129994819Y-57975237D01*
X129994819Y-57975237D02*
X129994819Y-57784761D01*
X129994819Y-57784761D02*
X129947200Y-57689523D01*
X129947200Y-57689523D02*
X129899580Y-57641904D01*
X129899580Y-57641904D02*
X129804342Y-57594285D01*
X129804342Y-57594285D02*
X129613866Y-57594285D01*
X129613866Y-57594285D02*
X129518628Y-57641904D01*
X129518628Y-57641904D02*
X129471009Y-57689523D01*
X129471009Y-57689523D02*
X129423390Y-57784761D01*
X81639580Y-89026666D02*
X81687200Y-89074285D01*
X81687200Y-89074285D02*
X81734819Y-89217142D01*
X81734819Y-89217142D02*
X81734819Y-89312380D01*
X81734819Y-89312380D02*
X81687200Y-89455237D01*
X81687200Y-89455237D02*
X81591961Y-89550475D01*
X81591961Y-89550475D02*
X81496723Y-89598094D01*
X81496723Y-89598094D02*
X81306247Y-89645713D01*
X81306247Y-89645713D02*
X81163390Y-89645713D01*
X81163390Y-89645713D02*
X80972914Y-89598094D01*
X80972914Y-89598094D02*
X80877676Y-89550475D01*
X80877676Y-89550475D02*
X80782438Y-89455237D01*
X80782438Y-89455237D02*
X80734819Y-89312380D01*
X80734819Y-89312380D02*
X80734819Y-89217142D01*
X80734819Y-89217142D02*
X80782438Y-89074285D01*
X80782438Y-89074285D02*
X80830057Y-89026666D01*
X81734819Y-88074285D02*
X81734819Y-88645713D01*
X81734819Y-88359999D02*
X80734819Y-88359999D01*
X80734819Y-88359999D02*
X80877676Y-88455237D01*
X80877676Y-88455237D02*
X80972914Y-88550475D01*
X80972914Y-88550475D02*
X81020533Y-88645713D01*
X80795952Y-117929819D02*
X80319762Y-117929819D01*
X80319762Y-117929819D02*
X80319762Y-116929819D01*
X81129286Y-117406009D02*
X81462619Y-117406009D01*
X81605476Y-117929819D02*
X81129286Y-117929819D01*
X81129286Y-117929819D02*
X81129286Y-116929819D01*
X81129286Y-116929819D02*
X81605476Y-116929819D01*
X82034048Y-117929819D02*
X82034048Y-116929819D01*
X82034048Y-116929819D02*
X82272143Y-116929819D01*
X82272143Y-116929819D02*
X82415000Y-116977438D01*
X82415000Y-116977438D02*
X82510238Y-117072676D01*
X82510238Y-117072676D02*
X82557857Y-117167914D01*
X82557857Y-117167914D02*
X82605476Y-117358390D01*
X82605476Y-117358390D02*
X82605476Y-117501247D01*
X82605476Y-117501247D02*
X82557857Y-117691723D01*
X82557857Y-117691723D02*
X82510238Y-117786961D01*
X82510238Y-117786961D02*
X82415000Y-117882200D01*
X82415000Y-117882200D02*
X82272143Y-117929819D01*
X82272143Y-117929819D02*
X82034048Y-117929819D01*
X83557857Y-117929819D02*
X82986429Y-117929819D01*
X83272143Y-117929819D02*
X83272143Y-116929819D01*
X83272143Y-116929819D02*
X83176905Y-117072676D01*
X83176905Y-117072676D02*
X83081667Y-117167914D01*
X83081667Y-117167914D02*
X82986429Y-117215533D01*
X75438333Y-75289580D02*
X75390714Y-75337200D01*
X75390714Y-75337200D02*
X75247857Y-75384819D01*
X75247857Y-75384819D02*
X75152619Y-75384819D01*
X75152619Y-75384819D02*
X75009762Y-75337200D01*
X75009762Y-75337200D02*
X74914524Y-75241961D01*
X74914524Y-75241961D02*
X74866905Y-75146723D01*
X74866905Y-75146723D02*
X74819286Y-74956247D01*
X74819286Y-74956247D02*
X74819286Y-74813390D01*
X74819286Y-74813390D02*
X74866905Y-74622914D01*
X74866905Y-74622914D02*
X74914524Y-74527676D01*
X74914524Y-74527676D02*
X75009762Y-74432438D01*
X75009762Y-74432438D02*
X75152619Y-74384819D01*
X75152619Y-74384819D02*
X75247857Y-74384819D01*
X75247857Y-74384819D02*
X75390714Y-74432438D01*
X75390714Y-74432438D02*
X75438333Y-74480057D01*
X76295476Y-74718152D02*
X76295476Y-75384819D01*
X76057381Y-74337200D02*
X75819286Y-75051485D01*
X75819286Y-75051485D02*
X76438333Y-75051485D01*
X67183333Y-75289580D02*
X67135714Y-75337200D01*
X67135714Y-75337200D02*
X66992857Y-75384819D01*
X66992857Y-75384819D02*
X66897619Y-75384819D01*
X66897619Y-75384819D02*
X66754762Y-75337200D01*
X66754762Y-75337200D02*
X66659524Y-75241961D01*
X66659524Y-75241961D02*
X66611905Y-75146723D01*
X66611905Y-75146723D02*
X66564286Y-74956247D01*
X66564286Y-74956247D02*
X66564286Y-74813390D01*
X66564286Y-74813390D02*
X66611905Y-74622914D01*
X66611905Y-74622914D02*
X66659524Y-74527676D01*
X66659524Y-74527676D02*
X66754762Y-74432438D01*
X66754762Y-74432438D02*
X66897619Y-74384819D01*
X66897619Y-74384819D02*
X66992857Y-74384819D01*
X66992857Y-74384819D02*
X67135714Y-74432438D01*
X67135714Y-74432438D02*
X67183333Y-74480057D01*
X67516667Y-74384819D02*
X68135714Y-74384819D01*
X68135714Y-74384819D02*
X67802381Y-74765771D01*
X67802381Y-74765771D02*
X67945238Y-74765771D01*
X67945238Y-74765771D02*
X68040476Y-74813390D01*
X68040476Y-74813390D02*
X68088095Y-74861009D01*
X68088095Y-74861009D02*
X68135714Y-74956247D01*
X68135714Y-74956247D02*
X68135714Y-75194342D01*
X68135714Y-75194342D02*
X68088095Y-75289580D01*
X68088095Y-75289580D02*
X68040476Y-75337200D01*
X68040476Y-75337200D02*
X67945238Y-75384819D01*
X67945238Y-75384819D02*
X67659524Y-75384819D01*
X67659524Y-75384819D02*
X67564286Y-75337200D01*
X67564286Y-75337200D02*
X67516667Y-75289580D01*
X83272380Y-123549580D02*
X83224761Y-123597200D01*
X83224761Y-123597200D02*
X83081904Y-123644819D01*
X83081904Y-123644819D02*
X82986666Y-123644819D01*
X82986666Y-123644819D02*
X82843809Y-123597200D01*
X82843809Y-123597200D02*
X82748571Y-123501961D01*
X82748571Y-123501961D02*
X82700952Y-123406723D01*
X82700952Y-123406723D02*
X82653333Y-123216247D01*
X82653333Y-123216247D02*
X82653333Y-123073390D01*
X82653333Y-123073390D02*
X82700952Y-122882914D01*
X82700952Y-122882914D02*
X82748571Y-122787676D01*
X82748571Y-122787676D02*
X82843809Y-122692438D01*
X82843809Y-122692438D02*
X82986666Y-122644819D01*
X82986666Y-122644819D02*
X83081904Y-122644819D01*
X83081904Y-122644819D02*
X83224761Y-122692438D01*
X83224761Y-122692438D02*
X83272380Y-122740057D01*
X83462857Y-123740057D02*
X84224761Y-123740057D01*
X84986666Y-123644819D02*
X84415238Y-123644819D01*
X84700952Y-123644819D02*
X84700952Y-122644819D01*
X84700952Y-122644819D02*
X84605714Y-122787676D01*
X84605714Y-122787676D02*
X84510476Y-122882914D01*
X84510476Y-122882914D02*
X84415238Y-122930533D01*
X111849819Y-63602856D02*
X111849819Y-62936190D01*
X111849819Y-62936190D02*
X112849819Y-63364761D01*
X112183152Y-62126666D02*
X112849819Y-62126666D01*
X111802200Y-62364761D02*
X112516485Y-62602856D01*
X112516485Y-62602856D02*
X112516485Y-61983809D01*
X112849819Y-61126666D02*
X112849819Y-61602856D01*
X112849819Y-61602856D02*
X111849819Y-61602856D01*
X112802200Y-60840951D02*
X112849819Y-60698094D01*
X112849819Y-60698094D02*
X112849819Y-60459999D01*
X112849819Y-60459999D02*
X112802200Y-60364761D01*
X112802200Y-60364761D02*
X112754580Y-60317142D01*
X112754580Y-60317142D02*
X112659342Y-60269523D01*
X112659342Y-60269523D02*
X112564104Y-60269523D01*
X112564104Y-60269523D02*
X112468866Y-60317142D01*
X112468866Y-60317142D02*
X112421247Y-60364761D01*
X112421247Y-60364761D02*
X112373628Y-60459999D01*
X112373628Y-60459999D02*
X112326009Y-60650475D01*
X112326009Y-60650475D02*
X112278390Y-60745713D01*
X112278390Y-60745713D02*
X112230771Y-60793332D01*
X112230771Y-60793332D02*
X112135533Y-60840951D01*
X112135533Y-60840951D02*
X112040295Y-60840951D01*
X112040295Y-60840951D02*
X111945057Y-60793332D01*
X111945057Y-60793332D02*
X111897438Y-60745713D01*
X111897438Y-60745713D02*
X111849819Y-60650475D01*
X111849819Y-60650475D02*
X111849819Y-60412380D01*
X111849819Y-60412380D02*
X111897438Y-60269523D01*
X112278390Y-59698094D02*
X112230771Y-59793332D01*
X112230771Y-59793332D02*
X112183152Y-59840951D01*
X112183152Y-59840951D02*
X112087914Y-59888570D01*
X112087914Y-59888570D02*
X112040295Y-59888570D01*
X112040295Y-59888570D02*
X111945057Y-59840951D01*
X111945057Y-59840951D02*
X111897438Y-59793332D01*
X111897438Y-59793332D02*
X111849819Y-59698094D01*
X111849819Y-59698094D02*
X111849819Y-59507618D01*
X111849819Y-59507618D02*
X111897438Y-59412380D01*
X111897438Y-59412380D02*
X111945057Y-59364761D01*
X111945057Y-59364761D02*
X112040295Y-59317142D01*
X112040295Y-59317142D02*
X112087914Y-59317142D01*
X112087914Y-59317142D02*
X112183152Y-59364761D01*
X112183152Y-59364761D02*
X112230771Y-59412380D01*
X112230771Y-59412380D02*
X112278390Y-59507618D01*
X112278390Y-59507618D02*
X112278390Y-59698094D01*
X112278390Y-59698094D02*
X112326009Y-59793332D01*
X112326009Y-59793332D02*
X112373628Y-59840951D01*
X112373628Y-59840951D02*
X112468866Y-59888570D01*
X112468866Y-59888570D02*
X112659342Y-59888570D01*
X112659342Y-59888570D02*
X112754580Y-59840951D01*
X112754580Y-59840951D02*
X112802200Y-59793332D01*
X112802200Y-59793332D02*
X112849819Y-59698094D01*
X112849819Y-59698094D02*
X112849819Y-59507618D01*
X112849819Y-59507618D02*
X112802200Y-59412380D01*
X112802200Y-59412380D02*
X112754580Y-59364761D01*
X112754580Y-59364761D02*
X112659342Y-59317142D01*
X112659342Y-59317142D02*
X112468866Y-59317142D01*
X112468866Y-59317142D02*
X112373628Y-59364761D01*
X112373628Y-59364761D02*
X112326009Y-59412380D01*
X112326009Y-59412380D02*
X112278390Y-59507618D01*
X111849819Y-58412380D02*
X111849819Y-58888570D01*
X111849819Y-58888570D02*
X112326009Y-58936189D01*
X112326009Y-58936189D02*
X112278390Y-58888570D01*
X112278390Y-58888570D02*
X112230771Y-58793332D01*
X112230771Y-58793332D02*
X112230771Y-58555237D01*
X112230771Y-58555237D02*
X112278390Y-58459999D01*
X112278390Y-58459999D02*
X112326009Y-58412380D01*
X112326009Y-58412380D02*
X112421247Y-58364761D01*
X112421247Y-58364761D02*
X112659342Y-58364761D01*
X112659342Y-58364761D02*
X112754580Y-58412380D01*
X112754580Y-58412380D02*
X112802200Y-58459999D01*
X112802200Y-58459999D02*
X112849819Y-58555237D01*
X112849819Y-58555237D02*
X112849819Y-58793332D01*
X112849819Y-58793332D02*
X112802200Y-58888570D01*
X112802200Y-58888570D02*
X112754580Y-58936189D01*
X129899580Y-99662857D02*
X129947200Y-99710476D01*
X129947200Y-99710476D02*
X129994819Y-99853333D01*
X129994819Y-99853333D02*
X129994819Y-99948571D01*
X129994819Y-99948571D02*
X129947200Y-100091428D01*
X129947200Y-100091428D02*
X129851961Y-100186666D01*
X129851961Y-100186666D02*
X129756723Y-100234285D01*
X129756723Y-100234285D02*
X129566247Y-100281904D01*
X129566247Y-100281904D02*
X129423390Y-100281904D01*
X129423390Y-100281904D02*
X129232914Y-100234285D01*
X129232914Y-100234285D02*
X129137676Y-100186666D01*
X129137676Y-100186666D02*
X129042438Y-100091428D01*
X129042438Y-100091428D02*
X128994819Y-99948571D01*
X128994819Y-99948571D02*
X128994819Y-99853333D01*
X128994819Y-99853333D02*
X129042438Y-99710476D01*
X129042438Y-99710476D02*
X129090057Y-99662857D01*
X129994819Y-98710476D02*
X129994819Y-99281904D01*
X129994819Y-98996190D02*
X128994819Y-98996190D01*
X128994819Y-98996190D02*
X129137676Y-99091428D01*
X129137676Y-99091428D02*
X129232914Y-99186666D01*
X129232914Y-99186666D02*
X129280533Y-99281904D01*
X128994819Y-98091428D02*
X128994819Y-97996190D01*
X128994819Y-97996190D02*
X129042438Y-97900952D01*
X129042438Y-97900952D02*
X129090057Y-97853333D01*
X129090057Y-97853333D02*
X129185295Y-97805714D01*
X129185295Y-97805714D02*
X129375771Y-97758095D01*
X129375771Y-97758095D02*
X129613866Y-97758095D01*
X129613866Y-97758095D02*
X129804342Y-97805714D01*
X129804342Y-97805714D02*
X129899580Y-97853333D01*
X129899580Y-97853333D02*
X129947200Y-97900952D01*
X129947200Y-97900952D02*
X129994819Y-97996190D01*
X129994819Y-97996190D02*
X129994819Y-98091428D01*
X129994819Y-98091428D02*
X129947200Y-98186666D01*
X129947200Y-98186666D02*
X129899580Y-98234285D01*
X129899580Y-98234285D02*
X129804342Y-98281904D01*
X129804342Y-98281904D02*
X129613866Y-98329523D01*
X129613866Y-98329523D02*
X129375771Y-98329523D01*
X129375771Y-98329523D02*
X129185295Y-98281904D01*
X129185295Y-98281904D02*
X129090057Y-98234285D01*
X129090057Y-98234285D02*
X129042438Y-98186666D01*
X129042438Y-98186666D02*
X128994819Y-98091428D01*
G36*
X54360131Y-104935473D02*
G01*
X54185803Y-104881557D01*
X54552595Y-104091248D01*
X54117232Y-104091248D01*
X54117232Y-103948427D01*
X54739501Y-103948427D01*
X54739501Y-104077265D01*
X54360131Y-104935473D01*
G37*
G36*
X55196541Y-103927422D02*
G01*
X55353345Y-103986956D01*
X55113926Y-104561660D01*
X55608823Y-104561660D01*
X55608823Y-104702344D01*
X54922134Y-104702344D01*
X54922134Y-104576314D01*
X55196541Y-103927422D01*
G37*
G36*
X55502455Y-104313814D02*
G01*
X55502455Y-104916545D01*
X55324646Y-104916545D01*
X55322570Y-104584069D01*
X55346323Y-104313814D01*
X55502455Y-104313814D01*
G37*
G36*
X55836946Y-104916545D02*
G01*
X55836946Y-103948427D01*
X56028737Y-103948427D01*
X56028737Y-104761145D01*
X56455735Y-104761145D01*
X56435463Y-104916545D01*
X55836946Y-104916545D01*
G37*
G36*
X56948495Y-104752047D02*
G01*
X57158483Y-103948427D01*
X57354488Y-103948427D01*
X57059076Y-104916545D01*
X56830892Y-104916545D01*
X56536885Y-103948427D01*
X56740583Y-103948427D01*
X56948495Y-104752047D01*
G37*
G36*
X57865383Y-103927422D02*
G01*
X57932370Y-103930659D01*
X57988794Y-103939690D01*
X58036169Y-103953678D01*
X58103330Y-103985492D01*
X58165679Y-104028966D01*
X58068409Y-104144432D01*
X58024910Y-104113547D01*
X57977734Y-104091248D01*
X57927135Y-104077670D01*
X57872404Y-104073052D01*
X57828619Y-104077054D01*
X57787664Y-104088901D01*
X57748818Y-104108772D01*
X57715063Y-104136022D01*
X57684974Y-104173493D01*
X57658570Y-104223200D01*
X57640781Y-104276854D01*
X57628965Y-104345009D01*
X57624620Y-104430745D01*
X57628776Y-104515133D01*
X57640098Y-104582529D01*
X57657165Y-104635848D01*
X57682697Y-104685297D01*
X57712316Y-104722813D01*
X57746009Y-104750337D01*
X57784932Y-104770224D01*
X57827245Y-104782249D01*
X57873809Y-104786363D01*
X57923672Y-104783085D01*
X57964951Y-104773957D01*
X57999105Y-104759741D01*
X58046941Y-104731530D01*
X58088682Y-104701672D01*
X58178990Y-104815733D01*
X58122806Y-104861607D01*
X58051251Y-104901890D01*
X57998978Y-104921030D01*
X57937568Y-104933218D01*
X57865383Y-104937549D01*
X57782509Y-104930858D01*
X57707619Y-104911397D01*
X57639275Y-104879481D01*
X57578437Y-104835280D01*
X57526565Y-104778858D01*
X57483142Y-104708633D01*
X57452780Y-104631458D01*
X57433395Y-104539757D01*
X57426478Y-104430745D01*
X57433562Y-104323715D01*
X57453500Y-104233000D01*
X57484913Y-104155972D01*
X57529376Y-104085951D01*
X57581947Y-104029659D01*
X57643122Y-103985552D01*
X57711647Y-103953443D01*
X57785312Y-103934040D01*
X57865383Y-103927422D01*
G37*
G36*
X58586326Y-103927422D02*
G01*
X58655080Y-103931945D01*
X58712920Y-103944633D01*
X58761632Y-103964547D01*
X58805943Y-103992734D01*
X58841428Y-104025894D01*
X58869098Y-104064320D01*
X58889270Y-104107315D01*
X58901383Y-104152908D01*
X58905491Y-104201829D01*
X58900256Y-104262640D01*
X58884486Y-104322241D01*
X58858083Y-104380568D01*
X58816281Y-104446133D01*
X58764022Y-104511786D01*
X58691290Y-104590725D01*
X58608271Y-104672120D01*
X58499498Y-104771647D01*
X58927900Y-104771647D01*
X58907628Y-104916545D01*
X58288106Y-104916545D01*
X58288106Y-104781417D01*
X58460969Y-104610997D01*
X58583151Y-104480449D01*
X58629123Y-104424405D01*
X58661553Y-104378600D01*
X58687224Y-104333445D01*
X58703197Y-104294275D01*
X58712714Y-104254840D01*
X58715836Y-104215873D01*
X58711237Y-104173050D01*
X58698365Y-104138666D01*
X58677673Y-104110848D01*
X58649971Y-104090046D01*
X58615089Y-104077010D01*
X58570939Y-104072319D01*
X58513138Y-104078528D01*
X58467624Y-104095766D01*
X58427445Y-104124928D01*
X58384704Y-104171726D01*
X58268505Y-104083554D01*
X58308236Y-104037257D01*
X58351997Y-103999082D01*
X58400091Y-103968394D01*
X58452495Y-103946330D01*
X58513984Y-103932371D01*
X58586326Y-103927422D01*
G37*
G36*
X59492712Y-104937549D02*
G01*
X59408042Y-104930731D01*
X59335244Y-104911319D01*
X59272221Y-104880152D01*
X59217285Y-104836668D01*
X59171067Y-104780612D01*
X59133247Y-104710037D01*
X59107731Y-104633387D01*
X59091241Y-104541229D01*
X59085314Y-104430745D01*
X59089416Y-104348634D01*
X59101101Y-104276363D01*
X59119631Y-104212698D01*
X59146050Y-104151976D01*
X59177469Y-104099804D01*
X59213786Y-104055222D01*
X59256027Y-104016240D01*
X59302095Y-103984517D01*
X59352394Y-103959662D01*
X59405713Y-103941813D01*
X59461198Y-103931055D01*
X59519334Y-103927422D01*
X59587048Y-103931223D01*
X59643645Y-103941816D01*
X59690854Y-103958258D01*
X59756811Y-103994510D01*
X59816822Y-104042216D01*
X59712530Y-104149317D01*
X59667333Y-104113841D01*
X59625030Y-104090576D01*
X59579685Y-104076548D01*
X59527028Y-104071647D01*
X59478020Y-104076606D01*
X59432872Y-104091248D01*
X59392350Y-104116161D01*
X59355874Y-104153591D01*
X59327156Y-104200785D01*
X59303729Y-104264844D01*
X59289996Y-104337338D01*
X59284861Y-104432150D01*
X59287908Y-104519850D01*
X59296131Y-104588931D01*
X59308308Y-104642504D01*
X59327906Y-104693263D01*
X59351575Y-104730648D01*
X59378955Y-104757298D01*
X59412100Y-104776488D01*
X59451189Y-104788434D01*
X59497657Y-104792652D01*
X59536794Y-104790236D01*
X59572884Y-104783188D01*
X59640417Y-104757665D01*
X59640417Y-104510552D01*
X59494849Y-104510552D01*
X59475248Y-104370540D01*
X59823111Y-104370540D01*
X59823111Y-104844432D01*
X59750910Y-104881763D01*
X59672963Y-104911660D01*
X59589815Y-104930790D01*
X59492712Y-104937549D01*
G37*
G36*
X60234660Y-104935473D02*
G01*
X60060332Y-104881557D01*
X60427124Y-104091248D01*
X59991761Y-104091248D01*
X59991761Y-103948427D01*
X60614030Y-103948427D01*
X60614030Y-104077265D01*
X60234660Y-104935473D01*
G37*
G36*
X61071070Y-103927422D02*
G01*
X61227874Y-103986956D01*
X60988455Y-104561660D01*
X61483352Y-104561660D01*
X61483352Y-104702344D01*
X60796663Y-104702344D01*
X60796663Y-104576314D01*
X61071070Y-103927422D01*
G37*
G36*
X61376984Y-104313814D02*
G01*
X61376984Y-104916545D01*
X61199175Y-104916545D01*
X61197099Y-104584069D01*
X61220852Y-104313814D01*
X61376984Y-104313814D01*
G37*
X101959580Y-122046666D02*
X102007200Y-122094285D01*
X102007200Y-122094285D02*
X102054819Y-122237142D01*
X102054819Y-122237142D02*
X102054819Y-122332380D01*
X102054819Y-122332380D02*
X102007200Y-122475237D01*
X102007200Y-122475237D02*
X101911961Y-122570475D01*
X101911961Y-122570475D02*
X101816723Y-122618094D01*
X101816723Y-122618094D02*
X101626247Y-122665713D01*
X101626247Y-122665713D02*
X101483390Y-122665713D01*
X101483390Y-122665713D02*
X101292914Y-122618094D01*
X101292914Y-122618094D02*
X101197676Y-122570475D01*
X101197676Y-122570475D02*
X101102438Y-122475237D01*
X101102438Y-122475237D02*
X101054819Y-122332380D01*
X101054819Y-122332380D02*
X101054819Y-122237142D01*
X101054819Y-122237142D02*
X101102438Y-122094285D01*
X101102438Y-122094285D02*
X101150057Y-122046666D01*
X101054819Y-121713332D02*
X101054819Y-121046666D01*
X101054819Y-121046666D02*
X102054819Y-121475237D01*
D14*
X82230000Y-104140000D02*
G75*
G02*
X80330000Y-104140000I-950000J0D01*
G01*
X80330000Y-104140000D02*
G75*
G02*
X82230000Y-104140000I950000J0D01*
G01*
X82230000Y-106680000D02*
G75*
G02*
X80330000Y-106680000I-950000J0D01*
G01*
X80330000Y-106680000D02*
G75*
G02*
X82230000Y-106680000I950000J0D01*
G01*
X82230000Y-109220000D02*
G75*
G02*
X80330000Y-109220000I-950000J0D01*
G01*
X80330000Y-109220000D02*
G75*
G02*
X82230000Y-109220000I950000J0D01*
G01*
X82230000Y-111760000D02*
G75*
G02*
X80330000Y-111760000I-950000J0D01*
G01*
X80330000Y-111760000D02*
G75*
G02*
X82230000Y-111760000I950000J0D01*
G01*
X66990000Y-111760000D02*
G75*
G02*
X65090000Y-111760000I-950000J0D01*
G01*
X65090000Y-111760000D02*
G75*
G02*
X66990000Y-111760000I950000J0D01*
G01*
X66990000Y-109220000D02*
G75*
G02*
X65090000Y-109220000I-950000J0D01*
G01*
X65090000Y-109220000D02*
G75*
G02*
X66990000Y-109220000I950000J0D01*
G01*
X66990000Y-106680000D02*
G75*
G02*
X65090000Y-106680000I-950000J0D01*
G01*
X65090000Y-106680000D02*
G75*
G02*
X66990000Y-106680000I950000J0D01*
G01*
X66990000Y-104140000D02*
G75*
G02*
X65090000Y-104140000I-950000J0D01*
G01*
X65090000Y-104140000D02*
G75*
G02*
X66990000Y-104140000I950000J0D01*
G01*
X66990000Y-101600000D02*
G75*
G02*
X65090000Y-101600000I-950000J0D01*
G01*
X65090000Y-101600000D02*
G75*
G02*
X66990000Y-101600000I950000J0D01*
G01*
X66990000Y-99060000D02*
G75*
G02*
X65090000Y-99060000I-950000J0D01*
G01*
X65090000Y-99060000D02*
G75*
G02*
X66990000Y-99060000I950000J0D01*
G01*
X66990000Y-96520000D02*
G75*
G02*
X65090000Y-96520000I-950000J0D01*
G01*
X65090000Y-96520000D02*
G75*
G02*
X66990000Y-96520000I950000J0D01*
G01*
X66990000Y-93980000D02*
G75*
G02*
X65090000Y-93980000I-950000J0D01*
G01*
X65090000Y-93980000D02*
G75*
G02*
X66990000Y-93980000I950000J0D01*
G01*
X82230000Y-93980000D02*
G75*
G02*
X80330000Y-93980000I-950000J0D01*
G01*
X80330000Y-93980000D02*
G75*
G02*
X82230000Y-93980000I950000J0D01*
G01*
X82230000Y-96520000D02*
G75*
G02*
X80330000Y-96520000I-950000J0D01*
G01*
X80330000Y-96520000D02*
G75*
G02*
X82230000Y-96520000I950000J0D01*
G01*
X82230000Y-99060000D02*
G75*
G02*
X80330000Y-99060000I-950000J0D01*
G01*
X80330000Y-99060000D02*
G75*
G02*
X82230000Y-99060000I950000J0D01*
G01*
X82230000Y-101600000D02*
G75*
G02*
X80330000Y-101600000I-950000J0D01*
G01*
X80330000Y-101600000D02*
G75*
G02*
X82230000Y-101600000I950000J0D01*
G01*
X54380000Y-101600000D02*
X55150000Y-101600000D01*
X55150000Y-100230000D02*
X55150000Y-102970000D01*
X55150000Y-102970000D02*
X61690000Y-102970000D01*
X61690000Y-100230000D02*
X55150000Y-100230000D01*
X61690000Y-102970000D02*
X61690000Y-100230000D01*
X62460000Y-101600000D02*
X61690000Y-101600000D01*
D15*
G36*
X66905608Y-126759044D02*
G01*
X66990316Y-126798140D01*
X67044887Y-126827734D01*
X67122392Y-126885576D01*
X67177752Y-126948534D01*
X67210968Y-127016608D01*
X67222040Y-127089798D01*
X67214023Y-127153329D01*
X67189969Y-127214417D01*
X67152324Y-127268021D01*
X67103531Y-127309102D01*
X67027477Y-127336591D01*
X66914160Y-127345754D01*
X66845437Y-127338119D01*
X66790764Y-127315211D01*
X66790764Y-126710446D01*
X66905608Y-126759044D01*
G37*
G36*
X67495502Y-125973608D02*
G01*
X67595619Y-125988459D01*
X67693798Y-126013052D01*
X67789095Y-126047149D01*
X67880590Y-126090423D01*
X67967403Y-126142457D01*
X68048698Y-126202749D01*
X68123691Y-126270720D01*
X68191662Y-126345713D01*
X68251954Y-126427008D01*
X68303988Y-126513821D01*
X68347262Y-126605316D01*
X68381359Y-126700613D01*
X68405952Y-126798792D01*
X68420803Y-126898909D01*
X68425769Y-127000000D01*
X68420803Y-127101091D01*
X68405952Y-127201208D01*
X68381359Y-127299387D01*
X68347262Y-127394684D01*
X68303988Y-127486179D01*
X68251954Y-127572992D01*
X68191662Y-127654287D01*
X68123691Y-127729280D01*
X68048698Y-127797251D01*
X67967403Y-127857543D01*
X67880590Y-127909577D01*
X67789095Y-127952851D01*
X67693798Y-127986948D01*
X67595619Y-128011541D01*
X67495502Y-128026392D01*
X67394411Y-128031358D01*
X67394307Y-128031358D01*
X66914771Y-128031358D01*
X65663702Y-128031358D01*
X65010678Y-128031358D01*
X64685693Y-128031358D01*
X64685589Y-128031358D01*
X64584498Y-128026392D01*
X64484381Y-128011541D01*
X64386202Y-127986948D01*
X64290905Y-127952851D01*
X64199410Y-127909577D01*
X64112597Y-127857543D01*
X64031302Y-127797251D01*
X63956309Y-127729280D01*
X63888338Y-127654287D01*
X63828046Y-127572992D01*
X63776012Y-127486179D01*
X63732738Y-127394684D01*
X63698641Y-127299387D01*
X63674048Y-127201208D01*
X63666221Y-127148442D01*
X64685693Y-127148442D01*
X64694721Y-127253343D01*
X64721803Y-127339171D01*
X64766939Y-127405925D01*
X64830131Y-127453608D01*
X64911377Y-127482217D01*
X65010678Y-127491753D01*
X65093757Y-127484881D01*
X65171338Y-127464264D01*
X65243421Y-127429902D01*
X65310006Y-127381796D01*
X65367657Y-127322579D01*
X65414771Y-127254276D01*
X65451347Y-127176886D01*
X65477385Y-127090409D01*
X65514038Y-127021381D01*
X65489297Y-126962737D01*
X65427905Y-126938913D01*
X65321748Y-126941220D01*
X65224823Y-126948144D01*
X65137129Y-126959682D01*
X65040382Y-126981827D01*
X64971277Y-127010996D01*
X64929814Y-127047190D01*
X64915993Y-127090409D01*
X64938595Y-127147221D01*
X65001515Y-127175321D01*
X65039389Y-127166768D01*
X65113508Y-127139415D01*
X65195773Y-127120071D01*
X65286182Y-127108735D01*
X65240366Y-127203421D01*
X65175003Y-127272450D01*
X65098491Y-127312309D01*
X65010678Y-127325596D01*
X64934472Y-127315974D01*
X64887892Y-127287111D01*
X64865443Y-127234117D01*
X64857960Y-127148442D01*
X64863409Y-127069200D01*
X64879756Y-126992254D01*
X64907001Y-126917605D01*
X64945144Y-126845254D01*
X64994184Y-126775199D01*
X65078027Y-126686316D01*
X65142627Y-126656689D01*
X65197224Y-126665318D01*
X65257166Y-126691203D01*
X65338106Y-126725718D01*
X65399804Y-126699756D01*
X65424850Y-126640806D01*
X65400660Y-126596213D01*
X65562908Y-126596213D01*
X65564740Y-126641875D01*
X65570238Y-126705559D01*
X65575736Y-126769243D01*
X65577569Y-126814905D01*
X65578027Y-126863164D01*
X65579401Y-126930971D01*
X65580776Y-126998778D01*
X65581234Y-127047037D01*
X65580623Y-127092089D01*
X65578790Y-127155162D01*
X65576958Y-127218235D01*
X65576347Y-127263286D01*
X65572376Y-127337202D01*
X65568406Y-127411118D01*
X65592230Y-127470373D01*
X65663702Y-127497862D01*
X65712572Y-127477839D01*
X65741894Y-127417770D01*
X65751668Y-127317654D01*
X65751133Y-127257178D01*
X65749530Y-127172266D01*
X65747926Y-127087355D01*
X65747392Y-127026878D01*
X65748308Y-126960141D01*
X65751057Y-126832010D01*
X65824028Y-126924948D01*
X65895108Y-127012561D01*
X65964299Y-127094848D01*
X66031600Y-127171808D01*
X66097012Y-127243443D01*
X66160533Y-127309751D01*
X66222164Y-127370733D01*
X66281906Y-127426390D01*
X66332914Y-127462584D01*
X66378424Y-127474649D01*
X66439206Y-127454948D01*
X66467611Y-127395846D01*
X66470109Y-127372633D01*
X66616665Y-127372633D01*
X66641100Y-127430971D01*
X66701576Y-127455712D01*
X66749377Y-127478925D01*
X66812144Y-127497251D01*
X66914771Y-127510079D01*
X67028190Y-127502749D01*
X67123282Y-127480757D01*
X67200049Y-127444105D01*
X67256046Y-127400733D01*
X67303490Y-127348809D01*
X67342382Y-127288332D01*
X67371229Y-127223648D01*
X67388537Y-127156655D01*
X67394307Y-127087355D01*
X67384876Y-127001604D01*
X67356585Y-126919670D01*
X67309433Y-126841555D01*
X67243421Y-126767257D01*
X67176912Y-126710446D01*
X67103836Y-126661576D01*
X67024194Y-126620648D01*
X66937984Y-126587660D01*
X66901026Y-126572236D01*
X66825583Y-126536958D01*
X66759609Y-126508552D01*
X66724178Y-126499084D01*
X66655150Y-126532376D01*
X66622773Y-126599267D01*
X66623461Y-126684026D01*
X66625522Y-126802688D01*
X66627584Y-126921350D01*
X66628271Y-127006109D01*
X66626820Y-127082468D01*
X66622468Y-127189371D01*
X66618115Y-127296274D01*
X66616665Y-127372633D01*
X66470109Y-127372633D01*
X66477996Y-127299328D01*
X66478225Y-127246793D01*
X66478913Y-127164936D01*
X66480058Y-127053757D01*
X66481662Y-126913256D01*
X66482883Y-126816738D01*
X66476660Y-126682308D01*
X66457990Y-126586286D01*
X66426874Y-126528673D01*
X66383311Y-126509469D01*
X66316420Y-126530544D01*
X66294123Y-126593769D01*
X66300232Y-126660965D01*
X66308173Y-126726940D01*
X66310846Y-126791730D01*
X66312755Y-126881032D01*
X66313900Y-126994846D01*
X66314282Y-127133170D01*
X66313671Y-127226023D01*
X66253579Y-127168699D01*
X66193307Y-127107770D01*
X66132853Y-127043236D01*
X66072218Y-126975097D01*
X66011402Y-126903354D01*
X65950405Y-126828005D01*
X65889227Y-126749052D01*
X65827868Y-126666493D01*
X65766329Y-126580330D01*
X65713793Y-126521686D01*
X65666145Y-126502138D01*
X65594368Y-126530849D01*
X65562908Y-126596213D01*
X65400660Y-126596213D01*
X65394612Y-126585064D01*
X65303897Y-126532682D01*
X65212572Y-126500611D01*
X65142627Y-126489921D01*
X65048552Y-126507789D01*
X64960586Y-126561393D01*
X64902859Y-126616295D01*
X64850629Y-126678986D01*
X64803897Y-126749465D01*
X64762663Y-126827734D01*
X64728989Y-126909400D01*
X64704936Y-126990073D01*
X64690504Y-127069754D01*
X64685693Y-127148442D01*
X63666221Y-127148442D01*
X63659197Y-127101091D01*
X63654231Y-127000000D01*
X63659197Y-126898909D01*
X63674048Y-126798792D01*
X63698641Y-126700613D01*
X63732738Y-126605316D01*
X63776012Y-126513821D01*
X63828046Y-126427008D01*
X63888338Y-126345713D01*
X63956309Y-126270720D01*
X64031302Y-126202749D01*
X64112597Y-126142457D01*
X64199410Y-126090423D01*
X64290905Y-126047149D01*
X64386202Y-126013052D01*
X64484381Y-125988459D01*
X64584498Y-125973608D01*
X64685589Y-125968642D01*
X64685693Y-125968642D01*
X67394307Y-125968642D01*
X67394411Y-125968642D01*
X67495502Y-125973608D01*
G37*
D14*
X57020000Y-110760000D02*
X59820000Y-110760000D01*
X57020000Y-112760000D02*
X57020000Y-110760000D01*
X59820000Y-110760000D02*
X59820000Y-112760000D01*
X59820000Y-112760000D02*
X57020000Y-112760000D01*
X57090000Y-122080000D02*
X58420000Y-122080000D01*
X57090000Y-123190000D02*
X57090000Y-122080000D01*
X57090000Y-124650000D02*
X59750000Y-124650000D01*
X57090000Y-133280000D02*
X57090000Y-124650000D01*
X57090000Y-133280000D02*
X59750000Y-133280000D01*
X57210000Y-133280000D02*
X57210000Y-124650000D01*
X57325455Y-133280000D02*
X57325455Y-124650000D01*
X57440910Y-133280000D02*
X57440910Y-124650000D01*
X57556365Y-133280000D02*
X57556365Y-124650000D01*
X57671820Y-133280000D02*
X57671820Y-124650000D01*
X57787275Y-133280000D02*
X57787275Y-124650000D01*
X57902730Y-133280000D02*
X57902730Y-124650000D01*
X58018185Y-133280000D02*
X58018185Y-124650000D01*
X58060000Y-124650000D02*
X58060000Y-124300000D01*
X58133640Y-133280000D02*
X58133640Y-124650000D01*
X58249095Y-133280000D02*
X58249095Y-124650000D01*
X58364550Y-133280000D02*
X58364550Y-124650000D01*
X58480005Y-133280000D02*
X58480005Y-124650000D01*
X58595460Y-133280000D02*
X58595460Y-124650000D01*
X58710915Y-133280000D02*
X58710915Y-124650000D01*
X58780000Y-124650000D02*
X58780000Y-124300000D01*
X58826370Y-133280000D02*
X58826370Y-124650000D01*
X58941825Y-133280000D02*
X58941825Y-124650000D01*
X59057280Y-133280000D02*
X59057280Y-124650000D01*
X59172735Y-133280000D02*
X59172735Y-124650000D01*
X59288190Y-133280000D02*
X59288190Y-124650000D01*
X59403645Y-133280000D02*
X59403645Y-124650000D01*
X59519100Y-133280000D02*
X59519100Y-124650000D01*
X59634555Y-133280000D02*
X59634555Y-124650000D01*
X59750000Y-133280000D02*
X59750000Y-124650000D01*
X54380000Y-99060000D02*
X55150000Y-99060000D01*
X55150000Y-97690000D02*
X55150000Y-100430000D01*
X55150000Y-100430000D02*
X61690000Y-100430000D01*
X61690000Y-97690000D02*
X55150000Y-97690000D01*
X61690000Y-100430000D02*
X61690000Y-97690000D01*
X62460000Y-99060000D02*
X61690000Y-99060000D01*
X128170000Y-116800000D02*
X128170000Y-122040000D01*
X128507000Y-116800000D02*
X128170000Y-116800000D01*
X128507000Y-122040000D02*
X128170000Y-122040000D01*
X130910000Y-116800000D02*
X130573000Y-116800000D01*
X130910000Y-116800000D02*
X130910000Y-122040000D01*
X130910000Y-122040000D02*
X130573000Y-122040000D01*
X102760000Y-72330000D02*
X102760000Y-92770000D01*
X102760000Y-92770000D02*
X104410000Y-92770000D01*
X106410000Y-92770000D02*
X108060000Y-92770000D01*
X108060000Y-72330000D02*
X102760000Y-72330000D01*
X108060000Y-92770000D02*
X108060000Y-72330000D01*
X110550000Y-92830000D02*
X100270000Y-92830000D01*
X100270000Y-72270000D01*
X110550000Y-72270000D01*
X110550000Y-92830000D01*
X104410000Y-92770000D02*
G75*
G02*
X106410000Y-92770000I1000000J0D01*
G01*
X53865000Y-52010000D02*
X53865000Y-72450000D01*
X53865000Y-72450000D02*
X55515000Y-72450000D01*
X57515000Y-72450000D02*
X59165000Y-72450000D01*
X59165000Y-52010000D02*
X53865000Y-52010000D01*
X59165000Y-72450000D02*
X59165000Y-52010000D01*
X61655000Y-72510000D02*
X51375000Y-72510000D01*
X51375000Y-51950000D01*
X61655000Y-51950000D01*
X61655000Y-72510000D01*
X55515000Y-72450000D02*
G75*
G02*
X57515000Y-72450000I1000000J0D01*
G01*
D15*
G36*
X67318716Y-117054130D02*
G01*
X67242629Y-117127319D01*
X67146252Y-117153406D01*
X67048788Y-117121159D01*
X67015817Y-117028043D01*
X67028136Y-116968533D01*
X67065093Y-116923333D01*
X67130672Y-116894801D01*
X67228861Y-116885290D01*
X67318716Y-116885290D01*
X67318716Y-117054130D01*
G37*
G36*
X68146252Y-116614638D02*
G01*
X68212194Y-116677319D01*
X68212194Y-117039638D01*
X68143353Y-117116449D01*
X68047701Y-117148333D01*
X67962194Y-117119710D01*
X67907846Y-117029855D01*
X67893716Y-116959475D01*
X67889006Y-116870797D01*
X67900419Y-116746793D01*
X67934658Y-116660290D01*
X67989368Y-116609475D01*
X68062194Y-116592536D01*
X68146252Y-116614638D01*
G37*
G36*
X65487194Y-116395435D02*
G01*
X65574875Y-116446159D01*
X65610382Y-116492536D01*
X65637919Y-116556304D01*
X65655582Y-116640543D01*
X65661469Y-116748333D01*
X65655853Y-116852591D01*
X65639006Y-116936377D01*
X65612466Y-117001866D01*
X65577774Y-117051232D01*
X65490455Y-117109203D01*
X65389730Y-117125870D01*
X65296977Y-117125870D01*
X65296977Y-116382391D01*
X65389006Y-116382391D01*
X65487194Y-116395435D01*
G37*
G36*
X70320706Y-115511288D02*
G01*
X70385824Y-115516092D01*
X70450628Y-115524085D01*
X70514962Y-115535248D01*
X70578671Y-115549554D01*
X70641601Y-115566969D01*
X70703600Y-115587451D01*
X70764520Y-115610950D01*
X70824213Y-115637410D01*
X70882536Y-115666768D01*
X70939349Y-115698952D01*
X70994514Y-115733884D01*
X71047898Y-115771482D01*
X71099373Y-115811653D01*
X71148815Y-115854302D01*
X71196105Y-115899326D01*
X71241128Y-115946616D01*
X71283777Y-115996058D01*
X71323949Y-116047533D01*
X71361546Y-116100917D01*
X71396479Y-116156082D01*
X71428663Y-116212894D01*
X71458020Y-116271217D01*
X71484481Y-116330911D01*
X71507980Y-116391831D01*
X71528462Y-116453830D01*
X71545877Y-116516760D01*
X71560183Y-116580469D01*
X71571346Y-116644802D01*
X71579339Y-116709606D01*
X71584142Y-116774725D01*
X71585745Y-116840000D01*
X71584142Y-116905275D01*
X71579339Y-116970394D01*
X71571346Y-117035198D01*
X71560183Y-117099531D01*
X71545877Y-117163240D01*
X71528462Y-117226170D01*
X71507980Y-117288169D01*
X71484481Y-117349089D01*
X71458020Y-117408783D01*
X71428663Y-117467106D01*
X71396479Y-117523918D01*
X71361546Y-117579083D01*
X71323949Y-117632467D01*
X71283777Y-117683942D01*
X71241128Y-117733384D01*
X71196105Y-117780674D01*
X71148815Y-117825698D01*
X71099373Y-117868347D01*
X71047898Y-117908518D01*
X70994514Y-117946116D01*
X70939349Y-117981048D01*
X70882536Y-118013232D01*
X70824213Y-118042590D01*
X70764520Y-118069050D01*
X70703600Y-118092549D01*
X70641601Y-118113031D01*
X70578671Y-118130446D01*
X70514962Y-118144752D01*
X70450628Y-118155915D01*
X70385824Y-118163908D01*
X70320706Y-118168712D01*
X70255431Y-118170314D01*
X70134658Y-118170314D01*
X69865817Y-118170314D01*
X69258571Y-118170314D01*
X68004948Y-118170314D01*
X67096977Y-118170314D01*
X66054948Y-118170314D01*
X65373788Y-118170314D01*
X65128861Y-118170314D01*
X63921131Y-118170314D01*
X63309859Y-117253406D01*
X65128861Y-117253406D01*
X65373788Y-117253406D01*
X65440455Y-117250145D01*
X65507122Y-117240362D01*
X65572067Y-117222518D01*
X65633571Y-117195072D01*
X65689911Y-117156486D01*
X65739368Y-117105217D01*
X65780491Y-117040091D01*
X65811832Y-116959928D01*
X65831669Y-116863188D01*
X65838281Y-116748333D01*
X65833772Y-116650990D01*
X65820246Y-116566691D01*
X65797701Y-116495435D01*
X65793696Y-116488188D01*
X65965817Y-116488188D01*
X66223788Y-117253406D01*
X66278861Y-117253406D01*
X66230672Y-117346884D01*
X66157484Y-117408841D01*
X66103589Y-117429583D01*
X66033933Y-117444710D01*
X66054948Y-117566449D01*
X66153498Y-117549239D01*
X66234658Y-117516449D01*
X66300600Y-117469438D01*
X66353498Y-117409565D01*
X66395709Y-117338098D01*
X66429585Y-117256304D01*
X66505480Y-117035290D01*
X66845527Y-117035290D01*
X66862466Y-117131576D01*
X66913281Y-117207391D01*
X66993082Y-117256576D01*
X67096977Y-117272971D01*
X67167991Y-117266268D01*
X67234658Y-117246159D01*
X67293535Y-117212826D01*
X67341180Y-117166449D01*
X67402774Y-117241087D01*
X67499875Y-117272246D01*
X67536107Y-117162101D01*
X67491904Y-117131304D01*
X67478136Y-117065725D01*
X67478136Y-116870797D01*
X67717267Y-116870797D01*
X67724966Y-116983207D01*
X67748064Y-117081304D01*
X67787103Y-117162101D01*
X67842629Y-117222609D01*
X67915093Y-117260380D01*
X68004948Y-117272971D01*
X68069078Y-117265543D01*
X68126687Y-117243261D01*
X68177230Y-117207391D01*
X68220165Y-117159203D01*
X68231759Y-117253406D01*
X68374513Y-117253406D01*
X68374513Y-117134565D01*
X68659296Y-117134565D01*
X68659296Y-117253406D01*
X69258571Y-117253406D01*
X69258571Y-117134565D01*
X69050600Y-117134565D01*
X69050600Y-116874420D01*
X69493353Y-116874420D01*
X69504404Y-116986558D01*
X69537556Y-117083841D01*
X69591542Y-117163641D01*
X69665093Y-117223333D01*
X69756940Y-117260562D01*
X69865817Y-117272971D01*
X69940727Y-117266359D01*
X70013281Y-117246522D01*
X70079314Y-117215996D01*
X70134658Y-117177319D01*
X70059296Y-117072971D01*
X69970890Y-117121159D01*
X69870890Y-117139638D01*
X69765093Y-117113188D01*
X69692267Y-117028406D01*
X69672430Y-116960743D01*
X69665817Y-116874420D01*
X69680219Y-116750688D01*
X69723426Y-116665000D01*
X69789277Y-116615000D01*
X69871614Y-116598333D01*
X69967629Y-116614638D01*
X70059296Y-116662101D01*
X70133933Y-116559928D01*
X70076143Y-116519891D01*
X70012919Y-116491087D01*
X69943897Y-116473696D01*
X69868716Y-116467899D01*
X69759114Y-116481214D01*
X69666542Y-116521159D01*
X69592357Y-116584022D01*
X69537919Y-116666087D01*
X69504495Y-116764004D01*
X69493353Y-116874420D01*
X69050600Y-116874420D01*
X69050600Y-116488188D01*
X68937556Y-116488188D01*
X68666542Y-116488188D01*
X68666542Y-116607029D01*
X68888281Y-116607029D01*
X68888281Y-117134565D01*
X68659296Y-117134565D01*
X68374513Y-117134565D01*
X68374513Y-116215000D01*
X68831759Y-116215000D01*
X68861469Y-116288188D01*
X68937556Y-116317899D01*
X69014730Y-116288188D01*
X69044078Y-116215000D01*
X69014730Y-116142536D01*
X68937556Y-116113551D01*
X68861469Y-116142536D01*
X68831759Y-116215000D01*
X68374513Y-116215000D01*
X68374513Y-116180942D01*
X68212194Y-116162826D01*
X68212194Y-116551232D01*
X68127411Y-116489275D01*
X68019440Y-116467899D01*
X67931397Y-116480942D01*
X67857122Y-116520072D01*
X67797520Y-116581938D01*
X67753498Y-116663188D01*
X67726325Y-116760562D01*
X67717267Y-116870797D01*
X67478136Y-116870797D01*
X67478136Y-116724420D01*
X67459205Y-116617174D01*
X67402411Y-116536014D01*
X67343273Y-116498172D01*
X67266824Y-116475467D01*
X67173064Y-116467899D01*
X67111832Y-116471069D01*
X67045527Y-116480580D01*
X66975962Y-116496793D01*
X66904948Y-116520072D01*
X66944803Y-116634565D01*
X67057122Y-116604493D01*
X67148426Y-116594710D01*
X67220437Y-116602862D01*
X67274151Y-116627319D01*
X67307575Y-116670254D01*
X67318716Y-116733841D01*
X67318716Y-116783841D01*
X67209296Y-116783841D01*
X67101405Y-116791087D01*
X67011550Y-116812826D01*
X66939730Y-116849058D01*
X66869078Y-116928225D01*
X66845527Y-117035290D01*
X66505480Y-117035290D01*
X66693353Y-116488188D01*
X66526687Y-116488188D01*
X66331035Y-117140362D01*
X66138281Y-116488188D01*
X65965817Y-116488188D01*
X65793696Y-116488188D01*
X65750147Y-116409384D01*
X65688643Y-116345435D01*
X65615817Y-116300870D01*
X65534296Y-116272971D01*
X65447067Y-116258297D01*
X65357122Y-116253406D01*
X65128861Y-116253406D01*
X65128861Y-117253406D01*
X63309859Y-117253406D01*
X63034255Y-116840000D01*
X63921131Y-115509686D01*
X65128861Y-115509686D01*
X70134658Y-115509686D01*
X70255431Y-115509686D01*
X70320706Y-115511288D01*
G37*
D14*
X53895000Y-73897000D02*
X53895000Y-73560000D01*
X53895000Y-76300000D02*
X53895000Y-75963000D01*
X59135000Y-73560000D02*
X53895000Y-73560000D01*
X59135000Y-73897000D02*
X59135000Y-73560000D01*
X59135000Y-76300000D02*
X53895000Y-76300000D01*
X59135000Y-76300000D02*
X59135000Y-75963000D01*
X76725000Y-52010000D02*
X76725000Y-72450000D01*
X76725000Y-72450000D02*
X78375000Y-72450000D01*
X80375000Y-72450000D02*
X82025000Y-72450000D01*
X82025000Y-52010000D02*
X76725000Y-52010000D01*
X82025000Y-72450000D02*
X82025000Y-52010000D01*
X84515000Y-72510000D02*
X74235000Y-72510000D01*
X74235000Y-51950000D01*
X84515000Y-51950000D01*
X84515000Y-72510000D01*
X78375000Y-72450000D02*
G75*
G02*
X80375000Y-72450000I1000000J0D01*
G01*
X96420000Y-62745000D02*
X96420000Y-67985000D01*
X96757000Y-62745000D02*
X96420000Y-62745000D01*
X96757000Y-67985000D02*
X96420000Y-67985000D01*
X99160000Y-62745000D02*
X98823000Y-62745000D01*
X99160000Y-62745000D02*
X99160000Y-67985000D01*
X99160000Y-67985000D02*
X98823000Y-67985000D01*
X89097896Y-129265000D02*
X90520400Y-129265000D01*
X89097896Y-131085000D02*
X90520400Y-131085000D01*
X118000000Y-72330000D02*
X118000000Y-92770000D01*
X118000000Y-92770000D02*
X123300000Y-92770000D01*
X119650000Y-72330000D02*
X118000000Y-72330000D01*
X123300000Y-72330000D02*
X121650000Y-72330000D01*
X123300000Y-92770000D02*
X123300000Y-72330000D01*
X115510000Y-72270000D02*
X125790000Y-72270000D01*
X125790000Y-92830000D01*
X115510000Y-92830000D01*
X115510000Y-72270000D01*
X121650000Y-72330000D02*
G75*
G02*
X119650000Y-72330000I-1000000J0D01*
G01*
X86280061Y-126678562D02*
X87484189Y-126678562D01*
X86280061Y-128498562D02*
X87484189Y-128498562D01*
X118000000Y-95190000D02*
X118000000Y-115630000D01*
X118000000Y-115630000D02*
X123300000Y-115630000D01*
X119650000Y-95190000D02*
X118000000Y-95190000D01*
X123300000Y-95190000D02*
X121650000Y-95190000D01*
X123300000Y-115630000D02*
X123300000Y-95190000D01*
X115510000Y-95130000D02*
X125790000Y-95130000D01*
X125790000Y-115690000D01*
X115510000Y-115690000D01*
X115510000Y-95130000D01*
X121650000Y-95190000D02*
G75*
G02*
X119650000Y-95190000I-1000000J0D01*
G01*
X44975000Y-81390000D02*
X44975000Y-63390000D01*
X47625000Y-78740000D02*
X47625000Y-81390000D01*
X47625000Y-81390000D02*
X44975000Y-81390000D01*
X50275000Y-63390000D02*
X44975000Y-63390000D01*
X50275000Y-78740000D02*
X47625000Y-78740000D01*
X50275000Y-78740000D02*
X50275000Y-63390000D01*
X50275000Y-80010000D02*
X50275000Y-81390000D01*
X50275000Y-81390000D02*
X48895000Y-81390000D01*
X65295000Y-52010000D02*
X65295000Y-72450000D01*
X65295000Y-72450000D02*
X66945000Y-72450000D01*
X68945000Y-72450000D02*
X70595000Y-72450000D01*
X70595000Y-52010000D02*
X65295000Y-52010000D01*
X70595000Y-72450000D02*
X70595000Y-52010000D01*
X73085000Y-72510000D02*
X62805000Y-72510000D01*
X62805000Y-51950000D01*
X73085000Y-51950000D01*
X73085000Y-72510000D01*
X66945000Y-72450000D02*
G75*
G02*
X68945000Y-72450000I1000000J0D01*
G01*
X71410000Y-77410000D02*
X71410000Y-113090000D01*
X71410000Y-113090000D02*
X72660000Y-113090000D01*
X74660000Y-113090000D02*
X75910000Y-113090000D01*
X75910000Y-77410000D02*
X71410000Y-77410000D01*
X75910000Y-113090000D02*
X75910000Y-77410000D01*
X78910000Y-113150000D02*
X68410000Y-113150000D01*
X68410000Y-77350000D01*
X78910000Y-77350000D01*
X78910000Y-113150000D01*
X72660000Y-113090000D02*
G75*
G02*
X74660000Y-113090000I1000000J0D01*
G01*
X105350000Y-120540000D02*
X105350000Y-125840000D01*
X105350000Y-125840000D02*
X125790000Y-125840000D01*
X125790000Y-120540000D02*
X105350000Y-120540000D01*
X125790000Y-122190000D02*
X125790000Y-120540000D01*
X125790000Y-125840000D02*
X125790000Y-124190000D01*
X125850000Y-118050000D02*
X105290000Y-118050000D01*
X105290000Y-128330000D01*
X125850000Y-128330000D01*
X125850000Y-118050000D01*
X125790000Y-124190000D02*
G75*
G02*
X125790000Y-122190000I0J1000000D01*
G01*
X96420000Y-91995000D02*
X96757000Y-91995000D01*
X96420000Y-97235000D02*
X96420000Y-91995000D01*
X96420000Y-97235000D02*
X96757000Y-97235000D01*
X98823000Y-91995000D02*
X99160000Y-91995000D01*
X98823000Y-97235000D02*
X99160000Y-97235000D01*
X99160000Y-97235000D02*
X99160000Y-91995000D01*
X55770000Y-90280000D02*
X55770000Y-88900000D01*
X57150000Y-90280000D02*
X55770000Y-90280000D01*
X58420000Y-87520000D02*
X63610000Y-87520000D01*
X58420000Y-90280000D02*
X58420000Y-87520000D01*
X58420000Y-90280000D02*
X63610000Y-90280000D01*
X63610000Y-90280000D02*
X63610000Y-87520000D01*
D15*
G36*
X78153867Y-126676084D02*
G01*
X78212511Y-126707697D01*
X78253745Y-126748778D01*
X78267489Y-126791387D01*
X78246720Y-126861230D01*
X78184410Y-126907045D01*
X78080562Y-126928833D01*
X77996872Y-126924557D01*
X77997483Y-126796274D01*
X77996872Y-126666768D01*
X78091558Y-126665547D01*
X78153867Y-126676084D01*
G37*
G36*
X78093696Y-127096365D02*
G01*
X78163030Y-127097434D01*
X78210983Y-127108430D01*
X78261991Y-127131643D01*
X78312847Y-127170892D01*
X78331020Y-127215333D01*
X78305058Y-127249542D01*
X78224728Y-127281307D01*
X78144839Y-127301262D01*
X78068887Y-127314702D01*
X77996872Y-127321625D01*
X77996872Y-127093158D01*
X78093696Y-127096365D01*
G37*
G36*
X78961136Y-126970678D02*
G01*
X78982822Y-126979536D01*
X78974575Y-127036042D01*
X78971826Y-127080941D01*
X78973863Y-127137141D01*
X78979971Y-127209631D01*
X78990153Y-127298412D01*
X78926316Y-127335370D01*
X78854539Y-127347892D01*
X78803225Y-127337584D01*
X78766573Y-127306659D01*
X78744582Y-127255269D01*
X78737251Y-127183568D01*
X78752828Y-127103161D01*
X78799560Y-127032987D01*
X78867062Y-126984194D01*
X78944948Y-126967929D01*
X78961136Y-126970678D01*
G37*
G36*
X80496591Y-125983639D02*
G01*
X80595729Y-125998345D01*
X80692949Y-126022697D01*
X80787314Y-126056461D01*
X80877915Y-126099313D01*
X80963880Y-126150838D01*
X81044380Y-126210541D01*
X81118641Y-126277847D01*
X81185947Y-126352108D01*
X81245650Y-126432608D01*
X81297175Y-126518573D01*
X81340026Y-126609174D01*
X81373791Y-126703538D01*
X81398143Y-126800758D01*
X81412849Y-126899897D01*
X81417767Y-127000000D01*
X81412849Y-127100103D01*
X81398143Y-127199242D01*
X81373791Y-127296462D01*
X81340026Y-127390826D01*
X81297175Y-127481427D01*
X81245650Y-127567392D01*
X81185947Y-127647892D01*
X81118641Y-127722153D01*
X81044380Y-127789459D01*
X80963880Y-127849162D01*
X80877915Y-127900687D01*
X80787314Y-127943539D01*
X80692949Y-127977303D01*
X80595729Y-128001655D01*
X80496591Y-128016361D01*
X80396488Y-128021279D01*
X80396384Y-128021279D01*
X80117214Y-128021279D01*
X79527721Y-128021279D01*
X79123323Y-128021279D01*
X77925400Y-128021279D01*
X77362786Y-128021279D01*
X77083616Y-128021279D01*
X77083512Y-128021279D01*
X76983409Y-128016361D01*
X76884270Y-128001655D01*
X76787051Y-127977303D01*
X76692686Y-127943539D01*
X76602085Y-127900687D01*
X76516120Y-127849162D01*
X76435620Y-127789459D01*
X76361359Y-127722153D01*
X76294053Y-127647892D01*
X76234350Y-127567392D01*
X76182825Y-127481427D01*
X76139974Y-127390826D01*
X76106209Y-127296462D01*
X76081857Y-127199242D01*
X76067151Y-127100103D01*
X76065669Y-127069945D01*
X77083616Y-127069945D01*
X77125767Y-127127367D01*
X77202737Y-127143250D01*
X77282761Y-127140806D01*
X77283677Y-127223580D01*
X77283983Y-127245877D01*
X77306585Y-127297495D01*
X77362786Y-127317960D01*
X77418986Y-127297495D01*
X77441588Y-127245877D01*
X77442199Y-127192120D01*
X77442199Y-127137752D01*
X77491374Y-127136836D01*
X77539939Y-127135919D01*
X77562236Y-127138057D01*
X77583922Y-127140195D01*
X77640122Y-127117593D01*
X77660892Y-127066891D01*
X77629737Y-127011454D01*
X77536274Y-126992975D01*
X77498705Y-126994197D01*
X77461747Y-126995418D01*
X77440366Y-126994808D01*
X77439756Y-126952046D01*
X77441894Y-126921197D01*
X77444032Y-126890959D01*
X77420208Y-126840562D01*
X77364007Y-126820709D01*
X77302156Y-126851252D01*
X77281539Y-126942883D01*
X77282150Y-126972816D01*
X77282761Y-126997251D01*
X77202737Y-126999695D01*
X77122712Y-127007636D01*
X77083616Y-127069945D01*
X76065669Y-127069945D01*
X76062233Y-127000000D01*
X76067151Y-126899897D01*
X76081857Y-126800758D01*
X76106209Y-126703538D01*
X76120896Y-126662492D01*
X77827660Y-126662492D01*
X77830715Y-126745571D01*
X77830715Y-127393097D01*
X77859731Y-127458461D01*
X77925400Y-127489004D01*
X78029439Y-127485683D01*
X78124087Y-127475718D01*
X78209342Y-127459110D01*
X78285205Y-127435858D01*
X78348583Y-127405467D01*
X78409212Y-127363164D01*
X78475644Y-127288332D01*
X78497789Y-127209224D01*
X78491622Y-127178681D01*
X78568039Y-127178681D01*
X78576218Y-127274656D01*
X78600755Y-127353255D01*
X78641649Y-127414478D01*
X78698902Y-127458257D01*
X78772512Y-127484525D01*
X78862480Y-127493280D01*
X78935174Y-127479536D01*
X78981295Y-127462508D01*
X79034136Y-127438913D01*
X79086976Y-127484728D01*
X79123323Y-127500000D01*
X79180440Y-127478619D01*
X79205180Y-127424863D01*
X79181356Y-127364997D01*
X79153256Y-127301466D01*
X79140886Y-127233812D01*
X79136762Y-127133476D01*
X79140122Y-127047037D01*
X79149591Y-126985644D01*
X79163641Y-126947159D01*
X79140580Y-126897831D01*
X79120638Y-126885461D01*
X79244276Y-126885461D01*
X79263442Y-126940669D01*
X79320941Y-126964569D01*
X79387908Y-126971213D01*
X79435479Y-126974649D01*
X79440290Y-127085370D01*
X79443726Y-127175015D01*
X79445788Y-127243586D01*
X79446475Y-127291081D01*
X79444643Y-127357056D01*
X79442810Y-127423030D01*
X79469688Y-127478009D01*
X79527721Y-127498778D01*
X79576931Y-127483167D01*
X79606456Y-127436333D01*
X79616298Y-127358277D01*
X79615687Y-127323152D01*
X79615076Y-127293525D01*
X79614389Y-127244960D01*
X79612327Y-127175015D01*
X79608891Y-127083690D01*
X79604081Y-126970984D01*
X79662114Y-126966097D01*
X79692352Y-126967013D01*
X79722590Y-126967929D01*
X79783067Y-126944716D01*
X79806891Y-126886683D01*
X79806576Y-126885461D01*
X79833769Y-126885461D01*
X79852935Y-126940669D01*
X79910434Y-126964569D01*
X79977401Y-126971213D01*
X80024972Y-126974649D01*
X80029783Y-127085370D01*
X80033219Y-127175015D01*
X80035281Y-127243586D01*
X80035968Y-127291081D01*
X80034136Y-127357056D01*
X80032303Y-127423030D01*
X80059181Y-127478009D01*
X80117214Y-127498778D01*
X80166424Y-127483167D01*
X80195949Y-127436333D01*
X80205791Y-127358277D01*
X80205180Y-127323152D01*
X80204569Y-127293525D01*
X80203882Y-127244960D01*
X80201820Y-127175015D01*
X80198384Y-127083690D01*
X80193574Y-126970984D01*
X80251607Y-126966097D01*
X80281845Y-126967013D01*
X80312083Y-126967929D01*
X80372560Y-126944716D01*
X80396384Y-126886683D01*
X80384166Y-126839340D01*
X80347514Y-126812156D01*
X80251607Y-126802993D01*
X80189908Y-126808491D01*
X80191130Y-126758400D01*
X80181085Y-126673895D01*
X80150948Y-126623193D01*
X80100721Y-126606292D01*
X80040244Y-126628894D01*
X80015198Y-126685706D01*
X80017642Y-126746182D01*
X80020696Y-126810935D01*
X79916848Y-126803604D01*
X79856982Y-126827428D01*
X79833769Y-126885461D01*
X79806576Y-126885461D01*
X79794673Y-126839340D01*
X79758021Y-126812156D01*
X79662114Y-126802993D01*
X79600415Y-126808491D01*
X79601637Y-126758400D01*
X79591592Y-126673895D01*
X79561455Y-126623193D01*
X79511228Y-126606292D01*
X79450751Y-126628894D01*
X79425706Y-126685706D01*
X79428149Y-126746182D01*
X79431203Y-126810935D01*
X79327355Y-126803604D01*
X79267489Y-126827428D01*
X79244276Y-126885461D01*
X79120638Y-126885461D01*
X79071399Y-126854918D01*
X78999621Y-126830177D01*
X78937007Y-126821930D01*
X78840760Y-126833571D01*
X78754016Y-126868492D01*
X78676775Y-126926695D01*
X78616366Y-127001256D01*
X78580121Y-127085251D01*
X78568039Y-127178681D01*
X78491622Y-127178681D01*
X78484808Y-127144930D01*
X78445864Y-127080330D01*
X78396689Y-127029627D01*
X78340794Y-126993586D01*
X78383403Y-126950367D01*
X78411045Y-126909896D01*
X78430287Y-126856139D01*
X78436701Y-126791387D01*
X78422923Y-126709462D01*
X78381587Y-126637175D01*
X78312694Y-126574527D01*
X78241154Y-126533123D01*
X78167442Y-126508281D01*
X78091558Y-126500000D01*
X77999316Y-126503360D01*
X77937618Y-126513439D01*
X77861717Y-126536958D01*
X77830715Y-126583079D01*
X77827660Y-126662492D01*
X76120896Y-126662492D01*
X76139974Y-126609174D01*
X76182825Y-126518573D01*
X76234350Y-126432608D01*
X76294053Y-126352108D01*
X76361359Y-126277847D01*
X76435620Y-126210541D01*
X76516120Y-126150838D01*
X76602085Y-126099313D01*
X76692686Y-126056461D01*
X76787051Y-126022697D01*
X76884270Y-125998345D01*
X76983409Y-125983639D01*
X77083512Y-125978721D01*
X77083616Y-125978721D01*
X80396384Y-125978721D01*
X80396488Y-125978721D01*
X80496591Y-125983639D01*
G37*
G36*
X51937226Y-116591812D02*
G01*
X51638676Y-117201232D01*
X51585052Y-117109203D01*
X51895197Y-116478043D01*
X51937226Y-116591812D01*
G37*
G36*
X46648458Y-116485290D02*
G01*
X46723096Y-116545435D01*
X46749545Y-116655580D01*
X46742842Y-116722971D01*
X46722733Y-116774420D01*
X46648096Y-116836739D01*
X46537226Y-116855580D01*
X46414762Y-116855580D01*
X46414762Y-116466449D01*
X46535052Y-116466449D01*
X46648458Y-116485290D01*
G37*
G36*
X47479255Y-116448333D02*
G01*
X47527806Y-116478768D01*
X47557697Y-116526051D01*
X47567661Y-116586739D01*
X47539038Y-116683478D01*
X47502172Y-116722156D01*
X47448820Y-116760652D01*
X47345197Y-116718986D01*
X47279980Y-116667899D01*
X47257516Y-116588188D01*
X47267752Y-116524601D01*
X47298458Y-116477319D01*
X47347643Y-116447971D01*
X47413313Y-116438188D01*
X47479255Y-116448333D01*
G37*
G36*
X47429074Y-116888551D02*
G01*
X47487951Y-116913551D01*
X47570197Y-116974420D01*
X47598820Y-117071522D01*
X47586955Y-117135652D01*
X47551357Y-117188913D01*
X47492570Y-117224783D01*
X47411139Y-117236739D01*
X47330523Y-117225417D01*
X47272733Y-117191449D01*
X47237951Y-117138279D01*
X47226357Y-117069348D01*
X47244473Y-116976594D01*
X47293023Y-116909565D01*
X47359690Y-116862826D01*
X47429074Y-116888551D01*
G37*
G36*
X51864762Y-116480580D02*
G01*
X51898549Y-116529674D01*
X51921647Y-116603768D01*
X51934962Y-116705851D01*
X51939400Y-116838913D01*
X51934237Y-116967899D01*
X51918748Y-117069348D01*
X51893295Y-117144982D01*
X51858241Y-117196522D01*
X51760415Y-117236014D01*
X51677806Y-117216087D01*
X51622371Y-117150507D01*
X51603893Y-117097156D01*
X51591212Y-117028406D01*
X51583875Y-116942808D01*
X51581429Y-116838913D01*
X51586582Y-116711176D01*
X51602041Y-116610089D01*
X51627806Y-116535652D01*
X51684147Y-116466902D01*
X51760415Y-116443986D01*
X51864762Y-116480580D01*
G37*
G36*
X50154618Y-117212826D02*
G01*
X50154618Y-117311377D01*
X49993748Y-117311377D01*
X49993748Y-117212826D01*
X50154618Y-117212826D01*
G37*
G36*
X54057919Y-116840000D02*
G01*
X53308724Y-117963792D01*
X52100994Y-117963792D01*
X51760415Y-117963792D01*
X50853168Y-117963792D01*
X50354618Y-117963792D01*
X49237951Y-117963792D01*
X48564038Y-117963792D01*
X47408965Y-117963792D01*
X46414762Y-117963792D01*
X46246647Y-117963792D01*
X46125874Y-117963792D01*
X46015723Y-117958381D01*
X45906633Y-117942199D01*
X45799654Y-117915402D01*
X45695817Y-117878249D01*
X45596122Y-117831096D01*
X45501528Y-117774399D01*
X45412947Y-117708703D01*
X45331232Y-117634641D01*
X45257170Y-117552926D01*
X45191474Y-117464346D01*
X45134777Y-117369752D01*
X45120877Y-117340362D01*
X46246647Y-117340362D01*
X46414762Y-117340362D01*
X46414762Y-117074420D01*
X47060415Y-117074420D01*
X47070378Y-117149873D01*
X47100270Y-117218261D01*
X47149726Y-117276504D01*
X47218386Y-117321522D01*
X47305161Y-117350326D01*
X47408965Y-117359928D01*
X47513585Y-117350236D01*
X47601357Y-117321159D01*
X47671375Y-117275688D01*
X47722733Y-117216812D01*
X47754255Y-117147518D01*
X47764762Y-117070797D01*
X47751357Y-116986830D01*
X47711139Y-116913188D01*
X47646103Y-116850960D01*
X47558241Y-116801232D01*
X47630705Y-116753859D01*
X47682878Y-116703043D01*
X47714400Y-116645707D01*
X47724907Y-116578768D01*
X47701496Y-116474420D01*
X47922009Y-116474420D01*
X48027806Y-116554855D01*
X48072190Y-116507391D01*
X48116936Y-116475145D01*
X48229980Y-116450507D01*
X48297733Y-116461377D01*
X48348820Y-116493986D01*
X48380886Y-116545435D01*
X48391574Y-116612826D01*
X48378893Y-116698696D01*
X48336502Y-116789275D01*
X48301357Y-116840362D01*
X48255342Y-116897246D01*
X48197552Y-116961739D01*
X48127081Y-117035652D01*
X48072411Y-117090765D01*
X48010817Y-117151272D01*
X47942299Y-117217174D01*
X47942299Y-117340362D01*
X48564038Y-117340362D01*
X48582878Y-117209928D01*
X48128531Y-117209928D01*
X48204134Y-117140161D01*
X48271526Y-117075789D01*
X48330705Y-117016812D01*
X48405252Y-116936196D01*
X48463676Y-116863188D01*
X48479274Y-116838913D01*
X48792299Y-116838913D01*
X48798780Y-116945998D01*
X48818225Y-117041167D01*
X48850632Y-117124420D01*
X48894271Y-117195475D01*
X48947411Y-117254050D01*
X49010052Y-117300145D01*
X49080302Y-117333357D01*
X49156268Y-117353285D01*
X49237951Y-117359928D01*
X49339762Y-117351141D01*
X49424907Y-117324783D01*
X49495016Y-117286286D01*
X49551719Y-117241087D01*
X49470560Y-117137464D01*
X49377081Y-117197246D01*
X49317299Y-117217083D01*
X49243748Y-117223696D01*
X49169291Y-117214094D01*
X49102444Y-117185290D01*
X49046103Y-117135290D01*
X49003168Y-117062101D01*
X48975994Y-116963913D01*
X48966936Y-116838913D01*
X48976447Y-116711739D01*
X49004980Y-116612826D01*
X49049273Y-116539819D01*
X49061963Y-116528768D01*
X49703893Y-116528768D01*
X49773458Y-116642536D01*
X49993748Y-116507029D01*
X49993748Y-117212826D01*
X49749545Y-117212826D01*
X49749545Y-117340362D01*
X50154618Y-117340362D01*
X50354618Y-117340362D01*
X50354618Y-117228768D01*
X50546647Y-117228768D01*
X50608512Y-117283207D01*
X50679618Y-117324783D01*
X50760868Y-117351141D01*
X50853168Y-117359928D01*
X50954799Y-117349149D01*
X51042299Y-117316812D01*
X51113766Y-117265181D01*
X51167299Y-117196522D01*
X51200723Y-117113641D01*
X51211864Y-117019348D01*
X51202897Y-116926051D01*
X51175994Y-116847609D01*
X51170100Y-116838913D01*
X51419835Y-116838913D01*
X51425202Y-116956168D01*
X51441302Y-117059384D01*
X51468137Y-117148560D01*
X51505705Y-117223696D01*
X51572170Y-117299380D01*
X51657073Y-117344791D01*
X51760415Y-117359928D01*
X51863394Y-117344791D01*
X51948176Y-117299380D01*
X52014762Y-117223696D01*
X52052489Y-117148560D01*
X52079436Y-117059384D01*
X52095605Y-116956168D01*
X52100994Y-116838913D01*
X52095605Y-116722020D01*
X52079436Y-116619167D01*
X52052489Y-116530353D01*
X52014762Y-116455580D01*
X51948176Y-116380298D01*
X51863394Y-116335129D01*
X51760415Y-116320072D01*
X51657073Y-116335129D01*
X51572170Y-116380298D01*
X51505705Y-116455580D01*
X51468137Y-116530353D01*
X51441302Y-116619167D01*
X51425202Y-116722020D01*
X51419835Y-116838913D01*
X51170100Y-116838913D01*
X51133512Y-116784928D01*
X51077806Y-116738913D01*
X51011139Y-116710652D01*
X50935777Y-116701232D01*
X50854980Y-116709565D01*
X50772009Y-116740362D01*
X50772009Y-116462101D01*
X51156067Y-116462101D01*
X51177081Y-116340362D01*
X50616936Y-116340362D01*
X50616936Y-116854130D01*
X50736502Y-116854130D01*
X50809328Y-116828768D01*
X50879980Y-116820797D01*
X50963313Y-116839638D01*
X51021647Y-116901594D01*
X51037679Y-116952409D01*
X51043023Y-117018623D01*
X51029889Y-117108569D01*
X50990487Y-117175507D01*
X50928259Y-117217083D01*
X50846647Y-117230942D01*
X50736139Y-117207391D01*
X50643748Y-117137464D01*
X50546647Y-117228768D01*
X50354618Y-117228768D01*
X50354618Y-117212826D01*
X50154618Y-117212826D01*
X50154618Y-116340362D01*
X50011139Y-116340362D01*
X49703893Y-116528768D01*
X49061963Y-116528768D01*
X49106067Y-116490362D01*
X49172009Y-116462101D01*
X49243748Y-116452681D01*
X49353168Y-116470797D01*
X49449545Y-116526594D01*
X49537226Y-116422246D01*
X49474636Y-116378678D01*
X49407154Y-116346522D01*
X49329346Y-116326685D01*
X49235777Y-116320072D01*
X49119291Y-116335018D01*
X49013313Y-116379855D01*
X48950672Y-116425910D01*
X48897049Y-116484364D01*
X48852444Y-116555217D01*
X48819030Y-116638108D01*
X48798981Y-116732673D01*
X48792299Y-116838913D01*
X48479274Y-116838913D01*
X48507154Y-116795525D01*
X48536864Y-116730942D01*
X48553983Y-116667355D01*
X48559690Y-116602681D01*
X48550360Y-116527500D01*
X48522371Y-116459928D01*
X48476719Y-116402591D01*
X48414400Y-116358116D01*
X48335868Y-116329583D01*
X48241574Y-116320072D01*
X48141031Y-116330036D01*
X48056791Y-116359928D01*
X47985052Y-116408478D01*
X47922009Y-116474420D01*
X47701496Y-116474420D01*
X47699545Y-116465725D01*
X47630342Y-116384928D01*
X47530705Y-116336377D01*
X47413313Y-116320072D01*
X47299545Y-116336739D01*
X47198820Y-116387101D01*
X47127081Y-116470435D01*
X47106973Y-116524511D01*
X47100270Y-116587464D01*
X47109781Y-116663098D01*
X47138313Y-116723333D01*
X47186411Y-116773243D01*
X47254618Y-116817899D01*
X47175089Y-116863641D01*
X47113313Y-116921159D01*
X47073639Y-116991178D01*
X47060415Y-117074420D01*
X46414762Y-117074420D01*
X46414762Y-116983841D01*
X46535777Y-116983841D01*
X46643748Y-116975326D01*
X46738676Y-116949783D01*
X46817389Y-116906123D01*
X46876719Y-116843261D01*
X46913947Y-116759746D01*
X46926357Y-116654130D01*
X46914481Y-116556989D01*
X46878853Y-116478124D01*
X46819473Y-116417536D01*
X46739159Y-116374662D01*
X46640729Y-116348937D01*
X46524183Y-116340362D01*
X46246647Y-116340362D01*
X46246647Y-117340362D01*
X45120877Y-117340362D01*
X45087625Y-117270057D01*
X45050471Y-117166220D01*
X45023675Y-117059241D01*
X45007493Y-116950151D01*
X45002081Y-116840000D01*
X45007493Y-116729849D01*
X45023675Y-116620759D01*
X45050471Y-116513780D01*
X45087625Y-116409943D01*
X45134777Y-116310248D01*
X45191474Y-116215654D01*
X45257170Y-116127074D01*
X45331232Y-116045359D01*
X45412947Y-115971297D01*
X45501528Y-115905601D01*
X45596122Y-115848904D01*
X45695817Y-115801751D01*
X45799654Y-115764598D01*
X45906633Y-115737801D01*
X46015723Y-115721619D01*
X46125874Y-115716208D01*
X46246647Y-115716208D01*
X52100994Y-115716208D01*
X53308724Y-115716208D01*
X54057919Y-116840000D01*
G37*
D14*
X92964625Y-121638562D02*
X96724625Y-121638562D01*
X92964625Y-128458562D02*
X96724625Y-128458562D01*
X96724625Y-121638562D02*
X96724625Y-122898562D01*
X96724625Y-128458562D02*
X96724625Y-127198562D01*
X91684625Y-121738562D02*
X91444625Y-121408562D01*
X91924625Y-121408562D01*
X91684625Y-121738562D01*
G36*
X91684625Y-121738562D02*
G01*
X91444625Y-121408562D01*
X91924625Y-121408562D01*
X91684625Y-121738562D01*
G37*
X128170000Y-68460000D02*
X128170000Y-73700000D01*
X128507000Y-68460000D02*
X128170000Y-68460000D01*
X128507000Y-73700000D02*
X128170000Y-73700000D01*
X130910000Y-68460000D02*
X130573000Y-68460000D01*
X130910000Y-68460000D02*
X130910000Y-73700000D01*
X130910000Y-73700000D02*
X130573000Y-73700000D01*
X69500000Y-130370000D02*
X69500000Y-123630000D01*
X73360000Y-123630000D02*
X69500000Y-123630000D01*
X75280000Y-123630000D02*
X73960000Y-123630000D01*
X75280000Y-124150000D02*
X69500000Y-124150000D01*
X75280000Y-129250000D02*
X69500000Y-129250000D01*
X75280000Y-130370000D02*
X69500000Y-130370000D01*
X75280000Y-130370000D02*
X75280000Y-123630000D01*
X73660000Y-123630000D02*
X73220000Y-123020000D01*
X74100000Y-123020000D01*
X73660000Y-123630000D01*
G36*
X73660000Y-123630000D02*
G01*
X73220000Y-123020000D01*
X74100000Y-123020000D01*
X73660000Y-123630000D01*
G37*
X74202936Y-119105000D02*
X75657064Y-119105000D01*
X74202936Y-120925000D02*
X75657064Y-120925000D01*
X102760000Y-95190000D02*
X102760000Y-115630000D01*
X102760000Y-115630000D02*
X104410000Y-115630000D01*
X106410000Y-115630000D02*
X108060000Y-115630000D01*
X108060000Y-95190000D02*
X102760000Y-95190000D01*
X108060000Y-115630000D02*
X108060000Y-95190000D01*
X110550000Y-115690000D02*
X100270000Y-115690000D01*
X100270000Y-95130000D01*
X110550000Y-95130000D01*
X110550000Y-115690000D01*
X104410000Y-115630000D02*
G75*
G02*
X106410000Y-115630000I1000000J0D01*
G01*
X118000000Y-49470000D02*
X118000000Y-69910000D01*
X118000000Y-69910000D02*
X123300000Y-69910000D01*
X119650000Y-49470000D02*
X118000000Y-49470000D01*
X123300000Y-49470000D02*
X121650000Y-49470000D01*
X123300000Y-69910000D02*
X123300000Y-49470000D01*
X115510000Y-49410000D02*
X125790000Y-49410000D01*
X125790000Y-69970000D01*
X115510000Y-69970000D01*
X115510000Y-49410000D01*
X121650000Y-49470000D02*
G75*
G02*
X119650000Y-49470000I-1000000J0D01*
G01*
X128170000Y-55760000D02*
X128507000Y-55760000D01*
X128170000Y-61000000D02*
X128170000Y-55760000D01*
X128170000Y-61000000D02*
X128507000Y-61000000D01*
X130573000Y-55760000D02*
X130910000Y-55760000D01*
X130573000Y-61000000D02*
X130910000Y-61000000D01*
X130910000Y-61000000D02*
X130910000Y-55760000D01*
X79910000Y-86240000D02*
X79910000Y-91480000D01*
X80247000Y-86240000D02*
X79910000Y-86240000D01*
X80247000Y-91480000D02*
X79910000Y-91480000D01*
X82650000Y-86240000D02*
X82313000Y-86240000D01*
X82650000Y-86240000D02*
X82650000Y-91480000D01*
X82650000Y-91480000D02*
X82313000Y-91480000D01*
X89425000Y-49420000D02*
X90805000Y-49420000D01*
X89425000Y-50800000D02*
X89425000Y-49420000D01*
X89425000Y-52070000D02*
X89425000Y-80120000D01*
X89425000Y-52070000D02*
X92075000Y-52070000D01*
X89425000Y-80120000D02*
X94725000Y-80120000D01*
X92075000Y-49420000D02*
X94725000Y-49420000D01*
X92075000Y-52070000D02*
X92075000Y-49420000D01*
X94725000Y-49420000D02*
X94725000Y-80120000D01*
D15*
G36*
X58538680Y-120798957D02*
G01*
X58635660Y-120814779D01*
X58711304Y-120841147D01*
X58784402Y-120904644D01*
X58808768Y-121000205D01*
X58784583Y-121093502D01*
X58712029Y-121157452D01*
X58636787Y-121184827D01*
X58540048Y-121201252D01*
X58421812Y-121206727D01*
X58303011Y-121201373D01*
X58205548Y-121185310D01*
X58129420Y-121158539D01*
X58055779Y-121094861D01*
X58031232Y-121000205D01*
X58055598Y-120905550D01*
X58128696Y-120841872D01*
X58204420Y-120815101D01*
X58301643Y-120799038D01*
X58420362Y-120793684D01*
X58538680Y-120798957D01*
G37*
G36*
X59543792Y-120216147D02*
G01*
X59543792Y-121000205D01*
X59543792Y-121380640D01*
X59543792Y-124399964D01*
X57296208Y-124399964D01*
X57296208Y-121380640D01*
X57296208Y-121000205D01*
X57900072Y-121000205D01*
X57916649Y-121114970D01*
X57966377Y-121209988D01*
X58045362Y-121284535D01*
X58149710Y-121337886D01*
X58231957Y-121361638D01*
X58322657Y-121375890D01*
X58421812Y-121380640D01*
X58522093Y-121375890D01*
X58613277Y-121361638D01*
X58695362Y-121337886D01*
X58798623Y-121284535D01*
X58875797Y-121209988D01*
X58923895Y-121114970D01*
X58939928Y-121000205D01*
X58923533Y-120884988D01*
X58874348Y-120790060D01*
X58795906Y-120715785D01*
X58691739Y-120662524D01*
X58609573Y-120638772D01*
X58519114Y-120624521D01*
X58420362Y-120619771D01*
X58320000Y-120624521D01*
X58228575Y-120638772D01*
X58146087Y-120662524D01*
X58042192Y-120715785D01*
X57964565Y-120790060D01*
X57916196Y-120884988D01*
X57900072Y-121000205D01*
X57296208Y-121000205D01*
X57296208Y-119824843D01*
X58155145Y-119824843D01*
X58155145Y-119987162D01*
X58708768Y-119987162D01*
X58784855Y-120063973D01*
X58816014Y-120164698D01*
X58787029Y-120246944D01*
X58689928Y-120274118D01*
X58155145Y-120274118D01*
X58155145Y-120436437D01*
X58710217Y-120436437D01*
X58805960Y-120422760D01*
X58878696Y-120381727D01*
X58924620Y-120312977D01*
X58939928Y-120216147D01*
X58932409Y-120148756D01*
X58909855Y-120082814D01*
X58872989Y-120023213D01*
X58822536Y-119974843D01*
X58920362Y-119964698D01*
X58920362Y-119824843D01*
X58155145Y-119824843D01*
X57296208Y-119824843D01*
X57296208Y-119260350D01*
X57964565Y-119260350D01*
X57984130Y-119422669D01*
X58155145Y-119422669D01*
X58155145Y-119592959D01*
X58273261Y-119592959D01*
X58273261Y-119422669D01*
X58688478Y-119422669D01*
X58790562Y-119405368D01*
X58870725Y-119353466D01*
X58922627Y-119268231D01*
X58939928Y-119150930D01*
X58935761Y-119088430D01*
X58923261Y-119028466D01*
X58879783Y-118927742D01*
X58772536Y-118986437D01*
X58798623Y-119050930D01*
X58808768Y-119128466D01*
X58778696Y-119229553D01*
X58687029Y-119260350D01*
X58273261Y-119260350D01*
X58273261Y-119020495D01*
X58155145Y-119002379D01*
X58155145Y-119260350D01*
X57964565Y-119260350D01*
X57296208Y-119260350D01*
X57296208Y-118927742D01*
X57296208Y-116753829D01*
X57301619Y-116643678D01*
X57317801Y-116534588D01*
X57344598Y-116427609D01*
X57381751Y-116323772D01*
X57428904Y-116224076D01*
X57485601Y-116129483D01*
X57551297Y-116040902D01*
X57625359Y-115959187D01*
X57707074Y-115885125D01*
X57795654Y-115819429D01*
X57890248Y-115762732D01*
X57989943Y-115715580D01*
X58093780Y-115678426D01*
X58200759Y-115651630D01*
X58309849Y-115635448D01*
X58420000Y-115630036D01*
X58530151Y-115635448D01*
X58639241Y-115651630D01*
X58746220Y-115678426D01*
X58850057Y-115715580D01*
X58949752Y-115762732D01*
X59044346Y-115819429D01*
X59132926Y-115885125D01*
X59214641Y-115959187D01*
X59288703Y-116040902D01*
X59354399Y-116129483D01*
X59411096Y-116224076D01*
X59458249Y-116323772D01*
X59495402Y-116427609D01*
X59522199Y-116534588D01*
X59538381Y-116643678D01*
X59543792Y-116753829D01*
X59543792Y-118927742D01*
X59543792Y-119150930D01*
X59543792Y-120216147D01*
G37*
D14*
X55770000Y-95360000D02*
X55770000Y-93980000D01*
X57150000Y-95360000D02*
X55770000Y-95360000D01*
X58420000Y-92600000D02*
X63610000Y-92600000D01*
X58420000Y-95360000D02*
X58420000Y-92600000D01*
X58420000Y-95360000D02*
X63610000Y-95360000D01*
X63610000Y-95360000D02*
X63610000Y-92600000D01*
X80315000Y-121150000D02*
X84375000Y-121150000D01*
X84375000Y-118880000D02*
X80315000Y-118880000D01*
X84375000Y-121150000D02*
X84375000Y-118880000D01*
X72985000Y-73897000D02*
X72985000Y-73560000D01*
X72985000Y-76300000D02*
X72985000Y-75963000D01*
X78225000Y-73560000D02*
X72985000Y-73560000D01*
X78225000Y-73897000D02*
X78225000Y-73560000D01*
X78225000Y-76300000D02*
X72985000Y-76300000D01*
X78225000Y-76300000D02*
X78225000Y-75963000D01*
X64730000Y-73560000D02*
X64730000Y-73897000D01*
X64730000Y-73560000D02*
X69970000Y-73560000D01*
X64730000Y-75963000D02*
X64730000Y-76300000D01*
X64730000Y-76300000D02*
X69970000Y-76300000D01*
X69970000Y-73560000D02*
X69970000Y-73897000D01*
X69970000Y-75963000D02*
X69970000Y-76300000D01*
X86284625Y-121162310D02*
X86284625Y-122584814D01*
X88104625Y-121162310D02*
X88104625Y-122584814D01*
X102760000Y-49470000D02*
X102760000Y-69910000D01*
X102760000Y-69910000D02*
X104410000Y-69910000D01*
X106410000Y-69910000D02*
X108060000Y-69910000D01*
X108060000Y-49470000D02*
X102760000Y-49470000D01*
X108060000Y-69910000D02*
X108060000Y-49470000D01*
X110550000Y-69970000D02*
X100270000Y-69970000D01*
X100270000Y-49410000D01*
X110550000Y-49410000D01*
X110550000Y-69970000D01*
X104410000Y-69910000D02*
G75*
G02*
X106410000Y-69910000I1000000J0D01*
G01*
X128170000Y-96400000D02*
X128507000Y-96400000D01*
X128170000Y-101640000D02*
X128170000Y-96400000D01*
X128170000Y-101640000D02*
X128507000Y-101640000D01*
X130573000Y-96400000D02*
X130910000Y-96400000D01*
X130573000Y-101640000D02*
X130910000Y-101640000D01*
X130910000Y-101640000D02*
X130910000Y-96400000D01*
X56698685Y-105334994D02*
X59698685Y-105334994D01*
X56698685Y-108334994D02*
X59698685Y-108334994D01*
X60288685Y-108564994D02*
X59808685Y-108564994D01*
X60048685Y-108234994D01*
X60288685Y-108564994D01*
G36*
X60288685Y-108564994D02*
G01*
X59808685Y-108564994D01*
X60048685Y-108234994D01*
X60288685Y-108564994D01*
G37*
X44975000Y-113140000D02*
X44975000Y-84980000D01*
X47625000Y-110490000D02*
X47625000Y-113140000D01*
X47625000Y-113140000D02*
X44975000Y-113140000D01*
X50275000Y-84980000D02*
X44975000Y-84980000D01*
X50275000Y-110490000D02*
X47625000Y-110490000D01*
X50275000Y-110490000D02*
X50275000Y-84980000D01*
X50275000Y-111760000D02*
X50275000Y-113140000D01*
X50275000Y-113140000D02*
X48895000Y-113140000D01*
X55770000Y-85200000D02*
X55770000Y-83820000D01*
X57150000Y-85200000D02*
X55770000Y-85200000D01*
X58420000Y-82440000D02*
X63610000Y-82440000D01*
X58420000Y-85200000D02*
X58420000Y-82440000D01*
X58420000Y-85200000D02*
X63610000Y-85200000D01*
X63610000Y-85200000D02*
X63610000Y-82440000D01*
X100230000Y-119260000D02*
X100567000Y-119260000D01*
X100230000Y-124500000D02*
X100230000Y-119260000D01*
X100230000Y-124500000D02*
X100567000Y-124500000D01*
X102633000Y-119260000D02*
X102970000Y-119260000D01*
X102633000Y-124500000D02*
X102970000Y-124500000D01*
X102970000Y-124500000D02*
X102970000Y-119260000D01*
X54500000Y-115460000D02*
X54500000Y-118220000D01*
X59690000Y-115460000D02*
X54500000Y-115460000D01*
X59690000Y-115460000D02*
X59690000Y-118220000D01*
X59690000Y-118220000D02*
X54500000Y-118220000D01*
X60960000Y-115460000D02*
X62340000Y-115460000D01*
X62340000Y-115460000D02*
X62340000Y-116840000D01*
%LPC*%
G36*
X59645000Y-112510000D02*
G01*
X57195000Y-112510000D01*
X57195000Y-111010000D01*
X59645000Y-111010000D01*
X59645000Y-112510000D01*
G37*
D16*
X81280000Y-104140000D03*
X81280000Y-106680000D03*
X81280000Y-109220000D03*
X81280000Y-111760000D03*
X66040000Y-111760000D03*
X66040000Y-109220000D03*
X66040000Y-106680000D03*
X66040000Y-104140000D03*
X66040000Y-101600000D03*
X66040000Y-99060000D03*
X66040000Y-96520000D03*
X66040000Y-93980000D03*
X81280000Y-93980000D03*
X81280000Y-96520000D03*
X81280000Y-99060000D03*
X81280000Y-101600000D03*
D17*
X53340000Y-101600000D03*
D18*
X63500000Y-101600000D03*
D19*
X59145000Y-111760000D03*
D20*
X57695000Y-111760000D03*
D21*
X58420000Y-123190000D03*
D17*
X53340000Y-99060000D03*
D18*
X63500000Y-99060000D03*
D17*
X129540000Y-116920000D03*
X129540000Y-121920000D03*
D22*
X109220000Y-91440000D03*
D17*
X109220000Y-88900000D03*
X109220000Y-86360000D03*
X109220000Y-83820000D03*
X109220000Y-81280000D03*
X109220000Y-78740000D03*
X109220000Y-76200000D03*
X109220000Y-73660000D03*
X101600000Y-73660000D03*
X101600000Y-76200000D03*
X101600000Y-78740000D03*
X101600000Y-81280000D03*
X101600000Y-83820000D03*
X101600000Y-86360000D03*
X101600000Y-88900000D03*
X101600000Y-91440000D03*
D22*
X60325000Y-71120000D03*
D17*
X60325000Y-68580000D03*
X60325000Y-66040000D03*
X60325000Y-63500000D03*
X60325000Y-60960000D03*
X60325000Y-58420000D03*
X60325000Y-55880000D03*
X60325000Y-53340000D03*
X52705000Y-53340000D03*
X52705000Y-55880000D03*
X52705000Y-58420000D03*
X52705000Y-60960000D03*
X52705000Y-63500000D03*
X52705000Y-66040000D03*
X52705000Y-68580000D03*
X52705000Y-71120000D03*
D23*
X43955000Y-125730000D03*
X44657944Y-124032944D03*
X44657944Y-127427056D03*
X46355000Y-123330000D03*
D24*
X46355000Y-125730000D03*
D23*
X46355000Y-128130000D03*
X48052056Y-124032944D03*
X48052056Y-127427056D03*
X48755000Y-125730000D03*
X129680000Y-129540000D03*
X130382944Y-127842944D03*
X130382944Y-131237056D03*
X132080000Y-127140000D03*
D24*
X132080000Y-129540000D03*
D23*
X132080000Y-131940000D03*
X133777056Y-127842944D03*
X133777056Y-131237056D03*
X134480000Y-129540000D03*
D17*
X59015000Y-74930000D03*
X54015000Y-74930000D03*
D23*
X129680000Y-49530000D03*
X130382944Y-47832944D03*
X130382944Y-51227056D03*
X132080000Y-47130000D03*
D24*
X132080000Y-49530000D03*
D23*
X132080000Y-51930000D03*
X133777056Y-47832944D03*
X133777056Y-51227056D03*
X134480000Y-49530000D03*
D22*
X83185000Y-71120000D03*
D17*
X83185000Y-68580000D03*
X83185000Y-66040000D03*
X83185000Y-63500000D03*
X83185000Y-60960000D03*
X83185000Y-58420000D03*
X83185000Y-55880000D03*
X83185000Y-53340000D03*
X75565000Y-53340000D03*
X75565000Y-55880000D03*
X75565000Y-58420000D03*
X75565000Y-60960000D03*
X75565000Y-63500000D03*
X75565000Y-66040000D03*
X75565000Y-68580000D03*
X75565000Y-71120000D03*
X97790000Y-62865000D03*
X97790000Y-67865000D03*
D25*
X88246648Y-130175000D03*
X91371648Y-130175000D03*
D26*
X116840000Y-73660000D03*
D17*
X116840000Y-76200000D03*
X116840000Y-78740000D03*
X116840000Y-81280000D03*
X116840000Y-83820000D03*
X116840000Y-86360000D03*
X116840000Y-88900000D03*
X116840000Y-91440000D03*
X124460000Y-91440000D03*
X124460000Y-88900000D03*
X124460000Y-86360000D03*
X124460000Y-83820000D03*
X124460000Y-81280000D03*
X124460000Y-78740000D03*
X124460000Y-76200000D03*
X124460000Y-73660000D03*
D27*
X85394625Y-127588562D03*
X88369625Y-127588562D03*
D26*
X116840000Y-96520000D03*
D17*
X116840000Y-99060000D03*
X116840000Y-101600000D03*
X116840000Y-104140000D03*
X116840000Y-106680000D03*
X116840000Y-109220000D03*
X116840000Y-111760000D03*
X116840000Y-114300000D03*
X124460000Y-114300000D03*
X124460000Y-111760000D03*
X124460000Y-109220000D03*
X124460000Y-106680000D03*
X124460000Y-104140000D03*
X124460000Y-101600000D03*
X124460000Y-99060000D03*
X124460000Y-96520000D03*
D28*
X48895000Y-80010000D03*
D29*
X46355000Y-80010000D03*
X48895000Y-77470000D03*
X46355000Y-77470000D03*
X48895000Y-74930000D03*
X46355000Y-74930000D03*
X48895000Y-72390000D03*
X46355000Y-72390000D03*
X48895000Y-69850000D03*
X46355000Y-69850000D03*
X48895000Y-67310000D03*
X46355000Y-67310000D03*
X48895000Y-64770000D03*
X46355000Y-64770000D03*
D22*
X71755000Y-71120000D03*
D17*
X71755000Y-68580000D03*
X71755000Y-66040000D03*
X71755000Y-63500000D03*
X71755000Y-60960000D03*
X71755000Y-58420000D03*
X71755000Y-55880000D03*
X71755000Y-53340000D03*
X64135000Y-53340000D03*
X64135000Y-55880000D03*
X64135000Y-58420000D03*
X64135000Y-60960000D03*
X64135000Y-63500000D03*
X64135000Y-66040000D03*
X64135000Y-68580000D03*
X64135000Y-71120000D03*
D30*
X77470000Y-111760000D03*
D31*
X77470000Y-109220000D03*
X77470000Y-106680000D03*
X77470000Y-104140000D03*
X77470000Y-101600000D03*
X77470000Y-99060000D03*
X77470000Y-96520000D03*
X77470000Y-93980000D03*
X77470000Y-91440000D03*
X77470000Y-88900000D03*
X77470000Y-86360000D03*
X77470000Y-83820000D03*
X77470000Y-81280000D03*
X77470000Y-78740000D03*
X69850000Y-78740000D03*
X69850000Y-81280000D03*
X69850000Y-83820000D03*
X69850000Y-86360000D03*
X69850000Y-88900000D03*
X69850000Y-91440000D03*
X69850000Y-93980000D03*
X69850000Y-96520000D03*
X69850000Y-99060000D03*
X69850000Y-101600000D03*
X69850000Y-104140000D03*
X69850000Y-106680000D03*
X69850000Y-109220000D03*
X69850000Y-111760000D03*
D32*
X124460000Y-119380000D03*
D17*
X121920000Y-119380000D03*
X119380000Y-119380000D03*
X116840000Y-119380000D03*
X114300000Y-119380000D03*
X111760000Y-119380000D03*
X109220000Y-119380000D03*
X106680000Y-119380000D03*
X106680000Y-127000000D03*
X109220000Y-127000000D03*
X111760000Y-127000000D03*
X114300000Y-127000000D03*
X116840000Y-127000000D03*
X119380000Y-127000000D03*
X121920000Y-127000000D03*
X124460000Y-127000000D03*
X97790000Y-97115000D03*
X97790000Y-92115000D03*
D21*
X57150000Y-88900000D03*
D29*
X59690000Y-88900000D03*
X62230000Y-88900000D03*
D33*
X91664625Y-122748562D03*
X91664625Y-125048562D03*
D34*
X97964625Y-125048562D03*
D33*
X91664625Y-127348562D03*
D17*
X129540000Y-68580000D03*
X129540000Y-73580000D03*
D35*
X73660000Y-127000000D03*
D36*
X71120000Y-127000000D03*
D37*
X73380000Y-120015000D03*
X76480000Y-120015000D03*
D22*
X109220000Y-114300000D03*
D17*
X109220000Y-111760000D03*
X109220000Y-109220000D03*
X109220000Y-106680000D03*
X109220000Y-104140000D03*
X109220000Y-101600000D03*
X109220000Y-99060000D03*
X109220000Y-96520000D03*
X101600000Y-96520000D03*
X101600000Y-99060000D03*
X101600000Y-101600000D03*
X101600000Y-104140000D03*
X101600000Y-106680000D03*
X101600000Y-109220000D03*
X101600000Y-111760000D03*
X101600000Y-114300000D03*
D26*
X116840000Y-50800000D03*
D17*
X116840000Y-53340000D03*
X116840000Y-55880000D03*
X116840000Y-58420000D03*
X116840000Y-60960000D03*
X116840000Y-63500000D03*
X116840000Y-66040000D03*
X116840000Y-68580000D03*
X124460000Y-68580000D03*
X124460000Y-66040000D03*
X124460000Y-63500000D03*
X124460000Y-60960000D03*
X124460000Y-58420000D03*
X124460000Y-55880000D03*
X124460000Y-53340000D03*
X124460000Y-50800000D03*
X129540000Y-60880000D03*
X129540000Y-55880000D03*
X81280000Y-86360000D03*
X81280000Y-91360000D03*
D38*
X90805000Y-50800000D03*
D29*
X93345000Y-50800000D03*
X90805000Y-53340000D03*
X93345000Y-53340000D03*
X90805000Y-55880000D03*
X93345000Y-55880000D03*
X90805000Y-58420000D03*
X93345000Y-58420000D03*
X90805000Y-60960000D03*
X93345000Y-60960000D03*
X90805000Y-63500000D03*
X93345000Y-63500000D03*
X90805000Y-66040000D03*
X93345000Y-66040000D03*
X90805000Y-68580000D03*
X93345000Y-68580000D03*
X90805000Y-71120000D03*
X93345000Y-71120000D03*
X90805000Y-73660000D03*
X93345000Y-73660000D03*
X90805000Y-76200000D03*
X93345000Y-76200000D03*
X90805000Y-78740000D03*
X93345000Y-78740000D03*
D23*
X43955000Y-52070000D03*
X44657944Y-50372944D03*
X44657944Y-53767056D03*
X46355000Y-49670000D03*
D24*
X46355000Y-52070000D03*
D23*
X46355000Y-54470000D03*
X48052056Y-50372944D03*
X48052056Y-53767056D03*
X48755000Y-52070000D03*
D21*
X57150000Y-93980000D03*
D29*
X59690000Y-93980000D03*
X62230000Y-93980000D03*
D39*
X83402500Y-120015000D03*
X80427500Y-120015000D03*
D17*
X78105000Y-74930000D03*
X73105000Y-74930000D03*
X64850000Y-74930000D03*
X69850000Y-74930000D03*
D40*
X87194625Y-120311062D03*
X87194625Y-123436062D03*
D22*
X109220000Y-68580000D03*
D17*
X109220000Y-66040000D03*
X109220000Y-63500000D03*
X109220000Y-60960000D03*
X109220000Y-58420000D03*
X109220000Y-55880000D03*
X109220000Y-53340000D03*
X109220000Y-50800000D03*
X101600000Y-50800000D03*
X101600000Y-53340000D03*
X101600000Y-55880000D03*
X101600000Y-58420000D03*
X101600000Y-60960000D03*
X101600000Y-63500000D03*
X101600000Y-66040000D03*
X101600000Y-68580000D03*
X129540000Y-101520000D03*
X129540000Y-96520000D03*
D41*
X59898685Y-107809994D03*
X59898685Y-107159994D03*
X59898685Y-106509994D03*
X59898685Y-105859994D03*
X56498685Y-105859994D03*
X56498685Y-106509994D03*
X56498685Y-107159994D03*
X56498685Y-107809994D03*
D28*
X48895000Y-111760000D03*
D29*
X46355000Y-111760000D03*
X48895000Y-109220000D03*
X46355000Y-109220000D03*
X48895000Y-106680000D03*
X46355000Y-106680000D03*
X48895000Y-104140000D03*
X46355000Y-104140000D03*
X48895000Y-101600000D03*
X46355000Y-101600000D03*
X48895000Y-99060000D03*
X46355000Y-99060000D03*
X48895000Y-96520000D03*
X46355000Y-96520000D03*
X48895000Y-93980000D03*
X46355000Y-93980000D03*
X48895000Y-91440000D03*
X46355000Y-91440000D03*
X48895000Y-88900000D03*
X46355000Y-88900000D03*
X48895000Y-86360000D03*
X46355000Y-86360000D03*
D21*
X57150000Y-83820000D03*
D29*
X59690000Y-83820000D03*
X62230000Y-83820000D03*
D17*
X101600000Y-124380000D03*
X101600000Y-119380000D03*
D42*
X60960000Y-116840000D03*
D29*
X58420000Y-116840000D03*
X55880000Y-116840000D03*
%LPD*%
M02*
