G04 #@! TF.GenerationSoftware,KiCad,Pcbnew,9.0.1*
G04 #@! TF.CreationDate,2025-04-29T21:50:36+02:00*
G04 #@! TF.ProjectId,DistributedPulseModulation,44697374-7269-4627-9574-656450756c73,rev?*
G04 #@! TF.SameCoordinates,Original*
G04 #@! TF.FileFunction,Profile,NP*
%FSLAX46Y46*%
G04 Gerber Fmt 4.6, Leading zero omitted, Abs format (unit mm)*
G04 Created by KiCad (PCBNEW 9.0.1) date 2025-04-29 21:50:36*
%MOMM*%
%LPD*%
G01*
G04 APERTURE LIST*
G04 #@! TA.AperFunction,Profile*
%ADD10C,0.100000*%
G04 #@! TD*
G04 APERTURE END LIST*
D10*
X43179999Y-97599500D02*
X43179999Y-79184500D01*
X79070199Y-133667500D02*
G75*
G02*
X80022699Y-132714999I952501J0D01*
G01*
X99364799Y-45402500D02*
G75*
G02*
X100317299Y-44449999I952501J0D01*
G01*
X42227499Y-134620000D02*
G75*
G02*
X41275000Y-133667500I1J952500D01*
G01*
X43179999Y-97599500D02*
G75*
G02*
X42227499Y-98551999I-952499J0D01*
G01*
X41274999Y-45402500D02*
G75*
G02*
X42227499Y-44449999I952501J0D01*
G01*
X41274999Y-99504500D02*
G75*
G02*
X42227499Y-98551999I952501J0D01*
G01*
X42227499Y-78232000D02*
G75*
G02*
X43180000Y-79184500I1J-952500D01*
G01*
X99364799Y-45402500D02*
G75*
G02*
X98412299Y-46354999I-952499J0D01*
G01*
X80022699Y-46355000D02*
X98412299Y-46355000D01*
X136207499Y-98552000D02*
G75*
G02*
X135255000Y-97599500I1J952500D01*
G01*
X137159999Y-77279500D02*
X137159999Y-45402500D01*
X98412299Y-132715000D02*
G75*
G02*
X99364800Y-133667500I1J-952500D01*
G01*
X137159999Y-133667500D02*
X137159999Y-99504500D01*
X79070199Y-133667500D02*
G75*
G02*
X78117699Y-134619999I-952499J0D01*
G01*
X42227499Y-134620000D02*
X78117699Y-134620000D01*
X41274999Y-133667500D02*
X41274999Y-99504500D01*
X42227499Y-44450000D02*
X78117699Y-44450000D01*
X136207499Y-98552000D02*
G75*
G02*
X137160000Y-99504500I1J-952500D01*
G01*
X137159999Y-77279500D02*
G75*
G02*
X136207499Y-78231999I-952499J0D01*
G01*
X100317299Y-134620000D02*
G75*
G02*
X99364800Y-133667500I1J952500D01*
G01*
X135254999Y-97599500D02*
X135254999Y-79184500D01*
X78117699Y-44450000D02*
G75*
G02*
X79070200Y-45402500I1J-952500D01*
G01*
X80022699Y-46355000D02*
G75*
G02*
X79070200Y-45402500I1J952500D01*
G01*
X100317299Y-44450000D02*
X136207499Y-44450000D01*
X135254999Y-79184500D02*
G75*
G02*
X136207499Y-78231999I952501J0D01*
G01*
X137159999Y-133667500D02*
G75*
G02*
X136207499Y-134619999I-952499J0D01*
G01*
X100317299Y-134620000D02*
X136207499Y-134620000D01*
X80022699Y-132715000D02*
X98412299Y-132715000D01*
X41274999Y-77279500D02*
X41274999Y-45402500D01*
X136207499Y-44450000D02*
G75*
G02*
X137160000Y-45402500I1J-952500D01*
G01*
X42227499Y-78232000D02*
G75*
G02*
X41275000Y-77279500I1J952500D01*
G01*
M02*
