G04 #@! TF.GenerationSoftware,KiCad,Pcbnew,9.0.1*
G04 #@! TF.CreationDate,2025-04-27T22:30:51+02:00*
G04 #@! TF.ProjectId,DistributedPulseModulation,44697374-7269-4627-9574-656450756c73,rev?*
G04 #@! TF.SameCoordinates,Original*
G04 #@! TF.FileFunction,Legend,Top*
G04 #@! TF.FilePolarity,Positive*
%FSLAX46Y46*%
G04 Gerber Fmt 4.6, Leading zero omitted, Abs format (unit mm)*
G04 Created by KiCad (PCBNEW 9.0.1) date 2025-04-27 22:30:51*
%MOMM*%
%LPD*%
G01*
G04 APERTURE LIST*
G04 Aperture macros list*
%AMRoundRect*
0 Rectangle with rounded corners*
0 $1 Rounding radius*
0 $2 $3 $4 $5 $6 $7 $8 $9 X,Y pos of 4 corners*
0 Add a 4 corners polygon primitive as box body*
4,1,4,$2,$3,$4,$5,$6,$7,$8,$9,$2,$3,0*
0 Add four circle primitives for the rounded corners*
1,1,$1+$1,$2,$3*
1,1,$1+$1,$4,$5*
1,1,$1+$1,$6,$7*
1,1,$1+$1,$8,$9*
0 Add four rect primitives between the rounded corners*
20,1,$1+$1,$2,$3,$4,$5,0*
20,1,$1+$1,$4,$5,$6,$7,0*
20,1,$1+$1,$6,$7,$8,$9,0*
20,1,$1+$1,$8,$9,$2,$3,0*%
G04 Aperture macros list end*
%ADD10C,0.150000*%
%ADD11C,1.000000*%
%ADD12C,0.500000*%
%ADD13C,0.125000*%
%ADD14C,0.120000*%
%ADD15C,0.000000*%
%ADD16C,1.800000*%
%ADD17O,1.800000X1.800000*%
%ADD18RoundRect,0.100000X0.850000X-0.850000X0.850000X0.850000X-0.850000X0.850000X-0.850000X-0.850000X0*%
%ADD19RoundRect,0.281250X0.618750X0.618750X-0.618750X0.618750X-0.618750X-0.618750X0.618750X-0.618750X0*%
%ADD20C,1.000000*%
%ADD21C,6.600000*%
%ADD22RoundRect,0.287735X-0.474765X-0.712265X0.474765X-0.712265X0.474765X0.712265X-0.474765X0.712265X0*%
%ADD23RoundRect,0.281250X-0.618750X-0.618750X0.618750X-0.618750X0.618750X0.618750X-0.618750X0.618750X0*%
%ADD24RoundRect,0.285088X-0.527412X-0.689912X0.527412X-0.689912X0.527412X0.689912X-0.527412X0.689912X0*%
%ADD25RoundRect,0.100000X0.850000X0.850000X-0.850000X0.850000X-0.850000X-0.850000X0.850000X-0.850000X0*%
%ADD26C,1.900000*%
%ADD27RoundRect,0.281250X1.018750X0.618750X-1.018750X0.618750X-1.018750X-0.618750X1.018750X-0.618750X0*%
%ADD28O,2.600000X1.800000*%
%ADD29RoundRect,0.281250X-0.618750X0.618750X-0.618750X-0.618750X0.618750X-0.618750X0.618750X0.618750X0*%
%ADD30RoundRect,0.425000X-0.675000X-0.425000X0.675000X-0.425000X0.675000X0.425000X-0.675000X0.425000X0*%
%ADD31RoundRect,0.550000X-0.550000X-1.450000X0.550000X-1.450000X0.550000X1.450000X-0.550000X1.450000X0*%
%ADD32RoundRect,0.273810X0.876190X-0.876190X0.876190X0.876190X-0.876190X0.876190X-0.876190X-0.876190X0*%
%ADD33C,2.300000*%
%ADD34RoundRect,0.288462X-0.461538X-0.686538X0.461538X-0.686538X0.461538X0.686538X-0.461538X0.686538X0*%
%ADD35RoundRect,0.100000X-0.850000X-0.850000X0.850000X-0.850000X0.850000X0.850000X-0.850000X0.850000X0*%
%ADD36RoundRect,0.285088X0.527412X0.689912X-0.527412X0.689912X-0.527412X-0.689912X0.527412X-0.689912X0*%
%ADD37RoundRect,0.287735X-0.712265X0.474765X-0.712265X-0.474765X0.712265X-0.474765X0.712265X0.474765X0*%
G04 APERTURE END LIST*
D10*
X83185000Y-81915000D02*
X88265000Y-81915000D01*
X88265000Y-107315000D01*
X83185000Y-107315000D01*
X83185000Y-81915000D01*
X90170000Y-107950000D02*
X91440000Y-107950000D01*
X91440000Y-111760000D01*
X90170000Y-111760000D01*
X90170000Y-107950000D01*
G36*
X90170000Y-107950000D02*
G01*
X91440000Y-107950000D01*
X91440000Y-111760000D01*
X90170000Y-111760000D01*
X90170000Y-107950000D01*
G37*
X83820000Y-100330000D02*
X87630000Y-100330000D01*
X87630000Y-101600000D01*
X83820000Y-101600000D01*
X83820000Y-100330000D01*
G36*
X83820000Y-100330000D02*
G01*
X87630000Y-100330000D01*
X87630000Y-101600000D01*
X83820000Y-101600000D01*
X83820000Y-100330000D01*
G37*
X89535000Y-81915000D02*
X94615000Y-81915000D01*
X94615000Y-102235000D01*
X89535000Y-102235000D01*
X89535000Y-81915000D01*
X83820000Y-107950000D02*
X87630000Y-107950000D01*
X87630000Y-109220000D01*
X83820000Y-109220000D01*
X83820000Y-107950000D01*
G36*
X83820000Y-107950000D02*
G01*
X87630000Y-107950000D01*
X87630000Y-109220000D01*
X83820000Y-109220000D01*
X83820000Y-107950000D01*
G37*
X83820000Y-105410000D02*
X87630000Y-105410000D01*
X87630000Y-106680000D01*
X83820000Y-106680000D01*
X83820000Y-105410000D01*
G36*
X83820000Y-105410000D02*
G01*
X87630000Y-105410000D01*
X87630000Y-106680000D01*
X83820000Y-106680000D01*
X83820000Y-105410000D01*
G37*
D11*
X133350000Y-113665000D02*
X133350000Y-111760000D01*
D10*
X92710000Y-87630000D02*
X93980000Y-87630000D01*
X93980000Y-91440000D01*
X92710000Y-91440000D01*
X92710000Y-87630000D01*
G36*
X92710000Y-87630000D02*
G01*
X93980000Y-87630000D01*
X93980000Y-91440000D01*
X92710000Y-91440000D01*
X92710000Y-87630000D01*
G37*
X83185000Y-81915000D02*
X88265000Y-81915000D01*
X88265000Y-94615000D01*
X83185000Y-94615000D01*
X83185000Y-81915000D01*
D12*
X58420000Y-59690000D02*
X54610000Y-55880000D01*
D10*
X83820000Y-97790000D02*
X87630000Y-97790000D01*
X87630000Y-99060000D01*
X83820000Y-99060000D01*
X83820000Y-97790000D01*
G36*
X83820000Y-97790000D02*
G01*
X87630000Y-97790000D01*
X87630000Y-99060000D01*
X83820000Y-99060000D01*
X83820000Y-97790000D01*
G37*
X57150000Y-80645000D02*
X57150000Y-81915000D01*
X89535000Y-81915000D02*
X94615000Y-81915000D01*
X94615000Y-94615000D01*
X89535000Y-94615000D01*
X89535000Y-81915000D01*
X60325000Y-80645000D02*
X60325000Y-81915000D01*
X83185000Y-81915000D02*
X88265000Y-81915000D01*
X88265000Y-109855000D01*
X83185000Y-109855000D01*
X83185000Y-81915000D01*
X83820000Y-82550000D02*
X87630000Y-82550000D01*
X87630000Y-83820000D01*
X83820000Y-83820000D01*
X83820000Y-82550000D01*
G36*
X83820000Y-82550000D02*
G01*
X87630000Y-82550000D01*
X87630000Y-83820000D01*
X83820000Y-83820000D01*
X83820000Y-82550000D01*
G37*
X83820000Y-90170000D02*
X87630000Y-90170000D01*
X87630000Y-91440000D01*
X83820000Y-91440000D01*
X83820000Y-90170000D01*
G36*
X83820000Y-90170000D02*
G01*
X87630000Y-90170000D01*
X87630000Y-91440000D01*
X83820000Y-91440000D01*
X83820000Y-90170000D01*
G37*
X89535000Y-81915000D02*
X94615000Y-81915000D01*
X94615000Y-99695000D01*
X89535000Y-99695000D01*
X89535000Y-81915000D01*
X89535000Y-81915000D02*
X94615000Y-81915000D01*
X94615000Y-86995000D01*
X89535000Y-86995000D01*
X89535000Y-81915000D01*
D12*
X52705000Y-55880000D02*
X54610000Y-55880000D01*
D10*
X90170000Y-92710000D02*
X91440000Y-92710000D01*
X91440000Y-96520000D01*
X90170000Y-96520000D01*
X90170000Y-92710000D01*
G36*
X90170000Y-92710000D02*
G01*
X91440000Y-92710000D01*
X91440000Y-96520000D01*
X90170000Y-96520000D01*
X90170000Y-92710000D01*
G37*
X83185000Y-81915000D02*
X88265000Y-81915000D01*
X88265000Y-102235000D01*
X83185000Y-102235000D01*
X83185000Y-81915000D01*
X85725000Y-81915000D02*
X88265000Y-81915000D01*
X88265000Y-112395000D01*
X85725000Y-112395000D01*
X85725000Y-81915000D01*
X89535000Y-81915000D02*
X94615000Y-81915000D01*
X94615000Y-92075000D01*
X89535000Y-92075000D01*
X89535000Y-81915000D01*
X90170000Y-97790000D02*
X91440000Y-97790000D01*
X91440000Y-101600000D01*
X90170000Y-101600000D01*
X90170000Y-97790000D01*
G36*
X90170000Y-97790000D02*
G01*
X91440000Y-97790000D01*
X91440000Y-101600000D01*
X90170000Y-101600000D01*
X90170000Y-97790000D01*
G37*
X89535000Y-81915000D02*
X94615000Y-81915000D01*
X94615000Y-104775000D01*
X89535000Y-104775000D01*
X89535000Y-81915000D01*
X83820000Y-87630000D02*
X87630000Y-87630000D01*
X87630000Y-88900000D01*
X83820000Y-88900000D01*
X83820000Y-87630000D01*
G36*
X83820000Y-87630000D02*
G01*
X87630000Y-87630000D01*
X87630000Y-88900000D01*
X83820000Y-88900000D01*
X83820000Y-87630000D01*
G37*
X92710000Y-102870000D02*
X93980000Y-102870000D01*
X93980000Y-106680000D01*
X92710000Y-106680000D01*
X92710000Y-102870000D01*
G36*
X92710000Y-102870000D02*
G01*
X93980000Y-102870000D01*
X93980000Y-106680000D01*
X92710000Y-106680000D01*
X92710000Y-102870000D01*
G37*
D11*
X130175000Y-111760000D02*
X133350000Y-111760000D01*
D10*
X83820000Y-95250000D02*
X87630000Y-95250000D01*
X87630000Y-96520000D01*
X83820000Y-96520000D01*
X83820000Y-95250000D01*
G36*
X83820000Y-95250000D02*
G01*
X87630000Y-95250000D01*
X87630000Y-96520000D01*
X83820000Y-96520000D01*
X83820000Y-95250000D01*
G37*
X83185000Y-81915000D02*
X88265000Y-81915000D01*
X88265000Y-89535000D01*
X83185000Y-89535000D01*
X83185000Y-81915000D01*
X92710000Y-97790000D02*
X93980000Y-97790000D01*
X93980000Y-101600000D01*
X92710000Y-101600000D01*
X92710000Y-97790000D01*
G36*
X92710000Y-97790000D02*
G01*
X93980000Y-97790000D01*
X93980000Y-101600000D01*
X92710000Y-101600000D01*
X92710000Y-97790000D01*
G37*
X89535000Y-81915000D02*
X94615000Y-81915000D01*
X94615000Y-107315000D01*
X89535000Y-107315000D01*
X89535000Y-81915000D01*
X89535000Y-81915000D02*
X94615000Y-81915000D01*
X94615000Y-109855000D01*
X89535000Y-109855000D01*
X89535000Y-81915000D01*
X83820000Y-92710000D02*
X87630000Y-92710000D01*
X87630000Y-93980000D01*
X83820000Y-93980000D01*
X83820000Y-92710000D01*
G36*
X83820000Y-92710000D02*
G01*
X87630000Y-92710000D01*
X87630000Y-93980000D01*
X83820000Y-93980000D01*
X83820000Y-92710000D01*
G37*
X83820000Y-85090000D02*
X87630000Y-85090000D01*
X87630000Y-86360000D01*
X83820000Y-86360000D01*
X83820000Y-85090000D01*
G36*
X83820000Y-85090000D02*
G01*
X87630000Y-85090000D01*
X87630000Y-86360000D01*
X83820000Y-86360000D01*
X83820000Y-85090000D01*
G37*
X83185000Y-81915000D02*
X88265000Y-81915000D01*
X88265000Y-86995000D01*
X83185000Y-86995000D01*
X83185000Y-81915000D01*
X89535000Y-81915000D02*
X94615000Y-81915000D01*
X94615000Y-97155000D01*
X89535000Y-97155000D01*
X89535000Y-81915000D01*
X55245000Y-80645000D02*
X57150000Y-80645000D01*
X55245000Y-81915000D02*
X55245000Y-80645000D01*
X83820000Y-110490000D02*
X87630000Y-110490000D01*
X87630000Y-111760000D01*
X83820000Y-111760000D01*
X83820000Y-110490000D01*
G36*
X83820000Y-110490000D02*
G01*
X87630000Y-110490000D01*
X87630000Y-111760000D01*
X83820000Y-111760000D01*
X83820000Y-110490000D01*
G37*
X89535000Y-81915000D02*
X94615000Y-81915000D01*
X94615000Y-89535000D01*
X89535000Y-89535000D01*
X89535000Y-81915000D01*
D11*
X130175000Y-106680000D02*
X133350000Y-106680000D01*
D10*
X83185000Y-81915000D02*
X88265000Y-81915000D01*
X88265000Y-104775000D01*
X83185000Y-104775000D01*
X83185000Y-81915000D01*
X92075000Y-81915000D02*
X94615000Y-81915000D01*
X94615000Y-112395000D01*
X92075000Y-112395000D01*
X92075000Y-81915000D01*
X83185000Y-81915000D02*
X88265000Y-81915000D01*
X88265000Y-112395000D01*
X83185000Y-112395000D01*
X83185000Y-81915000D01*
D12*
X58420000Y-59690000D02*
X70485000Y-59690000D01*
D10*
X83185000Y-81915000D02*
X88265000Y-81915000D01*
X88265000Y-97155000D01*
X83185000Y-97155000D01*
X83185000Y-81915000D01*
D12*
X71755000Y-60960000D02*
X70485000Y-59690000D01*
D11*
X133350000Y-106680000D02*
X133350000Y-104775000D01*
D10*
X83185000Y-81915000D02*
X88265000Y-81915000D01*
X88265000Y-99695000D01*
X83185000Y-99695000D01*
X83185000Y-81915000D01*
X92710000Y-82550000D02*
X93980000Y-82550000D01*
X93980000Y-86360000D01*
X92710000Y-86360000D01*
X92710000Y-82550000D01*
G36*
X92710000Y-82550000D02*
G01*
X93980000Y-82550000D01*
X93980000Y-86360000D01*
X92710000Y-86360000D01*
X92710000Y-82550000D01*
G37*
X92710000Y-92710000D02*
X93980000Y-92710000D01*
X93980000Y-96520000D01*
X92710000Y-96520000D01*
X92710000Y-92710000D01*
G36*
X92710000Y-92710000D02*
G01*
X93980000Y-92710000D01*
X93980000Y-96520000D01*
X92710000Y-96520000D01*
X92710000Y-92710000D01*
G37*
X92710000Y-107950000D02*
X93980000Y-107950000D01*
X93980000Y-111760000D01*
X92710000Y-111760000D01*
X92710000Y-107950000D01*
G36*
X92710000Y-107950000D02*
G01*
X93980000Y-107950000D01*
X93980000Y-111760000D01*
X92710000Y-111760000D01*
X92710000Y-107950000D01*
G37*
X90170000Y-102870000D02*
X91440000Y-102870000D01*
X91440000Y-106680000D01*
X90170000Y-106680000D01*
X90170000Y-102870000D01*
G36*
X90170000Y-102870000D02*
G01*
X91440000Y-102870000D01*
X91440000Y-106680000D01*
X90170000Y-106680000D01*
X90170000Y-102870000D01*
G37*
X83185000Y-81915000D02*
X88265000Y-81915000D01*
X88265000Y-92075000D01*
X83185000Y-92075000D01*
X83185000Y-81915000D01*
X90170000Y-87630000D02*
X91440000Y-87630000D01*
X91440000Y-91440000D01*
X90170000Y-91440000D01*
X90170000Y-87630000D01*
G36*
X90170000Y-87630000D02*
G01*
X91440000Y-87630000D01*
X91440000Y-91440000D01*
X90170000Y-91440000D01*
X90170000Y-87630000D01*
G37*
X83820000Y-102870000D02*
X87630000Y-102870000D01*
X87630000Y-104140000D01*
X83820000Y-104140000D01*
X83820000Y-102870000D01*
G36*
X83820000Y-102870000D02*
G01*
X87630000Y-102870000D01*
X87630000Y-104140000D01*
X83820000Y-104140000D01*
X83820000Y-102870000D01*
G37*
X83185000Y-81915000D02*
X88265000Y-81915000D01*
X88265000Y-84455000D01*
X83185000Y-84455000D01*
X83185000Y-81915000D01*
X58420000Y-81915000D02*
X58420000Y-80645000D01*
X90170000Y-82550000D02*
X91440000Y-82550000D01*
X91440000Y-86360000D01*
X90170000Y-86360000D01*
X90170000Y-82550000D01*
G36*
X90170000Y-82550000D02*
G01*
X91440000Y-82550000D01*
X91440000Y-86360000D01*
X90170000Y-86360000D01*
X90170000Y-82550000D01*
G37*
X58420000Y-80645000D02*
X60325000Y-80645000D01*
X89535000Y-81915000D02*
X94615000Y-81915000D01*
X94615000Y-112395000D01*
X89535000Y-112395000D01*
X89535000Y-81915000D01*
X89535000Y-81915000D02*
X94615000Y-81915000D01*
X94615000Y-84455000D01*
X89535000Y-84455000D01*
X89535000Y-81915000D01*
D13*
G36*
X66643328Y-60707380D02*
G01*
X66613742Y-60701817D01*
X66589998Y-60685422D01*
X66570642Y-60655991D01*
X66558520Y-60634964D01*
X66548806Y-60626780D01*
X66537334Y-60624268D01*
X66505624Y-60622969D01*
X66474751Y-60628028D01*
X66439148Y-60644859D01*
X66396993Y-60677275D01*
X66346573Y-60730534D01*
X66297344Y-60795483D01*
X66261849Y-60855357D01*
X66238143Y-60910892D01*
X66224676Y-60962868D01*
X66220348Y-61012097D01*
X66224858Y-61050427D01*
X66238039Y-61084283D01*
X66260209Y-61114777D01*
X66289017Y-61138829D01*
X66320526Y-61152834D01*
X66355854Y-61157568D01*
X66391326Y-61154571D01*
X66427789Y-61145362D01*
X66465715Y-61129383D01*
X66548806Y-61076333D01*
X66589796Y-61053694D01*
X66613286Y-61048147D01*
X66634133Y-61050819D01*
X66652491Y-61058661D01*
X66669023Y-61071986D01*
X66685090Y-61096063D01*
X66690321Y-61122935D01*
X66687279Y-61142993D01*
X66678101Y-61161381D01*
X66661891Y-61178769D01*
X66598123Y-61226305D01*
X66536171Y-61261501D01*
X66475542Y-61285692D01*
X66415654Y-61299841D01*
X66355854Y-61304505D01*
X66296212Y-61298792D01*
X66242506Y-61282113D01*
X66193460Y-61254453D01*
X66148199Y-61214868D01*
X66112474Y-61169277D01*
X66087470Y-61120745D01*
X66072429Y-61068529D01*
X66067306Y-61011609D01*
X66073043Y-60942021D01*
X66090644Y-60870698D01*
X66121123Y-60796749D01*
X66166038Y-60719351D01*
X66227431Y-60637771D01*
X66287633Y-60574407D01*
X66344824Y-60529087D01*
X66399630Y-60498892D01*
X66452888Y-60481646D01*
X66505624Y-60476033D01*
X66549050Y-60477694D01*
X66583196Y-60482579D01*
X66609596Y-60465993D01*
X66641130Y-60460401D01*
X66666344Y-60464349D01*
X66685450Y-60475489D01*
X66699987Y-60494376D01*
X66710006Y-60523514D01*
X66716800Y-60570707D01*
X66719288Y-60629173D01*
X66715340Y-60654901D01*
X66703461Y-60678266D01*
X66687677Y-60694335D01*
X66668048Y-60703978D01*
X66643328Y-60707380D01*
G37*
G36*
X67301953Y-61273242D02*
G01*
X67228181Y-61297017D01*
X67102456Y-61322090D01*
X66984123Y-61337602D01*
X66899685Y-61342020D01*
X66855074Y-61338065D01*
X66822045Y-61327467D01*
X66797853Y-61311359D01*
X66780653Y-61289735D01*
X66769763Y-61261455D01*
X66765792Y-61224442D01*
X66776734Y-61051078D01*
X66787211Y-60807089D01*
X66790949Y-60522830D01*
X66796365Y-60493938D01*
X66812540Y-60469780D01*
X66836702Y-60453458D01*
X66866908Y-60447896D01*
X66897152Y-60453461D01*
X66921521Y-60469829D01*
X66937922Y-60494017D01*
X66943405Y-60522928D01*
X66939555Y-60809232D01*
X66928653Y-61060897D01*
X66918297Y-61195084D01*
X67004087Y-61188413D01*
X67113290Y-61168894D01*
X67250565Y-61133144D01*
X67274598Y-61129431D01*
X67296393Y-61132310D01*
X67314685Y-61140618D01*
X67330334Y-61154588D01*
X67344763Y-61178555D01*
X67349483Y-61204903D01*
X67344268Y-61233221D01*
X67329040Y-61255510D01*
X67301953Y-61273242D01*
G37*
G36*
X67565003Y-61049027D02*
G01*
X67564466Y-61279201D01*
X67561058Y-61302281D01*
X67550788Y-61323507D01*
X67536195Y-61338936D01*
X67518008Y-61348153D01*
X67495052Y-61351399D01*
X67468070Y-61347430D01*
X67445891Y-61335963D01*
X67427299Y-61316424D01*
X67412855Y-61287863D01*
X67408150Y-61257903D01*
X67415819Y-60893200D01*
X67423489Y-60528496D01*
X67428936Y-60500094D01*
X67445324Y-60476033D01*
X67469729Y-60459701D01*
X67499986Y-60454149D01*
X67530191Y-60459711D01*
X67554354Y-60476033D01*
X67570551Y-60500075D01*
X67575945Y-60528496D01*
X67571011Y-60661364D01*
X67563928Y-60794233D01*
X67625016Y-60731221D01*
X67847543Y-60490834D01*
X67865680Y-60475326D01*
X67884779Y-60466470D01*
X67905478Y-60463528D01*
X67934572Y-60468966D01*
X67959846Y-60485412D01*
X67977322Y-60509653D01*
X67983098Y-60538364D01*
X67975727Y-60560626D01*
X67940960Y-60611955D01*
X67853014Y-60714219D01*
X67754703Y-60817310D01*
X67650244Y-60920018D01*
X67769923Y-61033151D01*
X67838837Y-61094327D01*
X67895659Y-61139739D01*
X67924663Y-61157624D01*
X67955743Y-61170513D01*
X67982606Y-61182801D01*
X68000220Y-61198535D01*
X68010592Y-61217918D01*
X68014214Y-61242174D01*
X68010632Y-61264929D01*
X67999462Y-61287505D01*
X67984091Y-61303997D01*
X67965677Y-61313663D01*
X67943189Y-61317010D01*
X67907344Y-61312241D01*
X67863227Y-61296118D01*
X67808440Y-61265021D01*
X67740418Y-61214330D01*
X67691682Y-61170474D01*
X67565003Y-61049027D01*
G37*
G36*
X67992037Y-61479578D02*
G01*
X67992037Y-61376410D01*
X68777913Y-61376410D01*
X68777913Y-61479578D01*
X67992037Y-61479578D01*
G37*
G36*
X68958946Y-61212865D02*
G01*
X68955036Y-61254891D01*
X68944927Y-61283308D01*
X68930017Y-61301918D01*
X68910121Y-61313033D01*
X68883524Y-61317010D01*
X68853277Y-61311669D01*
X68829399Y-61296152D01*
X68813563Y-61272670D01*
X68808101Y-61242467D01*
X68808101Y-60484240D01*
X68810721Y-60464073D01*
X68818303Y-60446966D01*
X68831060Y-60432167D01*
X68855105Y-60418312D01*
X68885184Y-60413507D01*
X68914977Y-60418536D01*
X68938185Y-60432997D01*
X68953604Y-60455157D01*
X68958946Y-60484240D01*
X68958946Y-61212865D01*
G37*
G36*
X69414667Y-60731759D02*
G01*
X69460250Y-60747983D01*
X69500335Y-60774780D01*
X69535847Y-60813332D01*
X69560614Y-60853741D01*
X69578652Y-60899035D01*
X69589871Y-60950047D01*
X69593782Y-61007799D01*
X69589296Y-61070399D01*
X69576326Y-61126583D01*
X69555261Y-61177366D01*
X69526029Y-61223563D01*
X69493116Y-61259871D01*
X69456864Y-61287426D01*
X69416831Y-61307069D01*
X69372271Y-61319101D01*
X69322184Y-61323263D01*
X69272908Y-61318848D01*
X69228089Y-61305936D01*
X69186802Y-61284551D01*
X69148381Y-61254093D01*
X69113744Y-61213804D01*
X69088322Y-61167490D01*
X69071829Y-61114047D01*
X69064752Y-61051958D01*
X69064768Y-61051616D01*
X69216133Y-61051616D01*
X69220685Y-61093562D01*
X69233271Y-61126209D01*
X69253307Y-61151706D01*
X69274293Y-61167248D01*
X69297004Y-61176368D01*
X69322135Y-61179452D01*
X69352580Y-61175848D01*
X69379801Y-61165258D01*
X69404640Y-61147359D01*
X69426713Y-61120059D01*
X69440992Y-61086701D01*
X69447285Y-61045656D01*
X69445799Y-60981862D01*
X69437073Y-60936986D01*
X69423213Y-60906322D01*
X69405260Y-60886178D01*
X69382981Y-60874239D01*
X69354912Y-60869948D01*
X69323050Y-60873561D01*
X69295369Y-60884585D01*
X69270830Y-60903266D01*
X69248911Y-60930862D01*
X69230953Y-60966591D01*
X69219945Y-61006528D01*
X69216133Y-61051616D01*
X69064768Y-61051616D01*
X69067544Y-60992713D01*
X69079490Y-60937729D01*
X69100474Y-60886144D01*
X69130893Y-60837268D01*
X69166863Y-60797122D01*
X69207214Y-60766465D01*
X69252514Y-60744453D01*
X69303706Y-60730867D01*
X69362044Y-60726138D01*
X69414667Y-60731759D01*
G37*
G36*
X69936943Y-61326389D02*
G01*
X69877524Y-61321845D01*
X69824807Y-61308751D01*
X69777672Y-61287515D01*
X69735247Y-61258001D01*
X69697659Y-61218954D01*
X69671209Y-61174975D01*
X69655072Y-61125060D01*
X69649469Y-61067687D01*
X69653892Y-61015119D01*
X69667534Y-60960607D01*
X69691295Y-60903424D01*
X69726503Y-60842886D01*
X69765912Y-60791532D01*
X69805501Y-60754627D01*
X69845554Y-60729767D01*
X69886686Y-60715313D01*
X69929811Y-60710506D01*
X69967182Y-60713496D01*
X70011033Y-60723240D01*
X70062581Y-60741134D01*
X70108858Y-60764270D01*
X70136350Y-60786211D01*
X70150560Y-60807154D01*
X70154954Y-60828085D01*
X70150358Y-60853274D01*
X70136392Y-60875663D01*
X70113981Y-60892415D01*
X70085540Y-60898085D01*
X70061788Y-60892747D01*
X70028974Y-60873074D01*
X70005561Y-60860069D01*
X69973387Y-60851346D01*
X69929811Y-60848064D01*
X69911704Y-60851744D01*
X69891233Y-60864148D01*
X69867173Y-60888716D01*
X69838562Y-60930374D01*
X69810702Y-60985148D01*
X69795989Y-61030288D01*
X69791570Y-61067785D01*
X69796386Y-61103938D01*
X69810139Y-61133391D01*
X69833091Y-61157764D01*
X69860897Y-61174482D01*
X69894981Y-61185045D01*
X69936943Y-61188831D01*
X69974708Y-61182691D01*
X70026531Y-61160695D01*
X70075561Y-61137301D01*
X70093747Y-61132558D01*
X70121112Y-61137897D01*
X70144305Y-61154002D01*
X70160216Y-61177194D01*
X70165359Y-61202851D01*
X70161291Y-61220778D01*
X70147564Y-61240338D01*
X70120000Y-61262693D01*
X70072449Y-61288482D01*
X70015664Y-61311183D01*
X69971327Y-61322949D01*
X69936943Y-61326389D01*
G37*
D12*
X55881804Y-77639238D02*
X56091327Y-77639238D01*
X56091327Y-77639238D02*
X56300851Y-77734476D01*
X56300851Y-77734476D02*
X56405613Y-77829714D01*
X56405613Y-77829714D02*
X56510375Y-78020190D01*
X56510375Y-78020190D02*
X56615137Y-78401142D01*
X56615137Y-78401142D02*
X56615137Y-78877333D01*
X56615137Y-78877333D02*
X56510375Y-79258285D01*
X56510375Y-79258285D02*
X56405613Y-79448761D01*
X56405613Y-79448761D02*
X56300851Y-79544000D01*
X56300851Y-79544000D02*
X56091327Y-79639238D01*
X56091327Y-79639238D02*
X55881804Y-79639238D01*
X55881804Y-79639238D02*
X55672280Y-79544000D01*
X55672280Y-79544000D02*
X55567518Y-79448761D01*
X55567518Y-79448761D02*
X55462756Y-79258285D01*
X55462756Y-79258285D02*
X55357994Y-78877333D01*
X55357994Y-78877333D02*
X55357994Y-78401142D01*
X55357994Y-78401142D02*
X55462756Y-78020190D01*
X55462756Y-78020190D02*
X55567518Y-77829714D01*
X55567518Y-77829714D02*
X55672280Y-77734476D01*
X55672280Y-77734476D02*
X55881804Y-77639238D01*
X60386565Y-79639238D02*
X59129422Y-79639238D01*
X59757994Y-79639238D02*
X59757994Y-77639238D01*
X59757994Y-77639238D02*
X59548470Y-77924952D01*
X59548470Y-77924952D02*
X59338946Y-78115428D01*
X59338946Y-78115428D02*
X59129422Y-78210666D01*
X63612994Y-94360880D02*
X64660613Y-94360880D01*
X63403470Y-95018023D02*
X64136804Y-92718023D01*
X64136804Y-92718023D02*
X64870137Y-95018023D01*
X65498708Y-92937071D02*
X65603470Y-92827547D01*
X65603470Y-92827547D02*
X65812994Y-92718023D01*
X65812994Y-92718023D02*
X66336803Y-92718023D01*
X66336803Y-92718023D02*
X66546327Y-92827547D01*
X66546327Y-92827547D02*
X66651089Y-92937071D01*
X66651089Y-92937071D02*
X66755851Y-93156119D01*
X66755851Y-93156119D02*
X66755851Y-93375166D01*
X66755851Y-93375166D02*
X66651089Y-93703738D01*
X66651089Y-93703738D02*
X65393946Y-95018023D01*
X65393946Y-95018023D02*
X66755851Y-95018023D01*
X63612994Y-89280880D02*
X64660613Y-89280880D01*
X63403470Y-89938023D02*
X64136804Y-87638023D01*
X64136804Y-87638023D02*
X64870137Y-89938023D01*
X66755851Y-89938023D02*
X65498708Y-89938023D01*
X66127280Y-89938023D02*
X66127280Y-87638023D01*
X66127280Y-87638023D02*
X65917756Y-87966595D01*
X65917756Y-87966595D02*
X65708232Y-88185642D01*
X65708232Y-88185642D02*
X65498708Y-88295166D01*
D10*
X73164819Y-99072506D02*
X73879104Y-99072506D01*
X73879104Y-99072506D02*
X74021961Y-99120125D01*
X74021961Y-99120125D02*
X74117200Y-99215363D01*
X74117200Y-99215363D02*
X74164819Y-99358220D01*
X74164819Y-99358220D02*
X74164819Y-99453458D01*
X74164819Y-98120125D02*
X74164819Y-98596315D01*
X74164819Y-98596315D02*
X73164819Y-98596315D01*
X74069580Y-97215363D02*
X74117200Y-97262982D01*
X74117200Y-97262982D02*
X74164819Y-97405839D01*
X74164819Y-97405839D02*
X74164819Y-97501077D01*
X74164819Y-97501077D02*
X74117200Y-97643934D01*
X74117200Y-97643934D02*
X74021961Y-97739172D01*
X74021961Y-97739172D02*
X73926723Y-97786791D01*
X73926723Y-97786791D02*
X73736247Y-97834410D01*
X73736247Y-97834410D02*
X73593390Y-97834410D01*
X73593390Y-97834410D02*
X73402914Y-97786791D01*
X73402914Y-97786791D02*
X73307676Y-97739172D01*
X73307676Y-97739172D02*
X73212438Y-97643934D01*
X73212438Y-97643934D02*
X73164819Y-97501077D01*
X73164819Y-97501077D02*
X73164819Y-97405839D01*
X73164819Y-97405839D02*
X73212438Y-97262982D01*
X73212438Y-97262982D02*
X73260057Y-97215363D01*
X73164819Y-96501077D02*
X73879104Y-96501077D01*
X73879104Y-96501077D02*
X74021961Y-96548696D01*
X74021961Y-96548696D02*
X74117200Y-96643934D01*
X74117200Y-96643934D02*
X74164819Y-96786791D01*
X74164819Y-96786791D02*
X74164819Y-96882029D01*
X74164819Y-95548696D02*
X74164819Y-96024886D01*
X74164819Y-96024886D02*
X73164819Y-96024886D01*
X74069580Y-94643934D02*
X74117200Y-94691553D01*
X74117200Y-94691553D02*
X74164819Y-94834410D01*
X74164819Y-94834410D02*
X74164819Y-94929648D01*
X74164819Y-94929648D02*
X74117200Y-95072505D01*
X74117200Y-95072505D02*
X74021961Y-95167743D01*
X74021961Y-95167743D02*
X73926723Y-95215362D01*
X73926723Y-95215362D02*
X73736247Y-95262981D01*
X73736247Y-95262981D02*
X73593390Y-95262981D01*
X73593390Y-95262981D02*
X73402914Y-95215362D01*
X73402914Y-95215362D02*
X73307676Y-95167743D01*
X73307676Y-95167743D02*
X73212438Y-95072505D01*
X73212438Y-95072505D02*
X73164819Y-94929648D01*
X73164819Y-94929648D02*
X73164819Y-94834410D01*
X73164819Y-94834410D02*
X73212438Y-94691553D01*
X73212438Y-94691553D02*
X73260057Y-94643934D01*
X73164819Y-93929648D02*
X73879104Y-93929648D01*
X73879104Y-93929648D02*
X74021961Y-93977267D01*
X74021961Y-93977267D02*
X74117200Y-94072505D01*
X74117200Y-94072505D02*
X74164819Y-94215362D01*
X74164819Y-94215362D02*
X74164819Y-94310600D01*
X74164819Y-92977267D02*
X74164819Y-93453457D01*
X74164819Y-93453457D02*
X73164819Y-93453457D01*
X74069580Y-92072505D02*
X74117200Y-92120124D01*
X74117200Y-92120124D02*
X74164819Y-92262981D01*
X74164819Y-92262981D02*
X74164819Y-92358219D01*
X74164819Y-92358219D02*
X74117200Y-92501076D01*
X74117200Y-92501076D02*
X74021961Y-92596314D01*
X74021961Y-92596314D02*
X73926723Y-92643933D01*
X73926723Y-92643933D02*
X73736247Y-92691552D01*
X73736247Y-92691552D02*
X73593390Y-92691552D01*
X73593390Y-92691552D02*
X73402914Y-92643933D01*
X73402914Y-92643933D02*
X73307676Y-92596314D01*
X73307676Y-92596314D02*
X73212438Y-92501076D01*
X73212438Y-92501076D02*
X73164819Y-92358219D01*
X73164819Y-92358219D02*
X73164819Y-92262981D01*
X73164819Y-92262981D02*
X73212438Y-92120124D01*
X73212438Y-92120124D02*
X73260057Y-92072505D01*
X73164819Y-91358219D02*
X73879104Y-91358219D01*
X73879104Y-91358219D02*
X74021961Y-91405838D01*
X74021961Y-91405838D02*
X74117200Y-91501076D01*
X74117200Y-91501076D02*
X74164819Y-91643933D01*
X74164819Y-91643933D02*
X74164819Y-91739171D01*
X74164819Y-90405838D02*
X74164819Y-90882028D01*
X74164819Y-90882028D02*
X73164819Y-90882028D01*
X74069580Y-89501076D02*
X74117200Y-89548695D01*
X74117200Y-89548695D02*
X74164819Y-89691552D01*
X74164819Y-89691552D02*
X74164819Y-89786790D01*
X74164819Y-89786790D02*
X74117200Y-89929647D01*
X74117200Y-89929647D02*
X74021961Y-90024885D01*
X74021961Y-90024885D02*
X73926723Y-90072504D01*
X73926723Y-90072504D02*
X73736247Y-90120123D01*
X73736247Y-90120123D02*
X73593390Y-90120123D01*
X73593390Y-90120123D02*
X73402914Y-90072504D01*
X73402914Y-90072504D02*
X73307676Y-90024885D01*
X73307676Y-90024885D02*
X73212438Y-89929647D01*
X73212438Y-89929647D02*
X73164819Y-89786790D01*
X73164819Y-89786790D02*
X73164819Y-89691552D01*
X73164819Y-89691552D02*
X73212438Y-89548695D01*
X73212438Y-89548695D02*
X73260057Y-89501076D01*
D12*
X58971089Y-106849238D02*
X59352042Y-106849238D01*
X59352042Y-106849238D02*
X59542518Y-106944476D01*
X59542518Y-106944476D02*
X59732994Y-107134952D01*
X59732994Y-107134952D02*
X59828232Y-107515904D01*
X59828232Y-107515904D02*
X59828232Y-108182571D01*
X59828232Y-108182571D02*
X59732994Y-108563523D01*
X59732994Y-108563523D02*
X59542518Y-108754000D01*
X59542518Y-108754000D02*
X59352042Y-108849238D01*
X59352042Y-108849238D02*
X58971089Y-108849238D01*
X58971089Y-108849238D02*
X58780613Y-108754000D01*
X58780613Y-108754000D02*
X58590137Y-108563523D01*
X58590137Y-108563523D02*
X58494899Y-108182571D01*
X58494899Y-108182571D02*
X58494899Y-107515904D01*
X58494899Y-107515904D02*
X58590137Y-107134952D01*
X58590137Y-107134952D02*
X58780613Y-106944476D01*
X58780613Y-106944476D02*
X58971089Y-106849238D01*
X61542518Y-107515904D02*
X61542518Y-108849238D01*
X60685375Y-107515904D02*
X60685375Y-108563523D01*
X60685375Y-108563523D02*
X60780613Y-108754000D01*
X60780613Y-108754000D02*
X60971089Y-108849238D01*
X60971089Y-108849238D02*
X61256804Y-108849238D01*
X61256804Y-108849238D02*
X61447280Y-108754000D01*
X61447280Y-108754000D02*
X61542518Y-108658761D01*
X62209185Y-107515904D02*
X62971089Y-107515904D01*
X62494899Y-106849238D02*
X62494899Y-108563523D01*
X62494899Y-108563523D02*
X62590137Y-108754000D01*
X62590137Y-108754000D02*
X62780613Y-108849238D01*
X62780613Y-108849238D02*
X62971089Y-108849238D01*
X84379294Y-79501666D02*
X82379294Y-79501666D01*
X82379294Y-79501666D02*
X82379294Y-79025476D01*
X82379294Y-79025476D02*
X82474532Y-78739761D01*
X82474532Y-78739761D02*
X82665008Y-78549285D01*
X82665008Y-78549285D02*
X82855484Y-78454047D01*
X82855484Y-78454047D02*
X83236436Y-78358809D01*
X83236436Y-78358809D02*
X83522151Y-78358809D01*
X83522151Y-78358809D02*
X83903103Y-78454047D01*
X83903103Y-78454047D02*
X84093579Y-78549285D01*
X84093579Y-78549285D02*
X84284056Y-78739761D01*
X84284056Y-78739761D02*
X84379294Y-79025476D01*
X84379294Y-79025476D02*
X84379294Y-79501666D01*
X84379294Y-77501666D02*
X82379294Y-77501666D01*
X82379294Y-77501666D02*
X82379294Y-76739761D01*
X82379294Y-76739761D02*
X82474532Y-76549285D01*
X82474532Y-76549285D02*
X82569770Y-76454047D01*
X82569770Y-76454047D02*
X82760246Y-76358809D01*
X82760246Y-76358809D02*
X83045960Y-76358809D01*
X83045960Y-76358809D02*
X83236436Y-76454047D01*
X83236436Y-76454047D02*
X83331675Y-76549285D01*
X83331675Y-76549285D02*
X83426913Y-76739761D01*
X83426913Y-76739761D02*
X83426913Y-77501666D01*
X84379294Y-75501666D02*
X82379294Y-75501666D01*
X82379294Y-75501666D02*
X83807865Y-74834999D01*
X83807865Y-74834999D02*
X82379294Y-74168333D01*
X82379294Y-74168333D02*
X84379294Y-74168333D01*
X87599182Y-80501666D02*
X85599182Y-80501666D01*
X85599182Y-80501666D02*
X85599182Y-80025476D01*
X85599182Y-80025476D02*
X85694420Y-79739761D01*
X85694420Y-79739761D02*
X85884896Y-79549285D01*
X85884896Y-79549285D02*
X86075372Y-79454047D01*
X86075372Y-79454047D02*
X86456324Y-79358809D01*
X86456324Y-79358809D02*
X86742039Y-79358809D01*
X86742039Y-79358809D02*
X87122991Y-79454047D01*
X87122991Y-79454047D02*
X87313467Y-79549285D01*
X87313467Y-79549285D02*
X87503944Y-79739761D01*
X87503944Y-79739761D02*
X87599182Y-80025476D01*
X87599182Y-80025476D02*
X87599182Y-80501666D01*
X87599182Y-78501666D02*
X85599182Y-78501666D01*
X85599182Y-78501666D02*
X85599182Y-78025476D01*
X85599182Y-78025476D02*
X85694420Y-77739761D01*
X85694420Y-77739761D02*
X85884896Y-77549285D01*
X85884896Y-77549285D02*
X86075372Y-77454047D01*
X86075372Y-77454047D02*
X86456324Y-77358809D01*
X86456324Y-77358809D02*
X86742039Y-77358809D01*
X86742039Y-77358809D02*
X87122991Y-77454047D01*
X87122991Y-77454047D02*
X87313467Y-77549285D01*
X87313467Y-77549285D02*
X87503944Y-77739761D01*
X87503944Y-77739761D02*
X87599182Y-78025476D01*
X87599182Y-78025476D02*
X87599182Y-78501666D01*
X87599182Y-76501666D02*
X85599182Y-76501666D01*
X85599182Y-76501666D02*
X85599182Y-75739761D01*
X85599182Y-75739761D02*
X85694420Y-75549285D01*
X85694420Y-75549285D02*
X85789658Y-75454047D01*
X85789658Y-75454047D02*
X85980134Y-75358809D01*
X85980134Y-75358809D02*
X86265848Y-75358809D01*
X86265848Y-75358809D02*
X86456324Y-75454047D01*
X86456324Y-75454047D02*
X86551563Y-75549285D01*
X86551563Y-75549285D02*
X86646801Y-75739761D01*
X86646801Y-75739761D02*
X86646801Y-76501666D01*
X87599182Y-74501666D02*
X85599182Y-74501666D01*
X85599182Y-74501666D02*
X87027753Y-73834999D01*
X87027753Y-73834999D02*
X85599182Y-73168333D01*
X85599182Y-73168333D02*
X87599182Y-73168333D01*
X63612994Y-84200880D02*
X64660613Y-84200880D01*
X63403470Y-84858023D02*
X64136804Y-82558023D01*
X64136804Y-82558023D02*
X64870137Y-84858023D01*
X66022518Y-82558023D02*
X66232041Y-82558023D01*
X66232041Y-82558023D02*
X66441565Y-82667547D01*
X66441565Y-82667547D02*
X66546327Y-82777071D01*
X66546327Y-82777071D02*
X66651089Y-82996119D01*
X66651089Y-82996119D02*
X66755851Y-83434214D01*
X66755851Y-83434214D02*
X66755851Y-83981833D01*
X66755851Y-83981833D02*
X66651089Y-84419928D01*
X66651089Y-84419928D02*
X66546327Y-84638976D01*
X66546327Y-84638976D02*
X66441565Y-84748500D01*
X66441565Y-84748500D02*
X66232041Y-84858023D01*
X66232041Y-84858023D02*
X66022518Y-84858023D01*
X66022518Y-84858023D02*
X65812994Y-84748500D01*
X65812994Y-84748500D02*
X65708232Y-84638976D01*
X65708232Y-84638976D02*
X65603470Y-84419928D01*
X65603470Y-84419928D02*
X65498708Y-83981833D01*
X65498708Y-83981833D02*
X65498708Y-83434214D01*
X65498708Y-83434214D02*
X65603470Y-82996119D01*
X65603470Y-82996119D02*
X65708232Y-82777071D01*
X65708232Y-82777071D02*
X65812994Y-82667547D01*
X65812994Y-82667547D02*
X66022518Y-82558023D01*
D13*
G36*
X49498328Y-55627380D02*
G01*
X49468742Y-55621817D01*
X49444998Y-55605422D01*
X49425642Y-55575991D01*
X49413520Y-55554964D01*
X49403806Y-55546780D01*
X49392334Y-55544268D01*
X49360624Y-55542969D01*
X49329751Y-55548028D01*
X49294148Y-55564859D01*
X49251993Y-55597275D01*
X49201573Y-55650534D01*
X49152344Y-55715483D01*
X49116849Y-55775357D01*
X49093143Y-55830892D01*
X49079676Y-55882868D01*
X49075348Y-55932097D01*
X49079858Y-55970427D01*
X49093039Y-56004283D01*
X49115209Y-56034777D01*
X49144017Y-56058829D01*
X49175526Y-56072834D01*
X49210854Y-56077568D01*
X49246326Y-56074571D01*
X49282789Y-56065362D01*
X49320715Y-56049383D01*
X49403806Y-55996333D01*
X49444796Y-55973694D01*
X49468286Y-55968147D01*
X49489133Y-55970819D01*
X49507491Y-55978661D01*
X49524023Y-55991986D01*
X49540090Y-56016063D01*
X49545321Y-56042935D01*
X49542279Y-56062993D01*
X49533101Y-56081381D01*
X49516891Y-56098769D01*
X49453123Y-56146305D01*
X49391171Y-56181501D01*
X49330542Y-56205692D01*
X49270654Y-56219841D01*
X49210854Y-56224505D01*
X49151212Y-56218792D01*
X49097506Y-56202113D01*
X49048460Y-56174453D01*
X49003199Y-56134868D01*
X48967474Y-56089277D01*
X48942470Y-56040745D01*
X48927429Y-55988529D01*
X48922306Y-55931609D01*
X48928043Y-55862021D01*
X48945644Y-55790698D01*
X48976123Y-55716749D01*
X49021038Y-55639351D01*
X49082431Y-55557771D01*
X49142633Y-55494407D01*
X49199824Y-55449087D01*
X49254630Y-55418892D01*
X49307888Y-55401646D01*
X49360624Y-55396033D01*
X49404050Y-55397694D01*
X49438196Y-55402579D01*
X49464596Y-55385993D01*
X49496130Y-55380401D01*
X49521344Y-55384349D01*
X49540450Y-55395489D01*
X49554987Y-55414376D01*
X49565006Y-55443514D01*
X49571800Y-55490707D01*
X49574288Y-55549173D01*
X49570340Y-55574901D01*
X49558461Y-55598266D01*
X49542677Y-55614335D01*
X49523048Y-55623978D01*
X49498328Y-55627380D01*
G37*
G36*
X50156953Y-56193242D02*
G01*
X50083181Y-56217017D01*
X49957456Y-56242090D01*
X49839123Y-56257602D01*
X49754685Y-56262020D01*
X49710074Y-56258065D01*
X49677045Y-56247467D01*
X49652853Y-56231359D01*
X49635653Y-56209735D01*
X49624763Y-56181455D01*
X49620792Y-56144442D01*
X49631734Y-55971078D01*
X49642211Y-55727089D01*
X49645949Y-55442830D01*
X49651365Y-55413938D01*
X49667540Y-55389780D01*
X49691702Y-55373458D01*
X49721908Y-55367896D01*
X49752152Y-55373461D01*
X49776521Y-55389829D01*
X49792922Y-55414017D01*
X49798405Y-55442928D01*
X49794555Y-55729232D01*
X49783653Y-55980897D01*
X49773297Y-56115084D01*
X49859087Y-56108413D01*
X49968290Y-56088894D01*
X50105565Y-56053144D01*
X50129598Y-56049431D01*
X50151393Y-56052310D01*
X50169685Y-56060618D01*
X50185334Y-56074588D01*
X50199763Y-56098555D01*
X50204483Y-56124903D01*
X50199268Y-56153221D01*
X50184040Y-56175510D01*
X50156953Y-56193242D01*
G37*
G36*
X50420003Y-55969027D02*
G01*
X50419466Y-56199201D01*
X50416058Y-56222281D01*
X50405788Y-56243507D01*
X50391195Y-56258936D01*
X50373008Y-56268153D01*
X50350052Y-56271399D01*
X50323070Y-56267430D01*
X50300891Y-56255963D01*
X50282299Y-56236424D01*
X50267855Y-56207863D01*
X50263150Y-56177903D01*
X50270819Y-55813200D01*
X50278489Y-55448496D01*
X50283936Y-55420094D01*
X50300324Y-55396033D01*
X50324729Y-55379701D01*
X50354986Y-55374149D01*
X50385191Y-55379711D01*
X50409354Y-55396033D01*
X50425551Y-55420075D01*
X50430945Y-55448496D01*
X50426011Y-55581364D01*
X50418928Y-55714233D01*
X50480016Y-55651221D01*
X50702543Y-55410834D01*
X50720680Y-55395326D01*
X50739779Y-55386470D01*
X50760478Y-55383528D01*
X50789572Y-55388966D01*
X50814846Y-55405412D01*
X50832322Y-55429653D01*
X50838098Y-55458364D01*
X50830727Y-55480626D01*
X50795960Y-55531955D01*
X50708014Y-55634219D01*
X50609703Y-55737310D01*
X50505244Y-55840018D01*
X50624923Y-55953151D01*
X50693837Y-56014327D01*
X50750659Y-56059739D01*
X50779663Y-56077624D01*
X50810743Y-56090513D01*
X50837606Y-56102801D01*
X50855220Y-56118535D01*
X50865592Y-56137918D01*
X50869214Y-56162174D01*
X50865632Y-56184929D01*
X50854462Y-56207505D01*
X50839091Y-56223997D01*
X50820677Y-56233663D01*
X50798189Y-56237010D01*
X50762344Y-56232241D01*
X50718227Y-56216118D01*
X50663440Y-56185021D01*
X50595418Y-56134330D01*
X50546682Y-56090474D01*
X50420003Y-55969027D01*
G37*
D12*
X98054238Y-87899523D02*
X96054238Y-87899523D01*
X96054238Y-87899523D02*
X96054238Y-87137618D01*
X96054238Y-87137618D02*
X96149476Y-86947142D01*
X96149476Y-86947142D02*
X96244714Y-86851904D01*
X96244714Y-86851904D02*
X96435190Y-86756666D01*
X96435190Y-86756666D02*
X96720904Y-86756666D01*
X96720904Y-86756666D02*
X96911380Y-86851904D01*
X96911380Y-86851904D02*
X97006619Y-86947142D01*
X97006619Y-86947142D02*
X97101857Y-87137618D01*
X97101857Y-87137618D02*
X97101857Y-87899523D01*
X96054238Y-86089999D02*
X98054238Y-85613809D01*
X98054238Y-85613809D02*
X96625666Y-85232856D01*
X96625666Y-85232856D02*
X98054238Y-84851904D01*
X98054238Y-84851904D02*
X96054238Y-84375714D01*
X98054238Y-83613809D02*
X96054238Y-83613809D01*
X96054238Y-83613809D02*
X97482809Y-82947142D01*
X97482809Y-82947142D02*
X96054238Y-82280476D01*
X96054238Y-82280476D02*
X98054238Y-82280476D01*
D10*
X56491428Y-102054819D02*
X56158095Y-101578628D01*
X55920000Y-102054819D02*
X55920000Y-101054819D01*
X55920000Y-101054819D02*
X56300952Y-101054819D01*
X56300952Y-101054819D02*
X56396190Y-101102438D01*
X56396190Y-101102438D02*
X56443809Y-101150057D01*
X56443809Y-101150057D02*
X56491428Y-101245295D01*
X56491428Y-101245295D02*
X56491428Y-101388152D01*
X56491428Y-101388152D02*
X56443809Y-101483390D01*
X56443809Y-101483390D02*
X56396190Y-101531009D01*
X56396190Y-101531009D02*
X56300952Y-101578628D01*
X56300952Y-101578628D02*
X55920000Y-101578628D01*
X56681905Y-102150057D02*
X57443809Y-102150057D01*
X57634286Y-102007200D02*
X57777143Y-102054819D01*
X57777143Y-102054819D02*
X58015238Y-102054819D01*
X58015238Y-102054819D02*
X58110476Y-102007200D01*
X58110476Y-102007200D02*
X58158095Y-101959580D01*
X58158095Y-101959580D02*
X58205714Y-101864342D01*
X58205714Y-101864342D02*
X58205714Y-101769104D01*
X58205714Y-101769104D02*
X58158095Y-101673866D01*
X58158095Y-101673866D02*
X58110476Y-101626247D01*
X58110476Y-101626247D02*
X58015238Y-101578628D01*
X58015238Y-101578628D02*
X57824762Y-101531009D01*
X57824762Y-101531009D02*
X57729524Y-101483390D01*
X57729524Y-101483390D02*
X57681905Y-101435771D01*
X57681905Y-101435771D02*
X57634286Y-101340533D01*
X57634286Y-101340533D02*
X57634286Y-101245295D01*
X57634286Y-101245295D02*
X57681905Y-101150057D01*
X57681905Y-101150057D02*
X57729524Y-101102438D01*
X57729524Y-101102438D02*
X57824762Y-101054819D01*
X57824762Y-101054819D02*
X58062857Y-101054819D01*
X58062857Y-101054819D02*
X58205714Y-101102438D01*
X59205714Y-101959580D02*
X59158095Y-102007200D01*
X59158095Y-102007200D02*
X59015238Y-102054819D01*
X59015238Y-102054819D02*
X58920000Y-102054819D01*
X58920000Y-102054819D02*
X58777143Y-102007200D01*
X58777143Y-102007200D02*
X58681905Y-101911961D01*
X58681905Y-101911961D02*
X58634286Y-101816723D01*
X58634286Y-101816723D02*
X58586667Y-101626247D01*
X58586667Y-101626247D02*
X58586667Y-101483390D01*
X58586667Y-101483390D02*
X58634286Y-101292914D01*
X58634286Y-101292914D02*
X58681905Y-101197676D01*
X58681905Y-101197676D02*
X58777143Y-101102438D01*
X58777143Y-101102438D02*
X58920000Y-101054819D01*
X58920000Y-101054819D02*
X59015238Y-101054819D01*
X59015238Y-101054819D02*
X59158095Y-101102438D01*
X59158095Y-101102438D02*
X59205714Y-101150057D01*
X60110476Y-102054819D02*
X59634286Y-102054819D01*
X59634286Y-102054819D02*
X59634286Y-101054819D01*
X60967619Y-102054819D02*
X60396191Y-102054819D01*
X60681905Y-102054819D02*
X60681905Y-101054819D01*
X60681905Y-101054819D02*
X60586667Y-101197676D01*
X60586667Y-101197676D02*
X60491429Y-101292914D01*
X60491429Y-101292914D02*
X60396191Y-101340533D01*
X57644819Y-126633333D02*
X58359104Y-126633333D01*
X58359104Y-126633333D02*
X58501961Y-126680952D01*
X58501961Y-126680952D02*
X58597200Y-126776190D01*
X58597200Y-126776190D02*
X58644819Y-126919047D01*
X58644819Y-126919047D02*
X58644819Y-127014285D01*
X57740057Y-126204761D02*
X57692438Y-126157142D01*
X57692438Y-126157142D02*
X57644819Y-126061904D01*
X57644819Y-126061904D02*
X57644819Y-125823809D01*
X57644819Y-125823809D02*
X57692438Y-125728571D01*
X57692438Y-125728571D02*
X57740057Y-125680952D01*
X57740057Y-125680952D02*
X57835295Y-125633333D01*
X57835295Y-125633333D02*
X57930533Y-125633333D01*
X57930533Y-125633333D02*
X58073390Y-125680952D01*
X58073390Y-125680952D02*
X58644819Y-126252380D01*
X58644819Y-126252380D02*
X58644819Y-125633333D01*
X56467618Y-99514819D02*
X56134285Y-99038628D01*
X55896190Y-99514819D02*
X55896190Y-98514819D01*
X55896190Y-98514819D02*
X56277142Y-98514819D01*
X56277142Y-98514819D02*
X56372380Y-98562438D01*
X56372380Y-98562438D02*
X56419999Y-98610057D01*
X56419999Y-98610057D02*
X56467618Y-98705295D01*
X56467618Y-98705295D02*
X56467618Y-98848152D01*
X56467618Y-98848152D02*
X56419999Y-98943390D01*
X56419999Y-98943390D02*
X56372380Y-98991009D01*
X56372380Y-98991009D02*
X56277142Y-99038628D01*
X56277142Y-99038628D02*
X55896190Y-99038628D01*
X56658095Y-99610057D02*
X57419999Y-99610057D01*
X57610476Y-99467200D02*
X57753333Y-99514819D01*
X57753333Y-99514819D02*
X57991428Y-99514819D01*
X57991428Y-99514819D02*
X58086666Y-99467200D01*
X58086666Y-99467200D02*
X58134285Y-99419580D01*
X58134285Y-99419580D02*
X58181904Y-99324342D01*
X58181904Y-99324342D02*
X58181904Y-99229104D01*
X58181904Y-99229104D02*
X58134285Y-99133866D01*
X58134285Y-99133866D02*
X58086666Y-99086247D01*
X58086666Y-99086247D02*
X57991428Y-99038628D01*
X57991428Y-99038628D02*
X57800952Y-98991009D01*
X57800952Y-98991009D02*
X57705714Y-98943390D01*
X57705714Y-98943390D02*
X57658095Y-98895771D01*
X57658095Y-98895771D02*
X57610476Y-98800533D01*
X57610476Y-98800533D02*
X57610476Y-98705295D01*
X57610476Y-98705295D02*
X57658095Y-98610057D01*
X57658095Y-98610057D02*
X57705714Y-98562438D01*
X57705714Y-98562438D02*
X57800952Y-98514819D01*
X57800952Y-98514819D02*
X58039047Y-98514819D01*
X58039047Y-98514819D02*
X58181904Y-98562438D01*
X58610476Y-99514819D02*
X58610476Y-98514819D01*
X58610476Y-98514819D02*
X58848571Y-98514819D01*
X58848571Y-98514819D02*
X58991428Y-98562438D01*
X58991428Y-98562438D02*
X59086666Y-98657676D01*
X59086666Y-98657676D02*
X59134285Y-98752914D01*
X59134285Y-98752914D02*
X59181904Y-98943390D01*
X59181904Y-98943390D02*
X59181904Y-99086247D01*
X59181904Y-99086247D02*
X59134285Y-99276723D01*
X59134285Y-99276723D02*
X59086666Y-99371961D01*
X59086666Y-99371961D02*
X58991428Y-99467200D01*
X58991428Y-99467200D02*
X58848571Y-99514819D01*
X58848571Y-99514819D02*
X58610476Y-99514819D01*
X59562857Y-99229104D02*
X60039047Y-99229104D01*
X59467619Y-99514819D02*
X59800952Y-98514819D01*
X59800952Y-98514819D02*
X60134285Y-99514819D01*
X60991428Y-99514819D02*
X60420000Y-99514819D01*
X60705714Y-99514819D02*
X60705714Y-98514819D01*
X60705714Y-98514819D02*
X60610476Y-98657676D01*
X60610476Y-98657676D02*
X60515238Y-98752914D01*
X60515238Y-98752914D02*
X60420000Y-98800533D01*
X129899580Y-120062857D02*
X129947200Y-120110476D01*
X129947200Y-120110476D02*
X129994819Y-120253333D01*
X129994819Y-120253333D02*
X129994819Y-120348571D01*
X129994819Y-120348571D02*
X129947200Y-120491428D01*
X129947200Y-120491428D02*
X129851961Y-120586666D01*
X129851961Y-120586666D02*
X129756723Y-120634285D01*
X129756723Y-120634285D02*
X129566247Y-120681904D01*
X129566247Y-120681904D02*
X129423390Y-120681904D01*
X129423390Y-120681904D02*
X129232914Y-120634285D01*
X129232914Y-120634285D02*
X129137676Y-120586666D01*
X129137676Y-120586666D02*
X129042438Y-120491428D01*
X129042438Y-120491428D02*
X128994819Y-120348571D01*
X128994819Y-120348571D02*
X128994819Y-120253333D01*
X128994819Y-120253333D02*
X129042438Y-120110476D01*
X129042438Y-120110476D02*
X129090057Y-120062857D01*
X129994819Y-119110476D02*
X129994819Y-119681904D01*
X129994819Y-119396190D02*
X128994819Y-119396190D01*
X128994819Y-119396190D02*
X129137676Y-119491428D01*
X129137676Y-119491428D02*
X129232914Y-119586666D01*
X129232914Y-119586666D02*
X129280533Y-119681904D01*
X129994819Y-118158095D02*
X129994819Y-118729523D01*
X129994819Y-118443809D02*
X128994819Y-118443809D01*
X128994819Y-118443809D02*
X129137676Y-118539047D01*
X129137676Y-118539047D02*
X129232914Y-118634285D01*
X129232914Y-118634285D02*
X129280533Y-118729523D01*
X111849819Y-86462856D02*
X111849819Y-85796190D01*
X111849819Y-85796190D02*
X112849819Y-86224761D01*
X112183152Y-84986666D02*
X112849819Y-84986666D01*
X111802200Y-85224761D02*
X112516485Y-85462856D01*
X112516485Y-85462856D02*
X112516485Y-84843809D01*
X112849819Y-83986666D02*
X112849819Y-84462856D01*
X112849819Y-84462856D02*
X111849819Y-84462856D01*
X112802200Y-83700951D02*
X112849819Y-83558094D01*
X112849819Y-83558094D02*
X112849819Y-83319999D01*
X112849819Y-83319999D02*
X112802200Y-83224761D01*
X112802200Y-83224761D02*
X112754580Y-83177142D01*
X112754580Y-83177142D02*
X112659342Y-83129523D01*
X112659342Y-83129523D02*
X112564104Y-83129523D01*
X112564104Y-83129523D02*
X112468866Y-83177142D01*
X112468866Y-83177142D02*
X112421247Y-83224761D01*
X112421247Y-83224761D02*
X112373628Y-83319999D01*
X112373628Y-83319999D02*
X112326009Y-83510475D01*
X112326009Y-83510475D02*
X112278390Y-83605713D01*
X112278390Y-83605713D02*
X112230771Y-83653332D01*
X112230771Y-83653332D02*
X112135533Y-83700951D01*
X112135533Y-83700951D02*
X112040295Y-83700951D01*
X112040295Y-83700951D02*
X111945057Y-83653332D01*
X111945057Y-83653332D02*
X111897438Y-83605713D01*
X111897438Y-83605713D02*
X111849819Y-83510475D01*
X111849819Y-83510475D02*
X111849819Y-83272380D01*
X111849819Y-83272380D02*
X111897438Y-83129523D01*
X112278390Y-82558094D02*
X112230771Y-82653332D01*
X112230771Y-82653332D02*
X112183152Y-82700951D01*
X112183152Y-82700951D02*
X112087914Y-82748570D01*
X112087914Y-82748570D02*
X112040295Y-82748570D01*
X112040295Y-82748570D02*
X111945057Y-82700951D01*
X111945057Y-82700951D02*
X111897438Y-82653332D01*
X111897438Y-82653332D02*
X111849819Y-82558094D01*
X111849819Y-82558094D02*
X111849819Y-82367618D01*
X111849819Y-82367618D02*
X111897438Y-82272380D01*
X111897438Y-82272380D02*
X111945057Y-82224761D01*
X111945057Y-82224761D02*
X112040295Y-82177142D01*
X112040295Y-82177142D02*
X112087914Y-82177142D01*
X112087914Y-82177142D02*
X112183152Y-82224761D01*
X112183152Y-82224761D02*
X112230771Y-82272380D01*
X112230771Y-82272380D02*
X112278390Y-82367618D01*
X112278390Y-82367618D02*
X112278390Y-82558094D01*
X112278390Y-82558094D02*
X112326009Y-82653332D01*
X112326009Y-82653332D02*
X112373628Y-82700951D01*
X112373628Y-82700951D02*
X112468866Y-82748570D01*
X112468866Y-82748570D02*
X112659342Y-82748570D01*
X112659342Y-82748570D02*
X112754580Y-82700951D01*
X112754580Y-82700951D02*
X112802200Y-82653332D01*
X112802200Y-82653332D02*
X112849819Y-82558094D01*
X112849819Y-82558094D02*
X112849819Y-82367618D01*
X112849819Y-82367618D02*
X112802200Y-82272380D01*
X112802200Y-82272380D02*
X112754580Y-82224761D01*
X112754580Y-82224761D02*
X112659342Y-82177142D01*
X112659342Y-82177142D02*
X112468866Y-82177142D01*
X112468866Y-82177142D02*
X112373628Y-82224761D01*
X112373628Y-82224761D02*
X112326009Y-82272380D01*
X112326009Y-82272380D02*
X112278390Y-82367618D01*
X111849819Y-81272380D02*
X111849819Y-81748570D01*
X111849819Y-81748570D02*
X112326009Y-81796189D01*
X112326009Y-81796189D02*
X112278390Y-81748570D01*
X112278390Y-81748570D02*
X112230771Y-81653332D01*
X112230771Y-81653332D02*
X112230771Y-81415237D01*
X112230771Y-81415237D02*
X112278390Y-81319999D01*
X112278390Y-81319999D02*
X112326009Y-81272380D01*
X112326009Y-81272380D02*
X112421247Y-81224761D01*
X112421247Y-81224761D02*
X112659342Y-81224761D01*
X112659342Y-81224761D02*
X112754580Y-81272380D01*
X112754580Y-81272380D02*
X112802200Y-81319999D01*
X112802200Y-81319999D02*
X112849819Y-81415237D01*
X112849819Y-81415237D02*
X112849819Y-81653332D01*
X112849819Y-81653332D02*
X112802200Y-81748570D01*
X112802200Y-81748570D02*
X112754580Y-81796189D01*
X55276904Y-49953152D02*
X55276904Y-50619819D01*
X55038809Y-49572200D02*
X54800714Y-50286485D01*
X54800714Y-50286485D02*
X55419761Y-50286485D01*
X55991190Y-49619819D02*
X56086428Y-49619819D01*
X56086428Y-49619819D02*
X56181666Y-49667438D01*
X56181666Y-49667438D02*
X56229285Y-49715057D01*
X56229285Y-49715057D02*
X56276904Y-49810295D01*
X56276904Y-49810295D02*
X56324523Y-50000771D01*
X56324523Y-50000771D02*
X56324523Y-50238866D01*
X56324523Y-50238866D02*
X56276904Y-50429342D01*
X56276904Y-50429342D02*
X56229285Y-50524580D01*
X56229285Y-50524580D02*
X56181666Y-50572200D01*
X56181666Y-50572200D02*
X56086428Y-50619819D01*
X56086428Y-50619819D02*
X55991190Y-50619819D01*
X55991190Y-50619819D02*
X55895952Y-50572200D01*
X55895952Y-50572200D02*
X55848333Y-50524580D01*
X55848333Y-50524580D02*
X55800714Y-50429342D01*
X55800714Y-50429342D02*
X55753095Y-50238866D01*
X55753095Y-50238866D02*
X55753095Y-50000771D01*
X55753095Y-50000771D02*
X55800714Y-49810295D01*
X55800714Y-49810295D02*
X55848333Y-49715057D01*
X55848333Y-49715057D02*
X55895952Y-49667438D01*
X55895952Y-49667438D02*
X55991190Y-49619819D01*
X57181666Y-49953152D02*
X57181666Y-50619819D01*
X56943571Y-49572200D02*
X56705476Y-50286485D01*
X56705476Y-50286485D02*
X57324523Y-50286485D01*
X57895952Y-49619819D02*
X57991190Y-49619819D01*
X57991190Y-49619819D02*
X58086428Y-49667438D01*
X58086428Y-49667438D02*
X58134047Y-49715057D01*
X58134047Y-49715057D02*
X58181666Y-49810295D01*
X58181666Y-49810295D02*
X58229285Y-50000771D01*
X58229285Y-50000771D02*
X58229285Y-50238866D01*
X58229285Y-50238866D02*
X58181666Y-50429342D01*
X58181666Y-50429342D02*
X58134047Y-50524580D01*
X58134047Y-50524580D02*
X58086428Y-50572200D01*
X58086428Y-50572200D02*
X57991190Y-50619819D01*
X57991190Y-50619819D02*
X57895952Y-50619819D01*
X57895952Y-50619819D02*
X57800714Y-50572200D01*
X57800714Y-50572200D02*
X57753095Y-50524580D01*
X57753095Y-50524580D02*
X57705476Y-50429342D01*
X57705476Y-50429342D02*
X57657857Y-50238866D01*
X57657857Y-50238866D02*
X57657857Y-50000771D01*
X57657857Y-50000771D02*
X57705476Y-49810295D01*
X57705476Y-49810295D02*
X57753095Y-49715057D01*
X57753095Y-49715057D02*
X57800714Y-49667438D01*
X57800714Y-49667438D02*
X57895952Y-49619819D01*
X56348333Y-75274580D02*
X56300714Y-75322200D01*
X56300714Y-75322200D02*
X56157857Y-75369819D01*
X56157857Y-75369819D02*
X56062619Y-75369819D01*
X56062619Y-75369819D02*
X55919762Y-75322200D01*
X55919762Y-75322200D02*
X55824524Y-75226961D01*
X55824524Y-75226961D02*
X55776905Y-75131723D01*
X55776905Y-75131723D02*
X55729286Y-74941247D01*
X55729286Y-74941247D02*
X55729286Y-74798390D01*
X55729286Y-74798390D02*
X55776905Y-74607914D01*
X55776905Y-74607914D02*
X55824524Y-74512676D01*
X55824524Y-74512676D02*
X55919762Y-74417438D01*
X55919762Y-74417438D02*
X56062619Y-74369819D01*
X56062619Y-74369819D02*
X56157857Y-74369819D01*
X56157857Y-74369819D02*
X56300714Y-74417438D01*
X56300714Y-74417438D02*
X56348333Y-74465057D01*
X56729286Y-74465057D02*
X56776905Y-74417438D01*
X56776905Y-74417438D02*
X56872143Y-74369819D01*
X56872143Y-74369819D02*
X57110238Y-74369819D01*
X57110238Y-74369819D02*
X57205476Y-74417438D01*
X57205476Y-74417438D02*
X57253095Y-74465057D01*
X57253095Y-74465057D02*
X57300714Y-74560295D01*
X57300714Y-74560295D02*
X57300714Y-74655533D01*
X57300714Y-74655533D02*
X57253095Y-74798390D01*
X57253095Y-74798390D02*
X56681667Y-75369819D01*
X56681667Y-75369819D02*
X57300714Y-75369819D01*
X78136904Y-49953152D02*
X78136904Y-50619819D01*
X77898809Y-49572200D02*
X77660714Y-50286485D01*
X77660714Y-50286485D02*
X78279761Y-50286485D01*
X78851190Y-49619819D02*
X78946428Y-49619819D01*
X78946428Y-49619819D02*
X79041666Y-49667438D01*
X79041666Y-49667438D02*
X79089285Y-49715057D01*
X79089285Y-49715057D02*
X79136904Y-49810295D01*
X79136904Y-49810295D02*
X79184523Y-50000771D01*
X79184523Y-50000771D02*
X79184523Y-50238866D01*
X79184523Y-50238866D02*
X79136904Y-50429342D01*
X79136904Y-50429342D02*
X79089285Y-50524580D01*
X79089285Y-50524580D02*
X79041666Y-50572200D01*
X79041666Y-50572200D02*
X78946428Y-50619819D01*
X78946428Y-50619819D02*
X78851190Y-50619819D01*
X78851190Y-50619819D02*
X78755952Y-50572200D01*
X78755952Y-50572200D02*
X78708333Y-50524580D01*
X78708333Y-50524580D02*
X78660714Y-50429342D01*
X78660714Y-50429342D02*
X78613095Y-50238866D01*
X78613095Y-50238866D02*
X78613095Y-50000771D01*
X78613095Y-50000771D02*
X78660714Y-49810295D01*
X78660714Y-49810295D02*
X78708333Y-49715057D01*
X78708333Y-49715057D02*
X78755952Y-49667438D01*
X78755952Y-49667438D02*
X78851190Y-49619819D01*
X80041666Y-49953152D02*
X80041666Y-50619819D01*
X79803571Y-49572200D02*
X79565476Y-50286485D01*
X79565476Y-50286485D02*
X80184523Y-50286485D01*
X80755952Y-49619819D02*
X80851190Y-49619819D01*
X80851190Y-49619819D02*
X80946428Y-49667438D01*
X80946428Y-49667438D02*
X80994047Y-49715057D01*
X80994047Y-49715057D02*
X81041666Y-49810295D01*
X81041666Y-49810295D02*
X81089285Y-50000771D01*
X81089285Y-50000771D02*
X81089285Y-50238866D01*
X81089285Y-50238866D02*
X81041666Y-50429342D01*
X81041666Y-50429342D02*
X80994047Y-50524580D01*
X80994047Y-50524580D02*
X80946428Y-50572200D01*
X80946428Y-50572200D02*
X80851190Y-50619819D01*
X80851190Y-50619819D02*
X80755952Y-50619819D01*
X80755952Y-50619819D02*
X80660714Y-50572200D01*
X80660714Y-50572200D02*
X80613095Y-50524580D01*
X80613095Y-50524580D02*
X80565476Y-50429342D01*
X80565476Y-50429342D02*
X80517857Y-50238866D01*
X80517857Y-50238866D02*
X80517857Y-50000771D01*
X80517857Y-50000771D02*
X80565476Y-49810295D01*
X80565476Y-49810295D02*
X80613095Y-49715057D01*
X80613095Y-49715057D02*
X80660714Y-49667438D01*
X80660714Y-49667438D02*
X80755952Y-49619819D01*
X98219580Y-65531666D02*
X98267200Y-65579285D01*
X98267200Y-65579285D02*
X98314819Y-65722142D01*
X98314819Y-65722142D02*
X98314819Y-65817380D01*
X98314819Y-65817380D02*
X98267200Y-65960237D01*
X98267200Y-65960237D02*
X98171961Y-66055475D01*
X98171961Y-66055475D02*
X98076723Y-66103094D01*
X98076723Y-66103094D02*
X97886247Y-66150713D01*
X97886247Y-66150713D02*
X97743390Y-66150713D01*
X97743390Y-66150713D02*
X97552914Y-66103094D01*
X97552914Y-66103094D02*
X97457676Y-66055475D01*
X97457676Y-66055475D02*
X97362438Y-65960237D01*
X97362438Y-65960237D02*
X97314819Y-65817380D01*
X97314819Y-65817380D02*
X97314819Y-65722142D01*
X97314819Y-65722142D02*
X97362438Y-65579285D01*
X97362438Y-65579285D02*
X97410057Y-65531666D01*
X97314819Y-64626904D02*
X97314819Y-65103094D01*
X97314819Y-65103094D02*
X97791009Y-65150713D01*
X97791009Y-65150713D02*
X97743390Y-65103094D01*
X97743390Y-65103094D02*
X97695771Y-65007856D01*
X97695771Y-65007856D02*
X97695771Y-64769761D01*
X97695771Y-64769761D02*
X97743390Y-64674523D01*
X97743390Y-64674523D02*
X97791009Y-64626904D01*
X97791009Y-64626904D02*
X97886247Y-64579285D01*
X97886247Y-64579285D02*
X98124342Y-64579285D01*
X98124342Y-64579285D02*
X98219580Y-64626904D01*
X98219580Y-64626904D02*
X98267200Y-64674523D01*
X98267200Y-64674523D02*
X98314819Y-64769761D01*
X98314819Y-64769761D02*
X98314819Y-65007856D01*
X98314819Y-65007856D02*
X98267200Y-65103094D01*
X98267200Y-65103094D02*
X98219580Y-65150713D01*
X93706528Y-130534580D02*
X93658909Y-130582200D01*
X93658909Y-130582200D02*
X93516052Y-130629819D01*
X93516052Y-130629819D02*
X93420814Y-130629819D01*
X93420814Y-130629819D02*
X93277957Y-130582200D01*
X93277957Y-130582200D02*
X93182719Y-130486961D01*
X93182719Y-130486961D02*
X93135100Y-130391723D01*
X93135100Y-130391723D02*
X93087481Y-130201247D01*
X93087481Y-130201247D02*
X93087481Y-130058390D01*
X93087481Y-130058390D02*
X93135100Y-129867914D01*
X93135100Y-129867914D02*
X93182719Y-129772676D01*
X93182719Y-129772676D02*
X93277957Y-129677438D01*
X93277957Y-129677438D02*
X93420814Y-129629819D01*
X93420814Y-129629819D02*
X93516052Y-129629819D01*
X93516052Y-129629819D02*
X93658909Y-129677438D01*
X93658909Y-129677438D02*
X93706528Y-129725057D01*
X93897005Y-130725057D02*
X94658909Y-130725057D01*
X94849386Y-129725057D02*
X94897005Y-129677438D01*
X94897005Y-129677438D02*
X94992243Y-129629819D01*
X94992243Y-129629819D02*
X95230338Y-129629819D01*
X95230338Y-129629819D02*
X95325576Y-129677438D01*
X95325576Y-129677438D02*
X95373195Y-129725057D01*
X95373195Y-129725057D02*
X95420814Y-129820295D01*
X95420814Y-129820295D02*
X95420814Y-129915533D01*
X95420814Y-129915533D02*
X95373195Y-130058390D01*
X95373195Y-130058390D02*
X94801767Y-130629819D01*
X94801767Y-130629819D02*
X95420814Y-130629819D01*
X127423152Y-83788095D02*
X128089819Y-83788095D01*
X127042200Y-84026190D02*
X127756485Y-84264285D01*
X127756485Y-84264285D02*
X127756485Y-83645238D01*
X127089819Y-83073809D02*
X127089819Y-82978571D01*
X127089819Y-82978571D02*
X127137438Y-82883333D01*
X127137438Y-82883333D02*
X127185057Y-82835714D01*
X127185057Y-82835714D02*
X127280295Y-82788095D01*
X127280295Y-82788095D02*
X127470771Y-82740476D01*
X127470771Y-82740476D02*
X127708866Y-82740476D01*
X127708866Y-82740476D02*
X127899342Y-82788095D01*
X127899342Y-82788095D02*
X127994580Y-82835714D01*
X127994580Y-82835714D02*
X128042200Y-82883333D01*
X128042200Y-82883333D02*
X128089819Y-82978571D01*
X128089819Y-82978571D02*
X128089819Y-83073809D01*
X128089819Y-83073809D02*
X128042200Y-83169047D01*
X128042200Y-83169047D02*
X127994580Y-83216666D01*
X127994580Y-83216666D02*
X127899342Y-83264285D01*
X127899342Y-83264285D02*
X127708866Y-83311904D01*
X127708866Y-83311904D02*
X127470771Y-83311904D01*
X127470771Y-83311904D02*
X127280295Y-83264285D01*
X127280295Y-83264285D02*
X127185057Y-83216666D01*
X127185057Y-83216666D02*
X127137438Y-83169047D01*
X127137438Y-83169047D02*
X127089819Y-83073809D01*
X127089819Y-81835714D02*
X127089819Y-82311904D01*
X127089819Y-82311904D02*
X127566009Y-82359523D01*
X127566009Y-82359523D02*
X127518390Y-82311904D01*
X127518390Y-82311904D02*
X127470771Y-82216666D01*
X127470771Y-82216666D02*
X127470771Y-81978571D01*
X127470771Y-81978571D02*
X127518390Y-81883333D01*
X127518390Y-81883333D02*
X127566009Y-81835714D01*
X127566009Y-81835714D02*
X127661247Y-81788095D01*
X127661247Y-81788095D02*
X127899342Y-81788095D01*
X127899342Y-81788095D02*
X127994580Y-81835714D01*
X127994580Y-81835714D02*
X128042200Y-81883333D01*
X128042200Y-81883333D02*
X128089819Y-81978571D01*
X128089819Y-81978571D02*
X128089819Y-82216666D01*
X128089819Y-82216666D02*
X128042200Y-82311904D01*
X128042200Y-82311904D02*
X127994580Y-82359523D01*
X127089819Y-81454761D02*
X127089819Y-80835714D01*
X127089819Y-80835714D02*
X127470771Y-81169047D01*
X127470771Y-81169047D02*
X127470771Y-81026190D01*
X127470771Y-81026190D02*
X127518390Y-80930952D01*
X127518390Y-80930952D02*
X127566009Y-80883333D01*
X127566009Y-80883333D02*
X127661247Y-80835714D01*
X127661247Y-80835714D02*
X127899342Y-80835714D01*
X127899342Y-80835714D02*
X127994580Y-80883333D01*
X127994580Y-80883333D02*
X128042200Y-80930952D01*
X128042200Y-80930952D02*
X128089819Y-81026190D01*
X128089819Y-81026190D02*
X128089819Y-81311904D01*
X128089819Y-81311904D02*
X128042200Y-81407142D01*
X128042200Y-81407142D02*
X127994580Y-81454761D01*
X86661666Y-125661009D02*
X86328333Y-125661009D01*
X86328333Y-126184819D02*
X86328333Y-125184819D01*
X86328333Y-125184819D02*
X86804523Y-125184819D01*
X87709285Y-126184819D02*
X87137857Y-126184819D01*
X87423571Y-126184819D02*
X87423571Y-125184819D01*
X87423571Y-125184819D02*
X87328333Y-125327676D01*
X87328333Y-125327676D02*
X87233095Y-125422914D01*
X87233095Y-125422914D02*
X87137857Y-125470533D01*
X126788152Y-98393095D02*
X127454819Y-98393095D01*
X126407200Y-98631190D02*
X127121485Y-98869285D01*
X127121485Y-98869285D02*
X127121485Y-98250238D01*
X126454819Y-97678809D02*
X126454819Y-97583571D01*
X126454819Y-97583571D02*
X126502438Y-97488333D01*
X126502438Y-97488333D02*
X126550057Y-97440714D01*
X126550057Y-97440714D02*
X126645295Y-97393095D01*
X126645295Y-97393095D02*
X126835771Y-97345476D01*
X126835771Y-97345476D02*
X127073866Y-97345476D01*
X127073866Y-97345476D02*
X127264342Y-97393095D01*
X127264342Y-97393095D02*
X127359580Y-97440714D01*
X127359580Y-97440714D02*
X127407200Y-97488333D01*
X127407200Y-97488333D02*
X127454819Y-97583571D01*
X127454819Y-97583571D02*
X127454819Y-97678809D01*
X127454819Y-97678809D02*
X127407200Y-97774047D01*
X127407200Y-97774047D02*
X127359580Y-97821666D01*
X127359580Y-97821666D02*
X127264342Y-97869285D01*
X127264342Y-97869285D02*
X127073866Y-97916904D01*
X127073866Y-97916904D02*
X126835771Y-97916904D01*
X126835771Y-97916904D02*
X126645295Y-97869285D01*
X126645295Y-97869285D02*
X126550057Y-97821666D01*
X126550057Y-97821666D02*
X126502438Y-97774047D01*
X126502438Y-97774047D02*
X126454819Y-97678809D01*
X126454819Y-96440714D02*
X126454819Y-96916904D01*
X126454819Y-96916904D02*
X126931009Y-96964523D01*
X126931009Y-96964523D02*
X126883390Y-96916904D01*
X126883390Y-96916904D02*
X126835771Y-96821666D01*
X126835771Y-96821666D02*
X126835771Y-96583571D01*
X126835771Y-96583571D02*
X126883390Y-96488333D01*
X126883390Y-96488333D02*
X126931009Y-96440714D01*
X126931009Y-96440714D02*
X127026247Y-96393095D01*
X127026247Y-96393095D02*
X127264342Y-96393095D01*
X127264342Y-96393095D02*
X127359580Y-96440714D01*
X127359580Y-96440714D02*
X127407200Y-96488333D01*
X127407200Y-96488333D02*
X127454819Y-96583571D01*
X127454819Y-96583571D02*
X127454819Y-96821666D01*
X127454819Y-96821666D02*
X127407200Y-96916904D01*
X127407200Y-96916904D02*
X127359580Y-96964523D01*
X126454819Y-96059761D02*
X126454819Y-95440714D01*
X126454819Y-95440714D02*
X126835771Y-95774047D01*
X126835771Y-95774047D02*
X126835771Y-95631190D01*
X126835771Y-95631190D02*
X126883390Y-95535952D01*
X126883390Y-95535952D02*
X126931009Y-95488333D01*
X126931009Y-95488333D02*
X127026247Y-95440714D01*
X127026247Y-95440714D02*
X127264342Y-95440714D01*
X127264342Y-95440714D02*
X127359580Y-95488333D01*
X127359580Y-95488333D02*
X127407200Y-95535952D01*
X127407200Y-95535952D02*
X127454819Y-95631190D01*
X127454819Y-95631190D02*
X127454819Y-95916904D01*
X127454819Y-95916904D02*
X127407200Y-96012142D01*
X127407200Y-96012142D02*
X127359580Y-96059761D01*
X64825952Y-49619819D02*
X65492618Y-49619819D01*
X65492618Y-49619819D02*
X65064047Y-50619819D01*
X66302142Y-49953152D02*
X66302142Y-50619819D01*
X66064047Y-49572200D02*
X65825952Y-50286485D01*
X65825952Y-50286485D02*
X66444999Y-50286485D01*
X67302142Y-50619819D02*
X66825952Y-50619819D01*
X66825952Y-50619819D02*
X66825952Y-49619819D01*
X67587857Y-50572200D02*
X67730714Y-50619819D01*
X67730714Y-50619819D02*
X67968809Y-50619819D01*
X67968809Y-50619819D02*
X68064047Y-50572200D01*
X68064047Y-50572200D02*
X68111666Y-50524580D01*
X68111666Y-50524580D02*
X68159285Y-50429342D01*
X68159285Y-50429342D02*
X68159285Y-50334104D01*
X68159285Y-50334104D02*
X68111666Y-50238866D01*
X68111666Y-50238866D02*
X68064047Y-50191247D01*
X68064047Y-50191247D02*
X67968809Y-50143628D01*
X67968809Y-50143628D02*
X67778333Y-50096009D01*
X67778333Y-50096009D02*
X67683095Y-50048390D01*
X67683095Y-50048390D02*
X67635476Y-50000771D01*
X67635476Y-50000771D02*
X67587857Y-49905533D01*
X67587857Y-49905533D02*
X67587857Y-49810295D01*
X67587857Y-49810295D02*
X67635476Y-49715057D01*
X67635476Y-49715057D02*
X67683095Y-49667438D01*
X67683095Y-49667438D02*
X67778333Y-49619819D01*
X67778333Y-49619819D02*
X68016428Y-49619819D01*
X68016428Y-49619819D02*
X68159285Y-49667438D01*
X68540238Y-49715057D02*
X68587857Y-49667438D01*
X68587857Y-49667438D02*
X68683095Y-49619819D01*
X68683095Y-49619819D02*
X68921190Y-49619819D01*
X68921190Y-49619819D02*
X69016428Y-49667438D01*
X69016428Y-49667438D02*
X69064047Y-49715057D01*
X69064047Y-49715057D02*
X69111666Y-49810295D01*
X69111666Y-49810295D02*
X69111666Y-49905533D01*
X69111666Y-49905533D02*
X69064047Y-50048390D01*
X69064047Y-50048390D02*
X68492619Y-50619819D01*
X68492619Y-50619819D02*
X69111666Y-50619819D01*
X70016428Y-49619819D02*
X69540238Y-49619819D01*
X69540238Y-49619819D02*
X69492619Y-50096009D01*
X69492619Y-50096009D02*
X69540238Y-50048390D01*
X69540238Y-50048390D02*
X69635476Y-50000771D01*
X69635476Y-50000771D02*
X69873571Y-50000771D01*
X69873571Y-50000771D02*
X69968809Y-50048390D01*
X69968809Y-50048390D02*
X70016428Y-50096009D01*
X70016428Y-50096009D02*
X70064047Y-50191247D01*
X70064047Y-50191247D02*
X70064047Y-50429342D01*
X70064047Y-50429342D02*
X70016428Y-50524580D01*
X70016428Y-50524580D02*
X69968809Y-50572200D01*
X69968809Y-50572200D02*
X69873571Y-50619819D01*
X69873571Y-50619819D02*
X69635476Y-50619819D01*
X69635476Y-50619819D02*
X69540238Y-50572200D01*
X69540238Y-50572200D02*
X69492619Y-50524580D01*
X71016428Y-50619819D02*
X70445000Y-50619819D01*
X70730714Y-50619819D02*
X70730714Y-49619819D01*
X70730714Y-49619819D02*
X70635476Y-49762676D01*
X70635476Y-49762676D02*
X70540238Y-49857914D01*
X70540238Y-49857914D02*
X70445000Y-49905533D01*
X81099819Y-106671428D02*
X80099819Y-106671428D01*
X80099819Y-106671428D02*
X80814104Y-106338095D01*
X80814104Y-106338095D02*
X80099819Y-106004762D01*
X80099819Y-106004762D02*
X81099819Y-106004762D01*
X81004580Y-104957143D02*
X81052200Y-105004762D01*
X81052200Y-105004762D02*
X81099819Y-105147619D01*
X81099819Y-105147619D02*
X81099819Y-105242857D01*
X81099819Y-105242857D02*
X81052200Y-105385714D01*
X81052200Y-105385714D02*
X80956961Y-105480952D01*
X80956961Y-105480952D02*
X80861723Y-105528571D01*
X80861723Y-105528571D02*
X80671247Y-105576190D01*
X80671247Y-105576190D02*
X80528390Y-105576190D01*
X80528390Y-105576190D02*
X80337914Y-105528571D01*
X80337914Y-105528571D02*
X80242676Y-105480952D01*
X80242676Y-105480952D02*
X80147438Y-105385714D01*
X80147438Y-105385714D02*
X80099819Y-105242857D01*
X80099819Y-105242857D02*
X80099819Y-105147619D01*
X80099819Y-105147619D02*
X80147438Y-105004762D01*
X80147438Y-105004762D02*
X80195057Y-104957143D01*
X81099819Y-104528571D02*
X80099819Y-104528571D01*
X80099819Y-104528571D02*
X80099819Y-104147619D01*
X80099819Y-104147619D02*
X80147438Y-104052381D01*
X80147438Y-104052381D02*
X80195057Y-104004762D01*
X80195057Y-104004762D02*
X80290295Y-103957143D01*
X80290295Y-103957143D02*
X80433152Y-103957143D01*
X80433152Y-103957143D02*
X80528390Y-104004762D01*
X80528390Y-104004762D02*
X80576009Y-104052381D01*
X80576009Y-104052381D02*
X80623628Y-104147619D01*
X80623628Y-104147619D02*
X80623628Y-104528571D01*
X80195057Y-103576190D02*
X80147438Y-103528571D01*
X80147438Y-103528571D02*
X80099819Y-103433333D01*
X80099819Y-103433333D02*
X80099819Y-103195238D01*
X80099819Y-103195238D02*
X80147438Y-103100000D01*
X80147438Y-103100000D02*
X80195057Y-103052381D01*
X80195057Y-103052381D02*
X80290295Y-103004762D01*
X80290295Y-103004762D02*
X80385533Y-103004762D01*
X80385533Y-103004762D02*
X80528390Y-103052381D01*
X80528390Y-103052381D02*
X81099819Y-103623809D01*
X81099819Y-103623809D02*
X81099819Y-103004762D01*
X80099819Y-102671428D02*
X80099819Y-102052381D01*
X80099819Y-102052381D02*
X80480771Y-102385714D01*
X80480771Y-102385714D02*
X80480771Y-102242857D01*
X80480771Y-102242857D02*
X80528390Y-102147619D01*
X80528390Y-102147619D02*
X80576009Y-102100000D01*
X80576009Y-102100000D02*
X80671247Y-102052381D01*
X80671247Y-102052381D02*
X80909342Y-102052381D01*
X80909342Y-102052381D02*
X81004580Y-102100000D01*
X81004580Y-102100000D02*
X81052200Y-102147619D01*
X81052200Y-102147619D02*
X81099819Y-102242857D01*
X81099819Y-102242857D02*
X81099819Y-102528571D01*
X81099819Y-102528571D02*
X81052200Y-102623809D01*
X81052200Y-102623809D02*
X81004580Y-102671428D01*
X80099819Y-101433333D02*
X80099819Y-101338095D01*
X80099819Y-101338095D02*
X80147438Y-101242857D01*
X80147438Y-101242857D02*
X80195057Y-101195238D01*
X80195057Y-101195238D02*
X80290295Y-101147619D01*
X80290295Y-101147619D02*
X80480771Y-101100000D01*
X80480771Y-101100000D02*
X80718866Y-101100000D01*
X80718866Y-101100000D02*
X80909342Y-101147619D01*
X80909342Y-101147619D02*
X81004580Y-101195238D01*
X81004580Y-101195238D02*
X81052200Y-101242857D01*
X81052200Y-101242857D02*
X81099819Y-101338095D01*
X81099819Y-101338095D02*
X81099819Y-101433333D01*
X81099819Y-101433333D02*
X81052200Y-101528571D01*
X81052200Y-101528571D02*
X81004580Y-101576190D01*
X81004580Y-101576190D02*
X80909342Y-101623809D01*
X80909342Y-101623809D02*
X80718866Y-101671428D01*
X80718866Y-101671428D02*
X80480771Y-101671428D01*
X80480771Y-101671428D02*
X80290295Y-101623809D01*
X80290295Y-101623809D02*
X80195057Y-101576190D01*
X80195057Y-101576190D02*
X80147438Y-101528571D01*
X80147438Y-101528571D02*
X80099819Y-101433333D01*
X81099819Y-100147619D02*
X81099819Y-100719047D01*
X81099819Y-100433333D02*
X80099819Y-100433333D01*
X80099819Y-100433333D02*
X80242676Y-100528571D01*
X80242676Y-100528571D02*
X80337914Y-100623809D01*
X80337914Y-100623809D02*
X80385533Y-100719047D01*
X80099819Y-99814285D02*
X80099819Y-99147619D01*
X80099819Y-99147619D02*
X81099819Y-99576190D01*
X81195057Y-99004762D02*
X81195057Y-98242857D01*
X81052200Y-98052380D02*
X81099819Y-97909523D01*
X81099819Y-97909523D02*
X81099819Y-97671428D01*
X81099819Y-97671428D02*
X81052200Y-97576190D01*
X81052200Y-97576190D02*
X81004580Y-97528571D01*
X81004580Y-97528571D02*
X80909342Y-97480952D01*
X80909342Y-97480952D02*
X80814104Y-97480952D01*
X80814104Y-97480952D02*
X80718866Y-97528571D01*
X80718866Y-97528571D02*
X80671247Y-97576190D01*
X80671247Y-97576190D02*
X80623628Y-97671428D01*
X80623628Y-97671428D02*
X80576009Y-97861904D01*
X80576009Y-97861904D02*
X80528390Y-97957142D01*
X80528390Y-97957142D02*
X80480771Y-98004761D01*
X80480771Y-98004761D02*
X80385533Y-98052380D01*
X80385533Y-98052380D02*
X80290295Y-98052380D01*
X80290295Y-98052380D02*
X80195057Y-98004761D01*
X80195057Y-98004761D02*
X80147438Y-97957142D01*
X80147438Y-97957142D02*
X80099819Y-97861904D01*
X80099819Y-97861904D02*
X80099819Y-97623809D01*
X80099819Y-97623809D02*
X80147438Y-97480952D01*
X81099819Y-97052380D02*
X80099819Y-97052380D01*
X80099819Y-97052380D02*
X80099819Y-96671428D01*
X80099819Y-96671428D02*
X80147438Y-96576190D01*
X80147438Y-96576190D02*
X80195057Y-96528571D01*
X80195057Y-96528571D02*
X80290295Y-96480952D01*
X80290295Y-96480952D02*
X80433152Y-96480952D01*
X80433152Y-96480952D02*
X80528390Y-96528571D01*
X80528390Y-96528571D02*
X80576009Y-96576190D01*
X80576009Y-96576190D02*
X80623628Y-96671428D01*
X80623628Y-96671428D02*
X80623628Y-97052380D01*
X122586904Y-129963152D02*
X122586904Y-130629819D01*
X122348809Y-129582200D02*
X122110714Y-130296485D01*
X122110714Y-130296485D02*
X122729761Y-130296485D01*
X123301190Y-129629819D02*
X123396428Y-129629819D01*
X123396428Y-129629819D02*
X123491666Y-129677438D01*
X123491666Y-129677438D02*
X123539285Y-129725057D01*
X123539285Y-129725057D02*
X123586904Y-129820295D01*
X123586904Y-129820295D02*
X123634523Y-130010771D01*
X123634523Y-130010771D02*
X123634523Y-130248866D01*
X123634523Y-130248866D02*
X123586904Y-130439342D01*
X123586904Y-130439342D02*
X123539285Y-130534580D01*
X123539285Y-130534580D02*
X123491666Y-130582200D01*
X123491666Y-130582200D02*
X123396428Y-130629819D01*
X123396428Y-130629819D02*
X123301190Y-130629819D01*
X123301190Y-130629819D02*
X123205952Y-130582200D01*
X123205952Y-130582200D02*
X123158333Y-130534580D01*
X123158333Y-130534580D02*
X123110714Y-130439342D01*
X123110714Y-130439342D02*
X123063095Y-130248866D01*
X123063095Y-130248866D02*
X123063095Y-130010771D01*
X123063095Y-130010771D02*
X123110714Y-129820295D01*
X123110714Y-129820295D02*
X123158333Y-129725057D01*
X123158333Y-129725057D02*
X123205952Y-129677438D01*
X123205952Y-129677438D02*
X123301190Y-129629819D01*
X124539285Y-129629819D02*
X124063095Y-129629819D01*
X124063095Y-129629819D02*
X124015476Y-130106009D01*
X124015476Y-130106009D02*
X124063095Y-130058390D01*
X124063095Y-130058390D02*
X124158333Y-130010771D01*
X124158333Y-130010771D02*
X124396428Y-130010771D01*
X124396428Y-130010771D02*
X124491666Y-130058390D01*
X124491666Y-130058390D02*
X124539285Y-130106009D01*
X124539285Y-130106009D02*
X124586904Y-130201247D01*
X124586904Y-130201247D02*
X124586904Y-130439342D01*
X124586904Y-130439342D02*
X124539285Y-130534580D01*
X124539285Y-130534580D02*
X124491666Y-130582200D01*
X124491666Y-130582200D02*
X124396428Y-130629819D01*
X124396428Y-130629819D02*
X124158333Y-130629819D01*
X124158333Y-130629819D02*
X124063095Y-130582200D01*
X124063095Y-130582200D02*
X124015476Y-130534580D01*
X124920238Y-129629819D02*
X125539285Y-129629819D01*
X125539285Y-129629819D02*
X125205952Y-130010771D01*
X125205952Y-130010771D02*
X125348809Y-130010771D01*
X125348809Y-130010771D02*
X125444047Y-130058390D01*
X125444047Y-130058390D02*
X125491666Y-130106009D01*
X125491666Y-130106009D02*
X125539285Y-130201247D01*
X125539285Y-130201247D02*
X125539285Y-130439342D01*
X125539285Y-130439342D02*
X125491666Y-130534580D01*
X125491666Y-130534580D02*
X125444047Y-130582200D01*
X125444047Y-130582200D02*
X125348809Y-130629819D01*
X125348809Y-130629819D02*
X125063095Y-130629819D01*
X125063095Y-130629819D02*
X124967857Y-130582200D01*
X124967857Y-130582200D02*
X124920238Y-130534580D01*
X98149580Y-94781666D02*
X98197200Y-94829285D01*
X98197200Y-94829285D02*
X98244819Y-94972142D01*
X98244819Y-94972142D02*
X98244819Y-95067380D01*
X98244819Y-95067380D02*
X98197200Y-95210237D01*
X98197200Y-95210237D02*
X98101961Y-95305475D01*
X98101961Y-95305475D02*
X98006723Y-95353094D01*
X98006723Y-95353094D02*
X97816247Y-95400713D01*
X97816247Y-95400713D02*
X97673390Y-95400713D01*
X97673390Y-95400713D02*
X97482914Y-95353094D01*
X97482914Y-95353094D02*
X97387676Y-95305475D01*
X97387676Y-95305475D02*
X97292438Y-95210237D01*
X97292438Y-95210237D02*
X97244819Y-95067380D01*
X97244819Y-95067380D02*
X97244819Y-94972142D01*
X97244819Y-94972142D02*
X97292438Y-94829285D01*
X97292438Y-94829285D02*
X97340057Y-94781666D01*
X97244819Y-93924523D02*
X97244819Y-94114999D01*
X97244819Y-94114999D02*
X97292438Y-94210237D01*
X97292438Y-94210237D02*
X97340057Y-94257856D01*
X97340057Y-94257856D02*
X97482914Y-94353094D01*
X97482914Y-94353094D02*
X97673390Y-94400713D01*
X97673390Y-94400713D02*
X98054342Y-94400713D01*
X98054342Y-94400713D02*
X98149580Y-94353094D01*
X98149580Y-94353094D02*
X98197200Y-94305475D01*
X98197200Y-94305475D02*
X98244819Y-94210237D01*
X98244819Y-94210237D02*
X98244819Y-94019761D01*
X98244819Y-94019761D02*
X98197200Y-93924523D01*
X98197200Y-93924523D02*
X98149580Y-93876904D01*
X98149580Y-93876904D02*
X98054342Y-93829285D01*
X98054342Y-93829285D02*
X97816247Y-93829285D01*
X97816247Y-93829285D02*
X97721009Y-93876904D01*
X97721009Y-93876904D02*
X97673390Y-93924523D01*
X97673390Y-93924523D02*
X97625771Y-94019761D01*
X97625771Y-94019761D02*
X97625771Y-94210237D01*
X97625771Y-94210237D02*
X97673390Y-94305475D01*
X97673390Y-94305475D02*
X97721009Y-94353094D01*
X97721009Y-94353094D02*
X97816247Y-94400713D01*
X100784819Y-128071428D02*
X100784819Y-128547618D01*
X100784819Y-128547618D02*
X99784819Y-128547618D01*
X100784819Y-127738094D02*
X99784819Y-127738094D01*
X99784819Y-127738094D02*
X99784819Y-127499999D01*
X99784819Y-127499999D02*
X99832438Y-127357142D01*
X99832438Y-127357142D02*
X99927676Y-127261904D01*
X99927676Y-127261904D02*
X100022914Y-127214285D01*
X100022914Y-127214285D02*
X100213390Y-127166666D01*
X100213390Y-127166666D02*
X100356247Y-127166666D01*
X100356247Y-127166666D02*
X100546723Y-127214285D01*
X100546723Y-127214285D02*
X100641961Y-127261904D01*
X100641961Y-127261904D02*
X100737200Y-127357142D01*
X100737200Y-127357142D02*
X100784819Y-127499999D01*
X100784819Y-127499999D02*
X100784819Y-127738094D01*
X100784819Y-126261904D02*
X100784819Y-126738094D01*
X100784819Y-126738094D02*
X99784819Y-126738094D01*
X100784819Y-125404761D02*
X100784819Y-125976189D01*
X100784819Y-125690475D02*
X99784819Y-125690475D01*
X99784819Y-125690475D02*
X99927676Y-125785713D01*
X99927676Y-125785713D02*
X100022914Y-125880951D01*
X100022914Y-125880951D02*
X100070533Y-125976189D01*
X129899580Y-71246666D02*
X129947200Y-71294285D01*
X129947200Y-71294285D02*
X129994819Y-71437142D01*
X129994819Y-71437142D02*
X129994819Y-71532380D01*
X129994819Y-71532380D02*
X129947200Y-71675237D01*
X129947200Y-71675237D02*
X129851961Y-71770475D01*
X129851961Y-71770475D02*
X129756723Y-71818094D01*
X129756723Y-71818094D02*
X129566247Y-71865713D01*
X129566247Y-71865713D02*
X129423390Y-71865713D01*
X129423390Y-71865713D02*
X129232914Y-71818094D01*
X129232914Y-71818094D02*
X129137676Y-71770475D01*
X129137676Y-71770475D02*
X129042438Y-71675237D01*
X129042438Y-71675237D02*
X128994819Y-71532380D01*
X128994819Y-71532380D02*
X128994819Y-71437142D01*
X128994819Y-71437142D02*
X129042438Y-71294285D01*
X129042438Y-71294285D02*
X129090057Y-71246666D01*
X129994819Y-70770475D02*
X129994819Y-70579999D01*
X129994819Y-70579999D02*
X129947200Y-70484761D01*
X129947200Y-70484761D02*
X129899580Y-70437142D01*
X129899580Y-70437142D02*
X129756723Y-70341904D01*
X129756723Y-70341904D02*
X129566247Y-70294285D01*
X129566247Y-70294285D02*
X129185295Y-70294285D01*
X129185295Y-70294285D02*
X129090057Y-70341904D01*
X129090057Y-70341904D02*
X129042438Y-70389523D01*
X129042438Y-70389523D02*
X128994819Y-70484761D01*
X128994819Y-70484761D02*
X128994819Y-70675237D01*
X128994819Y-70675237D02*
X129042438Y-70770475D01*
X129042438Y-70770475D02*
X129090057Y-70818094D01*
X129090057Y-70818094D02*
X129185295Y-70865713D01*
X129185295Y-70865713D02*
X129423390Y-70865713D01*
X129423390Y-70865713D02*
X129518628Y-70818094D01*
X129518628Y-70818094D02*
X129566247Y-70770475D01*
X129566247Y-70770475D02*
X129613866Y-70675237D01*
X129613866Y-70675237D02*
X129613866Y-70484761D01*
X129613866Y-70484761D02*
X129566247Y-70389523D01*
X129566247Y-70389523D02*
X129518628Y-70341904D01*
X129518628Y-70341904D02*
X129423390Y-70294285D01*
X73965642Y-119528925D02*
X73632309Y-119052734D01*
X73394214Y-119528925D02*
X73394214Y-118528925D01*
X73394214Y-118528925D02*
X73775166Y-118528925D01*
X73775166Y-118528925D02*
X73870404Y-118576544D01*
X73870404Y-118576544D02*
X73918023Y-118624163D01*
X73918023Y-118624163D02*
X73965642Y-118719401D01*
X73965642Y-118719401D02*
X73965642Y-118862258D01*
X73965642Y-118862258D02*
X73918023Y-118957496D01*
X73918023Y-118957496D02*
X73870404Y-119005115D01*
X73870404Y-119005115D02*
X73775166Y-119052734D01*
X73775166Y-119052734D02*
X73394214Y-119052734D01*
X74870404Y-118528925D02*
X74394214Y-118528925D01*
X74394214Y-118528925D02*
X74346595Y-119005115D01*
X74346595Y-119005115D02*
X74394214Y-118957496D01*
X74394214Y-118957496D02*
X74489452Y-118909877D01*
X74489452Y-118909877D02*
X74727547Y-118909877D01*
X74727547Y-118909877D02*
X74822785Y-118957496D01*
X74822785Y-118957496D02*
X74870404Y-119005115D01*
X74870404Y-119005115D02*
X74918023Y-119100353D01*
X74918023Y-119100353D02*
X74918023Y-119338448D01*
X74918023Y-119338448D02*
X74870404Y-119433686D01*
X74870404Y-119433686D02*
X74822785Y-119481306D01*
X74822785Y-119481306D02*
X74727547Y-119528925D01*
X74727547Y-119528925D02*
X74489452Y-119528925D01*
X74489452Y-119528925D02*
X74394214Y-119481306D01*
X74394214Y-119481306D02*
X74346595Y-119433686D01*
X111849819Y-109322856D02*
X111849819Y-108656190D01*
X111849819Y-108656190D02*
X112849819Y-109084761D01*
X112183152Y-107846666D02*
X112849819Y-107846666D01*
X111802200Y-108084761D02*
X112516485Y-108322856D01*
X112516485Y-108322856D02*
X112516485Y-107703809D01*
X112849819Y-106846666D02*
X112849819Y-107322856D01*
X112849819Y-107322856D02*
X111849819Y-107322856D01*
X112802200Y-106560951D02*
X112849819Y-106418094D01*
X112849819Y-106418094D02*
X112849819Y-106179999D01*
X112849819Y-106179999D02*
X112802200Y-106084761D01*
X112802200Y-106084761D02*
X112754580Y-106037142D01*
X112754580Y-106037142D02*
X112659342Y-105989523D01*
X112659342Y-105989523D02*
X112564104Y-105989523D01*
X112564104Y-105989523D02*
X112468866Y-106037142D01*
X112468866Y-106037142D02*
X112421247Y-106084761D01*
X112421247Y-106084761D02*
X112373628Y-106179999D01*
X112373628Y-106179999D02*
X112326009Y-106370475D01*
X112326009Y-106370475D02*
X112278390Y-106465713D01*
X112278390Y-106465713D02*
X112230771Y-106513332D01*
X112230771Y-106513332D02*
X112135533Y-106560951D01*
X112135533Y-106560951D02*
X112040295Y-106560951D01*
X112040295Y-106560951D02*
X111945057Y-106513332D01*
X111945057Y-106513332D02*
X111897438Y-106465713D01*
X111897438Y-106465713D02*
X111849819Y-106370475D01*
X111849819Y-106370475D02*
X111849819Y-106132380D01*
X111849819Y-106132380D02*
X111897438Y-105989523D01*
X112278390Y-105418094D02*
X112230771Y-105513332D01*
X112230771Y-105513332D02*
X112183152Y-105560951D01*
X112183152Y-105560951D02*
X112087914Y-105608570D01*
X112087914Y-105608570D02*
X112040295Y-105608570D01*
X112040295Y-105608570D02*
X111945057Y-105560951D01*
X111945057Y-105560951D02*
X111897438Y-105513332D01*
X111897438Y-105513332D02*
X111849819Y-105418094D01*
X111849819Y-105418094D02*
X111849819Y-105227618D01*
X111849819Y-105227618D02*
X111897438Y-105132380D01*
X111897438Y-105132380D02*
X111945057Y-105084761D01*
X111945057Y-105084761D02*
X112040295Y-105037142D01*
X112040295Y-105037142D02*
X112087914Y-105037142D01*
X112087914Y-105037142D02*
X112183152Y-105084761D01*
X112183152Y-105084761D02*
X112230771Y-105132380D01*
X112230771Y-105132380D02*
X112278390Y-105227618D01*
X112278390Y-105227618D02*
X112278390Y-105418094D01*
X112278390Y-105418094D02*
X112326009Y-105513332D01*
X112326009Y-105513332D02*
X112373628Y-105560951D01*
X112373628Y-105560951D02*
X112468866Y-105608570D01*
X112468866Y-105608570D02*
X112659342Y-105608570D01*
X112659342Y-105608570D02*
X112754580Y-105560951D01*
X112754580Y-105560951D02*
X112802200Y-105513332D01*
X112802200Y-105513332D02*
X112849819Y-105418094D01*
X112849819Y-105418094D02*
X112849819Y-105227618D01*
X112849819Y-105227618D02*
X112802200Y-105132380D01*
X112802200Y-105132380D02*
X112754580Y-105084761D01*
X112754580Y-105084761D02*
X112659342Y-105037142D01*
X112659342Y-105037142D02*
X112468866Y-105037142D01*
X112468866Y-105037142D02*
X112373628Y-105084761D01*
X112373628Y-105084761D02*
X112326009Y-105132380D01*
X112326009Y-105132380D02*
X112278390Y-105227618D01*
X111849819Y-104132380D02*
X111849819Y-104608570D01*
X111849819Y-104608570D02*
X112326009Y-104656189D01*
X112326009Y-104656189D02*
X112278390Y-104608570D01*
X112278390Y-104608570D02*
X112230771Y-104513332D01*
X112230771Y-104513332D02*
X112230771Y-104275237D01*
X112230771Y-104275237D02*
X112278390Y-104179999D01*
X112278390Y-104179999D02*
X112326009Y-104132380D01*
X112326009Y-104132380D02*
X112421247Y-104084761D01*
X112421247Y-104084761D02*
X112659342Y-104084761D01*
X112659342Y-104084761D02*
X112754580Y-104132380D01*
X112754580Y-104132380D02*
X112802200Y-104179999D01*
X112802200Y-104179999D02*
X112849819Y-104275237D01*
X112849819Y-104275237D02*
X112849819Y-104513332D01*
X112849819Y-104513332D02*
X112802200Y-104608570D01*
X112802200Y-104608570D02*
X112754580Y-104656189D01*
X127423152Y-65373095D02*
X128089819Y-65373095D01*
X127042200Y-65611190D02*
X127756485Y-65849285D01*
X127756485Y-65849285D02*
X127756485Y-65230238D01*
X127089819Y-64658809D02*
X127089819Y-64563571D01*
X127089819Y-64563571D02*
X127137438Y-64468333D01*
X127137438Y-64468333D02*
X127185057Y-64420714D01*
X127185057Y-64420714D02*
X127280295Y-64373095D01*
X127280295Y-64373095D02*
X127470771Y-64325476D01*
X127470771Y-64325476D02*
X127708866Y-64325476D01*
X127708866Y-64325476D02*
X127899342Y-64373095D01*
X127899342Y-64373095D02*
X127994580Y-64420714D01*
X127994580Y-64420714D02*
X128042200Y-64468333D01*
X128042200Y-64468333D02*
X128089819Y-64563571D01*
X128089819Y-64563571D02*
X128089819Y-64658809D01*
X128089819Y-64658809D02*
X128042200Y-64754047D01*
X128042200Y-64754047D02*
X127994580Y-64801666D01*
X127994580Y-64801666D02*
X127899342Y-64849285D01*
X127899342Y-64849285D02*
X127708866Y-64896904D01*
X127708866Y-64896904D02*
X127470771Y-64896904D01*
X127470771Y-64896904D02*
X127280295Y-64849285D01*
X127280295Y-64849285D02*
X127185057Y-64801666D01*
X127185057Y-64801666D02*
X127137438Y-64754047D01*
X127137438Y-64754047D02*
X127089819Y-64658809D01*
X127089819Y-63420714D02*
X127089819Y-63896904D01*
X127089819Y-63896904D02*
X127566009Y-63944523D01*
X127566009Y-63944523D02*
X127518390Y-63896904D01*
X127518390Y-63896904D02*
X127470771Y-63801666D01*
X127470771Y-63801666D02*
X127470771Y-63563571D01*
X127470771Y-63563571D02*
X127518390Y-63468333D01*
X127518390Y-63468333D02*
X127566009Y-63420714D01*
X127566009Y-63420714D02*
X127661247Y-63373095D01*
X127661247Y-63373095D02*
X127899342Y-63373095D01*
X127899342Y-63373095D02*
X127994580Y-63420714D01*
X127994580Y-63420714D02*
X128042200Y-63468333D01*
X128042200Y-63468333D02*
X128089819Y-63563571D01*
X128089819Y-63563571D02*
X128089819Y-63801666D01*
X128089819Y-63801666D02*
X128042200Y-63896904D01*
X128042200Y-63896904D02*
X127994580Y-63944523D01*
X127089819Y-63039761D02*
X127089819Y-62420714D01*
X127089819Y-62420714D02*
X127470771Y-62754047D01*
X127470771Y-62754047D02*
X127470771Y-62611190D01*
X127470771Y-62611190D02*
X127518390Y-62515952D01*
X127518390Y-62515952D02*
X127566009Y-62468333D01*
X127566009Y-62468333D02*
X127661247Y-62420714D01*
X127661247Y-62420714D02*
X127899342Y-62420714D01*
X127899342Y-62420714D02*
X127994580Y-62468333D01*
X127994580Y-62468333D02*
X128042200Y-62515952D01*
X128042200Y-62515952D02*
X128089819Y-62611190D01*
X128089819Y-62611190D02*
X128089819Y-62896904D01*
X128089819Y-62896904D02*
X128042200Y-62992142D01*
X128042200Y-62992142D02*
X127994580Y-63039761D01*
X129899580Y-58546666D02*
X129947200Y-58594285D01*
X129947200Y-58594285D02*
X129994819Y-58737142D01*
X129994819Y-58737142D02*
X129994819Y-58832380D01*
X129994819Y-58832380D02*
X129947200Y-58975237D01*
X129947200Y-58975237D02*
X129851961Y-59070475D01*
X129851961Y-59070475D02*
X129756723Y-59118094D01*
X129756723Y-59118094D02*
X129566247Y-59165713D01*
X129566247Y-59165713D02*
X129423390Y-59165713D01*
X129423390Y-59165713D02*
X129232914Y-59118094D01*
X129232914Y-59118094D02*
X129137676Y-59070475D01*
X129137676Y-59070475D02*
X129042438Y-58975237D01*
X129042438Y-58975237D02*
X128994819Y-58832380D01*
X128994819Y-58832380D02*
X128994819Y-58737142D01*
X128994819Y-58737142D02*
X129042438Y-58594285D01*
X129042438Y-58594285D02*
X129090057Y-58546666D01*
X129423390Y-57975237D02*
X129375771Y-58070475D01*
X129375771Y-58070475D02*
X129328152Y-58118094D01*
X129328152Y-58118094D02*
X129232914Y-58165713D01*
X129232914Y-58165713D02*
X129185295Y-58165713D01*
X129185295Y-58165713D02*
X129090057Y-58118094D01*
X129090057Y-58118094D02*
X129042438Y-58070475D01*
X129042438Y-58070475D02*
X128994819Y-57975237D01*
X128994819Y-57975237D02*
X128994819Y-57784761D01*
X128994819Y-57784761D02*
X129042438Y-57689523D01*
X129042438Y-57689523D02*
X129090057Y-57641904D01*
X129090057Y-57641904D02*
X129185295Y-57594285D01*
X129185295Y-57594285D02*
X129232914Y-57594285D01*
X129232914Y-57594285D02*
X129328152Y-57641904D01*
X129328152Y-57641904D02*
X129375771Y-57689523D01*
X129375771Y-57689523D02*
X129423390Y-57784761D01*
X129423390Y-57784761D02*
X129423390Y-57975237D01*
X129423390Y-57975237D02*
X129471009Y-58070475D01*
X129471009Y-58070475D02*
X129518628Y-58118094D01*
X129518628Y-58118094D02*
X129613866Y-58165713D01*
X129613866Y-58165713D02*
X129804342Y-58165713D01*
X129804342Y-58165713D02*
X129899580Y-58118094D01*
X129899580Y-58118094D02*
X129947200Y-58070475D01*
X129947200Y-58070475D02*
X129994819Y-57975237D01*
X129994819Y-57975237D02*
X129994819Y-57784761D01*
X129994819Y-57784761D02*
X129947200Y-57689523D01*
X129947200Y-57689523D02*
X129899580Y-57641904D01*
X129899580Y-57641904D02*
X129804342Y-57594285D01*
X129804342Y-57594285D02*
X129613866Y-57594285D01*
X129613866Y-57594285D02*
X129518628Y-57641904D01*
X129518628Y-57641904D02*
X129471009Y-57689523D01*
X129471009Y-57689523D02*
X129423390Y-57784761D01*
X81639580Y-90296666D02*
X81687200Y-90344285D01*
X81687200Y-90344285D02*
X81734819Y-90487142D01*
X81734819Y-90487142D02*
X81734819Y-90582380D01*
X81734819Y-90582380D02*
X81687200Y-90725237D01*
X81687200Y-90725237D02*
X81591961Y-90820475D01*
X81591961Y-90820475D02*
X81496723Y-90868094D01*
X81496723Y-90868094D02*
X81306247Y-90915713D01*
X81306247Y-90915713D02*
X81163390Y-90915713D01*
X81163390Y-90915713D02*
X80972914Y-90868094D01*
X80972914Y-90868094D02*
X80877676Y-90820475D01*
X80877676Y-90820475D02*
X80782438Y-90725237D01*
X80782438Y-90725237D02*
X80734819Y-90582380D01*
X80734819Y-90582380D02*
X80734819Y-90487142D01*
X80734819Y-90487142D02*
X80782438Y-90344285D01*
X80782438Y-90344285D02*
X80830057Y-90296666D01*
X81734819Y-89344285D02*
X81734819Y-89915713D01*
X81734819Y-89629999D02*
X80734819Y-89629999D01*
X80734819Y-89629999D02*
X80877676Y-89725237D01*
X80877676Y-89725237D02*
X80972914Y-89820475D01*
X80972914Y-89820475D02*
X81020533Y-89915713D01*
X90955952Y-117929819D02*
X90479762Y-117929819D01*
X90479762Y-117929819D02*
X90479762Y-116929819D01*
X91289286Y-117406009D02*
X91622619Y-117406009D01*
X91765476Y-117929819D02*
X91289286Y-117929819D01*
X91289286Y-117929819D02*
X91289286Y-116929819D01*
X91289286Y-116929819D02*
X91765476Y-116929819D01*
X92194048Y-117929819D02*
X92194048Y-116929819D01*
X92194048Y-116929819D02*
X92432143Y-116929819D01*
X92432143Y-116929819D02*
X92575000Y-116977438D01*
X92575000Y-116977438D02*
X92670238Y-117072676D01*
X92670238Y-117072676D02*
X92717857Y-117167914D01*
X92717857Y-117167914D02*
X92765476Y-117358390D01*
X92765476Y-117358390D02*
X92765476Y-117501247D01*
X92765476Y-117501247D02*
X92717857Y-117691723D01*
X92717857Y-117691723D02*
X92670238Y-117786961D01*
X92670238Y-117786961D02*
X92575000Y-117882200D01*
X92575000Y-117882200D02*
X92432143Y-117929819D01*
X92432143Y-117929819D02*
X92194048Y-117929819D01*
X93717857Y-117929819D02*
X93146429Y-117929819D01*
X93432143Y-117929819D02*
X93432143Y-116929819D01*
X93432143Y-116929819D02*
X93336905Y-117072676D01*
X93336905Y-117072676D02*
X93241667Y-117167914D01*
X93241667Y-117167914D02*
X93146429Y-117215533D01*
X75438333Y-75289580D02*
X75390714Y-75337200D01*
X75390714Y-75337200D02*
X75247857Y-75384819D01*
X75247857Y-75384819D02*
X75152619Y-75384819D01*
X75152619Y-75384819D02*
X75009762Y-75337200D01*
X75009762Y-75337200D02*
X74914524Y-75241961D01*
X74914524Y-75241961D02*
X74866905Y-75146723D01*
X74866905Y-75146723D02*
X74819286Y-74956247D01*
X74819286Y-74956247D02*
X74819286Y-74813390D01*
X74819286Y-74813390D02*
X74866905Y-74622914D01*
X74866905Y-74622914D02*
X74914524Y-74527676D01*
X74914524Y-74527676D02*
X75009762Y-74432438D01*
X75009762Y-74432438D02*
X75152619Y-74384819D01*
X75152619Y-74384819D02*
X75247857Y-74384819D01*
X75247857Y-74384819D02*
X75390714Y-74432438D01*
X75390714Y-74432438D02*
X75438333Y-74480057D01*
X76295476Y-74718152D02*
X76295476Y-75384819D01*
X76057381Y-74337200D02*
X75819286Y-75051485D01*
X75819286Y-75051485D02*
X76438333Y-75051485D01*
X67183333Y-75289580D02*
X67135714Y-75337200D01*
X67135714Y-75337200D02*
X66992857Y-75384819D01*
X66992857Y-75384819D02*
X66897619Y-75384819D01*
X66897619Y-75384819D02*
X66754762Y-75337200D01*
X66754762Y-75337200D02*
X66659524Y-75241961D01*
X66659524Y-75241961D02*
X66611905Y-75146723D01*
X66611905Y-75146723D02*
X66564286Y-74956247D01*
X66564286Y-74956247D02*
X66564286Y-74813390D01*
X66564286Y-74813390D02*
X66611905Y-74622914D01*
X66611905Y-74622914D02*
X66659524Y-74527676D01*
X66659524Y-74527676D02*
X66754762Y-74432438D01*
X66754762Y-74432438D02*
X66897619Y-74384819D01*
X66897619Y-74384819D02*
X66992857Y-74384819D01*
X66992857Y-74384819D02*
X67135714Y-74432438D01*
X67135714Y-74432438D02*
X67183333Y-74480057D01*
X67516667Y-74384819D02*
X68135714Y-74384819D01*
X68135714Y-74384819D02*
X67802381Y-74765771D01*
X67802381Y-74765771D02*
X67945238Y-74765771D01*
X67945238Y-74765771D02*
X68040476Y-74813390D01*
X68040476Y-74813390D02*
X68088095Y-74861009D01*
X68088095Y-74861009D02*
X68135714Y-74956247D01*
X68135714Y-74956247D02*
X68135714Y-75194342D01*
X68135714Y-75194342D02*
X68088095Y-75289580D01*
X68088095Y-75289580D02*
X68040476Y-75337200D01*
X68040476Y-75337200D02*
X67945238Y-75384819D01*
X67945238Y-75384819D02*
X67659524Y-75384819D01*
X67659524Y-75384819D02*
X67564286Y-75337200D01*
X67564286Y-75337200D02*
X67516667Y-75289580D01*
X89894580Y-122467619D02*
X89942200Y-122515238D01*
X89942200Y-122515238D02*
X89989819Y-122658095D01*
X89989819Y-122658095D02*
X89989819Y-122753333D01*
X89989819Y-122753333D02*
X89942200Y-122896190D01*
X89942200Y-122896190D02*
X89846961Y-122991428D01*
X89846961Y-122991428D02*
X89751723Y-123039047D01*
X89751723Y-123039047D02*
X89561247Y-123086666D01*
X89561247Y-123086666D02*
X89418390Y-123086666D01*
X89418390Y-123086666D02*
X89227914Y-123039047D01*
X89227914Y-123039047D02*
X89132676Y-122991428D01*
X89132676Y-122991428D02*
X89037438Y-122896190D01*
X89037438Y-122896190D02*
X88989819Y-122753333D01*
X88989819Y-122753333D02*
X88989819Y-122658095D01*
X88989819Y-122658095D02*
X89037438Y-122515238D01*
X89037438Y-122515238D02*
X89085057Y-122467619D01*
X90085057Y-122277143D02*
X90085057Y-121515238D01*
X89989819Y-120753333D02*
X89989819Y-121324761D01*
X89989819Y-121039047D02*
X88989819Y-121039047D01*
X88989819Y-121039047D02*
X89132676Y-121134285D01*
X89132676Y-121134285D02*
X89227914Y-121229523D01*
X89227914Y-121229523D02*
X89275533Y-121324761D01*
X111849819Y-63602856D02*
X111849819Y-62936190D01*
X111849819Y-62936190D02*
X112849819Y-63364761D01*
X112183152Y-62126666D02*
X112849819Y-62126666D01*
X111802200Y-62364761D02*
X112516485Y-62602856D01*
X112516485Y-62602856D02*
X112516485Y-61983809D01*
X112849819Y-61126666D02*
X112849819Y-61602856D01*
X112849819Y-61602856D02*
X111849819Y-61602856D01*
X112802200Y-60840951D02*
X112849819Y-60698094D01*
X112849819Y-60698094D02*
X112849819Y-60459999D01*
X112849819Y-60459999D02*
X112802200Y-60364761D01*
X112802200Y-60364761D02*
X112754580Y-60317142D01*
X112754580Y-60317142D02*
X112659342Y-60269523D01*
X112659342Y-60269523D02*
X112564104Y-60269523D01*
X112564104Y-60269523D02*
X112468866Y-60317142D01*
X112468866Y-60317142D02*
X112421247Y-60364761D01*
X112421247Y-60364761D02*
X112373628Y-60459999D01*
X112373628Y-60459999D02*
X112326009Y-60650475D01*
X112326009Y-60650475D02*
X112278390Y-60745713D01*
X112278390Y-60745713D02*
X112230771Y-60793332D01*
X112230771Y-60793332D02*
X112135533Y-60840951D01*
X112135533Y-60840951D02*
X112040295Y-60840951D01*
X112040295Y-60840951D02*
X111945057Y-60793332D01*
X111945057Y-60793332D02*
X111897438Y-60745713D01*
X111897438Y-60745713D02*
X111849819Y-60650475D01*
X111849819Y-60650475D02*
X111849819Y-60412380D01*
X111849819Y-60412380D02*
X111897438Y-60269523D01*
X112278390Y-59698094D02*
X112230771Y-59793332D01*
X112230771Y-59793332D02*
X112183152Y-59840951D01*
X112183152Y-59840951D02*
X112087914Y-59888570D01*
X112087914Y-59888570D02*
X112040295Y-59888570D01*
X112040295Y-59888570D02*
X111945057Y-59840951D01*
X111945057Y-59840951D02*
X111897438Y-59793332D01*
X111897438Y-59793332D02*
X111849819Y-59698094D01*
X111849819Y-59698094D02*
X111849819Y-59507618D01*
X111849819Y-59507618D02*
X111897438Y-59412380D01*
X111897438Y-59412380D02*
X111945057Y-59364761D01*
X111945057Y-59364761D02*
X112040295Y-59317142D01*
X112040295Y-59317142D02*
X112087914Y-59317142D01*
X112087914Y-59317142D02*
X112183152Y-59364761D01*
X112183152Y-59364761D02*
X112230771Y-59412380D01*
X112230771Y-59412380D02*
X112278390Y-59507618D01*
X112278390Y-59507618D02*
X112278390Y-59698094D01*
X112278390Y-59698094D02*
X112326009Y-59793332D01*
X112326009Y-59793332D02*
X112373628Y-59840951D01*
X112373628Y-59840951D02*
X112468866Y-59888570D01*
X112468866Y-59888570D02*
X112659342Y-59888570D01*
X112659342Y-59888570D02*
X112754580Y-59840951D01*
X112754580Y-59840951D02*
X112802200Y-59793332D01*
X112802200Y-59793332D02*
X112849819Y-59698094D01*
X112849819Y-59698094D02*
X112849819Y-59507618D01*
X112849819Y-59507618D02*
X112802200Y-59412380D01*
X112802200Y-59412380D02*
X112754580Y-59364761D01*
X112754580Y-59364761D02*
X112659342Y-59317142D01*
X112659342Y-59317142D02*
X112468866Y-59317142D01*
X112468866Y-59317142D02*
X112373628Y-59364761D01*
X112373628Y-59364761D02*
X112326009Y-59412380D01*
X112326009Y-59412380D02*
X112278390Y-59507618D01*
X111849819Y-58412380D02*
X111849819Y-58888570D01*
X111849819Y-58888570D02*
X112326009Y-58936189D01*
X112326009Y-58936189D02*
X112278390Y-58888570D01*
X112278390Y-58888570D02*
X112230771Y-58793332D01*
X112230771Y-58793332D02*
X112230771Y-58555237D01*
X112230771Y-58555237D02*
X112278390Y-58459999D01*
X112278390Y-58459999D02*
X112326009Y-58412380D01*
X112326009Y-58412380D02*
X112421247Y-58364761D01*
X112421247Y-58364761D02*
X112659342Y-58364761D01*
X112659342Y-58364761D02*
X112754580Y-58412380D01*
X112754580Y-58412380D02*
X112802200Y-58459999D01*
X112802200Y-58459999D02*
X112849819Y-58555237D01*
X112849819Y-58555237D02*
X112849819Y-58793332D01*
X112849819Y-58793332D02*
X112802200Y-58888570D01*
X112802200Y-58888570D02*
X112754580Y-58936189D01*
X129899580Y-99662857D02*
X129947200Y-99710476D01*
X129947200Y-99710476D02*
X129994819Y-99853333D01*
X129994819Y-99853333D02*
X129994819Y-99948571D01*
X129994819Y-99948571D02*
X129947200Y-100091428D01*
X129947200Y-100091428D02*
X129851961Y-100186666D01*
X129851961Y-100186666D02*
X129756723Y-100234285D01*
X129756723Y-100234285D02*
X129566247Y-100281904D01*
X129566247Y-100281904D02*
X129423390Y-100281904D01*
X129423390Y-100281904D02*
X129232914Y-100234285D01*
X129232914Y-100234285D02*
X129137676Y-100186666D01*
X129137676Y-100186666D02*
X129042438Y-100091428D01*
X129042438Y-100091428D02*
X128994819Y-99948571D01*
X128994819Y-99948571D02*
X128994819Y-99853333D01*
X128994819Y-99853333D02*
X129042438Y-99710476D01*
X129042438Y-99710476D02*
X129090057Y-99662857D01*
X129994819Y-98710476D02*
X129994819Y-99281904D01*
X129994819Y-98996190D02*
X128994819Y-98996190D01*
X128994819Y-98996190D02*
X129137676Y-99091428D01*
X129137676Y-99091428D02*
X129232914Y-99186666D01*
X129232914Y-99186666D02*
X129280533Y-99281904D01*
X128994819Y-98091428D02*
X128994819Y-97996190D01*
X128994819Y-97996190D02*
X129042438Y-97900952D01*
X129042438Y-97900952D02*
X129090057Y-97853333D01*
X129090057Y-97853333D02*
X129185295Y-97805714D01*
X129185295Y-97805714D02*
X129375771Y-97758095D01*
X129375771Y-97758095D02*
X129613866Y-97758095D01*
X129613866Y-97758095D02*
X129804342Y-97805714D01*
X129804342Y-97805714D02*
X129899580Y-97853333D01*
X129899580Y-97853333D02*
X129947200Y-97900952D01*
X129947200Y-97900952D02*
X129994819Y-97996190D01*
X129994819Y-97996190D02*
X129994819Y-98091428D01*
X129994819Y-98091428D02*
X129947200Y-98186666D01*
X129947200Y-98186666D02*
X129899580Y-98234285D01*
X129899580Y-98234285D02*
X129804342Y-98281904D01*
X129804342Y-98281904D02*
X129613866Y-98329523D01*
X129613866Y-98329523D02*
X129375771Y-98329523D01*
X129375771Y-98329523D02*
X129185295Y-98281904D01*
X129185295Y-98281904D02*
X129090057Y-98234285D01*
X129090057Y-98234285D02*
X129042438Y-98186666D01*
X129042438Y-98186666D02*
X128994819Y-98091428D01*
X101959580Y-122046666D02*
X102007200Y-122094285D01*
X102007200Y-122094285D02*
X102054819Y-122237142D01*
X102054819Y-122237142D02*
X102054819Y-122332380D01*
X102054819Y-122332380D02*
X102007200Y-122475237D01*
X102007200Y-122475237D02*
X101911961Y-122570475D01*
X101911961Y-122570475D02*
X101816723Y-122618094D01*
X101816723Y-122618094D02*
X101626247Y-122665713D01*
X101626247Y-122665713D02*
X101483390Y-122665713D01*
X101483390Y-122665713D02*
X101292914Y-122618094D01*
X101292914Y-122618094D02*
X101197676Y-122570475D01*
X101197676Y-122570475D02*
X101102438Y-122475237D01*
X101102438Y-122475237D02*
X101054819Y-122332380D01*
X101054819Y-122332380D02*
X101054819Y-122237142D01*
X101054819Y-122237142D02*
X101102438Y-122094285D01*
X101102438Y-122094285D02*
X101150057Y-122046666D01*
X101054819Y-121713332D02*
X101054819Y-121046666D01*
X101054819Y-121046666D02*
X102054819Y-121475237D01*
D14*
X54380000Y-101600000D02*
X55150000Y-101600000D01*
X55150000Y-100230000D02*
X55150000Y-102970000D01*
X55150000Y-102970000D02*
X61690000Y-102970000D01*
X61690000Y-100230000D02*
X55150000Y-100230000D01*
X61690000Y-102970000D02*
X61690000Y-100230000D01*
X62460000Y-101600000D02*
X61690000Y-101600000D01*
D15*
G36*
X80798329Y-116300977D02*
G01*
X80859417Y-116325031D01*
X80913021Y-116362676D01*
X80954102Y-116411469D01*
X80981591Y-116487523D01*
X80990754Y-116600840D01*
X80983119Y-116669563D01*
X80960211Y-116724236D01*
X80355446Y-116724236D01*
X80404044Y-116609392D01*
X80443140Y-116524684D01*
X80472734Y-116470113D01*
X80530576Y-116392608D01*
X80593534Y-116337248D01*
X80661608Y-116304032D01*
X80734798Y-116292960D01*
X80798329Y-116300977D01*
G37*
G36*
X81676358Y-117851298D02*
G01*
X81676358Y-118504322D01*
X81676358Y-118829307D01*
X81676358Y-118829411D01*
X81671392Y-118930502D01*
X81656541Y-119030619D01*
X81631948Y-119128798D01*
X81597851Y-119224095D01*
X81554577Y-119315590D01*
X81502543Y-119402403D01*
X81442251Y-119483698D01*
X81374280Y-119558691D01*
X81299287Y-119626662D01*
X81217992Y-119686954D01*
X81131179Y-119738988D01*
X81039684Y-119782262D01*
X80944387Y-119816359D01*
X80846208Y-119840952D01*
X80746091Y-119855803D01*
X80645000Y-119860769D01*
X80543909Y-119855803D01*
X80443792Y-119840952D01*
X80345613Y-119816359D01*
X80250316Y-119782262D01*
X80158821Y-119738988D01*
X80072008Y-119686954D01*
X79990713Y-119626662D01*
X79915720Y-119558691D01*
X79847749Y-119483698D01*
X79787457Y-119402403D01*
X79735423Y-119315590D01*
X79692149Y-119224095D01*
X79658052Y-119128798D01*
X79633459Y-119030619D01*
X79618608Y-118930502D01*
X79613642Y-118829411D01*
X79613642Y-118829307D01*
X79613642Y-118372373D01*
X80134921Y-118372373D01*
X80152789Y-118466448D01*
X80206393Y-118554414D01*
X80261295Y-118612141D01*
X80323986Y-118664371D01*
X80394465Y-118711103D01*
X80472734Y-118752337D01*
X80554400Y-118786011D01*
X80635073Y-118810064D01*
X80714754Y-118824496D01*
X80793442Y-118829307D01*
X80898343Y-118820279D01*
X80984171Y-118793197D01*
X81050925Y-118748061D01*
X81098608Y-118684869D01*
X81127217Y-118603623D01*
X81136753Y-118504322D01*
X81129881Y-118421243D01*
X81109264Y-118343662D01*
X81074902Y-118271579D01*
X81026796Y-118204994D01*
X80967579Y-118147343D01*
X80899276Y-118100229D01*
X80821886Y-118063653D01*
X80735409Y-118037615D01*
X80666381Y-118000962D01*
X80607737Y-118025703D01*
X80583913Y-118087095D01*
X80586220Y-118193252D01*
X80593144Y-118290177D01*
X80604682Y-118377871D01*
X80626827Y-118474618D01*
X80655996Y-118543723D01*
X80692190Y-118585186D01*
X80735409Y-118599007D01*
X80792221Y-118576405D01*
X80820321Y-118513485D01*
X80811768Y-118475611D01*
X80784415Y-118401492D01*
X80765071Y-118319227D01*
X80753735Y-118228818D01*
X80848421Y-118274634D01*
X80917450Y-118339997D01*
X80957309Y-118416509D01*
X80970596Y-118504322D01*
X80960974Y-118580528D01*
X80932111Y-118627108D01*
X80879117Y-118649557D01*
X80793442Y-118657040D01*
X80714200Y-118651591D01*
X80637254Y-118635244D01*
X80562605Y-118607999D01*
X80490254Y-118569856D01*
X80420199Y-118520816D01*
X80331316Y-118436973D01*
X80301689Y-118372373D01*
X80310318Y-118317776D01*
X80336203Y-118257834D01*
X80370718Y-118176894D01*
X80344756Y-118115196D01*
X80285806Y-118090150D01*
X80230064Y-118120388D01*
X80177682Y-118211103D01*
X80145611Y-118302428D01*
X80134921Y-118372373D01*
X79613642Y-118372373D01*
X79613642Y-117848855D01*
X80147138Y-117848855D01*
X80175849Y-117920632D01*
X80241213Y-117952092D01*
X80286875Y-117950260D01*
X80350559Y-117944762D01*
X80414243Y-117939264D01*
X80459905Y-117937431D01*
X80508164Y-117936973D01*
X80575971Y-117935599D01*
X80643778Y-117934224D01*
X80692037Y-117933766D01*
X80737089Y-117934377D01*
X80800162Y-117936210D01*
X80863235Y-117938042D01*
X80908286Y-117938653D01*
X80982202Y-117942624D01*
X81056118Y-117946594D01*
X81115373Y-117922770D01*
X81142862Y-117851298D01*
X81122839Y-117802428D01*
X81062770Y-117773106D01*
X80962654Y-117763332D01*
X80902178Y-117763867D01*
X80817266Y-117765470D01*
X80732355Y-117767074D01*
X80671878Y-117767608D01*
X80605141Y-117766692D01*
X80477010Y-117763943D01*
X80569948Y-117690972D01*
X80657561Y-117619892D01*
X80739848Y-117550701D01*
X80816808Y-117483400D01*
X80888443Y-117417988D01*
X80954751Y-117354467D01*
X81015733Y-117292836D01*
X81071390Y-117233094D01*
X81107584Y-117182086D01*
X81119649Y-117136576D01*
X81099948Y-117075794D01*
X81040846Y-117047389D01*
X80944328Y-117037004D01*
X80891793Y-117036775D01*
X80809936Y-117036087D01*
X80698757Y-117034942D01*
X80558256Y-117033338D01*
X80461738Y-117032117D01*
X80327308Y-117038340D01*
X80231286Y-117057010D01*
X80173673Y-117088126D01*
X80154469Y-117131689D01*
X80175544Y-117198580D01*
X80238769Y-117220877D01*
X80305965Y-117214768D01*
X80371940Y-117206827D01*
X80436730Y-117204154D01*
X80526032Y-117202245D01*
X80639846Y-117201100D01*
X80778170Y-117200718D01*
X80871023Y-117201329D01*
X80813699Y-117261421D01*
X80752770Y-117321693D01*
X80688236Y-117382147D01*
X80620097Y-117442782D01*
X80548354Y-117503598D01*
X80473005Y-117564595D01*
X80394052Y-117625773D01*
X80311493Y-117687132D01*
X80225330Y-117748671D01*
X80166686Y-117801207D01*
X80147138Y-117848855D01*
X79613642Y-117848855D01*
X79613642Y-116790822D01*
X80144084Y-116790822D01*
X80177376Y-116859850D01*
X80244267Y-116892227D01*
X80329026Y-116891539D01*
X80447688Y-116889478D01*
X80566350Y-116887416D01*
X80651109Y-116886729D01*
X80727468Y-116888180D01*
X80834371Y-116892532D01*
X80941274Y-116896885D01*
X81017633Y-116898335D01*
X81075971Y-116873900D01*
X81100712Y-116813424D01*
X81123925Y-116765623D01*
X81142251Y-116702856D01*
X81155079Y-116600229D01*
X81147749Y-116486810D01*
X81125757Y-116391718D01*
X81089105Y-116314951D01*
X81045733Y-116258954D01*
X80993809Y-116211510D01*
X80933332Y-116172618D01*
X80868648Y-116143771D01*
X80801655Y-116126463D01*
X80732355Y-116120693D01*
X80646604Y-116130124D01*
X80564670Y-116158415D01*
X80486555Y-116205567D01*
X80412257Y-116271579D01*
X80355446Y-116338088D01*
X80306576Y-116411164D01*
X80265648Y-116490806D01*
X80232660Y-116577016D01*
X80217236Y-116613974D01*
X80181958Y-116689417D01*
X80153552Y-116755391D01*
X80144084Y-116790822D01*
X79613642Y-116790822D01*
X79613642Y-116120693D01*
X79613642Y-116120589D01*
X79618608Y-116019498D01*
X79633459Y-115919381D01*
X79658052Y-115821202D01*
X79692149Y-115725905D01*
X79735423Y-115634410D01*
X79787457Y-115547597D01*
X79847749Y-115466302D01*
X79915720Y-115391309D01*
X79990713Y-115323338D01*
X80072008Y-115263046D01*
X80158821Y-115211012D01*
X80250316Y-115167738D01*
X80345613Y-115133641D01*
X80443792Y-115109048D01*
X80543909Y-115094197D01*
X80645000Y-115089231D01*
X80746091Y-115094197D01*
X80846208Y-115109048D01*
X80944387Y-115133641D01*
X81039684Y-115167738D01*
X81131179Y-115211012D01*
X81217992Y-115263046D01*
X81299287Y-115323338D01*
X81374280Y-115391309D01*
X81442251Y-115466302D01*
X81502543Y-115547597D01*
X81554577Y-115634410D01*
X81597851Y-115725905D01*
X81631948Y-115821202D01*
X81656541Y-115919381D01*
X81671392Y-116019498D01*
X81676358Y-116120589D01*
X81676358Y-116120693D01*
X81676358Y-116600229D01*
X81676358Y-117851298D01*
G37*
D14*
X59630000Y-120810000D02*
X60960000Y-120810000D01*
X59630000Y-121920000D02*
X59630000Y-120810000D01*
X59630000Y-123380000D02*
X62290000Y-123380000D01*
X59630000Y-132010000D02*
X59630000Y-123380000D01*
X59630000Y-132010000D02*
X62290000Y-132010000D01*
X59750000Y-132010000D02*
X59750000Y-123380000D01*
X59865455Y-132010000D02*
X59865455Y-123380000D01*
X59980910Y-132010000D02*
X59980910Y-123380000D01*
X60096365Y-132010000D02*
X60096365Y-123380000D01*
X60211820Y-132010000D02*
X60211820Y-123380000D01*
X60327275Y-132010000D02*
X60327275Y-123380000D01*
X60442730Y-132010000D02*
X60442730Y-123380000D01*
X60558185Y-132010000D02*
X60558185Y-123380000D01*
X60600000Y-123380000D02*
X60600000Y-123030000D01*
X60673640Y-132010000D02*
X60673640Y-123380000D01*
X60789095Y-132010000D02*
X60789095Y-123380000D01*
X60904550Y-132010000D02*
X60904550Y-123380000D01*
X61020005Y-132010000D02*
X61020005Y-123380000D01*
X61135460Y-132010000D02*
X61135460Y-123380000D01*
X61250915Y-132010000D02*
X61250915Y-123380000D01*
X61320000Y-123380000D02*
X61320000Y-123030000D01*
X61366370Y-132010000D02*
X61366370Y-123380000D01*
X61481825Y-132010000D02*
X61481825Y-123380000D01*
X61597280Y-132010000D02*
X61597280Y-123380000D01*
X61712735Y-132010000D02*
X61712735Y-123380000D01*
X61828190Y-132010000D02*
X61828190Y-123380000D01*
X61943645Y-132010000D02*
X61943645Y-123380000D01*
X62059100Y-132010000D02*
X62059100Y-123380000D01*
X62174555Y-132010000D02*
X62174555Y-123380000D01*
X62290000Y-132010000D02*
X62290000Y-123380000D01*
X54380000Y-99060000D02*
X55150000Y-99060000D01*
X55150000Y-97690000D02*
X55150000Y-100430000D01*
X55150000Y-100430000D02*
X61690000Y-100430000D01*
X61690000Y-97690000D02*
X55150000Y-97690000D01*
X61690000Y-100430000D02*
X61690000Y-97690000D01*
X62460000Y-99060000D02*
X61690000Y-99060000D01*
X128170000Y-116800000D02*
X128170000Y-122040000D01*
X128507000Y-116800000D02*
X128170000Y-116800000D01*
X128507000Y-122040000D02*
X128170000Y-122040000D01*
X130910000Y-116800000D02*
X130573000Y-116800000D01*
X130910000Y-116800000D02*
X130910000Y-122040000D01*
X130910000Y-122040000D02*
X130573000Y-122040000D01*
X102760000Y-72330000D02*
X102760000Y-92770000D01*
X102760000Y-92770000D02*
X104410000Y-92770000D01*
X106410000Y-92770000D02*
X108060000Y-92770000D01*
X108060000Y-72330000D02*
X102760000Y-72330000D01*
X108060000Y-92770000D02*
X108060000Y-72330000D01*
X110550000Y-92830000D02*
X100270000Y-92830000D01*
X100270000Y-72270000D01*
X110550000Y-72270000D01*
X110550000Y-92830000D01*
X104410000Y-92770000D02*
G75*
G02*
X106410000Y-92770000I1000000J0D01*
G01*
D15*
G36*
X133711232Y-115366324D02*
G01*
X133619203Y-115419948D01*
X132988043Y-115109803D01*
X133101812Y-115067774D01*
X133711232Y-115366324D01*
G37*
G36*
X133232971Y-120262158D02*
G01*
X133284420Y-120282267D01*
X133346739Y-120356904D01*
X133365580Y-120467774D01*
X133365580Y-120590238D01*
X132976449Y-120590238D01*
X132976449Y-120469948D01*
X132995290Y-120356542D01*
X133055435Y-120281904D01*
X133165580Y-120255455D01*
X133232971Y-120262158D01*
G37*
G36*
X133193478Y-119465962D02*
G01*
X133232156Y-119502828D01*
X133270652Y-119556180D01*
X133228986Y-119659803D01*
X133177899Y-119725020D01*
X133098188Y-119747484D01*
X133034601Y-119737248D01*
X132987319Y-119706542D01*
X132957971Y-119657357D01*
X132948188Y-119591687D01*
X132958333Y-119525745D01*
X132988768Y-119477194D01*
X133036051Y-119447303D01*
X133096739Y-119437339D01*
X133193478Y-119465962D01*
G37*
G36*
X133645652Y-119418045D02*
G01*
X133698913Y-119453643D01*
X133734783Y-119512430D01*
X133746739Y-119593861D01*
X133735417Y-119674477D01*
X133701449Y-119732267D01*
X133648279Y-119767049D01*
X133579348Y-119778643D01*
X133486594Y-119760527D01*
X133419565Y-119711977D01*
X133372826Y-119645310D01*
X133398551Y-119575926D01*
X133423551Y-119517049D01*
X133484420Y-119434803D01*
X133581522Y-119406180D01*
X133645652Y-119418045D01*
G37*
G36*
X133477899Y-115070763D02*
G01*
X133579348Y-115086252D01*
X133654982Y-115111705D01*
X133706522Y-115146759D01*
X133746014Y-115244585D01*
X133726087Y-115327194D01*
X133660507Y-115382629D01*
X133607156Y-115401107D01*
X133538406Y-115413788D01*
X133452808Y-115421125D01*
X133348913Y-115423571D01*
X133221176Y-115418418D01*
X133120089Y-115402959D01*
X133045652Y-115377194D01*
X132976902Y-115320853D01*
X132953986Y-115244585D01*
X132990580Y-115140238D01*
X133039674Y-115106451D01*
X133113768Y-115083353D01*
X133215851Y-115070038D01*
X133348913Y-115065600D01*
X133477899Y-115070763D01*
G37*
G36*
X133821377Y-116850382D02*
G01*
X133821377Y-117011252D01*
X133722826Y-117011252D01*
X133722826Y-116850382D01*
X133821377Y-116850382D01*
G37*
G36*
X134473792Y-116151832D02*
G01*
X134473792Y-116650382D01*
X134473792Y-117767049D01*
X134473792Y-118440962D01*
X134473792Y-119596035D01*
X134473792Y-120590238D01*
X134473792Y-120758353D01*
X134473792Y-120879126D01*
X134468381Y-120989277D01*
X134452199Y-121098367D01*
X134425402Y-121205346D01*
X134388249Y-121309183D01*
X134341096Y-121408878D01*
X134284399Y-121503472D01*
X134218703Y-121592053D01*
X134144641Y-121673768D01*
X134062926Y-121747830D01*
X133974346Y-121813526D01*
X133879752Y-121870223D01*
X133780057Y-121917375D01*
X133676220Y-121954529D01*
X133569241Y-121981325D01*
X133460151Y-121997507D01*
X133350000Y-122002919D01*
X133239849Y-121997507D01*
X133130759Y-121981325D01*
X133023780Y-121954529D01*
X132919943Y-121917375D01*
X132820248Y-121870223D01*
X132725654Y-121813526D01*
X132637074Y-121747830D01*
X132555359Y-121673768D01*
X132481297Y-121592053D01*
X132415601Y-121503472D01*
X132358904Y-121408878D01*
X132311751Y-121309183D01*
X132274598Y-121205346D01*
X132247801Y-121098367D01*
X132231619Y-120989277D01*
X132226208Y-120879126D01*
X132226208Y-120758353D01*
X132226208Y-120480817D01*
X132850362Y-120480817D01*
X132850362Y-120758353D01*
X133850362Y-120758353D01*
X133850362Y-120590238D01*
X133493841Y-120590238D01*
X133493841Y-120469223D01*
X133485326Y-120361252D01*
X133459783Y-120266324D01*
X133416123Y-120187611D01*
X133353261Y-120128281D01*
X133269746Y-120091053D01*
X133164130Y-120078643D01*
X133066989Y-120090519D01*
X132988124Y-120126147D01*
X132927536Y-120185527D01*
X132884662Y-120265841D01*
X132858937Y-120364271D01*
X132850362Y-120480817D01*
X132226208Y-120480817D01*
X132226208Y-119591687D01*
X132830072Y-119591687D01*
X132846739Y-119705455D01*
X132897101Y-119806180D01*
X132980435Y-119877919D01*
X133034511Y-119898027D01*
X133097464Y-119904730D01*
X133173098Y-119895219D01*
X133233333Y-119866687D01*
X133283243Y-119818589D01*
X133327899Y-119750382D01*
X133373641Y-119829911D01*
X133431159Y-119891687D01*
X133501178Y-119931361D01*
X133584420Y-119944585D01*
X133659873Y-119934622D01*
X133728261Y-119904730D01*
X133786504Y-119855274D01*
X133831522Y-119786614D01*
X133860326Y-119699839D01*
X133869928Y-119596035D01*
X133860236Y-119491415D01*
X133831159Y-119403643D01*
X133785688Y-119333625D01*
X133726812Y-119282267D01*
X133657518Y-119250745D01*
X133580797Y-119240238D01*
X133496830Y-119253643D01*
X133423188Y-119293861D01*
X133360960Y-119358897D01*
X133311232Y-119446759D01*
X133263859Y-119374295D01*
X133213043Y-119322122D01*
X133155707Y-119290600D01*
X133088768Y-119280093D01*
X132975725Y-119305455D01*
X132894928Y-119374658D01*
X132846377Y-119474295D01*
X132830072Y-119591687D01*
X132226208Y-119591687D01*
X132226208Y-118763426D01*
X132830072Y-118763426D01*
X132840036Y-118863969D01*
X132869928Y-118948209D01*
X132918478Y-119019948D01*
X132984420Y-119082991D01*
X133064855Y-118977194D01*
X133017391Y-118932810D01*
X132985145Y-118888064D01*
X132960507Y-118775020D01*
X132971377Y-118707267D01*
X133003986Y-118656180D01*
X133055435Y-118624114D01*
X133122826Y-118613426D01*
X133208696Y-118626107D01*
X133299275Y-118668498D01*
X133350362Y-118703643D01*
X133407246Y-118749658D01*
X133471739Y-118807448D01*
X133545652Y-118877919D01*
X133600765Y-118932589D01*
X133661272Y-118994183D01*
X133727174Y-119062701D01*
X133850362Y-119062701D01*
X133850362Y-118440962D01*
X133719928Y-118422122D01*
X133719928Y-118876469D01*
X133650161Y-118800866D01*
X133585789Y-118733474D01*
X133526812Y-118674295D01*
X133446196Y-118599748D01*
X133373188Y-118541324D01*
X133305525Y-118497846D01*
X133240942Y-118468136D01*
X133177355Y-118451017D01*
X133112681Y-118445310D01*
X133037500Y-118454640D01*
X132969928Y-118482629D01*
X132912591Y-118528281D01*
X132868116Y-118590600D01*
X132839583Y-118669132D01*
X132830072Y-118763426D01*
X132226208Y-118763426D01*
X132226208Y-117769223D01*
X132830072Y-117769223D01*
X132845018Y-117885709D01*
X132889855Y-117991687D01*
X132935910Y-118054328D01*
X132994364Y-118107951D01*
X133065217Y-118152556D01*
X133148108Y-118185970D01*
X133242673Y-118206019D01*
X133348913Y-118212701D01*
X133455998Y-118206220D01*
X133551167Y-118186775D01*
X133634420Y-118154368D01*
X133705475Y-118110729D01*
X133764050Y-118057589D01*
X133810145Y-117994948D01*
X133843357Y-117924698D01*
X133863285Y-117848732D01*
X133869928Y-117767049D01*
X133861141Y-117665238D01*
X133834783Y-117580093D01*
X133796286Y-117509984D01*
X133751087Y-117453281D01*
X133647464Y-117534440D01*
X133707246Y-117627919D01*
X133727083Y-117687701D01*
X133733696Y-117761252D01*
X133724094Y-117835709D01*
X133695290Y-117902556D01*
X133645290Y-117958897D01*
X133572101Y-118001832D01*
X133473913Y-118029006D01*
X133348913Y-118038064D01*
X133221739Y-118028553D01*
X133122826Y-118000020D01*
X133049819Y-117955727D01*
X133000362Y-117898933D01*
X132972101Y-117832991D01*
X132962681Y-117761252D01*
X132980797Y-117651832D01*
X133036594Y-117555455D01*
X132932246Y-117467774D01*
X132888678Y-117530364D01*
X132856522Y-117597846D01*
X132836685Y-117675654D01*
X132830072Y-117769223D01*
X132226208Y-117769223D01*
X132226208Y-116850382D01*
X132850362Y-116850382D01*
X132850362Y-116993861D01*
X133038768Y-117301107D01*
X133152536Y-117231542D01*
X133017029Y-117011252D01*
X133722826Y-117011252D01*
X133722826Y-117255455D01*
X133850362Y-117255455D01*
X133850362Y-116850382D01*
X133850362Y-116650382D01*
X133722826Y-116650382D01*
X133722826Y-116850382D01*
X132850362Y-116850382D01*
X132226208Y-116850382D01*
X132226208Y-115827919D01*
X132850362Y-115827919D01*
X132850362Y-116388064D01*
X133364130Y-116388064D01*
X133364130Y-116268498D01*
X133338768Y-116195672D01*
X133330797Y-116125020D01*
X133349638Y-116041687D01*
X133411594Y-115983353D01*
X133462409Y-115967321D01*
X133528623Y-115961977D01*
X133618569Y-115975111D01*
X133685507Y-116014513D01*
X133727083Y-116076741D01*
X133740942Y-116158353D01*
X133717391Y-116268861D01*
X133647464Y-116361252D01*
X133738768Y-116458353D01*
X133793207Y-116396488D01*
X133834783Y-116325382D01*
X133861141Y-116244132D01*
X133869928Y-116151832D01*
X133859149Y-116050201D01*
X133826812Y-115962701D01*
X133775181Y-115891234D01*
X133706522Y-115837701D01*
X133623641Y-115804277D01*
X133529348Y-115793136D01*
X133436051Y-115802103D01*
X133357609Y-115829006D01*
X133294928Y-115871488D01*
X133248913Y-115927194D01*
X133220652Y-115993861D01*
X133211232Y-116069223D01*
X133219565Y-116150020D01*
X133250362Y-116232991D01*
X132972101Y-116232991D01*
X132972101Y-115848933D01*
X132850362Y-115827919D01*
X132226208Y-115827919D01*
X132226208Y-115244585D01*
X132830072Y-115244585D01*
X132845129Y-115347927D01*
X132890298Y-115432830D01*
X132965580Y-115499295D01*
X133040353Y-115536863D01*
X133129167Y-115563698D01*
X133232020Y-115579798D01*
X133348913Y-115585165D01*
X133466168Y-115579798D01*
X133569384Y-115563698D01*
X133658560Y-115536863D01*
X133733696Y-115499295D01*
X133809380Y-115432830D01*
X133854791Y-115347927D01*
X133869928Y-115244585D01*
X133854791Y-115141606D01*
X133809380Y-115056824D01*
X133733696Y-114990238D01*
X133658560Y-114952511D01*
X133569384Y-114925564D01*
X133466168Y-114909395D01*
X133348913Y-114904006D01*
X133232020Y-114909395D01*
X133129167Y-114925564D01*
X133040353Y-114952511D01*
X132965580Y-114990238D01*
X132890298Y-115056824D01*
X132845129Y-115141606D01*
X132830072Y-115244585D01*
X132226208Y-115244585D01*
X132226208Y-114904006D01*
X132226208Y-113696276D01*
X133350000Y-112947081D01*
X134473792Y-113696276D01*
X134473792Y-114904006D01*
X134473792Y-115244585D01*
X134473792Y-116151832D01*
G37*
D14*
X53865000Y-52010000D02*
X53865000Y-72450000D01*
X53865000Y-72450000D02*
X55515000Y-72450000D01*
X57515000Y-72450000D02*
X59165000Y-72450000D01*
X59165000Y-52010000D02*
X53865000Y-52010000D01*
X59165000Y-72450000D02*
X59165000Y-52010000D01*
X61655000Y-72510000D02*
X51375000Y-72510000D01*
X51375000Y-51950000D01*
X61655000Y-51950000D01*
X61655000Y-72510000D01*
X55515000Y-72450000D02*
G75*
G02*
X57515000Y-72450000I1000000J0D01*
G01*
X53895000Y-73897000D02*
X53895000Y-73560000D01*
X53895000Y-76300000D02*
X53895000Y-75963000D01*
X59135000Y-73560000D02*
X53895000Y-73560000D01*
X59135000Y-73897000D02*
X59135000Y-73560000D01*
X59135000Y-76300000D02*
X53895000Y-76300000D01*
X59135000Y-76300000D02*
X59135000Y-75963000D01*
X76725000Y-52010000D02*
X76725000Y-72450000D01*
X76725000Y-72450000D02*
X78375000Y-72450000D01*
X80375000Y-72450000D02*
X82025000Y-72450000D01*
X82025000Y-52010000D02*
X76725000Y-52010000D01*
X82025000Y-72450000D02*
X82025000Y-52010000D01*
X84515000Y-72510000D02*
X74235000Y-72510000D01*
X74235000Y-51950000D01*
X84515000Y-51950000D01*
X84515000Y-72510000D01*
X78375000Y-72450000D02*
G75*
G02*
X80375000Y-72450000I1000000J0D01*
G01*
X96420000Y-62745000D02*
X96420000Y-67985000D01*
X96757000Y-62745000D02*
X96420000Y-62745000D01*
X96757000Y-67985000D02*
X96420000Y-67985000D01*
X99160000Y-62745000D02*
X98823000Y-62745000D01*
X99160000Y-62745000D02*
X99160000Y-67985000D01*
X99160000Y-67985000D02*
X98823000Y-67985000D01*
X89097896Y-129265000D02*
X90520400Y-129265000D01*
X89097896Y-131085000D02*
X90520400Y-131085000D01*
X118000000Y-72330000D02*
X118000000Y-92770000D01*
X118000000Y-92770000D02*
X123300000Y-92770000D01*
X119650000Y-72330000D02*
X118000000Y-72330000D01*
X123300000Y-72330000D02*
X121650000Y-72330000D01*
X123300000Y-92770000D02*
X123300000Y-72330000D01*
X115510000Y-72270000D02*
X125790000Y-72270000D01*
X125790000Y-92830000D01*
X115510000Y-92830000D01*
X115510000Y-72270000D01*
X121650000Y-72330000D02*
G75*
G02*
X119650000Y-72330000I-1000000J0D01*
G01*
X86280061Y-126678562D02*
X87484189Y-126678562D01*
X86280061Y-128498562D02*
X87484189Y-128498562D01*
X118000000Y-95190000D02*
X118000000Y-115630000D01*
X118000000Y-115630000D02*
X123300000Y-115630000D01*
X119650000Y-95190000D02*
X118000000Y-95190000D01*
X123300000Y-95190000D02*
X121650000Y-95190000D01*
X123300000Y-115630000D02*
X123300000Y-95190000D01*
X115510000Y-95130000D02*
X125790000Y-95130000D01*
X125790000Y-115690000D01*
X115510000Y-115690000D01*
X115510000Y-95130000D01*
X121650000Y-95190000D02*
G75*
G02*
X119650000Y-95190000I-1000000J0D01*
G01*
X44975000Y-81390000D02*
X44975000Y-63390000D01*
X47625000Y-78740000D02*
X47625000Y-81390000D01*
X47625000Y-81390000D02*
X44975000Y-81390000D01*
X50275000Y-63390000D02*
X44975000Y-63390000D01*
X50275000Y-78740000D02*
X47625000Y-78740000D01*
X50275000Y-78740000D02*
X50275000Y-63390000D01*
X50275000Y-80010000D02*
X50275000Y-81390000D01*
X50275000Y-81390000D02*
X48895000Y-81390000D01*
X65295000Y-52010000D02*
X65295000Y-72450000D01*
X65295000Y-72450000D02*
X66945000Y-72450000D01*
X68945000Y-72450000D02*
X70595000Y-72450000D01*
X70595000Y-52010000D02*
X65295000Y-52010000D01*
X70595000Y-72450000D02*
X70595000Y-52010000D01*
X73085000Y-72510000D02*
X62805000Y-72510000D01*
X62805000Y-51950000D01*
X73085000Y-51950000D01*
X73085000Y-72510000D01*
X66945000Y-72450000D02*
G75*
G02*
X68945000Y-72450000I1000000J0D01*
G01*
X71410000Y-77410000D02*
X71410000Y-113090000D01*
X71410000Y-113090000D02*
X72660000Y-113090000D01*
X74660000Y-113090000D02*
X75910000Y-113090000D01*
X75910000Y-77410000D02*
X71410000Y-77410000D01*
X75910000Y-113090000D02*
X75910000Y-77410000D01*
X78910000Y-113150000D02*
X68410000Y-113150000D01*
X68410000Y-77350000D01*
X78910000Y-77350000D01*
X78910000Y-113150000D01*
X72660000Y-113090000D02*
G75*
G02*
X74660000Y-113090000I1000000J0D01*
G01*
X105350000Y-120540000D02*
X105350000Y-125840000D01*
X105350000Y-125840000D02*
X125790000Y-125840000D01*
X125790000Y-120540000D02*
X105350000Y-120540000D01*
X125790000Y-122190000D02*
X125790000Y-120540000D01*
X125790000Y-125840000D02*
X125790000Y-124190000D01*
X125850000Y-118050000D02*
X105290000Y-118050000D01*
X105290000Y-128330000D01*
X125850000Y-128330000D01*
X125850000Y-118050000D01*
X125790000Y-124190000D02*
G75*
G02*
X125790000Y-122190000I0J1000000D01*
G01*
D15*
G36*
X133110984Y-108855598D02*
G01*
X133174662Y-108928696D01*
X133201433Y-109004420D01*
X133217496Y-109101643D01*
X133222850Y-109220362D01*
X133217577Y-109338680D01*
X133201755Y-109435660D01*
X133175386Y-109511304D01*
X133111890Y-109584402D01*
X133016329Y-109608768D01*
X132923031Y-109584583D01*
X132859082Y-109512029D01*
X132831707Y-109436787D01*
X132815282Y-109340048D01*
X132809807Y-109221812D01*
X132815161Y-109103011D01*
X132831224Y-109005548D01*
X132857995Y-108929420D01*
X132921673Y-108855779D01*
X133016329Y-108831232D01*
X133110984Y-108855598D01*
G37*
G36*
X135319716Y-108101619D02*
G01*
X135428806Y-108117801D01*
X135535785Y-108144598D01*
X135639622Y-108181751D01*
X135739317Y-108228904D01*
X135833911Y-108285601D01*
X135922491Y-108351297D01*
X136004206Y-108425359D01*
X136078268Y-108507074D01*
X136143964Y-108595654D01*
X136200662Y-108690248D01*
X136247814Y-108789943D01*
X136284967Y-108893780D01*
X136311764Y-109000759D01*
X136327946Y-109109849D01*
X136333357Y-109220000D01*
X136327946Y-109330151D01*
X136311764Y-109439241D01*
X136284967Y-109546220D01*
X136247814Y-109650057D01*
X136200662Y-109749752D01*
X136143964Y-109844346D01*
X136078268Y-109932926D01*
X136004206Y-110014641D01*
X135922491Y-110088703D01*
X135833911Y-110154399D01*
X135739317Y-110211096D01*
X135639622Y-110258249D01*
X135535785Y-110295402D01*
X135428806Y-110322199D01*
X135319716Y-110338381D01*
X135209565Y-110343792D01*
X135088792Y-110343792D01*
X134865604Y-110343792D01*
X133800386Y-110343792D01*
X133016329Y-110343792D01*
X132635894Y-110343792D01*
X130220435Y-110343792D01*
X130110284Y-110338381D01*
X130001194Y-110322199D01*
X129894215Y-110295402D01*
X129790378Y-110258249D01*
X129690683Y-110211096D01*
X129596089Y-110154399D01*
X129507509Y-110088703D01*
X129425794Y-110014641D01*
X129351732Y-109932926D01*
X129286036Y-109844346D01*
X129229339Y-109749752D01*
X129182186Y-109650057D01*
X129145033Y-109546220D01*
X129118236Y-109439241D01*
X129102054Y-109330151D01*
X129096732Y-109221812D01*
X132635894Y-109221812D01*
X132640644Y-109322093D01*
X132654895Y-109413277D01*
X132678647Y-109495362D01*
X132731999Y-109598623D01*
X132806546Y-109675797D01*
X132901564Y-109723895D01*
X133016329Y-109739928D01*
X133131546Y-109723533D01*
X133226473Y-109674348D01*
X133300749Y-109595906D01*
X133344562Y-109510217D01*
X133580097Y-109510217D01*
X133593774Y-109605960D01*
X133634807Y-109678696D01*
X133703557Y-109724620D01*
X133800386Y-109739928D01*
X133867778Y-109732409D01*
X133933720Y-109709855D01*
X133993321Y-109672989D01*
X134041691Y-109622536D01*
X134051836Y-109720362D01*
X134191691Y-109720362D01*
X134191691Y-108955145D01*
X134423575Y-108955145D01*
X134423575Y-109073261D01*
X134593865Y-109073261D01*
X134593865Y-109488478D01*
X134611165Y-109590562D01*
X134663068Y-109670725D01*
X134748303Y-109722627D01*
X134865604Y-109739928D01*
X134928104Y-109735761D01*
X134988068Y-109723261D01*
X135088792Y-109679783D01*
X135030097Y-109572536D01*
X134965604Y-109598623D01*
X134888068Y-109608768D01*
X134786981Y-109578696D01*
X134756184Y-109487029D01*
X134756184Y-109073261D01*
X134996039Y-109073261D01*
X135014155Y-108955145D01*
X134756184Y-108955145D01*
X134756184Y-108764565D01*
X134593865Y-108784130D01*
X134593865Y-108955145D01*
X134423575Y-108955145D01*
X134191691Y-108955145D01*
X134029372Y-108955145D01*
X134029372Y-109508768D01*
X133952560Y-109584855D01*
X133851836Y-109616014D01*
X133769589Y-109587029D01*
X133742415Y-109489928D01*
X133742415Y-108955145D01*
X133580097Y-108955145D01*
X133580097Y-109510217D01*
X133344562Y-109510217D01*
X133354010Y-109491739D01*
X133377762Y-109409573D01*
X133392013Y-109319114D01*
X133396763Y-109220362D01*
X133392013Y-109120000D01*
X133377762Y-109028575D01*
X133354010Y-108946087D01*
X133300749Y-108842192D01*
X133226473Y-108764565D01*
X133131546Y-108716196D01*
X133016329Y-108700072D01*
X132901564Y-108716649D01*
X132806546Y-108766377D01*
X132731999Y-108845362D01*
X132678647Y-108949710D01*
X132654895Y-109031957D01*
X132640644Y-109122657D01*
X132635894Y-109221812D01*
X129096732Y-109221812D01*
X129096643Y-109220000D01*
X129102054Y-109109849D01*
X129118236Y-109000759D01*
X129145033Y-108893780D01*
X129182186Y-108789943D01*
X129229339Y-108690248D01*
X129286036Y-108595654D01*
X129351732Y-108507074D01*
X129425794Y-108425359D01*
X129507509Y-108351297D01*
X129596089Y-108285601D01*
X129690683Y-108228904D01*
X129790378Y-108181751D01*
X129894215Y-108144598D01*
X130001194Y-108117801D01*
X130110284Y-108101619D01*
X130220435Y-108096208D01*
X132635894Y-108096208D01*
X135088792Y-108096208D01*
X135209565Y-108096208D01*
X135319716Y-108101619D01*
G37*
D14*
X96420000Y-91995000D02*
X96757000Y-91995000D01*
X96420000Y-97235000D02*
X96420000Y-91995000D01*
X96420000Y-97235000D02*
X96757000Y-97235000D01*
X98823000Y-91995000D02*
X99160000Y-91995000D01*
X98823000Y-97235000D02*
X99160000Y-97235000D01*
X99160000Y-97235000D02*
X99160000Y-91995000D01*
X53865000Y-90280000D02*
X53865000Y-88900000D01*
X55245000Y-90280000D02*
X53865000Y-90280000D01*
X56515000Y-87520000D02*
X61705000Y-87520000D01*
X56515000Y-90280000D02*
X56515000Y-87520000D01*
X56515000Y-90280000D02*
X61705000Y-90280000D01*
X61705000Y-90280000D02*
X61705000Y-87520000D01*
D15*
G36*
X80514742Y-129657229D02*
G01*
X80560557Y-129719539D01*
X80582345Y-129823387D01*
X80578069Y-129907077D01*
X80449786Y-129906466D01*
X80320280Y-129907077D01*
X80319059Y-129812391D01*
X80329596Y-129750082D01*
X80361209Y-129691438D01*
X80402290Y-129650204D01*
X80444899Y-129636460D01*
X80514742Y-129657229D01*
G37*
G36*
X80903054Y-129598891D02*
G01*
X80934819Y-129679221D01*
X80954774Y-129759110D01*
X80968214Y-129835062D01*
X80975137Y-129907077D01*
X80746670Y-129907077D01*
X80749877Y-129810253D01*
X80750946Y-129740919D01*
X80761942Y-129692966D01*
X80785155Y-129641958D01*
X80824404Y-129591102D01*
X80868845Y-129572929D01*
X80903054Y-129598891D01*
G37*
G36*
X80988882Y-128977633D02*
G01*
X81001404Y-129049410D01*
X80991096Y-129100724D01*
X80960171Y-129137376D01*
X80908781Y-129159367D01*
X80837080Y-129166698D01*
X80756673Y-129151121D01*
X80686499Y-129104389D01*
X80637706Y-129036887D01*
X80621441Y-128959001D01*
X80624190Y-128942813D01*
X80633048Y-128921127D01*
X80689554Y-128929374D01*
X80734453Y-128932123D01*
X80790653Y-128930086D01*
X80863143Y-128923978D01*
X80951924Y-128913796D01*
X80988882Y-128977633D01*
G37*
G36*
X81674791Y-128376228D02*
G01*
X81674791Y-128780626D01*
X81674791Y-129978549D01*
X81674791Y-130541163D01*
X81674791Y-130820333D01*
X81674791Y-130820437D01*
X81669873Y-130920540D01*
X81655167Y-131019679D01*
X81630815Y-131116898D01*
X81597051Y-131211263D01*
X81554199Y-131301864D01*
X81502674Y-131387829D01*
X81442971Y-131468329D01*
X81375665Y-131542590D01*
X81301404Y-131609896D01*
X81220904Y-131669599D01*
X81134939Y-131721124D01*
X81044338Y-131763975D01*
X80949974Y-131797740D01*
X80852754Y-131822092D01*
X80753615Y-131836798D01*
X80653512Y-131841716D01*
X80553409Y-131836798D01*
X80454270Y-131822092D01*
X80357050Y-131797740D01*
X80262686Y-131763975D01*
X80172085Y-131721124D01*
X80086120Y-131669599D01*
X80005620Y-131609896D01*
X79931359Y-131542590D01*
X79864053Y-131468329D01*
X79804350Y-131387829D01*
X79752825Y-131301864D01*
X79709973Y-131211263D01*
X79676209Y-131116898D01*
X79651857Y-131019679D01*
X79637151Y-130920540D01*
X79632233Y-130820437D01*
X79632233Y-130820333D01*
X79632233Y-130539942D01*
X80474221Y-130539942D01*
X80504764Y-130601793D01*
X80596395Y-130622410D01*
X80626328Y-130621799D01*
X80650763Y-130621188D01*
X80653207Y-130701212D01*
X80661148Y-130781237D01*
X80723457Y-130820333D01*
X80780879Y-130778182D01*
X80796762Y-130701212D01*
X80794318Y-130621188D01*
X80877092Y-130620272D01*
X80899389Y-130619966D01*
X80951007Y-130597364D01*
X80971472Y-130541163D01*
X80951007Y-130484963D01*
X80899389Y-130462361D01*
X80845632Y-130461750D01*
X80791264Y-130461750D01*
X80790348Y-130412575D01*
X80789431Y-130364010D01*
X80791569Y-130341713D01*
X80793707Y-130320027D01*
X80771105Y-130263827D01*
X80720403Y-130243057D01*
X80664966Y-130274212D01*
X80646487Y-130367675D01*
X80647709Y-130405244D01*
X80648930Y-130442202D01*
X80648320Y-130463583D01*
X80605558Y-130464193D01*
X80574709Y-130462055D01*
X80544471Y-130459917D01*
X80494074Y-130483741D01*
X80474221Y-130539942D01*
X79632233Y-130539942D01*
X79632233Y-129812391D01*
X80153512Y-129812391D01*
X80156872Y-129904633D01*
X80166951Y-129966331D01*
X80190470Y-130042232D01*
X80236591Y-130073234D01*
X80316004Y-130076289D01*
X80399083Y-130073234D01*
X81046609Y-130073234D01*
X81111973Y-130044218D01*
X81142516Y-129978549D01*
X81139195Y-129874510D01*
X81129230Y-129779862D01*
X81112622Y-129694607D01*
X81089370Y-129618744D01*
X81058979Y-129555366D01*
X81016676Y-129494737D01*
X80941844Y-129428305D01*
X80862736Y-129406160D01*
X80798442Y-129419141D01*
X80733842Y-129458085D01*
X80683139Y-129507260D01*
X80647098Y-129563155D01*
X80603879Y-129520546D01*
X80563408Y-129492904D01*
X80509651Y-129473662D01*
X80444899Y-129467248D01*
X80362974Y-129481026D01*
X80290687Y-129522362D01*
X80228039Y-129591255D01*
X80186635Y-129662795D01*
X80161793Y-129736507D01*
X80153512Y-129812391D01*
X79632233Y-129812391D01*
X79632233Y-128966942D01*
X80475442Y-128966942D01*
X80487083Y-129063189D01*
X80522004Y-129149933D01*
X80580207Y-129227174D01*
X80654768Y-129287583D01*
X80738763Y-129323828D01*
X80832193Y-129335910D01*
X80928168Y-129327731D01*
X81006767Y-129303194D01*
X81067990Y-129262300D01*
X81111769Y-129205047D01*
X81138037Y-129131437D01*
X81146792Y-129041469D01*
X81133048Y-128968775D01*
X81116020Y-128922654D01*
X81092425Y-128869813D01*
X81138240Y-128816973D01*
X81153512Y-128780626D01*
X81132131Y-128723509D01*
X81078375Y-128698769D01*
X81018509Y-128722593D01*
X80954978Y-128750693D01*
X80887324Y-128763063D01*
X80786988Y-128767187D01*
X80700549Y-128763827D01*
X80639156Y-128754358D01*
X80600671Y-128740308D01*
X80551343Y-128763369D01*
X80508430Y-128832550D01*
X80483689Y-128904328D01*
X80475442Y-128966942D01*
X79632233Y-128966942D01*
X79632233Y-128392721D01*
X80259804Y-128392721D01*
X80282406Y-128453198D01*
X80339218Y-128478243D01*
X80399694Y-128475800D01*
X80464447Y-128472746D01*
X80457116Y-128576594D01*
X80480940Y-128636460D01*
X80538973Y-128659673D01*
X80594181Y-128640507D01*
X80618081Y-128583008D01*
X80624725Y-128516041D01*
X80628161Y-128468470D01*
X80738882Y-128463659D01*
X80828527Y-128460223D01*
X80897098Y-128458161D01*
X80944593Y-128457474D01*
X81010568Y-128459306D01*
X81076542Y-128461139D01*
X81131521Y-128434261D01*
X81152290Y-128376228D01*
X81136679Y-128327018D01*
X81089845Y-128297493D01*
X81011789Y-128287651D01*
X80976664Y-128288262D01*
X80947037Y-128288873D01*
X80898472Y-128289560D01*
X80828527Y-128291622D01*
X80737202Y-128295058D01*
X80624496Y-128299868D01*
X80619609Y-128241835D01*
X80620525Y-128211597D01*
X80621441Y-128181359D01*
X80598228Y-128120882D01*
X80540195Y-128097058D01*
X80492852Y-128109276D01*
X80465668Y-128145928D01*
X80456505Y-128241835D01*
X80462003Y-128303534D01*
X80411912Y-128302312D01*
X80327407Y-128312357D01*
X80276705Y-128342494D01*
X80259804Y-128392721D01*
X79632233Y-128392721D01*
X79632233Y-127803228D01*
X80259804Y-127803228D01*
X80282406Y-127863705D01*
X80339218Y-127888751D01*
X80399694Y-127886307D01*
X80464447Y-127883253D01*
X80457116Y-127987101D01*
X80480940Y-128046967D01*
X80538973Y-128070180D01*
X80594181Y-128051014D01*
X80618081Y-127993515D01*
X80624725Y-127926548D01*
X80628161Y-127878977D01*
X80738882Y-127874166D01*
X80828527Y-127870730D01*
X80897098Y-127868668D01*
X80944593Y-127867981D01*
X81010568Y-127869813D01*
X81076542Y-127871646D01*
X81131521Y-127844768D01*
X81152290Y-127786735D01*
X81136679Y-127737525D01*
X81089845Y-127708000D01*
X81011789Y-127698158D01*
X80976664Y-127698769D01*
X80947037Y-127699380D01*
X80898472Y-127700067D01*
X80828527Y-127702129D01*
X80737202Y-127705565D01*
X80624496Y-127710375D01*
X80619609Y-127652342D01*
X80620525Y-127622104D01*
X80621441Y-127591866D01*
X80598228Y-127531389D01*
X80540195Y-127507565D01*
X80492852Y-127519783D01*
X80465668Y-127556435D01*
X80456505Y-127652342D01*
X80462003Y-127714041D01*
X80411912Y-127712819D01*
X80327407Y-127722864D01*
X80276705Y-127753001D01*
X80259804Y-127803228D01*
X79632233Y-127803228D01*
X79632233Y-127507565D01*
X79632233Y-127507461D01*
X79637151Y-127407358D01*
X79651857Y-127308220D01*
X79676209Y-127211000D01*
X79709973Y-127116635D01*
X79752825Y-127026034D01*
X79804350Y-126940069D01*
X79864053Y-126859569D01*
X79931359Y-126785308D01*
X80005620Y-126718002D01*
X80086120Y-126658299D01*
X80172085Y-126606774D01*
X80262686Y-126563923D01*
X80357050Y-126530158D01*
X80454270Y-126505806D01*
X80553409Y-126491100D01*
X80653512Y-126486182D01*
X80753615Y-126491100D01*
X80852754Y-126505806D01*
X80949974Y-126530158D01*
X81044338Y-126563923D01*
X81134939Y-126606774D01*
X81220904Y-126658299D01*
X81301404Y-126718002D01*
X81375665Y-126785308D01*
X81442971Y-126859569D01*
X81502674Y-126940069D01*
X81554199Y-127026034D01*
X81597051Y-127116635D01*
X81630815Y-127211000D01*
X81655167Y-127308220D01*
X81669873Y-127407358D01*
X81674791Y-127507461D01*
X81674791Y-127507565D01*
X81674791Y-127786735D01*
X81674791Y-128376228D01*
G37*
D14*
X92964625Y-121638562D02*
X96724625Y-121638562D01*
X92964625Y-128458562D02*
X96724625Y-128458562D01*
X96724625Y-121638562D02*
X96724625Y-122898562D01*
X96724625Y-128458562D02*
X96724625Y-127198562D01*
X91684625Y-121738562D02*
X91444625Y-121408562D01*
X91924625Y-121408562D01*
X91684625Y-121738562D01*
G36*
X91684625Y-121738562D02*
G01*
X91444625Y-121408562D01*
X91924625Y-121408562D01*
X91684625Y-121738562D01*
G37*
X128170000Y-68460000D02*
X128170000Y-73700000D01*
X128507000Y-68460000D02*
X128170000Y-68460000D01*
X128507000Y-73700000D02*
X128170000Y-73700000D01*
X130910000Y-68460000D02*
X130573000Y-68460000D01*
X130910000Y-68460000D02*
X130910000Y-73700000D01*
X130910000Y-73700000D02*
X130573000Y-73700000D01*
X77275000Y-120300000D02*
X84015000Y-120300000D01*
X77275000Y-126080000D02*
X77275000Y-120300000D01*
X77275000Y-126080000D02*
X84015000Y-126080000D01*
X78395000Y-126080000D02*
X78395000Y-120300000D01*
X83495000Y-126080000D02*
X83495000Y-120300000D01*
X84015000Y-124160000D02*
X84015000Y-120300000D01*
X84015000Y-126080000D02*
X84015000Y-124760000D01*
X84625000Y-124900000D02*
X84015000Y-124460000D01*
X84625000Y-124020000D01*
X84625000Y-124900000D01*
G36*
X84625000Y-124900000D02*
G01*
X84015000Y-124460000D01*
X84625000Y-124020000D01*
X84625000Y-124900000D01*
G37*
X73405245Y-116259106D02*
X74859373Y-116259106D01*
X73405245Y-118079106D02*
X74859373Y-118079106D01*
D15*
G36*
X133637319Y-101667371D02*
G01*
X133663406Y-101763748D01*
X133631159Y-101861212D01*
X133538043Y-101894183D01*
X133478533Y-101881864D01*
X133433333Y-101844907D01*
X133404801Y-101779328D01*
X133395290Y-101681139D01*
X133395290Y-101591284D01*
X133564130Y-101591284D01*
X133637319Y-101667371D01*
G37*
G36*
X133626449Y-100766647D02*
G01*
X133658333Y-100862299D01*
X133629710Y-100947806D01*
X133539855Y-101002154D01*
X133469475Y-101016284D01*
X133380797Y-101020994D01*
X133256793Y-101009581D01*
X133170290Y-100975342D01*
X133119475Y-100920632D01*
X133102536Y-100847806D01*
X133124638Y-100763748D01*
X133187319Y-100697806D01*
X133549638Y-100697806D01*
X133626449Y-100766647D01*
G37*
G36*
X133362591Y-103254147D02*
G01*
X133446377Y-103270994D01*
X133511866Y-103297534D01*
X133561232Y-103332226D01*
X133619203Y-103419545D01*
X133635870Y-103520270D01*
X133635870Y-103613023D01*
X132892391Y-103613023D01*
X132892391Y-103520994D01*
X132905435Y-103422806D01*
X132956159Y-103335125D01*
X133002536Y-103299618D01*
X133066304Y-103272081D01*
X133150543Y-103254418D01*
X133258333Y-103248531D01*
X133362591Y-103254147D01*
G37*
G36*
X134680314Y-99651429D02*
G01*
X134680314Y-100905052D01*
X134680314Y-101813023D01*
X134680314Y-102855052D01*
X134680314Y-103536212D01*
X134680314Y-103781139D01*
X134680314Y-104988869D01*
X133350000Y-105875745D01*
X132019686Y-104988869D01*
X132019686Y-103781139D01*
X132019686Y-103552878D01*
X132763406Y-103552878D01*
X132763406Y-103781139D01*
X133763406Y-103781139D01*
X133763406Y-103536212D01*
X133760145Y-103469545D01*
X133750362Y-103402878D01*
X133732518Y-103337933D01*
X133705072Y-103276429D01*
X133666486Y-103220089D01*
X133615217Y-103170632D01*
X133550091Y-103129509D01*
X133469928Y-103098168D01*
X133373188Y-103078331D01*
X133258333Y-103071719D01*
X133160990Y-103076228D01*
X133076691Y-103089754D01*
X133005435Y-103112299D01*
X132919384Y-103159853D01*
X132855435Y-103221357D01*
X132810870Y-103294183D01*
X132782971Y-103375704D01*
X132768297Y-103462933D01*
X132763406Y-103552878D01*
X132019686Y-103552878D01*
X132019686Y-102216647D01*
X132998188Y-102216647D01*
X132998188Y-102383313D01*
X133650362Y-102578965D01*
X132998188Y-102771719D01*
X132998188Y-102944183D01*
X133763406Y-102686212D01*
X133763406Y-102631139D01*
X133856884Y-102679328D01*
X133918841Y-102752516D01*
X133939583Y-102806411D01*
X133954710Y-102876067D01*
X134076449Y-102855052D01*
X134059239Y-102756502D01*
X134026449Y-102675342D01*
X133979438Y-102609400D01*
X133919565Y-102556502D01*
X133848098Y-102514291D01*
X133766304Y-102480415D01*
X132998188Y-102216647D01*
X132019686Y-102216647D01*
X132019686Y-101736936D01*
X132977899Y-101736936D01*
X132981069Y-101798168D01*
X132990580Y-101864473D01*
X133006793Y-101934038D01*
X133030072Y-102005052D01*
X133144565Y-101965197D01*
X133114493Y-101852878D01*
X133104710Y-101761574D01*
X133112862Y-101689563D01*
X133137319Y-101635849D01*
X133180254Y-101602425D01*
X133243841Y-101591284D01*
X133293841Y-101591284D01*
X133293841Y-101700704D01*
X133301087Y-101808595D01*
X133322826Y-101898450D01*
X133359058Y-101970270D01*
X133438225Y-102040922D01*
X133545290Y-102064473D01*
X133641576Y-102047534D01*
X133717391Y-101996719D01*
X133766576Y-101916918D01*
X133782971Y-101813023D01*
X133776268Y-101742009D01*
X133756159Y-101675342D01*
X133722826Y-101616465D01*
X133676449Y-101568820D01*
X133751087Y-101507226D01*
X133782246Y-101410125D01*
X133672101Y-101373893D01*
X133641304Y-101418096D01*
X133575725Y-101431864D01*
X133234420Y-101431864D01*
X133127174Y-101450795D01*
X133046014Y-101507589D01*
X133008172Y-101566727D01*
X132985467Y-101643176D01*
X132977899Y-101736936D01*
X132019686Y-101736936D01*
X132019686Y-100697806D01*
X132672826Y-100697806D01*
X133061232Y-100697806D01*
X132999275Y-100782589D01*
X132977899Y-100890560D01*
X132990942Y-100978603D01*
X133030072Y-101052878D01*
X133091938Y-101112480D01*
X133173188Y-101156502D01*
X133270562Y-101183675D01*
X133380797Y-101192733D01*
X133493207Y-101185034D01*
X133591304Y-101161936D01*
X133672101Y-101122897D01*
X133732609Y-101067371D01*
X133770380Y-100994907D01*
X133782971Y-100905052D01*
X133775543Y-100840922D01*
X133753261Y-100783313D01*
X133717391Y-100732770D01*
X133669203Y-100689835D01*
X133763406Y-100678241D01*
X133763406Y-100535487D01*
X132690942Y-100535487D01*
X132672826Y-100697806D01*
X132019686Y-100697806D01*
X132019686Y-100243458D01*
X132998188Y-100243458D01*
X133117029Y-100243458D01*
X133117029Y-100021719D01*
X133644565Y-100021719D01*
X133644565Y-100250704D01*
X133763406Y-100250704D01*
X133763406Y-99651429D01*
X133644565Y-99651429D01*
X133644565Y-99859400D01*
X132998188Y-99859400D01*
X132998188Y-99972444D01*
X132998188Y-100243458D01*
X132019686Y-100243458D01*
X132019686Y-99972444D01*
X132623551Y-99972444D01*
X132652536Y-100048531D01*
X132725000Y-100078241D01*
X132798188Y-100048531D01*
X132827899Y-99972444D01*
X132798188Y-99895270D01*
X132725000Y-99865922D01*
X132652536Y-99895270D01*
X132623551Y-99972444D01*
X132019686Y-99972444D01*
X132019686Y-99041284D01*
X132977899Y-99041284D01*
X132991214Y-99150886D01*
X133031159Y-99243458D01*
X133094022Y-99317643D01*
X133176087Y-99372081D01*
X133274004Y-99405505D01*
X133384420Y-99416647D01*
X133496558Y-99405596D01*
X133593841Y-99372444D01*
X133673641Y-99318458D01*
X133733333Y-99244907D01*
X133770562Y-99153060D01*
X133782971Y-99044183D01*
X133776359Y-98969273D01*
X133756522Y-98896719D01*
X133725996Y-98830686D01*
X133687319Y-98775342D01*
X133582971Y-98850704D01*
X133631159Y-98939110D01*
X133649638Y-99039110D01*
X133623188Y-99144907D01*
X133538406Y-99217733D01*
X133470743Y-99237570D01*
X133384420Y-99244183D01*
X133260688Y-99229781D01*
X133175000Y-99186574D01*
X133125000Y-99120723D01*
X133108333Y-99038386D01*
X133124638Y-98942371D01*
X133172101Y-98850704D01*
X133069928Y-98776067D01*
X133029891Y-98833857D01*
X133001087Y-98897081D01*
X132983696Y-98966103D01*
X132977899Y-99041284D01*
X132019686Y-99041284D01*
X132019686Y-98775342D01*
X132019686Y-98654569D01*
X132021288Y-98589294D01*
X132026092Y-98524176D01*
X132034085Y-98459372D01*
X132045248Y-98395038D01*
X132059554Y-98331329D01*
X132076969Y-98268399D01*
X132097451Y-98206400D01*
X132120950Y-98145480D01*
X132147410Y-98085787D01*
X132176768Y-98027464D01*
X132208952Y-97970651D01*
X132243884Y-97915486D01*
X132281482Y-97862102D01*
X132321653Y-97810627D01*
X132364302Y-97761185D01*
X132409326Y-97713895D01*
X132456616Y-97668872D01*
X132506058Y-97626223D01*
X132557533Y-97586051D01*
X132610917Y-97548454D01*
X132666082Y-97513521D01*
X132722894Y-97481337D01*
X132781217Y-97451980D01*
X132840911Y-97425519D01*
X132901831Y-97402020D01*
X132963830Y-97381538D01*
X133026760Y-97364123D01*
X133090469Y-97349817D01*
X133154802Y-97338654D01*
X133219606Y-97330661D01*
X133284725Y-97325858D01*
X133350000Y-97324255D01*
X133415275Y-97325858D01*
X133480394Y-97330661D01*
X133545198Y-97338654D01*
X133609531Y-97349817D01*
X133673240Y-97364123D01*
X133736170Y-97381538D01*
X133798169Y-97402020D01*
X133859089Y-97425519D01*
X133918783Y-97451980D01*
X133977106Y-97481337D01*
X134033918Y-97513521D01*
X134089083Y-97548454D01*
X134142467Y-97586051D01*
X134193942Y-97626223D01*
X134243384Y-97668872D01*
X134290674Y-97713895D01*
X134335698Y-97761185D01*
X134378347Y-97810627D01*
X134418518Y-97862102D01*
X134456116Y-97915486D01*
X134491048Y-97970651D01*
X134523232Y-98027464D01*
X134552590Y-98085787D01*
X134579050Y-98145480D01*
X134602549Y-98206400D01*
X134623031Y-98268399D01*
X134640446Y-98331329D01*
X134654752Y-98395038D01*
X134665915Y-98459372D01*
X134673908Y-98524176D01*
X134678712Y-98589294D01*
X134680314Y-98654569D01*
X134680314Y-98775342D01*
X134680314Y-99044183D01*
X134680314Y-99651429D01*
G37*
D14*
X102760000Y-95190000D02*
X102760000Y-115630000D01*
X102760000Y-115630000D02*
X104410000Y-115630000D01*
X106410000Y-115630000D02*
X108060000Y-115630000D01*
X108060000Y-95190000D02*
X102760000Y-95190000D01*
X108060000Y-115630000D02*
X108060000Y-95190000D01*
X110550000Y-115690000D02*
X100270000Y-115690000D01*
X100270000Y-95130000D01*
X110550000Y-95130000D01*
X110550000Y-115690000D01*
X104410000Y-115630000D02*
G75*
G02*
X106410000Y-115630000I1000000J0D01*
G01*
X118000000Y-49470000D02*
X118000000Y-69910000D01*
X118000000Y-69910000D02*
X123300000Y-69910000D01*
X119650000Y-49470000D02*
X118000000Y-49470000D01*
X123300000Y-49470000D02*
X121650000Y-49470000D01*
X123300000Y-69910000D02*
X123300000Y-49470000D01*
X115510000Y-49410000D02*
X125790000Y-49410000D01*
X125790000Y-69970000D01*
X115510000Y-69970000D01*
X115510000Y-49410000D01*
X121650000Y-49470000D02*
G75*
G02*
X119650000Y-49470000I-1000000J0D01*
G01*
X128170000Y-55760000D02*
X128507000Y-55760000D01*
X128170000Y-61000000D02*
X128170000Y-55760000D01*
X128170000Y-61000000D02*
X128507000Y-61000000D01*
X130573000Y-55760000D02*
X130910000Y-55760000D01*
X130573000Y-61000000D02*
X130910000Y-61000000D01*
X130910000Y-61000000D02*
X130910000Y-55760000D01*
X79910000Y-87510000D02*
X79910000Y-92750000D01*
X80247000Y-87510000D02*
X79910000Y-87510000D01*
X80247000Y-92750000D02*
X79910000Y-92750000D01*
X82650000Y-87510000D02*
X82313000Y-87510000D01*
X82650000Y-87510000D02*
X82650000Y-92750000D01*
X82650000Y-92750000D02*
X82313000Y-92750000D01*
X89425000Y-49420000D02*
X90805000Y-49420000D01*
X89425000Y-50800000D02*
X89425000Y-49420000D01*
X89425000Y-52070000D02*
X89425000Y-80120000D01*
X89425000Y-52070000D02*
X92075000Y-52070000D01*
X89425000Y-80120000D02*
X94725000Y-80120000D01*
X92075000Y-49420000D02*
X94725000Y-49420000D01*
X92075000Y-52070000D02*
X92075000Y-49420000D01*
X94725000Y-49420000D02*
X94725000Y-80120000D01*
X53865000Y-95360000D02*
X53865000Y-93980000D01*
X55245000Y-95360000D02*
X53865000Y-95360000D01*
X56515000Y-92600000D02*
X61705000Y-92600000D01*
X56515000Y-95360000D02*
X56515000Y-92600000D01*
X56515000Y-95360000D02*
X61705000Y-95360000D01*
X61705000Y-95360000D02*
X61705000Y-92600000D01*
X84760000Y-118323562D02*
X88820000Y-118323562D01*
X88820000Y-116053562D02*
X84760000Y-116053562D01*
X88820000Y-118323562D02*
X88820000Y-116053562D01*
X72985000Y-73897000D02*
X72985000Y-73560000D01*
X72985000Y-76300000D02*
X72985000Y-75963000D01*
X78225000Y-73560000D02*
X72985000Y-73560000D01*
X78225000Y-73897000D02*
X78225000Y-73560000D01*
X78225000Y-76300000D02*
X72985000Y-76300000D01*
X78225000Y-76300000D02*
X78225000Y-75963000D01*
X64730000Y-73560000D02*
X64730000Y-73897000D01*
X64730000Y-73560000D02*
X69970000Y-73560000D01*
X64730000Y-75963000D02*
X64730000Y-76300000D01*
X64730000Y-76300000D02*
X69970000Y-76300000D01*
X69970000Y-73560000D02*
X69970000Y-73897000D01*
X69970000Y-75963000D02*
X69970000Y-76300000D01*
X86284625Y-121162310D02*
X86284625Y-122584814D01*
X88104625Y-121162310D02*
X88104625Y-122584814D01*
X102760000Y-49470000D02*
X102760000Y-69910000D01*
X102760000Y-69910000D02*
X104410000Y-69910000D01*
X106410000Y-69910000D02*
X108060000Y-69910000D01*
X108060000Y-49470000D02*
X102760000Y-49470000D01*
X108060000Y-69910000D02*
X108060000Y-49470000D01*
X110550000Y-69970000D02*
X100270000Y-69970000D01*
X100270000Y-49410000D01*
X110550000Y-49410000D01*
X110550000Y-69970000D01*
X104410000Y-69910000D02*
G75*
G02*
X106410000Y-69910000I1000000J0D01*
G01*
X128170000Y-96400000D02*
X128507000Y-96400000D01*
X128170000Y-101640000D02*
X128170000Y-96400000D01*
X128170000Y-101640000D02*
X128507000Y-101640000D01*
X130573000Y-96400000D02*
X130910000Y-96400000D01*
X130573000Y-101640000D02*
X130910000Y-101640000D01*
X130910000Y-101640000D02*
X130910000Y-96400000D01*
X44975000Y-113140000D02*
X44975000Y-84980000D01*
X47625000Y-110490000D02*
X47625000Y-113140000D01*
X47625000Y-113140000D02*
X44975000Y-113140000D01*
X50275000Y-84980000D02*
X44975000Y-84980000D01*
X50275000Y-110490000D02*
X47625000Y-110490000D01*
X50275000Y-110490000D02*
X50275000Y-84980000D01*
X50275000Y-111760000D02*
X50275000Y-113140000D01*
X50275000Y-113140000D02*
X48895000Y-113140000D01*
X53865000Y-85200000D02*
X53865000Y-83820000D01*
X55245000Y-85200000D02*
X53865000Y-85200000D01*
X56515000Y-82440000D02*
X61705000Y-82440000D01*
X56515000Y-85200000D02*
X56515000Y-82440000D01*
X56515000Y-85200000D02*
X61705000Y-85200000D01*
X61705000Y-85200000D02*
X61705000Y-82440000D01*
X100230000Y-119260000D02*
X100567000Y-119260000D01*
X100230000Y-124500000D02*
X100230000Y-119260000D01*
X100230000Y-124500000D02*
X100567000Y-124500000D01*
X102633000Y-119260000D02*
X102970000Y-119260000D01*
X102633000Y-124500000D02*
X102970000Y-124500000D01*
X102970000Y-124500000D02*
X102970000Y-119260000D01*
X128795000Y-105300000D02*
X130175000Y-105300000D01*
X128795000Y-106680000D02*
X128795000Y-105300000D01*
X128795000Y-107950000D02*
X128795000Y-113140000D01*
X128795000Y-107950000D02*
X131555000Y-107950000D01*
X128795000Y-113140000D02*
X131555000Y-113140000D01*
X131555000Y-107950000D02*
X131555000Y-113140000D01*
%LPC*%
D16*
X53340000Y-101600000D03*
D17*
X63500000Y-101600000D03*
D18*
X60960000Y-121920000D03*
D16*
X53340000Y-99060000D03*
D17*
X63500000Y-99060000D03*
D16*
X129540000Y-116920000D03*
X129540000Y-121920000D03*
D19*
X109220000Y-91440000D03*
D16*
X109220000Y-88900000D03*
X109220000Y-86360000D03*
X109220000Y-83820000D03*
X109220000Y-81280000D03*
X109220000Y-78740000D03*
X109220000Y-76200000D03*
X109220000Y-73660000D03*
X101600000Y-73660000D03*
X101600000Y-76200000D03*
X101600000Y-78740000D03*
X101600000Y-81280000D03*
X101600000Y-83820000D03*
X101600000Y-86360000D03*
X101600000Y-88900000D03*
X101600000Y-91440000D03*
D19*
X60325000Y-71120000D03*
D16*
X60325000Y-68580000D03*
X60325000Y-66040000D03*
X60325000Y-63500000D03*
X60325000Y-60960000D03*
X60325000Y-58420000D03*
X60325000Y-55880000D03*
X60325000Y-53340000D03*
X52705000Y-53340000D03*
X52705000Y-55880000D03*
X52705000Y-58420000D03*
X52705000Y-60960000D03*
X52705000Y-63500000D03*
X52705000Y-66040000D03*
X52705000Y-68580000D03*
X52705000Y-71120000D03*
D20*
X43955000Y-125730000D03*
X44657944Y-124032944D03*
X44657944Y-127427056D03*
X46355000Y-123330000D03*
D21*
X46355000Y-125730000D03*
D20*
X46355000Y-128130000D03*
X48052056Y-124032944D03*
X48052056Y-127427056D03*
X48755000Y-125730000D03*
X129680000Y-129540000D03*
X130382944Y-127842944D03*
X130382944Y-131237056D03*
X132080000Y-127140000D03*
D21*
X132080000Y-129540000D03*
D20*
X132080000Y-131940000D03*
X133777056Y-127842944D03*
X133777056Y-131237056D03*
X134480000Y-129540000D03*
D16*
X59015000Y-74930000D03*
X54015000Y-74930000D03*
D20*
X129680000Y-49530000D03*
X130382944Y-47832944D03*
X130382944Y-51227056D03*
X132080000Y-47130000D03*
D21*
X132080000Y-49530000D03*
D20*
X132080000Y-51930000D03*
X133777056Y-47832944D03*
X133777056Y-51227056D03*
X134480000Y-49530000D03*
D19*
X83185000Y-71120000D03*
D16*
X83185000Y-68580000D03*
X83185000Y-66040000D03*
X83185000Y-63500000D03*
X83185000Y-60960000D03*
X83185000Y-58420000D03*
X83185000Y-55880000D03*
X83185000Y-53340000D03*
X75565000Y-53340000D03*
X75565000Y-55880000D03*
X75565000Y-58420000D03*
X75565000Y-60960000D03*
X75565000Y-63500000D03*
X75565000Y-66040000D03*
X75565000Y-68580000D03*
X75565000Y-71120000D03*
X97790000Y-62865000D03*
X97790000Y-67865000D03*
D22*
X88246648Y-130175000D03*
X91371648Y-130175000D03*
D23*
X116840000Y-73660000D03*
D16*
X116840000Y-76200000D03*
X116840000Y-78740000D03*
X116840000Y-81280000D03*
X116840000Y-83820000D03*
X116840000Y-86360000D03*
X116840000Y-88900000D03*
X116840000Y-91440000D03*
X124460000Y-91440000D03*
X124460000Y-88900000D03*
X124460000Y-86360000D03*
X124460000Y-83820000D03*
X124460000Y-81280000D03*
X124460000Y-78740000D03*
X124460000Y-76200000D03*
X124460000Y-73660000D03*
D24*
X85394625Y-127588562D03*
X88369625Y-127588562D03*
D23*
X116840000Y-96520000D03*
D16*
X116840000Y-99060000D03*
X116840000Y-101600000D03*
X116840000Y-104140000D03*
X116840000Y-106680000D03*
X116840000Y-109220000D03*
X116840000Y-111760000D03*
X116840000Y-114300000D03*
X124460000Y-114300000D03*
X124460000Y-111760000D03*
X124460000Y-109220000D03*
X124460000Y-106680000D03*
X124460000Y-104140000D03*
X124460000Y-101600000D03*
X124460000Y-99060000D03*
X124460000Y-96520000D03*
D25*
X48895000Y-80010000D03*
D26*
X46355000Y-80010000D03*
X48895000Y-77470000D03*
X46355000Y-77470000D03*
X48895000Y-74930000D03*
X46355000Y-74930000D03*
X48895000Y-72390000D03*
X46355000Y-72390000D03*
X48895000Y-69850000D03*
X46355000Y-69850000D03*
X48895000Y-67310000D03*
X46355000Y-67310000D03*
X48895000Y-64770000D03*
X46355000Y-64770000D03*
D19*
X71755000Y-71120000D03*
D16*
X71755000Y-68580000D03*
X71755000Y-66040000D03*
X71755000Y-63500000D03*
X71755000Y-60960000D03*
X71755000Y-58420000D03*
X71755000Y-55880000D03*
X71755000Y-53340000D03*
X64135000Y-53340000D03*
X64135000Y-55880000D03*
X64135000Y-58420000D03*
X64135000Y-60960000D03*
X64135000Y-63500000D03*
X64135000Y-66040000D03*
X64135000Y-68580000D03*
X64135000Y-71120000D03*
D27*
X77470000Y-111760000D03*
D28*
X77470000Y-109220000D03*
X77470000Y-106680000D03*
X77470000Y-104140000D03*
X77470000Y-101600000D03*
X77470000Y-99060000D03*
X77470000Y-96520000D03*
X77470000Y-93980000D03*
X77470000Y-91440000D03*
X77470000Y-88900000D03*
X77470000Y-86360000D03*
X77470000Y-83820000D03*
X77470000Y-81280000D03*
X77470000Y-78740000D03*
X69850000Y-78740000D03*
X69850000Y-81280000D03*
X69850000Y-83820000D03*
X69850000Y-86360000D03*
X69850000Y-88900000D03*
X69850000Y-91440000D03*
X69850000Y-93980000D03*
X69850000Y-96520000D03*
X69850000Y-99060000D03*
X69850000Y-101600000D03*
X69850000Y-104140000D03*
X69850000Y-106680000D03*
X69850000Y-109220000D03*
X69850000Y-111760000D03*
D29*
X124460000Y-119380000D03*
D16*
X121920000Y-119380000D03*
X119380000Y-119380000D03*
X116840000Y-119380000D03*
X114300000Y-119380000D03*
X111760000Y-119380000D03*
X109220000Y-119380000D03*
X106680000Y-119380000D03*
X106680000Y-127000000D03*
X109220000Y-127000000D03*
X111760000Y-127000000D03*
X114300000Y-127000000D03*
X116840000Y-127000000D03*
X119380000Y-127000000D03*
X121920000Y-127000000D03*
X124460000Y-127000000D03*
X97790000Y-97115000D03*
X97790000Y-92115000D03*
D18*
X55245000Y-88900000D03*
D26*
X57785000Y-88900000D03*
X60325000Y-88900000D03*
D30*
X91664625Y-122748562D03*
X91664625Y-125048562D03*
D31*
X97964625Y-125048562D03*
D30*
X91664625Y-127348562D03*
D16*
X129540000Y-68580000D03*
X129540000Y-73580000D03*
D32*
X80645000Y-124460000D03*
D33*
X80645000Y-121920000D03*
D34*
X72582309Y-117169106D03*
X75682309Y-117169106D03*
D19*
X109220000Y-114300000D03*
D16*
X109220000Y-111760000D03*
X109220000Y-109220000D03*
X109220000Y-106680000D03*
X109220000Y-104140000D03*
X109220000Y-101600000D03*
X109220000Y-99060000D03*
X109220000Y-96520000D03*
X101600000Y-96520000D03*
X101600000Y-99060000D03*
X101600000Y-101600000D03*
X101600000Y-104140000D03*
X101600000Y-106680000D03*
X101600000Y-109220000D03*
X101600000Y-111760000D03*
X101600000Y-114300000D03*
D23*
X116840000Y-50800000D03*
D16*
X116840000Y-53340000D03*
X116840000Y-55880000D03*
X116840000Y-58420000D03*
X116840000Y-60960000D03*
X116840000Y-63500000D03*
X116840000Y-66040000D03*
X116840000Y-68580000D03*
X124460000Y-68580000D03*
X124460000Y-66040000D03*
X124460000Y-63500000D03*
X124460000Y-60960000D03*
X124460000Y-58420000D03*
X124460000Y-55880000D03*
X124460000Y-53340000D03*
X124460000Y-50800000D03*
X129540000Y-60880000D03*
X129540000Y-55880000D03*
X81280000Y-87630000D03*
X81280000Y-92630000D03*
D35*
X90805000Y-50800000D03*
D26*
X93345000Y-50800000D03*
X90805000Y-53340000D03*
X93345000Y-53340000D03*
X90805000Y-55880000D03*
X93345000Y-55880000D03*
X90805000Y-58420000D03*
X93345000Y-58420000D03*
X90805000Y-60960000D03*
X93345000Y-60960000D03*
X90805000Y-63500000D03*
X93345000Y-63500000D03*
X90805000Y-66040000D03*
X93345000Y-66040000D03*
X90805000Y-68580000D03*
X93345000Y-68580000D03*
X90805000Y-71120000D03*
X93345000Y-71120000D03*
X90805000Y-73660000D03*
X93345000Y-73660000D03*
X90805000Y-76200000D03*
X93345000Y-76200000D03*
X90805000Y-78740000D03*
X93345000Y-78740000D03*
D20*
X43955000Y-52070000D03*
X44657944Y-50372944D03*
X44657944Y-53767056D03*
X46355000Y-49670000D03*
D21*
X46355000Y-52070000D03*
D20*
X46355000Y-54470000D03*
X48052056Y-50372944D03*
X48052056Y-53767056D03*
X48755000Y-52070000D03*
D18*
X55245000Y-93980000D03*
D26*
X57785000Y-93980000D03*
X60325000Y-93980000D03*
D36*
X87847500Y-117188562D03*
X84872500Y-117188562D03*
D16*
X78105000Y-74930000D03*
X73105000Y-74930000D03*
X64850000Y-74930000D03*
X69850000Y-74930000D03*
D37*
X87194625Y-120311062D03*
X87194625Y-123436062D03*
D19*
X109220000Y-68580000D03*
D16*
X109220000Y-66040000D03*
X109220000Y-63500000D03*
X109220000Y-60960000D03*
X109220000Y-58420000D03*
X109220000Y-55880000D03*
X109220000Y-53340000D03*
X109220000Y-50800000D03*
X101600000Y-50800000D03*
X101600000Y-53340000D03*
X101600000Y-55880000D03*
X101600000Y-58420000D03*
X101600000Y-60960000D03*
X101600000Y-63500000D03*
X101600000Y-66040000D03*
X101600000Y-68580000D03*
X129540000Y-101520000D03*
X129540000Y-96520000D03*
D25*
X48895000Y-111760000D03*
D26*
X46355000Y-111760000D03*
X48895000Y-109220000D03*
X46355000Y-109220000D03*
X48895000Y-106680000D03*
X46355000Y-106680000D03*
X48895000Y-104140000D03*
X46355000Y-104140000D03*
X48895000Y-101600000D03*
X46355000Y-101600000D03*
X48895000Y-99060000D03*
X46355000Y-99060000D03*
X48895000Y-96520000D03*
X46355000Y-96520000D03*
X48895000Y-93980000D03*
X46355000Y-93980000D03*
X48895000Y-91440000D03*
X46355000Y-91440000D03*
X48895000Y-88900000D03*
X46355000Y-88900000D03*
X48895000Y-86360000D03*
X46355000Y-86360000D03*
D18*
X55245000Y-83820000D03*
D26*
X57785000Y-83820000D03*
X60325000Y-83820000D03*
D16*
X101600000Y-124380000D03*
X101600000Y-119380000D03*
D35*
X130175000Y-106680000D03*
D26*
X130175000Y-109220000D03*
X130175000Y-111760000D03*
%LPD*%
M02*
