G04 #@! TF.GenerationSoftware,KiCad,Pcbnew,9.0.1*
G04 #@! TF.CreationDate,2025-04-29T21:50:36+02:00*
G04 #@! TF.ProjectId,DistributedPulseModulation,44697374-7269-4627-9574-656450756c73,rev?*
G04 #@! TF.SameCoordinates,Original*
G04 #@! TF.FileFunction,Soldermask,Top*
G04 #@! TF.FilePolarity,Negative*
%FSLAX46Y46*%
G04 Gerber Fmt 4.6, Leading zero omitted, Abs format (unit mm)*
G04 Created by KiCad (PCBNEW 9.0.1) date 2025-04-29 21:50:36*
%MOMM*%
%LPD*%
G01*
G04 APERTURE LIST*
G04 Aperture macros list*
%AMRoundRect*
0 Rectangle with rounded corners*
0 $1 Rounding radius*
0 $2 $3 $4 $5 $6 $7 $8 $9 X,Y pos of 4 corners*
0 Add a 4 corners polygon primitive as box body*
4,1,4,$2,$3,$4,$5,$6,$7,$8,$9,$2,$3,0*
0 Add four circle primitives for the rounded corners*
1,1,$1+$1,$2,$3*
1,1,$1+$1,$4,$5*
1,1,$1+$1,$6,$7*
1,1,$1+$1,$8,$9*
0 Add four rect primitives between the rounded corners*
20,1,$1+$1,$2,$3,$4,$5,0*
20,1,$1+$1,$4,$5,$6,$7,0*
20,1,$1+$1,$6,$7,$8,$9,0*
20,1,$1+$1,$8,$9,$2,$3,0*%
%AMFreePoly0*
4,1,18,0.558779,0.830902,0.583205,0.805470,1.083205,0.055470,1.099919,-0.004031,1.083205,-0.055470,0.583205,-0.805470,0.534710,-0.843783,0.500000,-0.850000,-0.500000,-0.850000,-0.558779,-0.830902,-0.595106,-0.780902,-0.600000,-0.750000,-0.600000,0.750000,-0.580902,0.808779,-0.530902,0.845106,-0.500000,0.850000,0.500000,0.850000,0.558779,0.830902,0.558779,0.830902,$1*%
%AMFreePoly1*
4,1,20,0.558779,0.830902,0.595106,0.780902,0.600000,0.750000,0.600000,-0.750000,0.580902,-0.808779,0.530902,-0.845106,0.500000,-0.850000,-0.650000,-0.850000,-0.708779,-0.830902,-0.745106,-0.780902,-0.745106,-0.719098,-0.733205,-0.694530,-0.270185,0.000000,-0.733205,0.694530,-0.749919,0.754031,-0.728467,0.811992,-0.677043,0.846274,-0.650000,0.850000,0.500000,0.850000,0.558779,0.830902,
0.558779,0.830902,$1*%
G04 Aperture macros list end*
%ADD10RoundRect,0.273810X0.876190X0.876190X-0.876190X0.876190X-0.876190X-0.876190X0.876190X-0.876190X0*%
%ADD11C,2.300000*%
%ADD12C,1.800000*%
%ADD13O,1.800000X1.800000*%
%ADD14FreePoly0,180.000000*%
%ADD15FreePoly1,180.000000*%
%ADD16RoundRect,0.100000X0.850000X-0.850000X0.850000X0.850000X-0.850000X0.850000X-0.850000X-0.850000X0*%
%ADD17RoundRect,0.281250X0.618750X0.618750X-0.618750X0.618750X-0.618750X-0.618750X0.618750X-0.618750X0*%
%ADD18C,1.000000*%
%ADD19C,6.600000*%
%ADD20RoundRect,0.287735X-0.474765X-0.712265X0.474765X-0.712265X0.474765X0.712265X-0.474765X0.712265X0*%
%ADD21RoundRect,0.281250X-0.618750X-0.618750X0.618750X-0.618750X0.618750X0.618750X-0.618750X0.618750X0*%
%ADD22RoundRect,0.285088X-0.527412X-0.689912X0.527412X-0.689912X0.527412X0.689912X-0.527412X0.689912X0*%
%ADD23RoundRect,0.100000X0.850000X0.850000X-0.850000X0.850000X-0.850000X-0.850000X0.850000X-0.850000X0*%
%ADD24C,1.900000*%
%ADD25RoundRect,0.281250X1.018750X0.618750X-1.018750X0.618750X-1.018750X-0.618750X1.018750X-0.618750X0*%
%ADD26O,2.600000X1.800000*%
%ADD27RoundRect,0.281250X-0.618750X0.618750X-0.618750X-0.618750X0.618750X-0.618750X0.618750X0.618750X0*%
%ADD28RoundRect,0.425000X-0.675000X-0.425000X0.675000X-0.425000X0.675000X0.425000X-0.675000X0.425000X0*%
%ADD29RoundRect,0.550000X-0.550000X-1.450000X0.550000X-1.450000X0.550000X1.450000X-0.550000X1.450000X0*%
%ADD30RoundRect,0.288462X-0.461538X-0.686538X0.461538X-0.686538X0.461538X0.686538X-0.461538X0.686538X0*%
%ADD31RoundRect,0.100000X-0.850000X-0.850000X0.850000X-0.850000X0.850000X0.850000X-0.850000X0.850000X0*%
%ADD32RoundRect,0.285088X0.527412X0.689912X-0.527412X0.689912X-0.527412X-0.689912X0.527412X-0.689912X0*%
%ADD33RoundRect,0.287735X-0.712265X0.474765X-0.712265X-0.474765X0.712265X-0.474765X0.712265X0.474765X0*%
%ADD34RoundRect,0.100000X0.800000X-0.150000X0.800000X0.150000X-0.800000X0.150000X-0.800000X-0.150000X0*%
%ADD35RoundRect,0.100000X-0.850000X0.850000X-0.850000X-0.850000X0.850000X-0.850000X0.850000X0.850000X0*%
G04 APERTURE END LIST*
G36*
X59645000Y-112510000D02*
G01*
X57195000Y-112510000D01*
X57195000Y-111010000D01*
X59645000Y-111010000D01*
X59645000Y-112510000D01*
G37*
D10*
X73660000Y-127000000D03*
D11*
X71120000Y-127000000D03*
D12*
X53340000Y-101600000D03*
D13*
X63500000Y-101600000D03*
D14*
X59145000Y-111760000D03*
D15*
X57695000Y-111760000D03*
D16*
X58420000Y-123190000D03*
D12*
X53340000Y-99060000D03*
D13*
X63500000Y-99060000D03*
D12*
X129540000Y-116920000D03*
X129540000Y-121920000D03*
D17*
X109220000Y-91440000D03*
D12*
X109220000Y-88900000D03*
X109220000Y-86360000D03*
X109220000Y-83820000D03*
X109220000Y-81280000D03*
X109220000Y-78740000D03*
X109220000Y-76200000D03*
X109220000Y-73660000D03*
X101600000Y-73660000D03*
X101600000Y-76200000D03*
X101600000Y-78740000D03*
X101600000Y-81280000D03*
X101600000Y-83820000D03*
X101600000Y-86360000D03*
X101600000Y-88900000D03*
X101600000Y-91440000D03*
D17*
X60325000Y-71120000D03*
D12*
X60325000Y-68580000D03*
X60325000Y-66040000D03*
X60325000Y-63500000D03*
X60325000Y-60960000D03*
X60325000Y-58420000D03*
X60325000Y-55880000D03*
X60325000Y-53340000D03*
X52705000Y-53340000D03*
X52705000Y-55880000D03*
X52705000Y-58420000D03*
X52705000Y-60960000D03*
X52705000Y-63500000D03*
X52705000Y-66040000D03*
X52705000Y-68580000D03*
X52705000Y-71120000D03*
D18*
X43955000Y-125730000D03*
X44657944Y-124032944D03*
X44657944Y-127427056D03*
X46355000Y-123330000D03*
D19*
X46355000Y-125730000D03*
D18*
X46355000Y-128130000D03*
X48052056Y-124032944D03*
X48052056Y-127427056D03*
X48755000Y-125730000D03*
X129680000Y-129540000D03*
X130382944Y-127842944D03*
X130382944Y-131237056D03*
X132080000Y-127140000D03*
D19*
X132080000Y-129540000D03*
D18*
X132080000Y-131940000D03*
X133777056Y-127842944D03*
X133777056Y-131237056D03*
X134480000Y-129540000D03*
D12*
X59015000Y-74930000D03*
X54015000Y-74930000D03*
D18*
X129680000Y-49530000D03*
X130382944Y-47832944D03*
X130382944Y-51227056D03*
X132080000Y-47130000D03*
D19*
X132080000Y-49530000D03*
D18*
X132080000Y-51930000D03*
X133777056Y-47832944D03*
X133777056Y-51227056D03*
X134480000Y-49530000D03*
D17*
X83185000Y-71120000D03*
D12*
X83185000Y-68580000D03*
X83185000Y-66040000D03*
X83185000Y-63500000D03*
X83185000Y-60960000D03*
X83185000Y-58420000D03*
X83185000Y-55880000D03*
X83185000Y-53340000D03*
X75565000Y-53340000D03*
X75565000Y-55880000D03*
X75565000Y-58420000D03*
X75565000Y-60960000D03*
X75565000Y-63500000D03*
X75565000Y-66040000D03*
X75565000Y-68580000D03*
X75565000Y-71120000D03*
X97790000Y-62865000D03*
X97790000Y-67865000D03*
D20*
X88246648Y-130175000D03*
X91371648Y-130175000D03*
D21*
X116840000Y-73660000D03*
D12*
X116840000Y-76200000D03*
X116840000Y-78740000D03*
X116840000Y-81280000D03*
X116840000Y-83820000D03*
X116840000Y-86360000D03*
X116840000Y-88900000D03*
X116840000Y-91440000D03*
X124460000Y-91440000D03*
X124460000Y-88900000D03*
X124460000Y-86360000D03*
X124460000Y-83820000D03*
X124460000Y-81280000D03*
X124460000Y-78740000D03*
X124460000Y-76200000D03*
X124460000Y-73660000D03*
D22*
X85394625Y-127588562D03*
X88369625Y-127588562D03*
D21*
X116840000Y-96520000D03*
D12*
X116840000Y-99060000D03*
X116840000Y-101600000D03*
X116840000Y-104140000D03*
X116840000Y-106680000D03*
X116840000Y-109220000D03*
X116840000Y-111760000D03*
X116840000Y-114300000D03*
X124460000Y-114300000D03*
X124460000Y-111760000D03*
X124460000Y-109220000D03*
X124460000Y-106680000D03*
X124460000Y-104140000D03*
X124460000Y-101600000D03*
X124460000Y-99060000D03*
X124460000Y-96520000D03*
D23*
X48895000Y-80010000D03*
D24*
X46355000Y-80010000D03*
X48895000Y-77470000D03*
X46355000Y-77470000D03*
X48895000Y-74930000D03*
X46355000Y-74930000D03*
X48895000Y-72390000D03*
X46355000Y-72390000D03*
X48895000Y-69850000D03*
X46355000Y-69850000D03*
X48895000Y-67310000D03*
X46355000Y-67310000D03*
X48895000Y-64770000D03*
X46355000Y-64770000D03*
D17*
X71755000Y-71120000D03*
D12*
X71755000Y-68580000D03*
X71755000Y-66040000D03*
X71755000Y-63500000D03*
X71755000Y-60960000D03*
X71755000Y-58420000D03*
X71755000Y-55880000D03*
X71755000Y-53340000D03*
X64135000Y-53340000D03*
X64135000Y-55880000D03*
X64135000Y-58420000D03*
X64135000Y-60960000D03*
X64135000Y-63500000D03*
X64135000Y-66040000D03*
X64135000Y-68580000D03*
X64135000Y-71120000D03*
D25*
X77470000Y-111760000D03*
D26*
X77470000Y-109220000D03*
X77470000Y-106680000D03*
X77470000Y-104140000D03*
X77470000Y-101600000D03*
X77470000Y-99060000D03*
X77470000Y-96520000D03*
X77470000Y-93980000D03*
X77470000Y-91440000D03*
X77470000Y-88900000D03*
X77470000Y-86360000D03*
X77470000Y-83820000D03*
X77470000Y-81280000D03*
X77470000Y-78740000D03*
X69850000Y-78740000D03*
X69850000Y-81280000D03*
X69850000Y-83820000D03*
X69850000Y-86360000D03*
X69850000Y-88900000D03*
X69850000Y-91440000D03*
X69850000Y-93980000D03*
X69850000Y-96520000D03*
X69850000Y-99060000D03*
X69850000Y-101600000D03*
X69850000Y-104140000D03*
X69850000Y-106680000D03*
X69850000Y-109220000D03*
X69850000Y-111760000D03*
D27*
X124460000Y-119380000D03*
D12*
X121920000Y-119380000D03*
X119380000Y-119380000D03*
X116840000Y-119380000D03*
X114300000Y-119380000D03*
X111760000Y-119380000D03*
X109220000Y-119380000D03*
X106680000Y-119380000D03*
X106680000Y-127000000D03*
X109220000Y-127000000D03*
X111760000Y-127000000D03*
X114300000Y-127000000D03*
X116840000Y-127000000D03*
X119380000Y-127000000D03*
X121920000Y-127000000D03*
X124460000Y-127000000D03*
X97790000Y-97115000D03*
X97790000Y-92115000D03*
D16*
X55245000Y-88900000D03*
D24*
X57785000Y-88900000D03*
X60325000Y-88900000D03*
D28*
X91664625Y-122748562D03*
X91664625Y-125048562D03*
D29*
X97964625Y-125048562D03*
D28*
X91664625Y-127348562D03*
D12*
X129540000Y-68580000D03*
X129540000Y-73580000D03*
D30*
X73380000Y-120015000D03*
X76480000Y-120015000D03*
D17*
X109220000Y-114300000D03*
D12*
X109220000Y-111760000D03*
X109220000Y-109220000D03*
X109220000Y-106680000D03*
X109220000Y-104140000D03*
X109220000Y-101600000D03*
X109220000Y-99060000D03*
X109220000Y-96520000D03*
X101600000Y-96520000D03*
X101600000Y-99060000D03*
X101600000Y-101600000D03*
X101600000Y-104140000D03*
X101600000Y-106680000D03*
X101600000Y-109220000D03*
X101600000Y-111760000D03*
X101600000Y-114300000D03*
D21*
X116840000Y-50800000D03*
D12*
X116840000Y-53340000D03*
X116840000Y-55880000D03*
X116840000Y-58420000D03*
X116840000Y-60960000D03*
X116840000Y-63500000D03*
X116840000Y-66040000D03*
X116840000Y-68580000D03*
X124460000Y-68580000D03*
X124460000Y-66040000D03*
X124460000Y-63500000D03*
X124460000Y-60960000D03*
X124460000Y-58420000D03*
X124460000Y-55880000D03*
X124460000Y-53340000D03*
X124460000Y-50800000D03*
X129540000Y-60880000D03*
X129540000Y-55880000D03*
X81280000Y-87630000D03*
X81280000Y-92630000D03*
D31*
X90805000Y-50800000D03*
D24*
X93345000Y-50800000D03*
X90805000Y-53340000D03*
X93345000Y-53340000D03*
X90805000Y-55880000D03*
X93345000Y-55880000D03*
X90805000Y-58420000D03*
X93345000Y-58420000D03*
X90805000Y-60960000D03*
X93345000Y-60960000D03*
X90805000Y-63500000D03*
X93345000Y-63500000D03*
X90805000Y-66040000D03*
X93345000Y-66040000D03*
X90805000Y-68580000D03*
X93345000Y-68580000D03*
X90805000Y-71120000D03*
X93345000Y-71120000D03*
X90805000Y-73660000D03*
X93345000Y-73660000D03*
X90805000Y-76200000D03*
X93345000Y-76200000D03*
X90805000Y-78740000D03*
X93345000Y-78740000D03*
D18*
X43955000Y-52070000D03*
X44657944Y-50372944D03*
X44657944Y-53767056D03*
X46355000Y-49670000D03*
D19*
X46355000Y-52070000D03*
D18*
X46355000Y-54470000D03*
X48052056Y-50372944D03*
X48052056Y-53767056D03*
X48755000Y-52070000D03*
D16*
X55245000Y-93980000D03*
D24*
X57785000Y-93980000D03*
X60325000Y-93980000D03*
D32*
X83402500Y-120015000D03*
X80427500Y-120015000D03*
D12*
X78105000Y-74930000D03*
X73105000Y-74930000D03*
X64850000Y-74930000D03*
X69850000Y-74930000D03*
D33*
X87194625Y-120311062D03*
X87194625Y-123436062D03*
D17*
X109220000Y-68580000D03*
D12*
X109220000Y-66040000D03*
X109220000Y-63500000D03*
X109220000Y-60960000D03*
X109220000Y-58420000D03*
X109220000Y-55880000D03*
X109220000Y-53340000D03*
X109220000Y-50800000D03*
X101600000Y-50800000D03*
X101600000Y-53340000D03*
X101600000Y-55880000D03*
X101600000Y-58420000D03*
X101600000Y-60960000D03*
X101600000Y-63500000D03*
X101600000Y-66040000D03*
X101600000Y-68580000D03*
X129540000Y-101520000D03*
X129540000Y-96520000D03*
D34*
X59898685Y-107809994D03*
X59898685Y-107159994D03*
X59898685Y-106509994D03*
X59898685Y-105859994D03*
X56498685Y-105859994D03*
X56498685Y-106509994D03*
X56498685Y-107159994D03*
X56498685Y-107809994D03*
D23*
X48895000Y-111760000D03*
D24*
X46355000Y-111760000D03*
X48895000Y-109220000D03*
X46355000Y-109220000D03*
X48895000Y-106680000D03*
X46355000Y-106680000D03*
X48895000Y-104140000D03*
X46355000Y-104140000D03*
X48895000Y-101600000D03*
X46355000Y-101600000D03*
X48895000Y-99060000D03*
X46355000Y-99060000D03*
X48895000Y-96520000D03*
X46355000Y-96520000D03*
X48895000Y-93980000D03*
X46355000Y-93980000D03*
X48895000Y-91440000D03*
X46355000Y-91440000D03*
X48895000Y-88900000D03*
X46355000Y-88900000D03*
X48895000Y-86360000D03*
X46355000Y-86360000D03*
D16*
X55245000Y-83820000D03*
D24*
X57785000Y-83820000D03*
X60325000Y-83820000D03*
D12*
X101600000Y-124380000D03*
X101600000Y-119380000D03*
D35*
X60960000Y-116840000D03*
D24*
X58420000Y-116840000D03*
X55880000Y-116840000D03*
M02*
