G04 #@! TF.GenerationSoftware,KiCad,Pcbnew,10.0.5*
G04 #@! TF.CreationDate,2026-08-29T13:43:32+02:00*
G04 #@! TF.ProjectId,DistributedPulseModulation,44697374-7269-4627-9574-656450756c73,rev?*
G04 #@! TF.SameCoordinates,Original*
G04 #@! TF.FileFunction,Legend,Top*
G04 #@! TF.FilePolarity,Positive*
%FSLAX46Y46*%
G04 Gerber Fmt 4.6, Leading zero omitted, Abs format (unit mm)*
G04 Created by KiCad (PCBNEW 10.0.5) date 2026-08-29 13:43:32*
%MOMM*%
%LPD*%
G01*
G04 APERTURE LIST*
G04 Aperture macros list*
%AMRoundRect*
0 Rectangle with rounded corners*
0 $1 Rounding radius*
0 $2 $3 $4 $5 $6 $7 $8 $9 X,Y pos of 4 corners*
0 Add a 4 corners polygon primitive as box body*
4,1,4,$2,$3,$4,$5,$6,$7,$8,$9,$2,$3,0*
0 Add four circle primitives for the rounded corners*
1,1,$1+$1,$2,$3*
1,1,$1+$1,$4,$5*
1,1,$1+$1,$6,$7*
1,1,$1+$1,$8,$9*
0 Add four rect primitives between the rounded corners*
20,1,$1+$1,$2,$3,$4,$5,0*
20,1,$1+$1,$4,$5,$6,$7,0*
20,1,$1+$1,$6,$7,$8,$9,0*
20,1,$1+$1,$8,$9,$2,$3,0*%
G04 Aperture macros list end*
%ADD10C,0.500000*%
%ADD11C,1.000000*%
%ADD12C,0.150000*%
%ADD13C,0.125000*%
%ADD14C,0.120000*%
%ADD15C,0.000000*%
%ADD16C,1.800000*%
%ADD17RoundRect,0.100000X0.850000X-0.850000X0.850000X0.850000X-0.850000X0.850000X-0.850000X-0.850000X0*%
%ADD18RoundRect,0.350000X0.550000X0.550000X-0.550000X0.550000X-0.550000X-0.550000X0.550000X-0.550000X0*%
%ADD19C,1.700000*%
%ADD20C,1.000000*%
%ADD21C,6.600000*%
%ADD22RoundRect,0.100000X0.450000X-1.400000X0.450000X1.400000X-0.450000X1.400000X-0.450000X-1.400000X0*%
%ADD23RoundRect,0.350000X-0.550000X-0.550000X0.550000X-0.550000X0.550000X0.550000X-0.550000X0.550000X0*%
%ADD24RoundRect,0.100000X0.850000X0.850000X-0.850000X0.850000X-0.850000X-0.850000X0.850000X-0.850000X0*%
%ADD25C,1.900000*%
%ADD26RoundRect,0.350000X0.950000X0.550000X-0.950000X0.550000X-0.950000X-0.550000X0.950000X-0.550000X0*%
%ADD27O,2.600000X1.800000*%
%ADD28RoundRect,0.350000X-0.550000X0.550000X-0.550000X-0.550000X0.550000X-0.550000X0.550000X0.550000X0*%
%ADD29RoundRect,0.250000X-0.825000X-0.150000X0.825000X-0.150000X0.825000X0.150000X-0.825000X0.150000X0*%
%ADD30RoundRect,0.100000X-0.850000X-0.850000X0.850000X-0.850000X0.850000X0.850000X-0.850000X0.850000X0*%
%ADD31RoundRect,0.350000X0.310000X-0.970000X0.310000X0.970000X-0.310000X0.970000X-0.310000X-0.970000X0*%
G04 APERTURE END LIST*
D10*
X52705000Y-55880000D02*
X54610000Y-55880000D01*
D11*
X55880000Y-119380000D02*
X55881087Y-116840000D01*
D10*
X58420000Y-59690000D02*
X54610000Y-55880000D01*
X58420000Y-59690000D02*
X70485000Y-59690000D01*
D11*
X60961087Y-116840000D02*
X60960000Y-119380000D01*
D10*
X71755000Y-60960000D02*
X70485000Y-59690000D01*
D12*
X83185000Y-81915000D02*
X88265000Y-81915000D01*
X88265000Y-84455000D01*
X83185000Y-84455000D01*
X83185000Y-81915000D01*
X83185000Y-81915000D02*
X88265000Y-81915000D01*
X88265000Y-86995000D01*
X83185000Y-86995000D01*
X83185000Y-81915000D01*
X83185000Y-81915000D02*
X88265000Y-81915000D01*
X88265000Y-89535000D01*
X83185000Y-89535000D01*
X83185000Y-81915000D01*
X83185000Y-81915000D02*
X88265000Y-81915000D01*
X88265000Y-92075000D01*
X83185000Y-92075000D01*
X83185000Y-81915000D01*
X83185000Y-81915000D02*
X88265000Y-81915000D01*
X88265000Y-94615000D01*
X83185000Y-94615000D01*
X83185000Y-81915000D01*
X83185000Y-81915000D02*
X88265000Y-81915000D01*
X88265000Y-97155000D01*
X83185000Y-97155000D01*
X83185000Y-81915000D01*
X83185000Y-81915000D02*
X88265000Y-81915000D01*
X88265000Y-99695000D01*
X83185000Y-99695000D01*
X83185000Y-81915000D01*
X83185000Y-81915000D02*
X88265000Y-81915000D01*
X88265000Y-102235000D01*
X83185000Y-102235000D01*
X83185000Y-81915000D01*
X83185000Y-81915000D02*
X88265000Y-81915000D01*
X88265000Y-104775000D01*
X83185000Y-104775000D01*
X83185000Y-81915000D01*
X83185000Y-81915000D02*
X88265000Y-81915000D01*
X88265000Y-107315000D01*
X83185000Y-107315000D01*
X83185000Y-81915000D01*
X83185000Y-81915000D02*
X88265000Y-81915000D01*
X88265000Y-109855000D01*
X83185000Y-109855000D01*
X83185000Y-81915000D01*
X83185000Y-81915000D02*
X88265000Y-81915000D01*
X88265000Y-112395000D01*
X83185000Y-112395000D01*
X83185000Y-81915000D01*
X83820000Y-82550000D02*
X87630000Y-82550000D01*
X87630000Y-83820000D01*
X83820000Y-83820000D01*
X83820000Y-82550000D01*
G36*
X83820000Y-82550000D02*
G01*
X87630000Y-82550000D01*
X87630000Y-83820000D01*
X83820000Y-83820000D01*
X83820000Y-82550000D01*
G37*
X83820000Y-85090000D02*
X87630000Y-85090000D01*
X87630000Y-86360000D01*
X83820000Y-86360000D01*
X83820000Y-85090000D01*
G36*
X83820000Y-85090000D02*
G01*
X87630000Y-85090000D01*
X87630000Y-86360000D01*
X83820000Y-86360000D01*
X83820000Y-85090000D01*
G37*
X83820000Y-87630000D02*
X87630000Y-87630000D01*
X87630000Y-88900000D01*
X83820000Y-88900000D01*
X83820000Y-87630000D01*
G36*
X83820000Y-87630000D02*
G01*
X87630000Y-87630000D01*
X87630000Y-88900000D01*
X83820000Y-88900000D01*
X83820000Y-87630000D01*
G37*
X83820000Y-90170000D02*
X87630000Y-90170000D01*
X87630000Y-91440000D01*
X83820000Y-91440000D01*
X83820000Y-90170000D01*
G36*
X83820000Y-90170000D02*
G01*
X87630000Y-90170000D01*
X87630000Y-91440000D01*
X83820000Y-91440000D01*
X83820000Y-90170000D01*
G37*
X83820000Y-92710000D02*
X87630000Y-92710000D01*
X87630000Y-93980000D01*
X83820000Y-93980000D01*
X83820000Y-92710000D01*
G36*
X83820000Y-92710000D02*
G01*
X87630000Y-92710000D01*
X87630000Y-93980000D01*
X83820000Y-93980000D01*
X83820000Y-92710000D01*
G37*
X83820000Y-95250000D02*
X87630000Y-95250000D01*
X87630000Y-96520000D01*
X83820000Y-96520000D01*
X83820000Y-95250000D01*
G36*
X83820000Y-95250000D02*
G01*
X87630000Y-95250000D01*
X87630000Y-96520000D01*
X83820000Y-96520000D01*
X83820000Y-95250000D01*
G37*
X83820000Y-97790000D02*
X87630000Y-97790000D01*
X87630000Y-99060000D01*
X83820000Y-99060000D01*
X83820000Y-97790000D01*
G36*
X83820000Y-97790000D02*
G01*
X87630000Y-97790000D01*
X87630000Y-99060000D01*
X83820000Y-99060000D01*
X83820000Y-97790000D01*
G37*
X83820000Y-100330000D02*
X87630000Y-100330000D01*
X87630000Y-101600000D01*
X83820000Y-101600000D01*
X83820000Y-100330000D01*
G36*
X83820000Y-100330000D02*
G01*
X87630000Y-100330000D01*
X87630000Y-101600000D01*
X83820000Y-101600000D01*
X83820000Y-100330000D01*
G37*
X83820000Y-102870000D02*
X87630000Y-102870000D01*
X87630000Y-104140000D01*
X83820000Y-104140000D01*
X83820000Y-102870000D01*
G36*
X83820000Y-102870000D02*
G01*
X87630000Y-102870000D01*
X87630000Y-104140000D01*
X83820000Y-104140000D01*
X83820000Y-102870000D01*
G37*
X83820000Y-105410000D02*
X87630000Y-105410000D01*
X87630000Y-106680000D01*
X83820000Y-106680000D01*
X83820000Y-105410000D01*
G36*
X83820000Y-105410000D02*
G01*
X87630000Y-105410000D01*
X87630000Y-106680000D01*
X83820000Y-106680000D01*
X83820000Y-105410000D01*
G37*
X83820000Y-107950000D02*
X87630000Y-107950000D01*
X87630000Y-109220000D01*
X83820000Y-109220000D01*
X83820000Y-107950000D01*
G36*
X83820000Y-107950000D02*
G01*
X87630000Y-107950000D01*
X87630000Y-109220000D01*
X83820000Y-109220000D01*
X83820000Y-107950000D01*
G37*
X83820000Y-110490000D02*
X87630000Y-110490000D01*
X87630000Y-111760000D01*
X83820000Y-111760000D01*
X83820000Y-110490000D01*
G36*
X83820000Y-110490000D02*
G01*
X87630000Y-110490000D01*
X87630000Y-111760000D01*
X83820000Y-111760000D01*
X83820000Y-110490000D01*
G37*
X85725000Y-81915000D02*
X88265000Y-81915000D01*
X88265000Y-112395000D01*
X85725000Y-112395000D01*
X85725000Y-81915000D01*
X89535000Y-81915000D02*
X94615000Y-81915000D01*
X94615000Y-84455000D01*
X89535000Y-84455000D01*
X89535000Y-81915000D01*
X89535000Y-81915000D02*
X94615000Y-81915000D01*
X94615000Y-86995000D01*
X89535000Y-86995000D01*
X89535000Y-81915000D01*
X89535000Y-81915000D02*
X94615000Y-81915000D01*
X94615000Y-89535000D01*
X89535000Y-89535000D01*
X89535000Y-81915000D01*
X89535000Y-81915000D02*
X94615000Y-81915000D01*
X94615000Y-92075000D01*
X89535000Y-92075000D01*
X89535000Y-81915000D01*
X89535000Y-81915000D02*
X94615000Y-81915000D01*
X94615000Y-94615000D01*
X89535000Y-94615000D01*
X89535000Y-81915000D01*
X89535000Y-81915000D02*
X94615000Y-81915000D01*
X94615000Y-97155000D01*
X89535000Y-97155000D01*
X89535000Y-81915000D01*
X89535000Y-81915000D02*
X94615000Y-81915000D01*
X94615000Y-99695000D01*
X89535000Y-99695000D01*
X89535000Y-81915000D01*
X89535000Y-81915000D02*
X94615000Y-81915000D01*
X94615000Y-102235000D01*
X89535000Y-102235000D01*
X89535000Y-81915000D01*
X89535000Y-81915000D02*
X94615000Y-81915000D01*
X94615000Y-104775000D01*
X89535000Y-104775000D01*
X89535000Y-81915000D01*
X89535000Y-81915000D02*
X94615000Y-81915000D01*
X94615000Y-107315000D01*
X89535000Y-107315000D01*
X89535000Y-81915000D01*
X89535000Y-81915000D02*
X94615000Y-81915000D01*
X94615000Y-109855000D01*
X89535000Y-109855000D01*
X89535000Y-81915000D01*
X89535000Y-81915000D02*
X94615000Y-81915000D01*
X94615000Y-112395000D01*
X89535000Y-112395000D01*
X89535000Y-81915000D01*
X90170000Y-82550000D02*
X91440000Y-82550000D01*
X91440000Y-86360000D01*
X90170000Y-86360000D01*
X90170000Y-82550000D01*
G36*
X90170000Y-82550000D02*
G01*
X91440000Y-82550000D01*
X91440000Y-86360000D01*
X90170000Y-86360000D01*
X90170000Y-82550000D01*
G37*
X90170000Y-87630000D02*
X91440000Y-87630000D01*
X91440000Y-91440000D01*
X90170000Y-91440000D01*
X90170000Y-87630000D01*
G36*
X90170000Y-87630000D02*
G01*
X91440000Y-87630000D01*
X91440000Y-91440000D01*
X90170000Y-91440000D01*
X90170000Y-87630000D01*
G37*
X90170000Y-92710000D02*
X91440000Y-92710000D01*
X91440000Y-96520000D01*
X90170000Y-96520000D01*
X90170000Y-92710000D01*
G36*
X90170000Y-92710000D02*
G01*
X91440000Y-92710000D01*
X91440000Y-96520000D01*
X90170000Y-96520000D01*
X90170000Y-92710000D01*
G37*
X90170000Y-97790000D02*
X91440000Y-97790000D01*
X91440000Y-101600000D01*
X90170000Y-101600000D01*
X90170000Y-97790000D01*
G36*
X90170000Y-97790000D02*
G01*
X91440000Y-97790000D01*
X91440000Y-101600000D01*
X90170000Y-101600000D01*
X90170000Y-97790000D01*
G37*
X90170000Y-102870000D02*
X91440000Y-102870000D01*
X91440000Y-106680000D01*
X90170000Y-106680000D01*
X90170000Y-102870000D01*
G36*
X90170000Y-102870000D02*
G01*
X91440000Y-102870000D01*
X91440000Y-106680000D01*
X90170000Y-106680000D01*
X90170000Y-102870000D01*
G37*
X90170000Y-107950000D02*
X91440000Y-107950000D01*
X91440000Y-111760000D01*
X90170000Y-111760000D01*
X90170000Y-107950000D01*
G36*
X90170000Y-107950000D02*
G01*
X91440000Y-107950000D01*
X91440000Y-111760000D01*
X90170000Y-111760000D01*
X90170000Y-107950000D01*
G37*
X92075000Y-81915000D02*
X94615000Y-81915000D01*
X94615000Y-112395000D01*
X92075000Y-112395000D01*
X92075000Y-81915000D01*
X92710000Y-82550000D02*
X93980000Y-82550000D01*
X93980000Y-86360000D01*
X92710000Y-86360000D01*
X92710000Y-82550000D01*
G36*
X92710000Y-82550000D02*
G01*
X93980000Y-82550000D01*
X93980000Y-86360000D01*
X92710000Y-86360000D01*
X92710000Y-82550000D01*
G37*
X92710000Y-87630000D02*
X93980000Y-87630000D01*
X93980000Y-91440000D01*
X92710000Y-91440000D01*
X92710000Y-87630000D01*
G36*
X92710000Y-87630000D02*
G01*
X93980000Y-87630000D01*
X93980000Y-91440000D01*
X92710000Y-91440000D01*
X92710000Y-87630000D01*
G37*
X92710000Y-92710000D02*
X93980000Y-92710000D01*
X93980000Y-96520000D01*
X92710000Y-96520000D01*
X92710000Y-92710000D01*
G36*
X92710000Y-92710000D02*
G01*
X93980000Y-92710000D01*
X93980000Y-96520000D01*
X92710000Y-96520000D01*
X92710000Y-92710000D01*
G37*
X92710000Y-97790000D02*
X93980000Y-97790000D01*
X93980000Y-101600000D01*
X92710000Y-101600000D01*
X92710000Y-97790000D01*
G36*
X92710000Y-97790000D02*
G01*
X93980000Y-97790000D01*
X93980000Y-101600000D01*
X92710000Y-101600000D01*
X92710000Y-97790000D01*
G37*
X92710000Y-102870000D02*
X93980000Y-102870000D01*
X93980000Y-106680000D01*
X92710000Y-106680000D01*
X92710000Y-102870000D01*
G36*
X92710000Y-102870000D02*
G01*
X93980000Y-102870000D01*
X93980000Y-106680000D01*
X92710000Y-106680000D01*
X92710000Y-102870000D01*
G37*
X92710000Y-107950000D02*
X93980000Y-107950000D01*
X93980000Y-111760000D01*
X92710000Y-111760000D01*
X92710000Y-107950000D01*
G36*
X92710000Y-107950000D02*
G01*
X93980000Y-107950000D01*
X93980000Y-111760000D01*
X92710000Y-111760000D01*
X92710000Y-107950000D01*
G37*
X73164819Y-99072506D02*
X73879104Y-99072506D01*
X73879104Y-99072506D02*
X74021961Y-99120125D01*
X74021961Y-99120125D02*
X74117200Y-99215363D01*
X74117200Y-99215363D02*
X74164819Y-99358220D01*
X74164819Y-99358220D02*
X74164819Y-99453458D01*
X74164819Y-98120125D02*
X74164819Y-98596315D01*
X74164819Y-98596315D02*
X73164819Y-98596315D01*
X74069580Y-97215363D02*
X74117200Y-97262982D01*
X74117200Y-97262982D02*
X74164819Y-97405839D01*
X74164819Y-97405839D02*
X74164819Y-97501077D01*
X74164819Y-97501077D02*
X74117200Y-97643934D01*
X74117200Y-97643934D02*
X74021961Y-97739172D01*
X74021961Y-97739172D02*
X73926723Y-97786791D01*
X73926723Y-97786791D02*
X73736247Y-97834410D01*
X73736247Y-97834410D02*
X73593390Y-97834410D01*
X73593390Y-97834410D02*
X73402914Y-97786791D01*
X73402914Y-97786791D02*
X73307676Y-97739172D01*
X73307676Y-97739172D02*
X73212438Y-97643934D01*
X73212438Y-97643934D02*
X73164819Y-97501077D01*
X73164819Y-97501077D02*
X73164819Y-97405839D01*
X73164819Y-97405839D02*
X73212438Y-97262982D01*
X73212438Y-97262982D02*
X73260057Y-97215363D01*
X73164819Y-96501077D02*
X73879104Y-96501077D01*
X73879104Y-96501077D02*
X74021961Y-96548696D01*
X74021961Y-96548696D02*
X74117200Y-96643934D01*
X74117200Y-96643934D02*
X74164819Y-96786791D01*
X74164819Y-96786791D02*
X74164819Y-96882029D01*
X74164819Y-95548696D02*
X74164819Y-96024886D01*
X74164819Y-96024886D02*
X73164819Y-96024886D01*
X74069580Y-94643934D02*
X74117200Y-94691553D01*
X74117200Y-94691553D02*
X74164819Y-94834410D01*
X74164819Y-94834410D02*
X74164819Y-94929648D01*
X74164819Y-94929648D02*
X74117200Y-95072505D01*
X74117200Y-95072505D02*
X74021961Y-95167743D01*
X74021961Y-95167743D02*
X73926723Y-95215362D01*
X73926723Y-95215362D02*
X73736247Y-95262981D01*
X73736247Y-95262981D02*
X73593390Y-95262981D01*
X73593390Y-95262981D02*
X73402914Y-95215362D01*
X73402914Y-95215362D02*
X73307676Y-95167743D01*
X73307676Y-95167743D02*
X73212438Y-95072505D01*
X73212438Y-95072505D02*
X73164819Y-94929648D01*
X73164819Y-94929648D02*
X73164819Y-94834410D01*
X73164819Y-94834410D02*
X73212438Y-94691553D01*
X73212438Y-94691553D02*
X73260057Y-94643934D01*
X73164819Y-93929648D02*
X73879104Y-93929648D01*
X73879104Y-93929648D02*
X74021961Y-93977267D01*
X74021961Y-93977267D02*
X74117200Y-94072505D01*
X74117200Y-94072505D02*
X74164819Y-94215362D01*
X74164819Y-94215362D02*
X74164819Y-94310600D01*
X74164819Y-92977267D02*
X74164819Y-93453457D01*
X74164819Y-93453457D02*
X73164819Y-93453457D01*
X74069580Y-92072505D02*
X74117200Y-92120124D01*
X74117200Y-92120124D02*
X74164819Y-92262981D01*
X74164819Y-92262981D02*
X74164819Y-92358219D01*
X74164819Y-92358219D02*
X74117200Y-92501076D01*
X74117200Y-92501076D02*
X74021961Y-92596314D01*
X74021961Y-92596314D02*
X73926723Y-92643933D01*
X73926723Y-92643933D02*
X73736247Y-92691552D01*
X73736247Y-92691552D02*
X73593390Y-92691552D01*
X73593390Y-92691552D02*
X73402914Y-92643933D01*
X73402914Y-92643933D02*
X73307676Y-92596314D01*
X73307676Y-92596314D02*
X73212438Y-92501076D01*
X73212438Y-92501076D02*
X73164819Y-92358219D01*
X73164819Y-92358219D02*
X73164819Y-92262981D01*
X73164819Y-92262981D02*
X73212438Y-92120124D01*
X73212438Y-92120124D02*
X73260057Y-92072505D01*
X73164819Y-91358219D02*
X73879104Y-91358219D01*
X73879104Y-91358219D02*
X74021961Y-91405838D01*
X74021961Y-91405838D02*
X74117200Y-91501076D01*
X74117200Y-91501076D02*
X74164819Y-91643933D01*
X74164819Y-91643933D02*
X74164819Y-91739171D01*
X74164819Y-90405838D02*
X74164819Y-90882028D01*
X74164819Y-90882028D02*
X73164819Y-90882028D01*
X74069580Y-89501076D02*
X74117200Y-89548695D01*
X74117200Y-89548695D02*
X74164819Y-89691552D01*
X74164819Y-89691552D02*
X74164819Y-89786790D01*
X74164819Y-89786790D02*
X74117200Y-89929647D01*
X74117200Y-89929647D02*
X74021961Y-90024885D01*
X74021961Y-90024885D02*
X73926723Y-90072504D01*
X73926723Y-90072504D02*
X73736247Y-90120123D01*
X73736247Y-90120123D02*
X73593390Y-90120123D01*
X73593390Y-90120123D02*
X73402914Y-90072504D01*
X73402914Y-90072504D02*
X73307676Y-90024885D01*
X73307676Y-90024885D02*
X73212438Y-89929647D01*
X73212438Y-89929647D02*
X73164819Y-89786790D01*
X73164819Y-89786790D02*
X73164819Y-89691552D01*
X73164819Y-89691552D02*
X73212438Y-89548695D01*
X73212438Y-89548695D02*
X73260057Y-89501076D01*
D10*
X84379294Y-79501666D02*
X82379294Y-79501666D01*
X82379294Y-79501666D02*
X82379294Y-79025476D01*
X82379294Y-79025476D02*
X82474532Y-78739761D01*
X82474532Y-78739761D02*
X82665008Y-78549285D01*
X82665008Y-78549285D02*
X82855484Y-78454047D01*
X82855484Y-78454047D02*
X83236436Y-78358809D01*
X83236436Y-78358809D02*
X83522151Y-78358809D01*
X83522151Y-78358809D02*
X83903103Y-78454047D01*
X83903103Y-78454047D02*
X84093579Y-78549285D01*
X84093579Y-78549285D02*
X84284056Y-78739761D01*
X84284056Y-78739761D02*
X84379294Y-79025476D01*
X84379294Y-79025476D02*
X84379294Y-79501666D01*
X84379294Y-77501666D02*
X82379294Y-77501666D01*
X82379294Y-77501666D02*
X82379294Y-76739761D01*
X82379294Y-76739761D02*
X82474532Y-76549285D01*
X82474532Y-76549285D02*
X82569770Y-76454047D01*
X82569770Y-76454047D02*
X82760246Y-76358809D01*
X82760246Y-76358809D02*
X83045960Y-76358809D01*
X83045960Y-76358809D02*
X83236436Y-76454047D01*
X83236436Y-76454047D02*
X83331675Y-76549285D01*
X83331675Y-76549285D02*
X83426913Y-76739761D01*
X83426913Y-76739761D02*
X83426913Y-77501666D01*
X84379294Y-75501666D02*
X82379294Y-75501666D01*
X82379294Y-75501666D02*
X83807865Y-74834999D01*
X83807865Y-74834999D02*
X82379294Y-74168333D01*
X82379294Y-74168333D02*
X84379294Y-74168333D01*
X87599182Y-80501666D02*
X85599182Y-80501666D01*
X85599182Y-80501666D02*
X85599182Y-80025476D01*
X85599182Y-80025476D02*
X85694420Y-79739761D01*
X85694420Y-79739761D02*
X85884896Y-79549285D01*
X85884896Y-79549285D02*
X86075372Y-79454047D01*
X86075372Y-79454047D02*
X86456324Y-79358809D01*
X86456324Y-79358809D02*
X86742039Y-79358809D01*
X86742039Y-79358809D02*
X87122991Y-79454047D01*
X87122991Y-79454047D02*
X87313467Y-79549285D01*
X87313467Y-79549285D02*
X87503944Y-79739761D01*
X87503944Y-79739761D02*
X87599182Y-80025476D01*
X87599182Y-80025476D02*
X87599182Y-80501666D01*
X87599182Y-78501666D02*
X85599182Y-78501666D01*
X85599182Y-78501666D02*
X85599182Y-78025476D01*
X85599182Y-78025476D02*
X85694420Y-77739761D01*
X85694420Y-77739761D02*
X85884896Y-77549285D01*
X85884896Y-77549285D02*
X86075372Y-77454047D01*
X86075372Y-77454047D02*
X86456324Y-77358809D01*
X86456324Y-77358809D02*
X86742039Y-77358809D01*
X86742039Y-77358809D02*
X87122991Y-77454047D01*
X87122991Y-77454047D02*
X87313467Y-77549285D01*
X87313467Y-77549285D02*
X87503944Y-77739761D01*
X87503944Y-77739761D02*
X87599182Y-78025476D01*
X87599182Y-78025476D02*
X87599182Y-78501666D01*
X87599182Y-76501666D02*
X85599182Y-76501666D01*
X85599182Y-76501666D02*
X85599182Y-75739761D01*
X85599182Y-75739761D02*
X85694420Y-75549285D01*
X85694420Y-75549285D02*
X85789658Y-75454047D01*
X85789658Y-75454047D02*
X85980134Y-75358809D01*
X85980134Y-75358809D02*
X86265848Y-75358809D01*
X86265848Y-75358809D02*
X86456324Y-75454047D01*
X86456324Y-75454047D02*
X86551563Y-75549285D01*
X86551563Y-75549285D02*
X86646801Y-75739761D01*
X86646801Y-75739761D02*
X86646801Y-76501666D01*
X87599182Y-74501666D02*
X85599182Y-74501666D01*
X85599182Y-74501666D02*
X87027753Y-73834999D01*
X87027753Y-73834999D02*
X85599182Y-73168333D01*
X85599182Y-73168333D02*
X87599182Y-73168333D01*
X98054238Y-87899523D02*
X96054238Y-87899523D01*
X96054238Y-87899523D02*
X96054238Y-87137618D01*
X96054238Y-87137618D02*
X96149476Y-86947142D01*
X96149476Y-86947142D02*
X96244714Y-86851904D01*
X96244714Y-86851904D02*
X96435190Y-86756666D01*
X96435190Y-86756666D02*
X96720904Y-86756666D01*
X96720904Y-86756666D02*
X96911380Y-86851904D01*
X96911380Y-86851904D02*
X97006619Y-86947142D01*
X97006619Y-86947142D02*
X97101857Y-87137618D01*
X97101857Y-87137618D02*
X97101857Y-87899523D01*
X96054238Y-86089999D02*
X98054238Y-85613809D01*
X98054238Y-85613809D02*
X96625666Y-85232856D01*
X96625666Y-85232856D02*
X98054238Y-84851904D01*
X98054238Y-84851904D02*
X96054238Y-84375714D01*
X98054238Y-83613809D02*
X96054238Y-83613809D01*
X96054238Y-83613809D02*
X97482809Y-82947142D01*
X97482809Y-82947142D02*
X96054238Y-82280476D01*
X96054238Y-82280476D02*
X98054238Y-82280476D01*
D13*
G36*
X49498328Y-55627380D02*
G01*
X49468742Y-55621817D01*
X49444998Y-55605422D01*
X49425642Y-55575991D01*
X49413520Y-55554964D01*
X49403806Y-55546780D01*
X49392334Y-55544268D01*
X49360624Y-55542969D01*
X49329751Y-55548028D01*
X49294148Y-55564859D01*
X49251993Y-55597275D01*
X49201573Y-55650534D01*
X49152344Y-55715483D01*
X49116849Y-55775357D01*
X49093143Y-55830892D01*
X49079676Y-55882868D01*
X49075348Y-55932097D01*
X49079858Y-55970427D01*
X49093039Y-56004283D01*
X49115209Y-56034777D01*
X49144017Y-56058829D01*
X49175526Y-56072834D01*
X49210854Y-56077568D01*
X49246326Y-56074571D01*
X49282789Y-56065362D01*
X49320715Y-56049383D01*
X49403806Y-55996333D01*
X49444796Y-55973694D01*
X49468286Y-55968147D01*
X49489133Y-55970819D01*
X49507491Y-55978661D01*
X49524023Y-55991986D01*
X49540090Y-56016063D01*
X49545321Y-56042935D01*
X49542279Y-56062993D01*
X49533101Y-56081381D01*
X49516891Y-56098769D01*
X49453123Y-56146305D01*
X49391171Y-56181501D01*
X49330542Y-56205692D01*
X49270654Y-56219841D01*
X49210854Y-56224505D01*
X49151212Y-56218792D01*
X49097506Y-56202113D01*
X49048460Y-56174453D01*
X49003199Y-56134868D01*
X48967474Y-56089277D01*
X48942470Y-56040745D01*
X48927429Y-55988529D01*
X48922306Y-55931609D01*
X48928043Y-55862021D01*
X48945644Y-55790698D01*
X48976123Y-55716749D01*
X49021038Y-55639351D01*
X49082431Y-55557771D01*
X49142633Y-55494407D01*
X49199824Y-55449087D01*
X49254630Y-55418892D01*
X49307888Y-55401646D01*
X49360624Y-55396033D01*
X49404050Y-55397694D01*
X49438196Y-55402579D01*
X49464596Y-55385993D01*
X49496130Y-55380401D01*
X49521344Y-55384349D01*
X49540450Y-55395489D01*
X49554987Y-55414376D01*
X49565006Y-55443514D01*
X49571800Y-55490707D01*
X49574288Y-55549173D01*
X49570340Y-55574901D01*
X49558461Y-55598266D01*
X49542677Y-55614335D01*
X49523048Y-55623978D01*
X49498328Y-55627380D01*
G37*
G36*
X50156953Y-56193242D02*
G01*
X50083181Y-56217017D01*
X49957456Y-56242090D01*
X49839123Y-56257602D01*
X49754685Y-56262020D01*
X49710074Y-56258065D01*
X49677045Y-56247467D01*
X49652853Y-56231359D01*
X49635653Y-56209735D01*
X49624763Y-56181455D01*
X49620792Y-56144442D01*
X49631734Y-55971078D01*
X49642211Y-55727089D01*
X49645949Y-55442830D01*
X49651365Y-55413938D01*
X49667540Y-55389780D01*
X49691702Y-55373458D01*
X49721908Y-55367896D01*
X49752152Y-55373461D01*
X49776521Y-55389829D01*
X49792922Y-55414017D01*
X49798405Y-55442928D01*
X49794555Y-55729232D01*
X49783653Y-55980897D01*
X49773297Y-56115084D01*
X49859087Y-56108413D01*
X49968290Y-56088894D01*
X50105565Y-56053144D01*
X50129598Y-56049431D01*
X50151393Y-56052310D01*
X50169685Y-56060618D01*
X50185334Y-56074588D01*
X50199763Y-56098555D01*
X50204483Y-56124903D01*
X50199268Y-56153221D01*
X50184040Y-56175510D01*
X50156953Y-56193242D01*
G37*
G36*
X50420003Y-55969027D02*
G01*
X50419466Y-56199201D01*
X50416058Y-56222281D01*
X50405788Y-56243507D01*
X50391195Y-56258936D01*
X50373008Y-56268153D01*
X50350052Y-56271399D01*
X50323070Y-56267430D01*
X50300891Y-56255963D01*
X50282299Y-56236424D01*
X50267855Y-56207863D01*
X50263150Y-56177903D01*
X50270819Y-55813200D01*
X50278489Y-55448496D01*
X50283936Y-55420094D01*
X50300324Y-55396033D01*
X50324729Y-55379701D01*
X50354986Y-55374149D01*
X50385191Y-55379711D01*
X50409354Y-55396033D01*
X50425551Y-55420075D01*
X50430945Y-55448496D01*
X50426011Y-55581364D01*
X50418928Y-55714233D01*
X50480016Y-55651221D01*
X50702543Y-55410834D01*
X50720680Y-55395326D01*
X50739779Y-55386470D01*
X50760478Y-55383528D01*
X50789572Y-55388966D01*
X50814846Y-55405412D01*
X50832322Y-55429653D01*
X50838098Y-55458364D01*
X50830727Y-55480626D01*
X50795960Y-55531955D01*
X50708014Y-55634219D01*
X50609703Y-55737310D01*
X50505244Y-55840018D01*
X50624923Y-55953151D01*
X50693837Y-56014327D01*
X50750659Y-56059739D01*
X50779663Y-56077624D01*
X50810743Y-56090513D01*
X50837606Y-56102801D01*
X50855220Y-56118535D01*
X50865592Y-56137918D01*
X50869214Y-56162174D01*
X50865632Y-56184929D01*
X50854462Y-56207505D01*
X50839091Y-56223997D01*
X50820677Y-56233663D01*
X50798189Y-56237010D01*
X50762344Y-56232241D01*
X50718227Y-56216118D01*
X50663440Y-56185021D01*
X50595418Y-56134330D01*
X50546682Y-56090474D01*
X50420003Y-55969027D01*
G37*
G36*
X66643328Y-60707380D02*
G01*
X66613742Y-60701817D01*
X66589998Y-60685422D01*
X66570642Y-60655991D01*
X66558520Y-60634964D01*
X66548806Y-60626780D01*
X66537334Y-60624268D01*
X66505624Y-60622969D01*
X66474751Y-60628028D01*
X66439148Y-60644859D01*
X66396993Y-60677275D01*
X66346573Y-60730534D01*
X66297344Y-60795483D01*
X66261849Y-60855357D01*
X66238143Y-60910892D01*
X66224676Y-60962868D01*
X66220348Y-61012097D01*
X66224858Y-61050427D01*
X66238039Y-61084283D01*
X66260209Y-61114777D01*
X66289017Y-61138829D01*
X66320526Y-61152834D01*
X66355854Y-61157568D01*
X66391326Y-61154571D01*
X66427789Y-61145362D01*
X66465715Y-61129383D01*
X66548806Y-61076333D01*
X66589796Y-61053694D01*
X66613286Y-61048147D01*
X66634133Y-61050819D01*
X66652491Y-61058661D01*
X66669023Y-61071986D01*
X66685090Y-61096063D01*
X66690321Y-61122935D01*
X66687279Y-61142993D01*
X66678101Y-61161381D01*
X66661891Y-61178769D01*
X66598123Y-61226305D01*
X66536171Y-61261501D01*
X66475542Y-61285692D01*
X66415654Y-61299841D01*
X66355854Y-61304505D01*
X66296212Y-61298792D01*
X66242506Y-61282113D01*
X66193460Y-61254453D01*
X66148199Y-61214868D01*
X66112474Y-61169277D01*
X66087470Y-61120745D01*
X66072429Y-61068529D01*
X66067306Y-61011609D01*
X66073043Y-60942021D01*
X66090644Y-60870698D01*
X66121123Y-60796749D01*
X66166038Y-60719351D01*
X66227431Y-60637771D01*
X66287633Y-60574407D01*
X66344824Y-60529087D01*
X66399630Y-60498892D01*
X66452888Y-60481646D01*
X66505624Y-60476033D01*
X66549050Y-60477694D01*
X66583196Y-60482579D01*
X66609596Y-60465993D01*
X66641130Y-60460401D01*
X66666344Y-60464349D01*
X66685450Y-60475489D01*
X66699987Y-60494376D01*
X66710006Y-60523514D01*
X66716800Y-60570707D01*
X66719288Y-60629173D01*
X66715340Y-60654901D01*
X66703461Y-60678266D01*
X66687677Y-60694335D01*
X66668048Y-60703978D01*
X66643328Y-60707380D01*
G37*
G36*
X67301953Y-61273242D02*
G01*
X67228181Y-61297017D01*
X67102456Y-61322090D01*
X66984123Y-61337602D01*
X66899685Y-61342020D01*
X66855074Y-61338065D01*
X66822045Y-61327467D01*
X66797853Y-61311359D01*
X66780653Y-61289735D01*
X66769763Y-61261455D01*
X66765792Y-61224442D01*
X66776734Y-61051078D01*
X66787211Y-60807089D01*
X66790949Y-60522830D01*
X66796365Y-60493938D01*
X66812540Y-60469780D01*
X66836702Y-60453458D01*
X66866908Y-60447896D01*
X66897152Y-60453461D01*
X66921521Y-60469829D01*
X66937922Y-60494017D01*
X66943405Y-60522928D01*
X66939555Y-60809232D01*
X66928653Y-61060897D01*
X66918297Y-61195084D01*
X67004087Y-61188413D01*
X67113290Y-61168894D01*
X67250565Y-61133144D01*
X67274598Y-61129431D01*
X67296393Y-61132310D01*
X67314685Y-61140618D01*
X67330334Y-61154588D01*
X67344763Y-61178555D01*
X67349483Y-61204903D01*
X67344268Y-61233221D01*
X67329040Y-61255510D01*
X67301953Y-61273242D01*
G37*
G36*
X67565003Y-61049027D02*
G01*
X67564466Y-61279201D01*
X67561058Y-61302281D01*
X67550788Y-61323507D01*
X67536195Y-61338936D01*
X67518008Y-61348153D01*
X67495052Y-61351399D01*
X67468070Y-61347430D01*
X67445891Y-61335963D01*
X67427299Y-61316424D01*
X67412855Y-61287863D01*
X67408150Y-61257903D01*
X67415819Y-60893200D01*
X67423489Y-60528496D01*
X67428936Y-60500094D01*
X67445324Y-60476033D01*
X67469729Y-60459701D01*
X67499986Y-60454149D01*
X67530191Y-60459711D01*
X67554354Y-60476033D01*
X67570551Y-60500075D01*
X67575945Y-60528496D01*
X67571011Y-60661364D01*
X67563928Y-60794233D01*
X67625016Y-60731221D01*
X67847543Y-60490834D01*
X67865680Y-60475326D01*
X67884779Y-60466470D01*
X67905478Y-60463528D01*
X67934572Y-60468966D01*
X67959846Y-60485412D01*
X67977322Y-60509653D01*
X67983098Y-60538364D01*
X67975727Y-60560626D01*
X67940960Y-60611955D01*
X67853014Y-60714219D01*
X67754703Y-60817310D01*
X67650244Y-60920018D01*
X67769923Y-61033151D01*
X67838837Y-61094327D01*
X67895659Y-61139739D01*
X67924663Y-61157624D01*
X67955743Y-61170513D01*
X67982606Y-61182801D01*
X68000220Y-61198535D01*
X68010592Y-61217918D01*
X68014214Y-61242174D01*
X68010632Y-61264929D01*
X67999462Y-61287505D01*
X67984091Y-61303997D01*
X67965677Y-61313663D01*
X67943189Y-61317010D01*
X67907344Y-61312241D01*
X67863227Y-61296118D01*
X67808440Y-61265021D01*
X67740418Y-61214330D01*
X67691682Y-61170474D01*
X67565003Y-61049027D01*
G37*
G36*
X67992037Y-61479578D02*
G01*
X67992037Y-61376410D01*
X68777913Y-61376410D01*
X68777913Y-61479578D01*
X67992037Y-61479578D01*
G37*
G36*
X68958946Y-61212865D02*
G01*
X68955036Y-61254891D01*
X68944927Y-61283308D01*
X68930017Y-61301918D01*
X68910121Y-61313033D01*
X68883524Y-61317010D01*
X68853277Y-61311669D01*
X68829399Y-61296152D01*
X68813563Y-61272670D01*
X68808101Y-61242467D01*
X68808101Y-60484240D01*
X68810721Y-60464073D01*
X68818303Y-60446966D01*
X68831060Y-60432167D01*
X68855105Y-60418312D01*
X68885184Y-60413507D01*
X68914977Y-60418536D01*
X68938185Y-60432997D01*
X68953604Y-60455157D01*
X68958946Y-60484240D01*
X68958946Y-61212865D01*
G37*
G36*
X69414667Y-60731759D02*
G01*
X69460250Y-60747983D01*
X69500335Y-60774780D01*
X69535847Y-60813332D01*
X69560614Y-60853741D01*
X69578652Y-60899035D01*
X69589871Y-60950047D01*
X69593782Y-61007799D01*
X69589296Y-61070399D01*
X69576326Y-61126583D01*
X69555261Y-61177366D01*
X69526029Y-61223563D01*
X69493116Y-61259871D01*
X69456864Y-61287426D01*
X69416831Y-61307069D01*
X69372271Y-61319101D01*
X69322184Y-61323263D01*
X69272908Y-61318848D01*
X69228089Y-61305936D01*
X69186802Y-61284551D01*
X69148381Y-61254093D01*
X69113744Y-61213804D01*
X69088322Y-61167490D01*
X69071829Y-61114047D01*
X69064752Y-61051958D01*
X69064768Y-61051616D01*
X69216133Y-61051616D01*
X69220685Y-61093562D01*
X69233271Y-61126209D01*
X69253307Y-61151706D01*
X69274293Y-61167248D01*
X69297004Y-61176368D01*
X69322135Y-61179452D01*
X69352580Y-61175848D01*
X69379801Y-61165258D01*
X69404640Y-61147359D01*
X69426713Y-61120059D01*
X69440992Y-61086701D01*
X69447285Y-61045656D01*
X69445799Y-60981862D01*
X69437073Y-60936986D01*
X69423213Y-60906322D01*
X69405260Y-60886178D01*
X69382981Y-60874239D01*
X69354912Y-60869948D01*
X69323050Y-60873561D01*
X69295369Y-60884585D01*
X69270830Y-60903266D01*
X69248911Y-60930862D01*
X69230953Y-60966591D01*
X69219945Y-61006528D01*
X69216133Y-61051616D01*
X69064768Y-61051616D01*
X69067544Y-60992713D01*
X69079490Y-60937729D01*
X69100474Y-60886144D01*
X69130893Y-60837268D01*
X69166863Y-60797122D01*
X69207214Y-60766465D01*
X69252514Y-60744453D01*
X69303706Y-60730867D01*
X69362044Y-60726138D01*
X69414667Y-60731759D01*
G37*
G36*
X69936943Y-61326389D02*
G01*
X69877524Y-61321845D01*
X69824807Y-61308751D01*
X69777672Y-61287515D01*
X69735247Y-61258001D01*
X69697659Y-61218954D01*
X69671209Y-61174975D01*
X69655072Y-61125060D01*
X69649469Y-61067687D01*
X69653892Y-61015119D01*
X69667534Y-60960607D01*
X69691295Y-60903424D01*
X69726503Y-60842886D01*
X69765912Y-60791532D01*
X69805501Y-60754627D01*
X69845554Y-60729767D01*
X69886686Y-60715313D01*
X69929811Y-60710506D01*
X69967182Y-60713496D01*
X70011033Y-60723240D01*
X70062581Y-60741134D01*
X70108858Y-60764270D01*
X70136350Y-60786211D01*
X70150560Y-60807154D01*
X70154954Y-60828085D01*
X70150358Y-60853274D01*
X70136392Y-60875663D01*
X70113981Y-60892415D01*
X70085540Y-60898085D01*
X70061788Y-60892747D01*
X70028974Y-60873074D01*
X70005561Y-60860069D01*
X69973387Y-60851346D01*
X69929811Y-60848064D01*
X69911704Y-60851744D01*
X69891233Y-60864148D01*
X69867173Y-60888716D01*
X69838562Y-60930374D01*
X69810702Y-60985148D01*
X69795989Y-61030288D01*
X69791570Y-61067785D01*
X69796386Y-61103938D01*
X69810139Y-61133391D01*
X69833091Y-61157764D01*
X69860897Y-61174482D01*
X69894981Y-61185045D01*
X69936943Y-61188831D01*
X69974708Y-61182691D01*
X70026531Y-61160695D01*
X70075561Y-61137301D01*
X70093747Y-61132558D01*
X70121112Y-61137897D01*
X70144305Y-61154002D01*
X70160216Y-61177194D01*
X70165359Y-61202851D01*
X70161291Y-61220778D01*
X70147564Y-61240338D01*
X70120000Y-61262693D01*
X70072449Y-61288482D01*
X70015664Y-61311183D01*
X69971327Y-61322949D01*
X69936943Y-61326389D01*
G37*
D12*
X62684819Y-91463571D02*
X62208628Y-91796904D01*
X62684819Y-92034999D02*
X61684819Y-92034999D01*
X61684819Y-92034999D02*
X61684819Y-91654047D01*
X61684819Y-91654047D02*
X61732438Y-91558809D01*
X61732438Y-91558809D02*
X61780057Y-91511190D01*
X61780057Y-91511190D02*
X61875295Y-91463571D01*
X61875295Y-91463571D02*
X62018152Y-91463571D01*
X62018152Y-91463571D02*
X62113390Y-91511190D01*
X62113390Y-91511190D02*
X62161009Y-91558809D01*
X62161009Y-91558809D02*
X62208628Y-91654047D01*
X62208628Y-91654047D02*
X62208628Y-92034999D01*
X62780057Y-91273095D02*
X62780057Y-90511190D01*
X62637200Y-90320713D02*
X62684819Y-90177856D01*
X62684819Y-90177856D02*
X62684819Y-89939761D01*
X62684819Y-89939761D02*
X62637200Y-89844523D01*
X62637200Y-89844523D02*
X62589580Y-89796904D01*
X62589580Y-89796904D02*
X62494342Y-89749285D01*
X62494342Y-89749285D02*
X62399104Y-89749285D01*
X62399104Y-89749285D02*
X62303866Y-89796904D01*
X62303866Y-89796904D02*
X62256247Y-89844523D01*
X62256247Y-89844523D02*
X62208628Y-89939761D01*
X62208628Y-89939761D02*
X62161009Y-90130237D01*
X62161009Y-90130237D02*
X62113390Y-90225475D01*
X62113390Y-90225475D02*
X62065771Y-90273094D01*
X62065771Y-90273094D02*
X61970533Y-90320713D01*
X61970533Y-90320713D02*
X61875295Y-90320713D01*
X61875295Y-90320713D02*
X61780057Y-90273094D01*
X61780057Y-90273094D02*
X61732438Y-90225475D01*
X61732438Y-90225475D02*
X61684819Y-90130237D01*
X61684819Y-90130237D02*
X61684819Y-89892142D01*
X61684819Y-89892142D02*
X61732438Y-89749285D01*
X62589580Y-88749285D02*
X62637200Y-88796904D01*
X62637200Y-88796904D02*
X62684819Y-88939761D01*
X62684819Y-88939761D02*
X62684819Y-89034999D01*
X62684819Y-89034999D02*
X62637200Y-89177856D01*
X62637200Y-89177856D02*
X62541961Y-89273094D01*
X62541961Y-89273094D02*
X62446723Y-89320713D01*
X62446723Y-89320713D02*
X62256247Y-89368332D01*
X62256247Y-89368332D02*
X62113390Y-89368332D01*
X62113390Y-89368332D02*
X61922914Y-89320713D01*
X61922914Y-89320713D02*
X61827676Y-89273094D01*
X61827676Y-89273094D02*
X61732438Y-89177856D01*
X61732438Y-89177856D02*
X61684819Y-89034999D01*
X61684819Y-89034999D02*
X61684819Y-88939761D01*
X61684819Y-88939761D02*
X61732438Y-88796904D01*
X61732438Y-88796904D02*
X61780057Y-88749285D01*
X62684819Y-87844523D02*
X62684819Y-88320713D01*
X62684819Y-88320713D02*
X61684819Y-88320713D01*
X62684819Y-86987380D02*
X62684819Y-87558808D01*
X62684819Y-87273094D02*
X61684819Y-87273094D01*
X61684819Y-87273094D02*
X61827676Y-87368332D01*
X61827676Y-87368332D02*
X61922914Y-87463570D01*
X61922914Y-87463570D02*
X61970533Y-87558808D01*
X58874819Y-91487381D02*
X58398628Y-91820714D01*
X58874819Y-92058809D02*
X57874819Y-92058809D01*
X57874819Y-92058809D02*
X57874819Y-91677857D01*
X57874819Y-91677857D02*
X57922438Y-91582619D01*
X57922438Y-91582619D02*
X57970057Y-91535000D01*
X57970057Y-91535000D02*
X58065295Y-91487381D01*
X58065295Y-91487381D02*
X58208152Y-91487381D01*
X58208152Y-91487381D02*
X58303390Y-91535000D01*
X58303390Y-91535000D02*
X58351009Y-91582619D01*
X58351009Y-91582619D02*
X58398628Y-91677857D01*
X58398628Y-91677857D02*
X58398628Y-92058809D01*
X58970057Y-91296905D02*
X58970057Y-90535000D01*
X58827200Y-90344523D02*
X58874819Y-90201666D01*
X58874819Y-90201666D02*
X58874819Y-89963571D01*
X58874819Y-89963571D02*
X58827200Y-89868333D01*
X58827200Y-89868333D02*
X58779580Y-89820714D01*
X58779580Y-89820714D02*
X58684342Y-89773095D01*
X58684342Y-89773095D02*
X58589104Y-89773095D01*
X58589104Y-89773095D02*
X58493866Y-89820714D01*
X58493866Y-89820714D02*
X58446247Y-89868333D01*
X58446247Y-89868333D02*
X58398628Y-89963571D01*
X58398628Y-89963571D02*
X58351009Y-90154047D01*
X58351009Y-90154047D02*
X58303390Y-90249285D01*
X58303390Y-90249285D02*
X58255771Y-90296904D01*
X58255771Y-90296904D02*
X58160533Y-90344523D01*
X58160533Y-90344523D02*
X58065295Y-90344523D01*
X58065295Y-90344523D02*
X57970057Y-90296904D01*
X57970057Y-90296904D02*
X57922438Y-90249285D01*
X57922438Y-90249285D02*
X57874819Y-90154047D01*
X57874819Y-90154047D02*
X57874819Y-89915952D01*
X57874819Y-89915952D02*
X57922438Y-89773095D01*
X58874819Y-89344523D02*
X57874819Y-89344523D01*
X57874819Y-89344523D02*
X57874819Y-89106428D01*
X57874819Y-89106428D02*
X57922438Y-88963571D01*
X57922438Y-88963571D02*
X58017676Y-88868333D01*
X58017676Y-88868333D02*
X58112914Y-88820714D01*
X58112914Y-88820714D02*
X58303390Y-88773095D01*
X58303390Y-88773095D02*
X58446247Y-88773095D01*
X58446247Y-88773095D02*
X58636723Y-88820714D01*
X58636723Y-88820714D02*
X58731961Y-88868333D01*
X58731961Y-88868333D02*
X58827200Y-88963571D01*
X58827200Y-88963571D02*
X58874819Y-89106428D01*
X58874819Y-89106428D02*
X58874819Y-89344523D01*
X58589104Y-88392142D02*
X58589104Y-87915952D01*
X58874819Y-88487380D02*
X57874819Y-88154047D01*
X57874819Y-88154047D02*
X58874819Y-87820714D01*
X58874819Y-86963571D02*
X58874819Y-87534999D01*
X58874819Y-87249285D02*
X57874819Y-87249285D01*
X57874819Y-87249285D02*
X58017676Y-87344523D01*
X58017676Y-87344523D02*
X58112914Y-87439761D01*
X58112914Y-87439761D02*
X58160533Y-87534999D01*
X129899580Y-120062857D02*
X129947200Y-120110476D01*
X129947200Y-120110476D02*
X129994819Y-120253333D01*
X129994819Y-120253333D02*
X129994819Y-120348571D01*
X129994819Y-120348571D02*
X129947200Y-120491428D01*
X129947200Y-120491428D02*
X129851961Y-120586666D01*
X129851961Y-120586666D02*
X129756723Y-120634285D01*
X129756723Y-120634285D02*
X129566247Y-120681904D01*
X129566247Y-120681904D02*
X129423390Y-120681904D01*
X129423390Y-120681904D02*
X129232914Y-120634285D01*
X129232914Y-120634285D02*
X129137676Y-120586666D01*
X129137676Y-120586666D02*
X129042438Y-120491428D01*
X129042438Y-120491428D02*
X128994819Y-120348571D01*
X128994819Y-120348571D02*
X128994819Y-120253333D01*
X128994819Y-120253333D02*
X129042438Y-120110476D01*
X129042438Y-120110476D02*
X129090057Y-120062857D01*
X129994819Y-119110476D02*
X129994819Y-119681904D01*
X129994819Y-119396190D02*
X128994819Y-119396190D01*
X128994819Y-119396190D02*
X129137676Y-119491428D01*
X129137676Y-119491428D02*
X129232914Y-119586666D01*
X129232914Y-119586666D02*
X129280533Y-119681904D01*
X129994819Y-118158095D02*
X129994819Y-118729523D01*
X129994819Y-118443809D02*
X128994819Y-118443809D01*
X128994819Y-118443809D02*
X129137676Y-118539047D01*
X129137676Y-118539047D02*
X129232914Y-118634285D01*
X129232914Y-118634285D02*
X129280533Y-118729523D01*
X111849819Y-86462856D02*
X111849819Y-85796190D01*
X111849819Y-85796190D02*
X112849819Y-86224761D01*
X112183152Y-84986666D02*
X112849819Y-84986666D01*
X111802200Y-85224761D02*
X112516485Y-85462856D01*
X112516485Y-85462856D02*
X112516485Y-84843809D01*
X112849819Y-83986666D02*
X112849819Y-84462856D01*
X112849819Y-84462856D02*
X111849819Y-84462856D01*
X112802200Y-83700951D02*
X112849819Y-83558094D01*
X112849819Y-83558094D02*
X112849819Y-83319999D01*
X112849819Y-83319999D02*
X112802200Y-83224761D01*
X112802200Y-83224761D02*
X112754580Y-83177142D01*
X112754580Y-83177142D02*
X112659342Y-83129523D01*
X112659342Y-83129523D02*
X112564104Y-83129523D01*
X112564104Y-83129523D02*
X112468866Y-83177142D01*
X112468866Y-83177142D02*
X112421247Y-83224761D01*
X112421247Y-83224761D02*
X112373628Y-83319999D01*
X112373628Y-83319999D02*
X112326009Y-83510475D01*
X112326009Y-83510475D02*
X112278390Y-83605713D01*
X112278390Y-83605713D02*
X112230771Y-83653332D01*
X112230771Y-83653332D02*
X112135533Y-83700951D01*
X112135533Y-83700951D02*
X112040295Y-83700951D01*
X112040295Y-83700951D02*
X111945057Y-83653332D01*
X111945057Y-83653332D02*
X111897438Y-83605713D01*
X111897438Y-83605713D02*
X111849819Y-83510475D01*
X111849819Y-83510475D02*
X111849819Y-83272380D01*
X111849819Y-83272380D02*
X111897438Y-83129523D01*
X112278390Y-82558094D02*
X112230771Y-82653332D01*
X112230771Y-82653332D02*
X112183152Y-82700951D01*
X112183152Y-82700951D02*
X112087914Y-82748570D01*
X112087914Y-82748570D02*
X112040295Y-82748570D01*
X112040295Y-82748570D02*
X111945057Y-82700951D01*
X111945057Y-82700951D02*
X111897438Y-82653332D01*
X111897438Y-82653332D02*
X111849819Y-82558094D01*
X111849819Y-82558094D02*
X111849819Y-82367618D01*
X111849819Y-82367618D02*
X111897438Y-82272380D01*
X111897438Y-82272380D02*
X111945057Y-82224761D01*
X111945057Y-82224761D02*
X112040295Y-82177142D01*
X112040295Y-82177142D02*
X112087914Y-82177142D01*
X112087914Y-82177142D02*
X112183152Y-82224761D01*
X112183152Y-82224761D02*
X112230771Y-82272380D01*
X112230771Y-82272380D02*
X112278390Y-82367618D01*
X112278390Y-82367618D02*
X112278390Y-82558094D01*
X112278390Y-82558094D02*
X112326009Y-82653332D01*
X112326009Y-82653332D02*
X112373628Y-82700951D01*
X112373628Y-82700951D02*
X112468866Y-82748570D01*
X112468866Y-82748570D02*
X112659342Y-82748570D01*
X112659342Y-82748570D02*
X112754580Y-82700951D01*
X112754580Y-82700951D02*
X112802200Y-82653332D01*
X112802200Y-82653332D02*
X112849819Y-82558094D01*
X112849819Y-82558094D02*
X112849819Y-82367618D01*
X112849819Y-82367618D02*
X112802200Y-82272380D01*
X112802200Y-82272380D02*
X112754580Y-82224761D01*
X112754580Y-82224761D02*
X112659342Y-82177142D01*
X112659342Y-82177142D02*
X112468866Y-82177142D01*
X112468866Y-82177142D02*
X112373628Y-82224761D01*
X112373628Y-82224761D02*
X112326009Y-82272380D01*
X112326009Y-82272380D02*
X112278390Y-82367618D01*
X111849819Y-81272380D02*
X111849819Y-81748570D01*
X111849819Y-81748570D02*
X112326009Y-81796189D01*
X112326009Y-81796189D02*
X112278390Y-81748570D01*
X112278390Y-81748570D02*
X112230771Y-81653332D01*
X112230771Y-81653332D02*
X112230771Y-81415237D01*
X112230771Y-81415237D02*
X112278390Y-81319999D01*
X112278390Y-81319999D02*
X112326009Y-81272380D01*
X112326009Y-81272380D02*
X112421247Y-81224761D01*
X112421247Y-81224761D02*
X112659342Y-81224761D01*
X112659342Y-81224761D02*
X112754580Y-81272380D01*
X112754580Y-81272380D02*
X112802200Y-81319999D01*
X112802200Y-81319999D02*
X112849819Y-81415237D01*
X112849819Y-81415237D02*
X112849819Y-81653332D01*
X112849819Y-81653332D02*
X112802200Y-81748570D01*
X112802200Y-81748570D02*
X112754580Y-81796189D01*
X55276904Y-49953152D02*
X55276904Y-50619819D01*
X55038809Y-49572200D02*
X54800714Y-50286485D01*
X54800714Y-50286485D02*
X55419761Y-50286485D01*
X55991190Y-49619819D02*
X56086428Y-49619819D01*
X56086428Y-49619819D02*
X56181666Y-49667438D01*
X56181666Y-49667438D02*
X56229285Y-49715057D01*
X56229285Y-49715057D02*
X56276904Y-49810295D01*
X56276904Y-49810295D02*
X56324523Y-50000771D01*
X56324523Y-50000771D02*
X56324523Y-50238866D01*
X56324523Y-50238866D02*
X56276904Y-50429342D01*
X56276904Y-50429342D02*
X56229285Y-50524580D01*
X56229285Y-50524580D02*
X56181666Y-50572200D01*
X56181666Y-50572200D02*
X56086428Y-50619819D01*
X56086428Y-50619819D02*
X55991190Y-50619819D01*
X55991190Y-50619819D02*
X55895952Y-50572200D01*
X55895952Y-50572200D02*
X55848333Y-50524580D01*
X55848333Y-50524580D02*
X55800714Y-50429342D01*
X55800714Y-50429342D02*
X55753095Y-50238866D01*
X55753095Y-50238866D02*
X55753095Y-50000771D01*
X55753095Y-50000771D02*
X55800714Y-49810295D01*
X55800714Y-49810295D02*
X55848333Y-49715057D01*
X55848333Y-49715057D02*
X55895952Y-49667438D01*
X55895952Y-49667438D02*
X55991190Y-49619819D01*
X57181666Y-49953152D02*
X57181666Y-50619819D01*
X56943571Y-49572200D02*
X56705476Y-50286485D01*
X56705476Y-50286485D02*
X57324523Y-50286485D01*
X57895952Y-49619819D02*
X57991190Y-49619819D01*
X57991190Y-49619819D02*
X58086428Y-49667438D01*
X58086428Y-49667438D02*
X58134047Y-49715057D01*
X58134047Y-49715057D02*
X58181666Y-49810295D01*
X58181666Y-49810295D02*
X58229285Y-50000771D01*
X58229285Y-50000771D02*
X58229285Y-50238866D01*
X58229285Y-50238866D02*
X58181666Y-50429342D01*
X58181666Y-50429342D02*
X58134047Y-50524580D01*
X58134047Y-50524580D02*
X58086428Y-50572200D01*
X58086428Y-50572200D02*
X57991190Y-50619819D01*
X57991190Y-50619819D02*
X57895952Y-50619819D01*
X57895952Y-50619819D02*
X57800714Y-50572200D01*
X57800714Y-50572200D02*
X57753095Y-50524580D01*
X57753095Y-50524580D02*
X57705476Y-50429342D01*
X57705476Y-50429342D02*
X57657857Y-50238866D01*
X57657857Y-50238866D02*
X57657857Y-50000771D01*
X57657857Y-50000771D02*
X57705476Y-49810295D01*
X57705476Y-49810295D02*
X57753095Y-49715057D01*
X57753095Y-49715057D02*
X57800714Y-49667438D01*
X57800714Y-49667438D02*
X57895952Y-49619819D01*
X56348333Y-75274580D02*
X56300714Y-75322200D01*
X56300714Y-75322200D02*
X56157857Y-75369819D01*
X56157857Y-75369819D02*
X56062619Y-75369819D01*
X56062619Y-75369819D02*
X55919762Y-75322200D01*
X55919762Y-75322200D02*
X55824524Y-75226961D01*
X55824524Y-75226961D02*
X55776905Y-75131723D01*
X55776905Y-75131723D02*
X55729286Y-74941247D01*
X55729286Y-74941247D02*
X55729286Y-74798390D01*
X55729286Y-74798390D02*
X55776905Y-74607914D01*
X55776905Y-74607914D02*
X55824524Y-74512676D01*
X55824524Y-74512676D02*
X55919762Y-74417438D01*
X55919762Y-74417438D02*
X56062619Y-74369819D01*
X56062619Y-74369819D02*
X56157857Y-74369819D01*
X56157857Y-74369819D02*
X56300714Y-74417438D01*
X56300714Y-74417438D02*
X56348333Y-74465057D01*
X56729286Y-74465057D02*
X56776905Y-74417438D01*
X56776905Y-74417438D02*
X56872143Y-74369819D01*
X56872143Y-74369819D02*
X57110238Y-74369819D01*
X57110238Y-74369819D02*
X57205476Y-74417438D01*
X57205476Y-74417438D02*
X57253095Y-74465057D01*
X57253095Y-74465057D02*
X57300714Y-74560295D01*
X57300714Y-74560295D02*
X57300714Y-74655533D01*
X57300714Y-74655533D02*
X57253095Y-74798390D01*
X57253095Y-74798390D02*
X56681667Y-75369819D01*
X56681667Y-75369819D02*
X57300714Y-75369819D01*
X78136904Y-49953152D02*
X78136904Y-50619819D01*
X77898809Y-49572200D02*
X77660714Y-50286485D01*
X77660714Y-50286485D02*
X78279761Y-50286485D01*
X78851190Y-49619819D02*
X78946428Y-49619819D01*
X78946428Y-49619819D02*
X79041666Y-49667438D01*
X79041666Y-49667438D02*
X79089285Y-49715057D01*
X79089285Y-49715057D02*
X79136904Y-49810295D01*
X79136904Y-49810295D02*
X79184523Y-50000771D01*
X79184523Y-50000771D02*
X79184523Y-50238866D01*
X79184523Y-50238866D02*
X79136904Y-50429342D01*
X79136904Y-50429342D02*
X79089285Y-50524580D01*
X79089285Y-50524580D02*
X79041666Y-50572200D01*
X79041666Y-50572200D02*
X78946428Y-50619819D01*
X78946428Y-50619819D02*
X78851190Y-50619819D01*
X78851190Y-50619819D02*
X78755952Y-50572200D01*
X78755952Y-50572200D02*
X78708333Y-50524580D01*
X78708333Y-50524580D02*
X78660714Y-50429342D01*
X78660714Y-50429342D02*
X78613095Y-50238866D01*
X78613095Y-50238866D02*
X78613095Y-50000771D01*
X78613095Y-50000771D02*
X78660714Y-49810295D01*
X78660714Y-49810295D02*
X78708333Y-49715057D01*
X78708333Y-49715057D02*
X78755952Y-49667438D01*
X78755952Y-49667438D02*
X78851190Y-49619819D01*
X80041666Y-49953152D02*
X80041666Y-50619819D01*
X79803571Y-49572200D02*
X79565476Y-50286485D01*
X79565476Y-50286485D02*
X80184523Y-50286485D01*
X80755952Y-49619819D02*
X80851190Y-49619819D01*
X80851190Y-49619819D02*
X80946428Y-49667438D01*
X80946428Y-49667438D02*
X80994047Y-49715057D01*
X80994047Y-49715057D02*
X81041666Y-49810295D01*
X81041666Y-49810295D02*
X81089285Y-50000771D01*
X81089285Y-50000771D02*
X81089285Y-50238866D01*
X81089285Y-50238866D02*
X81041666Y-50429342D01*
X81041666Y-50429342D02*
X80994047Y-50524580D01*
X80994047Y-50524580D02*
X80946428Y-50572200D01*
X80946428Y-50572200D02*
X80851190Y-50619819D01*
X80851190Y-50619819D02*
X80755952Y-50619819D01*
X80755952Y-50619819D02*
X80660714Y-50572200D01*
X80660714Y-50572200D02*
X80613095Y-50524580D01*
X80613095Y-50524580D02*
X80565476Y-50429342D01*
X80565476Y-50429342D02*
X80517857Y-50238866D01*
X80517857Y-50238866D02*
X80517857Y-50000771D01*
X80517857Y-50000771D02*
X80565476Y-49810295D01*
X80565476Y-49810295D02*
X80613095Y-49715057D01*
X80613095Y-49715057D02*
X80660714Y-49667438D01*
X80660714Y-49667438D02*
X80755952Y-49619819D01*
X98219580Y-65531666D02*
X98267200Y-65579285D01*
X98267200Y-65579285D02*
X98314819Y-65722142D01*
X98314819Y-65722142D02*
X98314819Y-65817380D01*
X98314819Y-65817380D02*
X98267200Y-65960237D01*
X98267200Y-65960237D02*
X98171961Y-66055475D01*
X98171961Y-66055475D02*
X98076723Y-66103094D01*
X98076723Y-66103094D02*
X97886247Y-66150713D01*
X97886247Y-66150713D02*
X97743390Y-66150713D01*
X97743390Y-66150713D02*
X97552914Y-66103094D01*
X97552914Y-66103094D02*
X97457676Y-66055475D01*
X97457676Y-66055475D02*
X97362438Y-65960237D01*
X97362438Y-65960237D02*
X97314819Y-65817380D01*
X97314819Y-65817380D02*
X97314819Y-65722142D01*
X97314819Y-65722142D02*
X97362438Y-65579285D01*
X97362438Y-65579285D02*
X97410057Y-65531666D01*
X97314819Y-64626904D02*
X97314819Y-65103094D01*
X97314819Y-65103094D02*
X97791009Y-65150713D01*
X97791009Y-65150713D02*
X97743390Y-65103094D01*
X97743390Y-65103094D02*
X97695771Y-65007856D01*
X97695771Y-65007856D02*
X97695771Y-64769761D01*
X97695771Y-64769761D02*
X97743390Y-64674523D01*
X97743390Y-64674523D02*
X97791009Y-64626904D01*
X97791009Y-64626904D02*
X97886247Y-64579285D01*
X97886247Y-64579285D02*
X98124342Y-64579285D01*
X98124342Y-64579285D02*
X98219580Y-64626904D01*
X98219580Y-64626904D02*
X98267200Y-64674523D01*
X98267200Y-64674523D02*
X98314819Y-64769761D01*
X98314819Y-64769761D02*
X98314819Y-65007856D01*
X98314819Y-65007856D02*
X98267200Y-65103094D01*
X98267200Y-65103094D02*
X98219580Y-65150713D01*
X64603333Y-118564819D02*
X64270000Y-118088628D01*
X64031905Y-118564819D02*
X64031905Y-117564819D01*
X64031905Y-117564819D02*
X64412857Y-117564819D01*
X64412857Y-117564819D02*
X64508095Y-117612438D01*
X64508095Y-117612438D02*
X64555714Y-117660057D01*
X64555714Y-117660057D02*
X64603333Y-117755295D01*
X64603333Y-117755295D02*
X64603333Y-117898152D01*
X64603333Y-117898152D02*
X64555714Y-117993390D01*
X64555714Y-117993390D02*
X64508095Y-118041009D01*
X64508095Y-118041009D02*
X64412857Y-118088628D01*
X64412857Y-118088628D02*
X64031905Y-118088628D01*
X65174762Y-117993390D02*
X65079524Y-117945771D01*
X65079524Y-117945771D02*
X65031905Y-117898152D01*
X65031905Y-117898152D02*
X64984286Y-117802914D01*
X64984286Y-117802914D02*
X64984286Y-117755295D01*
X64984286Y-117755295D02*
X65031905Y-117660057D01*
X65031905Y-117660057D02*
X65079524Y-117612438D01*
X65079524Y-117612438D02*
X65174762Y-117564819D01*
X65174762Y-117564819D02*
X65365238Y-117564819D01*
X65365238Y-117564819D02*
X65460476Y-117612438D01*
X65460476Y-117612438D02*
X65508095Y-117660057D01*
X65508095Y-117660057D02*
X65555714Y-117755295D01*
X65555714Y-117755295D02*
X65555714Y-117802914D01*
X65555714Y-117802914D02*
X65508095Y-117898152D01*
X65508095Y-117898152D02*
X65460476Y-117945771D01*
X65460476Y-117945771D02*
X65365238Y-117993390D01*
X65365238Y-117993390D02*
X65174762Y-117993390D01*
X65174762Y-117993390D02*
X65079524Y-118041009D01*
X65079524Y-118041009D02*
X65031905Y-118088628D01*
X65031905Y-118088628D02*
X64984286Y-118183866D01*
X64984286Y-118183866D02*
X64984286Y-118374342D01*
X64984286Y-118374342D02*
X65031905Y-118469580D01*
X65031905Y-118469580D02*
X65079524Y-118517200D01*
X65079524Y-118517200D02*
X65174762Y-118564819D01*
X65174762Y-118564819D02*
X65365238Y-118564819D01*
X65365238Y-118564819D02*
X65460476Y-118517200D01*
X65460476Y-118517200D02*
X65508095Y-118469580D01*
X65508095Y-118469580D02*
X65555714Y-118374342D01*
X65555714Y-118374342D02*
X65555714Y-118183866D01*
X65555714Y-118183866D02*
X65508095Y-118088628D01*
X65508095Y-118088628D02*
X65460476Y-118041009D01*
X65460476Y-118041009D02*
X65365238Y-117993390D01*
X127423152Y-83788095D02*
X128089819Y-83788095D01*
X127042200Y-84026190D02*
X127756485Y-84264285D01*
X127756485Y-84264285D02*
X127756485Y-83645238D01*
X127089819Y-83073809D02*
X127089819Y-82978571D01*
X127089819Y-82978571D02*
X127137438Y-82883333D01*
X127137438Y-82883333D02*
X127185057Y-82835714D01*
X127185057Y-82835714D02*
X127280295Y-82788095D01*
X127280295Y-82788095D02*
X127470771Y-82740476D01*
X127470771Y-82740476D02*
X127708866Y-82740476D01*
X127708866Y-82740476D02*
X127899342Y-82788095D01*
X127899342Y-82788095D02*
X127994580Y-82835714D01*
X127994580Y-82835714D02*
X128042200Y-82883333D01*
X128042200Y-82883333D02*
X128089819Y-82978571D01*
X128089819Y-82978571D02*
X128089819Y-83073809D01*
X128089819Y-83073809D02*
X128042200Y-83169047D01*
X128042200Y-83169047D02*
X127994580Y-83216666D01*
X127994580Y-83216666D02*
X127899342Y-83264285D01*
X127899342Y-83264285D02*
X127708866Y-83311904D01*
X127708866Y-83311904D02*
X127470771Y-83311904D01*
X127470771Y-83311904D02*
X127280295Y-83264285D01*
X127280295Y-83264285D02*
X127185057Y-83216666D01*
X127185057Y-83216666D02*
X127137438Y-83169047D01*
X127137438Y-83169047D02*
X127089819Y-83073809D01*
X127089819Y-81835714D02*
X127089819Y-82311904D01*
X127089819Y-82311904D02*
X127566009Y-82359523D01*
X127566009Y-82359523D02*
X127518390Y-82311904D01*
X127518390Y-82311904D02*
X127470771Y-82216666D01*
X127470771Y-82216666D02*
X127470771Y-81978571D01*
X127470771Y-81978571D02*
X127518390Y-81883333D01*
X127518390Y-81883333D02*
X127566009Y-81835714D01*
X127566009Y-81835714D02*
X127661247Y-81788095D01*
X127661247Y-81788095D02*
X127899342Y-81788095D01*
X127899342Y-81788095D02*
X127994580Y-81835714D01*
X127994580Y-81835714D02*
X128042200Y-81883333D01*
X128042200Y-81883333D02*
X128089819Y-81978571D01*
X128089819Y-81978571D02*
X128089819Y-82216666D01*
X128089819Y-82216666D02*
X128042200Y-82311904D01*
X128042200Y-82311904D02*
X127994580Y-82359523D01*
X127089819Y-81454761D02*
X127089819Y-80835714D01*
X127089819Y-80835714D02*
X127470771Y-81169047D01*
X127470771Y-81169047D02*
X127470771Y-81026190D01*
X127470771Y-81026190D02*
X127518390Y-80930952D01*
X127518390Y-80930952D02*
X127566009Y-80883333D01*
X127566009Y-80883333D02*
X127661247Y-80835714D01*
X127661247Y-80835714D02*
X127899342Y-80835714D01*
X127899342Y-80835714D02*
X127994580Y-80883333D01*
X127994580Y-80883333D02*
X128042200Y-80930952D01*
X128042200Y-80930952D02*
X128089819Y-81026190D01*
X128089819Y-81026190D02*
X128089819Y-81311904D01*
X128089819Y-81311904D02*
X128042200Y-81407142D01*
X128042200Y-81407142D02*
X127994580Y-81454761D01*
X127958152Y-110458095D02*
X128624819Y-110458095D01*
X127577200Y-110696190D02*
X128291485Y-110934285D01*
X128291485Y-110934285D02*
X128291485Y-110315238D01*
X127624819Y-109743809D02*
X127624819Y-109648571D01*
X127624819Y-109648571D02*
X127672438Y-109553333D01*
X127672438Y-109553333D02*
X127720057Y-109505714D01*
X127720057Y-109505714D02*
X127815295Y-109458095D01*
X127815295Y-109458095D02*
X128005771Y-109410476D01*
X128005771Y-109410476D02*
X128243866Y-109410476D01*
X128243866Y-109410476D02*
X128434342Y-109458095D01*
X128434342Y-109458095D02*
X128529580Y-109505714D01*
X128529580Y-109505714D02*
X128577200Y-109553333D01*
X128577200Y-109553333D02*
X128624819Y-109648571D01*
X128624819Y-109648571D02*
X128624819Y-109743809D01*
X128624819Y-109743809D02*
X128577200Y-109839047D01*
X128577200Y-109839047D02*
X128529580Y-109886666D01*
X128529580Y-109886666D02*
X128434342Y-109934285D01*
X128434342Y-109934285D02*
X128243866Y-109981904D01*
X128243866Y-109981904D02*
X128005771Y-109981904D01*
X128005771Y-109981904D02*
X127815295Y-109934285D01*
X127815295Y-109934285D02*
X127720057Y-109886666D01*
X127720057Y-109886666D02*
X127672438Y-109839047D01*
X127672438Y-109839047D02*
X127624819Y-109743809D01*
X127624819Y-108505714D02*
X127624819Y-108981904D01*
X127624819Y-108981904D02*
X128101009Y-109029523D01*
X128101009Y-109029523D02*
X128053390Y-108981904D01*
X128053390Y-108981904D02*
X128005771Y-108886666D01*
X128005771Y-108886666D02*
X128005771Y-108648571D01*
X128005771Y-108648571D02*
X128053390Y-108553333D01*
X128053390Y-108553333D02*
X128101009Y-108505714D01*
X128101009Y-108505714D02*
X128196247Y-108458095D01*
X128196247Y-108458095D02*
X128434342Y-108458095D01*
X128434342Y-108458095D02*
X128529580Y-108505714D01*
X128529580Y-108505714D02*
X128577200Y-108553333D01*
X128577200Y-108553333D02*
X128624819Y-108648571D01*
X128624819Y-108648571D02*
X128624819Y-108886666D01*
X128624819Y-108886666D02*
X128577200Y-108981904D01*
X128577200Y-108981904D02*
X128529580Y-109029523D01*
X127624819Y-108124761D02*
X127624819Y-107505714D01*
X127624819Y-107505714D02*
X128005771Y-107839047D01*
X128005771Y-107839047D02*
X128005771Y-107696190D01*
X128005771Y-107696190D02*
X128053390Y-107600952D01*
X128053390Y-107600952D02*
X128101009Y-107553333D01*
X128101009Y-107553333D02*
X128196247Y-107505714D01*
X128196247Y-107505714D02*
X128434342Y-107505714D01*
X128434342Y-107505714D02*
X128529580Y-107553333D01*
X128529580Y-107553333D02*
X128577200Y-107600952D01*
X128577200Y-107600952D02*
X128624819Y-107696190D01*
X128624819Y-107696190D02*
X128624819Y-107981904D01*
X128624819Y-107981904D02*
X128577200Y-108077142D01*
X128577200Y-108077142D02*
X128529580Y-108124761D01*
X64825952Y-49619819D02*
X65492618Y-49619819D01*
X65492618Y-49619819D02*
X65064047Y-50619819D01*
X66302142Y-49953152D02*
X66302142Y-50619819D01*
X66064047Y-49572200D02*
X65825952Y-50286485D01*
X65825952Y-50286485D02*
X66444999Y-50286485D01*
X67302142Y-50619819D02*
X66825952Y-50619819D01*
X66825952Y-50619819D02*
X66825952Y-49619819D01*
X67587857Y-50572200D02*
X67730714Y-50619819D01*
X67730714Y-50619819D02*
X67968809Y-50619819D01*
X67968809Y-50619819D02*
X68064047Y-50572200D01*
X68064047Y-50572200D02*
X68111666Y-50524580D01*
X68111666Y-50524580D02*
X68159285Y-50429342D01*
X68159285Y-50429342D02*
X68159285Y-50334104D01*
X68159285Y-50334104D02*
X68111666Y-50238866D01*
X68111666Y-50238866D02*
X68064047Y-50191247D01*
X68064047Y-50191247D02*
X67968809Y-50143628D01*
X67968809Y-50143628D02*
X67778333Y-50096009D01*
X67778333Y-50096009D02*
X67683095Y-50048390D01*
X67683095Y-50048390D02*
X67635476Y-50000771D01*
X67635476Y-50000771D02*
X67587857Y-49905533D01*
X67587857Y-49905533D02*
X67587857Y-49810295D01*
X67587857Y-49810295D02*
X67635476Y-49715057D01*
X67635476Y-49715057D02*
X67683095Y-49667438D01*
X67683095Y-49667438D02*
X67778333Y-49619819D01*
X67778333Y-49619819D02*
X68016428Y-49619819D01*
X68016428Y-49619819D02*
X68159285Y-49667438D01*
X68540238Y-49715057D02*
X68587857Y-49667438D01*
X68587857Y-49667438D02*
X68683095Y-49619819D01*
X68683095Y-49619819D02*
X68921190Y-49619819D01*
X68921190Y-49619819D02*
X69016428Y-49667438D01*
X69016428Y-49667438D02*
X69064047Y-49715057D01*
X69064047Y-49715057D02*
X69111666Y-49810295D01*
X69111666Y-49810295D02*
X69111666Y-49905533D01*
X69111666Y-49905533D02*
X69064047Y-50048390D01*
X69064047Y-50048390D02*
X68492619Y-50619819D01*
X68492619Y-50619819D02*
X69111666Y-50619819D01*
X70016428Y-49619819D02*
X69540238Y-49619819D01*
X69540238Y-49619819D02*
X69492619Y-50096009D01*
X69492619Y-50096009D02*
X69540238Y-50048390D01*
X69540238Y-50048390D02*
X69635476Y-50000771D01*
X69635476Y-50000771D02*
X69873571Y-50000771D01*
X69873571Y-50000771D02*
X69968809Y-50048390D01*
X69968809Y-50048390D02*
X70016428Y-50096009D01*
X70016428Y-50096009D02*
X70064047Y-50191247D01*
X70064047Y-50191247D02*
X70064047Y-50429342D01*
X70064047Y-50429342D02*
X70016428Y-50524580D01*
X70016428Y-50524580D02*
X69968809Y-50572200D01*
X69968809Y-50572200D02*
X69873571Y-50619819D01*
X69873571Y-50619819D02*
X69635476Y-50619819D01*
X69635476Y-50619819D02*
X69540238Y-50572200D01*
X69540238Y-50572200D02*
X69492619Y-50524580D01*
X71016428Y-50619819D02*
X70445000Y-50619819D01*
X70730714Y-50619819D02*
X70730714Y-49619819D01*
X70730714Y-49619819D02*
X70635476Y-49762676D01*
X70635476Y-49762676D02*
X70540238Y-49857914D01*
X70540238Y-49857914D02*
X70445000Y-49905533D01*
X66494819Y-90796428D02*
X65494819Y-90796428D01*
X65494819Y-90796428D02*
X66209104Y-90463095D01*
X66209104Y-90463095D02*
X65494819Y-90129762D01*
X65494819Y-90129762D02*
X66494819Y-90129762D01*
X66399580Y-89082143D02*
X66447200Y-89129762D01*
X66447200Y-89129762D02*
X66494819Y-89272619D01*
X66494819Y-89272619D02*
X66494819Y-89367857D01*
X66494819Y-89367857D02*
X66447200Y-89510714D01*
X66447200Y-89510714D02*
X66351961Y-89605952D01*
X66351961Y-89605952D02*
X66256723Y-89653571D01*
X66256723Y-89653571D02*
X66066247Y-89701190D01*
X66066247Y-89701190D02*
X65923390Y-89701190D01*
X65923390Y-89701190D02*
X65732914Y-89653571D01*
X65732914Y-89653571D02*
X65637676Y-89605952D01*
X65637676Y-89605952D02*
X65542438Y-89510714D01*
X65542438Y-89510714D02*
X65494819Y-89367857D01*
X65494819Y-89367857D02*
X65494819Y-89272619D01*
X65494819Y-89272619D02*
X65542438Y-89129762D01*
X65542438Y-89129762D02*
X65590057Y-89082143D01*
X66494819Y-88653571D02*
X65494819Y-88653571D01*
X65494819Y-88653571D02*
X65494819Y-88272619D01*
X65494819Y-88272619D02*
X65542438Y-88177381D01*
X65542438Y-88177381D02*
X65590057Y-88129762D01*
X65590057Y-88129762D02*
X65685295Y-88082143D01*
X65685295Y-88082143D02*
X65828152Y-88082143D01*
X65828152Y-88082143D02*
X65923390Y-88129762D01*
X65923390Y-88129762D02*
X65971009Y-88177381D01*
X65971009Y-88177381D02*
X66018628Y-88272619D01*
X66018628Y-88272619D02*
X66018628Y-88653571D01*
X65590057Y-87701190D02*
X65542438Y-87653571D01*
X65542438Y-87653571D02*
X65494819Y-87558333D01*
X65494819Y-87558333D02*
X65494819Y-87320238D01*
X65494819Y-87320238D02*
X65542438Y-87225000D01*
X65542438Y-87225000D02*
X65590057Y-87177381D01*
X65590057Y-87177381D02*
X65685295Y-87129762D01*
X65685295Y-87129762D02*
X65780533Y-87129762D01*
X65780533Y-87129762D02*
X65923390Y-87177381D01*
X65923390Y-87177381D02*
X66494819Y-87748809D01*
X66494819Y-87748809D02*
X66494819Y-87129762D01*
X65494819Y-86796428D02*
X65494819Y-86177381D01*
X65494819Y-86177381D02*
X65875771Y-86510714D01*
X65875771Y-86510714D02*
X65875771Y-86367857D01*
X65875771Y-86367857D02*
X65923390Y-86272619D01*
X65923390Y-86272619D02*
X65971009Y-86225000D01*
X65971009Y-86225000D02*
X66066247Y-86177381D01*
X66066247Y-86177381D02*
X66304342Y-86177381D01*
X66304342Y-86177381D02*
X66399580Y-86225000D01*
X66399580Y-86225000D02*
X66447200Y-86272619D01*
X66447200Y-86272619D02*
X66494819Y-86367857D01*
X66494819Y-86367857D02*
X66494819Y-86653571D01*
X66494819Y-86653571D02*
X66447200Y-86748809D01*
X66447200Y-86748809D02*
X66399580Y-86796428D01*
X65494819Y-85558333D02*
X65494819Y-85463095D01*
X65494819Y-85463095D02*
X65542438Y-85367857D01*
X65542438Y-85367857D02*
X65590057Y-85320238D01*
X65590057Y-85320238D02*
X65685295Y-85272619D01*
X65685295Y-85272619D02*
X65875771Y-85225000D01*
X65875771Y-85225000D02*
X66113866Y-85225000D01*
X66113866Y-85225000D02*
X66304342Y-85272619D01*
X66304342Y-85272619D02*
X66399580Y-85320238D01*
X66399580Y-85320238D02*
X66447200Y-85367857D01*
X66447200Y-85367857D02*
X66494819Y-85463095D01*
X66494819Y-85463095D02*
X66494819Y-85558333D01*
X66494819Y-85558333D02*
X66447200Y-85653571D01*
X66447200Y-85653571D02*
X66399580Y-85701190D01*
X66399580Y-85701190D02*
X66304342Y-85748809D01*
X66304342Y-85748809D02*
X66113866Y-85796428D01*
X66113866Y-85796428D02*
X65875771Y-85796428D01*
X65875771Y-85796428D02*
X65685295Y-85748809D01*
X65685295Y-85748809D02*
X65590057Y-85701190D01*
X65590057Y-85701190D02*
X65542438Y-85653571D01*
X65542438Y-85653571D02*
X65494819Y-85558333D01*
X66494819Y-84272619D02*
X66494819Y-84844047D01*
X66494819Y-84558333D02*
X65494819Y-84558333D01*
X65494819Y-84558333D02*
X65637676Y-84653571D01*
X65637676Y-84653571D02*
X65732914Y-84748809D01*
X65732914Y-84748809D02*
X65780533Y-84844047D01*
X65494819Y-83939285D02*
X65494819Y-83272619D01*
X65494819Y-83272619D02*
X66494819Y-83701190D01*
X66590057Y-83129762D02*
X66590057Y-82367857D01*
X66447200Y-82177380D02*
X66494819Y-82034523D01*
X66494819Y-82034523D02*
X66494819Y-81796428D01*
X66494819Y-81796428D02*
X66447200Y-81701190D01*
X66447200Y-81701190D02*
X66399580Y-81653571D01*
X66399580Y-81653571D02*
X66304342Y-81605952D01*
X66304342Y-81605952D02*
X66209104Y-81605952D01*
X66209104Y-81605952D02*
X66113866Y-81653571D01*
X66113866Y-81653571D02*
X66066247Y-81701190D01*
X66066247Y-81701190D02*
X66018628Y-81796428D01*
X66018628Y-81796428D02*
X65971009Y-81986904D01*
X65971009Y-81986904D02*
X65923390Y-82082142D01*
X65923390Y-82082142D02*
X65875771Y-82129761D01*
X65875771Y-82129761D02*
X65780533Y-82177380D01*
X65780533Y-82177380D02*
X65685295Y-82177380D01*
X65685295Y-82177380D02*
X65590057Y-82129761D01*
X65590057Y-82129761D02*
X65542438Y-82082142D01*
X65542438Y-82082142D02*
X65494819Y-81986904D01*
X65494819Y-81986904D02*
X65494819Y-81748809D01*
X65494819Y-81748809D02*
X65542438Y-81605952D01*
X66494819Y-81177380D02*
X65494819Y-81177380D01*
X65494819Y-81177380D02*
X65494819Y-80796428D01*
X65494819Y-80796428D02*
X65542438Y-80701190D01*
X65542438Y-80701190D02*
X65590057Y-80653571D01*
X65590057Y-80653571D02*
X65685295Y-80605952D01*
X65685295Y-80605952D02*
X65828152Y-80605952D01*
X65828152Y-80605952D02*
X65923390Y-80653571D01*
X65923390Y-80653571D02*
X65971009Y-80701190D01*
X65971009Y-80701190D02*
X66018628Y-80796428D01*
X66018628Y-80796428D02*
X66018628Y-81177380D01*
X74922142Y-118564819D02*
X74588809Y-118088628D01*
X74350714Y-118564819D02*
X74350714Y-117564819D01*
X74350714Y-117564819D02*
X74731666Y-117564819D01*
X74731666Y-117564819D02*
X74826904Y-117612438D01*
X74826904Y-117612438D02*
X74874523Y-117660057D01*
X74874523Y-117660057D02*
X74922142Y-117755295D01*
X74922142Y-117755295D02*
X74922142Y-117898152D01*
X74922142Y-117898152D02*
X74874523Y-117993390D01*
X74874523Y-117993390D02*
X74826904Y-118041009D01*
X74826904Y-118041009D02*
X74731666Y-118088628D01*
X74731666Y-118088628D02*
X74350714Y-118088628D01*
X75874523Y-118564819D02*
X75303095Y-118564819D01*
X75588809Y-118564819D02*
X75588809Y-117564819D01*
X75588809Y-117564819D02*
X75493571Y-117707676D01*
X75493571Y-117707676D02*
X75398333Y-117802914D01*
X75398333Y-117802914D02*
X75303095Y-117850533D01*
X76493571Y-117564819D02*
X76588809Y-117564819D01*
X76588809Y-117564819D02*
X76684047Y-117612438D01*
X76684047Y-117612438D02*
X76731666Y-117660057D01*
X76731666Y-117660057D02*
X76779285Y-117755295D01*
X76779285Y-117755295D02*
X76826904Y-117945771D01*
X76826904Y-117945771D02*
X76826904Y-118183866D01*
X76826904Y-118183866D02*
X76779285Y-118374342D01*
X76779285Y-118374342D02*
X76731666Y-118469580D01*
X76731666Y-118469580D02*
X76684047Y-118517200D01*
X76684047Y-118517200D02*
X76588809Y-118564819D01*
X76588809Y-118564819D02*
X76493571Y-118564819D01*
X76493571Y-118564819D02*
X76398333Y-118517200D01*
X76398333Y-118517200D02*
X76350714Y-118469580D01*
X76350714Y-118469580D02*
X76303095Y-118374342D01*
X76303095Y-118374342D02*
X76255476Y-118183866D01*
X76255476Y-118183866D02*
X76255476Y-117945771D01*
X76255476Y-117945771D02*
X76303095Y-117755295D01*
X76303095Y-117755295D02*
X76350714Y-117660057D01*
X76350714Y-117660057D02*
X76398333Y-117612438D01*
X76398333Y-117612438D02*
X76493571Y-117564819D01*
X122586904Y-129963152D02*
X122586904Y-130629819D01*
X122348809Y-129582200D02*
X122110714Y-130296485D01*
X122110714Y-130296485D02*
X122729761Y-130296485D01*
X123301190Y-129629819D02*
X123396428Y-129629819D01*
X123396428Y-129629819D02*
X123491666Y-129677438D01*
X123491666Y-129677438D02*
X123539285Y-129725057D01*
X123539285Y-129725057D02*
X123586904Y-129820295D01*
X123586904Y-129820295D02*
X123634523Y-130010771D01*
X123634523Y-130010771D02*
X123634523Y-130248866D01*
X123634523Y-130248866D02*
X123586904Y-130439342D01*
X123586904Y-130439342D02*
X123539285Y-130534580D01*
X123539285Y-130534580D02*
X123491666Y-130582200D01*
X123491666Y-130582200D02*
X123396428Y-130629819D01*
X123396428Y-130629819D02*
X123301190Y-130629819D01*
X123301190Y-130629819D02*
X123205952Y-130582200D01*
X123205952Y-130582200D02*
X123158333Y-130534580D01*
X123158333Y-130534580D02*
X123110714Y-130439342D01*
X123110714Y-130439342D02*
X123063095Y-130248866D01*
X123063095Y-130248866D02*
X123063095Y-130010771D01*
X123063095Y-130010771D02*
X123110714Y-129820295D01*
X123110714Y-129820295D02*
X123158333Y-129725057D01*
X123158333Y-129725057D02*
X123205952Y-129677438D01*
X123205952Y-129677438D02*
X123301190Y-129629819D01*
X124539285Y-129629819D02*
X124063095Y-129629819D01*
X124063095Y-129629819D02*
X124015476Y-130106009D01*
X124015476Y-130106009D02*
X124063095Y-130058390D01*
X124063095Y-130058390D02*
X124158333Y-130010771D01*
X124158333Y-130010771D02*
X124396428Y-130010771D01*
X124396428Y-130010771D02*
X124491666Y-130058390D01*
X124491666Y-130058390D02*
X124539285Y-130106009D01*
X124539285Y-130106009D02*
X124586904Y-130201247D01*
X124586904Y-130201247D02*
X124586904Y-130439342D01*
X124586904Y-130439342D02*
X124539285Y-130534580D01*
X124539285Y-130534580D02*
X124491666Y-130582200D01*
X124491666Y-130582200D02*
X124396428Y-130629819D01*
X124396428Y-130629819D02*
X124158333Y-130629819D01*
X124158333Y-130629819D02*
X124063095Y-130582200D01*
X124063095Y-130582200D02*
X124015476Y-130534580D01*
X124920238Y-129629819D02*
X125539285Y-129629819D01*
X125539285Y-129629819D02*
X125205952Y-130010771D01*
X125205952Y-130010771D02*
X125348809Y-130010771D01*
X125348809Y-130010771D02*
X125444047Y-130058390D01*
X125444047Y-130058390D02*
X125491666Y-130106009D01*
X125491666Y-130106009D02*
X125539285Y-130201247D01*
X125539285Y-130201247D02*
X125539285Y-130439342D01*
X125539285Y-130439342D02*
X125491666Y-130534580D01*
X125491666Y-130534580D02*
X125444047Y-130582200D01*
X125444047Y-130582200D02*
X125348809Y-130629819D01*
X125348809Y-130629819D02*
X125063095Y-130629819D01*
X125063095Y-130629819D02*
X124967857Y-130582200D01*
X124967857Y-130582200D02*
X124920238Y-130534580D01*
X98149580Y-94781666D02*
X98197200Y-94829285D01*
X98197200Y-94829285D02*
X98244819Y-94972142D01*
X98244819Y-94972142D02*
X98244819Y-95067380D01*
X98244819Y-95067380D02*
X98197200Y-95210237D01*
X98197200Y-95210237D02*
X98101961Y-95305475D01*
X98101961Y-95305475D02*
X98006723Y-95353094D01*
X98006723Y-95353094D02*
X97816247Y-95400713D01*
X97816247Y-95400713D02*
X97673390Y-95400713D01*
X97673390Y-95400713D02*
X97482914Y-95353094D01*
X97482914Y-95353094D02*
X97387676Y-95305475D01*
X97387676Y-95305475D02*
X97292438Y-95210237D01*
X97292438Y-95210237D02*
X97244819Y-95067380D01*
X97244819Y-95067380D02*
X97244819Y-94972142D01*
X97244819Y-94972142D02*
X97292438Y-94829285D01*
X97292438Y-94829285D02*
X97340057Y-94781666D01*
X97244819Y-93924523D02*
X97244819Y-94114999D01*
X97244819Y-94114999D02*
X97292438Y-94210237D01*
X97292438Y-94210237D02*
X97340057Y-94257856D01*
X97340057Y-94257856D02*
X97482914Y-94353094D01*
X97482914Y-94353094D02*
X97673390Y-94400713D01*
X97673390Y-94400713D02*
X98054342Y-94400713D01*
X98054342Y-94400713D02*
X98149580Y-94353094D01*
X98149580Y-94353094D02*
X98197200Y-94305475D01*
X98197200Y-94305475D02*
X98244819Y-94210237D01*
X98244819Y-94210237D02*
X98244819Y-94019761D01*
X98244819Y-94019761D02*
X98197200Y-93924523D01*
X98197200Y-93924523D02*
X98149580Y-93876904D01*
X98149580Y-93876904D02*
X98054342Y-93829285D01*
X98054342Y-93829285D02*
X97816247Y-93829285D01*
X97816247Y-93829285D02*
X97721009Y-93876904D01*
X97721009Y-93876904D02*
X97673390Y-93924523D01*
X97673390Y-93924523D02*
X97625771Y-94019761D01*
X97625771Y-94019761D02*
X97625771Y-94210237D01*
X97625771Y-94210237D02*
X97673390Y-94305475D01*
X97673390Y-94305475D02*
X97721009Y-94353094D01*
X97721009Y-94353094D02*
X97816247Y-94400713D01*
X129899580Y-71246666D02*
X129947200Y-71294285D01*
X129947200Y-71294285D02*
X129994819Y-71437142D01*
X129994819Y-71437142D02*
X129994819Y-71532380D01*
X129994819Y-71532380D02*
X129947200Y-71675237D01*
X129947200Y-71675237D02*
X129851961Y-71770475D01*
X129851961Y-71770475D02*
X129756723Y-71818094D01*
X129756723Y-71818094D02*
X129566247Y-71865713D01*
X129566247Y-71865713D02*
X129423390Y-71865713D01*
X129423390Y-71865713D02*
X129232914Y-71818094D01*
X129232914Y-71818094D02*
X129137676Y-71770475D01*
X129137676Y-71770475D02*
X129042438Y-71675237D01*
X129042438Y-71675237D02*
X128994819Y-71532380D01*
X128994819Y-71532380D02*
X128994819Y-71437142D01*
X128994819Y-71437142D02*
X129042438Y-71294285D01*
X129042438Y-71294285D02*
X129090057Y-71246666D01*
X129994819Y-70770475D02*
X129994819Y-70579999D01*
X129994819Y-70579999D02*
X129947200Y-70484761D01*
X129947200Y-70484761D02*
X129899580Y-70437142D01*
X129899580Y-70437142D02*
X129756723Y-70341904D01*
X129756723Y-70341904D02*
X129566247Y-70294285D01*
X129566247Y-70294285D02*
X129185295Y-70294285D01*
X129185295Y-70294285D02*
X129090057Y-70341904D01*
X129090057Y-70341904D02*
X129042438Y-70389523D01*
X129042438Y-70389523D02*
X128994819Y-70484761D01*
X128994819Y-70484761D02*
X128994819Y-70675237D01*
X128994819Y-70675237D02*
X129042438Y-70770475D01*
X129042438Y-70770475D02*
X129090057Y-70818094D01*
X129090057Y-70818094D02*
X129185295Y-70865713D01*
X129185295Y-70865713D02*
X129423390Y-70865713D01*
X129423390Y-70865713D02*
X129518628Y-70818094D01*
X129518628Y-70818094D02*
X129566247Y-70770475D01*
X129566247Y-70770475D02*
X129613866Y-70675237D01*
X129613866Y-70675237D02*
X129613866Y-70484761D01*
X129613866Y-70484761D02*
X129566247Y-70389523D01*
X129566247Y-70389523D02*
X129518628Y-70341904D01*
X129518628Y-70341904D02*
X129423390Y-70294285D01*
X111849819Y-109322856D02*
X111849819Y-108656190D01*
X111849819Y-108656190D02*
X112849819Y-109084761D01*
X112183152Y-107846666D02*
X112849819Y-107846666D01*
X111802200Y-108084761D02*
X112516485Y-108322856D01*
X112516485Y-108322856D02*
X112516485Y-107703809D01*
X112849819Y-106846666D02*
X112849819Y-107322856D01*
X112849819Y-107322856D02*
X111849819Y-107322856D01*
X112802200Y-106560951D02*
X112849819Y-106418094D01*
X112849819Y-106418094D02*
X112849819Y-106179999D01*
X112849819Y-106179999D02*
X112802200Y-106084761D01*
X112802200Y-106084761D02*
X112754580Y-106037142D01*
X112754580Y-106037142D02*
X112659342Y-105989523D01*
X112659342Y-105989523D02*
X112564104Y-105989523D01*
X112564104Y-105989523D02*
X112468866Y-106037142D01*
X112468866Y-106037142D02*
X112421247Y-106084761D01*
X112421247Y-106084761D02*
X112373628Y-106179999D01*
X112373628Y-106179999D02*
X112326009Y-106370475D01*
X112326009Y-106370475D02*
X112278390Y-106465713D01*
X112278390Y-106465713D02*
X112230771Y-106513332D01*
X112230771Y-106513332D02*
X112135533Y-106560951D01*
X112135533Y-106560951D02*
X112040295Y-106560951D01*
X112040295Y-106560951D02*
X111945057Y-106513332D01*
X111945057Y-106513332D02*
X111897438Y-106465713D01*
X111897438Y-106465713D02*
X111849819Y-106370475D01*
X111849819Y-106370475D02*
X111849819Y-106132380D01*
X111849819Y-106132380D02*
X111897438Y-105989523D01*
X112278390Y-105418094D02*
X112230771Y-105513332D01*
X112230771Y-105513332D02*
X112183152Y-105560951D01*
X112183152Y-105560951D02*
X112087914Y-105608570D01*
X112087914Y-105608570D02*
X112040295Y-105608570D01*
X112040295Y-105608570D02*
X111945057Y-105560951D01*
X111945057Y-105560951D02*
X111897438Y-105513332D01*
X111897438Y-105513332D02*
X111849819Y-105418094D01*
X111849819Y-105418094D02*
X111849819Y-105227618D01*
X111849819Y-105227618D02*
X111897438Y-105132380D01*
X111897438Y-105132380D02*
X111945057Y-105084761D01*
X111945057Y-105084761D02*
X112040295Y-105037142D01*
X112040295Y-105037142D02*
X112087914Y-105037142D01*
X112087914Y-105037142D02*
X112183152Y-105084761D01*
X112183152Y-105084761D02*
X112230771Y-105132380D01*
X112230771Y-105132380D02*
X112278390Y-105227618D01*
X112278390Y-105227618D02*
X112278390Y-105418094D01*
X112278390Y-105418094D02*
X112326009Y-105513332D01*
X112326009Y-105513332D02*
X112373628Y-105560951D01*
X112373628Y-105560951D02*
X112468866Y-105608570D01*
X112468866Y-105608570D02*
X112659342Y-105608570D01*
X112659342Y-105608570D02*
X112754580Y-105560951D01*
X112754580Y-105560951D02*
X112802200Y-105513332D01*
X112802200Y-105513332D02*
X112849819Y-105418094D01*
X112849819Y-105418094D02*
X112849819Y-105227618D01*
X112849819Y-105227618D02*
X112802200Y-105132380D01*
X112802200Y-105132380D02*
X112754580Y-105084761D01*
X112754580Y-105084761D02*
X112659342Y-105037142D01*
X112659342Y-105037142D02*
X112468866Y-105037142D01*
X112468866Y-105037142D02*
X112373628Y-105084761D01*
X112373628Y-105084761D02*
X112326009Y-105132380D01*
X112326009Y-105132380D02*
X112278390Y-105227618D01*
X111849819Y-104132380D02*
X111849819Y-104608570D01*
X111849819Y-104608570D02*
X112326009Y-104656189D01*
X112326009Y-104656189D02*
X112278390Y-104608570D01*
X112278390Y-104608570D02*
X112230771Y-104513332D01*
X112230771Y-104513332D02*
X112230771Y-104275237D01*
X112230771Y-104275237D02*
X112278390Y-104179999D01*
X112278390Y-104179999D02*
X112326009Y-104132380D01*
X112326009Y-104132380D02*
X112421247Y-104084761D01*
X112421247Y-104084761D02*
X112659342Y-104084761D01*
X112659342Y-104084761D02*
X112754580Y-104132380D01*
X112754580Y-104132380D02*
X112802200Y-104179999D01*
X112802200Y-104179999D02*
X112849819Y-104275237D01*
X112849819Y-104275237D02*
X112849819Y-104513332D01*
X112849819Y-104513332D02*
X112802200Y-104608570D01*
X112802200Y-104608570D02*
X112754580Y-104656189D01*
X127423152Y-65373095D02*
X128089819Y-65373095D01*
X127042200Y-65611190D02*
X127756485Y-65849285D01*
X127756485Y-65849285D02*
X127756485Y-65230238D01*
X127089819Y-64658809D02*
X127089819Y-64563571D01*
X127089819Y-64563571D02*
X127137438Y-64468333D01*
X127137438Y-64468333D02*
X127185057Y-64420714D01*
X127185057Y-64420714D02*
X127280295Y-64373095D01*
X127280295Y-64373095D02*
X127470771Y-64325476D01*
X127470771Y-64325476D02*
X127708866Y-64325476D01*
X127708866Y-64325476D02*
X127899342Y-64373095D01*
X127899342Y-64373095D02*
X127994580Y-64420714D01*
X127994580Y-64420714D02*
X128042200Y-64468333D01*
X128042200Y-64468333D02*
X128089819Y-64563571D01*
X128089819Y-64563571D02*
X128089819Y-64658809D01*
X128089819Y-64658809D02*
X128042200Y-64754047D01*
X128042200Y-64754047D02*
X127994580Y-64801666D01*
X127994580Y-64801666D02*
X127899342Y-64849285D01*
X127899342Y-64849285D02*
X127708866Y-64896904D01*
X127708866Y-64896904D02*
X127470771Y-64896904D01*
X127470771Y-64896904D02*
X127280295Y-64849285D01*
X127280295Y-64849285D02*
X127185057Y-64801666D01*
X127185057Y-64801666D02*
X127137438Y-64754047D01*
X127137438Y-64754047D02*
X127089819Y-64658809D01*
X127089819Y-63420714D02*
X127089819Y-63896904D01*
X127089819Y-63896904D02*
X127566009Y-63944523D01*
X127566009Y-63944523D02*
X127518390Y-63896904D01*
X127518390Y-63896904D02*
X127470771Y-63801666D01*
X127470771Y-63801666D02*
X127470771Y-63563571D01*
X127470771Y-63563571D02*
X127518390Y-63468333D01*
X127518390Y-63468333D02*
X127566009Y-63420714D01*
X127566009Y-63420714D02*
X127661247Y-63373095D01*
X127661247Y-63373095D02*
X127899342Y-63373095D01*
X127899342Y-63373095D02*
X127994580Y-63420714D01*
X127994580Y-63420714D02*
X128042200Y-63468333D01*
X128042200Y-63468333D02*
X128089819Y-63563571D01*
X128089819Y-63563571D02*
X128089819Y-63801666D01*
X128089819Y-63801666D02*
X128042200Y-63896904D01*
X128042200Y-63896904D02*
X127994580Y-63944523D01*
X127089819Y-63039761D02*
X127089819Y-62420714D01*
X127089819Y-62420714D02*
X127470771Y-62754047D01*
X127470771Y-62754047D02*
X127470771Y-62611190D01*
X127470771Y-62611190D02*
X127518390Y-62515952D01*
X127518390Y-62515952D02*
X127566009Y-62468333D01*
X127566009Y-62468333D02*
X127661247Y-62420714D01*
X127661247Y-62420714D02*
X127899342Y-62420714D01*
X127899342Y-62420714D02*
X127994580Y-62468333D01*
X127994580Y-62468333D02*
X128042200Y-62515952D01*
X128042200Y-62515952D02*
X128089819Y-62611190D01*
X128089819Y-62611190D02*
X128089819Y-62896904D01*
X128089819Y-62896904D02*
X128042200Y-62992142D01*
X128042200Y-62992142D02*
X127994580Y-63039761D01*
X97782142Y-129994819D02*
X97448809Y-129518628D01*
X97210714Y-129994819D02*
X97210714Y-128994819D01*
X97210714Y-128994819D02*
X97591666Y-128994819D01*
X97591666Y-128994819D02*
X97686904Y-129042438D01*
X97686904Y-129042438D02*
X97734523Y-129090057D01*
X97734523Y-129090057D02*
X97782142Y-129185295D01*
X97782142Y-129185295D02*
X97782142Y-129328152D01*
X97782142Y-129328152D02*
X97734523Y-129423390D01*
X97734523Y-129423390D02*
X97686904Y-129471009D01*
X97686904Y-129471009D02*
X97591666Y-129518628D01*
X97591666Y-129518628D02*
X97210714Y-129518628D01*
X98734523Y-129994819D02*
X98163095Y-129994819D01*
X98448809Y-129994819D02*
X98448809Y-128994819D01*
X98448809Y-128994819D02*
X98353571Y-129137676D01*
X98353571Y-129137676D02*
X98258333Y-129232914D01*
X98258333Y-129232914D02*
X98163095Y-129280533D01*
X99686904Y-129994819D02*
X99115476Y-129994819D01*
X99401190Y-129994819D02*
X99401190Y-128994819D01*
X99401190Y-128994819D02*
X99305952Y-129137676D01*
X99305952Y-129137676D02*
X99210714Y-129232914D01*
X99210714Y-129232914D02*
X99115476Y-129280533D01*
X77843571Y-129312200D02*
X77986428Y-129359819D01*
X77986428Y-129359819D02*
X78224523Y-129359819D01*
X78224523Y-129359819D02*
X78319761Y-129312200D01*
X78319761Y-129312200D02*
X78367380Y-129264580D01*
X78367380Y-129264580D02*
X78414999Y-129169342D01*
X78414999Y-129169342D02*
X78414999Y-129074104D01*
X78414999Y-129074104D02*
X78367380Y-128978866D01*
X78367380Y-128978866D02*
X78319761Y-128931247D01*
X78319761Y-128931247D02*
X78224523Y-128883628D01*
X78224523Y-128883628D02*
X78034047Y-128836009D01*
X78034047Y-128836009D02*
X77938809Y-128788390D01*
X77938809Y-128788390D02*
X77891190Y-128740771D01*
X77891190Y-128740771D02*
X77843571Y-128645533D01*
X77843571Y-128645533D02*
X77843571Y-128550295D01*
X77843571Y-128550295D02*
X77891190Y-128455057D01*
X77891190Y-128455057D02*
X77938809Y-128407438D01*
X77938809Y-128407438D02*
X78034047Y-128359819D01*
X78034047Y-128359819D02*
X78272142Y-128359819D01*
X78272142Y-128359819D02*
X78414999Y-128407438D01*
X78843571Y-129359819D02*
X78843571Y-128359819D01*
X78843571Y-128359819D02*
X79414999Y-129359819D01*
X79414999Y-129359819D02*
X79414999Y-128359819D01*
X79795952Y-128359819D02*
X80462618Y-128359819D01*
X80462618Y-128359819D02*
X80034047Y-129359819D01*
X81272142Y-128693152D02*
X81272142Y-129359819D01*
X81034047Y-128312200D02*
X80795952Y-129026485D01*
X80795952Y-129026485D02*
X81414999Y-129026485D01*
X82272142Y-129359819D02*
X81795952Y-129359819D01*
X81795952Y-129359819D02*
X81795952Y-128359819D01*
X82557857Y-129312200D02*
X82700714Y-129359819D01*
X82700714Y-129359819D02*
X82938809Y-129359819D01*
X82938809Y-129359819D02*
X83034047Y-129312200D01*
X83034047Y-129312200D02*
X83081666Y-129264580D01*
X83081666Y-129264580D02*
X83129285Y-129169342D01*
X83129285Y-129169342D02*
X83129285Y-129074104D01*
X83129285Y-129074104D02*
X83081666Y-128978866D01*
X83081666Y-128978866D02*
X83034047Y-128931247D01*
X83034047Y-128931247D02*
X82938809Y-128883628D01*
X82938809Y-128883628D02*
X82748333Y-128836009D01*
X82748333Y-128836009D02*
X82653095Y-128788390D01*
X82653095Y-128788390D02*
X82605476Y-128740771D01*
X82605476Y-128740771D02*
X82557857Y-128645533D01*
X82557857Y-128645533D02*
X82557857Y-128550295D01*
X82557857Y-128550295D02*
X82605476Y-128455057D01*
X82605476Y-128455057D02*
X82653095Y-128407438D01*
X82653095Y-128407438D02*
X82748333Y-128359819D01*
X82748333Y-128359819D02*
X82986428Y-128359819D01*
X82986428Y-128359819D02*
X83129285Y-128407438D01*
X83510238Y-128455057D02*
X83557857Y-128407438D01*
X83557857Y-128407438D02*
X83653095Y-128359819D01*
X83653095Y-128359819D02*
X83891190Y-128359819D01*
X83891190Y-128359819D02*
X83986428Y-128407438D01*
X83986428Y-128407438D02*
X84034047Y-128455057D01*
X84034047Y-128455057D02*
X84081666Y-128550295D01*
X84081666Y-128550295D02*
X84081666Y-128645533D01*
X84081666Y-128645533D02*
X84034047Y-128788390D01*
X84034047Y-128788390D02*
X83462619Y-129359819D01*
X83462619Y-129359819D02*
X84081666Y-129359819D01*
X84938809Y-128693152D02*
X84938809Y-129359819D01*
X84700714Y-128312200D02*
X84462619Y-129026485D01*
X84462619Y-129026485D02*
X85081666Y-129026485D01*
X85367381Y-128359819D02*
X86034047Y-128359819D01*
X86034047Y-128359819D02*
X85605476Y-129359819D01*
X129899580Y-58546666D02*
X129947200Y-58594285D01*
X129947200Y-58594285D02*
X129994819Y-58737142D01*
X129994819Y-58737142D02*
X129994819Y-58832380D01*
X129994819Y-58832380D02*
X129947200Y-58975237D01*
X129947200Y-58975237D02*
X129851961Y-59070475D01*
X129851961Y-59070475D02*
X129756723Y-59118094D01*
X129756723Y-59118094D02*
X129566247Y-59165713D01*
X129566247Y-59165713D02*
X129423390Y-59165713D01*
X129423390Y-59165713D02*
X129232914Y-59118094D01*
X129232914Y-59118094D02*
X129137676Y-59070475D01*
X129137676Y-59070475D02*
X129042438Y-58975237D01*
X129042438Y-58975237D02*
X128994819Y-58832380D01*
X128994819Y-58832380D02*
X128994819Y-58737142D01*
X128994819Y-58737142D02*
X129042438Y-58594285D01*
X129042438Y-58594285D02*
X129090057Y-58546666D01*
X129423390Y-57975237D02*
X129375771Y-58070475D01*
X129375771Y-58070475D02*
X129328152Y-58118094D01*
X129328152Y-58118094D02*
X129232914Y-58165713D01*
X129232914Y-58165713D02*
X129185295Y-58165713D01*
X129185295Y-58165713D02*
X129090057Y-58118094D01*
X129090057Y-58118094D02*
X129042438Y-58070475D01*
X129042438Y-58070475D02*
X128994819Y-57975237D01*
X128994819Y-57975237D02*
X128994819Y-57784761D01*
X128994819Y-57784761D02*
X129042438Y-57689523D01*
X129042438Y-57689523D02*
X129090057Y-57641904D01*
X129090057Y-57641904D02*
X129185295Y-57594285D01*
X129185295Y-57594285D02*
X129232914Y-57594285D01*
X129232914Y-57594285D02*
X129328152Y-57641904D01*
X129328152Y-57641904D02*
X129375771Y-57689523D01*
X129375771Y-57689523D02*
X129423390Y-57784761D01*
X129423390Y-57784761D02*
X129423390Y-57975237D01*
X129423390Y-57975237D02*
X129471009Y-58070475D01*
X129471009Y-58070475D02*
X129518628Y-58118094D01*
X129518628Y-58118094D02*
X129613866Y-58165713D01*
X129613866Y-58165713D02*
X129804342Y-58165713D01*
X129804342Y-58165713D02*
X129899580Y-58118094D01*
X129899580Y-58118094D02*
X129947200Y-58070475D01*
X129947200Y-58070475D02*
X129994819Y-57975237D01*
X129994819Y-57975237D02*
X129994819Y-57784761D01*
X129994819Y-57784761D02*
X129947200Y-57689523D01*
X129947200Y-57689523D02*
X129899580Y-57641904D01*
X129899580Y-57641904D02*
X129804342Y-57594285D01*
X129804342Y-57594285D02*
X129613866Y-57594285D01*
X129613866Y-57594285D02*
X129518628Y-57641904D01*
X129518628Y-57641904D02*
X129471009Y-57689523D01*
X129471009Y-57689523D02*
X129423390Y-57784761D01*
X81639580Y-89026666D02*
X81687200Y-89074285D01*
X81687200Y-89074285D02*
X81734819Y-89217142D01*
X81734819Y-89217142D02*
X81734819Y-89312380D01*
X81734819Y-89312380D02*
X81687200Y-89455237D01*
X81687200Y-89455237D02*
X81591961Y-89550475D01*
X81591961Y-89550475D02*
X81496723Y-89598094D01*
X81496723Y-89598094D02*
X81306247Y-89645713D01*
X81306247Y-89645713D02*
X81163390Y-89645713D01*
X81163390Y-89645713D02*
X80972914Y-89598094D01*
X80972914Y-89598094D02*
X80877676Y-89550475D01*
X80877676Y-89550475D02*
X80782438Y-89455237D01*
X80782438Y-89455237D02*
X80734819Y-89312380D01*
X80734819Y-89312380D02*
X80734819Y-89217142D01*
X80734819Y-89217142D02*
X80782438Y-89074285D01*
X80782438Y-89074285D02*
X80830057Y-89026666D01*
X81734819Y-88074285D02*
X81734819Y-88645713D01*
X81734819Y-88359999D02*
X80734819Y-88359999D01*
X80734819Y-88359999D02*
X80877676Y-88455237D01*
X80877676Y-88455237D02*
X80972914Y-88550475D01*
X80972914Y-88550475D02*
X81020533Y-88645713D01*
X51858152Y-102838095D02*
X52524819Y-102838095D01*
X51477200Y-103076190D02*
X52191485Y-103314285D01*
X52191485Y-103314285D02*
X52191485Y-102695238D01*
X51524819Y-102123809D02*
X51524819Y-102028571D01*
X51524819Y-102028571D02*
X51572438Y-101933333D01*
X51572438Y-101933333D02*
X51620057Y-101885714D01*
X51620057Y-101885714D02*
X51715295Y-101838095D01*
X51715295Y-101838095D02*
X51905771Y-101790476D01*
X51905771Y-101790476D02*
X52143866Y-101790476D01*
X52143866Y-101790476D02*
X52334342Y-101838095D01*
X52334342Y-101838095D02*
X52429580Y-101885714D01*
X52429580Y-101885714D02*
X52477200Y-101933333D01*
X52477200Y-101933333D02*
X52524819Y-102028571D01*
X52524819Y-102028571D02*
X52524819Y-102123809D01*
X52524819Y-102123809D02*
X52477200Y-102219047D01*
X52477200Y-102219047D02*
X52429580Y-102266666D01*
X52429580Y-102266666D02*
X52334342Y-102314285D01*
X52334342Y-102314285D02*
X52143866Y-102361904D01*
X52143866Y-102361904D02*
X51905771Y-102361904D01*
X51905771Y-102361904D02*
X51715295Y-102314285D01*
X51715295Y-102314285D02*
X51620057Y-102266666D01*
X51620057Y-102266666D02*
X51572438Y-102219047D01*
X51572438Y-102219047D02*
X51524819Y-102123809D01*
X52524819Y-100838095D02*
X52524819Y-101409523D01*
X52524819Y-101123809D02*
X51524819Y-101123809D01*
X51524819Y-101123809D02*
X51667676Y-101219047D01*
X51667676Y-101219047D02*
X51762914Y-101314285D01*
X51762914Y-101314285D02*
X51810533Y-101409523D01*
X51524819Y-100504761D02*
X51524819Y-99885714D01*
X51524819Y-99885714D02*
X51905771Y-100219047D01*
X51905771Y-100219047D02*
X51905771Y-100076190D01*
X51905771Y-100076190D02*
X51953390Y-99980952D01*
X51953390Y-99980952D02*
X52001009Y-99933333D01*
X52001009Y-99933333D02*
X52096247Y-99885714D01*
X52096247Y-99885714D02*
X52334342Y-99885714D01*
X52334342Y-99885714D02*
X52429580Y-99933333D01*
X52429580Y-99933333D02*
X52477200Y-99980952D01*
X52477200Y-99980952D02*
X52524819Y-100076190D01*
X52524819Y-100076190D02*
X52524819Y-100361904D01*
X52524819Y-100361904D02*
X52477200Y-100457142D01*
X52477200Y-100457142D02*
X52429580Y-100504761D01*
X69683333Y-118564819D02*
X69350000Y-118088628D01*
X69111905Y-118564819D02*
X69111905Y-117564819D01*
X69111905Y-117564819D02*
X69492857Y-117564819D01*
X69492857Y-117564819D02*
X69588095Y-117612438D01*
X69588095Y-117612438D02*
X69635714Y-117660057D01*
X69635714Y-117660057D02*
X69683333Y-117755295D01*
X69683333Y-117755295D02*
X69683333Y-117898152D01*
X69683333Y-117898152D02*
X69635714Y-117993390D01*
X69635714Y-117993390D02*
X69588095Y-118041009D01*
X69588095Y-118041009D02*
X69492857Y-118088628D01*
X69492857Y-118088628D02*
X69111905Y-118088628D01*
X70159524Y-118564819D02*
X70350000Y-118564819D01*
X70350000Y-118564819D02*
X70445238Y-118517200D01*
X70445238Y-118517200D02*
X70492857Y-118469580D01*
X70492857Y-118469580D02*
X70588095Y-118326723D01*
X70588095Y-118326723D02*
X70635714Y-118136247D01*
X70635714Y-118136247D02*
X70635714Y-117755295D01*
X70635714Y-117755295D02*
X70588095Y-117660057D01*
X70588095Y-117660057D02*
X70540476Y-117612438D01*
X70540476Y-117612438D02*
X70445238Y-117564819D01*
X70445238Y-117564819D02*
X70254762Y-117564819D01*
X70254762Y-117564819D02*
X70159524Y-117612438D01*
X70159524Y-117612438D02*
X70111905Y-117660057D01*
X70111905Y-117660057D02*
X70064286Y-117755295D01*
X70064286Y-117755295D02*
X70064286Y-117993390D01*
X70064286Y-117993390D02*
X70111905Y-118088628D01*
X70111905Y-118088628D02*
X70159524Y-118136247D01*
X70159524Y-118136247D02*
X70254762Y-118183866D01*
X70254762Y-118183866D02*
X70445238Y-118183866D01*
X70445238Y-118183866D02*
X70540476Y-118136247D01*
X70540476Y-118136247D02*
X70588095Y-118088628D01*
X70588095Y-118088628D02*
X70635714Y-117993390D01*
X75438333Y-75289580D02*
X75390714Y-75337200D01*
X75390714Y-75337200D02*
X75247857Y-75384819D01*
X75247857Y-75384819D02*
X75152619Y-75384819D01*
X75152619Y-75384819D02*
X75009762Y-75337200D01*
X75009762Y-75337200D02*
X74914524Y-75241961D01*
X74914524Y-75241961D02*
X74866905Y-75146723D01*
X74866905Y-75146723D02*
X74819286Y-74956247D01*
X74819286Y-74956247D02*
X74819286Y-74813390D01*
X74819286Y-74813390D02*
X74866905Y-74622914D01*
X74866905Y-74622914D02*
X74914524Y-74527676D01*
X74914524Y-74527676D02*
X75009762Y-74432438D01*
X75009762Y-74432438D02*
X75152619Y-74384819D01*
X75152619Y-74384819D02*
X75247857Y-74384819D01*
X75247857Y-74384819D02*
X75390714Y-74432438D01*
X75390714Y-74432438D02*
X75438333Y-74480057D01*
X76295476Y-74718152D02*
X76295476Y-75384819D01*
X76057381Y-74337200D02*
X75819286Y-75051485D01*
X75819286Y-75051485D02*
X76438333Y-75051485D01*
X67183333Y-75289580D02*
X67135714Y-75337200D01*
X67135714Y-75337200D02*
X66992857Y-75384819D01*
X66992857Y-75384819D02*
X66897619Y-75384819D01*
X66897619Y-75384819D02*
X66754762Y-75337200D01*
X66754762Y-75337200D02*
X66659524Y-75241961D01*
X66659524Y-75241961D02*
X66611905Y-75146723D01*
X66611905Y-75146723D02*
X66564286Y-74956247D01*
X66564286Y-74956247D02*
X66564286Y-74813390D01*
X66564286Y-74813390D02*
X66611905Y-74622914D01*
X66611905Y-74622914D02*
X66659524Y-74527676D01*
X66659524Y-74527676D02*
X66754762Y-74432438D01*
X66754762Y-74432438D02*
X66897619Y-74384819D01*
X66897619Y-74384819D02*
X66992857Y-74384819D01*
X66992857Y-74384819D02*
X67135714Y-74432438D01*
X67135714Y-74432438D02*
X67183333Y-74480057D01*
X67516667Y-74384819D02*
X68135714Y-74384819D01*
X68135714Y-74384819D02*
X67802381Y-74765771D01*
X67802381Y-74765771D02*
X67945238Y-74765771D01*
X67945238Y-74765771D02*
X68040476Y-74813390D01*
X68040476Y-74813390D02*
X68088095Y-74861009D01*
X68088095Y-74861009D02*
X68135714Y-74956247D01*
X68135714Y-74956247D02*
X68135714Y-75194342D01*
X68135714Y-75194342D02*
X68088095Y-75289580D01*
X68088095Y-75289580D02*
X68040476Y-75337200D01*
X68040476Y-75337200D02*
X67945238Y-75384819D01*
X67945238Y-75384819D02*
X67659524Y-75384819D01*
X67659524Y-75384819D02*
X67564286Y-75337200D01*
X67564286Y-75337200D02*
X67516667Y-75289580D01*
X48714819Y-118276666D02*
X48238628Y-118609999D01*
X48714819Y-118848094D02*
X47714819Y-118848094D01*
X47714819Y-118848094D02*
X47714819Y-118467142D01*
X47714819Y-118467142D02*
X47762438Y-118371904D01*
X47762438Y-118371904D02*
X47810057Y-118324285D01*
X47810057Y-118324285D02*
X47905295Y-118276666D01*
X47905295Y-118276666D02*
X48048152Y-118276666D01*
X48048152Y-118276666D02*
X48143390Y-118324285D01*
X48143390Y-118324285D02*
X48191009Y-118371904D01*
X48191009Y-118371904D02*
X48238628Y-118467142D01*
X48238628Y-118467142D02*
X48238628Y-118848094D01*
X47714819Y-117943332D02*
X47714819Y-117276666D01*
X47714819Y-117276666D02*
X48714819Y-117705237D01*
X111849819Y-63602856D02*
X111849819Y-62936190D01*
X111849819Y-62936190D02*
X112849819Y-63364761D01*
X112183152Y-62126666D02*
X112849819Y-62126666D01*
X111802200Y-62364761D02*
X112516485Y-62602856D01*
X112516485Y-62602856D02*
X112516485Y-61983809D01*
X112849819Y-61126666D02*
X112849819Y-61602856D01*
X112849819Y-61602856D02*
X111849819Y-61602856D01*
X112802200Y-60840951D02*
X112849819Y-60698094D01*
X112849819Y-60698094D02*
X112849819Y-60459999D01*
X112849819Y-60459999D02*
X112802200Y-60364761D01*
X112802200Y-60364761D02*
X112754580Y-60317142D01*
X112754580Y-60317142D02*
X112659342Y-60269523D01*
X112659342Y-60269523D02*
X112564104Y-60269523D01*
X112564104Y-60269523D02*
X112468866Y-60317142D01*
X112468866Y-60317142D02*
X112421247Y-60364761D01*
X112421247Y-60364761D02*
X112373628Y-60459999D01*
X112373628Y-60459999D02*
X112326009Y-60650475D01*
X112326009Y-60650475D02*
X112278390Y-60745713D01*
X112278390Y-60745713D02*
X112230771Y-60793332D01*
X112230771Y-60793332D02*
X112135533Y-60840951D01*
X112135533Y-60840951D02*
X112040295Y-60840951D01*
X112040295Y-60840951D02*
X111945057Y-60793332D01*
X111945057Y-60793332D02*
X111897438Y-60745713D01*
X111897438Y-60745713D02*
X111849819Y-60650475D01*
X111849819Y-60650475D02*
X111849819Y-60412380D01*
X111849819Y-60412380D02*
X111897438Y-60269523D01*
X112278390Y-59698094D02*
X112230771Y-59793332D01*
X112230771Y-59793332D02*
X112183152Y-59840951D01*
X112183152Y-59840951D02*
X112087914Y-59888570D01*
X112087914Y-59888570D02*
X112040295Y-59888570D01*
X112040295Y-59888570D02*
X111945057Y-59840951D01*
X111945057Y-59840951D02*
X111897438Y-59793332D01*
X111897438Y-59793332D02*
X111849819Y-59698094D01*
X111849819Y-59698094D02*
X111849819Y-59507618D01*
X111849819Y-59507618D02*
X111897438Y-59412380D01*
X111897438Y-59412380D02*
X111945057Y-59364761D01*
X111945057Y-59364761D02*
X112040295Y-59317142D01*
X112040295Y-59317142D02*
X112087914Y-59317142D01*
X112087914Y-59317142D02*
X112183152Y-59364761D01*
X112183152Y-59364761D02*
X112230771Y-59412380D01*
X112230771Y-59412380D02*
X112278390Y-59507618D01*
X112278390Y-59507618D02*
X112278390Y-59698094D01*
X112278390Y-59698094D02*
X112326009Y-59793332D01*
X112326009Y-59793332D02*
X112373628Y-59840951D01*
X112373628Y-59840951D02*
X112468866Y-59888570D01*
X112468866Y-59888570D02*
X112659342Y-59888570D01*
X112659342Y-59888570D02*
X112754580Y-59840951D01*
X112754580Y-59840951D02*
X112802200Y-59793332D01*
X112802200Y-59793332D02*
X112849819Y-59698094D01*
X112849819Y-59698094D02*
X112849819Y-59507618D01*
X112849819Y-59507618D02*
X112802200Y-59412380D01*
X112802200Y-59412380D02*
X112754580Y-59364761D01*
X112754580Y-59364761D02*
X112659342Y-59317142D01*
X112659342Y-59317142D02*
X112468866Y-59317142D01*
X112468866Y-59317142D02*
X112373628Y-59364761D01*
X112373628Y-59364761D02*
X112326009Y-59412380D01*
X112326009Y-59412380D02*
X112278390Y-59507618D01*
X111849819Y-58412380D02*
X111849819Y-58888570D01*
X111849819Y-58888570D02*
X112326009Y-58936189D01*
X112326009Y-58936189D02*
X112278390Y-58888570D01*
X112278390Y-58888570D02*
X112230771Y-58793332D01*
X112230771Y-58793332D02*
X112230771Y-58555237D01*
X112230771Y-58555237D02*
X112278390Y-58459999D01*
X112278390Y-58459999D02*
X112326009Y-58412380D01*
X112326009Y-58412380D02*
X112421247Y-58364761D01*
X112421247Y-58364761D02*
X112659342Y-58364761D01*
X112659342Y-58364761D02*
X112754580Y-58412380D01*
X112754580Y-58412380D02*
X112802200Y-58459999D01*
X112802200Y-58459999D02*
X112849819Y-58555237D01*
X112849819Y-58555237D02*
X112849819Y-58793332D01*
X112849819Y-58793332D02*
X112802200Y-58888570D01*
X112802200Y-58888570D02*
X112754580Y-58936189D01*
X55064819Y-88431666D02*
X54588628Y-88764999D01*
X55064819Y-89003094D02*
X54064819Y-89003094D01*
X54064819Y-89003094D02*
X54064819Y-88622142D01*
X54064819Y-88622142D02*
X54112438Y-88526904D01*
X54112438Y-88526904D02*
X54160057Y-88479285D01*
X54160057Y-88479285D02*
X54255295Y-88431666D01*
X54255295Y-88431666D02*
X54398152Y-88431666D01*
X54398152Y-88431666D02*
X54493390Y-88479285D01*
X54493390Y-88479285D02*
X54541009Y-88526904D01*
X54541009Y-88526904D02*
X54588628Y-88622142D01*
X54588628Y-88622142D02*
X54588628Y-89003094D01*
X54064819Y-87574523D02*
X54064819Y-87764999D01*
X54064819Y-87764999D02*
X54112438Y-87860237D01*
X54112438Y-87860237D02*
X54160057Y-87907856D01*
X54160057Y-87907856D02*
X54302914Y-88003094D01*
X54302914Y-88003094D02*
X54493390Y-88050713D01*
X54493390Y-88050713D02*
X54874342Y-88050713D01*
X54874342Y-88050713D02*
X54969580Y-88003094D01*
X54969580Y-88003094D02*
X55017200Y-87955475D01*
X55017200Y-87955475D02*
X55064819Y-87860237D01*
X55064819Y-87860237D02*
X55064819Y-87669761D01*
X55064819Y-87669761D02*
X55017200Y-87574523D01*
X55017200Y-87574523D02*
X54969580Y-87526904D01*
X54969580Y-87526904D02*
X54874342Y-87479285D01*
X54874342Y-87479285D02*
X54636247Y-87479285D01*
X54636247Y-87479285D02*
X54541009Y-87526904D01*
X54541009Y-87526904D02*
X54493390Y-87574523D01*
X54493390Y-87574523D02*
X54445771Y-87669761D01*
X54445771Y-87669761D02*
X54445771Y-87860237D01*
X54445771Y-87860237D02*
X54493390Y-87955475D01*
X54493390Y-87955475D02*
X54541009Y-88003094D01*
X54541009Y-88003094D02*
X54636247Y-88050713D01*
X129899580Y-99662857D02*
X129947200Y-99710476D01*
X129947200Y-99710476D02*
X129994819Y-99853333D01*
X129994819Y-99853333D02*
X129994819Y-99948571D01*
X129994819Y-99948571D02*
X129947200Y-100091428D01*
X129947200Y-100091428D02*
X129851961Y-100186666D01*
X129851961Y-100186666D02*
X129756723Y-100234285D01*
X129756723Y-100234285D02*
X129566247Y-100281904D01*
X129566247Y-100281904D02*
X129423390Y-100281904D01*
X129423390Y-100281904D02*
X129232914Y-100234285D01*
X129232914Y-100234285D02*
X129137676Y-100186666D01*
X129137676Y-100186666D02*
X129042438Y-100091428D01*
X129042438Y-100091428D02*
X128994819Y-99948571D01*
X128994819Y-99948571D02*
X128994819Y-99853333D01*
X128994819Y-99853333D02*
X129042438Y-99710476D01*
X129042438Y-99710476D02*
X129090057Y-99662857D01*
X129994819Y-98710476D02*
X129994819Y-99281904D01*
X129994819Y-98996190D02*
X128994819Y-98996190D01*
X128994819Y-98996190D02*
X129137676Y-99091428D01*
X129137676Y-99091428D02*
X129232914Y-99186666D01*
X129232914Y-99186666D02*
X129280533Y-99281904D01*
X128994819Y-98091428D02*
X128994819Y-97996190D01*
X128994819Y-97996190D02*
X129042438Y-97900952D01*
X129042438Y-97900952D02*
X129090057Y-97853333D01*
X129090057Y-97853333D02*
X129185295Y-97805714D01*
X129185295Y-97805714D02*
X129375771Y-97758095D01*
X129375771Y-97758095D02*
X129613866Y-97758095D01*
X129613866Y-97758095D02*
X129804342Y-97805714D01*
X129804342Y-97805714D02*
X129899580Y-97853333D01*
X129899580Y-97853333D02*
X129947200Y-97900952D01*
X129947200Y-97900952D02*
X129994819Y-97996190D01*
X129994819Y-97996190D02*
X129994819Y-98091428D01*
X129994819Y-98091428D02*
X129947200Y-98186666D01*
X129947200Y-98186666D02*
X129899580Y-98234285D01*
X129899580Y-98234285D02*
X129804342Y-98281904D01*
X129804342Y-98281904D02*
X129613866Y-98329523D01*
X129613866Y-98329523D02*
X129375771Y-98329523D01*
X129375771Y-98329523D02*
X129185295Y-98281904D01*
X129185295Y-98281904D02*
X129090057Y-98234285D01*
X129090057Y-98234285D02*
X129042438Y-98186666D01*
X129042438Y-98186666D02*
X128994819Y-98091428D01*
X64369104Y-127221904D02*
X64369104Y-126745714D01*
X64654819Y-127317142D02*
X63654819Y-126983809D01*
X63654819Y-126983809D02*
X64654819Y-126650476D01*
X64654819Y-126317142D02*
X63654819Y-126317142D01*
X63654819Y-126317142D02*
X63654819Y-126079047D01*
X63654819Y-126079047D02*
X63702438Y-125936190D01*
X63702438Y-125936190D02*
X63797676Y-125840952D01*
X63797676Y-125840952D02*
X63892914Y-125793333D01*
X63892914Y-125793333D02*
X64083390Y-125745714D01*
X64083390Y-125745714D02*
X64226247Y-125745714D01*
X64226247Y-125745714D02*
X64416723Y-125793333D01*
X64416723Y-125793333D02*
X64511961Y-125840952D01*
X64511961Y-125840952D02*
X64607200Y-125936190D01*
X64607200Y-125936190D02*
X64654819Y-126079047D01*
X64654819Y-126079047D02*
X64654819Y-126317142D01*
X64654819Y-124745714D02*
X64178628Y-125079047D01*
X64654819Y-125317142D02*
X63654819Y-125317142D01*
X63654819Y-125317142D02*
X63654819Y-124936190D01*
X63654819Y-124936190D02*
X63702438Y-124840952D01*
X63702438Y-124840952D02*
X63750057Y-124793333D01*
X63750057Y-124793333D02*
X63845295Y-124745714D01*
X63845295Y-124745714D02*
X63988152Y-124745714D01*
X63988152Y-124745714D02*
X64083390Y-124793333D01*
X64083390Y-124793333D02*
X64131009Y-124840952D01*
X64131009Y-124840952D02*
X64178628Y-124936190D01*
X64178628Y-124936190D02*
X64178628Y-125317142D01*
X64607200Y-124364761D02*
X64654819Y-124221904D01*
X64654819Y-124221904D02*
X64654819Y-123983809D01*
X64654819Y-123983809D02*
X64607200Y-123888571D01*
X64607200Y-123888571D02*
X64559580Y-123840952D01*
X64559580Y-123840952D02*
X64464342Y-123793333D01*
X64464342Y-123793333D02*
X64369104Y-123793333D01*
X64369104Y-123793333D02*
X64273866Y-123840952D01*
X64273866Y-123840952D02*
X64226247Y-123888571D01*
X64226247Y-123888571D02*
X64178628Y-123983809D01*
X64178628Y-123983809D02*
X64131009Y-124174285D01*
X64131009Y-124174285D02*
X64083390Y-124269523D01*
X64083390Y-124269523D02*
X64035771Y-124317142D01*
X64035771Y-124317142D02*
X63940533Y-124364761D01*
X63940533Y-124364761D02*
X63845295Y-124364761D01*
X63845295Y-124364761D02*
X63750057Y-124317142D01*
X63750057Y-124317142D02*
X63702438Y-124269523D01*
X63702438Y-124269523D02*
X63654819Y-124174285D01*
X63654819Y-124174285D02*
X63654819Y-123936190D01*
X63654819Y-123936190D02*
X63702438Y-123793333D01*
X63654819Y-123459999D02*
X64654819Y-123221904D01*
X64654819Y-123221904D02*
X63940533Y-123031428D01*
X63940533Y-123031428D02*
X64654819Y-122840952D01*
X64654819Y-122840952D02*
X63654819Y-122602857D01*
X64654819Y-121698095D02*
X64654819Y-122269523D01*
X64654819Y-121983809D02*
X63654819Y-121983809D01*
X63654819Y-121983809D02*
X63797676Y-122079047D01*
X63797676Y-122079047D02*
X63892914Y-122174285D01*
X63892914Y-122174285D02*
X63940533Y-122269523D01*
X57777142Y-113389580D02*
X57729523Y-113437200D01*
X57729523Y-113437200D02*
X57586666Y-113484819D01*
X57586666Y-113484819D02*
X57491428Y-113484819D01*
X57491428Y-113484819D02*
X57348571Y-113437200D01*
X57348571Y-113437200D02*
X57253333Y-113341961D01*
X57253333Y-113341961D02*
X57205714Y-113246723D01*
X57205714Y-113246723D02*
X57158095Y-113056247D01*
X57158095Y-113056247D02*
X57158095Y-112913390D01*
X57158095Y-112913390D02*
X57205714Y-112722914D01*
X57205714Y-112722914D02*
X57253333Y-112627676D01*
X57253333Y-112627676D02*
X57348571Y-112532438D01*
X57348571Y-112532438D02*
X57491428Y-112484819D01*
X57491428Y-112484819D02*
X57586666Y-112484819D01*
X57586666Y-112484819D02*
X57729523Y-112532438D01*
X57729523Y-112532438D02*
X57777142Y-112580057D01*
X58729523Y-113484819D02*
X58158095Y-113484819D01*
X58443809Y-113484819D02*
X58443809Y-112484819D01*
X58443809Y-112484819D02*
X58348571Y-112627676D01*
X58348571Y-112627676D02*
X58253333Y-112722914D01*
X58253333Y-112722914D02*
X58158095Y-112770533D01*
X59062857Y-112484819D02*
X59681904Y-112484819D01*
X59681904Y-112484819D02*
X59348571Y-112865771D01*
X59348571Y-112865771D02*
X59491428Y-112865771D01*
X59491428Y-112865771D02*
X59586666Y-112913390D01*
X59586666Y-112913390D02*
X59634285Y-112961009D01*
X59634285Y-112961009D02*
X59681904Y-113056247D01*
X59681904Y-113056247D02*
X59681904Y-113294342D01*
X59681904Y-113294342D02*
X59634285Y-113389580D01*
X59634285Y-113389580D02*
X59586666Y-113437200D01*
X59586666Y-113437200D02*
X59491428Y-113484819D01*
X59491428Y-113484819D02*
X59205714Y-113484819D01*
X59205714Y-113484819D02*
X59110476Y-113437200D01*
X59110476Y-113437200D02*
X59062857Y-113389580D01*
X76864727Y-125696638D02*
X76912347Y-125744257D01*
X76912347Y-125744257D02*
X76959966Y-125887114D01*
X76959966Y-125887114D02*
X76959966Y-125982352D01*
X76959966Y-125982352D02*
X76912347Y-126125209D01*
X76912347Y-126125209D02*
X76817108Y-126220447D01*
X76817108Y-126220447D02*
X76721870Y-126268066D01*
X76721870Y-126268066D02*
X76531394Y-126315685D01*
X76531394Y-126315685D02*
X76388537Y-126315685D01*
X76388537Y-126315685D02*
X76198061Y-126268066D01*
X76198061Y-126268066D02*
X76102823Y-126220447D01*
X76102823Y-126220447D02*
X76007585Y-126125209D01*
X76007585Y-126125209D02*
X75959966Y-125982352D01*
X75959966Y-125982352D02*
X75959966Y-125887114D01*
X75959966Y-125887114D02*
X76007585Y-125744257D01*
X76007585Y-125744257D02*
X76055204Y-125696638D01*
X76959966Y-124744257D02*
X76959966Y-125315685D01*
X76959966Y-125029971D02*
X75959966Y-125029971D01*
X75959966Y-125029971D02*
X76102823Y-125125209D01*
X76102823Y-125125209D02*
X76198061Y-125220447D01*
X76198061Y-125220447D02*
X76245680Y-125315685D01*
X76055204Y-124363304D02*
X76007585Y-124315685D01*
X76007585Y-124315685D02*
X75959966Y-124220447D01*
X75959966Y-124220447D02*
X75959966Y-123982352D01*
X75959966Y-123982352D02*
X76007585Y-123887114D01*
X76007585Y-123887114D02*
X76055204Y-123839495D01*
X76055204Y-123839495D02*
X76150442Y-123791876D01*
X76150442Y-123791876D02*
X76245680Y-123791876D01*
X76245680Y-123791876D02*
X76388537Y-123839495D01*
X76388537Y-123839495D02*
X76959966Y-124410923D01*
X76959966Y-124410923D02*
X76959966Y-123791876D01*
X101959580Y-122046666D02*
X102007200Y-122094285D01*
X102007200Y-122094285D02*
X102054819Y-122237142D01*
X102054819Y-122237142D02*
X102054819Y-122332380D01*
X102054819Y-122332380D02*
X102007200Y-122475237D01*
X102007200Y-122475237D02*
X101911961Y-122570475D01*
X101911961Y-122570475D02*
X101816723Y-122618094D01*
X101816723Y-122618094D02*
X101626247Y-122665713D01*
X101626247Y-122665713D02*
X101483390Y-122665713D01*
X101483390Y-122665713D02*
X101292914Y-122618094D01*
X101292914Y-122618094D02*
X101197676Y-122570475D01*
X101197676Y-122570475D02*
X101102438Y-122475237D01*
X101102438Y-122475237D02*
X101054819Y-122332380D01*
X101054819Y-122332380D02*
X101054819Y-122237142D01*
X101054819Y-122237142D02*
X101102438Y-122094285D01*
X101102438Y-122094285D02*
X101150057Y-122046666D01*
X101054819Y-121713332D02*
X101054819Y-121046666D01*
X101054819Y-121046666D02*
X102054819Y-121475237D01*
D14*
X62230000Y-83720000D02*
X62230000Y-83650000D01*
X63600000Y-85090000D02*
G75*
G02*
X60860000Y-85090000I-1370000J0D01*
G01*
X60860000Y-85090000D02*
G75*
G02*
X63600000Y-85090000I1370000J0D01*
G01*
X57090000Y-122080000D02*
X58420000Y-122080000D01*
X57090000Y-123190000D02*
X57090000Y-122080000D01*
X57090000Y-124650000D02*
X59750000Y-124650000D01*
X57090000Y-133280000D02*
X57090000Y-124650000D01*
X57090000Y-133280000D02*
X59750000Y-133280000D01*
X57210000Y-133280000D02*
X57210000Y-124650000D01*
X57325455Y-133280000D02*
X57325455Y-124650000D01*
X57440910Y-133280000D02*
X57440910Y-124650000D01*
X57556365Y-133280000D02*
X57556365Y-124650000D01*
X57671820Y-133280000D02*
X57671820Y-124650000D01*
X57787275Y-133280000D02*
X57787275Y-124650000D01*
X57902730Y-133280000D02*
X57902730Y-124650000D01*
X58018185Y-133280000D02*
X58018185Y-124650000D01*
X58060000Y-124650000D02*
X58060000Y-124300000D01*
X58133640Y-133280000D02*
X58133640Y-124650000D01*
X58249095Y-133280000D02*
X58249095Y-124650000D01*
X58364550Y-133280000D02*
X58364550Y-124650000D01*
X58480005Y-133280000D02*
X58480005Y-124650000D01*
X58595460Y-133280000D02*
X58595460Y-124650000D01*
X58710915Y-133280000D02*
X58710915Y-124650000D01*
X58780000Y-124650000D02*
X58780000Y-124300000D01*
X58826370Y-133280000D02*
X58826370Y-124650000D01*
X58941825Y-133280000D02*
X58941825Y-124650000D01*
X59057280Y-133280000D02*
X59057280Y-124650000D01*
X59172735Y-133280000D02*
X59172735Y-124650000D01*
X59288190Y-133280000D02*
X59288190Y-124650000D01*
X59403645Y-133280000D02*
X59403645Y-124650000D01*
X59519100Y-133280000D02*
X59519100Y-124650000D01*
X59634555Y-133280000D02*
X59634555Y-124650000D01*
X59750000Y-133280000D02*
X59750000Y-124650000D01*
X58420000Y-83720000D02*
X58420000Y-83650000D01*
X59790000Y-85090000D02*
G75*
G02*
X57050000Y-85090000I-1370000J0D01*
G01*
X57050000Y-85090000D02*
G75*
G02*
X59790000Y-85090000I1370000J0D01*
G01*
X128170000Y-116800000D02*
X128170000Y-122040000D01*
X128507000Y-116800000D02*
X128170000Y-116800000D01*
X128507000Y-122040000D02*
X128170000Y-122040000D01*
X130910000Y-116800000D02*
X130573000Y-116800000D01*
X130910000Y-116800000D02*
X130910000Y-122040000D01*
X130910000Y-122040000D02*
X130573000Y-122040000D01*
X102760000Y-72330000D02*
X102760000Y-92770000D01*
X102760000Y-92770000D02*
X104410000Y-92770000D01*
X106410000Y-92770000D02*
X108060000Y-92770000D01*
X108060000Y-72330000D02*
X102760000Y-72330000D01*
X108060000Y-92770000D02*
X108060000Y-72330000D01*
X100270000Y-72270000D02*
X110550000Y-72270000D01*
X110550000Y-92830000D01*
X100270000Y-92830000D01*
X100270000Y-72270000D01*
X104410000Y-92770000D02*
G75*
G02*
X106410000Y-92770000I1000000J0D01*
G01*
X82230000Y-106680000D02*
G75*
G02*
X80330000Y-106680000I-950000J0D01*
G01*
X80330000Y-106680000D02*
G75*
G02*
X82230000Y-106680000I950000J0D01*
G01*
X53865000Y-52010000D02*
X53865000Y-72450000D01*
X53865000Y-72450000D02*
X55515000Y-72450000D01*
X57515000Y-72450000D02*
X59165000Y-72450000D01*
X59165000Y-52010000D02*
X53865000Y-52010000D01*
X59165000Y-72450000D02*
X59165000Y-52010000D01*
X51375000Y-51950000D02*
X61655000Y-51950000D01*
X61655000Y-72510000D01*
X51375000Y-72510000D01*
X51375000Y-51950000D01*
X55515000Y-72450000D02*
G75*
G02*
X57515000Y-72450000I1000000J0D01*
G01*
D15*
G36*
X55752554Y-122908136D02*
G01*
X55797754Y-122945093D01*
X55826286Y-123010672D01*
X55835797Y-123108861D01*
X55835797Y-123198716D01*
X55666957Y-123198716D01*
X55593768Y-123122629D01*
X55567681Y-123026252D01*
X55599928Y-122928788D01*
X55693044Y-122895817D01*
X55752554Y-122908136D01*
G37*
G36*
X55974294Y-123780419D02*
G01*
X56060797Y-123814658D01*
X56111612Y-123869368D01*
X56128551Y-123942194D01*
X56106449Y-124026252D01*
X56043768Y-124092194D01*
X55681449Y-124092194D01*
X55604638Y-124023353D01*
X55572754Y-123927701D01*
X55601377Y-123842194D01*
X55691232Y-123787846D01*
X55761612Y-123773716D01*
X55850290Y-123769006D01*
X55974294Y-123780419D01*
G37*
G36*
X56338696Y-121269006D02*
G01*
X56325652Y-121367194D01*
X56274928Y-121454875D01*
X56228551Y-121490382D01*
X56164783Y-121517919D01*
X56080544Y-121535582D01*
X55972754Y-121541469D01*
X55868496Y-121535853D01*
X55784710Y-121519006D01*
X55719221Y-121492466D01*
X55669855Y-121457774D01*
X55611884Y-121370455D01*
X55595217Y-121269730D01*
X55595217Y-121176977D01*
X56338696Y-121176977D01*
X56338696Y-121269006D01*
G37*
G36*
X57211401Y-119801131D02*
G01*
X57211401Y-121008861D01*
X57211401Y-126014658D01*
X57211401Y-126135431D01*
X57209799Y-126200706D01*
X57204995Y-126265824D01*
X57197002Y-126330628D01*
X57185839Y-126394962D01*
X57171533Y-126458671D01*
X57154118Y-126521601D01*
X57133636Y-126583600D01*
X57110137Y-126644520D01*
X57083677Y-126704213D01*
X57054319Y-126762536D01*
X57022135Y-126819349D01*
X56987203Y-126874514D01*
X56949605Y-126927898D01*
X56909434Y-126979373D01*
X56866785Y-127028815D01*
X56821761Y-127076105D01*
X56774471Y-127121128D01*
X56725029Y-127163777D01*
X56673554Y-127203949D01*
X56620170Y-127241546D01*
X56565005Y-127276479D01*
X56508193Y-127308663D01*
X56449870Y-127338020D01*
X56390176Y-127364481D01*
X56329256Y-127387980D01*
X56267257Y-127408462D01*
X56204327Y-127425877D01*
X56140618Y-127440183D01*
X56076285Y-127451346D01*
X56011481Y-127459339D01*
X55946362Y-127464142D01*
X55881087Y-127465745D01*
X55815812Y-127464142D01*
X55750693Y-127459339D01*
X55685889Y-127451346D01*
X55621556Y-127440183D01*
X55557847Y-127425877D01*
X55494917Y-127408462D01*
X55432918Y-127387980D01*
X55371998Y-127364481D01*
X55312304Y-127338020D01*
X55253981Y-127308663D01*
X55197169Y-127276479D01*
X55142004Y-127241546D01*
X55088620Y-127203949D01*
X55037145Y-127163777D01*
X54987703Y-127121128D01*
X54940413Y-127076105D01*
X54895389Y-127028815D01*
X54852740Y-126979373D01*
X54812569Y-126927898D01*
X54774971Y-126874514D01*
X54740039Y-126819349D01*
X54707855Y-126762536D01*
X54678497Y-126704213D01*
X54652037Y-126644520D01*
X54628538Y-126583600D01*
X54608056Y-126521601D01*
X54590641Y-126458671D01*
X54576335Y-126394962D01*
X54565172Y-126330628D01*
X54557179Y-126265824D01*
X54552375Y-126200706D01*
X54550773Y-126135431D01*
X54550773Y-126014658D01*
X54550773Y-125745817D01*
X55448116Y-125745817D01*
X55454728Y-125820727D01*
X55474565Y-125893281D01*
X55505091Y-125959314D01*
X55543768Y-126014658D01*
X55648116Y-125939296D01*
X55599928Y-125850890D01*
X55581449Y-125750890D01*
X55607899Y-125645093D01*
X55692681Y-125572267D01*
X55760344Y-125552430D01*
X55846667Y-125545817D01*
X55970399Y-125560219D01*
X56056087Y-125603426D01*
X56106087Y-125669277D01*
X56122754Y-125751614D01*
X56106449Y-125847629D01*
X56058986Y-125939296D01*
X56161159Y-126013933D01*
X56201196Y-125956143D01*
X56230000Y-125892919D01*
X56247391Y-125823897D01*
X56253188Y-125748716D01*
X56239873Y-125639114D01*
X56199928Y-125546542D01*
X56137065Y-125472357D01*
X56055000Y-125417919D01*
X55957083Y-125384495D01*
X55846667Y-125373353D01*
X55734529Y-125384404D01*
X55637246Y-125417556D01*
X55557446Y-125471542D01*
X55497754Y-125545093D01*
X55460525Y-125636940D01*
X55448116Y-125745817D01*
X54550773Y-125745817D01*
X54550773Y-125138571D01*
X54550773Y-124539296D01*
X55467681Y-124539296D01*
X55467681Y-125138571D01*
X55586522Y-125138571D01*
X55586522Y-124930600D01*
X56232899Y-124930600D01*
X56232899Y-124817556D01*
X56403188Y-124817556D01*
X56432899Y-124894730D01*
X56506087Y-124924078D01*
X56578551Y-124894730D01*
X56607536Y-124817556D01*
X56578551Y-124741469D01*
X56506087Y-124711759D01*
X56432899Y-124741469D01*
X56403188Y-124817556D01*
X56232899Y-124817556D01*
X56232899Y-124546542D01*
X56114058Y-124546542D01*
X56114058Y-124768281D01*
X55586522Y-124768281D01*
X55586522Y-124539296D01*
X55467681Y-124539296D01*
X54550773Y-124539296D01*
X54550773Y-123884948D01*
X55448116Y-123884948D01*
X55455544Y-123949078D01*
X55477826Y-124006687D01*
X55513696Y-124057230D01*
X55561884Y-124100165D01*
X55467681Y-124111759D01*
X55467681Y-124254513D01*
X56540145Y-124254513D01*
X56558261Y-124092194D01*
X56169855Y-124092194D01*
X56231812Y-124007411D01*
X56253188Y-123899440D01*
X56240145Y-123811397D01*
X56201015Y-123737122D01*
X56139149Y-123677520D01*
X56057899Y-123633498D01*
X55960525Y-123606325D01*
X55850290Y-123597267D01*
X55737880Y-123604966D01*
X55639783Y-123628064D01*
X55558986Y-123667103D01*
X55498478Y-123722629D01*
X55460707Y-123795093D01*
X55448116Y-123884948D01*
X54550773Y-123884948D01*
X54550773Y-122976977D01*
X55448116Y-122976977D01*
X55454819Y-123047991D01*
X55474928Y-123114658D01*
X55508261Y-123173535D01*
X55554638Y-123221180D01*
X55480000Y-123282774D01*
X55448841Y-123379875D01*
X55558986Y-123416107D01*
X55589783Y-123371904D01*
X55655362Y-123358136D01*
X55996667Y-123358136D01*
X56103913Y-123339205D01*
X56185073Y-123282411D01*
X56222915Y-123223273D01*
X56245620Y-123146824D01*
X56253188Y-123053064D01*
X56250018Y-122991832D01*
X56240507Y-122925527D01*
X56224294Y-122855962D01*
X56201015Y-122784948D01*
X56086522Y-122824803D01*
X56116594Y-122937122D01*
X56126377Y-123028426D01*
X56118225Y-123100437D01*
X56093768Y-123154151D01*
X56050833Y-123187575D01*
X55987246Y-123198716D01*
X55937246Y-123198716D01*
X55937246Y-123089296D01*
X55930000Y-122981405D01*
X55908261Y-122891550D01*
X55872029Y-122819730D01*
X55792862Y-122749078D01*
X55685797Y-122725527D01*
X55589511Y-122742466D01*
X55513696Y-122793281D01*
X55464511Y-122873082D01*
X55448116Y-122976977D01*
X54550773Y-122976977D01*
X54550773Y-121934948D01*
X55154638Y-121934948D01*
X55171848Y-122033498D01*
X55204638Y-122114658D01*
X55251649Y-122180600D01*
X55311522Y-122233498D01*
X55382989Y-122275709D01*
X55464783Y-122309585D01*
X56232899Y-122573353D01*
X56232899Y-122406687D01*
X55580725Y-122211035D01*
X56232899Y-122018281D01*
X56232899Y-121845817D01*
X55467681Y-122103788D01*
X55467681Y-122158861D01*
X55374203Y-122110672D01*
X55312246Y-122037484D01*
X55291504Y-121983589D01*
X55276377Y-121913933D01*
X55154638Y-121934948D01*
X54550773Y-121934948D01*
X54550773Y-121253788D01*
X54550773Y-121008861D01*
X55467681Y-121008861D01*
X55467681Y-121253788D01*
X55470942Y-121320455D01*
X55480725Y-121387122D01*
X55498569Y-121452067D01*
X55526015Y-121513571D01*
X55564601Y-121569911D01*
X55615870Y-121619368D01*
X55680996Y-121660491D01*
X55761159Y-121691832D01*
X55857899Y-121711669D01*
X55972754Y-121718281D01*
X56070097Y-121713772D01*
X56154396Y-121700246D01*
X56225652Y-121677701D01*
X56311703Y-121630147D01*
X56375652Y-121568643D01*
X56420217Y-121495817D01*
X56448116Y-121414296D01*
X56462790Y-121327067D01*
X56467681Y-121237122D01*
X56467681Y-121008861D01*
X55467681Y-121008861D01*
X54550773Y-121008861D01*
X54550773Y-119801131D01*
X55881087Y-118914255D01*
X57211401Y-119801131D01*
G37*
D14*
X66990000Y-101600000D02*
G75*
G02*
X65090000Y-101600000I-950000J0D01*
G01*
X65090000Y-101600000D02*
G75*
G02*
X66990000Y-101600000I950000J0D01*
G01*
X82230000Y-101600000D02*
G75*
G02*
X80330000Y-101600000I-950000J0D01*
G01*
X80330000Y-101600000D02*
G75*
G02*
X82230000Y-101600000I950000J0D01*
G01*
X53895000Y-73897000D02*
X53895000Y-73560000D01*
X53895000Y-76300000D02*
X53895000Y-75963000D01*
X59135000Y-73560000D02*
X53895000Y-73560000D01*
X59135000Y-73897000D02*
X59135000Y-73560000D01*
X59135000Y-76300000D02*
X53895000Y-76300000D01*
X59135000Y-76300000D02*
X59135000Y-75963000D01*
X82230000Y-104140000D02*
G75*
G02*
X80330000Y-104140000I-950000J0D01*
G01*
X80330000Y-104140000D02*
G75*
G02*
X82230000Y-104140000I950000J0D01*
G01*
X76725000Y-52010000D02*
X76725000Y-72450000D01*
X76725000Y-72450000D02*
X78375000Y-72450000D01*
X80375000Y-72450000D02*
X82025000Y-72450000D01*
X82025000Y-52010000D02*
X76725000Y-52010000D01*
X82025000Y-72450000D02*
X82025000Y-52010000D01*
X74235000Y-51950000D02*
X84515000Y-51950000D01*
X84515000Y-72510000D01*
X74235000Y-72510000D01*
X74235000Y-51950000D01*
X78375000Y-72450000D02*
G75*
G02*
X80375000Y-72450000I1000000J0D01*
G01*
X82230000Y-111760000D02*
G75*
G02*
X80330000Y-111760000I-950000J0D01*
G01*
X80330000Y-111760000D02*
G75*
G02*
X82230000Y-111760000I950000J0D01*
G01*
X89140000Y-128170000D02*
X89140000Y-123110000D01*
X96280000Y-118050000D02*
X96280000Y-128170000D01*
X96420000Y-62745000D02*
X96420000Y-67985000D01*
X96757000Y-62745000D02*
X96420000Y-62745000D01*
X96757000Y-67985000D02*
X96420000Y-67985000D01*
X99160000Y-62745000D02*
X98823000Y-62745000D01*
X99160000Y-62745000D02*
X99160000Y-67985000D01*
X99160000Y-67985000D02*
X98823000Y-67985000D01*
X66990000Y-93980000D02*
G75*
G02*
X65090000Y-93980000I-950000J0D01*
G01*
X65090000Y-93980000D02*
G75*
G02*
X66990000Y-93980000I950000J0D01*
G01*
X67410000Y-115570000D02*
X67480000Y-115570000D01*
X67410000Y-115570000D02*
G75*
G02*
X64670000Y-115570000I-1370000J0D01*
G01*
X64670000Y-115570000D02*
G75*
G02*
X67410000Y-115570000I1370000J0D01*
G01*
X118000000Y-72330000D02*
X118000000Y-92770000D01*
X118000000Y-92770000D02*
X123300000Y-92770000D01*
X119650000Y-72330000D02*
X118000000Y-72330000D01*
X123300000Y-72330000D02*
X121650000Y-72330000D01*
X123300000Y-92770000D02*
X123300000Y-72330000D01*
X115510000Y-72270000D02*
X125790000Y-72270000D01*
X125790000Y-92830000D01*
X115510000Y-92830000D01*
X115510000Y-72270000D01*
X121650000Y-72330000D02*
G75*
G02*
X119650000Y-72330000I-1000000J0D01*
G01*
X118000000Y-95190000D02*
X118000000Y-115630000D01*
X118000000Y-115630000D02*
X123300000Y-115630000D01*
X119650000Y-95190000D02*
X118000000Y-95190000D01*
X123300000Y-95190000D02*
X121650000Y-95190000D01*
X123300000Y-115630000D02*
X123300000Y-95190000D01*
X115510000Y-95130000D02*
X125790000Y-95130000D01*
X125790000Y-115690000D01*
X115510000Y-115690000D01*
X115510000Y-95130000D01*
X121650000Y-95190000D02*
G75*
G02*
X119650000Y-95190000I-1000000J0D01*
G01*
X44975000Y-81390000D02*
X44975000Y-63390000D01*
X47625000Y-78740000D02*
X47625000Y-81390000D01*
X47625000Y-81390000D02*
X44975000Y-81390000D01*
X50275000Y-63390000D02*
X44975000Y-63390000D01*
X50275000Y-78740000D02*
X47625000Y-78740000D01*
X50275000Y-78740000D02*
X50275000Y-63390000D01*
X50275000Y-80010000D02*
X50275000Y-81390000D01*
X50275000Y-81390000D02*
X48895000Y-81390000D01*
X65295000Y-52010000D02*
X65295000Y-72450000D01*
X65295000Y-72450000D02*
X66945000Y-72450000D01*
X68945000Y-72450000D02*
X70595000Y-72450000D01*
X70595000Y-52010000D02*
X65295000Y-52010000D01*
X70595000Y-72450000D02*
X70595000Y-52010000D01*
X62805000Y-51950000D02*
X73085000Y-51950000D01*
X73085000Y-72510000D01*
X62805000Y-72510000D01*
X62805000Y-51950000D01*
X66945000Y-72450000D02*
G75*
G02*
X68945000Y-72450000I1000000J0D01*
G01*
X71410000Y-77410000D02*
X71410000Y-113090000D01*
X71410000Y-113090000D02*
X72660000Y-113090000D01*
X74660000Y-113090000D02*
X75910000Y-113090000D01*
X75910000Y-77410000D02*
X71410000Y-77410000D01*
X75910000Y-113090000D02*
X75910000Y-77410000D01*
X68410000Y-77350000D02*
X78910000Y-77350000D01*
X78910000Y-113150000D01*
X68410000Y-113150000D01*
X68410000Y-77350000D01*
X72660000Y-113090000D02*
G75*
G02*
X74660000Y-113090000I1000000J0D01*
G01*
X78840000Y-115570000D02*
X78910000Y-115570000D01*
X78840000Y-115570000D02*
G75*
G02*
X76100000Y-115570000I-1370000J0D01*
G01*
X76100000Y-115570000D02*
G75*
G02*
X78840000Y-115570000I1370000J0D01*
G01*
X105350000Y-120540000D02*
X105350000Y-125840000D01*
X105350000Y-125840000D02*
X125790000Y-125840000D01*
X125790000Y-120540000D02*
X105350000Y-120540000D01*
X125790000Y-122190000D02*
X125790000Y-120540000D01*
X125790000Y-125840000D02*
X125790000Y-124190000D01*
X105290000Y-118050000D02*
X125850000Y-118050000D01*
X125850000Y-128330000D01*
X105290000Y-128330000D01*
X105290000Y-118050000D01*
X125790000Y-124190000D02*
G75*
G02*
X125790000Y-122190000I0J1000000D01*
G01*
X82230000Y-109220000D02*
G75*
G02*
X80330000Y-109220000I-950000J0D01*
G01*
X80330000Y-109220000D02*
G75*
G02*
X82230000Y-109220000I950000J0D01*
G01*
X96420000Y-91995000D02*
X96757000Y-91995000D01*
X96420000Y-97235000D02*
X96420000Y-91995000D01*
X96420000Y-97235000D02*
X96757000Y-97235000D01*
X98823000Y-91995000D02*
X99160000Y-91995000D01*
X98823000Y-97235000D02*
X99160000Y-97235000D01*
X99160000Y-97235000D02*
X99160000Y-91995000D01*
X66990000Y-111760000D02*
G75*
G02*
X65090000Y-111760000I-950000J0D01*
G01*
X65090000Y-111760000D02*
G75*
G02*
X66990000Y-111760000I950000J0D01*
G01*
D15*
G36*
X61322319Y-121081324D02*
G01*
X61230290Y-121134948D01*
X60599130Y-120824803D01*
X60712899Y-120782774D01*
X61322319Y-121081324D01*
G37*
G36*
X60844058Y-125977158D02*
G01*
X60895507Y-125997267D01*
X60957826Y-126071904D01*
X60976667Y-126182774D01*
X60976667Y-126305238D01*
X60587536Y-126305238D01*
X60587536Y-126184948D01*
X60606377Y-126071542D01*
X60666522Y-125996904D01*
X60776667Y-125970455D01*
X60844058Y-125977158D01*
G37*
G36*
X60804565Y-125180962D02*
G01*
X60843243Y-125217828D01*
X60881739Y-125271180D01*
X60840073Y-125374803D01*
X60788986Y-125440020D01*
X60709275Y-125462484D01*
X60645688Y-125452248D01*
X60598406Y-125421542D01*
X60569058Y-125372357D01*
X60559275Y-125306687D01*
X60569420Y-125240745D01*
X60599855Y-125192194D01*
X60647138Y-125162303D01*
X60707826Y-125152339D01*
X60804565Y-125180962D01*
G37*
G36*
X61256739Y-125133045D02*
G01*
X61310000Y-125168643D01*
X61345870Y-125227430D01*
X61357826Y-125308861D01*
X61346504Y-125389477D01*
X61312536Y-125447267D01*
X61259366Y-125482049D01*
X61190435Y-125493643D01*
X61097681Y-125475527D01*
X61030652Y-125426977D01*
X60983913Y-125360310D01*
X61009638Y-125290926D01*
X61034638Y-125232049D01*
X61095507Y-125149803D01*
X61192609Y-125121180D01*
X61256739Y-125133045D01*
G37*
G36*
X61088986Y-120785763D02*
G01*
X61190435Y-120801252D01*
X61266069Y-120826705D01*
X61317609Y-120861759D01*
X61357101Y-120959585D01*
X61337174Y-121042194D01*
X61271594Y-121097629D01*
X61218243Y-121116107D01*
X61149493Y-121128788D01*
X61063895Y-121136125D01*
X60960000Y-121138571D01*
X60832263Y-121133418D01*
X60731176Y-121117959D01*
X60656739Y-121092194D01*
X60587989Y-121035853D01*
X60565073Y-120959585D01*
X60601667Y-120855238D01*
X60650761Y-120821451D01*
X60724855Y-120798353D01*
X60826938Y-120785038D01*
X60960000Y-120780600D01*
X61088986Y-120785763D01*
G37*
G36*
X61432464Y-122565382D02*
G01*
X61432464Y-122726252D01*
X61333913Y-122726252D01*
X61333913Y-122565382D01*
X61432464Y-122565382D01*
G37*
G36*
X62084879Y-121866832D02*
G01*
X62084879Y-122365382D01*
X62084879Y-123482049D01*
X62084879Y-124155962D01*
X62084879Y-125311035D01*
X62084879Y-126305238D01*
X62084879Y-126473353D01*
X62084879Y-126594126D01*
X62079468Y-126704277D01*
X62063286Y-126813367D01*
X62036489Y-126920346D01*
X61999336Y-127024183D01*
X61952183Y-127123878D01*
X61895486Y-127218472D01*
X61829790Y-127307053D01*
X61755728Y-127388768D01*
X61674013Y-127462830D01*
X61585433Y-127528526D01*
X61490839Y-127585223D01*
X61391144Y-127632375D01*
X61287307Y-127669529D01*
X61180328Y-127696325D01*
X61071238Y-127712507D01*
X60961087Y-127717919D01*
X60850936Y-127712507D01*
X60741846Y-127696325D01*
X60634867Y-127669529D01*
X60531030Y-127632375D01*
X60431335Y-127585223D01*
X60336741Y-127528526D01*
X60248161Y-127462830D01*
X60166446Y-127388768D01*
X60092384Y-127307053D01*
X60026688Y-127218472D01*
X59969991Y-127123878D01*
X59922838Y-127024183D01*
X59885685Y-126920346D01*
X59858888Y-126813367D01*
X59842706Y-126704277D01*
X59837295Y-126594126D01*
X59837295Y-126473353D01*
X59837295Y-126195817D01*
X60461449Y-126195817D01*
X60461449Y-126473353D01*
X61461449Y-126473353D01*
X61461449Y-126305238D01*
X61104928Y-126305238D01*
X61104928Y-126184223D01*
X61096413Y-126076252D01*
X61070870Y-125981324D01*
X61027210Y-125902611D01*
X60964348Y-125843281D01*
X60880833Y-125806053D01*
X60775217Y-125793643D01*
X60678076Y-125805519D01*
X60599211Y-125841147D01*
X60538623Y-125900527D01*
X60495749Y-125980841D01*
X60470024Y-126079271D01*
X60461449Y-126195817D01*
X59837295Y-126195817D01*
X59837295Y-125306687D01*
X60441159Y-125306687D01*
X60457826Y-125420455D01*
X60508188Y-125521180D01*
X60591522Y-125592919D01*
X60645598Y-125613027D01*
X60708551Y-125619730D01*
X60784185Y-125610219D01*
X60844420Y-125581687D01*
X60894330Y-125533589D01*
X60938986Y-125465382D01*
X60984728Y-125544911D01*
X61042246Y-125606687D01*
X61112265Y-125646361D01*
X61195507Y-125659585D01*
X61270960Y-125649622D01*
X61339348Y-125619730D01*
X61397591Y-125570274D01*
X61442609Y-125501614D01*
X61471413Y-125414839D01*
X61481015Y-125311035D01*
X61471323Y-125206415D01*
X61442246Y-125118643D01*
X61396775Y-125048625D01*
X61337899Y-124997267D01*
X61268605Y-124965745D01*
X61191884Y-124955238D01*
X61107917Y-124968643D01*
X61034275Y-125008861D01*
X60972047Y-125073897D01*
X60922319Y-125161759D01*
X60874946Y-125089295D01*
X60824130Y-125037122D01*
X60766794Y-125005600D01*
X60699855Y-124995093D01*
X60586812Y-125020455D01*
X60506015Y-125089658D01*
X60457464Y-125189295D01*
X60441159Y-125306687D01*
X59837295Y-125306687D01*
X59837295Y-124478426D01*
X60441159Y-124478426D01*
X60451123Y-124578969D01*
X60481015Y-124663209D01*
X60529565Y-124734948D01*
X60595507Y-124797991D01*
X60675942Y-124692194D01*
X60628478Y-124647810D01*
X60596232Y-124603064D01*
X60571594Y-124490020D01*
X60582464Y-124422267D01*
X60615073Y-124371180D01*
X60666522Y-124339114D01*
X60733913Y-124328426D01*
X60819783Y-124341107D01*
X60910362Y-124383498D01*
X60961449Y-124418643D01*
X61018333Y-124464658D01*
X61082826Y-124522448D01*
X61156739Y-124592919D01*
X61211852Y-124647589D01*
X61272359Y-124709183D01*
X61338261Y-124777701D01*
X61461449Y-124777701D01*
X61461449Y-124155962D01*
X61331015Y-124137122D01*
X61331015Y-124591469D01*
X61261248Y-124515866D01*
X61196876Y-124448474D01*
X61137899Y-124389295D01*
X61057283Y-124314748D01*
X60984275Y-124256324D01*
X60916612Y-124212846D01*
X60852029Y-124183136D01*
X60788442Y-124166017D01*
X60723768Y-124160310D01*
X60648587Y-124169640D01*
X60581015Y-124197629D01*
X60523678Y-124243281D01*
X60479203Y-124305600D01*
X60450670Y-124384132D01*
X60441159Y-124478426D01*
X59837295Y-124478426D01*
X59837295Y-123484223D01*
X60441159Y-123484223D01*
X60456105Y-123600709D01*
X60500942Y-123706687D01*
X60546997Y-123769328D01*
X60605451Y-123822951D01*
X60676304Y-123867556D01*
X60759195Y-123900970D01*
X60853760Y-123921019D01*
X60960000Y-123927701D01*
X61067085Y-123921220D01*
X61162254Y-123901775D01*
X61245507Y-123869368D01*
X61316562Y-123825729D01*
X61375137Y-123772589D01*
X61421232Y-123709948D01*
X61454444Y-123639698D01*
X61474372Y-123563732D01*
X61481015Y-123482049D01*
X61472228Y-123380238D01*
X61445870Y-123295093D01*
X61407373Y-123224984D01*
X61362174Y-123168281D01*
X61258551Y-123249440D01*
X61318333Y-123342919D01*
X61338170Y-123402701D01*
X61344783Y-123476252D01*
X61335181Y-123550709D01*
X61306377Y-123617556D01*
X61256377Y-123673897D01*
X61183188Y-123716832D01*
X61085000Y-123744006D01*
X60960000Y-123753064D01*
X60832826Y-123743553D01*
X60733913Y-123715020D01*
X60660906Y-123670727D01*
X60611449Y-123613933D01*
X60583188Y-123547991D01*
X60573768Y-123476252D01*
X60591884Y-123366832D01*
X60647681Y-123270455D01*
X60543333Y-123182774D01*
X60499765Y-123245364D01*
X60467609Y-123312846D01*
X60447772Y-123390654D01*
X60441159Y-123484223D01*
X59837295Y-123484223D01*
X59837295Y-122565382D01*
X60461449Y-122565382D01*
X60461449Y-122708861D01*
X60649855Y-123016107D01*
X60763623Y-122946542D01*
X60628116Y-122726252D01*
X61333913Y-122726252D01*
X61333913Y-122970455D01*
X61461449Y-122970455D01*
X61461449Y-122565382D01*
X61461449Y-122365382D01*
X61333913Y-122365382D01*
X61333913Y-122565382D01*
X60461449Y-122565382D01*
X59837295Y-122565382D01*
X59837295Y-121542919D01*
X60461449Y-121542919D01*
X60461449Y-122103064D01*
X60975217Y-122103064D01*
X60975217Y-121983498D01*
X60949855Y-121910672D01*
X60941884Y-121840020D01*
X60960725Y-121756687D01*
X61022681Y-121698353D01*
X61073496Y-121682321D01*
X61139710Y-121676977D01*
X61229656Y-121690111D01*
X61296594Y-121729513D01*
X61338170Y-121791741D01*
X61352029Y-121873353D01*
X61328478Y-121983861D01*
X61258551Y-122076252D01*
X61349855Y-122173353D01*
X61404294Y-122111488D01*
X61445870Y-122040382D01*
X61472228Y-121959132D01*
X61481015Y-121866832D01*
X61470236Y-121765201D01*
X61437899Y-121677701D01*
X61386268Y-121606234D01*
X61317609Y-121552701D01*
X61234728Y-121519277D01*
X61140435Y-121508136D01*
X61047138Y-121517103D01*
X60968696Y-121544006D01*
X60906015Y-121586488D01*
X60860000Y-121642194D01*
X60831739Y-121708861D01*
X60822319Y-121784223D01*
X60830652Y-121865020D01*
X60861449Y-121947991D01*
X60583188Y-121947991D01*
X60583188Y-121563933D01*
X60461449Y-121542919D01*
X59837295Y-121542919D01*
X59837295Y-120959585D01*
X60441159Y-120959585D01*
X60456216Y-121062927D01*
X60501385Y-121147830D01*
X60576667Y-121214295D01*
X60651440Y-121251863D01*
X60740254Y-121278698D01*
X60843107Y-121294798D01*
X60960000Y-121300165D01*
X61077255Y-121294798D01*
X61180471Y-121278698D01*
X61269647Y-121251863D01*
X61344783Y-121214295D01*
X61420467Y-121147830D01*
X61465878Y-121062927D01*
X61481015Y-120959585D01*
X61465878Y-120856606D01*
X61420467Y-120771824D01*
X61344783Y-120705238D01*
X61269647Y-120667511D01*
X61180471Y-120640564D01*
X61077255Y-120624395D01*
X60960000Y-120619006D01*
X60843107Y-120624395D01*
X60740254Y-120640564D01*
X60651440Y-120667511D01*
X60576667Y-120705238D01*
X60501385Y-120771824D01*
X60456216Y-120856606D01*
X60441159Y-120959585D01*
X59837295Y-120959585D01*
X59837295Y-120619006D01*
X59837295Y-119411276D01*
X60961087Y-118662081D01*
X62084879Y-119411276D01*
X62084879Y-120619006D01*
X62084879Y-120959585D01*
X62084879Y-121866832D01*
G37*
D14*
X82230000Y-93980000D02*
G75*
G02*
X80330000Y-93980000I-950000J0D01*
G01*
X80330000Y-93980000D02*
G75*
G02*
X82230000Y-93980000I950000J0D01*
G01*
X128170000Y-68460000D02*
X128170000Y-73700000D01*
X128507000Y-68460000D02*
X128170000Y-68460000D01*
X128507000Y-73700000D02*
X128170000Y-73700000D01*
X130910000Y-68460000D02*
X130573000Y-68460000D01*
X130910000Y-68460000D02*
X130910000Y-73700000D01*
X130910000Y-73700000D02*
X130573000Y-73700000D01*
X102760000Y-95190000D02*
X102760000Y-115630000D01*
X102760000Y-115630000D02*
X104410000Y-115630000D01*
X106410000Y-115630000D02*
X108060000Y-115630000D01*
X108060000Y-95190000D02*
X102760000Y-95190000D01*
X108060000Y-115630000D02*
X108060000Y-95190000D01*
X100270000Y-95130000D02*
X110550000Y-95130000D01*
X110550000Y-115690000D01*
X100270000Y-115690000D01*
X100270000Y-95130000D01*
X104410000Y-115630000D02*
G75*
G02*
X106410000Y-115630000I1000000J0D01*
G01*
X82230000Y-99060000D02*
G75*
G02*
X80330000Y-99060000I-950000J0D01*
G01*
X80330000Y-99060000D02*
G75*
G02*
X82230000Y-99060000I950000J0D01*
G01*
X118000000Y-49470000D02*
X118000000Y-69910000D01*
X118000000Y-69910000D02*
X123300000Y-69910000D01*
X119650000Y-49470000D02*
X118000000Y-49470000D01*
X123300000Y-49470000D02*
X121650000Y-49470000D01*
X123300000Y-69910000D02*
X123300000Y-49470000D01*
X115510000Y-49410000D02*
X125790000Y-49410000D01*
X125790000Y-69970000D01*
X115510000Y-69970000D01*
X115510000Y-49410000D01*
X121650000Y-49470000D02*
G75*
G02*
X119650000Y-49470000I-1000000J0D01*
G01*
X99795000Y-127000000D02*
X99865000Y-127000000D01*
X99795000Y-127000000D02*
G75*
G02*
X97055000Y-127000000I-1370000J0D01*
G01*
X97055000Y-127000000D02*
G75*
G02*
X99795000Y-127000000I1370000J0D01*
G01*
X79855000Y-117495000D02*
X83975000Y-117495000D01*
X79855000Y-117550000D02*
X79855000Y-117495000D01*
X79855000Y-127615000D02*
X79855000Y-127560000D01*
X83975000Y-117495000D02*
X83975000Y-117550000D01*
X83975000Y-127560000D02*
X83975000Y-127615000D01*
X83975000Y-127615000D02*
X79855000Y-127615000D01*
X79315000Y-117545000D02*
X79075000Y-117215000D01*
X79555000Y-117215000D01*
X79315000Y-117545000D01*
G36*
X79315000Y-117545000D02*
G01*
X79075000Y-117215000D01*
X79555000Y-117215000D01*
X79315000Y-117545000D01*
G37*
X128170000Y-55760000D02*
X128507000Y-55760000D01*
X128170000Y-61000000D02*
X128170000Y-55760000D01*
X128170000Y-61000000D02*
X128507000Y-61000000D01*
X130573000Y-55760000D02*
X130910000Y-55760000D01*
X130573000Y-61000000D02*
X130910000Y-61000000D01*
X130910000Y-61000000D02*
X130910000Y-55760000D01*
X66990000Y-96520000D02*
G75*
G02*
X65090000Y-96520000I-950000J0D01*
G01*
X65090000Y-96520000D02*
G75*
G02*
X66990000Y-96520000I950000J0D01*
G01*
X79910000Y-86240000D02*
X79910000Y-91480000D01*
X80247000Y-86240000D02*
X79910000Y-86240000D01*
X80247000Y-91480000D02*
X79910000Y-91480000D01*
X82650000Y-86240000D02*
X82313000Y-86240000D01*
X82650000Y-86240000D02*
X82650000Y-91480000D01*
X82650000Y-91480000D02*
X82313000Y-91480000D01*
X89425000Y-49420000D02*
X90805000Y-49420000D01*
X89425000Y-50800000D02*
X89425000Y-49420000D01*
X89425000Y-52070000D02*
X89425000Y-80120000D01*
X89425000Y-52070000D02*
X92075000Y-52070000D01*
X89425000Y-80120000D02*
X94725000Y-80120000D01*
X92075000Y-49420000D02*
X94725000Y-49420000D01*
X92075000Y-52070000D02*
X92075000Y-49420000D01*
X94725000Y-49420000D02*
X94725000Y-80120000D01*
D15*
G36*
X58538680Y-120798957D02*
G01*
X58635660Y-120814779D01*
X58711304Y-120841147D01*
X58784402Y-120904644D01*
X58808768Y-121000205D01*
X58784583Y-121093502D01*
X58712029Y-121157452D01*
X58636787Y-121184827D01*
X58540048Y-121201252D01*
X58421812Y-121206727D01*
X58303011Y-121201373D01*
X58205548Y-121185310D01*
X58129420Y-121158539D01*
X58055779Y-121094861D01*
X58031232Y-121000205D01*
X58055598Y-120905550D01*
X58128696Y-120841872D01*
X58204420Y-120815101D01*
X58301643Y-120799038D01*
X58420362Y-120793684D01*
X58538680Y-120798957D01*
G37*
G36*
X59543792Y-120216147D02*
G01*
X59543792Y-121000205D01*
X59543792Y-121380640D01*
X59543792Y-124399964D01*
X57296208Y-124399964D01*
X57296208Y-121380640D01*
X57296208Y-121000205D01*
X57900072Y-121000205D01*
X57916649Y-121114970D01*
X57966377Y-121209988D01*
X58045362Y-121284535D01*
X58149710Y-121337886D01*
X58231957Y-121361638D01*
X58322657Y-121375890D01*
X58421812Y-121380640D01*
X58522093Y-121375890D01*
X58613277Y-121361638D01*
X58695362Y-121337886D01*
X58798623Y-121284535D01*
X58875797Y-121209988D01*
X58923895Y-121114970D01*
X58939928Y-121000205D01*
X58923533Y-120884988D01*
X58874348Y-120790060D01*
X58795906Y-120715785D01*
X58691739Y-120662524D01*
X58609573Y-120638772D01*
X58519114Y-120624521D01*
X58420362Y-120619771D01*
X58320000Y-120624521D01*
X58228575Y-120638772D01*
X58146087Y-120662524D01*
X58042192Y-120715785D01*
X57964565Y-120790060D01*
X57916196Y-120884988D01*
X57900072Y-121000205D01*
X57296208Y-121000205D01*
X57296208Y-119824843D01*
X58155145Y-119824843D01*
X58155145Y-119987162D01*
X58708768Y-119987162D01*
X58784855Y-120063973D01*
X58816014Y-120164698D01*
X58787029Y-120246944D01*
X58689928Y-120274118D01*
X58155145Y-120274118D01*
X58155145Y-120436437D01*
X58710217Y-120436437D01*
X58805960Y-120422760D01*
X58878696Y-120381727D01*
X58924620Y-120312977D01*
X58939928Y-120216147D01*
X58932409Y-120148756D01*
X58909855Y-120082814D01*
X58872989Y-120023213D01*
X58822536Y-119974843D01*
X58920362Y-119964698D01*
X58920362Y-119824843D01*
X58155145Y-119824843D01*
X57296208Y-119824843D01*
X57296208Y-119260350D01*
X57964565Y-119260350D01*
X57984130Y-119422669D01*
X58155145Y-119422669D01*
X58155145Y-119592959D01*
X58273261Y-119592959D01*
X58273261Y-119422669D01*
X58688478Y-119422669D01*
X58790562Y-119405368D01*
X58870725Y-119353466D01*
X58922627Y-119268231D01*
X58939928Y-119150930D01*
X58935761Y-119088430D01*
X58923261Y-119028466D01*
X58879783Y-118927742D01*
X58772536Y-118986437D01*
X58798623Y-119050930D01*
X58808768Y-119128466D01*
X58778696Y-119229553D01*
X58687029Y-119260350D01*
X58273261Y-119260350D01*
X58273261Y-119020495D01*
X58155145Y-119002379D01*
X58155145Y-119260350D01*
X57964565Y-119260350D01*
X57296208Y-119260350D01*
X57296208Y-118927742D01*
X57296208Y-116753829D01*
X57301619Y-116643678D01*
X57317801Y-116534588D01*
X57344598Y-116427609D01*
X57381751Y-116323772D01*
X57428904Y-116224076D01*
X57485601Y-116129483D01*
X57551297Y-116040902D01*
X57625359Y-115959187D01*
X57707074Y-115885125D01*
X57795654Y-115819429D01*
X57890248Y-115762732D01*
X57989943Y-115715580D01*
X58093780Y-115678426D01*
X58200759Y-115651630D01*
X58309849Y-115635448D01*
X58420000Y-115630036D01*
X58530151Y-115635448D01*
X58639241Y-115651630D01*
X58746220Y-115678426D01*
X58850057Y-115715580D01*
X58949752Y-115762732D01*
X59044346Y-115819429D01*
X59132926Y-115885125D01*
X59214641Y-115959187D01*
X59288703Y-116040902D01*
X59354399Y-116129483D01*
X59411096Y-116224076D01*
X59458249Y-116323772D01*
X59495402Y-116427609D01*
X59522199Y-116534588D01*
X59538381Y-116643678D01*
X59543792Y-116753829D01*
X59543792Y-118927742D01*
X59543792Y-119150930D01*
X59543792Y-120216147D01*
G37*
D14*
X55770000Y-92650000D02*
X55770000Y-110550000D01*
X55770000Y-110550000D02*
X57420000Y-110550000D01*
X59420000Y-110550000D02*
X61070000Y-110550000D01*
X61070000Y-92650000D02*
X55770000Y-92650000D01*
X61070000Y-110550000D02*
X61070000Y-92650000D01*
X53280000Y-92590000D02*
X63560000Y-92590000D01*
X63560000Y-110610000D01*
X53280000Y-110610000D01*
X53280000Y-92590000D01*
X57420000Y-110550000D02*
G75*
G02*
X59420000Y-110550000I1000000J0D01*
G01*
X73125000Y-115570000D02*
X73195000Y-115570000D01*
X73125000Y-115570000D02*
G75*
G02*
X70385000Y-115570000I-1370000J0D01*
G01*
X70385000Y-115570000D02*
G75*
G02*
X73125000Y-115570000I1370000J0D01*
G01*
X66990000Y-104140000D02*
G75*
G02*
X65090000Y-104140000I-950000J0D01*
G01*
X65090000Y-104140000D02*
G75*
G02*
X66990000Y-104140000I950000J0D01*
G01*
X82230000Y-96520000D02*
G75*
G02*
X80330000Y-96520000I-950000J0D01*
G01*
X80330000Y-96520000D02*
G75*
G02*
X82230000Y-96520000I950000J0D01*
G01*
X66990000Y-109220000D02*
G75*
G02*
X65090000Y-109220000I-950000J0D01*
G01*
X65090000Y-109220000D02*
G75*
G02*
X66990000Y-109220000I950000J0D01*
G01*
X66990000Y-99060000D02*
G75*
G02*
X65090000Y-99060000I-950000J0D01*
G01*
X65090000Y-99060000D02*
G75*
G02*
X66990000Y-99060000I950000J0D01*
G01*
X72985000Y-73897000D02*
X72985000Y-73560000D01*
X72985000Y-76300000D02*
X72985000Y-75963000D01*
X78225000Y-73560000D02*
X72985000Y-73560000D01*
X78225000Y-73897000D02*
X78225000Y-73560000D01*
X78225000Y-76300000D02*
X72985000Y-76300000D01*
X78225000Y-76300000D02*
X78225000Y-75963000D01*
X64730000Y-73560000D02*
X64730000Y-73897000D01*
X64730000Y-73560000D02*
X69970000Y-73560000D01*
X64730000Y-75963000D02*
X64730000Y-76300000D01*
X64730000Y-76300000D02*
X69970000Y-76300000D01*
X69970000Y-73560000D02*
X69970000Y-73897000D01*
X69970000Y-75963000D02*
X69970000Y-76300000D01*
X50800000Y-118010000D02*
X50800000Y-117940000D01*
X52170000Y-119380000D02*
G75*
G02*
X49430000Y-119380000I-1370000J0D01*
G01*
X49430000Y-119380000D02*
G75*
G02*
X52170000Y-119380000I1370000J0D01*
G01*
X102760000Y-49470000D02*
X102760000Y-69910000D01*
X102760000Y-69910000D02*
X104410000Y-69910000D01*
X106410000Y-69910000D02*
X108060000Y-69910000D01*
X108060000Y-49470000D02*
X102760000Y-49470000D01*
X108060000Y-69910000D02*
X108060000Y-49470000D01*
X100270000Y-49410000D02*
X110550000Y-49410000D01*
X110550000Y-69970000D01*
X100270000Y-69970000D01*
X100270000Y-49410000D01*
X104410000Y-69910000D02*
G75*
G02*
X106410000Y-69910000I1000000J0D01*
G01*
X54610000Y-83720000D02*
X54610000Y-83650000D01*
X55980000Y-85090000D02*
G75*
G02*
X53240000Y-85090000I-1370000J0D01*
G01*
X53240000Y-85090000D02*
G75*
G02*
X55980000Y-85090000I1370000J0D01*
G01*
X128170000Y-96400000D02*
X128507000Y-96400000D01*
X128170000Y-101640000D02*
X128170000Y-96400000D01*
X128170000Y-101640000D02*
X128507000Y-101640000D01*
X130573000Y-96400000D02*
X130910000Y-96400000D01*
X130573000Y-101640000D02*
X130910000Y-101640000D01*
X130910000Y-101640000D02*
X130910000Y-96400000D01*
X64960000Y-128110000D02*
X64960000Y-126727000D01*
X64960000Y-128110000D02*
X66343000Y-128110000D01*
X65200000Y-121050000D02*
X66510000Y-121050000D01*
X65200000Y-127870000D02*
X65200000Y-121050000D01*
X65200000Y-127870000D02*
X66510000Y-127870000D01*
X66675000Y-125063333D02*
X67945000Y-125063333D01*
X68110000Y-121050000D02*
X69050000Y-121050000D01*
X68110000Y-127870000D02*
X69050000Y-127870000D01*
X69215000Y-125063333D02*
X70485000Y-125063333D01*
X70650000Y-121050000D02*
X71590000Y-121050000D01*
X70650000Y-127870000D02*
X71590000Y-127870000D01*
X71755000Y-125063333D02*
X73025000Y-125063333D01*
X73190000Y-121050000D02*
X74500000Y-121050000D01*
X73190000Y-127870000D02*
X74500000Y-127870000D01*
X74500000Y-127870000D02*
X74500000Y-121050000D01*
X66675000Y-122650000D02*
X67945000Y-122650000D01*
X67945000Y-126270000D01*
X66675000Y-126270000D01*
X66675000Y-122650000D01*
X66675000Y-125063333D02*
X67945000Y-125063333D01*
X67945000Y-126270000D01*
X66675000Y-126270000D01*
X66675000Y-125063333D01*
G36*
X66675000Y-125063333D02*
G01*
X67945000Y-125063333D01*
X67945000Y-126270000D01*
X66675000Y-126270000D01*
X66675000Y-125063333D01*
G37*
X69215000Y-122650000D02*
X70485000Y-122650000D01*
X70485000Y-126270000D01*
X69215000Y-126270000D01*
X69215000Y-122650000D01*
X69215000Y-125063333D02*
X70485000Y-125063333D01*
X70485000Y-126270000D01*
X69215000Y-126270000D01*
X69215000Y-125063333D01*
G36*
X69215000Y-125063333D02*
G01*
X70485000Y-125063333D01*
X70485000Y-126270000D01*
X69215000Y-126270000D01*
X69215000Y-125063333D01*
G37*
X71755000Y-122650000D02*
X73025000Y-122650000D01*
X73025000Y-126270000D01*
X71755000Y-126270000D01*
X71755000Y-122650000D01*
X71755000Y-125063333D02*
X73025000Y-125063333D01*
X73025000Y-126270000D01*
X71755000Y-126270000D01*
X71755000Y-125063333D01*
G36*
X71755000Y-125063333D02*
G01*
X73025000Y-125063333D01*
X73025000Y-126270000D01*
X71755000Y-126270000D01*
X71755000Y-125063333D01*
G37*
X44975000Y-113140000D02*
X44975000Y-84980000D01*
X47625000Y-110490000D02*
X47625000Y-113140000D01*
X47625000Y-113140000D02*
X44975000Y-113140000D01*
X50275000Y-84980000D02*
X44975000Y-84980000D01*
X50275000Y-110490000D02*
X47625000Y-110490000D01*
X50275000Y-110490000D02*
X50275000Y-84980000D01*
X50275000Y-111760000D02*
X50275000Y-113140000D01*
X50275000Y-113140000D02*
X48895000Y-113140000D01*
X55800000Y-111660000D02*
X61040000Y-111660000D01*
X55800000Y-111997000D02*
X55800000Y-111660000D01*
X55800000Y-114400000D02*
X55800000Y-114063000D01*
X61040000Y-111660000D02*
X61040000Y-111997000D01*
X61040000Y-114063000D02*
X61040000Y-114400000D01*
X61040000Y-114400000D02*
X55800000Y-114400000D01*
X66990000Y-106680000D02*
G75*
G02*
X65090000Y-106680000I-950000J0D01*
G01*
X65090000Y-106680000D02*
G75*
G02*
X66990000Y-106680000I950000J0D01*
G01*
X75113606Y-122475000D02*
X75450606Y-122475000D01*
X75113606Y-127715000D02*
X75113606Y-122475000D01*
X75450606Y-127715000D02*
X75113606Y-127715000D01*
X77516606Y-122475000D02*
X77853606Y-122475000D01*
X77853606Y-122475000D02*
X77853606Y-127715000D01*
X77853606Y-127715000D02*
X77516606Y-127715000D01*
X100230000Y-119260000D02*
X100230000Y-124500000D01*
X100567000Y-119260000D02*
X100230000Y-119260000D01*
X100567000Y-124500000D02*
X100230000Y-124500000D01*
X102970000Y-119260000D02*
X102633000Y-119260000D01*
X102970000Y-119260000D02*
X102970000Y-124500000D01*
X102970000Y-124500000D02*
X102633000Y-124500000D01*
X54500000Y-118220000D02*
X54500000Y-116840000D01*
X55880000Y-118220000D02*
X54500000Y-118220000D01*
X57150000Y-115460000D02*
X62340000Y-115460000D01*
X57150000Y-118220000D02*
X57150000Y-115460000D01*
X57150000Y-118220000D02*
X62340000Y-118220000D01*
X62340000Y-118220000D02*
X62340000Y-115460000D01*
%LPC*%
D16*
X62230000Y-85090000D03*
X62230000Y-82550000D03*
D17*
X58420000Y-123190000D03*
D16*
X58420000Y-85090000D03*
X58420000Y-82550000D03*
X129540000Y-116920000D03*
X129540000Y-121920000D03*
D18*
X109220000Y-91440000D03*
D16*
X109220000Y-88900000D03*
X109220000Y-86360000D03*
X109220000Y-83820000D03*
X109220000Y-81280000D03*
X109220000Y-78740000D03*
X109220000Y-76200000D03*
X109220000Y-73660000D03*
X101600000Y-73660000D03*
X101600000Y-76200000D03*
X101600000Y-78740000D03*
X101600000Y-81280000D03*
X101600000Y-83820000D03*
X101600000Y-86360000D03*
X101600000Y-88900000D03*
X101600000Y-91440000D03*
D19*
X81280000Y-106680000D03*
D18*
X60325000Y-71120000D03*
D16*
X60325000Y-68580000D03*
X60325000Y-66040000D03*
X60325000Y-63500000D03*
X60325000Y-60960000D03*
X60325000Y-58420000D03*
X60325000Y-55880000D03*
X60325000Y-53340000D03*
X52705000Y-53340000D03*
X52705000Y-55880000D03*
X52705000Y-58420000D03*
X52705000Y-60960000D03*
X52705000Y-63500000D03*
X52705000Y-66040000D03*
X52705000Y-68580000D03*
X52705000Y-71120000D03*
D20*
X43955000Y-125730000D03*
X44657944Y-124032944D03*
X44657944Y-127427056D03*
X46355000Y-123330000D03*
D21*
X46355000Y-125730000D03*
D20*
X46355000Y-128130000D03*
X48052056Y-124032944D03*
X48052056Y-127427056D03*
X48755000Y-125730000D03*
X129680000Y-129540000D03*
X130382944Y-127842944D03*
X130382944Y-131237056D03*
X132080000Y-127140000D03*
D21*
X132080000Y-129540000D03*
D20*
X132080000Y-131940000D03*
X133777056Y-127842944D03*
X133777056Y-131237056D03*
X134480000Y-129540000D03*
D19*
X66040000Y-101600000D03*
X81280000Y-101600000D03*
D16*
X59015000Y-74930000D03*
X54015000Y-74930000D03*
D20*
X129680000Y-49530000D03*
X130382944Y-47832944D03*
X130382944Y-51227056D03*
X132080000Y-47130000D03*
D21*
X132080000Y-49530000D03*
D20*
X132080000Y-51930000D03*
X133777056Y-47832944D03*
X133777056Y-51227056D03*
X134480000Y-49530000D03*
D19*
X81280000Y-104140000D03*
D18*
X83185000Y-71120000D03*
D16*
X83185000Y-68580000D03*
X83185000Y-66040000D03*
X83185000Y-63500000D03*
X83185000Y-60960000D03*
X83185000Y-58420000D03*
X83185000Y-55880000D03*
X83185000Y-53340000D03*
X75565000Y-53340000D03*
X75565000Y-55880000D03*
X75565000Y-58420000D03*
X75565000Y-60960000D03*
X75565000Y-63500000D03*
X75565000Y-66040000D03*
X75565000Y-68580000D03*
X75565000Y-71120000D03*
D19*
X81280000Y-111760000D03*
D22*
X89830000Y-128110000D03*
X91270000Y-128110000D03*
X92710000Y-128110000D03*
X94150000Y-128110000D03*
X95590000Y-128110000D03*
X95590000Y-118110000D03*
X94150000Y-118110000D03*
X92710000Y-118110000D03*
X91270000Y-118110000D03*
X89830000Y-118110000D03*
D16*
X97790000Y-62865000D03*
X97790000Y-67865000D03*
D19*
X66040000Y-93980000D03*
D16*
X66040000Y-115570000D03*
X68580000Y-115570000D03*
D23*
X116840000Y-73660000D03*
D16*
X116840000Y-76200000D03*
X116840000Y-78740000D03*
X116840000Y-81280000D03*
X116840000Y-83820000D03*
X116840000Y-86360000D03*
X116840000Y-88900000D03*
X116840000Y-91440000D03*
X124460000Y-91440000D03*
X124460000Y-88900000D03*
X124460000Y-86360000D03*
X124460000Y-83820000D03*
X124460000Y-81280000D03*
X124460000Y-78740000D03*
X124460000Y-76200000D03*
X124460000Y-73660000D03*
D23*
X116840000Y-96520000D03*
D16*
X116840000Y-99060000D03*
X116840000Y-101600000D03*
X116840000Y-104140000D03*
X116840000Y-106680000D03*
X116840000Y-109220000D03*
X116840000Y-111760000D03*
X116840000Y-114300000D03*
X124460000Y-114300000D03*
X124460000Y-111760000D03*
X124460000Y-109220000D03*
X124460000Y-106680000D03*
X124460000Y-104140000D03*
X124460000Y-101600000D03*
X124460000Y-99060000D03*
X124460000Y-96520000D03*
D24*
X48895000Y-80010000D03*
D25*
X46355000Y-80010000D03*
X48895000Y-77470000D03*
X46355000Y-77470000D03*
X48895000Y-74930000D03*
X46355000Y-74930000D03*
X48895000Y-72390000D03*
X46355000Y-72390000D03*
X48895000Y-69850000D03*
X46355000Y-69850000D03*
X48895000Y-67310000D03*
X46355000Y-67310000D03*
X48895000Y-64770000D03*
X46355000Y-64770000D03*
D18*
X71755000Y-71120000D03*
D16*
X71755000Y-68580000D03*
X71755000Y-66040000D03*
X71755000Y-63500000D03*
X71755000Y-60960000D03*
X71755000Y-58420000D03*
X71755000Y-55880000D03*
X71755000Y-53340000D03*
X64135000Y-53340000D03*
X64135000Y-55880000D03*
X64135000Y-58420000D03*
X64135000Y-60960000D03*
X64135000Y-63500000D03*
X64135000Y-66040000D03*
X64135000Y-68580000D03*
X64135000Y-71120000D03*
D26*
X77470000Y-111760000D03*
D27*
X77470000Y-109220000D03*
X77470000Y-106680000D03*
X77470000Y-104140000D03*
X77470000Y-101600000D03*
X77470000Y-99060000D03*
X77470000Y-96520000D03*
X77470000Y-93980000D03*
X77470000Y-91440000D03*
X77470000Y-88900000D03*
X77470000Y-86360000D03*
X77470000Y-83820000D03*
X77470000Y-81280000D03*
X77470000Y-78740000D03*
X69850000Y-78740000D03*
X69850000Y-81280000D03*
X69850000Y-83820000D03*
X69850000Y-86360000D03*
X69850000Y-88900000D03*
X69850000Y-91440000D03*
X69850000Y-93980000D03*
X69850000Y-96520000D03*
X69850000Y-99060000D03*
X69850000Y-101600000D03*
X69850000Y-104140000D03*
X69850000Y-106680000D03*
X69850000Y-109220000D03*
X69850000Y-111760000D03*
D16*
X77470000Y-115570000D03*
X80010000Y-115570000D03*
D28*
X124460000Y-119380000D03*
D16*
X121920000Y-119380000D03*
X119380000Y-119380000D03*
X116840000Y-119380000D03*
X114300000Y-119380000D03*
X111760000Y-119380000D03*
X109220000Y-119380000D03*
X106680000Y-119380000D03*
X106680000Y-127000000D03*
X109220000Y-127000000D03*
X111760000Y-127000000D03*
X114300000Y-127000000D03*
X116840000Y-127000000D03*
X119380000Y-127000000D03*
X121920000Y-127000000D03*
X124460000Y-127000000D03*
D19*
X81280000Y-109220000D03*
D16*
X97790000Y-97115000D03*
X97790000Y-92115000D03*
D19*
X66040000Y-111760000D03*
X81280000Y-93980000D03*
D16*
X129540000Y-68580000D03*
X129540000Y-73580000D03*
D18*
X109220000Y-114300000D03*
D16*
X109220000Y-111760000D03*
X109220000Y-109220000D03*
X109220000Y-106680000D03*
X109220000Y-104140000D03*
X109220000Y-101600000D03*
X109220000Y-99060000D03*
X109220000Y-96520000D03*
X101600000Y-96520000D03*
X101600000Y-99060000D03*
X101600000Y-101600000D03*
X101600000Y-104140000D03*
X101600000Y-106680000D03*
X101600000Y-109220000D03*
X101600000Y-111760000D03*
X101600000Y-114300000D03*
D19*
X81280000Y-99060000D03*
D23*
X116840000Y-50800000D03*
D16*
X116840000Y-53340000D03*
X116840000Y-55880000D03*
X116840000Y-58420000D03*
X116840000Y-60960000D03*
X116840000Y-63500000D03*
X116840000Y-66040000D03*
X116840000Y-68580000D03*
X124460000Y-68580000D03*
X124460000Y-66040000D03*
X124460000Y-63500000D03*
X124460000Y-60960000D03*
X124460000Y-58420000D03*
X124460000Y-55880000D03*
X124460000Y-53340000D03*
X124460000Y-50800000D03*
X98425000Y-127000000D03*
X100965000Y-127000000D03*
D29*
X79440000Y-118110000D03*
X79440000Y-119380000D03*
X79440000Y-120650000D03*
X79440000Y-121920000D03*
X79440000Y-123190000D03*
X79440000Y-124460000D03*
X79440000Y-125730000D03*
X79440000Y-127000000D03*
X84390000Y-127000000D03*
X84390000Y-125730000D03*
X84390000Y-124460000D03*
X84390000Y-123190000D03*
X84390000Y-121920000D03*
X84390000Y-120650000D03*
X84390000Y-119380000D03*
X84390000Y-118110000D03*
D16*
X129540000Y-60880000D03*
X129540000Y-55880000D03*
D19*
X66040000Y-96520000D03*
D16*
X81280000Y-86360000D03*
X81280000Y-91360000D03*
D30*
X90805000Y-50800000D03*
D25*
X93345000Y-50800000D03*
X90805000Y-53340000D03*
X93345000Y-53340000D03*
X90805000Y-55880000D03*
X93345000Y-55880000D03*
X90805000Y-58420000D03*
X93345000Y-58420000D03*
X90805000Y-60960000D03*
X93345000Y-60960000D03*
X90805000Y-63500000D03*
X93345000Y-63500000D03*
X90805000Y-66040000D03*
X93345000Y-66040000D03*
X90805000Y-68580000D03*
X93345000Y-68580000D03*
X90805000Y-71120000D03*
X93345000Y-71120000D03*
X90805000Y-73660000D03*
X93345000Y-73660000D03*
X90805000Y-76200000D03*
X93345000Y-76200000D03*
X90805000Y-78740000D03*
X93345000Y-78740000D03*
D18*
X62230000Y-109220000D03*
D16*
X62230000Y-106680000D03*
X62230000Y-104140000D03*
X62230000Y-101600000D03*
X62230000Y-99060000D03*
X62230000Y-96520000D03*
X62230000Y-93980000D03*
X54610000Y-93980000D03*
X54610000Y-96520000D03*
X54610000Y-99060000D03*
X54610000Y-101600000D03*
X54610000Y-104140000D03*
X54610000Y-106680000D03*
X54610000Y-109220000D03*
X71755000Y-115570000D03*
X74295000Y-115570000D03*
D20*
X43955000Y-52070000D03*
X44657944Y-50372944D03*
X44657944Y-53767056D03*
X46355000Y-49670000D03*
D21*
X46355000Y-52070000D03*
D20*
X46355000Y-54470000D03*
X48052056Y-50372944D03*
X48052056Y-53767056D03*
X48755000Y-52070000D03*
D19*
X66040000Y-104140000D03*
X81280000Y-96520000D03*
X66040000Y-109220000D03*
X66040000Y-99060000D03*
D16*
X78105000Y-74930000D03*
X73105000Y-74930000D03*
X64850000Y-74930000D03*
X69850000Y-74930000D03*
X50800000Y-119380000D03*
X50800000Y-116840000D03*
D18*
X109220000Y-68580000D03*
D16*
X109220000Y-66040000D03*
X109220000Y-63500000D03*
X109220000Y-60960000D03*
X109220000Y-58420000D03*
X109220000Y-55880000D03*
X109220000Y-53340000D03*
X109220000Y-50800000D03*
X101600000Y-50800000D03*
X101600000Y-53340000D03*
X101600000Y-55880000D03*
X101600000Y-58420000D03*
X101600000Y-60960000D03*
X101600000Y-63500000D03*
X101600000Y-66040000D03*
X101600000Y-68580000D03*
X54610000Y-85090000D03*
X54610000Y-82550000D03*
X129540000Y-101520000D03*
X129540000Y-96520000D03*
D31*
X67310000Y-128765000D03*
X69850000Y-128765000D03*
X72390000Y-128765000D03*
X72390000Y-120155000D03*
X69850000Y-120155000D03*
X67310000Y-120155000D03*
D24*
X48895000Y-111760000D03*
D25*
X46355000Y-111760000D03*
X48895000Y-109220000D03*
X46355000Y-109220000D03*
X48895000Y-106680000D03*
X46355000Y-106680000D03*
X48895000Y-104140000D03*
X46355000Y-104140000D03*
X48895000Y-101600000D03*
X46355000Y-101600000D03*
X48895000Y-99060000D03*
X46355000Y-99060000D03*
X48895000Y-96520000D03*
X46355000Y-96520000D03*
X48895000Y-93980000D03*
X46355000Y-93980000D03*
X48895000Y-91440000D03*
X46355000Y-91440000D03*
X48895000Y-88900000D03*
X46355000Y-88900000D03*
X48895000Y-86360000D03*
X46355000Y-86360000D03*
D16*
X60920000Y-113030000D03*
X55920000Y-113030000D03*
D19*
X66040000Y-106680000D03*
D16*
X76483606Y-127595000D03*
X76483606Y-122595000D03*
X101600000Y-119380000D03*
X101600000Y-124380000D03*
D17*
X55880000Y-116840000D03*
D25*
X58420000Y-116840000D03*
X60960000Y-116840000D03*
%LPD*%
M02*
