G04 #@! TF.GenerationSoftware,KiCad,Pcbnew,9.0.1*
G04 #@! TF.CreationDate,2025-04-25T23:35:10+02:00*
G04 #@! TF.ProjectId,DistributedPulseModulation,44697374-7269-4627-9574-656450756c73,rev?*
G04 #@! TF.SameCoordinates,Original*
G04 #@! TF.FileFunction,Legend,Bot*
G04 #@! TF.FilePolarity,Positive*
%FSLAX46Y46*%
G04 Gerber Fmt 4.6, Leading zero omitted, Abs format (unit mm)*
G04 Created by KiCad (PCBNEW 9.0.1) date 2025-04-25 23:35:10*
%MOMM*%
%LPD*%
G01*
G04 APERTURE LIST*
G04 Aperture macros list*
%AMRoundRect*
0 Rectangle with rounded corners*
0 $1 Rounding radius*
0 $2 $3 $4 $5 $6 $7 $8 $9 X,Y pos of 4 corners*
0 Add a 4 corners polygon primitive as box body*
4,1,4,$2,$3,$4,$5,$6,$7,$8,$9,$2,$3,0*
0 Add four circle primitives for the rounded corners*
1,1,$1+$1,$2,$3*
1,1,$1+$1,$4,$5*
1,1,$1+$1,$6,$7*
1,1,$1+$1,$8,$9*
0 Add four rect primitives between the rounded corners*
20,1,$1+$1,$2,$3,$4,$5,0*
20,1,$1+$1,$4,$5,$6,$7,0*
20,1,$1+$1,$6,$7,$8,$9,0*
20,1,$1+$1,$8,$9,$2,$3,0*%
%AMFreePoly0*
4,1,18,0.558779,0.830902,0.583205,0.805470,1.083205,0.055470,1.099919,-0.004031,1.083205,-0.055470,0.583205,-0.805470,0.534710,-0.843783,0.500000,-0.850000,-0.500000,-0.850000,-0.558779,-0.830902,-0.595106,-0.780902,-0.600000,-0.750000,-0.600000,0.750000,-0.580902,0.808779,-0.530902,0.845106,-0.500000,0.850000,0.500000,0.850000,0.558779,0.830902,0.558779,0.830902,$1*%
%AMFreePoly1*
4,1,20,0.558779,0.830902,0.595106,0.780902,0.600000,0.750000,0.600000,-0.750000,0.580902,-0.808779,0.530902,-0.845106,0.500000,-0.850000,-0.650000,-0.850000,-0.708779,-0.830902,-0.745106,-0.780902,-0.745106,-0.719098,-0.733205,-0.694530,-0.270185,0.000000,-0.733205,0.694530,-0.749919,0.754031,-0.728467,0.811992,-0.677043,0.846274,-0.650000,0.850000,0.500000,0.850000,0.558779,0.830902,
0.558779,0.830902,$1*%
G04 Aperture macros list end*
%ADD10C,0.200000*%
%ADD11C,0.150000*%
%ADD12C,0.120000*%
%ADD13C,1.800000*%
%ADD14O,1.800000X1.800000*%
%ADD15RoundRect,0.100000X0.850000X-0.850000X0.850000X0.850000X-0.850000X0.850000X-0.850000X-0.850000X0*%
%ADD16C,1.900000*%
%ADD17RoundRect,0.281250X0.618750X0.618750X-0.618750X0.618750X-0.618750X-0.618750X0.618750X-0.618750X0*%
%ADD18C,1.000000*%
%ADD19C,6.600000*%
%ADD20RoundRect,0.281250X-0.618750X-0.618750X0.618750X-0.618750X0.618750X0.618750X-0.618750X0.618750X0*%
%ADD21RoundRect,0.100000X0.850000X0.850000X-0.850000X0.850000X-0.850000X-0.850000X0.850000X-0.850000X0*%
%ADD22RoundRect,0.281250X1.018750X0.618750X-1.018750X0.618750X-1.018750X-0.618750X1.018750X-0.618750X0*%
%ADD23O,2.600000X1.800000*%
%ADD24RoundRect,0.281250X-0.618750X0.618750X-0.618750X-0.618750X0.618750X-0.618750X0.618750X0.618750X0*%
%ADD25RoundRect,0.279412X-0.670588X0.670588X-0.670588X-0.670588X0.670588X-0.670588X0.670588X0.670588X0*%
%ADD26RoundRect,0.100000X-0.850000X-0.850000X0.850000X-0.850000X0.850000X0.850000X-0.850000X0.850000X0*%
%ADD27FreePoly0,180.000000*%
%ADD28FreePoly1,180.000000*%
%ADD29RoundRect,0.100000X0.150000X0.800000X-0.150000X0.800000X-0.150000X-0.800000X0.150000X-0.800000X0*%
G04 APERTURE END LIST*
D10*
X71191266Y-125464673D02*
X71191266Y-126226578D01*
X71572219Y-125845625D02*
X70810314Y-125845625D01*
X71048409Y-127036101D02*
X71096028Y-127178958D01*
X71096028Y-127178958D02*
X71143647Y-127226577D01*
X71143647Y-127226577D02*
X71238885Y-127274196D01*
X71238885Y-127274196D02*
X71381742Y-127274196D01*
X71381742Y-127274196D02*
X71476980Y-127226577D01*
X71476980Y-127226577D02*
X71524600Y-127178958D01*
X71524600Y-127178958D02*
X71572219Y-127083720D01*
X71572219Y-127083720D02*
X71572219Y-126702768D01*
X71572219Y-126702768D02*
X70572219Y-126702768D01*
X70572219Y-126702768D02*
X70572219Y-127036101D01*
X70572219Y-127036101D02*
X70619838Y-127131339D01*
X70619838Y-127131339D02*
X70667457Y-127178958D01*
X70667457Y-127178958D02*
X70762695Y-127226577D01*
X70762695Y-127226577D02*
X70857933Y-127226577D01*
X70857933Y-127226577D02*
X70953171Y-127178958D01*
X70953171Y-127178958D02*
X71000790Y-127131339D01*
X71000790Y-127131339D02*
X71048409Y-127036101D01*
X71048409Y-127036101D02*
X71048409Y-126702768D01*
X71572219Y-128131339D02*
X71048409Y-128131339D01*
X71048409Y-128131339D02*
X70953171Y-128083720D01*
X70953171Y-128083720D02*
X70905552Y-127988482D01*
X70905552Y-127988482D02*
X70905552Y-127798006D01*
X70905552Y-127798006D02*
X70953171Y-127702768D01*
X71524600Y-128131339D02*
X71572219Y-128036101D01*
X71572219Y-128036101D02*
X71572219Y-127798006D01*
X71572219Y-127798006D02*
X71524600Y-127702768D01*
X71524600Y-127702768D02*
X71429361Y-127655149D01*
X71429361Y-127655149D02*
X71334123Y-127655149D01*
X71334123Y-127655149D02*
X71238885Y-127702768D01*
X71238885Y-127702768D02*
X71191266Y-127798006D01*
X71191266Y-127798006D02*
X71191266Y-128036101D01*
X71191266Y-128036101D02*
X71143647Y-128131339D01*
X70905552Y-128464673D02*
X70905552Y-128845625D01*
X70572219Y-128607530D02*
X71429361Y-128607530D01*
X71429361Y-128607530D02*
X71524600Y-128655149D01*
X71524600Y-128655149D02*
X71572219Y-128750387D01*
X71572219Y-128750387D02*
X71572219Y-128845625D01*
X70905552Y-129036102D02*
X70905552Y-129417054D01*
X70572219Y-129178959D02*
X71429361Y-129178959D01*
X71429361Y-129178959D02*
X71524600Y-129226578D01*
X71524600Y-129226578D02*
X71572219Y-129321816D01*
X71572219Y-129321816D02*
X71572219Y-129417054D01*
X75580713Y-119451266D02*
X74818809Y-119451266D01*
X75199761Y-119832219D02*
X75199761Y-119070314D01*
X73866428Y-118832219D02*
X74342618Y-118832219D01*
X74342618Y-118832219D02*
X74390237Y-119308409D01*
X74390237Y-119308409D02*
X74342618Y-119260790D01*
X74342618Y-119260790D02*
X74247380Y-119213171D01*
X74247380Y-119213171D02*
X74009285Y-119213171D01*
X74009285Y-119213171D02*
X73914047Y-119260790D01*
X73914047Y-119260790D02*
X73866428Y-119308409D01*
X73866428Y-119308409D02*
X73818809Y-119403647D01*
X73818809Y-119403647D02*
X73818809Y-119641742D01*
X73818809Y-119641742D02*
X73866428Y-119736980D01*
X73866428Y-119736980D02*
X73914047Y-119784600D01*
X73914047Y-119784600D02*
X74009285Y-119832219D01*
X74009285Y-119832219D02*
X74247380Y-119832219D01*
X74247380Y-119832219D02*
X74342618Y-119784600D01*
X74342618Y-119784600D02*
X74390237Y-119736980D01*
X73533094Y-118832219D02*
X73199761Y-119832219D01*
X73199761Y-119832219D02*
X72866428Y-118832219D01*
X58824600Y-125417054D02*
X58872219Y-125559911D01*
X58872219Y-125559911D02*
X58872219Y-125798006D01*
X58872219Y-125798006D02*
X58824600Y-125893244D01*
X58824600Y-125893244D02*
X58776980Y-125940863D01*
X58776980Y-125940863D02*
X58681742Y-125988482D01*
X58681742Y-125988482D02*
X58586504Y-125988482D01*
X58586504Y-125988482D02*
X58491266Y-125940863D01*
X58491266Y-125940863D02*
X58443647Y-125893244D01*
X58443647Y-125893244D02*
X58396028Y-125798006D01*
X58396028Y-125798006D02*
X58348409Y-125607530D01*
X58348409Y-125607530D02*
X58300790Y-125512292D01*
X58300790Y-125512292D02*
X58253171Y-125464673D01*
X58253171Y-125464673D02*
X58157933Y-125417054D01*
X58157933Y-125417054D02*
X58062695Y-125417054D01*
X58062695Y-125417054D02*
X57967457Y-125464673D01*
X57967457Y-125464673D02*
X57919838Y-125512292D01*
X57919838Y-125512292D02*
X57872219Y-125607530D01*
X57872219Y-125607530D02*
X57872219Y-125845625D01*
X57872219Y-125845625D02*
X57919838Y-125988482D01*
X58872219Y-126417054D02*
X57872219Y-126417054D01*
X57872219Y-126417054D02*
X57872219Y-126655149D01*
X57872219Y-126655149D02*
X57919838Y-126798006D01*
X57919838Y-126798006D02*
X58015076Y-126893244D01*
X58015076Y-126893244D02*
X58110314Y-126940863D01*
X58110314Y-126940863D02*
X58300790Y-126988482D01*
X58300790Y-126988482D02*
X58443647Y-126988482D01*
X58443647Y-126988482D02*
X58634123Y-126940863D01*
X58634123Y-126940863D02*
X58729361Y-126893244D01*
X58729361Y-126893244D02*
X58824600Y-126798006D01*
X58824600Y-126798006D02*
X58872219Y-126655149D01*
X58872219Y-126655149D02*
X58872219Y-126417054D01*
X58586504Y-127369435D02*
X58586504Y-127845625D01*
X58872219Y-127274197D02*
X57872219Y-127607530D01*
X57872219Y-127607530D02*
X58872219Y-127940863D01*
X68079838Y-125988482D02*
X68032219Y-125893244D01*
X68032219Y-125893244D02*
X68032219Y-125750387D01*
X68032219Y-125750387D02*
X68079838Y-125607530D01*
X68079838Y-125607530D02*
X68175076Y-125512292D01*
X68175076Y-125512292D02*
X68270314Y-125464673D01*
X68270314Y-125464673D02*
X68460790Y-125417054D01*
X68460790Y-125417054D02*
X68603647Y-125417054D01*
X68603647Y-125417054D02*
X68794123Y-125464673D01*
X68794123Y-125464673D02*
X68889361Y-125512292D01*
X68889361Y-125512292D02*
X68984600Y-125607530D01*
X68984600Y-125607530D02*
X69032219Y-125750387D01*
X69032219Y-125750387D02*
X69032219Y-125845625D01*
X69032219Y-125845625D02*
X68984600Y-125988482D01*
X68984600Y-125988482D02*
X68936980Y-126036101D01*
X68936980Y-126036101D02*
X68603647Y-126036101D01*
X68603647Y-126036101D02*
X68603647Y-125845625D01*
X69032219Y-126464673D02*
X68032219Y-126464673D01*
X68032219Y-126464673D02*
X69032219Y-127036101D01*
X69032219Y-127036101D02*
X68032219Y-127036101D01*
X69032219Y-127512292D02*
X68032219Y-127512292D01*
X68032219Y-127512292D02*
X68032219Y-127750387D01*
X68032219Y-127750387D02*
X68079838Y-127893244D01*
X68079838Y-127893244D02*
X68175076Y-127988482D01*
X68175076Y-127988482D02*
X68270314Y-128036101D01*
X68270314Y-128036101D02*
X68460790Y-128083720D01*
X68460790Y-128083720D02*
X68603647Y-128083720D01*
X68603647Y-128083720D02*
X68794123Y-128036101D01*
X68794123Y-128036101D02*
X68889361Y-127988482D01*
X68889361Y-127988482D02*
X68984600Y-127893244D01*
X68984600Y-127893244D02*
X69032219Y-127750387D01*
X69032219Y-127750387D02*
X69032219Y-127512292D01*
X56284600Y-125417054D02*
X56332219Y-125559911D01*
X56332219Y-125559911D02*
X56332219Y-125798006D01*
X56332219Y-125798006D02*
X56284600Y-125893244D01*
X56284600Y-125893244D02*
X56236980Y-125940863D01*
X56236980Y-125940863D02*
X56141742Y-125988482D01*
X56141742Y-125988482D02*
X56046504Y-125988482D01*
X56046504Y-125988482D02*
X55951266Y-125940863D01*
X55951266Y-125940863D02*
X55903647Y-125893244D01*
X55903647Y-125893244D02*
X55856028Y-125798006D01*
X55856028Y-125798006D02*
X55808409Y-125607530D01*
X55808409Y-125607530D02*
X55760790Y-125512292D01*
X55760790Y-125512292D02*
X55713171Y-125464673D01*
X55713171Y-125464673D02*
X55617933Y-125417054D01*
X55617933Y-125417054D02*
X55522695Y-125417054D01*
X55522695Y-125417054D02*
X55427457Y-125464673D01*
X55427457Y-125464673D02*
X55379838Y-125512292D01*
X55379838Y-125512292D02*
X55332219Y-125607530D01*
X55332219Y-125607530D02*
X55332219Y-125845625D01*
X55332219Y-125845625D02*
X55379838Y-125988482D01*
X56236980Y-126988482D02*
X56284600Y-126940863D01*
X56284600Y-126940863D02*
X56332219Y-126798006D01*
X56332219Y-126798006D02*
X56332219Y-126702768D01*
X56332219Y-126702768D02*
X56284600Y-126559911D01*
X56284600Y-126559911D02*
X56189361Y-126464673D01*
X56189361Y-126464673D02*
X56094123Y-126417054D01*
X56094123Y-126417054D02*
X55903647Y-126369435D01*
X55903647Y-126369435D02*
X55760790Y-126369435D01*
X55760790Y-126369435D02*
X55570314Y-126417054D01*
X55570314Y-126417054D02*
X55475076Y-126464673D01*
X55475076Y-126464673D02*
X55379838Y-126559911D01*
X55379838Y-126559911D02*
X55332219Y-126702768D01*
X55332219Y-126702768D02*
X55332219Y-126798006D01*
X55332219Y-126798006D02*
X55379838Y-126940863D01*
X55379838Y-126940863D02*
X55427457Y-126988482D01*
X56332219Y-127893244D02*
X56332219Y-127417054D01*
X56332219Y-127417054D02*
X55332219Y-127417054D01*
X61316980Y-126036101D02*
X61364600Y-125988482D01*
X61364600Y-125988482D02*
X61412219Y-125845625D01*
X61412219Y-125845625D02*
X61412219Y-125750387D01*
X61412219Y-125750387D02*
X61364600Y-125607530D01*
X61364600Y-125607530D02*
X61269361Y-125512292D01*
X61269361Y-125512292D02*
X61174123Y-125464673D01*
X61174123Y-125464673D02*
X60983647Y-125417054D01*
X60983647Y-125417054D02*
X60840790Y-125417054D01*
X60840790Y-125417054D02*
X60650314Y-125464673D01*
X60650314Y-125464673D02*
X60555076Y-125512292D01*
X60555076Y-125512292D02*
X60459838Y-125607530D01*
X60459838Y-125607530D02*
X60412219Y-125750387D01*
X60412219Y-125750387D02*
X60412219Y-125845625D01*
X60412219Y-125845625D02*
X60459838Y-125988482D01*
X60459838Y-125988482D02*
X60507457Y-126036101D01*
X61412219Y-126940863D02*
X61412219Y-126464673D01*
X61412219Y-126464673D02*
X60412219Y-126464673D01*
X61412219Y-127274197D02*
X60412219Y-127274197D01*
X61412219Y-127845625D02*
X60840790Y-127417054D01*
X60412219Y-127845625D02*
X60983647Y-127274197D01*
X60412219Y-128464673D02*
X60412219Y-128655149D01*
X60412219Y-128655149D02*
X60459838Y-128750387D01*
X60459838Y-128750387D02*
X60555076Y-128845625D01*
X60555076Y-128845625D02*
X60745552Y-128893244D01*
X60745552Y-128893244D02*
X61078885Y-128893244D01*
X61078885Y-128893244D02*
X61269361Y-128845625D01*
X61269361Y-128845625D02*
X61364600Y-128750387D01*
X61364600Y-128750387D02*
X61412219Y-128655149D01*
X61412219Y-128655149D02*
X61412219Y-128464673D01*
X61412219Y-128464673D02*
X61364600Y-128369435D01*
X61364600Y-128369435D02*
X61269361Y-128274197D01*
X61269361Y-128274197D02*
X61078885Y-128226578D01*
X61078885Y-128226578D02*
X60745552Y-128226578D01*
X60745552Y-128226578D02*
X60555076Y-128274197D01*
X60555076Y-128274197D02*
X60459838Y-128369435D01*
X60459838Y-128369435D02*
X60412219Y-128464673D01*
X63952219Y-126036101D02*
X63476028Y-125702768D01*
X63952219Y-125464673D02*
X62952219Y-125464673D01*
X62952219Y-125464673D02*
X62952219Y-125845625D01*
X62952219Y-125845625D02*
X62999838Y-125940863D01*
X62999838Y-125940863D02*
X63047457Y-125988482D01*
X63047457Y-125988482D02*
X63142695Y-126036101D01*
X63142695Y-126036101D02*
X63285552Y-126036101D01*
X63285552Y-126036101D02*
X63380790Y-125988482D01*
X63380790Y-125988482D02*
X63428409Y-125940863D01*
X63428409Y-125940863D02*
X63476028Y-125845625D01*
X63476028Y-125845625D02*
X63476028Y-125464673D01*
X63904600Y-126417054D02*
X63952219Y-126559911D01*
X63952219Y-126559911D02*
X63952219Y-126798006D01*
X63952219Y-126798006D02*
X63904600Y-126893244D01*
X63904600Y-126893244D02*
X63856980Y-126940863D01*
X63856980Y-126940863D02*
X63761742Y-126988482D01*
X63761742Y-126988482D02*
X63666504Y-126988482D01*
X63666504Y-126988482D02*
X63571266Y-126940863D01*
X63571266Y-126940863D02*
X63523647Y-126893244D01*
X63523647Y-126893244D02*
X63476028Y-126798006D01*
X63476028Y-126798006D02*
X63428409Y-126607530D01*
X63428409Y-126607530D02*
X63380790Y-126512292D01*
X63380790Y-126512292D02*
X63333171Y-126464673D01*
X63333171Y-126464673D02*
X63237933Y-126417054D01*
X63237933Y-126417054D02*
X63142695Y-126417054D01*
X63142695Y-126417054D02*
X63047457Y-126464673D01*
X63047457Y-126464673D02*
X62999838Y-126512292D01*
X62999838Y-126512292D02*
X62952219Y-126607530D01*
X62952219Y-126607530D02*
X62952219Y-126845625D01*
X62952219Y-126845625D02*
X62999838Y-126988482D01*
X62952219Y-127274197D02*
X62952219Y-127845625D01*
X63952219Y-127559911D02*
X62952219Y-127559911D01*
X62674600Y-125326578D02*
X62674600Y-127840864D01*
D11*
X84390952Y-123121009D02*
X84248095Y-123168628D01*
X84248095Y-123168628D02*
X84200476Y-123216247D01*
X84200476Y-123216247D02*
X84152857Y-123311485D01*
X84152857Y-123311485D02*
X84152857Y-123454342D01*
X84152857Y-123454342D02*
X84200476Y-123549580D01*
X84200476Y-123549580D02*
X84248095Y-123597200D01*
X84248095Y-123597200D02*
X84343333Y-123644819D01*
X84343333Y-123644819D02*
X84724285Y-123644819D01*
X84724285Y-123644819D02*
X84724285Y-122644819D01*
X84724285Y-122644819D02*
X84390952Y-122644819D01*
X84390952Y-122644819D02*
X84295714Y-122692438D01*
X84295714Y-122692438D02*
X84248095Y-122740057D01*
X84248095Y-122740057D02*
X84200476Y-122835295D01*
X84200476Y-122835295D02*
X84200476Y-122930533D01*
X84200476Y-122930533D02*
X84248095Y-123025771D01*
X84248095Y-123025771D02*
X84295714Y-123073390D01*
X84295714Y-123073390D02*
X84390952Y-123121009D01*
X84390952Y-123121009D02*
X84724285Y-123121009D01*
X83819523Y-122978152D02*
X83581428Y-123644819D01*
X83343333Y-122978152D02*
X83581428Y-123644819D01*
X83581428Y-123644819D02*
X83676666Y-123882914D01*
X83676666Y-123882914D02*
X83724285Y-123930533D01*
X83724285Y-123930533D02*
X83819523Y-123978152D01*
X82962380Y-123644819D02*
X82962380Y-122644819D01*
X82962380Y-122644819D02*
X82581428Y-122644819D01*
X82581428Y-122644819D02*
X82486190Y-122692438D01*
X82486190Y-122692438D02*
X82438571Y-122740057D01*
X82438571Y-122740057D02*
X82390952Y-122835295D01*
X82390952Y-122835295D02*
X82390952Y-122978152D01*
X82390952Y-122978152D02*
X82438571Y-123073390D01*
X82438571Y-123073390D02*
X82486190Y-123121009D01*
X82486190Y-123121009D02*
X82581428Y-123168628D01*
X82581428Y-123168628D02*
X82962380Y-123168628D01*
X81533809Y-123644819D02*
X81533809Y-123121009D01*
X81533809Y-123121009D02*
X81581428Y-123025771D01*
X81581428Y-123025771D02*
X81676666Y-122978152D01*
X81676666Y-122978152D02*
X81867142Y-122978152D01*
X81867142Y-122978152D02*
X81962380Y-123025771D01*
X81533809Y-123597200D02*
X81629047Y-123644819D01*
X81629047Y-123644819D02*
X81867142Y-123644819D01*
X81867142Y-123644819D02*
X81962380Y-123597200D01*
X81962380Y-123597200D02*
X82009999Y-123501961D01*
X82009999Y-123501961D02*
X82009999Y-123406723D01*
X82009999Y-123406723D02*
X81962380Y-123311485D01*
X81962380Y-123311485D02*
X81867142Y-123263866D01*
X81867142Y-123263866D02*
X81629047Y-123263866D01*
X81629047Y-123263866D02*
X81533809Y-123216247D01*
X81105237Y-123597200D02*
X81009999Y-123644819D01*
X81009999Y-123644819D02*
X80819523Y-123644819D01*
X80819523Y-123644819D02*
X80724285Y-123597200D01*
X80724285Y-123597200D02*
X80676666Y-123501961D01*
X80676666Y-123501961D02*
X80676666Y-123454342D01*
X80676666Y-123454342D02*
X80724285Y-123359104D01*
X80724285Y-123359104D02*
X80819523Y-123311485D01*
X80819523Y-123311485D02*
X80962380Y-123311485D01*
X80962380Y-123311485D02*
X81057618Y-123263866D01*
X81057618Y-123263866D02*
X81105237Y-123168628D01*
X81105237Y-123168628D02*
X81105237Y-123121009D01*
X81105237Y-123121009D02*
X81057618Y-123025771D01*
X81057618Y-123025771D02*
X80962380Y-122978152D01*
X80962380Y-122978152D02*
X80819523Y-122978152D01*
X80819523Y-122978152D02*
X80724285Y-123025771D01*
X80295713Y-123597200D02*
X80200475Y-123644819D01*
X80200475Y-123644819D02*
X80009999Y-123644819D01*
X80009999Y-123644819D02*
X79914761Y-123597200D01*
X79914761Y-123597200D02*
X79867142Y-123501961D01*
X79867142Y-123501961D02*
X79867142Y-123454342D01*
X79867142Y-123454342D02*
X79914761Y-123359104D01*
X79914761Y-123359104D02*
X80009999Y-123311485D01*
X80009999Y-123311485D02*
X80152856Y-123311485D01*
X80152856Y-123311485D02*
X80248094Y-123263866D01*
X80248094Y-123263866D02*
X80295713Y-123168628D01*
X80295713Y-123168628D02*
X80295713Y-123121009D01*
X80295713Y-123121009D02*
X80248094Y-123025771D01*
X80248094Y-123025771D02*
X80152856Y-122978152D01*
X80152856Y-122978152D02*
X80009999Y-122978152D01*
X80009999Y-122978152D02*
X79914761Y-123025771D01*
X79676666Y-123740057D02*
X78914761Y-123740057D01*
X78724284Y-122740057D02*
X78676665Y-122692438D01*
X78676665Y-122692438D02*
X78581427Y-122644819D01*
X78581427Y-122644819D02*
X78343332Y-122644819D01*
X78343332Y-122644819D02*
X78248094Y-122692438D01*
X78248094Y-122692438D02*
X78200475Y-122740057D01*
X78200475Y-122740057D02*
X78152856Y-122835295D01*
X78152856Y-122835295D02*
X78152856Y-122930533D01*
X78152856Y-122930533D02*
X78200475Y-123073390D01*
X78200475Y-123073390D02*
X78771903Y-123644819D01*
X78771903Y-123644819D02*
X78152856Y-123644819D01*
X77200475Y-122692438D02*
X77295713Y-122644819D01*
X77295713Y-122644819D02*
X77438570Y-122644819D01*
X77438570Y-122644819D02*
X77581427Y-122692438D01*
X77581427Y-122692438D02*
X77676665Y-122787676D01*
X77676665Y-122787676D02*
X77724284Y-122882914D01*
X77724284Y-122882914D02*
X77771903Y-123073390D01*
X77771903Y-123073390D02*
X77771903Y-123216247D01*
X77771903Y-123216247D02*
X77724284Y-123406723D01*
X77724284Y-123406723D02*
X77676665Y-123501961D01*
X77676665Y-123501961D02*
X77581427Y-123597200D01*
X77581427Y-123597200D02*
X77438570Y-123644819D01*
X77438570Y-123644819D02*
X77343332Y-123644819D01*
X77343332Y-123644819D02*
X77200475Y-123597200D01*
X77200475Y-123597200D02*
X77152856Y-123549580D01*
X77152856Y-123549580D02*
X77152856Y-123216247D01*
X77152856Y-123216247D02*
X77343332Y-123216247D01*
X76819522Y-122644819D02*
X76152856Y-122644819D01*
X76152856Y-122644819D02*
X76581427Y-123644819D01*
X75343332Y-122978152D02*
X75343332Y-123644819D01*
X75581427Y-122597200D02*
X75819522Y-123311485D01*
X75819522Y-123311485D02*
X75200475Y-123311485D01*
X96609819Y-119118571D02*
X96609819Y-119785237D01*
X96609819Y-119785237D02*
X97609819Y-119356666D01*
X96943152Y-120594761D02*
X97609819Y-120594761D01*
X96562200Y-120356666D02*
X97276485Y-120118571D01*
X97276485Y-120118571D02*
X97276485Y-120737618D01*
X97609819Y-121594761D02*
X97609819Y-121118571D01*
X97609819Y-121118571D02*
X96609819Y-121118571D01*
X96609819Y-121785238D02*
X97609819Y-122118571D01*
X97609819Y-122118571D02*
X96609819Y-122451904D01*
X97514580Y-123356666D02*
X97562200Y-123309047D01*
X97562200Y-123309047D02*
X97609819Y-123166190D01*
X97609819Y-123166190D02*
X97609819Y-123070952D01*
X97609819Y-123070952D02*
X97562200Y-122928095D01*
X97562200Y-122928095D02*
X97466961Y-122832857D01*
X97466961Y-122832857D02*
X97371723Y-122785238D01*
X97371723Y-122785238D02*
X97181247Y-122737619D01*
X97181247Y-122737619D02*
X97038390Y-122737619D01*
X97038390Y-122737619D02*
X96847914Y-122785238D01*
X96847914Y-122785238D02*
X96752676Y-122832857D01*
X96752676Y-122832857D02*
X96657438Y-122928095D01*
X96657438Y-122928095D02*
X96609819Y-123070952D01*
X96609819Y-123070952D02*
X96609819Y-123166190D01*
X96609819Y-123166190D02*
X96657438Y-123309047D01*
X96657438Y-123309047D02*
X96705057Y-123356666D01*
X96705057Y-123737619D02*
X96657438Y-123785238D01*
X96657438Y-123785238D02*
X96609819Y-123880476D01*
X96609819Y-123880476D02*
X96609819Y-124118571D01*
X96609819Y-124118571D02*
X96657438Y-124213809D01*
X96657438Y-124213809D02*
X96705057Y-124261428D01*
X96705057Y-124261428D02*
X96800295Y-124309047D01*
X96800295Y-124309047D02*
X96895533Y-124309047D01*
X96895533Y-124309047D02*
X97038390Y-124261428D01*
X97038390Y-124261428D02*
X97609819Y-123690000D01*
X97609819Y-123690000D02*
X97609819Y-124309047D01*
X96657438Y-125261428D02*
X96609819Y-125166190D01*
X96609819Y-125166190D02*
X96609819Y-125023333D01*
X96609819Y-125023333D02*
X96657438Y-124880476D01*
X96657438Y-124880476D02*
X96752676Y-124785238D01*
X96752676Y-124785238D02*
X96847914Y-124737619D01*
X96847914Y-124737619D02*
X97038390Y-124690000D01*
X97038390Y-124690000D02*
X97181247Y-124690000D01*
X97181247Y-124690000D02*
X97371723Y-124737619D01*
X97371723Y-124737619D02*
X97466961Y-124785238D01*
X97466961Y-124785238D02*
X97562200Y-124880476D01*
X97562200Y-124880476D02*
X97609819Y-125023333D01*
X97609819Y-125023333D02*
X97609819Y-125118571D01*
X97609819Y-125118571D02*
X97562200Y-125261428D01*
X97562200Y-125261428D02*
X97514580Y-125309047D01*
X97514580Y-125309047D02*
X97181247Y-125309047D01*
X97181247Y-125309047D02*
X97181247Y-125118571D01*
X96609819Y-125642381D02*
X96609819Y-126309047D01*
X96609819Y-126309047D02*
X97609819Y-125880476D01*
X96943152Y-127118571D02*
X97609819Y-127118571D01*
X96562200Y-126880476D02*
X97276485Y-126642381D01*
X97276485Y-126642381D02*
X97276485Y-127261428D01*
D12*
X86230000Y-122190000D02*
X86230000Y-124190000D01*
X86230000Y-124190000D02*
X89030000Y-124190000D01*
X89030000Y-122190000D02*
X86230000Y-122190000D01*
X89030000Y-124190000D02*
X89030000Y-122190000D01*
X91845000Y-121690000D02*
X91845000Y-124690000D01*
X94845000Y-121690000D02*
X94845000Y-124690000D01*
X95075000Y-125280000D02*
X94745000Y-125040000D01*
X95075000Y-124800000D01*
X95075000Y-125280000D01*
G36*
X95075000Y-125280000D02*
G01*
X94745000Y-125040000D01*
X95075000Y-124800000D01*
X95075000Y-125280000D01*
G37*
%LPC*%
G36*
X88855000Y-122440000D02*
G01*
X86405000Y-122440000D01*
X86405000Y-123940000D01*
X88855000Y-123940000D01*
X88855000Y-122440000D01*
G37*
D13*
X53340000Y-101600000D03*
D14*
X63500000Y-101600000D03*
D15*
X55880000Y-114300000D03*
D16*
X55880000Y-111760000D03*
X58420000Y-114300000D03*
X58420000Y-111760000D03*
X60960000Y-114300000D03*
X60960000Y-111760000D03*
X63500000Y-114300000D03*
X63500000Y-111760000D03*
X66040000Y-114300000D03*
X66040000Y-111760000D03*
D13*
X53340000Y-99060000D03*
D14*
X63500000Y-99060000D03*
D13*
X129540000Y-116920000D03*
X129540000Y-121920000D03*
D17*
X109220000Y-91440000D03*
D13*
X109220000Y-88900000D03*
X109220000Y-86360000D03*
X109220000Y-83820000D03*
X109220000Y-81280000D03*
X109220000Y-78740000D03*
X109220000Y-76200000D03*
X109220000Y-73660000D03*
X101600000Y-73660000D03*
X101600000Y-76200000D03*
X101600000Y-78740000D03*
X101600000Y-81280000D03*
X101600000Y-83820000D03*
X101600000Y-86360000D03*
X101600000Y-88900000D03*
X101600000Y-91440000D03*
D17*
X60325000Y-71120000D03*
D13*
X60325000Y-68580000D03*
X60325000Y-66040000D03*
X60325000Y-63500000D03*
X60325000Y-60960000D03*
X60325000Y-58420000D03*
X60325000Y-55880000D03*
X60325000Y-53340000D03*
X52705000Y-53340000D03*
X52705000Y-55880000D03*
X52705000Y-58420000D03*
X52705000Y-60960000D03*
X52705000Y-63500000D03*
X52705000Y-66040000D03*
X52705000Y-68580000D03*
X52705000Y-71120000D03*
D18*
X43955000Y-125730000D03*
X44657944Y-124032944D03*
X44657944Y-127427056D03*
X46355000Y-123330000D03*
D19*
X46355000Y-125730000D03*
D18*
X46355000Y-128130000D03*
X48052056Y-124032944D03*
X48052056Y-127427056D03*
X48755000Y-125730000D03*
X129680000Y-129540000D03*
X130382944Y-127842944D03*
X130382944Y-131237056D03*
X132080000Y-127140000D03*
D19*
X132080000Y-129540000D03*
D18*
X132080000Y-131940000D03*
X133777056Y-127842944D03*
X133777056Y-131237056D03*
X134480000Y-129540000D03*
D13*
X59015000Y-74930000D03*
X54015000Y-74930000D03*
D18*
X129680000Y-49530000D03*
X130382944Y-47832944D03*
X130382944Y-51227056D03*
X132080000Y-47130000D03*
D19*
X132080000Y-49530000D03*
D18*
X132080000Y-51930000D03*
X133777056Y-47832944D03*
X133777056Y-51227056D03*
X134480000Y-49530000D03*
D17*
X83185000Y-71120000D03*
D13*
X83185000Y-68580000D03*
X83185000Y-66040000D03*
X83185000Y-63500000D03*
X83185000Y-60960000D03*
X83185000Y-58420000D03*
X83185000Y-55880000D03*
X83185000Y-53340000D03*
X75565000Y-53340000D03*
X75565000Y-55880000D03*
X75565000Y-58420000D03*
X75565000Y-60960000D03*
X75565000Y-63500000D03*
X75565000Y-66040000D03*
X75565000Y-68580000D03*
X75565000Y-71120000D03*
X97790000Y-62865000D03*
X97790000Y-67865000D03*
D20*
X116840000Y-73660000D03*
D13*
X116840000Y-76200000D03*
X116840000Y-78740000D03*
X116840000Y-81280000D03*
X116840000Y-83820000D03*
X116840000Y-86360000D03*
X116840000Y-88900000D03*
X116840000Y-91440000D03*
X124460000Y-91440000D03*
X124460000Y-88900000D03*
X124460000Y-86360000D03*
X124460000Y-83820000D03*
X124460000Y-81280000D03*
X124460000Y-78740000D03*
X124460000Y-76200000D03*
X124460000Y-73660000D03*
D20*
X116840000Y-96520000D03*
D13*
X116840000Y-99060000D03*
X116840000Y-101600000D03*
X116840000Y-104140000D03*
X116840000Y-106680000D03*
X116840000Y-109220000D03*
X116840000Y-111760000D03*
X116840000Y-114300000D03*
X124460000Y-114300000D03*
X124460000Y-111760000D03*
X124460000Y-109220000D03*
X124460000Y-106680000D03*
X124460000Y-104140000D03*
X124460000Y-101600000D03*
X124460000Y-99060000D03*
X124460000Y-96520000D03*
D21*
X48895000Y-80010000D03*
D16*
X46355000Y-80010000D03*
X48895000Y-77470000D03*
X46355000Y-77470000D03*
X48895000Y-74930000D03*
X46355000Y-74930000D03*
X48895000Y-72390000D03*
X46355000Y-72390000D03*
X48895000Y-69850000D03*
X46355000Y-69850000D03*
X48895000Y-67310000D03*
X46355000Y-67310000D03*
X48895000Y-64770000D03*
X46355000Y-64770000D03*
D17*
X71755000Y-71120000D03*
D13*
X71755000Y-68580000D03*
X71755000Y-66040000D03*
X71755000Y-63500000D03*
X71755000Y-60960000D03*
X71755000Y-58420000D03*
X71755000Y-55880000D03*
X71755000Y-53340000D03*
X64135000Y-53340000D03*
X64135000Y-55880000D03*
X64135000Y-58420000D03*
X64135000Y-60960000D03*
X64135000Y-63500000D03*
X64135000Y-66040000D03*
X64135000Y-68580000D03*
X64135000Y-71120000D03*
D22*
X77470000Y-111760000D03*
D23*
X77470000Y-109220000D03*
X77470000Y-106680000D03*
X77470000Y-104140000D03*
X77470000Y-101600000D03*
X77470000Y-99060000D03*
X77470000Y-96520000D03*
X77470000Y-93980000D03*
X77470000Y-91440000D03*
X77470000Y-88900000D03*
X77470000Y-86360000D03*
X77470000Y-83820000D03*
X77470000Y-81280000D03*
X77470000Y-78740000D03*
X69850000Y-78740000D03*
X69850000Y-81280000D03*
X69850000Y-83820000D03*
X69850000Y-86360000D03*
X69850000Y-88900000D03*
X69850000Y-91440000D03*
X69850000Y-93980000D03*
X69850000Y-96520000D03*
X69850000Y-99060000D03*
X69850000Y-101600000D03*
X69850000Y-104140000D03*
X69850000Y-106680000D03*
X69850000Y-109220000D03*
X69850000Y-111760000D03*
D24*
X124460000Y-119380000D03*
D13*
X121920000Y-119380000D03*
X119380000Y-119380000D03*
X116840000Y-119380000D03*
X114300000Y-119380000D03*
X111760000Y-119380000D03*
X109220000Y-119380000D03*
X106680000Y-119380000D03*
X106680000Y-127000000D03*
X109220000Y-127000000D03*
X111760000Y-127000000D03*
X114300000Y-127000000D03*
X116840000Y-127000000D03*
X119380000Y-127000000D03*
X121920000Y-127000000D03*
X124460000Y-127000000D03*
X97790000Y-97115000D03*
X97790000Y-92115000D03*
D15*
X55245000Y-88900000D03*
D16*
X57785000Y-88900000D03*
X60325000Y-88900000D03*
D13*
X129540000Y-68580000D03*
X129540000Y-73580000D03*
D21*
X78740000Y-124460000D03*
D16*
X78740000Y-121920000D03*
D25*
X71120000Y-119380000D03*
D16*
X71120000Y-121920000D03*
X68580000Y-119380000D03*
X68580000Y-121920000D03*
X66040000Y-119380000D03*
X66040000Y-121920000D03*
X63500000Y-119380000D03*
X63500000Y-121920000D03*
X60960000Y-119380000D03*
X60960000Y-121920000D03*
X58420000Y-119380000D03*
X58420000Y-121920000D03*
X55880000Y-119380000D03*
X55880000Y-121920000D03*
D17*
X109220000Y-114300000D03*
D13*
X109220000Y-111760000D03*
X109220000Y-109220000D03*
X109220000Y-106680000D03*
X109220000Y-104140000D03*
X109220000Y-101600000D03*
X109220000Y-99060000D03*
X109220000Y-96520000D03*
X101600000Y-96520000D03*
X101600000Y-99060000D03*
X101600000Y-101600000D03*
X101600000Y-104140000D03*
X101600000Y-106680000D03*
X101600000Y-109220000D03*
X101600000Y-111760000D03*
X101600000Y-114300000D03*
D20*
X116840000Y-50800000D03*
D13*
X116840000Y-53340000D03*
X116840000Y-55880000D03*
X116840000Y-58420000D03*
X116840000Y-60960000D03*
X116840000Y-63500000D03*
X116840000Y-66040000D03*
X116840000Y-68580000D03*
X124460000Y-68580000D03*
X124460000Y-66040000D03*
X124460000Y-63500000D03*
X124460000Y-60960000D03*
X124460000Y-58420000D03*
X124460000Y-55880000D03*
X124460000Y-53340000D03*
X124460000Y-50800000D03*
X129540000Y-60880000D03*
X129540000Y-55880000D03*
X81280000Y-87630000D03*
X81280000Y-92630000D03*
D26*
X90805000Y-50800000D03*
D16*
X93345000Y-50800000D03*
X90805000Y-53340000D03*
X93345000Y-53340000D03*
X90805000Y-55880000D03*
X93345000Y-55880000D03*
X90805000Y-58420000D03*
X93345000Y-58420000D03*
X90805000Y-60960000D03*
X93345000Y-60960000D03*
X90805000Y-63500000D03*
X93345000Y-63500000D03*
X90805000Y-66040000D03*
X93345000Y-66040000D03*
X90805000Y-68580000D03*
X93345000Y-68580000D03*
X90805000Y-71120000D03*
X93345000Y-71120000D03*
X90805000Y-73660000D03*
X93345000Y-73660000D03*
X90805000Y-76200000D03*
X93345000Y-76200000D03*
X90805000Y-78740000D03*
X93345000Y-78740000D03*
D18*
X43955000Y-52070000D03*
X44657944Y-50372944D03*
X44657944Y-53767056D03*
X46355000Y-49670000D03*
D19*
X46355000Y-52070000D03*
D18*
X46355000Y-54470000D03*
X48052056Y-50372944D03*
X48052056Y-53767056D03*
X48755000Y-52070000D03*
D15*
X55245000Y-93980000D03*
D16*
X57785000Y-93980000D03*
X60325000Y-93980000D03*
D13*
X78105000Y-74930000D03*
X73105000Y-74930000D03*
X64850000Y-74930000D03*
X69850000Y-74930000D03*
D17*
X109220000Y-68580000D03*
D13*
X109220000Y-66040000D03*
X109220000Y-63500000D03*
X109220000Y-60960000D03*
X109220000Y-58420000D03*
X109220000Y-55880000D03*
X109220000Y-53340000D03*
X109220000Y-50800000D03*
X101600000Y-50800000D03*
X101600000Y-53340000D03*
X101600000Y-55880000D03*
X101600000Y-58420000D03*
X101600000Y-60960000D03*
X101600000Y-63500000D03*
X101600000Y-66040000D03*
X101600000Y-68580000D03*
X129540000Y-101520000D03*
X129540000Y-96520000D03*
D21*
X48895000Y-111760000D03*
D16*
X46355000Y-111760000D03*
X48895000Y-109220000D03*
X46355000Y-109220000D03*
X48895000Y-106680000D03*
X46355000Y-106680000D03*
X48895000Y-104140000D03*
X46355000Y-104140000D03*
X48895000Y-101600000D03*
X46355000Y-101600000D03*
X48895000Y-99060000D03*
X46355000Y-99060000D03*
X48895000Y-96520000D03*
X46355000Y-96520000D03*
X48895000Y-93980000D03*
X46355000Y-93980000D03*
X48895000Y-91440000D03*
X46355000Y-91440000D03*
X48895000Y-88900000D03*
X46355000Y-88900000D03*
X48895000Y-86360000D03*
X46355000Y-86360000D03*
D15*
X55245000Y-83820000D03*
D16*
X57785000Y-83820000D03*
X60325000Y-83820000D03*
D13*
X101600000Y-124380000D03*
X101600000Y-119380000D03*
D27*
X88355000Y-123190000D03*
D28*
X86905000Y-123190000D03*
D29*
X94320000Y-124890000D03*
X93670000Y-124890000D03*
X93020000Y-124890000D03*
X92370000Y-124890000D03*
X92370000Y-121490000D03*
X93020000Y-121490000D03*
X93670000Y-121490000D03*
X94320000Y-121490000D03*
%LPD*%
M02*
