M48
; DRILL file {KiCad 9.0.1} date 2025-04-27T22:31:10+0200
; FORMAT={-:-/ absolute / metric / decimal}
; #@! TF.CreationDate,2025-04-27T22:31:10+02:00
; #@! TF.GenerationSoftware,Kicad,Pcbnew,9.0.1
; #@! TF.FileFunction,Plated,1,2,PTH
FMAT,2
METRIC
; #@! TA.AperFunction,Plated,PTH,ComponentDrill
T1C0.500
; #@! TA.AperFunction,Plated,PTH,ComponentDrill
T2C0.800
; #@! TA.AperFunction,Plated,PTH,ComponentDrill
T3C1.000
; #@! TA.AperFunction,Plated,PTH,ComponentDrill
T4C1.100
; #@! TA.AperFunction,Plated,PTH,ComponentDrill
T5C3.200
%
G90
G05
T1
X43.955Y-52.07
X43.955Y-125.73
X44.658Y-50.373
X44.658Y-53.767
X44.658Y-124.033
X44.658Y-127.427
X46.355Y-49.67
X46.355Y-54.47
X46.355Y-123.33
X46.355Y-128.13
X48.052Y-50.373
X48.052Y-53.767
X48.052Y-124.033
X48.052Y-127.427
X48.755Y-52.07
X48.755Y-125.73
X129.68Y-49.53
X129.68Y-129.54
X130.383Y-47.833
X130.383Y-51.227
X130.383Y-127.843
X130.383Y-131.237
X132.08Y-47.13
X132.08Y-51.93
X132.08Y-127.14
X132.08Y-131.94
X133.777Y-47.833
X133.777Y-51.227
X133.777Y-127.843
X133.777Y-131.237
X134.48Y-49.53
X134.48Y-129.54
T2
X52.705Y-53.34
X52.705Y-55.88
X52.705Y-58.42
X52.705Y-60.96
X52.705Y-63.5
X52.705Y-66.04
X52.705Y-68.58
X52.705Y-71.12
X53.34Y-99.06
X53.34Y-101.6
X54.015Y-74.93
X59.015Y-74.93
X60.325Y-53.34
X60.325Y-55.88
X60.325Y-58.42
X60.325Y-60.96
X60.325Y-63.5
X60.325Y-66.04
X60.325Y-68.58
X60.325Y-71.12
X63.5Y-99.06
X63.5Y-101.6
X64.135Y-53.34
X64.135Y-55.88
X64.135Y-58.42
X64.135Y-60.96
X64.135Y-63.5
X64.135Y-66.04
X64.135Y-68.58
X64.135Y-71.12
X64.85Y-74.93
X69.85Y-74.93
X69.85Y-78.74
X69.85Y-81.28
X69.85Y-83.82
X69.85Y-86.36
X69.85Y-88.9
X69.85Y-91.44
X69.85Y-93.98
X69.85Y-96.52
X69.85Y-99.06
X69.85Y-101.6
X69.85Y-104.14
X69.85Y-106.68
X69.85Y-109.22
X69.85Y-111.76
X71.755Y-53.34
X71.755Y-55.88
X71.755Y-58.42
X71.755Y-60.96
X71.755Y-63.5
X71.755Y-66.04
X71.755Y-68.58
X71.755Y-71.12
X73.105Y-74.93
X75.565Y-53.34
X75.565Y-55.88
X75.565Y-58.42
X75.565Y-60.96
X75.565Y-63.5
X75.565Y-66.04
X75.565Y-68.58
X75.565Y-71.12
X77.47Y-78.74
X77.47Y-81.28
X77.47Y-83.82
X77.47Y-86.36
X77.47Y-88.9
X77.47Y-91.44
X77.47Y-93.98
X77.47Y-96.52
X77.47Y-99.06
X77.47Y-101.6
X77.47Y-104.14
X77.47Y-106.68
X77.47Y-109.22
X77.47Y-111.76
X78.105Y-74.93
X81.28Y-87.63
X81.28Y-92.63
X83.185Y-53.34
X83.185Y-55.88
X83.185Y-58.42
X83.185Y-60.96
X83.185Y-63.5
X83.185Y-66.04
X83.185Y-68.58
X83.185Y-71.12
X97.79Y-62.865
X97.79Y-67.865
X97.79Y-92.115
X97.79Y-97.115
X101.6Y-50.8
X101.6Y-53.34
X101.6Y-55.88
X101.6Y-58.42
X101.6Y-60.96
X101.6Y-63.5
X101.6Y-66.04
X101.6Y-68.58
X101.6Y-73.66
X101.6Y-76.2
X101.6Y-78.74
X101.6Y-81.28
X101.6Y-83.82
X101.6Y-86.36
X101.6Y-88.9
X101.6Y-91.44
X101.6Y-96.52
X101.6Y-99.06
X101.6Y-101.6
X101.6Y-104.14
X101.6Y-106.68
X101.6Y-109.22
X101.6Y-111.76
X101.6Y-114.3
X101.6Y-119.38
X101.6Y-124.38
X106.68Y-119.38
X106.68Y-127.0
X109.22Y-50.8
X109.22Y-53.34
X109.22Y-55.88
X109.22Y-58.42
X109.22Y-60.96
X109.22Y-63.5
X109.22Y-66.04
X109.22Y-68.58
X109.22Y-73.66
X109.22Y-76.2
X109.22Y-78.74
X109.22Y-81.28
X109.22Y-83.82
X109.22Y-86.36
X109.22Y-88.9
X109.22Y-91.44
X109.22Y-96.52
X109.22Y-99.06
X109.22Y-101.6
X109.22Y-104.14
X109.22Y-106.68
X109.22Y-109.22
X109.22Y-111.76
X109.22Y-114.3
X109.22Y-119.38
X109.22Y-127.0
X111.76Y-119.38
X111.76Y-127.0
X114.3Y-119.38
X114.3Y-127.0
X116.84Y-50.8
X116.84Y-53.34
X116.84Y-55.88
X116.84Y-58.42
X116.84Y-60.96
X116.84Y-63.5
X116.84Y-66.04
X116.84Y-68.58
X116.84Y-73.66
X116.84Y-76.2
X116.84Y-78.74
X116.84Y-81.28
X116.84Y-83.82
X116.84Y-86.36
X116.84Y-88.9
X116.84Y-91.44
X116.84Y-96.52
X116.84Y-99.06
X116.84Y-101.6
X116.84Y-104.14
X116.84Y-106.68
X116.84Y-109.22
X116.84Y-111.76
X116.84Y-114.3
X116.84Y-119.38
X116.84Y-127.0
X119.38Y-119.38
X119.38Y-127.0
X121.92Y-119.38
X121.92Y-127.0
X124.46Y-50.8
X124.46Y-53.34
X124.46Y-55.88
X124.46Y-58.42
X124.46Y-60.96
X124.46Y-63.5
X124.46Y-66.04
X124.46Y-68.58
X124.46Y-73.66
X124.46Y-76.2
X124.46Y-78.74
X124.46Y-81.28
X124.46Y-83.82
X124.46Y-86.36
X124.46Y-88.9
X124.46Y-91.44
X124.46Y-96.52
X124.46Y-99.06
X124.46Y-101.6
X124.46Y-104.14
X124.46Y-106.68
X124.46Y-109.22
X124.46Y-111.76
X124.46Y-114.3
X124.46Y-119.38
X124.46Y-127.0
X129.54Y-55.88
X129.54Y-60.88
X129.54Y-68.58
X129.54Y-73.58
X129.54Y-96.52
X129.54Y-101.52
X129.54Y-116.92
X129.54Y-121.92
T3
X46.355Y-64.77
X46.355Y-67.31
X46.355Y-69.85
X46.355Y-72.39
X46.355Y-74.93
X46.355Y-77.47
X46.355Y-80.01
X46.355Y-86.36
X46.355Y-88.9
X46.355Y-91.44
X46.355Y-93.98
X46.355Y-96.52
X46.355Y-99.06
X46.355Y-101.6
X46.355Y-104.14
X46.355Y-106.68
X46.355Y-109.22
X46.355Y-111.76
X48.895Y-64.77
X48.895Y-67.31
X48.895Y-69.85
X48.895Y-72.39
X48.895Y-74.93
X48.895Y-77.47
X48.895Y-80.01
X48.895Y-86.36
X48.895Y-88.9
X48.895Y-91.44
X48.895Y-93.98
X48.895Y-96.52
X48.895Y-99.06
X48.895Y-101.6
X48.895Y-104.14
X48.895Y-106.68
X48.895Y-109.22
X48.895Y-111.76
X55.245Y-83.82
X55.245Y-88.9
X55.245Y-93.98
X57.785Y-83.82
X57.785Y-88.9
X57.785Y-93.98
X60.325Y-83.82
X60.325Y-88.9
X60.325Y-93.98
X60.96Y-121.92
X90.805Y-50.8
X90.805Y-53.34
X90.805Y-55.88
X90.805Y-58.42
X90.805Y-60.96
X90.805Y-63.5
X90.805Y-66.04
X90.805Y-68.58
X90.805Y-71.12
X90.805Y-73.66
X90.805Y-76.2
X90.805Y-78.74
X93.345Y-50.8
X93.345Y-53.34
X93.345Y-55.88
X93.345Y-58.42
X93.345Y-60.96
X93.345Y-63.5
X93.345Y-66.04
X93.345Y-68.58
X93.345Y-71.12
X93.345Y-73.66
X93.345Y-76.2
X93.345Y-78.74
X130.175Y-106.68
X130.175Y-109.22
X130.175Y-111.76
T4
X80.645Y-121.92
X80.645Y-124.46
T5
X46.355Y-52.07
X46.355Y-125.73
X132.08Y-49.53
X132.08Y-129.54
M30
